polygon
1
  9.4740977    47.0663872
  9.4751021    47.0669651
  9.4762323    47.0674246
  9.4784814    47.0683591
  9.4808687    47.0692767
  9.487628     47.0719213
  9.4911069    47.0733123
  9.4922834    47.0738419
  9.5024208    47.0794116
  9.510636     47.0839363
  9.5125464    47.0849969
  9.5127784    47.085146
  9.513538     47.085634
  9.5144231    47.0863433
  9.5150967    47.0870672
  9.5156092    47.0878516
  9.516034     47.0887491
  9.5180117    47.0930646
  9.5187611    47.0947867
  9.5193199    47.0965537
  9.5195893    47.098335
  9.5196235    47.1001302
  9.5194574    47.1019238
  9.5188636    47.1055023
  9.5184525    47.107268
  9.516423     47.1150846
  9.5161487    47.1161405
  9.5146617    47.1214421
  9.514562     47.1218308
  9.5123933    47.1303001
  9.511844     47.132016
  9.5111488    47.1337768
  9.5096981    47.1372456
  9.5085923    47.1398524
  9.5081922    47.1407252
  9.5072093    47.1423814
  9.5058384    47.1438979
  9.5026605    47.14688
  9.5011802    47.1482687
  9.4997308    47.1497696
  9.498649     47.1514086
  9.4954711    47.1563478
  9.4950466    47.1569956
  9.4933164    47.1596363
  9.4913071    47.1629699
  9.4906702    47.1644959
  9.4906605    47.1645666
  9.4893385    47.1688968
  9.4875053    47.1752765
  9.4859854    47.1805224
  9.485849     47.1814408
  9.4859368    47.1823552
  9.4863246    47.1841443
  9.4878769    47.1901639
  9.4881508    47.1912256
  9.4891846    47.194747
  9.4897626    47.1964922
  9.4905083    47.1979399
  9.4906384    47.1981925
  9.4951386    47.2045705
  9.4966896    47.2068841
  9.4994195    47.2109552
  9.4996097    47.2112785
  9.4996409    47.2113544
  9.4998668    47.2121465
  9.5012022    47.2183548
  9.50165      47.2201733
  9.5035101    47.2235052
  9.5046477    47.2251232
  9.5086136    47.2297785
  9.5103195    47.231774
  9.5126016    47.2344432
  9.5180202    47.240643
  9.5192345    47.2422056
  9.5204591    47.2439603
  9.524756     47.2523246
  9.5292745    47.2607803
  9.5298397    47.2618498
  9.53012      47.2624899
  9.5302703    47.2633617
  9.5303408    47.2687836
  9.5303823    47.2694728
  9.5303947    47.2696783
  9.5307327    47.2705751
  9.5319324    47.2695823
  9.5320744    47.2694567
  9.5325033    47.2690772
  9.5326298    47.2689361
  9.5328289    47.268752
  9.5332352    47.2684363
  9.5333712    47.2682935
  9.5334552    47.2681977
  9.5338664    47.2678245
  9.5343201    47.2676028
  9.5347747    47.2672784
  9.5354311    47.2668181
  9.5355337    47.26675
  9.5358147    47.2665059
  9.5359109    47.2664312
  9.5359832    47.2663283
  9.5360702    47.2662271
  9.5361931    47.2661742
  9.5364019    47.2659587
  9.5364977    47.2659274
  9.5365258    47.2659043
  9.5366232    47.2658581
  9.5368449    47.2658607
  9.5369848    47.2658715
  9.5371105    47.2658526
  9.5371859    47.2658171
  9.537244     47.2657588
  9.537285     47.2657523
  9.5373888    47.2657732
  9.5375272    47.2658478
  9.5376825    47.2659048
  9.5377409    47.2659538
  9.537735     47.2660807
  9.537801     47.2661011
  9.5379697    47.2660325
  9.5380559    47.2660075
  9.5381329    47.2659916
  9.5382271    47.2660162
  9.5384314    47.2659156
  9.5384982    47.2658909
  9.5385945    47.2658882
  9.5387654    47.2658177
  9.5389186    47.2657689
  9.5389632    47.2657473
  9.5390462    47.265566
  9.539161     47.2655029
  9.5392563    47.265384
  9.5393816    47.2652786
  9.5394621    47.2652309
  9.5395216    47.2651742
  9.5396154    47.2651059
  9.5396783    47.2650753
  9.5397908    47.2651005
  9.5398815    47.2649801
  9.5398855    47.2648999
  9.5397731    47.2647416
  9.5397431    47.2646625
  9.5397995    47.2645491
  9.5398359    47.2644495
  9.53991      47.2643072
  9.5399494    47.2642441
  9.540011     47.2641634
  9.5400542    47.2641327
  9.540165     47.2640242
  9.5401887    47.2639666
  9.5403068    47.2633986
  9.5402659    47.2632953
  9.5402524    47.2631536
  9.5402988    47.2630596
  9.5403436    47.2630057
  9.5403772    47.2627636
  9.5403596    47.2627173
  9.5402541    47.2626174
  9.5400841    47.2625636
  9.5398542    47.262408
  9.5397277    47.2623346
  9.5396803    47.2623208
  9.5396319    47.2622869
  9.5395773    47.2622174
  9.5395519    47.2621619
  9.5394729    47.26203
  9.5393568    47.2618865
  9.5393499    47.2618215
  9.5395837    47.2617318
  9.5396785    47.2617142
  9.5397188    47.2616864
  9.5396566    47.2615594
  9.5396795    47.2614977
  9.5395617    47.2613907
  9.539505     47.2613469
  9.5404354    47.2607846
  9.5406893    47.2606358
  9.5410505    47.2604363
  9.5413586    47.2602757
  9.5416207    47.2601483
  9.5429376    47.2595319
  9.5430595    47.2594674
  9.543135     47.2594185
  9.5432253    47.2593486
  9.5432963    47.2592807
  9.5433582    47.2592087
  9.5434179    47.25912
  9.5435224    47.2589333
  9.5435828    47.2588403
  9.5436631    47.2587475
  9.5437163    47.2586971
  9.5438358    47.2586066
  9.5439136    47.2585592
  9.5439961    47.2585158
  9.5440948    47.258472
  9.5448175    47.258185
  9.5452042    47.2580315
  9.5453242    47.2579865
  9.5454492    47.2579455
  9.5456898    47.2578807
  9.5458239    47.2578524
  9.5463469    47.2577668
  9.5465982    47.2577158
  9.5468142    47.2576612
  9.5479512    47.257322
  9.5480775    47.2572813
  9.5482887    47.2571989
  9.5484849    47.2571052
  9.5486718    47.2569971
  9.5487588    47.2569384
  9.5495908    47.2563328
  9.5496893    47.2562637
  9.5498825    47.2561405
  9.5499867    47.2560798
  9.5502433    47.2559503
  9.5509428    47.2556473
  9.5510576    47.255593
  9.5512934    47.2554675
  9.5515264    47.255322
  9.5517311    47.2551727
  9.5519295    47.2550039
  9.5520975    47.2548353
  9.5525524    47.2543424
  9.5526611    47.2542364
  9.5527636    47.254146
  9.5528632    47.2540655
  9.5529774    47.2539804
  9.5530952    47.253901
  9.5541646    47.2531966
  9.5542889    47.2531284
  9.5544139    47.2530799
  9.5545539    47.2530452
  9.5547045    47.2530257
  9.5549964    47.2530031
  9.5551244    47.2529883
  9.5552604    47.2529552
  9.5553768    47.2529137
  9.5554831    47.2528613
  9.5555765    47.2528012
  9.5556623    47.252724
  9.5559706    47.2524053
  9.5570895    47.2512394
  9.5571814    47.2511578
  9.5572775    47.251092
  9.5573754    47.2510345
  9.5574666    47.2509903
  9.557594     47.2509424
  9.5577176    47.250906
  9.557864     47.2508752
  9.558543     47.2508028
  9.5587236    47.2507785
  9.5588738    47.2507464
  9.5590162    47.2507039
  9.5591521    47.2506522
  9.5592808    47.2505894
  9.5594054    47.2505158
  9.5594835    47.250463
  9.559598     47.2503634
  9.559696     47.2502561
  9.5604562    47.2493202
  9.5605274    47.2492438
  9.5606142    47.2491727
  9.5607182    47.2491088
  9.5608186    47.2490595
  9.5612361    47.2488768
  9.5612885    47.248848
  9.561336     47.2488155
  9.561362     47.2487874
  9.5613971    47.2487363
  9.5614128    47.2486912
  9.561413     47.2486311
  9.5613931    47.2485568
  9.561245     47.2482864
  9.5615124    47.2482101
  9.5623892    47.2471288
  9.5636558    47.2459253
  9.5643643    47.2452221
  9.5660018    47.2436121
  9.5667082    47.2429103
  9.5672123    47.2418705
  9.5673939    47.2409129
  9.567249     47.2407084
  9.5670784    47.2405567
  9.5668272    47.240259
  9.56675      47.2401354
  9.5667066    47.2400862
  9.5666134    47.2400737
  9.5664829    47.2399486
  9.5664259    47.2398474
  9.566247     47.239665
  9.5660757    47.2395086
  9.565801     47.2392803
  9.5658037    47.2392266
  9.5655264    47.2389983
  9.5652972    47.2388288
  9.5651764    47.2387608
  9.5650894    47.2386545
  9.5649756    47.2385816
  9.564957     47.2385218
  9.5648841    47.2384183
  9.5647909    47.2383701
  9.564705     47.2383019
  9.5646348    47.2382747
  9.5646328    47.2382001
  9.5645487    47.2381037
  9.5642839    47.2378662
  9.5641858    47.2377649
  9.5640666    47.2376649
  9.5640012    47.2377153
  9.5639933    47.2376381
  9.5639061    47.2375477
  9.5638009    47.237462
  9.5636487    47.2372942
  9.5635898    47.2372453
  9.5634032    47.237128
  9.5633342    47.2370413
  9.5631799    47.2369277
  9.5631465    47.2369695
  9.5629729    47.2369146
  9.5629251    47.2368111
  9.5628566    47.2367501
  9.5627542    47.2366974
  9.5626775    47.2365986
  9.5625094    47.2364227
  9.5623961    47.2362256
  9.5620564    47.2360499
  9.561999     47.2359581
  9.561857     47.2358061
  9.5618091    47.2357772
  9.5617737    47.2356848
  9.5616135    47.2355655
  9.5613499    47.2353301
  9.5612529    47.2352692
  9.5611616    47.2352494
  9.5611753    47.2352186
  9.5608333    47.2349629
  9.5606915    47.234932
  9.5606373    47.2348199
  9.5602191    47.234537
  9.5600642    47.2343967
  9.5599143    47.2343446
  9.5597966    47.234202
  9.5596634    47.2341592
  9.5596143    47.2340785
  9.5595295    47.2339565
  9.5592395    47.2336914
  9.5589339    47.2334839
  9.5590148    47.2333478
  9.5588029    47.2332627
  9.5586381    47.2331356
  9.5584419    47.2329969
  9.5584006    47.2329159
  9.5582782    47.2327473
  9.5582135    47.2326675
  9.5580478    47.2326453
  9.5582036    47.2325465
  9.5581073    47.2324826
  9.5580336    47.2323626
  9.5579658    47.2323244
  9.5579309    47.2321602
  9.5576598    47.2319328
  9.5576505    47.2318151
  9.5575276    47.2315723
  9.5575968    47.2314994
  9.5576046    47.2314498
  9.5574873    47.2312773
  9.5573423    47.2311028
  9.5572155    47.2310254
  9.5571864    47.230918
  9.5570977    47.2307666
  9.5570397    47.2307058
  9.55683      47.230617
  9.5567059    47.2304918
  9.556665     47.2304768
  9.5565737    47.2303641
  9.5565162    47.2302772
  9.5563546    47.2301633
  9.5563964    47.2301154
  9.5565084    47.2300301
  9.5564967    47.230013
  9.5562978    47.2299183
  9.556268     47.2299282
  9.5562061    47.2297996
  9.5561215    47.2297344
  9.5560165    47.2296095
  9.5559103    47.2293439
  9.5559811    47.2293128
  9.555914     47.229211
  9.5557456    47.2291219
  9.5555726    47.2290005
  9.5554858    47.2289584
  9.5554235    47.228859
  9.5554701    47.2287922
  9.555389     47.2286816
  9.5553256    47.2285615
  9.5552185    47.2282375
  9.5551874    47.2281722
  9.5549626    47.2279657
  9.554754     47.2277894
  9.5546194    47.2276399
  9.5544587    47.2274974
  9.5544022    47.2274563
  9.5544742    47.227386
  9.5543588    47.2273191
  9.5544406    47.2272464
  9.554413     47.2272289
  9.554295     47.227181
  9.5541902    47.2269236
  9.5542425    47.2268998
  9.5546741    47.2266598
  9.5546302    47.2265832
  9.5545654    47.2264888
  9.5543912    47.2263901
  9.5541824    47.2262937
  9.5539376    47.226117
  9.5536936    47.2259233
  9.5534873    47.22575
  9.5533892    47.2256793
  9.5533004    47.2255478
  9.5532755    47.2254643
  9.5531811    47.2253181
  9.55302      47.2251132
  9.5528326    47.225007
  9.5526863    47.2249708
  9.5524585    47.2249855
  9.5526374    47.2248335
  9.5527307    47.2247423
  9.5526845    47.2246651
  9.5524633    47.2245182
  9.5524071    47.2244973
  9.5523351    47.2243313
  9.5522819    47.2242538
  9.5521806    47.2239863
  9.5517543    47.2237475
  9.5520656    47.2236645
  9.5532769    47.2237724
  9.5536801    47.2238116
  9.5539463    47.2239152
  9.5543161    47.2241039
  9.554484     47.2239615
  9.554593     47.2238938
  9.5552163    47.2237864
  9.5554243    47.2237868
  9.5553981    47.2225062
  9.555771     47.2225674
  9.5558707    47.2226005
  9.556049     47.2227574
  9.5562002    47.2227872
  9.5569054    47.2230535
  9.5572116    47.2231821
  9.5574213    47.2231966
  9.557552     47.2232307
  9.5576283    47.2232782
  9.5576842    47.2233065
  9.5578571    47.2234564
  9.5579268    47.2237008
  9.5581848    47.2237788
  9.5583759    47.223915
  9.5584829    47.2240887
  9.5585232    47.2241165
  9.5585376    47.2241136
  9.5587177    47.2239722
  9.5588124    47.2238673
  9.5591028    47.2237539
  9.5595189    47.2237296
  9.5596233    47.2237471
  9.5597026    47.2237482
  9.5598341    47.2237017
  9.5599896    47.2237104
  9.5601033    47.2236812
  9.5602497    47.223666
  9.5603529    47.2236229
  9.5604982    47.2235457
  9.5606628    47.2234518
  9.5609151    47.2233473
  9.5611058    47.2232597
  9.561182     47.223206
  9.5612199    47.223187
  9.5612739    47.2231751
  9.5613847    47.2231855
  9.5614478    47.2231615
  9.5615425    47.2230703
  9.5616692    47.2230525
  9.5618249    47.2229985
  9.5618995    47.2229582
  9.5619694    47.2228917
  9.5621074    47.2227964
  9.5622198    47.2226774
  9.5622873    47.2226363
  9.5624352    47.222518
  9.562529     47.2224689
  9.562781     47.2222271
  9.5628905    47.2221934
  9.5630254    47.222118
  9.5631374    47.2220013
  9.5632281    47.2219606
  9.563181     47.2218433
  9.5631979    47.221696
  9.5634232    47.2213769
  9.5636088    47.2211997
  9.5637039    47.2211176
  9.5637515    47.2211443
  9.5638038    47.2211112
  9.5637635    47.2210394
  9.5638037    47.2210331
  9.563867     47.2209826
  9.5639727    47.2208194
  9.5641382    47.2206933
  9.5641789    47.2206363
  9.564195     47.2206301
  9.5642165    47.220631
  9.5642775    47.2206627
  9.5646962    47.2207713
  9.5647064    47.2207622
  9.5648049    47.2207381
  9.5648937    47.2207057
  9.5650332    47.2206851
  9.5652978    47.2206076
  9.5654191    47.2205523
  9.5655979    47.2205117
  9.565785     47.2204638
  9.5659411    47.2204367
  9.5661939    47.2204038
  9.5662961    47.2204353
  9.5664031    47.2204308
  9.5667656    47.2203417
  9.5668559    47.220301
  9.5669723    47.2202628
  9.5670556    47.2201935
  9.5671746    47.2201417
  9.5672213    47.2201025
  9.5672693    47.2199987
  9.5673374    47.2199598
  9.5673536    47.2199572
  9.5674298    47.21996
  9.5675353    47.2200301
  9.5675507    47.2200318
  9.5676665    47.2199984
  9.5679059    47.220023
  9.5679544    47.2200104
  9.5680467    47.2199667
  9.5681358    47.2199446
  9.568229     47.2199132
  9.5683314    47.2198856
  9.5684321    47.2198122
  9.5685435    47.219785
  9.5686435    47.2197226
  9.5686831    47.2196723
  9.5688385    47.2195601
  9.5689735    47.2194707
  9.5690556    47.2193397
  9.5690693    47.2193324
  9.5690988    47.2193285
  9.5691398    47.2193353
  9.5692475    47.2193685
  9.5698225    47.2187574
  9.5704663    47.2181246
  9.5715132    47.21702
  9.5723143    47.2162549
  9.572538     47.2161029
  9.5730008    47.2157655
  9.573506     47.2152814
  9.573662     47.2151521
  9.5737416    47.2150675
  9.5740285    47.2148469
  9.574572     47.2145222
  9.5746378    47.2144708
  9.5750555    47.2141712
  9.5756471    47.2137034
  9.5761645    47.2131074
  9.5767652    47.2123222
  9.5769571    47.2120667
  9.5771187    47.2118408
  9.5773111    47.2115901
  9.5775365    47.2112578
  9.5775241    47.2106705
  9.5779166    47.2097993
  9.5780303    47.2095802
  9.5781392    47.2094795
  9.5783098    47.2090427
  9.5784676    47.208895
  9.5788439    47.2087363
  9.5792019    47.2085738
  9.5793515    47.2084751
  9.5795897    47.2083763
  9.5797493    47.2082913
  9.5798302    47.2081844
  9.5802557    47.2079592
  9.5805619    47.2076898
  9.5809811    47.2074652
  9.5813884    47.2071894
  9.581643     47.2069745
  9.5819609    47.2067246
  9.5825574    47.2063158
  9.5830103    47.2060829
  9.5832019    47.2060139
  9.5834178    47.2059505
  9.5838304    47.2058585
  9.5838989    47.2057934
  9.5841552    47.2056403
  9.5847095    47.2053838
  9.584879     47.205343
  9.5848616    47.2049241
  9.5847922    47.2045669
  9.5839019    47.2039299
  9.5835988    47.2037594
  9.5832637    47.2034217
  9.5832494    47.203302
  9.583105     47.2029173
  9.5828933    47.2026263
  9.5826629    47.2022281
  9.582457     47.2016309
  9.58179      47.2010178
  9.58166      47.2008535
  9.5814193    47.2004229
  9.581141     47.199999
  9.5809706    47.1995424
  9.5807093    47.198876
  9.5805115    47.1984582
  9.5805212    47.1975947
  9.5804017    47.1971553
  9.5803792    47.196907
  9.5804236    47.1963776
  9.5804326    47.1960699
  9.5802838    47.1957704
  9.5791243    47.1957001
  9.5789902    47.1951509
  9.5789965    47.1950086
  9.5786645    47.1945173
  9.5786509    47.1944803
  9.5785737    47.1944022
  9.5782835    47.1943024
  9.5782271    47.1942411
  9.5781216    47.1941767
  9.5778696    47.1940827
  9.5778032    47.1940221
  9.5776354    47.1939429
  9.5775571    47.1938908
  9.577447     47.1938703
  9.5773756    47.1938247
  9.577297     47.1937672
  9.5771784    47.1936373
  9.5771202    47.1934809
  9.5769517    47.1933381
  9.5767375    47.1931291
  9.5766672    47.1930798
  9.5765704    47.1929562
  9.5764715    47.1928724
  9.5761887    47.19274
  9.5759279    47.1926402
  9.575828     47.1925596
  9.5757815    47.1924713
  9.575525     47.1923135
  9.5752589    47.1921828
  9.5749937    47.1920021
  9.5749299    47.1919706
  9.5748418    47.1918914
  9.5747499    47.1918364
  9.5746232    47.1917018
  9.5745389    47.1916596
  9.5744295    47.1915761
  9.5742342    47.191494
  9.5740738    47.1914037
  9.5738947    47.1913213
  9.5738428    47.1912823
  9.5737491    47.1912563
  9.5736674    47.1912166
  9.573496     47.1911112
  9.5734055    47.1910893
  9.5733905    47.1910441
  9.5733075    47.1910286
  9.573227     47.1909557
  9.5730326    47.1909492
  9.5725863    47.1907919
  9.573078     47.1878225
  9.573171     47.1872241
  9.5732818    47.1869001
  9.5734114    47.186424
  9.5735059    47.1859522
  9.5735236    47.1856717
  9.5735122    47.1853893
  9.5735224    47.1850655
  9.573415     47.1843101
  9.5733653    47.1837198
  9.5735624    47.1833876
  9.5735971    47.1825195
  9.5736577    47.1805302
  9.5735394    47.1790209
  9.5735139    47.1787797
  9.5742727    47.1781047
  9.5741932    47.1780534
  9.5740998    47.1780511
  9.5738977    47.1779615
  9.5738886    47.1779315
  9.57394      47.1779109
  9.5739403    47.1778807
  9.5738754    47.177814
  9.573826     47.177708
  9.5738048    47.1776973
  9.5737819    47.1777025
  9.5736838    47.177665
  9.5735624    47.1775554
  9.5735392    47.1775128
  9.5734739    47.1774508
  9.5734636    47.1774052
  9.5733363    47.1772386
  9.5734343    47.1771347
  9.5734157    47.177078
  9.5734458    47.1770264
  9.5733359    47.1769449
  9.5732677    47.1769322
  9.5732533    47.1769022
  9.5732713    47.1768867
  9.573285     47.1768306
  9.573275     47.1768187
  9.5733108    47.1766869
  9.5733049    47.176656
  9.5734578    47.1765503
  9.5734869    47.1765059
  9.5735053    47.1765015
  9.573506     47.1764614
  9.5734859    47.176434
  9.573447     47.1764206
  9.573375     47.1763573
  9.5733405    47.176346
  9.5732371    47.1762415
  9.5730844    47.1762115
  9.5730792    47.1761308
  9.5731055    47.1761172
  9.573173     47.1760195
  9.5731732    47.1759995
  9.5731503    47.1759384
  9.5731584    47.1758495
  9.5731306    47.1758145
  9.5730885    47.1758065
  9.5730782    47.1757779
  9.5730789    47.1757544
  9.5731251    47.1757017
  9.5731262    47.1756729
  9.5730932    47.1756504
  9.5731202    47.1756184
  9.5731189    47.175585
  9.5730608    47.1755562
  9.5729538    47.175571
  9.5729197    47.1755514
  9.5728624    47.1755437
  9.5728104    47.175516
  9.57271      47.1755199
  9.5726611    47.1755041
  9.5726206    47.1754744
  9.5725683    47.1753863
  9.5725201    47.1753611
  9.5723534    47.1753379
  9.5722967    47.1753194
  9.5722815    47.1753097
  9.572282     47.1752808
  9.5722202    47.175264
  9.5721708    47.1752224
  9.5721446    47.1752249
  9.5719589    47.1751253
  9.5719222    47.1751143
  9.5717696    47.1751126
  9.5717582    47.1751461
  9.5717061    47.1751054
  9.5716274    47.1750777
  9.571589     47.1750368
  9.5715477    47.174936
  9.5715568    47.1748838
  9.5714483    47.1748398
  9.571445     47.174818
  9.5713135    47.1747859
  9.5712618    47.1747955
  9.5712347    47.1747801
  9.5712157    47.1747402
  9.5711938    47.1747339
  9.5711556    47.1747472
  9.5711004    47.1746973
  9.5708728    47.1746807
  9.5708491    47.1746551
  9.570806     47.174647
  9.5708112    47.1746239
  9.5707216    47.1746336
  9.5706709    47.1746272
  9.5706526    47.1746074
  9.5705722    47.1746007
  9.5705559    47.1746082
  9.5704726    47.1745894
  9.5704391    47.174575
  9.5703934    47.1745314
  9.5702668    47.1744712
  9.5701077    47.1744262
  9.5699776    47.1743741
  9.5698814    47.1743529
  9.5696792    47.1743546
  9.5695207    47.1742986
  9.5692188    47.1740611
  9.5690461    47.1739899
  9.5690213    47.1739591
  9.5687654    47.1738888
  9.5686778    47.1738845
  9.5686018    47.1738605
  9.5682831    47.1736997
  9.5681592    47.173678
  9.5680568    47.1736276
  9.5677515    47.1734016
  9.5676732    47.1733584
  9.5672578    47.1731976
  9.5670876    47.1730593
  9.5670681    47.1730107
  9.5670018    47.172952
  9.566855     47.1729032
  9.5668043    47.1728618
  9.5667191    47.1728253
  9.5667018    47.172777
  9.5666062    47.1726636
  9.5666282    47.1725581
  9.5666233    47.1725085
  9.5665517    47.1724328
  9.5664689    47.1723694
  9.5664696    47.1723272
  9.5664147    47.1722704
  9.566398     47.1722021
  9.566373     47.1721736
  9.5663957    47.1721405
  9.5663704    47.1720978
  9.5663596    47.1720317
  9.5663101    47.1720054
  9.5661864    47.1718874
  9.5661678    47.1718086
  9.5661451    47.1717724
  9.5661042    47.1717462
  9.5660904    47.1717149
  9.566077     47.1715964
  9.5659086    47.1714568
  9.5658223    47.1713289
  9.5657849    47.1712429
  9.5657197    47.1711683
  9.5656801    47.1711465
  9.5656169    47.1711517
  9.5655425    47.17114
  9.5654367    47.1710863
  9.5654897    47.1710167
  9.5654762    47.1709455
  9.5654947    47.1708541
  9.5654641    47.1708006
  9.5653825    47.1707442
  9.5652972    47.1707256
  9.5652136    47.1706658
  9.5650946    47.170614
  9.5650346    47.170559
  9.5650197    47.1704982
  9.5649713    47.1704271
  9.5647407    47.1702976
  9.5646232    47.1702581
  9.5646582    47.1702503
  9.564909     47.1702949
  9.5650215    47.1702952
  9.5650891    47.1702743
  9.565102     47.1702782
  9.5651008    47.1703155
  9.5652565    47.1703392
  9.5653266    47.1703219
  9.5653784    47.1702547
  9.5654706    47.1702021
  9.5656088    47.1700949
  9.5656757    47.1700667
  9.5657799    47.1700544
  9.5658247    47.1700271
  9.5658482    47.1700319
  9.5659376    47.1699983
  9.5660651    47.1699727
  9.5661181    47.1699334
  9.5661691    47.1698633
  9.5662986    47.1698296
  9.5664367    47.1698357
  9.5665549    47.1698087
  9.5667386    47.1698183
  9.5667785    47.1697926
  9.5668357    47.1697861
  9.5668561    47.1697882
  9.5669443    47.1698505
  9.5670831    47.1698532
  9.5671516    47.1698207
  9.5672923    47.1698091
  9.5673548    47.1697741
  9.5674052    47.1697669
  9.5675126    47.1697764
  9.5676476    47.1698397
  9.567715     47.1698449
  9.5677289    47.16986
  9.567792     47.1698556
  9.5678228    47.1698923
  9.5679439    47.1698539
  9.5679798    47.1697949
  9.5680899    47.1697885
  9.5683634    47.1697368
  9.5684574    47.1697533
  9.5685396    47.1697058
  9.5685878    47.1697002
  9.5686344    47.1696602
  9.5686944    47.1696541
  9.5687812    47.1695879
  9.5688281    47.1695704
  9.5688358    47.1695891
  9.5688759    47.1695906
  9.5689058    47.1696096
  9.5689102    47.1696334
  9.5689412    47.1696711
  9.568991     47.1697016
  9.5690187    47.1697496
  9.5691194    47.1698003
  9.5692105    47.1698031
  9.5692761    47.1698611
  9.5693205    47.1698715
  9.569388     47.1698576
  9.5695599    47.1698577
  9.5696615    47.1699153
  9.5697129    47.1699852
  9.5698298    47.1699846
  9.5699366    47.1699732
  9.5699707    47.1699601
  9.5700208    47.1699251
  9.570086     47.1698533
  9.5703489    47.1697961
  9.5703833    47.1697213
  9.5704882    47.1697162
  9.5706353    47.169755
  9.5707501    47.1697443
  9.5708665    47.169803
  9.5708905    47.169793
  9.5709081    47.1698034
  9.5713224    47.1694888
  9.5716481    47.1694984
  9.5717563    47.1695506
  9.5718024    47.1696158
  9.5718933    47.1696571
  9.5720317    47.1696128
  9.5723263    47.1696078
  9.5724453    47.1695895
  9.5724723    47.1695986
  9.5726206    47.1695686
  9.5726584    47.1695437
  9.5727436    47.169538
  9.5728673    47.1695867
  9.5731254    47.1696236
  9.5732731    47.1696267
  9.5733239    47.1696408
  9.573385     47.1696237
  9.5736378    47.1696482
  9.5737766    47.1696261
  9.5739495    47.169683
  9.5740564    47.1696458
  9.5742801    47.1697158
  9.5743721    47.1696987
  9.5743972    47.1696793
  9.5748837    47.1697657
  9.5749109    47.1697987
  9.5749931    47.1698158
  9.5750595    47.1698039
  9.5751291    47.1698452
  9.5751721    47.1698369
  9.5751978    47.1698453
  9.5752827    47.1698941
  9.5754011    47.1699425
  9.5756055    47.1700094
  9.5756355    47.1700513
  9.5757402    47.1700752
  9.575873     47.1700846
  9.5759067    47.1701103
  9.5760701    47.1701385
  9.5761628    47.1701945
  9.5762653    47.1702214
  9.5762816    47.1702441
  9.5765041    47.1703076
  9.5765115    47.1703243
  9.5766366    47.1703284
  9.5766912    47.1703937
  9.5768039    47.1704679
  9.5770036    47.1705613
  9.5773164    47.1706425
  9.5774028    47.1706852
  9.5780013    47.1708529
  9.5781582    47.1708864
  9.5783159    47.1708967
  9.5788985    47.1710456
  9.5789773    47.1710501
  9.5790686    47.1710374
  9.5791351    47.1710547
  9.5792119    47.1711031
  9.5793005    47.1711003
  9.5794412    47.1711292
  9.5844194    47.1683627
  9.5909116    47.1646815
  9.5912209    47.164611
  9.5915953    47.1645257
  9.5948145    47.1634524
  9.5967418    47.1628864
  9.5977391    47.1615259
  9.600624     47.1591849
  9.600627     47.1591083
  9.6007388    47.1590147
  9.6007666    47.1590074
  9.6007744    47.1589436
  9.6009017    47.158817
  9.6008889    47.1587495
  9.6009578    47.1586607
  9.6009259    47.158631
  9.6008745    47.1585285
  9.6008956    47.1584598
  9.6008701    47.1584264
  9.6008241    47.1584063
  9.6007421    47.158277
  9.6006904    47.158014
  9.6007823    47.1577663
  9.600817     47.1577204
  9.600835     47.1575949
  9.6008181    47.157562
  9.6007892    47.1573532
  9.6007427    47.1573343
  9.6007164    47.157298
  9.6006819    47.1572877
  9.6006633    47.1572544
  9.6005884    47.1572107
  9.6005643    47.1571627
  9.6004875    47.1571376
  9.6004642    47.1571026
  9.6004226    47.1570826
  9.6003843    47.1570297
  9.6004075    47.1569676
  9.6003963    47.1569282
  9.6003689    47.156898
  9.6002899    47.1568956
  9.6001744    47.1567959
  9.6001754    47.15677
  9.6003524    47.1567073
  9.6003916    47.1567044
  9.6004774    47.1566594
  9.6005838    47.1564995
  9.600631     47.1564803
  9.600706     47.1564776
  9.6007878    47.1563875
  9.600843     47.1562752
  9.6010322    47.1561344
  9.6010858    47.1560605
  9.6011311    47.1560254
  9.6012609    47.1560268
  9.6012478    47.1559039
  9.6012237    47.1558492
  9.6012465    47.1558224
  9.6014207    47.1558055
  9.601732     47.155718
  9.6017878    47.1556929
  9.6019237    47.1555924
  9.6019469    47.1555699
  9.6019446    47.1555194
  9.6020255    47.155384
  9.6021004    47.1553285
  9.6020955    47.1553124
  9.6021853    47.1552369
  9.6021892    47.1552013
  9.6021575    47.1551779
  9.602129     47.1550477
  9.602187     47.1548671
  9.6022396    47.154813
  9.6022833    47.1547511
  9.6022935    47.1547058
  9.6023573    47.1546398
  9.6024122    47.1545502
  9.6025763    47.1543807
  9.6027568    47.1542293
  9.6028166    47.1541633
  9.60282      47.1541334
  9.6028635    47.1540982
  9.6029181    47.1540014
  9.60291      47.1539375
  9.6029798    47.153805
  9.6029756    47.1536138
  9.6030003    47.1535715
  9.6029839    47.1534785
  9.6030184    47.153402
  9.6030499    47.1533966
  9.6030464    47.153349
  9.603068     47.1532735
  9.6030599    47.1532212
  9.6031356    47.1531648
  9.6031972    47.1529547
  9.60318      47.1528785
  9.6031077    47.1527806
  9.6032233    47.152639
  9.6033565    47.1525992
  9.6033122    47.152471
  9.6032973    47.1523224
  9.6033095    47.1522296
  9.6032919    47.1521953
  9.6032178    47.1520794
  9.6031049    47.1520229
  9.6029362    47.1518948
  9.6028662    47.1518725
  9.6028236    47.1518376
  9.6028045    47.1517849
  9.6028276    47.1517448
  9.60281      47.1517121
  9.6028307    47.1516074
  9.6028507    47.1515772
  9.6029214    47.1515506
  9.6029288    47.1515183
  9.6029672    47.1515176
  9.6030231    47.1514608
  9.6030852    47.1514292
  9.6030856    47.1513514
  9.6032217    47.1512352
  9.6034288    47.1511581
  9.6034486    47.15105
  9.6034981    47.1510222
  9.6035251    47.1509789
  9.6037036    47.150913
  9.6037795    47.1508336
  9.603883     47.1507991
  9.6038257    47.1507733
  9.6037921    47.1507438
  9.6037837    47.1506898
  9.6038175    47.1506294
  9.6040124    47.1505249
  9.6040813    47.1505347
  9.6040756    47.1504929
  9.6040942    47.1504702
  9.6042473    47.1503697
  9.6043392    47.1503466
  9.604372     47.1502898
  9.6044048    47.1502788
  9.6044964    47.1502779
  9.6045592    47.1502605
  9.6045968    47.1502326
  9.604677     47.1502372
  9.6048008    47.1501686
  9.6048901    47.1500686
  9.6049221    47.1500025
  9.6050336    47.1498684
  9.6051123    47.1498104
  9.6051644    47.1493206
  9.6051941    47.1493057
  9.6052762    47.149197
  9.6053339    47.1491728
  9.6054628    47.1491546
  9.6056185    47.1490932
  9.6056484    47.149076
  9.6056861    47.1490117
  9.6058305    47.1489418
  9.6058975    47.1489255
  9.605987     47.1489432
  9.6060508    47.1489276
  9.6061456    47.148836
  9.6062069    47.148808
  9.6063858    47.1487597
  9.6064223    47.148763
  9.6064919    47.1487265
  9.6066951    47.1486708
  9.6069223    47.1484487
  9.6069904    47.1484152
  9.6072841    47.1483266
  9.6073793    47.1483142
  9.6074609    47.1482732
  9.607548     47.1482572
  9.6076081    47.1482509
  9.6077486    47.1482821
  9.6079267    47.1482551
  9.6080073    47.1482607
  9.6081552    47.1481629
  9.6082294    47.1480252
  9.6084094    47.1479483
  9.6085116    47.1478735
  9.6085394    47.1478698
  9.6085457    47.1478512
  9.6086113    47.1477966
  9.6087       47.1477612
  9.6087667    47.1477659
  9.6088218    47.147751
  9.60904      47.1477556
  9.6091476    47.1477795
  9.609219     47.1477255
  9.6093353    47.1477297
  9.6093609    47.1477136
  9.6093921    47.1477119
  9.6094565    47.1476485
  9.6095301    47.1476046
  9.6095902    47.1475865
  9.6096634    47.1475756
  9.6096869    47.1475588
  9.6097194    47.147562
  9.6098014    47.1475314
  9.6098884    47.1475591
  9.6099554    47.1475613
  9.6100216    47.1475108
  9.6101016    47.1474982
  9.6102163    47.1475127
  9.6102994    47.147576
  9.6103445    47.1475639
  9.6103947    47.1475311
  9.6104572    47.147533
  9.6105189    47.1475552
  9.6105479    47.1476056
  9.6105799    47.1476228
  9.610662     47.147575
  9.6107168    47.147571
  9.6107596    47.1475852
  9.6108349    47.1475506
  9.6109129    47.1475354
  9.6109305    47.1474953
  9.6109956    47.147466
  9.6110317    47.1474351
  9.6111062    47.1474078
  9.6112149    47.1473935
  9.6112874    47.1473962
  9.6114208    47.147374
  9.6115508    47.1473916
  9.6116312    47.1474255
  9.6117899    47.1474085
  9.6119846    47.1474349
  9.6120115    47.1474499
  9.6120594    47.1475293
  9.6121316    47.147533
  9.6122299    47.1475095
  9.6123928    47.1475295
  9.6125599    47.1475137
  9.6127261    47.1475561
  9.612821     47.1474667
  9.6128629    47.1474477
  9.613026     47.1474158
  9.6131481    47.1474158
  9.613258     47.1474416
  9.6133061    47.1474679
  9.6133425    47.1474599
  9.6134244    47.1474658
  9.6136949    47.1475456
  9.6137424    47.1475493
  9.6138602    47.1475259
  9.6139607    47.1475282
  9.6141495    47.1476029
  9.6142755    47.1476187
  9.614363     47.1476454
  9.6144703    47.1476954
  9.6145364    47.1477645
  9.6145831    47.1477774
  9.6146595    47.1477561
  9.6147328    47.1477549
  9.6149606    47.1478428
  9.6151143    47.1479422
  9.6155609    47.1481566
  9.6158959    47.148289
  9.6159721    47.1483383
  9.6160959    47.1484628
  9.6164571    47.1486181
  9.6166017    47.1486943
  9.6166924    47.1487599
  9.6168354    47.148946
  9.6171182    47.1490384
  9.6172406    47.1490949
  9.6173798    47.1492601
  9.6177249    47.1493741
  9.6181353    47.1495425
  9.618244     47.1495665
  9.6182914    47.1495964
  9.6182969    47.1496348
  9.6185164    47.1496912
  9.6187039    47.1497547
  9.6187568    47.1498206
  9.6187617    47.1498908
  9.6188033    47.1498912
  9.6188448    47.1499182
  9.6188635    47.1499963
  9.6188058    47.1501371
  9.6187398    47.1502348
  9.6187431    47.1502725
  9.618796     47.1503514
  9.6192684    47.1506393
  9.6193579    47.1506874
  9.6194556    47.1507162
  9.6194864    47.1507677
  9.6194548    47.1508399
  9.6194768    47.1508975
  9.6195475    47.150924
  9.6196438    47.1509358
  9.6196669    47.1510051
  9.6196617    47.1510576
  9.6197972    47.1511438
  9.6200116    47.1513401
  9.6204503    47.1515268
  9.6205465    47.1515949
  9.6205643    47.1516413
  9.6206902    47.1516331
  9.6208343    47.1515458
  9.6209436    47.151517
  9.6210129    47.1515184
  9.6210785    47.1515336
  9.6211118    47.1515601
  9.6211505    47.1515386
  9.6212126    47.1514642
  9.621291     47.1514507
  9.6212897    47.1514094
  9.6213162    47.1513745
  9.6214224    47.1513682
  9.6214527    47.1513723
  9.621465     47.1513899
  9.621486     47.1513942
  9.6215893    47.1513514
  9.621644     47.1513418
  9.6216986    47.1512918
  9.6217071    47.1512431
  9.6217827    47.1511688
  9.621751     47.1510954
  9.6214727    47.1506552
  9.6213915    47.1504027
  9.6213946    47.1503636
  9.6214137    47.1503226
  9.6214711    47.1502653
  9.6214701    47.1502118
  9.6214994    47.1501883
  9.6215678    47.1500536
  9.621636     47.1499736
  9.6216933    47.1498617
  9.6217979    47.1497804
  9.6218735    47.1497585
  9.6220009    47.1496304
  9.6219088    47.1494267
  9.6219173    47.1493464
  9.6219576    47.1492924
  9.6221266    47.1491586
  9.6222695    47.149082
  9.622344     47.1490157
  9.6223948    47.1489997
  9.6224698    47.1488584
  9.622615     47.1488235
  9.6226983    47.1487543
  9.6225943    47.1486691
  9.6225799    47.1486431
  9.6225758    47.1486224
  9.6226113    47.148567
  9.6225533    47.1484903
  9.6225541    47.1483909
  9.6226777    47.1482365
  9.6227395    47.1481875
  9.62285      47.1481334
  9.6228921    47.1480483
  9.6229692    47.1480334
  9.623004     47.1480137
  9.6229875    47.1479485
  9.6230002    47.147927
  9.6230575    47.1478978
  9.6230277    47.14785
  9.6230233    47.1477991
  9.6230686    47.1477478
  9.6231505    47.1477209
  9.6231964    47.1476572
  9.6231992    47.1476127
  9.6231596    47.1475257
  9.6231764    47.1474754
  9.623172     47.1474106
  9.6232023    47.1473737
  9.6232559    47.1473484
  9.6232635    47.1473147
  9.623244     47.1472501
  9.6232578    47.1471353
  9.6232918    47.1470924
  9.6234036    47.1470516
  9.6235965    47.1470543
  9.6236455    47.1470026
  9.6237999    47.1469879
  9.6238705    47.1469115
  9.6239017    47.1469064
  9.6239965    47.1468487
  9.6240338    47.1468383
  9.6239334    47.1466589
  9.6239509    47.1465699
  9.6239869    47.1464913
  9.6240488    47.1464456
  9.624081     47.1464355
  9.6240919    47.146392
  9.6241244    47.1463661
  9.6242319    47.1463356
  9.6244033    47.1462055
  9.624549     47.1461162
  9.6246206    47.1460906
  9.6247717    47.146064
  9.6247812    47.1460328
  9.6248691    47.1459906
  9.6249303    47.1459854
  9.6252932    47.1460032
  9.625418     47.1459628
  9.6254268    47.1459099
  9.6254671    47.1458933
  9.6256039    47.1458814
  9.6256964    47.1458894
  9.6258415    47.1458839
  9.6243096    47.1434139
  9.6234461    47.1426089
  9.6233312    47.1423915
  9.6233889    47.1419814
  9.6230476    47.1417633
  9.6226076    47.141397
  9.6225904    47.1411748
  9.6232655    47.1404173
  9.6233867    47.140249
  9.6234973    47.1400079
  9.6235161    47.1398833
  9.6235649    47.1398014
  9.6235726    47.1397262
  9.6237432    47.139597
  9.6237639    47.1395675
  9.623794     47.1392748
  9.623888     47.1391665
  9.6246991    47.1385945
  9.6250024    47.1384649
  9.6249132    47.1384148
  9.624898     47.1383263
  9.6248618    47.1382433
  9.6248738    47.1381506
  9.6248519    47.1380323
  9.6248713    47.1379296
  9.6249741    47.1377596
  9.6249802    47.1376811
  9.6250189    47.1375871
  9.6249931    47.1374012
  9.6248817    47.13724
  9.6248003    47.1370133
  9.6247831    47.1367844
  9.6247667    47.1367298
  9.6247447    47.1366974
  9.6247138    47.1366804
  9.6247626    47.1366375
  9.6248261    47.1366068
  9.6248488    47.1365314
  9.624785     47.1364225
  9.6246832    47.1363736
  9.6246536    47.1363421
  9.6246151    47.1362351
  9.6245906    47.1360064
  9.6244538    47.1358697
  9.6244766    47.1357512
  9.6244029    47.1355548
  9.6243506    47.1353855
  9.6243502    47.135315
  9.62437      47.1352686
  9.6243149    47.1351453
  9.6242446    47.1351036
  9.6243272    47.1349539
  9.6242944    47.1348699
  9.6243936    47.1347637
  9.6245477    47.1344403
  9.6247791    47.1342264
  9.6245919    47.1338202
  9.6246756    47.1336283
  9.6248415    47.1335196
  9.6248787    47.1334317
  9.6249421    47.1333925
  9.6249027    47.1332338
  9.6247544    47.1330765
  9.6247092    47.1326224
  9.6256009    47.1319249
  9.6263884    47.1315045
  9.6266614    47.1314309
  9.6271345    47.1313736
  9.6272238    47.131334
  9.6274847    47.1311805
  9.6276626    47.1310316
  9.6278387    47.1309182
  9.6279261    47.1309034
  9.6279659    47.130873
  9.6280062    47.1308839
  9.6280344    47.1308555
  9.6280868    47.1308397
  9.6282127    47.1307645
  9.6282976    47.1307309
  9.6283882    47.1307168
  9.6284442    47.1306806
  9.6287014    47.13065
  9.6291415    47.1307553
  9.6292142    47.1306595
  9.6292775    47.1306321
  9.6295468    47.1306015
  9.6297124    47.1305124
  9.62986      47.1304716
  9.6300267    47.1304416
  9.6300524    47.1304247
  9.6300481    47.1303302
  9.6300799    47.1302794
  9.6301711    47.1302387
  9.6302431    47.1302237
  9.6302496    47.1302006
  9.6303688    47.1300704
  9.6303889    47.1300544
  9.6304421    47.1300504
  9.6304702    47.1300353
  9.630536     47.1299243
  9.6306128    47.1298996
  9.6308567    47.1297634
  9.6309455    47.1296212
  9.6310999    47.1295622
  9.631142     47.1294696
  9.6314265    47.1292464
  9.6316379    47.1291439
  9.6317674    47.129122
  9.631791     47.129087
  9.6318092    47.129086
  9.6318374    47.129033
  9.632213     47.1288095
  9.6322516    47.128816
  9.6324258    47.1287541
  9.6324558    47.1287157
  9.632484     47.1287025
  9.6325703    47.1286911
  9.6326149    47.1286696
  9.6326989    47.1286511
  9.6327141    47.1285706
  9.6327301    47.1285539
  9.6327931    47.1285288
  9.6328496    47.1284803
  9.6329023    47.1284623
  9.6329263    47.1284211
  9.6330741    47.1283674
  9.6331477    47.1283066
  9.6332307    47.128288
  9.6334158    47.1282745
  9.633478     47.128217
  9.6335244    47.1281972
  9.6336421    47.1281744
  9.6336994    47.128118
  9.6337968    47.1280544
  9.6340077    47.1280022
  9.6341988    47.1280154
  9.6342896    47.1280725
  9.6343873    47.1281035
  9.6344597    47.1281423
  9.634672     47.1281896
  9.6347192    47.1281847
  9.6348005    47.1281413
  9.6348838    47.1281265
  9.6349875    47.1280862
  9.634962     47.1280185
  9.6349082    47.1279648
  9.634732     47.1278755
  9.6345979    47.1277526
  9.6343631    47.1276608
  9.6342459    47.1275775
  9.6340929    47.1273915
  9.634071     47.1272909
  9.6339083    47.1271527
  9.633861     47.1270775
  9.6337271    47.1269686
  9.6336498    47.1267789
  9.6337361    47.1266873
  9.6337523    47.1266136
  9.6337096    47.1265026
  9.6336038    47.1264282
  9.6335963    47.126402
  9.6335488    47.1263613
  9.633514     47.1262677
  9.6335499    47.1262224
  9.6335415    47.1261531
  9.6335332    47.1261291
  9.633433     47.126069
  9.6334534    47.126029
  9.6334153    47.1259673
  9.6333794    47.1259443
  9.6334233    47.125898
  9.6333872    47.125794
  9.6333238    47.1257734
  9.6333176    47.1257467
  9.6332839    47.1257357
  9.6332127    47.1256781
  9.6331839    47.1256355
  9.6332093    47.1256175
  9.6331317    47.1256026
  9.6331168    47.1255637
  9.6330308    47.1254623
  9.6330537    47.1254412
  9.6330548    47.125418
  9.6330288    47.1253882
  9.6330408    47.1253624
  9.6330121    47.1252926
  9.6329453    47.1251925
  9.6328423    47.1251343
  9.6328756    47.1250878
  9.6328434    47.1250124
  9.632769     47.1249329
  9.6326388    47.1248797
  9.6326184    47.1247996
  9.6325781    47.1247591
  9.6325407    47.1247534
  9.6324324    47.124704
  9.6323298    47.1246681
  9.6322372    47.1246658
  9.6321931    47.1246099
  9.6319219    47.1244404
  9.631782     47.1242068
  9.631733     47.124177
  9.6317625    47.1241176
  9.6316897    47.1240983
  9.6316784    47.124034
  9.6316468    47.1240182
  9.6315784    47.1240132
  9.6315651    47.123993
  9.6315004    47.1239645
  9.6314629    47.1239335
  9.6314095    47.1239244
  9.6312618    47.1237568
  9.6312005    47.1237234
  9.6311799    47.123679
  9.6311205    47.1236557
  9.6310825    47.1235462
  9.6310098    47.1235359
  9.6309556    47.123499
  9.6309416    47.1234516
  9.6309656    47.1234309
  9.6309457    47.1233868
  9.6308776    47.1233456
  9.630794     47.1233349
  9.6308049    47.1233134
  9.6307356    47.1232485
  9.6306596    47.123258
  9.6306546    47.1232385
  9.6306321    47.1232266
  9.6305862    47.1232294
  9.6305346    47.1232044
  9.6304581    47.1230665
  9.6304388    47.1230534
  9.6304496    47.1229968
  9.630431     47.1229848
  9.6303917    47.1229856
  9.6302891    47.1229411
  9.6302697    47.1228969
  9.6301843    47.1228294
  9.6301129    47.122812
  9.6300688    47.1227601
  9.6299818    47.1227153
  9.6298525    47.1227033
  9.6297487    47.1226506
  9.6296982    47.1226109
  9.6296189    47.1225152
  9.6295357    47.1224879
  9.6294498    47.122407
  9.6293758    47.122393
  9.6292631    47.1223419
  9.629125     47.122117
  9.6290251    47.1220684
  9.6289575    47.1220537
  9.6288204    47.1219643
  9.6287558    47.1218914
  9.6286777    47.1218693
  9.6285797    47.1217888
  9.6284851    47.1217429
  9.6284265    47.1216846
  9.6283432    47.1216642
  9.6282979    47.1216354
  9.6282178    47.12154
  9.6281912    47.121315
  9.6281388    47.1213089
  9.6280373    47.1212548
  9.627961     47.1212288
  9.6279185    47.1211764
  9.6278653    47.1211452
  9.6278795    47.1210854
  9.6278385    47.1210255
  9.6277381    47.1209778
  9.6277125    47.1209361
  9.6276493    47.1209044
  9.6275394    47.120805
  9.6274255    47.1207522
  9.6273524    47.1206474
  9.6271921    47.1205904
  9.6271346    47.1205114
  9.6270642    47.1204957
  9.6269802    47.1204601
  9.6269101    47.1204149
  9.6268856    47.1203209
  9.6268596    47.1202975
  9.6268352    47.1202412
  9.626778     47.1202038
  9.6267115    47.1201843
  9.6266978    47.1201498
  9.6266342    47.1201145
  9.6266072    47.1199713
  9.6265661    47.1199555
  9.6264887    47.1198497
  9.6263609    47.1198137
  9.6263051    47.1198325
  9.626267     47.1198249
  9.6262307    47.1197767
  9.6262006    47.1197688
  9.6261721    47.1197752
  9.6261482    47.1197644
  9.6261234    47.1197029
  9.6260414    47.1196512
  9.6259748    47.1195311
  9.6259266    47.1194973
  9.6256996    47.1194809
  9.6255146    47.1194413
  9.625481     47.1193724
  9.6254046    47.1193377
  9.6253631    47.1193356
  9.6253215    47.1192179
  9.6252507    47.1191911
  9.6251826    47.1191285
  9.6251556    47.1190766
  9.6251927    47.1190073
  9.6251342    47.1189585
  9.6251149    47.1188864
  9.6250461    47.1188324
  9.624949     47.1188005
  9.6249347    47.1187761
  9.6249845    47.1187143
  9.6251043    47.1186558
  9.6251192    47.1186172
  9.6250976    47.1185922
  9.625098     47.1185647
  9.6250471    47.1185566
  9.6250316    47.1185175
  9.6249379    47.1184724
  9.6249238    47.118397
  9.6249312    47.118378
  9.6249625    47.1183676
  9.6248389    47.1181855
  9.6248329    47.1181306
  9.6248638    47.1181195
  9.6248112    47.1180724
  9.6247489    47.1180417
  9.6247224    47.1179912
  9.6247295    47.117915
  9.6247591    47.1178979
  9.6246476    47.1176095
  9.6246812    47.1175112
  9.6247228    47.1174516
  9.6247202    47.1173218
  9.6247008    47.1172338
  9.6247232    47.1171511
  9.6246988    47.116974
  9.6246584    47.1169227
  9.6246685    47.1168821
  9.6247113    47.116836
  9.6247228    47.1167519
  9.6246595    47.1165569
  9.624621     47.1162437
  9.6246883    47.1161475
  9.6245356    47.115908
  9.6244271    47.1158242
  9.6244275    47.1157884
  9.6244516    47.1157662
  9.6245384    47.1157503
  9.6245661    47.1156986
  9.6246435    47.1156463
  9.6246796    47.1155742
  9.6246954    47.1154451
  9.6246029    47.1151158
  9.6245572    47.1150424
  9.6245053    47.1147905
  9.6245415    47.1147554
  9.6246738    47.114693
  9.6246716    47.1146386
  9.6246481    47.1145579
  9.6245046    47.1143434
  9.6244393    47.114299
  9.6242531    47.1140782
  9.6241247    47.1139533
  9.6240752    47.1139052
  9.6240585    47.1138688
  9.6240325    47.113812
  9.6240109    47.1137161
  9.6240489    47.1136214
  9.6240517    47.1135128
  9.6240031    47.1134602
  9.6240033    47.1133964
  9.6239266    47.1133142
  9.6239211    47.1132632
  9.6237465    47.1131682
  9.623677     47.1131484
  9.6236719    47.1130824
  9.6236059    47.1130124
  9.6235908    47.1129963
  9.6236408    47.1129082
  9.6235986    47.1128615
  9.6235879    47.1127925
  9.6234448    47.1126915
  9.6233942    47.112682
  9.6233586    47.1127112
  9.6233091    47.1127177
  9.6232469    47.1126951
  9.6232435    47.1126726
  9.6231686    47.1126189
  9.6231681    47.1125943
  9.6231051    47.1125505
  9.6230327    47.1125586
  9.6230128    47.112485
  9.6230141    47.1124007
  9.6229594    47.1123699
  9.6229148    47.1123912
  9.6228628    47.1123788
  9.6228324    47.1123338
  9.6227781    47.1123104
  9.6227334    47.1123004
  9.6226756    47.112245
  9.6226462    47.1122427
  9.622627     47.1122274
  9.6226372    47.1121742
  9.6226124    47.1121333
  9.622547     47.1120781
  9.6225247    47.1120081
  9.6225088    47.1119836
  9.6222338    47.1118309
  9.6220709    47.1117244
  9.621991     47.1117094
  9.6219538    47.1116199
  9.6218142    47.1114705
  9.6217293    47.1114325
  9.6216566    47.1114153
  9.621624     47.1113183
  9.6215615    47.1112067
  9.6215213    47.1111655
  9.6214593    47.1111247
  9.6213653    47.1109044
  9.6212727    47.1108037
  9.6212449    47.1107341
  9.6212301    47.1106974
  9.6211895    47.1106632
  9.6210508    47.1106173
  9.6208922    47.1106112
  9.6208182    47.1105408
  9.6209924    47.1102925
  9.6210983    47.1100556
  9.621183     47.1099279
  9.6213243    47.1096539
  9.621431     47.1095026
  9.6215045    47.1092438
  9.6215323    47.109198
  9.6215296    47.1091628
  9.621618     47.1091235
  9.6216774    47.1089925
  9.6217665    47.1089075
  9.621765     47.1088838
  9.6217998    47.1088344
  9.6217942    47.1088051
  9.6218383    47.1087791
  9.62189      47.1087249
  9.6219011    47.1086444
  9.6219172    47.1086245
  9.6219736    47.1085761
  9.6220696    47.1085991
  9.6221222    47.1085879
  9.6222188    47.1085252
  9.6222373    47.1084976
  9.6221819    47.1084693
  9.622225     47.1084278
  9.6222859    47.10841
  9.6222917    47.1083943
  9.6222601    47.1083387
  9.6223027    47.1082971
  9.6223461    47.108284
  9.6224892    47.1082722
  9.6225323    47.1082603
  9.6225427    47.1082447
  9.6225845    47.1082443
  9.6227106    47.1082089
  9.6227333    47.1081792
  9.622705     47.1081075
  9.6228426    47.1080576
  9.6229812    47.1079778
  9.6231699    47.1079537
  9.6233882    47.1078889
  9.6235446    47.1078806
  9.6235918    47.1078564
  9.6236392    47.1078558
  9.6236495    47.1078858
  9.6236775    47.1078935
  9.6238221    47.1078775
  9.6240611    47.1078148
  9.6241495    47.1077647
  9.6241848    47.1077579
  9.6241936    47.1077415
  9.6243152    47.1077233
  9.6243451    47.1076992
  9.6243947    47.1076877
  9.6244392    47.1076594
  9.6245855    47.1076177
  9.6246799    47.1076104
  9.6247651    47.1076308
  9.6247992    47.1076085
  9.6249214    47.1076032
  9.6249571    47.1075825
  9.6250114    47.1075838
  9.6250463    47.1076001
  9.625148     47.1075842
  9.6252052    47.1075931
  9.6252275    47.1075755
  9.6252683    47.1075811
  9.6254101    47.1075456
  9.6256574    47.1075206
  9.6257015    47.1074983
  9.6258125    47.1074785
  9.6258721    47.1074521
  9.6259626    47.107467
  9.6259728    47.1075003
  9.6261321    47.107508
  9.6263124    47.1074861
  9.6263779    47.1075185
  9.6265273    47.1075248
  9.6266354    47.1075386
  9.6266698    47.1075539
  9.6267654    47.1075398
  9.6268622    47.1075457
  9.627027     47.1075046
  9.6272729    47.1076002
  9.627601     47.1075404
  9.6277387    47.1075585
  9.627836     47.1075456
  9.6279328    47.1075759
  9.6283225    47.107581
  9.6284819    47.1075421
  9.6285334    47.1074969
  9.6282171    47.1054667
  9.6282616    47.1054348
  9.6283325    47.1054208
  9.628385     47.1053868
  9.6284563    47.1053828
  9.6284952    47.1053366
  9.6287502    47.1053031
  9.6288899    47.1052076
  9.6292616    47.1051106
  9.6293661    47.1050504
  9.6293796    47.1050023
  9.629427     47.1049931
  9.6297301    47.1048325
  9.6298787    47.1047964
  9.6299917    47.1048079
  9.6301498    47.1047339
  9.6302596    47.1045974
  9.6305088    47.1044381
  9.6305627    47.1043165
  9.63062      47.1042685
  9.6306903    47.1042505
  9.630701     47.1041979
  9.630747     47.1041561
  9.6308513    47.1040991
  9.6309718    47.1039699
  9.6310303    47.1039362
  9.6310734    47.1038936
  9.6311755    47.1038646
  9.6311669    47.1038188
  9.6312027    47.1037674
  9.6312455    47.1037266
  9.6313265    47.1037077
  9.6313757    47.1036017
  9.6313938    47.1035215
  9.6315009    47.1034824
  9.6315446    47.1034251
  9.631591     47.1034022
  9.6317279    47.1032456
  9.6318024    47.1031991
  9.6319075    47.1030928
  9.6321166    47.102981
  9.6321698    47.1028983
  9.6321275    47.1028238
  9.6321408    47.1027992
  9.6322382    47.1027496
  9.6323524    47.1027099
  9.6324149    47.102701
  9.6324861    47.1026458
  9.6327831    47.1024845
  9.6329214    47.1024421
  9.6330191    47.1024299
  9.6330628    47.102341
  9.6331621    47.1023118
  9.633182     47.1022966
  9.6332009    47.1022693
  9.6331751    47.1021938
  9.6331789    47.1020463
  9.6332473    47.1019306
  9.6334195    47.1017756
  9.6335006    47.1016125
  9.6335284    47.1015927
  9.6335529    47.1015125
  9.6335874    47.1014966
  9.6336815    47.1013895
  9.633752     47.1013837
  9.6337903    47.1013531
  9.6338422    47.1013359
  9.6338828    47.1012812
  9.6339188    47.1012692
  9.6340442    47.1012404
  9.6342266    47.1012258
  9.6343576    47.1011629
  9.634388     47.1010871
  9.6350345    47.0986987
  9.6356933    47.096235
  9.6356046    47.0947863
  9.6355552    47.093355
  9.635424     47.0923129
  9.6353473    47.0906171
  9.6340157    47.0880165
  9.6331971    47.086235
  9.6332038    47.085417
  9.6333597    47.0845191
  9.6335308    47.0834253
  9.6329967    47.0831976
  9.6312646    47.0830899
  9.6291404    47.0829393
  9.6274481    47.0827824
  9.6235225    47.0825194
  9.6210223    47.0802979
  9.620927     47.0802253
  9.6207847    47.0799168
  9.6207651    47.0799003
  9.6207629    47.0798494
  9.6206797    47.079731
  9.6205645    47.0796024
  9.6205565    47.0795515
  9.6206315    47.079434
  9.6206111    47.0794308
  9.6206096    47.0794006
  9.620576     47.0793632
  9.6205114    47.0793204
  9.6203752    47.0792671
  9.6203605    47.0792269
  9.6202856    47.0791806
  9.6202362    47.0791129
  9.6201499    47.079049
  9.6200334    47.0790099
  9.619903     47.0790025
  9.6198376    47.0789846
  9.6197326    47.0788363
  9.6195256    47.0787144
  9.6194686    47.0786642
  9.619181     47.0785074
  9.6187449    47.0781769
  9.6186718    47.0781398
  9.6185566    47.0781957
  9.6184993    47.0782268
  9.6182962    47.0782869
  9.61825      47.0783257
  9.6181198    47.0783714
  9.6180505    47.0783732
  9.6179193    47.0784019
  9.6178604    47.0783569
  9.6176984    47.0784075
  9.6176134    47.0784221
  9.6175754    47.0784562
  9.6174772    47.0784524
  9.6174443    47.0784835
  9.6174018    47.0784819
  9.6173363    47.0785472
  9.6172889    47.0785539
  9.6172055    47.0785431
  9.6171734    47.0785596
  9.6170082    47.0785603
  9.6169165    47.0785994
  9.6165966    47.0785893
  9.6164106    47.0786602
  9.6162776    47.0786627
  9.6162437    47.0786793
  9.6161799    47.0786771
  9.6160851    47.0786966
  9.6159912    47.0786952
  9.6155112    47.078797
  9.6154426    47.078794
  9.615192     47.0788176
  9.6151221    47.0788074
  9.6151082    47.0788261
  9.6150672    47.0788296
  9.6150042    47.0788163
  9.6148943    47.0788198
  9.6148275    47.0788025
  9.6146062    47.0788308
  9.6144601    47.0787752
  9.6142132    47.0787166
  9.6141712    47.0786856
  9.6140901    47.078681
  9.6140536    47.0786499
  9.6139817    47.0786359
  9.6138961    47.078676
  9.6136711    47.0786939
  9.613469     47.0786828
  9.6133507    47.0787016
  9.6130828    47.0787653
  9.6129711    47.0788098
  9.6129407    47.0788874
  9.6128253    47.0790066
  9.6126434    47.0790614
  9.6125334    47.0790687
  9.6124531    47.0790919
  9.612346     47.079142
  9.6121949    47.0791689
  9.6121149    47.0792089
  9.612077     47.0792529
  9.6120317    47.0792582
  9.6119883    47.0792934
  9.6117869    47.0793853
  9.6115721    47.0794419
  9.6115017    47.0794074
  9.6114704    47.079289
  9.6115944    47.0790076
  9.6115238    47.0789457
  9.6115126    47.0789078
  9.611394     47.078756
  9.611314     47.0786961
  9.6113295    47.0786506
  9.6113611    47.0786337
  9.6113488    47.0785569
  9.6114159    47.0785301
  9.6114951    47.0783741
  9.6114989    47.0782089
  9.611526     47.0781323
  9.6115152    47.0780611
  9.6115248    47.0779537
  9.6114727    47.0779255
  9.6114483    47.0778544
  9.6112952    47.0776858
  9.6112734    47.0776424
  9.6111699    47.0773442
  9.6112073    47.0772141
  9.6112035    47.0772027
  9.611143     47.0771968
  9.6111419    47.0771828
  9.6112056    47.0771444
  9.6112363    47.0770299
  9.6112089    47.0769789
  9.6112356    47.0769546
  9.6112307    47.0769076
  9.6112791    47.0768764
  9.6112792    47.076833
  9.6113505    47.0766945
  9.6113701    47.0765848
  9.6113156    47.0764366
  9.6112507    47.0763348
  9.6111516    47.0762317
  9.6110259    47.0759114
  9.6110066    47.075828
  9.6108644    47.0755076
  9.6107989    47.075406
  9.6107624    47.0753784
  9.6105926    47.0753088
  9.6105107    47.0752444
  9.6104898    47.0751796
  9.6105924    47.0750496
  9.6111013    47.0747987
  9.6112765    47.0746605
  9.6115104    47.074334
  9.6115756    47.074128
  9.6117724    47.0739785
  9.6117348    47.0739138
  9.6118045    47.0738012
  9.6119696    47.0737132
  9.6120471    47.0736888
  9.6120811    47.0735135
  9.6120683    47.0733634
  9.6121712    47.0731981
  9.6122359    47.0731296
  9.6123153    47.0730832
  9.61232      47.0730434
  9.6124021    47.0729673
  9.6124223    47.0729306
  9.6124034    47.0728859
  9.6124096    47.0727886
  9.6124708    47.0725657
  9.6125946    47.0724379
  9.6126784    47.0722824
  9.6127374    47.072223
  9.6127702    47.0721479
  9.6128967    47.0720377
  9.6129635    47.0719161
  9.6129414    47.0718522
  9.6130084    47.0718411
  9.6130825    47.0717997
  9.6131468    47.0717416
  9.6131764    47.0716869
  9.6131747    47.0716193
  9.6132007    47.0715148
  9.6133342    47.0713965
  9.6133789    47.0712793
  9.6134294    47.0694891
  9.6126954    47.0683598
  9.6126889    47.0678816
  9.6125217    47.0678229
  9.6124883    47.0677601
  9.6124872    47.0677283
  9.6124648    47.0677049
  9.6123922    47.0676727
  9.6121143    47.0674145
  9.6120963    47.0673547
  9.6120463    47.0673136
  9.6120469    47.0672823
  9.6119571    47.0672503
  9.6118393    47.0672325
  9.611425     47.0669907
  9.6111298    47.0668382
  9.6112939    47.0665764
  9.6112933    47.066485
  9.6112621    47.0664168
  9.6112675    47.066381
  9.6113313    47.0662846
  9.6112714    47.0661979
  9.6112843    47.0661359
  9.6112493    47.0660499
  9.6112787    47.0660255
  9.6112737    47.0659579
  9.6112366    47.065907
  9.6112734    47.0658258
  9.6112293    47.0657731
  9.6112297    47.0657354
  9.6111829    47.0656053
  9.6112149    47.0655783
  9.6112258    47.0655477
  9.6112301    47.0654569
  9.6112935    47.0653829
  9.6113795    47.0653589
  9.6114721    47.065316
  9.6115881    47.0651639
  9.6115763    47.0651047
  9.6116146    47.0650175
  9.6116782    47.0649809
  9.6117967    47.0648472
  9.61177      47.0647645
  9.6117814    47.0646654
  9.6116872    47.0645003
  9.6115112    47.0643539
  9.6110496    47.0641083
  9.6109066    47.0640726
  9.6109089    47.0639888
  9.6108857    47.0639775
  9.6109082    47.0639449
  9.6108241    47.0638148
  9.6108231    47.0637666
  9.6107871    47.0637314
  9.6107622    47.063663
  9.6107894    47.0635997
  9.610756     47.0635065
  9.6107765    47.0634795
  9.6107291    47.0634152
  9.6106865    47.0633782
  9.6106259    47.0633527
  9.610543     47.0632687
  9.6104095    47.0631986
  9.6100897    47.0630701
  9.6100347    47.0630616
  9.609978     47.063073
  9.6098836    47.0630234
  9.6098134    47.0629349
  9.6098404    47.0628912
  9.6098038    47.0628622
  9.609755     47.0628625
  9.6096982    47.0628374
  9.6095902    47.0627718
  9.6095079    47.0627444
  9.6094305    47.0626878
  9.609365     47.0624185
  9.6092548    47.0623516
  9.6091877    47.0622904
  9.6091106    47.0622062
  9.6090971    47.062156
  9.6087799    47.0618621
  9.6086629    47.0618296
  9.608555     47.061768
  9.6083157    47.0615888
  9.6078322    47.0613411
  9.6074435    47.0610787
  9.607316     47.0609411
  9.6070616    47.0607698
  9.6066993    47.0607552
  9.6064326    47.0608537
  9.6059938    47.0609962
  9.6051039    47.0612121
  9.6049208    47.0613979
  9.6047578    47.0614783
  9.6043349    47.0615438
  9.6039667    47.0616602
  9.6034792    47.0617721
  9.6030173    47.0615724
  9.602627     47.0614653
  9.6024716    47.0613786
  9.6021869    47.0611764
  9.601688     47.0610111
  9.6015567    47.0609421
  9.6013811    47.0607637
  9.6011521    47.0605572
  9.601053     47.0604088
  9.601001     47.0602477
  9.6010038    47.0599554
  9.6009592    47.0598652
  9.6004485    47.0595374
  9.6001105    47.0592455
  9.5999323    47.0591082
  9.5997691    47.0589682
  9.5983051    47.058872
  9.5979958    47.0589256
  9.5978989    47.0589177
  9.5977948    47.0588784
  9.5974339    47.0586981
  9.5970091    47.0585832
  9.5967426    47.0585266
  9.5965536    47.0585028
  9.5963185    47.058426
  9.5957035    47.058191
  9.5953891    47.0579691
  9.5951834    47.0578753
  9.5947868    47.057723
  9.5945263    47.0576388
  9.5939908    47.0573497
  9.5937974    47.0572682
  9.593567     47.0572202
  9.5933378    47.0572097
  9.5926197    47.0572208
  9.592075     47.057163
  9.5916966    47.0571547
  9.5914617    47.056966
  9.591039     47.0567964
  9.5907308    47.0565462
  9.5902032    47.056191
  9.5899371    47.0560478
  9.5893715    47.0558186
  9.5891781    47.0557244
  9.5891169    47.0556754
  9.58897      47.0554325
  9.5888594    47.0553081
  9.5887068    47.055182
  9.5884601    47.0550335
  9.5882521    47.0549256
  9.5880711    47.0548496
  9.5878241    47.0548063
  9.5872569    47.0547858
  9.5870374    47.0547551
  9.5860152    47.0544371
  9.585335     47.054248
  9.5845647    47.0540115
  9.5836848    47.0537875
  9.5834156    47.0536857
  9.5832078    47.0535351
  9.5829016    47.0532889
  9.5821827    47.0528225
  9.5821665    47.0527018
  9.5820019    47.0527138
  9.581811     47.0527901
  9.5815851    47.0527369
  9.5814282    47.0527256
  9.5811681    47.0527353
  9.5806714    47.0527939
  9.580111     47.052893
  9.5798158    47.0528691
  9.5793436    47.0528203
  9.5788789    47.0530876
  9.5787441    47.0531375
  9.5784871    47.0531743
  9.5781844    47.0530901
  9.578082     47.0530785
  9.5778204    47.0531338
  9.5775359    47.0532274
  9.5773677    47.0532556
  9.5768652    47.0532212
  9.576597     47.0532299
  9.5760202    47.0532696
  9.5755956    47.0530814
  9.5751835    47.0529627
  9.5746683    47.0528363
  9.5736293    47.0526471
  9.5734945    47.0526454
  9.5729235    47.0527614
  9.5720994    47.0521035
  9.5720013    47.0520799
  9.5716936    47.0520907
  9.5713698    47.0521391
  9.5711446    47.0521942
  9.5706019    47.0521711
  9.5704087    47.0519431
  9.5694185    47.0518444
  9.5685717    47.0518108
  9.5676283    47.0515244
  9.5671435    47.0513986
  9.5661161    47.0512071
  9.5657877    47.0510849
  9.5654613    47.0509464
  9.5652875    47.05089
  9.5651805    47.0508745
  9.5645819    47.0508362
  9.5644765    47.0507839
  9.5642817    47.0505836
  9.5640895    47.0504434
  9.5638848    47.050402
  9.5631826    47.0498523
  9.5629714    47.0497231
  9.5627718    47.0496173
  9.5623778    47.04945
  9.5622668    47.0494315
  9.5614592    47.0493657
  9.5611491    47.0492858
  9.560929     47.0491812
  9.5605819    47.0489162
  9.5601751    47.0487087
  9.5597944    47.0485701
  9.5589491    47.0484269
  9.5574503    47.0484733
  9.5569274    47.0485143
  9.5557794    47.0497261
  9.5556566    47.049994
  9.5556215    47.0500399
  9.5555321    47.0501133
  9.5551712    47.0503059
  9.5550591    47.0503172
  9.5546535    47.050253
  9.5545585    47.0502589
  9.5545148    47.0503014
  9.5543938    47.0505048
  9.5543842    47.0506626
  9.5544169    47.0508846
  9.5543961    47.0510151
  9.5541535    47.051502
  9.5539473    47.0516458
  9.5539076    47.051974
  9.5537054    47.0523257
  9.5535778    47.0527595
  9.5535004    47.0530897
  9.5535716    47.05317
  9.5535388    47.0532887
  9.5534772    47.0542862
  9.5533862    47.054786
  9.5532811    47.0569812
  9.5530638    47.0573929
  9.5529933    47.0574668
  9.5527197    47.0576563
  9.5524735    47.0578486
  9.5520896    47.0583805
  9.5518889    47.058468
  9.5517836    47.0585367
  9.5516272    47.0588407
  9.5514717    47.058908
  9.5509454    47.0590905
  9.5505828    47.0592635
  9.5504858    47.0593266
  9.5502656    47.0595033
  9.5500814    47.0597288
  9.5499577    47.0599252
  9.5492443    47.0605594
  9.5489532    47.060969
  9.5488982    47.0610098
  9.5483988    47.0612408
  9.5482376    47.0612941
  9.548101     47.0613208
  9.5479848    47.0613723
  9.5476016    47.0615835
  9.5471741    47.0616233
  9.5470069    47.0616551
  9.5464914    47.0618213
  9.5456226    47.0620761
  9.5450737    47.062292
  9.5447057    47.0623777
  9.5442745    47.0627296
  9.5442375    47.0629282
  9.5440393    47.0631118
  9.5436954    47.0633263
  9.5432122    47.0636759
  9.5430551    47.0637281
  9.5427184    47.0638541
  9.5426264    47.0638806
  9.542267     47.0639503
  9.5418912    47.0640846
  9.5416246    47.0642364
  9.541476     47.0643077
  9.5411612    47.0643731
  9.5409684    47.0644257
  9.5408035    47.0644862
  9.5399616    47.0649771
  9.5397613    47.0651462
  9.5395198    47.0650024
  9.5386021    47.0647644
  9.5384451    47.0647341
  9.538236     47.0647167
  9.5377825    47.0646581
  9.5374664    47.0646023
  9.5372099    47.0645374
  9.5368271    47.0643811
  9.5365156    47.064272
  9.5362174    47.0642122
  9.5359625    47.0642033
  9.5353353    47.0642252
  9.5352438    47.0642196
  9.5351621    47.0641948
  9.5350436    47.0641206
  9.5346917    47.0639342
  9.5345433    47.0638756
  9.5341275    47.0638156
  9.5335882    47.0635712
  9.5331174    47.0632647
  9.5324525    47.0630159
  9.5322191    47.0629459
  9.5321328    47.0629425
  9.5316344    47.0630205
  9.531464     47.0630636
  9.5313608    47.0630766
  9.5312581    47.0630729
  9.5311737    47.0630411
  9.5310636    47.063012
  9.5309577    47.0629984
  9.530795     47.0630047
  9.5306076    47.0630426
  9.524219     47.0616964
  9.5210502    47.0610319
  9.5178838    47.0603678
  9.5165472    47.0600875
  9.5161924    47.059578
  9.5153751    47.0585247
  9.5146488    47.0578395
  9.5141473    47.0573373
  9.5120819    47.0568163
  9.5068801    47.0564853
  9.5027727    47.056224
  9.5015338    47.0566801
  9.500657     47.0568048
  9.500005     47.0571256
  9.499713     47.0559398
  9.4993449    47.0548098
  9.4995411    47.0541529
  9.4973961    47.0541582
  9.4945733    47.055824
  9.4933332    47.0565146
  9.4924221    47.0564281
  9.4913165    47.0562498
  9.4907778    47.0556402
  9.4903551    47.0549457
  9.4900841    47.0542536
  9.4883289    47.0527104
  9.487701     47.0518086
  9.4863335    47.0498446
  9.4857569    47.0490899
  9.4849537    47.0491879
  9.4843832    47.0492575
  9.483655     47.0503802
  9.483208     47.0510694
  9.4827305    47.0517692
  9.4823324    47.0521367
  9.4818969    47.0525388
  9.4816803    47.053432
  9.481801     47.0546784
  9.4822831    47.0561172
  9.4810627    47.0560727
  9.4800963    47.0553841
  9.4797909    47.055395
  9.4788044    47.0556534
  9.4769007    47.0546005
  9.4762796    47.0534571
  9.476829     47.0521182
  9.4767053    47.0519446
  9.4757952    47.0517502
  9.4724287    47.0597842
  9.471786     47.0615144
  9.4716829    47.0633086
  9.4718708    47.0641988
  9.4723868    47.0650265
  9.4731752    47.0657449
  9.4740977    47.0663872
END
END
