polygon
1
  23.1378952   60.840633
  23.138118    60.8405663
  23.1383247   60.8404814
  23.1386251   60.840358
  23.1388932   60.8402241
  23.1391257   60.8400905
  23.1399281   60.8395931
  23.1422629   60.8383277
  23.1426325   60.8378185
  23.221235    60.829812
  23.229389    60.825586
  23.2042589   60.8174856
  23.1991091   60.8179041
  23.154716    60.77425
  23.18271     60.7578997
  23.237627    60.7351988
  23.2366228   60.7340324
  23.2400045   60.7329834
  23.2419786   60.7335792
  23.2431888   60.7328365
  23.2454462   60.7333442
  23.2524156   60.7304069
  23.2510216   60.7299001
  23.2582178   60.7265837
  23.277626    60.711327
  23.2788686   60.7184448
  23.2770576   60.7191249
  23.2786369   60.7258408
  23.2864633   60.7256811
  23.333244    60.718045
  23.4082831   60.739553
  23.454266    60.748676
  23.4795      60.746411
  23.487568    60.748173
  23.4895847   60.7450912
  23.5021362   60.7439892
  23.5004013   60.7423609
  23.5001585   60.7422192
  23.4983063   60.7415018
  23.4993988   60.740496
  23.5016103   60.7400609
  23.50076     60.7318062
  23.5003283   60.7274575
  23.5003268   60.7274449
  23.5130343   60.7235185
  23.5294505   60.7183898
  23.5314033   60.7156569
  23.5330302   60.7132247
  23.5352334   60.710075
  23.5371651   60.7071918
  23.5392459   60.7043232
  23.5608712   60.6983983
  23.5691252   60.6961509
  23.5742403   60.6947533
  23.575885    60.6943165
  23.5828973   60.6949434
  23.5896219   60.6956157
  23.6117809   60.6945321
  23.6133893   60.6944363
  23.6206932   60.6941564
  23.6229468   60.6939976
  23.6242312   60.6938857
  23.6259201   60.6937971
  23.6427343   60.6906076
  23.6434956   60.6896288
  23.6441471   60.690334
  23.6815574   60.6832278
  23.6775065   60.6768977
  23.6766455   60.6769969
  23.674026    60.67272
  23.6730319   60.6709872
  23.6729503   60.6708559
  23.6729186   60.6708186
  23.6729018   60.6707705
  23.6728933   60.6707301
  23.6729007   60.6706919
  23.6729376   60.6706752
  23.6730157   60.6706676
  23.6730775   60.6706734
  23.6731436   60.670704
  23.6732009   60.6707042
  23.6732337   60.6706605
  23.6733056   60.6706046
  23.6733998   60.6705903
  23.6735309   60.6705649
  23.6736443   60.6704979
  23.6736246   60.6704293
  23.6736004   60.6703954
  23.6735909   60.670382
  23.673507    60.6703143
  23.6734803   60.6702626
  23.6734947   60.6702188
  23.6735852   60.6701472
  23.673696    60.6700926
  23.6738045   60.670048
  23.6738719   60.6699853
  23.6738822   60.669909
  23.6738551   60.6698752
  23.6738282   60.6698369
  23.6737946   60.6697806
  23.6737361   60.6697052
  23.6736935   60.6696387
  23.6736372   60.6695644
  23.6735583   60.669472
  23.67347     60.6693942
  23.673377    60.669322
  23.673264    60.6692092
  23.6731439   60.66911
  23.6730745   60.6690014
  23.6746256   60.6691993
  23.67692     60.6662858
  23.6820157   60.6599765
  23.6815829   60.6582502
  23.6834994   60.6580547
  23.684154    60.6572421
  23.7123829   60.6634467
  23.7126877   60.6635131
  23.7138347   60.6637915
  23.7173556   60.6625929
  23.7311278   60.6584051
  23.7313059   60.6583451
  23.7340947   60.6568071
  23.7359237   60.6569318
  23.7360682   60.6569416
  23.7441453   60.6544212
  23.7464344   60.6516503
  23.7478276   60.6531633
  23.7479291   60.653282
  23.7482428   60.6532344
  23.763969    60.6539099
  23.7641373   60.6538992
  23.7715179   60.6542158
  23.7717147   60.6542305
  23.7721886   60.6540619
  23.7720605   60.6540449
  23.7740041   60.6534953
  23.775902    60.6527971
  23.7766145   60.6536099
  23.7753931   60.653838
  23.7733878   60.6543145
  23.7983909   60.6553349
  23.7974456   60.6561237
  23.793561    60.6570908
  23.7947326   60.6580908
  23.8006872   60.6572432
  23.8004284   60.6554213
  23.8142061   60.6560392
  23.815397    60.6559323
  23.8583066   60.6520794
  23.8654219   60.6514582
  23.8654864   60.6515226
  23.8655793   60.6515915
  23.8658356   60.651726
  23.8659421   60.6517368
  23.8662102   60.6517249
  23.8663246   60.6517544
  23.8663636   60.6517934
  23.8663997   60.6519364
  23.8664861   60.6521033
  23.8665331   60.6523317
  23.8665097   60.6524603
  23.8664215   60.65255
  23.8660623   60.6527846
  23.866011    60.6528748
  23.8660791   60.6529033
  23.8662909   60.6529155
  23.8663989   60.652945
  23.8670257   60.6533707
  23.8672809   60.6534968
  23.8674419   60.6535323
  23.8677622   60.6535289
  23.8684956   60.6533303
  23.8688062   60.653302
  23.8690551   60.6533093
  23.8692063   60.6533393
  23.8693464   60.6533883
  23.8697044   60.6535667
  23.8699992   60.6537447
  23.8703563   60.6538755
  23.8709243   60.6539914
  23.8711407   60.654007
  23.8713396   60.6540006
  23.8717969   60.6539497
  23.8723157   60.6538583
  23.8724065   60.6538286
  23.8724623   60.6537761
  23.8724651   60.6536733
  23.8725062   60.6536155
  23.8727956   60.6534853
  23.8728651   60.6534349
  23.8728636   60.6532042
  23.8729135   60.6530985
  23.873356    60.652743
  23.8733689   60.652737
  23.8734107   60.6527214
  23.8734628   60.6527077
  23.8737125   60.6526784
  23.8738628   60.6526079
  23.8740445   60.6525958
  23.874307    60.6525107
  23.8745426   60.6524631
  23.8748199   60.6524382
  23.8751781   60.6523664
  23.8754312   60.6522845
  23.8754775   60.6522573
  23.8754897   60.6521767
  23.8755371   60.6521424
  23.8757366   60.6520922
  23.8760574   60.6520377
  23.8763032   60.6519204
  23.8766304   60.6515829
  23.8768738   60.6513855
  23.8770058   60.6513288
  23.8771621   60.651311
  23.8772519   60.6513601
  23.8774373   60.6513475
  23.8775764   60.6513872
  23.8777046   60.6513832
  23.877864    60.6514345
  23.8779709   60.6514401
  23.8780657   60.6514094
  23.8780084   60.6513476
  23.8780899   60.6512995
  23.8785913   60.6512194
  23.8789385   60.6511859
  23.8794066   60.6510985
  23.879488    60.6511152
  23.8796552   60.6512176
  23.8798371   60.6512744
  23.8800081   60.6512778
  23.8802031   60.6512533
  23.8803922   60.6512753
  23.8804482   60.6512698
  23.8806696   60.6511731
  23.880929    60.6511115
  23.8810921   60.6510548
  23.8816088   60.6508138
  23.882084    60.6506997
  23.8824378   60.6505772
  23.8828747   60.6503476
  23.8830303   60.6503374
  23.8833601   60.6504018
  23.8835766   60.6503979
  23.8836346   60.650352
  23.8837359   60.65017
  23.8838351   60.6501197
  23.883938    60.650102
  23.8841408   60.6501105
  23.8846028   60.6501991
  23.8847118   60.6502018
  23.8847885   60.6501739
  23.8847639   60.6501043
  23.8847808   60.6500703
  23.8849371   60.6500394
  23.8849545   60.6499573
  23.885025    60.6499121
  23.8850835   60.6499049
  23.8851133   60.6499148
  23.8853096   60.6500564
  23.885421    60.6500582
  23.8856025   60.6499854
  23.8857776   60.6499529
  23.8858826   60.6498718
  23.8860283   60.6498905
  23.8861155   60.6498796
  23.8865876   60.6496835
  23.8868016   60.6496456
  23.9005068   60.6497568
  23.9171835   60.6538563
  23.9177464   60.6537632
  23.9182922   60.6535214
  23.9185402   60.6531568
  23.9192518   60.6528682
  23.9197929   60.652772
  23.9203969   60.6528636
  23.920803    60.6528171
  23.9216763   60.6527505
  23.9219677   60.6526485
  23.921926    60.6522404
  23.9219885   60.6520364
  23.9225088   60.6518324
  23.9225505   60.6516284
  23.9229404   60.6510863
  23.92347     60.6505039
  23.9239693   60.6500431
  23.9247688   60.6497729
  23.9260715   60.6497269
  23.9267376   60.649533
  23.9278466   60.6493835
  23.9286916   60.6486209
  23.9294849   60.6483617
  23.9301094   60.6482404
  23.9304171   60.6481051
  23.9304171   60.6476356
  23.9305601   60.6474534
  23.9307888   60.6473553
  23.9309032   60.6472502
  23.9308003   60.6469391
  23.9309104   60.6468769
  23.9308842   60.6468215
  23.9307375   60.6468085
  23.9307406   60.6467075
  23.9307933   60.6466731
  23.9307172   60.6465927
  23.9308118   60.6465408
  23.9307992   60.6464434
  23.9309434   60.6464387
  23.931051    60.6463659
  23.9310158   60.6462454
  23.9311429   60.6462236
  23.9316095   60.6462922
  23.9318148   60.646283
  23.9319268   60.6460909
  23.9322814   60.645917
  23.9326361   60.6457615
  23.9326548   60.6455053
  23.9328041   60.6454229
  23.9331774   60.6453772
  23.933486    60.6457207
  23.9337138   60.6457243
  23.9339105   60.6456554
  23.9340777   60.645714
  23.9342154   60.6456937
  23.9343117   60.6456398
  23.9345044   60.6455588
  23.9346343   60.6455653
  23.9346304   60.6456673
  23.934719    60.6457034
  23.9348754   60.6456767
  23.9349403   60.6456395
  23.9350559   60.6456611
  23.9352497   60.6456999
  23.9356633   60.6455965
  23.9358994   60.6455587
  23.9362302   60.6455787
  23.9367121   60.6456906
  23.9369262   60.6456993
  23.9371864   60.645646
  23.9374701   60.6456197
  23.9377947   60.6455083
  23.9381304   60.645335
  23.9381925   60.6452417
  23.9382331   60.6450037
  23.9394989   60.6445465
  23.9434273   60.6434598
  23.9439393   60.6434369
  23.9443583   60.6432658
  23.944847    60.6432087
  23.9453823   60.6430034
  23.9467466   60.6423785
  23.9598307   60.6383368
  23.9616647   60.6381645
  23.9619779   60.6385832
  23.96236     60.6385457
  23.9625992   60.6383362
  23.9629685   60.6383445
  23.9633085   60.638577
  23.9636872   60.638598
  23.9637547   60.6382819
  23.9649056   60.6381574
  23.9666766   60.6377457
  23.9667675   60.6378606
  23.9670705   60.6377922
  23.9713235   60.6382005
  24.0054436   60.6435351
  24.0410725   60.6445216
  24.0467482   60.6423245
  24.0472419   60.6418086
  24.0474147   60.641728
  24.0647922   60.6353114
  24.0656934   60.6349699
  24.0671258   60.6344465
  24.0722685   60.6325341
  24.0723856   60.6324777
  24.0741707   60.6318308
  24.0842858   60.6280903
  24.1049283   60.6289382
  24.1058814   60.6287521
  24.1347811   60.6231174
  24.174943    60.6280826
  24.1798435   60.6272522
  24.1870027   60.625986
  24.1903025   60.6254236
  24.1997396   60.6237759
  24.2063143   60.6225559
  24.216906    60.6210425
  24.2372637   60.618066
  24.2371467   60.617307
  24.2368773   60.6158465
  24.2357798   60.6105625
  24.2349727   60.6063867
  24.234741    60.6054026
  24.2339792   60.601684
  24.2367195   60.5989015
  24.2383143   60.5976324
  24.238793    60.5971977
  24.2409698   60.5951581
  24.2449801   60.5916399
  24.2468436   60.5900132
  24.2475193   60.5894367
  24.2516157   60.5872719
  24.253055    60.5864853
  24.2544412   60.5857467
  24.2585125   60.5835093
  24.2652739   60.5798211
  24.2691664   60.5770199
  24.2703438   60.5761891
  24.274695    60.5730595
  24.2853867   60.5654106
  24.2920724   60.5673037
  24.2934913   60.5677395
  24.3055756   60.5710475
  24.3043095   60.5724191
  24.302483    60.5743065
  24.3015567   60.5754041
  24.3008849   60.5761272
  24.3005097   60.5765492
  24.3004678   60.5765813
  24.2988427   60.5783674
  24.2933244   60.5843559
  24.3030372   60.5864676
  24.3061034   60.5871499
  24.306169    60.5871525
  24.309212    60.5890176
  24.3177022   60.5940515
  24.3337054   60.6037156
  24.3380568   60.6063771
  24.3477235   60.6121537
  24.3609795   60.608943
  24.3619759   60.6086783
  24.3636409   60.6082972
  24.3724618   60.6061432
  24.3763873   60.6051942
  24.3824138   60.6037224
  24.3828878   60.603616
  24.3852187   60.6030377
  24.3900257   60.6009668
  24.3980251   60.5974663
  24.399906    60.5966656
  24.4031446   60.5952701
  24.4063356   60.5938811
  24.4074293   60.5933925
  24.4086074   60.592904
  24.4104224   60.592122
  24.4099151   60.5916408
  24.4089884   60.5903629
  24.408638    60.5900733
  24.4085656   60.5898302
  24.4057135   60.5862677
  24.4052936   60.5857144
  24.4035831   60.5836236
  24.401682    60.5811288
  24.3984472   60.5771774
  24.4041708   60.5716041
  24.4070886   60.5687263
  24.4116037   60.5643256
  24.4236803   60.5524915
  24.4274164   60.5527206
  24.5489547   60.5598406
  24.5539491   60.564425
  24.5555412   60.5658863
  24.5590028   60.5690632
  24.5594362   60.569461
  24.5602155   60.5701761
  24.5610647   60.5709574
  24.5616071   60.5714564
  24.5723891   60.581375
  24.5743829   60.5832525
  24.5747048   60.5834949
  24.5772594   60.5858115
  24.5642478   60.6009218
  24.5643754   60.6010336
  24.5647333   60.6012015
  24.5661605   60.6015627
  24.5669938   60.6019106
  24.5667184   60.6022832
  24.5655897   60.6018541
  24.5646308   60.6018865
  24.5642274   60.6018487
  24.5636432   60.6016635
  24.5629319   60.6024612
  24.5630539   60.6035994
  24.5631105   60.6043768
  24.5654213   60.6260847
  24.5645445   60.6360426
  24.6056333   60.6609475
  24.6078343   60.6641709
  24.6167234   60.6670343
  24.6390829   60.6587681
  24.6516402   60.6602155
  24.6717278   60.6547562
  24.6766518   60.6534179
  24.6914426   60.6493974
  24.7124237   60.6501793
  24.7398895   60.6477392
  24.7417778   60.6502634
  24.7460694   60.6492537
  24.7493101   60.6495801
  24.7505771   60.6522777
  24.7517532   60.6548414
  24.7572576   60.6543664
  24.7604122   60.6560093
  24.7615106   60.6571517
  24.7641233   60.6599113
  24.7702749   60.6575027
  24.7744778   60.6558147
  24.7769456   60.6548164
  24.7792716   60.6538955
  24.7806672   60.6549011
  24.7815712   60.6555034
  24.7822288   60.6558521
  24.7834694   60.6565025
  24.7846854   60.6572495
  24.7870368   60.6587494
  24.7899328   60.6605899
  24.7936486   60.6629154
  24.7943342   60.6633414
  24.7955425   60.6640922
  24.799136    60.6663195
  24.8030783   60.6688016
  24.8036104   60.6691366
  24.8062238   60.6707899
  24.8094535   60.672833
  24.810533    60.6722727
  24.8124029   60.6713594
  24.8183161   60.6684711
  24.82342     60.6677988
  24.8235737   60.6677786
  24.823791    60.6677518
  24.8239328   60.6677337
  24.8294676   60.6670269
  24.8343572   60.6663945
  24.8350451   60.6663164
  24.835078    60.6658175
  24.8355533   60.6592806
  24.836734    60.6592949
  24.8381386   60.6593103
  24.8383316   60.6593143
  24.8387443   60.6593229
  24.83823     60.6633824
  24.8376383   60.6633734
  24.8373544   60.6648545
  24.8379066   60.6648648
  24.8376614   60.6665887
  24.8387768   60.6665849
  24.8389422   60.6649157
  24.8394316   60.6649397
  24.8395046   60.6641601
  24.8395722   60.6634115
  24.839103    60.6633974
  24.8397601   60.6593441
  24.8509477   60.6594679
  24.8655518   60.659679
  24.8672001   60.6597175
  24.8730958   60.6598066
  24.8811557   60.6597705
  24.891015    60.6600376
  24.8938413   60.6601142
  24.8938706   60.660115
  24.8939573   60.6601102
  24.8941789   60.6600994
  24.8943286   60.6604785
  24.8943804   60.6605475
  24.8944108   60.660588
  24.8945191   60.6607776
  24.8945415   60.6608373
  24.8949363   60.6618902
  24.8949429   60.6630727
  24.8949479   60.6640697
  24.8950703   60.6640723
  24.8964991   60.664
  24.8992397   60.6638788
  24.902566    60.663783
  24.9202032   60.6632749
  24.9205465   60.6661343
  24.9287862   60.6688253
  24.9298162   60.6678162
  24.9346227   60.6689935
  24.9318761   60.6721887
  24.9386567   60.673204
  24.9883525   60.6806291
  24.9974008   60.6814087
  24.9990122   60.6815166
  25.0023452   60.6817393
  25.0173635   60.6821087
  25.0290365   60.6816043
  25.0293798   60.6831173
  25.0352163   60.6846302
  25.0437994   60.6816043
  25.0437994   60.6800913
  25.055129    60.67841
  25.0633688   60.6678162
  25.1124256   60.661559
  25.1132143   60.6626322
  25.1127032   60.6632441
  25.0944249   60.6862869
  25.0842126   60.6992085
  25.0933055   60.7016846
  25.1042278   60.7046668
  25.1240528   60.7100304
  25.1319922   60.7122193
  25.1460446   60.7164659
  25.1595511   60.7187563
  25.1861163   60.7234999
  25.1897155   60.7241493
  25.1930584   60.7247831
  25.1863266   60.7257249
  25.1794844   60.7266927
  25.1454685   60.7314753
  25.1188995   60.7466178
  25.1187749   60.7466676
  25.118686    60.7466846
  25.1186396   60.7466828
  25.1186142   60.7466527
  25.1186576   60.7465524
  25.1186692   60.7464376
  25.1187349   60.7464461
  25.1186271   60.7462977
  25.1185074   60.7461426
  25.1183643   60.745965
  25.1182901   60.7459313
  25.1178995   60.7455448
  25.1177002   60.7453664
  25.1177959   60.7453094
  25.1190863   60.7451361
  25.1186974   60.7448163
  25.1177104   60.74475
  25.1179302   60.7436873
  25.116331    60.7433622
  25.1166834   60.7425802
  25.117481    60.7423168
  25.1143648   60.7403278
  25.1135787   60.7404483
  25.1134392   60.740505
  25.1132645   60.7405173
  25.1129477   60.7405064
  25.1127859   60.7404874
  25.1125322   60.7404448
  25.1123443   60.7403722
  25.112285    60.740327
  25.1122371   60.740229
  25.1122024   60.7400651
  25.1121805   60.7400177
  25.1119802   60.7398302
  25.1118188   60.7397267
  25.1114195   60.7394887
  25.1108917   60.7392236
  25.1106798   60.7391265
  25.1103912   60.739039
  25.1100063   60.738945
  25.1098393   60.7388831
  25.1097424   60.7388139
  25.1096435   60.7386576
  25.1096371   60.7386475
  25.1095466   60.7384445
  25.1095017   60.7383325
  25.1096001   60.7383181
  25.1096765   60.7383022
  25.1111989   60.7372637
  25.1112336   60.7370471
  25.1110711   60.7368926
  25.1109125   60.7367778
  25.1106896   60.7366671
  25.1103978   60.7365818
  25.110042    60.7365199
  25.1096786   60.7365257
  25.1094718   60.7365438
  25.1091647   60.7365899
  25.1086629   60.7366871
  25.1085144   60.7367083
  25.1083383   60.736713
  25.1081166   60.736674
  25.1079002   60.7366087
  25.1075652   60.7365612
  25.1072174   60.7365493
  25.1067591   60.7365691
  25.1065846   60.7365686
  25.1063415   60.7365017
  25.1061437   60.7364343
  25.1059752   60.7363611
  25.1058616   60.7362971
  25.105552    60.7360715
  25.1054365   60.7359287
  25.1053172   60.7357075
  25.1051643   60.7355081
  25.1050011   60.7352952
  25.1048983   60.7351451
  25.1047681   60.7350107
  25.1044697   60.7348629
  25.1041313   60.7347757
  25.1036278   60.7347325
  25.1033587   60.7347139
  25.1031611   60.7346777
  25.1028644   60.7345819
  25.1027454   60.7345017
  25.102629    60.734352
  25.1025363   60.7342636
  25.1024051   60.7341804
  25.1021857   60.7340396
  25.1018698   60.7338608
  25.1010643   60.7334282
  25.1001763   60.7329513
  25.0991212   60.7321906
  25.0990374   60.7321241
  25.0989713   60.7319828
  25.0988754   60.7317318
  25.0987511   60.7315081
  25.0985279   60.7312503
  25.0983288   60.7310777
  25.09803     60.7309357
  25.0976623   60.7308292
  25.0972122   60.7307786
  25.0970037   60.7307689
  25.0968398   60.7307312
  25.0966311   60.7307024
  25.0964383   60.7306538
  25.0962394   60.7306216
  25.0959911   60.7305747
  25.0959629   60.7305686
  25.0959416   60.7305267
  25.095882    60.7304983
  25.0957718   60.730432
  25.0956551   60.7303414
  25.0953556   60.7301277
  25.0952721   60.7301065
  25.0953275   60.7300514
  25.0951829   60.730009
  25.0951323   60.7299521
  25.0951511   60.7298693
  25.094972    60.7298101
  25.0948047   60.7298214
  25.094469    60.729695
  25.0944105   60.7296554
  25.0942147   60.7296438
  25.093912    60.7295541
  25.0935835   60.7293608
  25.0935627   60.7293495
  25.0935199   60.7293418
  25.0934065   60.7293222
  25.0933124   60.7292816
  25.0932235   60.7292156
  25.0930458   60.7292072
  25.0929614   60.7291811
  25.0928078   60.7291981
  25.0927087   60.7291592
  25.092561    60.7291375
  25.092477    60.7290653
  25.0923156   60.7291184
  25.0922027   60.7290932
  25.0921684   60.7290481
  25.0920636   60.7290383
  25.0920201   60.7290043
  25.0920246   60.7289978
  25.0919667   60.7289801
  25.0917317   60.7289144
  25.0914821   60.7288266
  25.0912906   60.7287528
  25.0911286   60.7287033
  25.0909016   60.7286363
  25.090744    60.7285776
  25.0905986   60.728501
  25.0904054   60.7283762
  25.0902531   60.7282702
  25.0901004   60.72818
  25.0899541   60.7281099
  25.0898472   60.7280417
  25.0897486   60.7279727
  25.0896393   60.7278841
  25.0895765   60.7278077
  25.0894232   60.7277484
  25.0893318   60.727582
  25.089201    60.7273995
  25.0890351   60.7272706
  25.0885062   60.7268859
  25.0882425   60.7266706
  25.0879697   60.7264727
  25.0876478   60.7263381
  25.087214    60.7262208
  25.0866376   60.7260977
  25.0862945   60.7259784
  25.0857935   60.7257743
  25.0854522   60.7256095
  25.0852603   60.7254753
  25.0851537   60.7253175
  25.0850937   60.7251213
  25.0852564   60.7250018
  25.0855679   60.7248287
  25.085686    60.7246978
  25.0856778   60.7246032
  25.0855807   60.7245226
  25.0854051   60.7244564
  25.0850314   60.7244011
  25.0846266   60.7243579
  25.0841336   60.7243205
  25.0839714   60.7243026
  25.0838381   60.7242559
  25.0836917   60.7241825
  25.0835249   60.7240513
  25.0834021   60.7239576
  25.0831691   60.72373
  25.0827699   60.7233791
  25.0826622   60.7232058
  25.0825761   60.7230178
  25.0825242   60.722893
  25.0825358   60.7228107
  25.082564    60.7227379
  25.0823371   60.722499
  25.0823162   60.722272
  25.0820201   60.7220231
  25.0817907   60.7215857
  25.0815068   60.721126
  25.0811137   60.7207121
  25.0807442   60.7205262
  25.0801823   60.7203822
  25.0795364   60.7203121
  25.0786966   60.7202263
  25.0781682   60.7201212
  25.0777736   60.7199812
  25.0773979   60.7198635
  25.07724     60.7197706
  25.077197    60.7197058
  25.0772007   60.7196035
  25.0713003   60.7163909
  25.067916    60.7145537
  25.0671502   60.7153801
  25.0668019   60.715759
  25.0651175   60.717563
  25.0605024   60.72251
  25.0582103   60.7250215
  25.0757047   60.7419393
  25.0746525   60.7437034
  25.0791399   60.7452497
  25.0881421   60.7539936
  25.0904892   60.7622993
  25.09063     60.7629354
  25.1007081   60.7637965
  25.1078596   60.7644396
  25.1284394   60.7661754
  25.1284252   60.7662873
  25.1283394   60.7665138
  25.1299335   60.7666583
  25.1300325   60.7663963
  25.1443952   60.7676587
  25.14533     60.7667549
  25.147654    60.7667827
  25.1479516   60.7679721
  25.1524376   60.7683654
  25.1548677   60.7783836
  25.1376302   60.7890159
  25.128882    60.7941644
  25.1144118   60.8026109
  25.102067    60.8097655
  25.1060646   60.813773
  25.11098     60.8185831
  25.1055935   60.8218016
  25.1037346   60.822884
  25.0923546   60.8222653
  25.0917007   60.8230861
  25.0912972   60.8235439
  25.0909849   60.8239291
  25.0903946   60.8246723
  25.0886467   60.8268008
  25.0865674   60.8293703
  25.0855507   60.8305549
  25.0785828   60.8392447
  25.0815696   60.8484537
  25.0821932   60.8481888
  25.0824771   60.8485131
  25.0824879   60.8489456
  25.0822175   60.8497625
  25.0824988   60.8511241
  25.0833985   60.851037
  25.083402    60.8516297
  25.0826282   60.8517173
  25.0839839   60.855426
  25.0845209   60.8555858
  25.0846315   60.8557182
  25.0845933   60.8558404
  25.0844346   60.8561608
  25.0844936   60.8563175
  25.0847339   60.8565495
  25.0850987   60.856872
  25.0854721   60.857327
  25.0855788   60.8575825
  25.0856834   60.8577888
  25.0858325   60.8578959
  25.0858719   60.8579143
  25.086017    60.857982
  25.086333    60.8580007
  25.0871768   60.8579246
  25.0877037   60.8579701
  25.0879139   60.858118
  25.0879569   60.8582828
  25.0878999   60.8585876
  25.0878731   60.8589183
  25.0881306   60.859226
  25.0882196   60.8594324
  25.088063    60.8596643
  25.0874816   60.8598209
  25.0869794   60.860029
  25.0866554   60.8601673
  25.0865471   60.8602768
  25.0895308   60.8611624
  25.0888382   60.8615964
  25.0889444   60.861716
  25.0892041   60.8618364
  25.089844    60.8620116
  25.0904696   60.8623917
  25.0912033   60.8626134
  25.0917999   60.862795
  25.0919228   60.8629426
  25.091979    60.8633285
  25.0919962   60.8637731
  25.0920487   60.8641617
  25.092161    60.8643653
  25.092346    60.8644661
  25.092581    60.8645189
  25.0928878   60.8645309
  25.0933293   60.8644742
  25.0947213   60.8640275
  25.0949794   60.8639456
  25.0952525   60.8639027
  25.095334    60.8639133
  25.0955695   60.863944
  25.0958231   60.864064
  25.0967454   60.8645549
  25.0973446   60.8648926
  25.0976191   60.865033
  25.0978724   60.8651379
  25.098116    60.865114
  25.0983808   60.8646343
  25.0987785   60.8643064
  25.0993758   60.864178
  25.099647    60.8642024
  25.0999183   60.8643177
  25.1002251   60.8646514
  25.1006571   60.8652887
  25.1007857   60.8657937
  25.1020223   60.8657718
  25.1028658   60.8652859
  25.1030054   60.8650915
  25.1034835   60.8650706
  25.1040624   60.8650838
  25.1045886   60.865114
  25.1054089   60.865234
  25.1058129   60.8653277
  25.1062624   60.8653734
  25.1065741   60.8653904
  25.1068663   60.8653516
  25.1081891   60.865129
  25.1070931   60.870041
  25.10591     60.8759826
  25.1046855   60.8805567
  25.0976141   60.9009701
  25.0966695   60.9052946
  25.0937375   60.9187144
  25.0937874   60.9190016
  25.0918764   60.9193529
  25.0906498   60.9196107
  25.0843256   60.9207814
  25.0682384   60.9237593
  25.0462963   60.9277187
  25.0275949   60.9278382
  25.0075258   60.9279378
  25.0128421   60.9356654
  25.0189402   60.9445047
  25.0258841   60.9617504
  25.0282605   60.9622918
  25.0313257   60.9637983
  25.0402795   60.9676149
  25.0461942   60.9734211
  25.046484    60.9734154
  25.0469417   60.9731466
  25.0474165   60.9729876
  25.0475973   60.9726996
  25.0482529   60.9724967
  25.0494055   60.9723686
  25.0495585   60.9726914
  25.0485299   60.9727051
  25.048349    60.9729163
  25.0481455   60.9733852
  25.048089    60.9735799
  25.0479929   60.9737417
  25.0476708   60.973887
  25.0472271   60.9739103
  25.0470915   60.9739419
  25.0467603   60.9739419
  25.0593675   60.9859007
  25.0586799   60.9862404
  25.058533    60.9865529
  25.0581487   60.9867832
  25.0585443   60.9869696
  25.0585556   60.9872382
  25.0580356   60.9880989
  25.05764     60.9880605
  25.0573009   60.9882359
  25.0571621   60.9883938
  25.0567805   60.9883938
  25.056374    60.9885374
  25.0561323   60.988409
  25.0563288   60.9882414
  25.0560591   60.9881149
  25.0557506   60.9882163
  25.0555      60.9881216
  25.0550397   60.9882366
  25.0547836   60.9884166
  25.0542608   60.9882569
  25.0536952   60.9881701
  25.0535185   60.9884065
  25.0528285   60.9886194
  25.0527082   60.9887817
  25.0523311   60.9888252
  25.0523057   60.9890174
  25.0517725   60.9891163
  25.0514954   60.9893496
  25.0512498   60.98938
  25.050795    60.9892634
  25.05068     60.9894814
  25.050314    60.9893952
  25.0500893   60.9895777
  25.0501122   60.9897006
  25.0494025   60.9899552
  25.0495947   60.9900735
  25.0496908   60.9903173
  25.0490993   60.9909734
  25.0497277   60.9913928
  25.0496316   60.9916904
  25.0497499   60.9920561
  25.0495503   60.9921887
  25.0489959   60.9921027
  25.0488554   60.9922676
  25.0484931   60.9923608
  25.0483231   60.9930599
  25.0485765   60.9933001
  25.0489885   60.9933144
  25.049299    60.9934219
  25.0497277   60.9933717
  25.0499865   60.9934004
  25.0501787   60.9936263
  25.0500604   60.9941138
  25.0506297   60.9944472
  25.0509919   60.9951462
  25.051916    60.9953899
  25.0521156   60.9956229
  25.0531506   60.9960746
  25.0535182   60.9963308
  25.0546144   60.9966625
  25.0553537   60.9967126
  25.0562703   60.9975617
  25.0568766   60.9977557
  25.0580521   60.9980425
  25.0582221   60.9982002
  25.0576567   60.9989997
  25.0574026   60.9990543
  25.057296    60.998987
  25.0570033   60.9990175
  25.0565851   60.9991493
  25.0557644   60.9992582
  25.0554768   60.999352
  25.0550952   60.999281
  25.0547084   60.9993419
  25.0544209   60.9993165
  25.053757    60.9996384
  25.0530082   60.9995487
  25.0273952   60.9936577
  25.0273595   60.9939607
  25.027171    60.9940073
  25.0267497   60.9979135
  25.0277062   60.9978605
  25.0275342   60.9995261
  25.026544    60.9995101
  25.0261303   61.0042848
  25.0350799   61.009661
  25.0439257   61.010369
  25.0441149   61.0111253
  25.0445806   61.0111235
  25.0448468   61.0106488
  25.0445061   61.0103636
  25.0449738   61.0103805
  25.0457555   61.0110891
  25.0450871   61.0114424
  25.044166    61.0112522
  25.0447469   61.0137661
  25.044787    61.014233
  25.0456592   61.0140814
  25.0461766   61.014291
  25.044986    61.01461
  25.0460346   61.0186963
  25.0465216   61.0188749
  25.0468621   61.0188427
  25.0469738   61.0186811
  25.0465713   61.0181543
  25.0467651   61.0174965
  25.0470366   61.0172804
  25.047331    61.0172078
  25.0476377   61.0172399
  25.0478749   61.017408
  25.047573    61.0184862
  25.0476874   61.0187976
  25.0463012   61.0197917
  25.0414473   61.0187267
  25.0287077   61.0309476
  25.0312652   61.0317752
  25.0317013   61.0318683
  25.0396295   61.0343156
  25.0480084   61.0411528
  25.0496734   61.0425119
  25.0498102   61.0427105
  25.0538519   61.0465269
  25.0541893   61.0470818
  25.053939    61.0485876
  25.0569991   61.0500651
  25.152266    61.06299
  25.1701437   61.0739966
  25.1980789   61.0762466
  25.2065212   61.0917117
  25.2122087   61.1024405
  25.2122671   61.1023844
  25.2127349   61.1024071
  25.2129258   61.1024071
  25.2133649   61.1024652
  25.2139922   61.1026017
  25.2144103   61.1027361
  25.2142117   61.1027886
  25.2132551   61.10268
  25.2123828   61.1027241
  25.2127003   61.1033465
  25.2256466   61.1110652
  25.2399681   61.1145633
  25.2438447   61.1198459
  25.2444396   61.1200944
  25.2449851   61.1206064
  25.2446994   61.1207235
  25.2444544   61.1206854
  25.2467965   61.1239332
  25.2470181   61.1241525
  25.2550727   61.1257002
  25.2573442   61.1271933
  25.2589022   61.1284614
  25.2461946   61.1312554
  25.236453    61.1399101
  25.2365229   61.1403159
  25.2364801   61.1405396
  25.2366091   61.1410873
  25.2367758   61.141255
  25.2375849   61.1416058
  25.2377991   61.1417074
  25.2380075   61.141917
  25.2382458   61.1425637
  25.238413    61.1428632
  25.2383516   61.1431534
  25.238141    61.1432593
  25.2378577   61.1433448
  25.2378397   61.1434151
  25.2381986   61.1435742
  25.2382667   61.1436581
  25.238239    61.1437227
  25.2381301   61.1437636
  25.2381715   61.1438486
  25.2381199   61.1439404
  25.2380952   61.144012
  25.2381708   61.1440669
  25.2382647   61.14409
  25.2385487   61.1440726
  25.2390393   61.1439375
  25.2392025   61.1439391
  25.2392708   61.1439917
  25.2391778   61.1441004
  25.2391618   61.1442144
  25.2393374   61.1444057
  25.2393112   61.1446743
  25.2393429   61.1447885
  25.2393882   61.1448801
  25.2393678   61.1449185
  25.2392912   61.1449632
  25.2396123   61.1449899
  25.2397768   61.1449604
  25.2402443   61.1448029
  25.2403679   61.1447418
  25.240679    61.1448939
  25.2410112   61.145016
  25.2414958   61.1453793
  25.2417949   61.1455024
  25.241858    61.1456965
  25.2418913   61.1458643
  25.2419667   61.1460167
  25.2421546   61.1462648
  25.2426106   61.1463004
  25.2429447   61.1464042
  25.243095    61.1464242
  25.2431774   61.146405
  25.2432999   61.146323
  25.2434978   61.1462853
  25.2436748   61.1462936
  25.2438083   61.1463365
  25.2438259   61.1463971
  25.2437537   61.1465475
  25.2438374   61.1466605
  25.244016    61.1468159
  25.2446566   61.1470923
  25.2456791   61.1472833
  25.2459826   61.1473744
  25.2463098   61.1474389
  25.2464426   61.1474858
  25.2466019   61.1475879
  25.2468199   61.1476689
  25.246973    61.1476727
  25.2470776   61.1476307
  25.2471042   61.147547
  25.2469946   61.1474392
  25.2469814   61.1473444
  25.2471231   61.1472795
  25.247319    61.1472691
  25.2474214   61.1473064
  25.2474608   61.1473584
  25.2474592   61.1474643
  25.247479    61.1475455
  25.2475487   61.1476129
  25.2476505   61.1476421
  25.2477438   61.1476394
  25.2478538   61.1476029
  25.2479387   61.1475542
  25.2479765   61.1474956
  25.24801     61.1473765
  25.2480711   61.1473148
  25.2481977   61.1473051
  25.2482687   61.1473281
  25.2483146   61.1473943
  25.2483704   61.1474748
  25.2483616   61.147541
  25.2483938   61.1476134
  25.2484688   61.1476451
  25.2486007   61.1476518
  25.2487225   61.1476008
  25.248954    61.1474782
  25.2491075   61.1474259
  25.2491856   61.1474332
  25.2492351   61.147485
  25.2492186   61.1475526
  25.2491924   61.1476258
  25.2492143   61.1476878
  25.2492592   61.1477018
  25.2493573   61.1476918
  25.2496182   61.147636
  25.2499554   61.147835
  25.2501896   61.1478952
  25.2503888   61.1479977
  25.2505782   61.1480599
  25.2508171   61.1480788
  25.251065    61.1480318
  25.2514117   61.147924
  25.2516695   61.1478971
  25.2520221   61.1478712
  25.2521542   61.1478996
  25.2522023   61.1479631
  25.2521073   61.1480657
  25.2520219   61.1481631
  25.2520978   61.1483117
  25.2521795   61.148386
  25.2524688   61.1484651
  25.2526221   61.1484653
  25.2528669   61.1483861
  25.2529876   61.1484292
  25.2531465   61.14857
  25.2533091   61.148705
  25.2536115   61.1487939
  25.253758    61.1489192
  25.258032    61.1597821
  25.2695249   61.1571421
  25.2696825   61.1572754
  25.2697379   61.1574806
  25.2693433   61.1575295
  25.2692214   61.157717
  25.2694382   61.1580801
  25.2693906   61.1582366
  25.2692794   61.1583238
  25.2689941   61.1583991
  25.2678441   61.1583855
  25.2677157   61.1585692
  25.2673075   61.1589208
  25.2659321   61.1596097
  25.2657032   61.1597743
  25.2651808   61.1599703
  25.2641807   61.1601374
  25.2637771   61.1603797
  25.2631458   61.1606342
  25.2617166   61.1607907
  25.2616383   61.1608466
  25.2618636   61.1611109
  25.2617745   61.1613334
  25.2616041   61.1614309
  25.2610467   61.1614481
  25.2609011   61.161536
  25.2608916   61.1617852
  25.2605416   61.1619418
  25.2598204   61.1624674
  25.2587133   61.1628486
  25.2582605   61.1630807
  25.2579581   61.1638533
  25.2579814   61.164261
  25.2576194   61.1649508
  25.2562641   61.16563
  25.2552521   61.1659978
  25.2548384   61.1661261
  25.2546669   61.1662723
  25.2548108   61.1664882
  25.2547661   61.1666498
  25.2544453   61.1668249
  25.2541545   61.1668763
  25.2542437   61.1671662
  25.2545086   61.1673068
  25.2554671   61.1677813
  25.2557835   61.1678613
  25.2559101   61.167964
  25.2560186   61.1684402
  25.2558433   61.1685965
  25.2545794   61.1695815
  25.2542667   61.1699459
  25.2544092   61.1702056
  25.2549649   61.1705264
  25.2560575   61.1708371
  25.2568805   61.171506
  25.2567278   61.171841
  25.2563271   61.1719368
  25.2558273   61.1717899
  25.2552061   61.1717113
  25.2544826   61.1718473
  25.2540646   61.1718359
  25.2525565   61.1727266
  25.2524343   61.1729534
  25.2526232   61.1732752
  25.2531774   61.1736248
  25.2533239   61.1738871
  25.2531044   61.1744532
  25.2525832   61.1746452
  25.2517942   61.1747349
  25.2511003   61.1747829
  25.2505781   61.175174
  25.2500672   61.1754203
  25.249646    61.176181
  25.2498587   61.1763719
  25.250472    61.1765268
  25.2521449   61.1772642
  25.2545321   61.1784723
  25.2548914   61.1787577
  25.2556638   61.1791759
  25.2567862   61.179422
  25.2590918   61.1819578
  25.259414    61.1823584
  25.2592624   61.182697
  25.2602333   61.1838501
  25.2598723   61.1850309
  25.2602015   61.185546
  25.2598156   61.1859593
  25.2592474   61.186209
  25.2587228   61.1864486
  25.2583505   61.1867813
  25.257317    61.1871303
  25.2570269   61.1873436
  25.2563055   61.1879149
  25.2557077   61.1881066
  25.2553273   61.1882993
  25.255082    61.1884652
  25.2545875   61.1885881
  25.2540483   61.1887798
  25.2536405   61.1889524
  25.2532033   61.1891292
  25.2530834   61.1892522
  25.2526241   61.1897883
  25.2526243   61.1901004
  25.2529894   61.1906415
  25.2529628   61.1909222
  25.2535632   61.1911908
  25.2537327   61.1913157
  25.25376     61.1914849
  25.2536737   61.1916032
  25.2533521   61.1923552
  25.2536729   61.1933967
  25.2544432   61.1935244
  25.254627    61.1937002
  25.2549411   61.193748
  25.2550333   61.1938543
  25.2549804   61.1939817
  25.2553956   61.194211
  25.2555148   61.1945972
  25.2557857   61.1946641
  25.2558801   61.1947329
  25.2559144   61.1948156
  25.2557389   61.1949181
  25.2555171   61.1949938
  25.2552957   61.1950148
  25.2550816   61.1950036
  25.2547364   61.1948036
  25.2545101   61.1947342
  25.2542299   61.194719
  25.2539127   61.1947742
  25.2537199   61.1948393
  25.2535533   61.1949345
  25.253062    61.1949456
  25.2527998   61.1949095
  25.2525062   61.1949884
  25.2523716   61.195012
  25.2520891   61.1950083
  25.2519171   61.1950695
  25.2518505   61.1950504
  25.2517585   61.1949921
  25.2516104   61.1949321
  25.2513474   61.1949524
  25.2512937   61.1949393
  25.2512692   61.1948924
  25.2512748   61.1948395
  25.2510482   61.1948843
  25.2508235   61.1948836
  25.2507765   61.1949117
  25.25077     61.1950117
  25.2502595   61.1950711
  25.2499459   61.1950325
  25.2498373   61.1949911
  25.2498277   61.1948922
  25.249737    61.1948625
  25.2495179   61.1948733
  25.2493487   61.1949182
  25.2492067   61.1949286
  25.2490887   61.1948906
  25.2489876   61.1948318
  25.2488153   61.1947988
  25.248635    61.1947904
  25.2485524   61.1948033
  25.2484561   61.194848
  25.2483975   61.1949296
  25.2484236   61.1950473
  25.2483213   61.1951475
  25.2483625   61.1952226
  25.2483412   61.1952685
  25.2482622   61.1952983
  25.2481949   61.1953074
  25.2480409   61.1952991
  25.2478958   61.1953009
  25.2477395   61.1953515
  25.2476009   61.1954099
  25.2475008   61.1954735
  25.2474357   61.1955459
  25.2471901   61.1956331
  25.2469365   61.195759
  25.2467918   61.1958226
  25.2464917   61.1959241
  25.2461432   61.1959967
  25.2459249   61.196066
  25.2456586   61.1961404
  25.2453419   61.196364
  25.2452578   61.1964317
  25.2450425   61.1964878
  25.245006    61.1964981
  25.2449924   61.1965514
  25.2449073   61.1966031
  25.2444063   61.1967238
  25.2442419   61.1967273
  25.2441931   61.1967383
  25.2440616   61.1968012
  25.2438047   61.1968044
  25.2435939   61.1967815
  25.2434837   61.196865
  25.2433804   61.1969151
  25.2431411   61.1969626
  25.2428965   61.1969609
  25.2427415   61.1969613
  25.2426425   61.1970031
  25.2424911   61.1969977
  25.2423646   61.1970045
  25.2421912   61.1971249
  25.2420602   61.1971515
  25.2419101   61.1971613
  25.2417732   61.1971703
  25.2415945   61.1972468
  25.2415032   61.1972492
  25.2413905   61.1971977
  25.2412377   61.1972128
  25.2410261   61.1973523
  25.2406036   61.1974844
  25.2402097   61.1976462
  25.2399498   61.1976344
  25.2397507   61.1976484
  25.2395896   61.1977288
  25.2392842   61.1977556
  25.2391575   61.1978356
  25.2391909   61.1979466
  25.2390617   61.1980172
  25.2387638   61.1980226
  25.2385362   61.1980527
  25.2383248   61.198174
  25.2378394   61.1985873
  25.2375764   61.1988399
  25.2373749   61.1988694
  25.2371851   61.1988675
  25.2371115   61.1989201
  25.2371594   61.1990004
  25.2372075   61.1990345
  25.2371985   61.1990869
  25.2371232   61.1991205
  25.2369402   61.1991336
  25.2367637   61.199161
  25.2367842   61.1992284
  25.2368255   61.1992864
  25.2367101   61.1993513
  25.2365428   61.199375
  25.2363695   61.1994119
  25.2361719   61.1995325
  25.2360926   61.1995471
  25.2358934   61.1995543
  25.2351413   61.1994656
  25.2350433   61.1994839
  25.2349701   61.1995903
  25.2349076   61.1996286
  25.2346479   61.1996823
  25.2346153   61.1997147
  25.2347822   61.1998211
  25.234809    61.1998814
  25.234664    61.1999855
  25.2348232   61.2002636
  25.2348305   61.2003444
  25.2347838   61.2004053
  25.2345423   61.200473
  25.23441     61.200531
  25.234418    61.2006228
  25.234485    61.2007025
  25.2345318   61.200808
  25.2344277   61.2009321
  25.2344848   61.2009799
  25.2346617   61.2010244
  25.2346643   61.2010869
  25.2344511   61.2011635
  25.2342993   61.2012069
  25.2343144   61.2012579
  25.2344951   61.201352
  25.2345432   61.2013857
  25.2345323   61.2014357
  25.2344583   61.2014501
  25.2343505   61.2014362
  25.2342355   61.2014141
  25.2341755   61.2014587
  25.2341917   61.2016138
  25.2343372   61.2017669
  25.2343743   61.2020193
  25.2343235   61.2022164
  25.234532    61.2027169
  25.2344645   61.2030648
  25.2343949   61.2031699
  25.2341158   61.2035913
  25.233748    61.2041856
  25.2334815   61.2047197
  25.2332753   61.2049582
  25.2331951   61.2051691
  25.2329851   61.2054776
  25.2328179   61.2061609
  25.2326706   61.2061857
  25.2322911   61.2062222
  25.231515    61.2066302
  25.2310195   61.2067889
  25.2302595   61.2072903
  25.229896    61.2076449
  25.2299021   61.2078782
  25.2294856   61.2080453
  25.2291397   61.2083827
  25.2287451   61.2085106
  25.2285672   61.2089412
  25.2275937   61.2092546
  25.2271815   61.2094552
  25.2265822   61.2096125
  25.2252375   61.2103667
  25.225079    61.2105321
  25.225002    61.210783
  25.2245075   61.2111998
  25.2236957   61.2120493
  25.2233827   61.21231
  25.2224542   61.2125802
  25.222079    61.2130575
  25.2203648   61.2139861
  25.2186833   61.2141163
  25.2180736   61.2141895
  25.2176032   61.2144733
  25.2174025   61.2146988
  25.2168676   61.2150429
  25.2165985   61.2152595
  25.2164552   61.2154031
  25.2160226   61.216048
  25.2159507   61.216238
  25.2145718   61.2171233
  25.2143501   61.2172154
  25.2141286   61.2172834
  25.2136552   61.2173303
  25.2131889   61.2174524
  25.2130983   61.2175891
  25.2131613   61.2178633
  25.2131504   61.218005
  25.2130219   61.2180651
  25.2127639   61.2182168
  25.2122686   61.2183828
  25.2119289   61.2184525
  25.2115003   61.2185334
  25.2112705   61.2186858
  25.2110666   61.2187932
  25.2108571   61.2188323
  25.2105897   61.2188815
  25.2100307   61.2190482
  25.2098949   61.219035
  25.2097317   61.2190257
  25.2088892   61.2191721
  25.2088664   61.2191477
  25.2012098   61.2216616
  25.1997477   61.222087
  25.2028265   61.2409384
  25.1868901   61.2399816
  25.1314716   61.2510438
  25.1233575   61.252205
  25.116181    61.253232
  25.0968445   61.255999
  25.0861444   61.2544459
  25.0688481   61.2519351
  25.0672112   61.2516947
  25.0435173   61.2482145
  25.0432169   61.2481732
  25.0293976   61.2461552
  25.0232127   61.258458
  25.0210066   61.2639005
  25.0189754   61.267992
  25.0159501   61.2744045
  25.0141961   61.278519
  25.01235     61.283267
  25.0146332   61.2900306
  25.0127059   61.2909924
  24.995821    61.2805464
  24.9940306   61.2793933
  24.9939391   61.2797815
  24.9938175   61.2803389
  24.9934507   61.2804886
  24.9935237   61.2805937
  24.9934977   61.2806281
  24.9930849   61.2805961
  24.9925638   61.2807053
  24.992248    61.2807212
  24.9920661   61.2805863
  24.9918789   61.2805119
  24.9910995   61.280392
  24.9905821   61.2800663
  24.9903343   61.2797651
  24.9895604   61.2794653
  24.9893191   61.2794136
  24.98858     61.2793088
  24.9882415   61.2793166
  24.9875543   61.2791783
  24.9873553   61.2791051
  24.9871865   61.2791269
  24.9863438   61.2790634
  24.9861922   61.2789906
  24.9859399   61.2785686
  24.9858057   61.2785212
  24.9857102   61.2784961
  24.9856206   61.2784437
  24.985498    61.2783946
  24.985352    61.2783849
  24.9853938   61.2783251
  24.9853679   61.2783088
  24.9853332   61.2783143
  24.9853149   61.2783448
  24.9852397   61.2783844
  24.9848457   61.2783884
  24.9847584   61.2784013
  24.9845848   61.2783836
  24.9844264   61.2783018
  24.9839641   61.2781745
  24.9837504   61.2781715
  24.9832698   61.2783036
  24.9832839   61.2785017
  24.9831857   61.2786856
  24.9832494   61.2788079
  24.9837811   61.2788419
  24.9839791   61.2788286
  24.9841019   61.2787724
  24.9842174   61.2787639
  24.9843068   61.2788045
  24.9842883   61.2788371
  24.9842058   61.2788784
  24.9841974   61.278957
  24.9842837   61.2790077
  24.9844909   61.2790461
  24.984215    61.2791019
  24.9840279   61.279103
  24.9833075   61.2793855
  24.9830684   61.2794246
  24.9816003   61.2802118
  24.9810981   61.2804211
  24.9802018   61.280559
  24.9799159   61.2805008
  24.9796437   61.2802826
  24.9786528   61.2800988
  24.9779763   61.2800877
  24.9776011   61.2801597
  24.9773571   61.2803013
  24.9770164   61.2803501
  24.9774132   61.2800408
  24.9769274   61.2800804
  24.9764147   61.2800434
  24.9762642   61.2799527
  24.9763909   61.2796703
  24.9764252   61.2795347
  24.9762411   61.2793611
  24.9757422   61.27928
  24.9750401   61.2793922
  24.9747006   61.2794557
  24.9744402   61.2795358
  24.9739829   61.2796413
  24.974421    61.279323
  24.9749193   61.2791713
  24.9754996   61.2790334
  24.9758015   61.2788603
  24.9759282   61.2785702
  24.9759007   61.2783783
  24.9747784   61.2777476
  24.9747606   61.2774038
  24.9746119   61.2773406
  24.9741608   61.277386
  24.9732034   61.2777165
  24.9723587   61.2780648
  24.9717152   61.2782589
  24.9714886   61.2782916
  24.9712462   61.278245
  24.9711893   61.2781471
  24.9712364   61.2780194
  24.9717565   61.2779616
  24.97204     61.2778826
  24.972185    61.2777166
  24.9722356   61.2772729
  24.9721327   61.2771488
  24.9719317   61.2771069
  24.9714816   61.2774201
  24.9712869   61.2774663
  24.9707734   61.2773856
  24.9704533   61.2774239
  24.9701966   61.2775594
  24.9697573   61.2780802
  24.9684489   61.2787914
  24.9675217   61.2792048
  24.9672483   61.2793687
  24.967207    61.2793511
  24.9667949   61.2794154
  24.9665336   61.2792668
  24.9663227   61.2793376
  24.966092    61.2794706
  24.9660369   61.279648
  24.9664511   61.2797163
  24.9664292   61.2799392
  24.9663239   61.2800989
  24.9661648   61.2802426
  24.9661436   61.2803038
  24.9661983   61.2804131
  24.9662426   61.2804567
  24.9663385   61.2804681
  24.9666311   61.2804575
  24.9668188   61.2804086
  24.9671108   61.280451
  24.9672659   61.2804485
  24.9674637   61.2805133
  24.9676223   61.2806272
  24.9676681   61.2808009
  24.9676236   61.2808667
  24.9676475   61.2810939
  24.9677784   61.2811543
  24.9674873   61.2812154
  24.9673443   61.2812644
  24.9671188   61.2813943
  24.9667095   61.2815277
  24.9663458   61.2816008
  24.9658157   61.2817614
  24.9656071   61.2818582
  24.9651919   61.2819659
  24.9647191   61.2822346
  24.9642981   61.2824446
  24.9635589   61.2828779
  24.9632253   61.2829739
  24.9629032   61.2830542
  24.9625301   61.2830681
  24.9621772   61.2832135
  24.9617817   61.2832088
  24.9615731   61.2832599
  24.9610747   61.2835131
  24.9606274   61.2838062
  24.9599574   61.2843337
  24.9597816   61.2845114
  24.9596852   61.2846471
  24.9596183   61.2846967
  24.9595476   61.2848276
  24.9588339   61.2854094
  24.9582743   61.2865432
  24.9582844   61.2867515
  24.9581605   61.2868612
  24.9576474   61.2869956
  24.9573107   61.2869737
  24.9570097   61.2866388
  24.9567331   61.2865979
  24.9564924   61.2866282
  24.955357    61.2869103
  24.9550267   61.2870491
  24.9543856   61.287199
  24.9540642   61.2873661
  24.9536749   61.2878621
  24.9535127   61.2885459
  24.9538237   61.2891836
  24.9541992   61.2896127
  24.9544155   61.2897921
  24.9548588   61.2899953
  24.9550608   61.2900463
  24.9552181   61.29006
  24.95583     61.2900652
  24.9562019   61.2901029
  24.9564009   61.2902964
  24.9563394   61.2904652
  24.9560629   61.290584
  24.9558921   61.2906128
  24.9550887   61.290533
  24.9549937   61.2904772
  24.9547489   61.2902628
  24.9542584   61.2901429
  24.9540608   61.2901611
  24.9539323   61.2901534
  24.9535562   61.2900415
  24.953293    61.2899391
  24.9532633   61.2899506
  24.9531625   61.2899125
  24.9530494   61.2898189
  24.9530514   61.2894775
  24.9529872   61.2893625
  24.952826    61.2892731
  24.9526041   61.2892243
  24.9523544   61.2892265
  24.95217     61.2892606
  24.9520467   61.2892994
  24.9513438   61.2897031
  24.9508263   61.2898513
  24.9506335   61.2898239
  24.9501055   61.2898925
  24.9498428   61.290014
  24.9496065   61.2902005
  24.9494438   61.2903115
  24.9494014   61.2906526
  24.9490851   61.291793
  24.9490699   61.2918886
  24.948737    61.2919896
  24.9482826   61.291968
  24.9481306   61.2919321
  24.9468435   61.292124
  24.9464928   61.2921028
  24.9460104   61.2921419
  24.9457283   61.2920564
  24.9441747   61.2926593
  24.9434262   61.292824
  24.9430346   61.2930142
  24.9428895   61.2933132
  24.9428245   61.2933667
  24.9423511   61.2934374
  24.9415838   61.2942187
  24.9412485   61.2946568
  24.9412362   61.2947717
  24.9411101   61.2948232
  24.9411945   61.2949094
  24.9410326   61.2950311
  24.9407552   61.2951014
  24.9405168   61.2953601
  24.9401376   61.2954716
  24.9396193   61.2955596
  24.9391868   61.2954959
  24.9389945   61.295423
  24.9385922   61.2953607
  24.938445    61.2953251
  24.9384186   61.2952504
  24.9385129   61.2952464
  24.9386318   61.2949325
  24.9386785   61.2948676
  24.9386822   61.2948275
  24.9387174   61.2948031
  24.9387758   61.2948024
  24.9387586   61.294748
  24.9387014   61.2947543
  24.938535    61.2947346
  24.9385102   61.2947085
  24.9384998   61.2946702
  24.9384685   61.2946659
  24.938399    61.2948252
  24.9383154   61.2948144
  24.9382719   61.2947914
  24.9380337   61.2948276
  24.9378975   61.2948227
  24.9377746   61.2947987
  24.9377552   61.2949257
  24.9371861   61.2950092
  24.9365792   61.2950691
  24.936213    61.2950762
  24.9356919   61.2949244
  24.9354425   61.2949136
  24.9353006   61.2948734
  24.9352591   61.294807
  24.9352756   61.2946687
  24.9351698   61.2945378
  24.9347637   61.2944003
  24.9345959   61.2943388
  24.9345743   61.2942281
  24.9345281   61.2940692
  24.9347058   61.2939232
  24.9346484   61.2937279
  24.9347147   61.293641
  24.9350769   61.2933872
  24.9353688   61.2931853
  24.9353878   61.2931337
  24.9353211   61.2930707
  24.9351376   61.2930403
  24.9349869   61.2929108
  24.9350013   61.2928026
  24.9350858   61.29269
  24.9350534   61.2926463
  24.9349234   61.2926141
  24.9347449   61.2926417
  24.934621    61.292732
  24.9344774   61.2927467
  24.9341303   61.2926562
  24.9338785   61.2924551
  24.9339064   61.2922539
  24.9338884   61.2920318
  24.9336841   61.2918545
  24.9335467   61.2918083
  24.9330737   61.2919181
  24.9326299   61.2923672
  24.9323271   61.2925011
  24.9320819   61.2925926
  24.9317288   61.2926318
  24.9315381   61.2926115
  24.9311457   61.2925158
  24.9310581   61.292498
  24.9305512   61.292498
  24.9303309   61.2925589
  24.9300443   61.2927228
  24.9298289   61.2927754
  24.9294262   61.2927542
  24.9289595   61.2926779
  24.9287027   61.292595
  24.9285331   61.2925276
  24.9280568   61.2922067
  24.9279267   61.2921007
  24.9277958   61.2920545
  24.9276606   61.2920347
  24.9274758   61.2920612
  24.9272444   61.292119
  24.9268774   61.292138
  24.9266077   61.2920875
  24.9263785   61.291862
  24.9262925   61.2915939
  24.9263499   61.2912089
  24.9262874   61.2911118
  24.9259764   61.2910149
  24.9256159   61.2909643
  24.9255445   61.2909087
  24.9255111   61.2907814
  24.9256438   61.290702
  24.9262521   61.2904684
  24.9264391   61.2903045
  24.9264602   61.2901055
  24.9264002   61.2899944
  24.9262307   61.2899887
  24.9261129   61.2900948
  24.9259788   61.2902144
  24.9253909   61.2902727
  24.925223    61.2903391
  24.9250281   61.2904798
  24.9243121   61.2903914
  24.9237225   61.2904021
  24.9234186   61.290333
  24.9226164   61.2896441
  24.9223168   61.2895219
  24.9221991   61.2894241
  24.9223295   61.2892985
  24.9226898   61.2892399
  24.9228578   61.2892262
  24.9230011   61.2891951
  24.9231743   61.2891052
  24.9232897   61.2889939
  24.9234942   61.2889106
  24.9239809   61.2889136
  24.924272    61.2888831
  24.9245342   61.2887961
  24.9248545   61.2886086
  24.9252552   61.2885453
  24.9253833   61.2883801
  24.9253375   61.2883248
  24.925553    61.2878188
  24.9258767   61.2876366
  24.9258126   61.2876096
  24.9258438   61.2875726
  24.9258436   61.2875399
  24.9258109   61.2873693
  24.9255632   61.2869987
  24.9255543   61.2868998
  24.9254897   61.2868702
  24.925386    61.2868694
  24.9245101   61.2870186
  24.924381    61.2870183
  24.9242422   61.2869174
  24.9240488   61.2869117
  24.9238388   61.2869871
  24.9236143   61.2870963
  24.9234833   61.2871433
  24.9233278   61.2870967
  24.9232986   61.2870212
  24.9234745   61.2869478
  24.923406    61.2868705
  24.9232309   61.2868736
  24.9231247   61.2869162
  24.9230451   61.2869359
  24.9228922   61.2869386
  24.9226737   61.2868739
  24.9225982   61.2867632
  24.922446    61.286686
  24.9222848   61.2866558
  24.9221445   61.2866761
  24.921722    61.2867861
  24.9215687   61.286944
  24.9215496   61.2871051
  24.9215341   61.2871471
  24.9214814   61.2871706
  24.9213333   61.2871794
  24.9210142   61.2870958
  24.9207468   61.2869564
  24.9209349   61.3142961
  24.9199908   61.3142961
  24.9190467   61.3141622
  24.9180811   61.3143167
  24.9163215   61.3143785
  24.9159782   61.3142858
  24.9154203   61.3144403
  24.915673    61.314779
  24.9161713   61.3149759
  24.9161713   61.3154703
  24.9155705   61.3156557
  24.9145406   61.3156557
  24.9150126   61.3162839
  24.9160641   61.3161912
  24.9164932   61.3174374
  24.9170726   61.3181274
  24.9179309   61.3183643
  24.9180301   61.3185548
  24.9182099   61.3186449
  24.9139138   61.32485
  24.9045678   61.3176526
  24.8943754   61.3097938
  24.8915913   61.3076242
  24.8788583   61.2977585
  24.8854876   61.2922272
  24.8913123   61.2874362
  24.890733    61.2873022
  24.8853042   61.2861373
  24.8735239   61.2836011
  24.8730089   61.2837042
  24.8728158   61.283364
  24.8723437   61.2833434
  24.8470531   61.2779972
  24.8445936   61.2775033
  24.8453285   61.2759812
  24.840831    61.2742502
  24.8346212   61.2754243
  24.8257591   61.2759193
  24.8202659   61.2746303
  24.8137241   61.2730791
  24.81061     61.2723407
  24.8095318   61.272595
  24.8078849   61.2727636
  24.8005807   61.2717606
  24.7705485   61.2677096
  24.7637626   61.2764207
  24.7606104   61.2802968
  24.7597087   61.2814786
  24.7566033   61.2856481
  24.7417685   61.3046119
  24.7317531   61.3174427
  24.7295644   61.3139821
  24.7199299   61.2986212
  24.7187927   61.2887991
  24.7181918   61.2837271
  24.7166469   61.2830775
  24.7169655   61.2794059
  24.7083428   61.2723894
  24.7040073   61.2726407
  24.7025707   61.2723739
  24.6905973   61.278118
  24.6877005   61.2799741
  24.6705558   61.278747
  24.6693937   61.2778882
  24.6691772   61.2776684
  24.6687963   61.2775509
  24.6663877   61.2766888
  24.6658294   61.2768019
  24.6540849   61.2791806
  24.6428688   61.281481
  24.6407672   61.2819269
  24.6419045   61.2823806
  24.6380689   61.2831703
  24.6375271   61.2825455
  24.6370121   61.2826796
  24.6308656   61.283975
  24.6257897   61.2849786
  24.6147605   61.2872157
  24.6029588   61.2896227
  24.5948451   61.291273
  24.5932009   61.2899639
  24.5896175   61.2883764
  24.5871928   61.2926438
  24.5846608   61.2930664
  24.5848324   61.2932313
  24.5850148   61.2936178
  24.5851392   61.293819
  24.5854666   61.2940371
  24.5854292   61.2941951
  24.5853635   61.2944722
  24.5852133   61.2946165
  24.5849773   61.2947401
  24.5849665   61.2948329
  24.5852562   61.2950081
  24.5852616   61.2951019
  24.5851543   61.2951998
  24.5850631   61.2953224
  24.5850577   61.2955244
  24.5849612   61.2957512
  24.5847305   61.295982
  24.5845052   61.2960748
  24.5842477   61.2962087
  24.5840868   61.296353
  24.5841082   61.2964509
  24.5840438   61.2964973
  24.5840331   61.296621
  24.5841994   61.2967147
  24.5842692   61.2968013
  24.5842228   61.2968522
  24.5841297   61.2969198
  24.5840438   61.2969971
  24.5839687   61.2972032
  24.5837059   61.2972661
  24.5834752   61.2972651
  24.5832177   61.2973784
  24.5831641   61.2975124
  24.5830407   61.297668
  24.5827725   61.297838
  24.5824849   61.2980578
  24.5822146   61.2983069
  24.5819088   61.2982647
  24.5815639   61.298269
  24.5816835   61.2983574
  24.5817532   61.2984666
  24.5812329   61.298749
  24.5812222   61.2988675
  24.5810934   61.2990015
  24.5808574   61.2991148
  24.5808467   61.2991869
  24.5803853   61.299393
  24.5803317   61.2997073
  24.5801654   61.3000742
  24.579468    61.3002906
  24.573712    61.3039422
  24.5689752   61.3026914
  24.5674732   61.302372
  24.5676609   61.3020773
  24.5671888   61.302067
  24.5668884   61.3021288
  24.5663735   61.3021082
  24.5647051   61.3016507
  24.5654776   61.3011973
  24.5647641   61.3009336
  24.5636108   61.3013931
  24.5618158   61.3009511
  24.5626666   61.3003009
  24.5622536   61.300068
  24.561803    61.3003565
  24.5607355   61.3004245
  24.5603921   61.3006203
  24.555473    61.2994085
  24.5556017   61.2991818
  24.5544859   61.2988933
  24.5541909   61.2990746
  24.5517608   61.2985017
  24.552088    61.2981781
  24.5518681   61.2978112
  24.5509668   61.2983368
  24.5380665   61.2951818
  24.5289727   61.2929777
  24.5202931   61.2908034
  24.505203    61.2857993
  24.493117    61.2818547
  24.485698    61.2789842
  24.4848128   61.2791069
  24.4838794   61.2790656
  24.4838312   61.2787522
  24.483402    61.2782469
  24.4835307   61.2781077
  24.4746419   61.2746572
  24.4705489   61.2727761
  24.4687723   61.2719665
  24.4676521   61.271456
  24.4658657   61.270274
  24.4566014   61.2675158
  24.4476696   61.2697273
  24.4365814   61.2657003
  24.4303318   61.2634143
  24.4260242   61.2571474
  24.4205042   61.2534366
  24.4188305   61.2529103
  24.4185301   61.2530445
  24.4179722   61.2532302
  24.4202177   61.2550036
  24.4185086   61.2570793
  24.4125488   61.256941
  24.4104171   61.2561582
  24.4031074   61.2534738
  24.3993952   61.2468891
  24.3864133   61.2496656
  24.3641148   61.2436315
  24.3610053   61.24279
  24.3593768   61.2425224
  24.3505981   61.2410801
  24.3332326   61.2382268
  24.3130174   61.2348999
  24.3028326   61.2332747
  24.3001774   61.2341669
  24.2967397   61.2353136
  24.2957527   61.235596
  24.2909839   61.2372281
  24.2900326   61.2375537
  24.289488    61.2377401
  24.2825508   61.2401141
  24.2798203   61.2377217
  24.2770432   61.2352883
  24.2762283   61.2345742
  24.2757711   61.2346048
  24.274957    61.2346594
  24.2747068   61.2344702
  24.2724415   61.2327571
  24.2718482   61.2323085
  24.2699588   61.2307477
  24.2697131   61.2305447
  24.2693323   61.2303715
  24.2692644   61.2302663
  24.2687986   61.2300021
  24.2734978   61.2286595
  24.2730965   61.2282701
  24.2721675   61.2273685
  24.2721235   61.2272151
  24.2718885   61.2271412
  24.2718642   61.2271167
  24.2702464   61.2254886
  24.2700002   61.2252408
  24.2684542   61.2254592
  24.2664876   61.2256916
  24.2646551   61.224166
  24.2635388   61.2231516
  24.2628898   61.2225615
  24.2619504   61.2217075
  24.2618662   61.2216323
  24.2617652   61.2215422
  24.2613993   61.2212155
  24.2613307   61.2211541
  24.2610495   61.220903
  24.2609368   61.2208024
  24.2608402   61.2207162
  24.2604719   61.2203873
  24.2596576   61.2200655
  24.2598926   61.2198294
  24.2595933   61.2195489
  24.2580258   61.2182694
  24.2594645   61.2163049
  24.2616317   61.2134325
  24.2655156   61.2082139
  24.2697749   61.2059764
  24.2699788   61.2059402
  24.270195    61.2059629
  24.2703543   61.2060022
  24.2705903   61.2059506
  24.2707191   61.205842
  24.2710597   61.2057262
  24.2711924   61.2055905
  24.2712233   61.2054545
  24.2712222   61.205332
  24.2710838   61.2053046
  24.2716224   61.2050028
  24.2963503   61.191912
  24.2971442   61.1914881
  24.2816399   61.1815719
  24.2815219   61.1817064
  24.2811464   61.1817736
  24.2807495   61.1819132
  24.2806207   61.1820011
  24.2801808   61.1820942
  24.2798708   61.1821082
  24.2796444   61.1820477
  24.2795049   61.1820684
  24.2792807   61.182072
  24.2792592   61.1818134
  24.2791412   61.1817824
  24.2790661   61.1817307
  24.2789481   61.181591
  24.2788397   61.1814581
  24.2786477   61.1814462
  24.2785511   61.18141
  24.2787657   61.1810997
  24.278712    61.1806498
  24.2786895   61.1805427
  24.2785082   61.1805153
  24.2783355   61.1804548
  24.2780994   61.1804444
  24.2777035   61.1804894
  24.2774031   61.180386
  24.2772315   61.1802515
  24.2771778   61.1801378
  24.2770598   61.1800136
  24.2770695   61.1798755
  24.2772958   61.1797395
  24.2775415   61.1796014
  24.277607    61.1795119
  24.2775523   61.1792808
  24.2774986   61.1791153
  24.2776166   61.1790222
  24.2778355   61.1788824
  24.2775844   61.1787118
  24.2675004   61.1721927
  24.2355118   61.1514239
  24.2318909   61.1499866
  24.2067607   61.1475073
  24.1823665   61.1450785
  24.1389362   61.1432145
  24.1343228   61.1382744
  24.1345771   61.137845
  24.1341423   61.1367929
  24.1340868   61.1366585
  24.1342961   61.1362355
  24.1345654   61.1356913
  24.1348096   61.1351977
  24.1352423   61.1343232
  24.1353356   61.1333649
  24.1353528   61.1331884
  24.1365443   61.1323804
  24.1372625   61.1318934
  24.1387431   61.1316552
  24.1408889   61.1291584
  24.1441687   61.1290087
  24.143335    61.1276561
  24.1435464   61.1274235
  24.1446407   61.1256309
  24.142495    61.1248538
  24.1419371   61.1231544
  24.128502    61.1254226
  24.1257663   61.1258845
  24.112025    61.1282042
  24.1110809   61.1282731
  24.1104494   61.128204
  24.1098908   61.1281436
  24.0881137   61.1256859
  24.0873091   61.1256045
  24.0637485   61.1229207
  24.0652474   61.1222528
  24.0653793   61.1218741
  24.0663202   61.121258
  24.0660842   61.12103
  24.0632765   61.1195009
  24.0624162   61.1192013
  24.0615169   61.1188998
  24.0608523   61.1190277
  24.0560259   61.119961
  24.0525262   61.1206305
  24.0524618   61.1207859
  24.0521828   61.1210347
  24.0520756   61.1212316
  24.0520112   61.1215114
  24.0518762   61.1216181
  24.0517752   61.1216979
  24.0513031   61.1218637
  24.0506775   61.1221054
  24.0501229   61.1223197
  24.0497367   61.1225062
  24.0495436   61.1227031
  24.0492217   61.123159
  24.048299    61.1235839
  24.048041    61.1237202
  24.0479327   61.1237774
  24.0476124   61.1239466
  24.046429    61.1244704
  24.0415398   61.1226098
  24.0379246   61.1244498
  24.0377252   61.1245513
  24.0371625   61.1248377
  24.0359228   61.1245487
  24.0357139   61.1245
  24.0347127   61.1242666
  24.0305482   61.1232957
  24.0284836   61.1228143
  24.027004    61.1224693
  24.0268619   61.122437
  24.024481    61.1218948
  24.0238276   61.1207586
  24.02373     61.120589
  24.0263017   61.1195584
  24.025779    61.119423
  24.0203939   61.1180281
  24.0192405   61.1177293
  24.0159452   61.1168757
  24.0150871   61.1166534
  24.0139245   61.1163523
  24.0118177   61.1158065
  24.0080412   61.114827
  24.0059998   61.1142975
  23.9943941   61.1112871
  23.9938572   61.1111476
  23.9916105   61.1105636
  23.9805539   61.1076897
  23.9709139   61.1052079
  23.9706652   61.1051439
  23.9691043   61.1047366
  23.965593    61.1038202
  23.9649896   61.1036628
  23.962075    61.1029021
  23.9585824   61.1019907
  23.9582649   61.1019078
  23.955191    61.1011056
  23.9549151   61.1010365
  23.9540006   61.1008074
  23.9516563   61.1002202
  23.9503662   61.099897
  23.9492255   61.0995989
  23.9461774   61.0988024
  23.9409431   61.0974345
  23.9346456   61.0958295
  23.9303102   61.094711
  23.9246741   61.0932744
  23.9235521   61.0929884
  23.9239094   61.0928756
  23.9242849   61.0928134
  23.9246497   61.0928134
  23.9248536   61.0928549
  23.9250145   61.0929275
  23.9251862   61.0929223
  23.9252682   61.0928243
  23.9251862   61.0926993
  23.9250681   61.0925281
  23.9251647   61.092414
  23.9253364   61.092357
  23.9255724   61.092274
  23.9257655   61.0920977
  23.9260015   61.0920147
  23.9260874   61.0918799
  23.9260659   61.0917398
  23.9260981   61.0915635
  23.9262376   61.0912471
  23.92642     61.0912108
  23.9267096   61.0912264
  23.9269741   61.0911854
  23.9271281   61.0910033
  23.9271603   61.090827
  23.927289    61.0906714
  23.9274499   61.0906351
  23.9276967   61.090661
  23.9279756   61.0907751
  23.9282761   61.0907907
  23.9283796   61.0906875
  23.9282761   61.0905417
  23.9284906   61.0903913
  23.9287159   61.0903343
  23.9288232   61.0902305
  23.9288125   61.0901061
  23.9286371   61.0899925
  23.9286408   61.089883
  23.9287589   61.0898364
  23.928952    61.0898675
  23.9290877   61.0897228
  23.9290163   61.08966
  23.9288125   61.08966
  23.9287031   61.0896029
  23.9279215   61.0894837
  23.9273984   61.0894852
  23.9272992   61.0894318
  23.926119    61.0897845
  23.9263953   61.0901774
  23.9251749   61.090263
  23.9248171   61.0899925
  23.9237801   61.0901994
  23.9205186   61.0905314
  23.9199821   61.0918176
  23.9128764   61.0901429
  23.9129837   61.0898421
  23.9132197   61.0894271
  23.9098756   61.0881766
  23.908263    61.0891781
  23.9068254   61.0886387
  23.9065464   61.0883275
  23.9065625   61.0880282
  23.9077405   61.0872201
  23.906378    61.0870043
  23.9046367   61.0866469
  23.9036829   61.0864383
  23.887457    61.0831414
  23.8644035   61.0784396
  23.8621752   61.0779877
  23.8604961   61.0776717
  23.8472181   61.0748909
  23.8449801   61.0744286
  23.8436171   61.0749889
  23.840902    61.0760868
  23.8253334   61.082377
  23.8092402   61.0800527
  23.8079098   61.0798348
  23.8061717   61.0795753
  23.8045366   61.0793631
  23.8030775   61.0787509
  23.7997301   61.0773707
  23.7918487   61.0745531
  23.7899468   61.0739577
  23.78832     61.0734166
  23.7867522   61.073948
  23.7865108   61.0739143
  23.7856418   61.0740829
  23.7854661   61.0738396
  23.7841773   61.0739532
  23.7842591   61.0740627
  23.784231    61.0741971
  23.7840164   61.0741504
  23.7836988   61.0737977
  23.7838713   61.0736888
  23.7839475   61.0735085
  23.7841017   61.0734046
  23.7843463   61.0732999
  23.7850617   61.0732028
  23.7853497   61.0731325
  23.7857606   61.0729924
  23.7859146   61.0729053
  23.7860881   61.0727456
  23.7862357   61.0727116
  23.7863191   61.0727005
  23.7864907   61.0727109
  23.7866171   61.0726888
  23.7863041   61.0723987
  23.7724799   61.0653741
  23.7567971   61.0573542
  23.7568899   61.0573061
  23.7975457   61.0518675
  23.8036998   61.0510008
  23.7956574   61.0438798
  23.8047083   61.0359996
  23.8014907   61.0332355
  23.7988646   61.0310682
  23.7986723   61.0309123
  23.7966617   61.0289885
  23.7926716   61.025191
  23.811804    61.0278746
  23.8230589   61.0294468
  23.8252261   61.0297898
  23.8284662   61.0302159
  23.8322642   61.0308811
  23.8573472   61.0356614
  23.8655837   61.0372881
  23.8682445   61.0306685
  23.8721744   61.0268068
  23.872389    61.0266509
  23.8740198   61.0248735
  23.8742987   61.0246864
  23.8746635   61.0245928
  23.8749425   61.0245305
  23.8751356   61.0243433
  23.8753716   61.0240731
  23.8757976   61.023663
  23.876187    61.0233766
  23.8768093   61.0231271
  23.877453    61.0229088
  23.8778822   61.0228361
  23.8780935   61.0226235
  23.878204    61.0224098
  23.8783542   61.0221292
  23.8785227   61.0219997
  23.8783939   61.0218438
  23.8782008   61.0215631
  23.8778607   61.0213703
  23.8774283   61.0212512
  23.8770882   61.0211
  23.876981    61.0209544
  23.8771065   61.0208042
  23.8771312   61.0206633
  23.8768737   61.0205698
  23.8765303   61.0203826
  23.8761838   61.0200453
  23.875715    61.0195405
  23.8753931   61.0193222
  23.8750895   61.0192344
  23.8749607   61.0190784
  23.8749822   61.0188913
  23.8749425   61.0187504
  23.8746206   61.0186152
  23.8742129   61.0185944
  23.8735906   61.0186048
  23.8729684   61.0184905
  23.8723246   61.0183033
  23.8718097   61.0183449
  23.87127     61.0182363
  23.8708655   61.0180122
  23.8700684   61.0177788
  23.869621    61.0177003
  23.869106    61.0177835
  23.868827    61.0177003
  23.8684161   61.0176644
  23.8682691   61.0175028
  23.8684408   61.0173884
  23.8688914   61.0173884
  23.8691489   61.0172636
  23.8692315   61.0170302
  23.8690845   61.0168997
  23.8687809   61.0168223
  23.8683979   61.0168165
  23.8682445   61.0167079
  23.8679226   61.0165519
  23.867472    61.0163544
  23.8670031   61.0161407
  23.866721    61.0160632
  23.8664849   61.0158657
  23.8662704   61.0156785
  23.8652007   61.014945
  23.8623704   61.0155007
  23.861788    61.0151992
  23.8608062   61.0146907
  23.8580767   61.0134476
  23.8581411   61.0132812
  23.8580306   61.0132142
  23.8577978   61.0130213
  23.8577978   61.0128237
  23.8580553   61.0125637
  23.855416    61.0118046
  23.8548152   61.0129589
  23.8546618   61.013079
  23.8540427   61.0128965
  23.853635    61.0128861
  23.8530986   61.0130317
  23.8526694   61.0130421
  23.8521941   61.0129854
  23.8518326   61.0130109
  23.8513787   61.0129334
  23.8504603   61.0127717
  23.8495977   61.0125798
  23.8490613   61.0124031
  23.8484004   61.0122726
  23.8480142   61.0122622
  23.8477781   61.012231
  23.8476022   61.0120807
  23.8474563   61.0117942
  23.8472417   61.0117318
  23.8471087   61.0115815
  23.8470014   61.0114048
  23.8467482   61.0112535
  23.846319    61.0110455
  23.8460615   61.0108791
  23.846083    61.0107231
  23.8457354   61.0104376
  23.8456753   61.0102239
  23.8458856   61.0100944
  23.8459757   61.0097871
  23.8461431   61.0095641
  23.8459113   61.0093711
  23.846083    61.0091111
  23.8459113   61.0088304
  23.8458469   61.0085495
  23.8457182   61.0081855
  23.8447955   61.0080711
  23.8443878   61.0079671
  23.8440188   61.0078689
  23.8438943   61.0076967
  23.8433793   61.0075407
  23.8430574   61.0073535
  23.8428214   61.0074055
  23.8425425   61.0074159
  23.8421562   61.0072495
  23.841839    61.0071732
  23.8416198   61.0072079
  23.8411863   61.0071616
  23.8407186   61.0070207
  23.8404182   61.0070103
  23.8399246   61.0070415
  23.8394311   61.0069583
  23.8389977   61.0069432
  23.8385513   61.0068959
  23.8380578   61.0067295
  23.8376501   61.0068543
  23.8374141   61.0069375
  23.8364699   61.0072287
  23.8358219   61.0073384
  23.8358863   61.0075152
  23.8357404   61.0079047
  23.835955    61.0080087
  23.8358262   61.0082063
  23.835912    61.0082895
  23.836191    61.0082583
  23.8362983   61.0084143
  23.8364485   61.0081855
  23.8367274   61.0082271
  23.8367489   61.0083831
  23.8365343   61.0085495
  23.8361266   61.0085703
  23.836191    61.0087368
  23.8366201   61.0087264
  23.8370064   61.0087784
  23.8370064   61.0090071
  23.8366631   61.0092879
  23.8365987   61.0095687
  23.8359764   61.0097663
  23.8359979   61.0099535
  23.8357189   61.0100783
  23.8354185   61.0100783
  23.8349207   61.0101256
  23.8344958   61.0102135
  23.8344272   61.0025955
  23.8198456   61.0011282
  23.8153771   61.0006653
  23.8154803   61.0006056
  23.8165358   61.0000515
  23.831127    60.9921132
  23.8452676   60.9844642
  23.8525278   60.9804897
  23.8565811   60.9715401
  23.8648817   60.9535988
  23.8569255   60.9492333
  23.8562096   60.9488405
  23.8393352   60.9397267
  23.8296031   60.9504644
  23.8255701   60.9549672
  23.8188485   60.9623975
  23.8122009   60.9697443
  23.8072871   60.9752001
  23.7973119   60.9863718
  23.7949071   60.9890562
  23.7850366   60.9888377
  23.7839852   60.9913664
  23.7806807   60.9919803
  23.7786841   60.9924148
  23.7796507   60.9931665
  23.7767733   60.9957141
  23.7758742   60.9959238
  23.7677997   60.995942
  23.7665401   60.9970786
  23.7532782   60.9948807
  23.7549304   60.9941628
  23.754866    60.9934553
  23.7546944   60.9930287
  23.7534284   60.9921962
  23.7492881   60.9938221
  23.7457476   60.9932602
  23.7454901   60.9936764
  23.7399315   60.9927685
  23.738688    60.9925214
  23.7358545   60.9921442
  23.7368641   60.998067
  23.7375937   61.0037156
  23.7123166   61.0090304
  23.6966954   61.0060351
  23.694806    61.0058349
  23.6949348   61.0055956
  23.6951923   61.0053876
  23.6949358   61.0047453
  23.687961    61.0052732
  23.6871885   61.0051172
  23.6851072   61.0029641
  23.6792707   61.0041498
  23.6756673   61.0043312
  23.6753439   61.0043475
  23.6757945   61.0059493
  23.6645732   61.005723
  23.6607538   61.0018016
  23.6517619   61.0031201
  23.650359    61.0016505
  23.6499532   61.0012253
  23.6498951   61.0011645
  23.6497402   61.001199
  23.6479434   61.0015989
  23.6443805   61.0023919
  23.639618    61.0034451
  23.6383949   61.0022281
  23.6306701   61.0039652
  23.6272573   61.0003635
  23.620777    61.0017678
  23.6185251   61.0025194
  23.6146187   60.9981892
  23.6081181   60.991356
  23.6058854   60.9919049
  23.6053275   60.9904377
  23.6030745   60.990677
  23.6000919   60.9900631
  23.5987411   60.9890667
  23.598554    60.9890955
  23.5951126   60.9898604
  23.5903592   60.9866497
  23.5868267   60.9842616
  23.5863482   60.9841261
  23.5860371   60.9840792
  23.5857377   60.9840764
  23.5854792   60.9841157
  23.584696    60.9843706
  23.5844278   60.9844331
  23.5837636   60.9846176
  23.5833881   60.9847945
  23.582679    60.9851669
  23.5819183   60.9856167
  23.5812209   60.9860695
  23.5810844   60.9862054
  23.579471    60.9878366
  23.57267     60.9905756
  23.5756516   60.9934969
  23.5829268   60.9903882
  23.5875541   60.995736
  23.5821758   60.9968289
  23.5815964   60.9969122
  23.5783134   60.9975676
  23.5726475   60.9986574
  23.5701799   60.9995416
  23.5663175   61.0010604
  23.5660814   60.9999994
  23.5660332   60.9991463
  23.5658883   60.9989279
  23.5649656   60.995994
  23.5643015   60.9961839
  23.5546874   60.9992608
  23.5479293   60.9965584
  23.5413193   60.9994896
  23.5410182   60.9985977
  23.5403537   60.9966287
  23.5441957   60.9950914
  23.5433938   60.994624
  23.5380373   60.9915017
  23.5367499   60.9908149
  23.535677    60.9901385
  23.5341953   60.989293
  23.5309563   60.9873599
  23.5260843   60.9888668
  23.5262131   60.9923627
  23.521472    60.992896
  23.5203991   60.9912519
  23.5162363   60.9924382
  23.5163855   60.9922795
  23.516389    60.9921426
  23.5161709   60.9918425
  23.5107861   60.9935411
  23.5101628   60.9933928
  23.5093699   60.9931665
  23.5066018   60.9929688
  23.4996066   60.9907525
  23.4926114   60.9904923
  23.4910665   60.9906068
  23.4908938   60.990625
  23.4884487   60.9905027
  23.4865389   60.9904715
  23.4790717   60.9901177
  23.4789215   60.9902322
  23.4785771   60.9902816
  23.4743295   60.9877346
  23.4707675   60.9866835
  23.4706173   60.9867563
  23.4702086   60.9867959
  23.469758    60.9869
  23.4693503   60.9873579
  23.4691153   60.987464
  23.4674416   60.9878179
  23.4678496   60.9846422
  23.4678834   60.9844488
  23.4680572   60.9843513
  23.4682539   60.9842042
  23.4683587   60.9841257
  23.4686604   60.9837267
  23.4663685   60.9829547
  23.4590729   60.9837249
  23.4587285   60.9838691
  23.4542663   60.9832462
  23.4531066   60.9816
  23.4634921   60.9784772
  23.4638998   60.9773113
  23.4635146   60.9767403
  23.4617755   60.9770718
  23.4614321   60.9766867
  23.4604032   60.9769485
  23.4589827   60.9772681
  23.4577854   60.9760532
  23.4639856   60.9746253
  23.4614547   60.9692646
  23.4660241   60.9682218
  23.4655102   60.96712
  23.4715172   60.9657746
  23.4721395   60.9655996
  23.4752511   60.964881
  23.473917    60.9635451
  23.4740173   60.9635063
  23.4744894   60.9635844
  23.4749078   60.9635896
  23.4753369   60.9635531
  23.4758305   60.9635115
  23.4761738   60.9635427
  23.4767424   60.9636
  23.4772467   60.9635948
  23.4777831   60.9635323
  23.4782015   60.9634688
  23.4786307   60.9633969
  23.4794783   60.9632355
  23.479886    60.9631053
  23.4800254   60.9629959
  23.4796998   60.9629564
  23.4794783   60.9629543
  23.479371    60.9630428
  23.4789595   60.9631907
  23.4783517   60.9633188
  23.4776292   60.9634617
  23.4771356   60.9635136
  23.4765278   60.9634906
  23.4760772   60.9634438
  23.475787    60.9634375
  23.4752688   60.9634563
  23.4747898   60.9635063
  23.4744963   60.9635083
  23.474146    60.9634542
  23.4740602   60.9634073
  23.4740709   60.9632146
  23.4743392   60.9630011
  23.4743392   60.9628553
  23.4740388   60.9627095
  23.4738027   60.9626262
  23.4738242   60.962496
  23.4734878   60.9625293
  23.4731161   60.9626002
  23.4728441   60.9627324
  23.4727368   60.9628782
  23.4708737   60.962897
  23.4708416   60.9628189
  23.4706806   60.962746
  23.4703373   60.9626262
  23.4700798   60.9626106
  23.4698937   60.9626647
  23.4697864   60.9627793
  23.4699189   60.9630063
  23.4691426   60.9631022
  23.4686529   60.9631001
  23.468331    60.9631365
  23.4679947   60.9632219
  23.4676229   60.9633709
  23.4665715   60.9636885
  23.4648012   60.964152
  23.4643823   60.9642988
  23.4639284   60.9646646
  23.4638104   60.9648011
  23.4639107   60.9651205
  23.4641038   60.9652872
  23.4643935   60.9653705
  23.4647583   60.9653705
  23.4651553   60.9653809
  23.4653661   60.9655131
  23.4653661   60.9656641
  23.4652052   60.9657631
  23.4648618   60.9658568
  23.4642219   60.9659172
  23.4635459   60.9659276
  23.4629773   60.9658599
  23.462355    60.9657298
  23.4619044   60.9655892
  23.4615681   60.9655704
  23.4612714   60.9656019
  23.4605633   60.9658808
  23.4600768   60.9661276
  23.4596728   60.9663963
  23.4592475   60.9666149
  23.4588038   60.9667607
  23.4582851   60.966867
  23.4574482   60.9669815
  23.4569048   60.9670523
  23.4562251   60.9672366
  23.4553491   60.967547
  23.4540509   60.9680624
  23.4534179   60.9683488
  23.4531138   60.9685487
  23.4528026   60.9688299
  23.4525274   60.9690933
  23.4521734   60.9693224
  23.4517979   60.9694213
  23.4513043   60.9694994
  23.4507963   60.9696057
  23.4500775   60.9697618
  23.4496054   60.9698816
  23.4491012   60.9699441
  23.4485326   60.9699805
  23.4480927   60.9700222
  23.4477708   60.9701107
  23.4471523   60.9704053
  23.4463798   60.9707333
  23.445661    60.9709676
  23.4449706   60.9711363
  23.4442517   60.9712873
  23.4437904   60.9713393
  23.4429643   60.9713393
  23.442099    60.9713373
  23.4418056   60.9713237
  23.441355    60.9714018
  23.4400246   60.9716413
  23.4390627   60.9718214
  23.438662    60.9718808
  23.438426    60.971886
  23.4381615   60.9718631
  23.4379899   60.9717902
  23.4378182   60.9716184
  23.4377002   60.9713945
  23.4376787   60.971155
  23.4375822   60.9708531
  23.4374963   60.9705719
  23.4373139   60.9703325
  23.4372067   60.9701398
  23.437035    60.969942
  23.4368419   60.9698639
  23.4363054   60.9697962
  23.4357261   60.9696765
  23.4352717   60.9695119
  23.4350502   60.9693693
  23.4348533   60.9691511
  23.4345352   60.9690881
  23.4340808   60.9691058
  23.4335589   60.9691298
  23.4331152   60.9691839
  23.4327327   60.9692443
  23.4323964   60.9693349
  23.4318278   60.9694599
  23.431574    60.9695515
  23.431302    60.9696785
  23.4309373   60.9698712
  23.4303509   60.9700982
  23.4298      60.9702148
  23.4283731   60.9704022
  23.4274397   60.9705011
  23.4270212   60.9705792
  23.4265814   60.9707771
  23.4262917   60.9708343
  23.4257161   60.9708218
  23.4254049   60.9708739
  23.4251153   60.9709676
  23.4249114   60.9710665
  23.4242639   60.9710947
  23.4237742   60.9710926
  23.4231299   60.971077
  23.4227222   60.9710665
  23.4224508   60.9709957
  23.4222576   60.9708395
  23.4221214   60.9706709
  23.4219143   60.970548
  23.4214347   60.970421
  23.4208983   60.9702335
  23.4201977   60.9699961
  23.4195325   60.9696942
  23.4189317   60.9695171
  23.4179876   60.9693714
  23.4176153   60.9692339
  23.4174865   60.9690777
  23.4175509   60.9688382
  23.4178159   60.9686841
  23.4179586   60.968505
  23.4178803   60.9682363
  23.4177011   60.9679843
  23.4175369   60.9676219
  23.4172719   60.9672033
  23.4170359   60.9669742
  23.4166282   60.966818
  23.4161347   60.9667451
  23.4156272   60.966716
  23.4151905   60.9667555
  23.4147399   60.9668701
  23.4142968   60.9670075
  23.413975    60.9672575
  23.4137175   60.9674345
  23.4132454   60.9676844
  23.4128806   60.9678823
  23.4127873   60.9680885
  23.4128087   60.9682551
  23.4126392   60.9684389
  23.4122905   60.9684633
  23.4117809   60.9684045
  23.4112284   60.9682197
  23.4107563   60.9685003
  23.4056698   60.9718339
  23.4039113   60.9729636
  23.4001519   60.9754378
  23.3998773   60.9756185
  23.3947414   60.979031
  23.392646    60.9819269
  23.3903501   60.9852991
  23.3856433   60.9921862
  23.3790558   61.001737
  23.3786986   61.0024568
  23.3745712   61.005492
  23.3624476   61.0145188
  23.3575982   61.0136766
  23.3469766   61.0118776
  23.3430713   61.0111393
  23.3397883   61.0105569
  23.3387015   61.0104134
  23.3359903   61.0100057
  23.3312267   61.0106505
  23.3283513   61.0110665
  23.3276003   61.0094545
  23.3257121   61.0096417
  23.3263772   61.0113473
  23.3245963   61.0116384
  23.3238882   61.0114824
  23.3213132   61.0117632
  23.3205408   61.0119088
  23.3204195   61.0117133
  23.3193391   61.0120128
  23.3185098   61.0125244
  23.3174079   61.0126783
  23.3150208   61.0130953
  23.3141464   61.0131983
  23.310284    61.0137806
  23.3101982   61.0134582
  23.3088463   61.013583
  23.3065182   61.0139948
  23.3045623   61.0143961
  23.3042758   61.0146228
  23.2929676   61.0162761
  23.2731633   61.019128
  23.2687623   61.0208907
  23.2681808   61.0198682
  23.2600044   61.0185395
  23.2602093   61.0184616
  23.2605236   61.0183763
  23.2609743   61.0181788
  23.2614678   61.0179084
  23.2617682   61.0175653
  23.2620686   61.0173262
  23.2625053   61.0171723
  23.2629484   61.0171391
  23.2635063   61.0171807
  23.2638281   61.0171391
  23.2644719   61.0169207
  23.2648012   61.0168708
  23.2650083   61.0168687
  23.2655662   61.0169623
  23.2658741   61.016954
  23.2659954   61.0168271
  23.2661026   61.0165984
  23.2661026   61.0162449
  23.2662958   61.0155898
  23.266446    61.0153923
  23.2664674   61.0150803
  23.266918    61.014498
  23.2671326   61.0141445
  23.2670682   61.0138741
  23.266947    61.0135955
  23.2672184   61.0133334
  23.2677763   61.0130319
  23.268184    61.0127719
  23.2682699   61.0125639
  23.2682055   61.0119816
  23.2678622   61.0118776
  23.2674545   61.01168
  23.2671187   61.0109022
  23.2669449   61.0109022
  23.266211    61.0065165
  23.2546915   61.0066278
  23.2134026   61.0069273
  23.1954093   61.0012194
  23.2131835   60.9883837
  23.254967    60.96361
  23.293419    60.954611
  23.2926039   60.9438274
  23.290672    60.918253
  23.252563    60.919421
  23.2635056   60.8959916
  23.2636222   60.8957417
  23.2656616   60.8913732
  23.266665    60.8891121
  23.2661979   60.8891273
  23.261323    60.8892986
  23.2596093   60.8893607
  23.2572099   60.8894457
  23.2528399   60.8896056
  23.2466351   60.8898071
  23.225319    60.8904928
  23.2210225   60.8906152
  23.2141997   60.8907823
  23.205247    60.8910158
  23.1997542   60.8911919
  23.195535    60.8913263
  23.191893    60.8914514
  23.1890524   60.891567
  23.1842467   60.891755
  23.1808459   60.8918814
  23.1809903   60.8918129
  23.179674    60.8918267
  23.1769795   60.8919185
  23.1645787   60.8922849
  23.161535    60.8923305
  23.1552436   60.8924298
  23.1462589   60.8905653
  23.1447512   60.8895682
  23.1379971   60.8850921
  23.1356415   60.8835182
  23.1365411   60.8823703
  23.1364989   60.8819184
  23.1366848   60.881694
  23.1367818   60.881118
  23.1371174   60.8802829
  23.1375066   60.8792718
  23.137208    60.8790248
  23.1367095   60.8789908
  23.1366289   60.878377
  23.1365392   60.8776602
  23.1365063   60.8770251
  23.1365055   60.8767156
  23.1364785   60.8760038
  23.1364555   60.8754879
  23.1363499   60.8754918
  23.1363887   60.8751125
  23.1366346   60.8746521
  23.1368774   60.8738148
  23.1367832   60.8730105
  23.1371539   60.8726639
  23.1377588   60.8720838
  23.137805    60.8700831
  23.1369975   60.8694467
  23.1365148   60.8682695
  23.1366873   60.862934
  23.1433538   60.8604289
  23.1368136   60.8599021
  23.1370336   60.8556824
  23.1388338   60.8557992
  23.1393703   60.8547659
  23.1370944   60.853321
  23.1371218   60.8501186
  23.1408179   60.849549
  23.1423063   60.848191
  23.140832    60.8460247
  23.1387246   60.8456885
  23.1384799   60.8448064
  23.1382094   60.8437453
  23.1379665   60.8427919
  23.1374514   60.8407703
  23.1378952   60.840633
END
END
