polygon
1
  8.2288824    46.9731461
  8.2279002    46.9736649
  8.2277243    46.9738169
  8.2272831    46.9740349
  8.2269183    46.9743514
  8.2262796    46.9745624
  8.2261565    46.9746894
  8.2259741    46.974731
  8.2258712    46.9748453
  8.2254521    46.974966
  8.2251397    46.9749332
  8.2248705    46.9750135
  8.2244975    46.9752448
  8.2240676    46.9753786
  8.2230621    46.9757273
  8.2223476    46.976491
  8.2220754    46.9768859
  8.2219256    46.9772167
  8.2215685    46.9774474
  8.2211095    46.9775548
  8.2209293    46.9776551
  8.2206753    46.9778341
  8.2205693    46.9779283
  8.2205145    46.9783576
  8.2203727    46.9785606
  8.2200984    46.9786694
  8.2198095    46.9787419
  8.2196394    46.9788427
  8.2191143    46.9791819
  8.218624     46.979809
  8.2186261    46.979998
  8.2185348    46.9802135
  8.2183522    46.9804654
  8.2182539    46.9807423
  8.2183222    46.9808159
  8.2183089    46.9809551
  8.2182035    46.9810065
  8.2181411    46.9810711
  8.2181022    46.981094
  8.2186358    46.9815139
  8.2190224    46.9816391
  8.2192051    46.9817161
  8.2192795    46.9819166
  8.2200656    46.9826162
  8.2203101    46.9827451
  8.2206002    46.9828359
  8.2207775    46.9829365
  8.2209986    46.9831446
  8.2210677    46.9833811
  8.2210597    46.9834885
  8.2210844    46.983556
  8.2212092    46.9837498
  8.2212636    46.9840601
  8.2212932    46.9841576
  8.2214207    46.984392
  8.2216376    46.9845321
  8.2218568    46.98477
  8.2220883    46.9849829
  8.2223297    46.9852139
  8.2224692    46.9853
  8.2227578    46.9854236
  8.2228239    46.9855352
  8.2228566    46.9857086
  8.2229759    46.9858967
  8.2231281    46.9860118
  8.2232697    46.9861371
  8.2234525    46.9862551
  8.2235047    46.9864575
  8.2234962    46.9866445
  8.2235414    46.9867251
  8.2236683    46.9868878
  8.2238205    46.987264
  8.2239238    46.9873916
  8.2240841    46.987521
  8.2242491    46.987614
  8.2244504    46.9877437
  8.2247647    46.9878848
  8.2248128    46.9879703
  8.2247774    46.9882368
  8.2247515    46.9883894
  8.2248546    46.9885169
  8.224988     46.9885985
  8.2252829    46.9887177
  8.2256503    46.9890497
  8.2257152    46.989123
  8.2260247    46.9894175
  8.2265523    46.9897429
  8.2267109    46.990016
  8.2267355    46.9902041
  8.2268231    46.9904015
  8.2269364    46.9905375
  8.2270592    46.9906646
  8.2272575    46.9910775
  8.2275511    46.9913839
  8.2277125    46.9915192
  8.2277882    46.9916258
  8.2279797    46.9919293
  8.2280121    46.992014
  8.228057     46.992268
  8.2280552    46.9923744
  8.2280698    46.9926152
  8.2310739    46.9925606
  8.233691     46.9920163
  8.2354758    46.9910915
  8.2377176    46.9918312
  8.2387058    46.9907809
  8.2393151    46.9903506
  8.2395283    46.9894881
  8.2401367    46.9887884
  8.2407983    46.9883085
  8.2412966    46.9879591
  8.2420933    46.9871392
  8.2439722    46.986015
  8.2483764    46.9874321
  8.2483133    46.9882122
  8.2503679    46.9901142
  8.2534126    46.9917496
  8.2539202    46.9924157
  8.2545989    46.9928037
  8.2547683    46.9937202
  8.2552603    46.9941405
  8.2559725    46.9944452
  8.2584395    46.9953882
  8.2600444    46.9962706
  8.2626808    46.9971836
  8.2641884    46.9977329
  8.2654995    46.9981816
  8.2668336    46.997951
  8.2679068    46.9982007
  8.2699714    46.9980938
  8.271388     46.9975229
  8.2730553    46.99766
  8.2738082    46.9974386
  8.2779972    46.9979781
  8.2789866    46.9973246
  8.2792931    46.9968905
  8.2796483    46.9966914
  8.2799643    46.9962692
  8.2805461    46.9961603
  8.2810419    46.9959447
  8.2813478    46.9957093
  8.2833681    46.9951717
  8.2837441    46.9950554
  8.2841519    46.9950204
  8.2846458    46.9948944
  8.2852807    46.9948775
  8.2859269    46.9947769
  8.2865933    46.9946889
  8.2874956    46.9946966
  8.2888649    46.9945924
  8.2892073    46.9950684
  8.2899393    46.9954072
  8.2905439    46.9958203
  8.2909533    46.9959818
  8.2912832    46.9959064
  8.2917786    46.9958363
  8.2925018    46.9958784
  8.2931486    46.996038
  8.2939823    46.9962086
  8.2937984    46.9969497
  8.29405      46.9973845
  8.2943931    46.9976085
  8.2946595    46.9979187
  8.2946477    46.9980683
  8.2947916    46.9981458
  8.2949255    46.9981488
  8.2950589    46.9981785
  8.2952265    46.9981779
  8.2954803    46.9982336
  8.2956039    46.9982382
  8.2956952    46.998223
  8.2957781    46.9981592
  8.2959653    46.9981196
  8.2961287    46.9980564
  8.296273     46.9978742
  8.2964653    46.9978113
  8.2966322    46.9978565
  8.2969613    46.997797
  8.297176     46.9978805
  8.2974336    46.9979324
  8.2979017    46.9980874
  8.2981134    46.9981841
  8.2982419    46.9982704
  8.2984079    46.9982444
  8.2985827    46.9983061
  8.2988299    46.9982254
  8.2989754    46.9982522
  8.2990777    46.998196
  8.2992291    46.9981658
  8.299352     46.9982224
  8.2996602    46.9981531
  8.2999831    46.9982775
  8.3001311    46.998135
  8.3004497    46.9980541
  8.3005131    46.9981136
  8.3020037    46.9982405
  8.3023211    46.9982769
  8.303208     46.9983989
  8.3037724    46.998318
  8.3040217    46.9982496
  8.304337     46.9982311
  8.3046946    46.9981701
  8.305151     46.9981076
  8.3052633    46.9978672
  8.3057554    46.9978784
  8.3059793    46.9979682
  8.3064073    46.9979956
  8.3070086    46.998176
  8.3074193    46.9981288
  8.3077308    46.9981211
  8.3081165    46.9981593
  8.3088348    46.99807
  8.3092127    46.9981257
  8.3095908    46.9980799
  8.310135     46.9982583
  8.3103065    46.9981839
  8.3103798    46.998171
  8.3105886    46.9980878
  8.3106669    46.9980619
  8.3109424    46.9981494
  8.3116299    46.9980317
  8.311628     46.9980932
  8.3116427    46.9982288
  8.3120387    46.9982883
  8.3121919    46.9983039
  8.3125781    46.9984003
  8.3188525    46.9995655
  8.3344546    46.9890098
  8.368514     47.0199538
  8.3837987    47.0177149
  8.3847047    47.0029194
  8.3841941    47.0021686
  8.3836111    47.0018666
  8.3826992    47.0013773
  8.3828327    47.000545
  8.384058     46.9995541
  8.3845158    46.9991839
  8.3846364    46.9990862
  8.3847298    46.9990107
  8.3849478    46.9988344
  8.3850525    46.9987498
  8.3854016    46.9984673
  8.3855857    46.9983185
  8.3860931    46.9984923
  8.3862539    46.9984759
  8.3865588    46.9985495
  8.3871979    46.9987139
  8.3879211    46.9987924
  8.3882777    46.9988784
  8.3886231    46.9989902
  8.3888473    46.9990128
  8.3891307    46.9991434
  8.3903792    46.99958
  8.3906714    46.999624
  8.39106      46.9996914
  8.3914039    46.999698
  8.3918512    46.9997302
  8.3926584    46.999917
  8.3931262    46.9999964
  8.39342      47.0000524
  8.3937668    47.0000642
  8.3939989    47.0000841
  8.39427      47.0000756
  8.3943578    47.000117
  8.3945065    47.0001964
  8.3948072    47.0002933
  8.394929     47.0003504
  8.395138     47.0004327
  8.3953943    47.0006051
  8.3955236    47.0006676
  8.3957446    47.0007189
  8.3961292    47.0008082
  8.3963526    47.0008716
  8.3964393    47.000835
  8.3965932    47.00077
  8.3966154    47.0007607
  8.3966631    47.0007406
  8.3967459    47.0007057
  8.396944     47.0007028
  8.3970158    47.0007018
  8.3972573    47.0006983
  8.3974673    47.0006586
  8.3979664    47.0003855
  8.3980449    47.000374
  8.398169     47.0003557
  8.3983645    47.0003268
  8.3985465    47.0002585
  8.3986446    47.0002217
  8.3990452    47.0000051
  8.3992242    46.9999084
  8.3999757    46.9998376
  8.4000358    46.9998341
  8.4001427    46.9998278
  8.4002897    46.9998191
  8.4004242    46.9998424
  8.4006936    46.9998891
  8.4008199    46.9998898
  8.4011199    46.9998914
  8.4011965    46.9998918
  8.4012488    46.999892
  8.4016497    46.9998
  8.4017348    46.9997805
  8.4020226    46.9998104
  8.402157     46.9998498
  8.4022779    46.9998853
  8.4026194    46.9999583
  8.4030778    46.9999851
  8.4031854    46.9999345
  8.4033617    46.9998516
  8.4034741    46.9998424
  8.4036075    46.9998315
  8.4036615    46.9998271
  8.4037916    46.9998164
  8.4039453    46.9997284
  8.4041935    46.99975
  8.4044613    46.9997733
  8.4053621    47.0000685
  8.4056042    47.0001939
  8.4057733    47.0001367
  8.4059423    47.0000796
  8.4060111    47.0000563
  8.4061395    47.0000128
  8.4062778    46.999966
  8.4063638    46.9999369
  8.4064373    46.9999121
  8.406697     46.9998057
  8.4070845    46.999863
  8.4072644    46.9998896
  8.4073565    46.9998746
  8.407423     46.9998639
  8.407578     46.9998387
  8.4076623    46.9998043
  8.4076809    46.9997967
  8.4077396    46.9997728
  8.4077821    46.9997554
  8.4078037    46.9997466
  8.4078343    46.9997341
  8.4078528    46.9997266
  8.4078684    46.9997202
  8.4079052    46.9997052
  8.4079412    46.9996905
  8.407958     46.9996836
  8.4080469    46.9996473
  8.4081724    46.9995962
  8.408227     46.9995739
  8.4085241    46.9995318
  8.4087424    46.9995009
  8.408924     46.999482
  8.4090241    46.9994694
  8.409194     46.9994484
  8.4092359    46.9994431
  8.4094534    46.9993562
  8.4095924    46.99931
  8.4096578    46.9992883
  8.409775     46.9992493
  8.4100469    46.9993545
  8.4101538    46.9994119
  8.4103007    46.9994508
  8.4105357    46.9992489
  8.4106884    46.9991695
  8.4111821    46.9990276
  8.4113848    46.998975
  8.4114246    46.9989372
  8.4115471    46.9988207
  8.4116899    46.9988324
  8.4120962    46.9987711
  8.4122316    46.9987561
  8.4125922    46.9986162
  8.4128288    46.9985152
  8.4129891    46.9984468
  8.4132113    46.9983519
  8.413416     46.9982874
  8.4137676    46.998229
  8.4143014    46.9981903
  8.4143906    46.9981929
  8.414465     46.998195
  8.4146221    46.9981995
  8.4149424    46.9982855
  8.4153518    46.9983426
  8.4156292    46.9983813
  8.4169319    46.9984137
  8.4173938    46.9983789
  8.4190726    46.9982718
  8.4196894    46.9983297
  8.4201328    46.9982564
  8.4213262    46.998171
  8.4217647    46.9982439
  8.4223286    46.9981928
  8.4224136    46.9980047
  8.4227197    46.9980092
  8.423081     46.9980146
  8.4236371    46.9980781
  8.4240455    46.9981174
  8.4245185    46.9981517
  8.4246758    46.998097
  8.4251741    46.9981432
  8.4260132    46.9981409
  8.4263788    46.998339
  8.4269665    46.9986352
  8.4274402    46.9987991
  8.427417     46.9988632
  8.4271242    46.9991529
  8.4267384    46.9994432
  8.4267839    46.999636
  8.4269483    46.9999135
  8.4269805    47.0003348
  8.4269681    47.0004107
  8.4269128    47.0007481
  8.4269459    47.0013844
  8.4269795    47.0017029
  8.4267693    47.0022487
  8.4279853    47.0172075
  8.4584755    47.0113326
  8.4690692    47.0092892
  8.4681671    46.9965235
  8.4652268    46.9842716
  8.4966213    46.9764297
  8.5193712    46.9798139
  8.542698     46.9795913
  8.5615419    46.986614
  8.5710491    46.9901552
  8.5742681    46.983826
  8.5745324    46.9835102
  8.5745825    46.9834791
  8.5745929    46.9834274
  8.574646     46.9833831
  8.5747069    46.9833396
  8.5747906    46.9833386
  8.5748563    46.9832993
  8.5748894    46.9833021
  8.5749146    46.9833217
  8.5749545    46.9831289
  8.574945     46.9830595
  8.5748295    46.9829523
  8.5747219    46.9828739
  8.5747271    46.9828078
  8.5745697    46.982571
  8.5744965    46.9825187
  8.5745057    46.9824367
  8.5745374    46.9823667
  8.5745346    46.9823507
  8.5744123    46.9822735
  8.5743098    46.9821638
  8.5742169    46.9821038
  8.5741603    46.9820365
  8.5741542    46.9820217
  8.5741334    46.9819962
  8.574098     46.9819112
  8.5740562    46.9817823
  8.5740106    46.9817484
  8.5739496    46.9817196
  8.5739238    46.9816879
  8.5739018    46.9816114
  8.5738557    46.9815532
  8.5737605    46.9814972
  8.5737052    46.9814499
  8.5736709    46.9813864
  8.5735959    46.9813466
  8.5735555    46.9812753
  8.5734836    46.9812327
  8.573457     46.9811917
  8.5734005    46.9811608
  8.573365     46.9811189
  8.573289     46.9810521
  8.5732725    46.9810119
  8.5732552    46.980887
  8.5731708    46.9808295
  8.5730883    46.9806921
  8.5729787    46.9805269
  8.5729236    46.9804201
  8.5728871    46.9803972
  8.5728523    46.9803452
  8.5727355    46.9802077
  8.5727376    46.9800644
  8.5726122    46.9799632
  8.5724669    46.9798859
  8.5722691    46.9798183
  8.5718944    46.9797197
  8.5718119    46.9796655
  8.5717401    46.9795838
  8.5716985    46.9795828
  8.5716523    46.9794731
  8.5715662    46.9793884
  8.5715603    46.9793647
  8.5715185    46.9793223
  8.5714252    46.9791996
  8.5712856    46.9790664
  8.5712186    46.9789745
  8.5711575    46.9789193
  8.571128     46.9788744
  8.5710462    46.9788287
  8.5709792    46.978758
  8.5709111    46.9785888
  8.5708425    46.9784997
  8.5707327    46.9784402
  8.5706436    46.9783627
  8.5705296    46.9782923
  8.5703879    46.9780991
  8.5703357    46.9780104
  8.5702637    46.9779073
  8.5702094    46.9778011
  8.5701465    46.97766
  8.5700954    46.9776171
  8.5699986    46.9775675
  8.5699869    46.9775116
  8.569946     46.9774887
  8.5699008    46.9773416
  8.5698388    46.9772204
  8.5697872    46.9771992
  8.5697526    46.9771318
  8.5697457    46.9771133
  8.5697516    46.9770541
  8.5697423    46.9770132
  8.5696367    46.9769041
  8.5694494    46.9766174
  8.5693382    46.9765174
  8.5691513    46.976328
  8.5691       46.9762943
  8.5690647    46.9762548
  8.5690421    46.9762214
  8.5689994    46.9761375
  8.5688894    46.9760854
  8.5687279    46.9759488
  8.5686589    46.975841
  8.568652     46.9758406
  8.5686206    46.9757175
  8.5685161    46.9755726
  8.5684903    46.9755504
  8.5678963    46.97534
  8.5674577    46.9750659
  8.5670602    46.9746314
  8.5659455    46.9743464
  8.5634595    46.9733851
  8.5622175    46.9729221
  8.5623873    46.9726314
  8.5626099    46.9716472
  8.5630599    46.9702177
  8.5629171    46.9699243
  8.5627262    46.9696428
  8.562278     46.9691264
  8.5621774    46.9687151
  8.5618772    46.968459
  8.5616837    46.9681977
  8.5614928    46.9680882
  8.5612457    46.9676489
  8.5609814    46.9671142
  8.5606856    46.9666395
  8.5602429    46.9655824
  8.5597877    46.9654905
  8.5593694    46.9653932
  8.5591476    46.9653153
  8.5587951    46.9646387
  8.5584832    46.9641626
  8.5581216    46.963942
  8.5574944    46.963803
  8.5569636    46.9636256
  8.556435     46.9634211
  8.5558097    46.9633126
  8.5553248    46.9632454
  8.5549758    46.963214
  8.554918     46.9629523
  8.5548302    46.9626401
  8.5549795    46.9624402
  8.5550252    46.9621632
  8.5550724    46.9617815
  8.5551812    46.9612287
  8.5558211    46.9607031
  8.555953     46.9602733
  8.5559366    46.9601401
  8.5559897    46.9600746
  8.5561652    46.9599002
  8.5560985    46.95957
  8.5558751    46.9592178
  8.5556527    46.9565294
  8.5558279    46.9556527
  8.5558812    46.9547417
  8.5558565    46.9539998
  8.5556911    46.9536901
  8.5555877    46.9526305
  8.5556747    46.9515717
  8.5556486    46.9514347
  8.5568665    46.9486146
  8.5569707    46.9476856
  8.5573389    46.9475206
  8.5557634    46.9456045
  8.5563362    46.9455422
  8.5566964    46.9454919
  8.5570826    46.9453685
  8.5568163    46.9450661
  8.5562627    46.9445344
  8.5561496    46.9443412
  8.5563821    46.9439575
  8.5564451    46.943768
  8.5563608    46.9435664
  8.5563696    46.9433585
  8.5563367    46.9431654
  8.5561819    46.9429879
  8.5562334    46.9428092
  8.5561379    46.9426401
  8.5560707    46.9424411
  8.5558341    46.9423049
  8.5556074    46.9421424
  8.5557038    46.9417879
  8.5556084    46.9414938
  8.5556386    46.941113
  8.5558865    46.9407813
  8.5581885    46.9409459
  8.558326     46.9407997
  8.5586742    46.940745
  8.5588145    46.9406042
  8.5588265    46.9404027
  8.5584668    46.9399275
  8.5582138    46.9398247
  8.557783     46.9397659
  8.5575266    46.9396911
  8.5572447    46.9395202
  8.5571067    46.9395162
  8.5567905    46.9393474
  8.5564909    46.9393369
  8.5562096    46.9392658
  8.5558779    46.9392331
  8.5556567    46.9395834
  8.5556038    46.9398178
  8.5556868    46.9401472
  8.5549438    46.9394743
  8.5543929    46.9392539
  8.5522371    46.9392371
  8.5498303    46.9393352
  8.5488937    46.93863
  8.547452     46.9389067
  8.5443821    46.9394636
  8.543688     46.9393713
  8.5435811    46.939349
  8.544089     46.9389455
  8.5444368    46.9386795
  8.5449461    46.9373215
  8.5454473    46.9364053
  8.5460905    46.9356875
  8.5471957    46.9358798
  8.5476814    46.9348165
  8.5474348    46.9345167
  8.5474676    46.9340683
  8.5473556    46.9338607
  8.5469081    46.9333648
  8.5469088    46.9331471
  8.5468223    46.9329023
  8.5469435    46.9326007
  8.5474579    46.9324509
  8.5472391    46.9322875
  8.5469118    46.9320819
  8.5467674    46.9318944
  8.5465568    46.9317426
  8.5464155    46.9315802
  8.5463588    46.9314404
  8.546223     46.9313527
  8.5461114    46.9312242
  8.5458684    46.9310323
  8.54565      46.93076
  8.545558     46.9304352
  8.5452225    46.9302756
  8.5445515    46.9298359
  8.5443609    46.9296974
  8.5441105    46.9293985
  8.5440471    46.9291922
  8.5438384    46.9289423
  8.5440711    46.928738
  8.5440594    46.9278592
  8.5435693    46.9277023
  8.5432476    46.9276516
  8.5428467    46.927509
  8.5426365    46.9273772
  8.542212     46.9271923
  8.5421207    46.926934
  8.5418387    46.9267101
  8.5414267    46.9265566
  8.5410855    46.9264123
  8.5402297    46.9262383
  8.5395468    46.9260797
  8.5386448    46.9258139
  8.5384054    46.9258109
  8.5371756    46.9256327
  8.5367312    46.925299
  8.5359571    46.9249772
  8.5354846    46.9249054
  8.534839     46.9249309
  8.5344447    46.9248893
  8.5340171    46.9246095
  8.5328248    46.9241046
  8.5324902    46.9239222
  8.531718     46.9235358
  8.5312434    46.9235234
  8.5309858    46.9234697
  8.5306169    46.9234521
  8.5301574    46.9234893
  8.5297251    46.9236476
  8.529429     46.9236698
  8.5291792    46.9234293
  8.528921     46.9232765
  8.5286366    46.9232471
  8.528334     46.9232334
  8.5277179    46.9233268
  8.5271913    46.9232258
  8.5264626    46.9232609
  8.5262005    46.9232308
  8.5254712    46.9232332
  8.5249794    46.9231629
  8.5247863    46.9229711
  8.5244591    46.9228335
  8.5239477    46.9227371
  8.5236429    46.9227391
  8.5229047    46.9228839
  8.5226002    46.922891
  8.5222806    46.9228258
  8.521759     46.9229191
  8.5210652    46.9229173
  8.5206423    46.922848
  8.5198402    46.9228401
  8.5196073    46.9219954
  8.5195049    46.921586
  8.5194879    46.9212251
  8.5192325    46.9208765
  8.5190053    46.9202209
  8.5188458    46.9200168
  8.5180752    46.919701
  8.51738      46.9195108
  8.5170948    46.919421
  8.5167234    46.9192448
  8.5160266    46.9190065
  8.5157877    46.9188232
  8.5157007    46.9186313
  8.5155667    46.9185452
  8.5155011    46.9183598
  8.5155798    46.9182111
  8.5153322    46.91798
  8.5150191    46.9179494
  8.5145628    46.9179425
  8.5142927    46.9178729
  8.5139638    46.9178794
  8.5126666    46.9172946
  8.5123827    46.9172253
  8.5119605    46.9170259
  8.5108975    46.9167156
  8.5105246    46.916306
  8.509731     46.9159529
  8.5093231    46.9158381
  8.508997     46.9156932
  8.5076135    46.9154425
  8.5071124    46.915224
  8.5068342    46.9152916
  8.5062147    46.9151145
  8.505873     46.9152177
  8.504838     46.914971
  8.5045177    46.9148228
  8.5038254    46.9146059
  8.5031675    46.9145163
  8.5027872    46.9144257
  8.502379     46.9144979
  8.5019852    46.9146235
  8.5017464    46.9148159
  8.501541     46.9151588
  8.5013298    46.9153647
  8.5012787    46.9155945
  8.5009612    46.915868
  8.5004009    46.9160822
  8.4997735    46.916556
  8.4981166    46.9187548
  8.4977571    46.9185364
  8.4973828    46.9184093
  8.4968973    46.9182005
  8.4965084    46.9181014
  8.4959764    46.9178909
  8.4958815    46.917893
  8.4957787    46.9180258
  8.4953661    46.9180246
  8.4950225    46.917957
  8.4944176    46.917892
  8.4940516    46.9181782
  8.4938579    46.9182115
  8.493594     46.9185433
  8.4924131    46.9183821
  8.4922208    46.9184165
  8.4919671    46.9184465
  8.4910607    46.9184131
  8.4904396    46.9183946
  8.4897169    46.9184859
  8.4877782    46.9183787
  8.4869464    46.9185118
  8.4860862    46.9184712
  8.4849825    46.9171679
  8.4846148    46.9137204
  8.4844627    46.9132258
  8.4842389    46.9128197
  8.4841175    46.9119647
  8.4839204    46.9117031
  8.4830845    46.9109873
  8.4824321    46.9102388
  8.4819442    46.9099028
  8.4814451    46.9091449
  8.4814246    46.9089695
  8.4815122    46.9087427
  8.4812592    46.9085319
  8.4805952    46.9084497
  8.4800244    46.9083118
  8.4793783    46.9080088
  8.4790262    46.9078948
  8.4783483    46.9078338
  8.4779418    46.9077403
  8.4774658    46.9074736
  8.4764811    46.9073507
  8.4758702    46.907326
  8.475254     46.9072064
  8.4746816    46.9071737
  8.474474     46.9070576
  8.4742906    46.9068735
  8.4735177    46.9067143
  8.471248     46.9061212
  8.4706743    46.9059444
  8.4694537    46.9054442
  8.4677465    46.9048718
  8.4676511    46.9049688
  8.4672141    46.9050017
  8.4665594    46.9052948
  8.4654015    46.9050171
  8.4649807    46.9049719
  8.4642629    46.9047375
  8.4637739    46.9039422
  8.4632806    46.9027141
  8.4619464    46.9018526
  8.4620119    46.9015689
  8.461388     46.9011495
  8.4608499    46.9010467
  8.460585     46.9009485
  8.4603689    46.900786
  8.4598502    46.9003018
  8.4598493    46.9000781
  8.459745     46.8998438
  8.4592957    46.8995029
  8.4587477    46.8992244
  8.4586104    46.8990087
  8.4582984    46.8987778
  8.4586725    46.8980618
  8.4594737    46.8976168
  8.4601571    46.8974408
  8.4609797    46.8973658
  8.4612769    46.8971978
  8.4621256    46.8972164
  8.4624815    46.8972631
  8.462808     46.8972139
  8.4635135    46.8972618
  8.4650506    46.8974217
  8.4654028    46.8975347
  8.4656841    46.8975028
  8.4659812    46.8976849
  8.4668799    46.8977059
  8.4676563    46.8975599
  8.4679098    46.8974602
  8.4683507    46.8971784
  8.4684588    46.8968614
  8.4686262    46.896677
  8.4694981    46.8960678
  8.4696362    46.8957554
  8.4700969    46.8954874
  8.4702943    46.8953008
  8.4704873    46.8946621
  8.4710167    46.8946317
  8.4715132    46.8945373
  8.4717175    46.89428
  8.4717153    46.8940676
  8.4719356    46.8939313
  8.4724256    46.8937981
  8.4726892    46.893671
  8.4735591    46.8934613
  8.4740563    46.8934304
  8.4734953    46.8928972
  8.473297     46.8926341
  8.4732484    46.8923599
  8.473299     46.8922322
  8.4734059    46.8921527
  8.4729255    46.891706
  8.4729666    46.8914778
  8.4737595    46.8906811
  8.4740181    46.8902299
  8.4744187    46.8899845
  8.4745739    46.8895717
  8.4748185    46.8892391
  8.4753297    46.8888685
  8.4757701    46.888637
  8.4766725    46.8883005
  8.4765252    46.8880639
  8.4764437    46.8877143
  8.4766878    46.8873825
  8.4766364    46.8871396
  8.4767196    46.8864595
  8.4769807    46.8861657
  8.4790907    46.8825229
  8.4776222    46.8816655
  8.4773797    46.8815917
  8.4770599    46.881641
  8.476818     46.881444
  8.4766694    46.8812129
  8.4763643    46.8809997
  8.4760884    46.8809486
  8.4758619    46.8809777
  8.4750798    46.8803361
  8.4748174    46.8802417
  8.4746053    46.880063
  8.4738917    46.8797047
  8.4737995    46.8795012
  8.473494     46.8793862
  8.4734519    46.8791486
  8.4733658    46.8790593
  8.4731566    46.878981
  8.4727559    46.8786054
  8.4726437    46.8784019
  8.4721222    46.87822
  8.4718355    46.877899
  8.467889     46.8771417
  8.4672929    46.8764725
  8.467191     46.8762439
  8.4670635    46.8751613
  8.4671949    46.8748375
  8.4672005    46.8743992
  8.4676264    46.8737612
  8.4677946    46.8733987
  8.468446     46.8729121
  8.468831     46.8724476
  8.469097     46.8721821
  8.4697762    46.8715538
  8.4700619    46.8711979
  8.4702064    46.8709198
  8.470119     46.8697826
  8.4702051    46.8692212
  8.4706391    46.8689349
  8.4710269    46.8685662
  8.4713386    46.8681288
  8.4713531    46.86788
  8.4712614    46.867608
  8.4708543    46.8671867
  8.4702459    46.8658013
  8.4700941    46.8655612
  8.4694855    46.8648744
  8.4691435    46.8641063
  8.4692155    46.8636864
  8.4690803    46.8634645
  8.4691245    46.8632683
  8.4690362    46.8629872
  8.4691233    46.8628688
  8.469169     46.8623781
  8.4693106    46.8620109
  8.4688826    46.861795
  8.4687402    46.8616668
  8.4678973    46.8606437
  8.4681157    46.8602151
  8.4685368    46.8598443
  8.4686411    46.8596117
  8.4690646    46.8594053
  8.4691588    46.8591955
  8.4689198    46.8584505
  8.4690684    46.8580286
  8.4702309    46.857071
  8.47088      46.8563355
  8.4709254    46.855895
  8.4706592    46.8552664
  8.4708438    46.854849
  8.469994     46.8549233
  8.4692896    46.8549235
  8.4686191    46.8550283
  8.4683176    46.8551388
  8.467803     46.8551839
  8.4674095    46.8554452
  8.4666651    46.8554272
  8.466439     46.8554074
  8.4660235    46.8553951
  8.4658887    46.8551309
  8.4651392    46.8553203
  8.4648371    46.8553671
  8.4641245    46.8551527
  8.4640244    46.8550983
  8.4639107    46.8549869
  8.4631155    46.8552952
  8.4620387    46.8552622
  8.4617592    46.8552129
  8.4615089    46.8550586
  8.4613585    46.8549382
  8.4609998    46.8549531
  8.4608401    46.854933
  8.4605347    46.8549751
  8.4601859    46.8549831
  8.4598534    46.8549431
  8.4595174    46.8548872
  8.4590809    46.8548441
  8.4574848    46.8545925
  8.4555748    46.8539848
  8.4541599    46.853761
  8.4525045    46.8538872
  8.4521823    46.8539745
  8.4518134    46.8540368
  8.4511815    46.8539968
  8.4498719    46.8541315
  8.4488344    46.8541013
  8.4481992    46.8540499
  8.4479792    46.8539157
  8.4470078    46.8537896
  8.4464858    46.8537836
  8.4457071    46.8536116
  8.4452016    46.8535714
  8.444846     46.8536381
  8.4438077    46.8533728
  8.4433642    46.8530268
  8.4423936    46.8531266
  8.4414627    46.8531418
  8.4410036    46.8530787
  8.4403624    46.8532236
  8.4396015    46.8533709
  8.4391199    46.8535246
  8.4383595    46.8534141
  8.4372361    46.8531293
  8.4367074    46.8529832
  8.4364794    46.8524222
  8.4357925    46.8518756
  8.4354064    46.851769
  8.4349676    46.8517766
  8.4342687    46.8515678
  8.4330634    46.8510928
  8.4328631    46.850833
  8.4325268    46.850724
  8.4322079    46.8507701
  8.4311867    46.8506371
  8.430977     46.850569
  8.4306378    46.8505581
  8.4304611    46.8504169
  8.4299983    46.850226
  8.4276257    46.8506062
  8.4272473    46.8507825
  8.4265806    46.8512742
  8.4254172    46.8513809
  8.4251478    46.8513631
  8.4237521    46.8516094
  8.4234194    46.8515073
  8.4230208    46.8516424
  8.4225488    46.851698
  8.4222332    46.8517829
  8.4218907    46.8517698
  8.4212326    46.851878
  8.4208269    46.8518558
  8.420189     46.8519823
  8.4200632    46.8521468
  8.4194932    46.852232
  8.4191866    46.8525543
  8.418952     46.852986
  8.4187331    46.8531597
  8.4187139    46.8533902
  8.4188487    46.8540153
  8.4188797    46.8543323
  8.4191896    46.8545282
  8.4194927    46.8546761
  8.4197262    46.8549062
  8.4204274    46.8558384
  8.4202587    46.8561079
  8.4199039    46.8564257
  8.4198353    46.8568183
  8.41961      46.857097
  8.4196709    46.8574072
  8.4192111    46.8581564
  8.419303     46.8588409
  8.4193718    46.8595596
  8.419153     46.8597904
  8.4189779    46.8601649
  8.4189094    46.8605826
  8.418416     46.8612337
  8.4186661    46.8614592
  8.4185874    46.8618313
  8.4187277    46.8620205
  8.4188032    46.8627574
  8.4181727    46.8631691
  8.4179647    46.8636577
  8.4175868    46.8640508
  8.4174578    46.864286
  8.4175618    46.8645825
  8.4168938    46.8647113
  8.4157254    46.8654409
  8.4151006    46.8656039
  8.4148119    46.8658029
  8.4145538    46.8662528
  8.4143215    46.8664289
  8.414302     46.8665657
  8.4140374    46.8670614
  8.4139785    46.8673604
  8.4137503    46.8677599
  8.4135963    46.8685384
  8.4131486    46.8689658
  8.4131731    46.86934
  8.4128288    46.8698436
  8.4113974    46.8683956
  8.4107917    46.868255
  8.4093927    46.8686654
  8.4073761    46.8671828
  8.4058937    46.8663127
  8.4060076    46.8654265
  8.4044901    46.864921
  8.4016396    46.8640951
  8.3998139    46.8643191
  8.3990086    46.8646839
  8.3987091    46.8647323
  8.3983019    46.8644812
  8.3979196    46.8641488
  8.3972484    46.863728
  8.3968672    46.8634631
  8.3964358    46.8631735
  8.3958406    46.8628177
  8.395294     46.8624713
  8.3949233    46.8621255
  8.394751     46.8619533
  8.3945594    46.8617219
  8.3942086    46.8613947
  8.3937639    46.8609468
  8.393522     46.8604675
  8.3932559    46.8600397
  8.3930756    46.8598487
  8.3929815    46.8597955
  8.3924804    46.8591979
  8.3920616    46.8588019
  8.3917847    46.8584975
  8.3915056    46.858364
  8.3912425    46.8583194
  8.3906949    46.8581341
  8.3897472    46.8577831
  8.3887254    46.8575514
  8.3873884    46.8572372
  8.3865917    46.8564852
  8.3864884    46.8563712
  8.3864314    46.8561864
  8.3862279    46.8559311
  8.3862043    46.8558329
  8.3863125    46.8554753
  8.3858662    46.8553756
  8.3856928    46.8552843
  8.3855328    46.8552119
  8.3852603    46.8549281
  8.3851164    46.8549464
  8.3847766    46.854718
  8.3842771    46.8544252
  8.3813394    46.8565825
  8.3784594    46.8534171
  8.3747797    46.847912
  8.3739782    46.8484961
  8.3740894    46.848703
  8.3741124    46.8488944
  8.374108     46.8490969
  8.3740404    46.8492782
  8.3738913    46.849454
  8.3740696    46.849977
  8.3748553    46.8519542
  8.3749371    46.8525131
  8.3750451    46.8526894
  8.3751879    46.8529051
  8.3754804    46.8531375
  8.3753468    46.8535227
  8.3753385    46.8537261
  8.3754852    46.8540118
  8.3755167    46.8543903
  8.3753294    46.8554606
  8.3750653    46.8558855
  8.3748431    46.8566043
  8.3750627    46.8579932
  8.3757454    46.8589395
  8.3760311    46.8593051
  8.376364     46.8597431
  8.3768233    46.8603637
  8.3773738    46.8610186
  8.377801     46.8618292
  8.3780798    46.8620231
  8.3783634    46.8625623
  8.3790934    46.8629836
  8.3796931    46.8633736
  8.3800999    46.863911
  8.3806526    46.8638649
  8.3817811    46.8640482
  8.3822457    46.8641353
  8.3826505    46.8644828
  8.3828579    46.8646394
  8.383073     46.8647914
  8.383322     46.864927
  8.383359     46.8649429
  8.3839148    46.8654484
  8.3840945    46.865527
  8.3843914    46.8658501
  8.3846136    46.8659581
  8.384677     46.8659747
  8.3846664    46.8660458
  8.384255     46.8664468
  8.3840202    46.8665918
  8.3835683    46.8668537
  8.3832164    46.867131
  8.3828638    46.8673687
  8.3822303    46.867756
  8.381794     46.8680732
  8.3817799    46.8682676
  8.381854     46.868442
  8.3817963    46.8686728
  8.3818161    46.868889
  8.38181      46.8690288
  8.3816758    46.8691248
  8.3815618    46.8692161
  8.3814075    46.8693231
  8.3811398    46.8696543
  8.3808068    46.8698762
  8.3804127    46.870209
  8.3802315    46.8703729
  8.3803023    46.8705093
  8.3803942    46.8707799
  8.3804694    46.8709166
  8.3806896    46.8710447
  8.3806657    46.8712372
  8.3807357    46.8715284
  8.3813433    46.8715943
  8.3818486    46.8718303
  8.3820173    46.871992
  8.3815274    46.8721099
  8.3810862    46.8723866
  8.3811272    46.8727519
  8.3808722    46.8730691
  8.3807409    46.8735566
  8.3805776    46.8736832
  8.3804617    46.8738252
  8.3803844    46.8738833
  8.3801086    46.8740277
  8.3795723    46.8741215
  8.3792308    46.8741449
  8.3787388    46.8741703
  8.37825      46.8742447
  8.3780707    46.8742556
  8.3779096    46.8741962
  8.3776431    46.8742204
  8.3769984    46.8743752
  8.376666     46.8744054
  8.376441     46.8744682
  8.3761455    46.8744866
  8.3756093    46.8745369
  8.3749472    46.874588
  8.3740944    46.8745423
  8.3734161    46.8744938
  8.3727334    46.8741815
  8.3725413    46.8740502
  8.3723159    46.8738833
  8.3719631    46.8735881
  8.3714529    46.873132
  8.3712401    46.8729114
  8.3709513    46.872561
  8.3708479    46.8723983
  8.3705731    46.8722115
  8.370335     46.8719326
  8.3701663    46.8717544
  8.3699881    46.8714245
  8.3699107    46.8710878
  8.3698685    46.8707392
  8.369669     46.8702832
  8.3695583    46.8701086
  8.3693066    46.8695363
  8.3692633    46.8693527
  8.3692479    46.8691067
  8.3692938    46.8688816
  8.3693323    46.8684397
  8.3693283    46.8682547
  8.3693135    46.8680656
  8.3693593    46.8676128
  8.3690152    46.8674495
  8.3689281    46.8674317
  8.3688216    46.867365
  8.3686771    46.8673144
  8.3684843    46.8672635
  8.3683893    46.867189
  8.3683538    46.867178
  8.3681653    46.8671741
  8.3679957    46.8671206
  8.3679174    46.8671154
  8.3677878    46.8671356
  8.3676171    46.8671535
  8.3674497    46.8672096
  8.3673589    46.8672192
  8.3671084    46.8672856
  8.3670061    46.8672823
  8.3669083    46.8672847
  8.3667251    46.8672718
  8.3665415    46.8672728
  8.366278     46.8672865
  8.3658049    46.8673177
  8.3656046    46.867341
  8.3653369    46.8673179
  8.3652334    46.8672946
  8.3651716    46.8672668
  8.3650214    46.8671886
  8.3649004    46.8671836
  8.364768     46.8672254
  8.3647014    46.8672314
  8.3645019    46.867278
  8.3642828    46.8673067
  8.3642159    46.8673405
  8.3641305    46.8673294
  8.3641273    46.8670033
  8.3641403    46.8669297
  8.3640494    46.8666559
  8.3639391    46.8661523
  8.3637824    46.865494
  8.3636507    46.8654784
  8.363626     46.8651027
  8.3635024    46.8650214
  8.3633576    46.8646867
  8.3633291    46.8645103
  8.3632028    46.8643521
  8.3626014    46.86393
  8.362528     46.8637156
  8.3624597    46.8635858
  8.362404     46.8634524
  8.362129     46.8631731
  8.3619659    46.8629903
  8.3617229    46.8627704
  8.361313     46.8625155
  8.3613396    46.8624326
  8.3613831    46.8623332
  8.3614685    46.8622133
  8.3616056    46.8620598
  8.3616692    46.8620024
  8.361764     46.8618732
  8.3618984    46.8617187
  8.3620717    46.8615719
  8.3621903    46.861496
  8.3622384    46.8614292
  8.3623108    46.8613791
  8.3623804    46.861282
  8.3624124    46.8611829
  8.3625633    46.8610643
  8.3626488    46.8609667
  8.3627358    46.8608119
  8.3628728    46.8607102
  8.3630479    46.8605001
  8.363192     46.8603903
  8.3634679    46.8600915
  8.3636112    46.8598933
  8.363643     46.859794
  8.363682     46.8597285
  8.3638534    46.8595925
  8.3638774    46.8595161
  8.3639163    46.8594845
  8.3643139    46.8594303
  8.3644375    46.8594464
  8.3650767    46.8593989
  8.3653483    46.8594084
  8.3656229    46.8593621
  8.3658993    46.8593401
  8.3662218    46.8593366
  8.3664069    46.8593476
  8.3669787    46.8594186
  8.3672213    46.8594229
  8.3673074    46.8593943
  8.3673847    46.8593874
  8.3675731    46.8594389
  8.367923     46.8594262
  8.3680344    46.8593442
  8.368149     46.8592974
  8.3684173    46.8592674
  8.3686212    46.8592982
  8.3687875    46.8592851
  8.3689325    46.8592516
  8.3692257    46.859295
  8.3695576    46.859224
  8.3700598    46.8592899
  8.3701721    46.8593102
  8.3704283    46.8594375
  8.3708234    46.8595078
  8.3708698    46.8590158
  8.3708958    46.8589545
  8.3709411    46.858451
  8.3709254    46.8577776
  8.371067     46.8572079
  8.3708393    46.8564826
  8.3709133    46.8551828
  8.3709434    46.8527733
  8.3708994    46.8526504
  8.3707774    46.8521962
  8.3707477    46.8518402
  8.3706801    46.8516474
  8.3704625    46.8514259
  8.3702134    46.8512032
  8.3699888    46.8510278
  8.3694333    46.850677
  8.3692264    46.8505005
  8.3691237    46.8504784
  8.3687447    46.8503236
  8.3685839    46.8502008
  8.3684081    46.850007
  8.3683421    46.8499027
  8.3683147    46.8497608
  8.3684299    46.8496347
  8.3685414    46.8494513
  8.3685667    46.8493971
  8.3686809    46.8490601
  8.3687293    46.8488264
  8.3687469    46.8486688
  8.3688279    46.8483465
  8.3689261    46.8482279
  8.3689902    46.8480659
  8.3692438    46.847793
  8.3693259    46.8476547
  8.3692932    46.8475826
  8.3691056    46.8470799
  8.3689496    46.8468153
  8.3689094    46.8466564
  8.3689025    46.846598
  8.3689513    46.8463738
  8.3691292    46.8461951
  8.3694309    46.8460493
  8.369901     46.8455905
  8.3701391    46.8452891
  8.3700593    46.8451031
  8.3700695    46.845037
  8.3702655    46.8448385
  8.3702799    46.8426222
  8.3702877    46.8421702
  8.3702889    46.8413399
  8.3703226    46.8411124
  8.3703448    46.8408946
  8.3703501    46.8408694
  8.3703795    46.8408006
  8.3704867    46.8398731
  8.3706051    46.8395709
  8.3707987    46.8393006
  8.3708088    46.8390701
  8.3707778    46.8389352
  8.3709057    46.8387662
  8.371188     46.8384973
  8.3712167    46.8383585
  8.3714081    46.8381457
  8.3715589    46.8378117
  8.3708736    46.8362993
  8.3706134    46.8360204
  8.3708693    46.8347564
  8.3710456    46.8344395
  8.3712679    46.8342818
  8.3716297    46.8340537
  8.3716708    46.8339097
  8.3717091    46.8335049
  8.3718331    46.8332512
  8.3718912    46.8330312
  8.3721478    46.8326883
  8.3724278    46.8323687
  8.3725227    46.8321618
  8.3729248    46.8319756
  8.3732773    46.8317626
  8.373595     46.8314537
  8.3738205    46.8311814
  8.3741482    46.8310194
  8.3743183    46.8306593
  8.3743995    46.8304546
  8.3745064    46.8303056
  8.37458      46.8300382
  8.3746065    46.829886
  8.3747064    46.8297115
  8.3746074    46.8295764
  8.3746056    46.8295296
  8.374706     46.8293204
  8.374803     46.8292299
  8.3749675    46.8291867
  8.3751518    46.8289297
  8.375304     46.8288171
  8.3753658    46.8286636
  8.3753886    46.8285574
  8.3753755    46.8285079
  8.3752589    46.8283546
  8.3755158    46.8280164
  8.3756276    46.8278172
  8.3757822    46.8276928
  8.3758492    46.8276586
  8.376        46.8276171
  8.3761514    46.8274861
  8.3763437    46.8273933
  8.3765672    46.8273327
  8.3766289    46.8273017
  8.3767938    46.8271782
  8.3768165    46.8271301
  8.3767641    46.8269629
  8.3767593    46.8268255
  8.3767093    46.8264504
  8.3763862    46.8260233
  8.3765229    46.8258478
  8.3765683    46.8257215
  8.3765734    46.825613
  8.3766135    46.8255087
  8.376781     46.8253855
  8.3768388    46.8252905
  8.3768118    46.8251793
  8.376818     46.8251263
  8.3769194    46.8249738
  8.3769783    46.824928
  8.3769791    46.8248817
  8.3768907    46.8247874
  8.3767814    46.8245898
  8.3768061    46.824533
  8.3768425    46.8244879
  8.3770119    46.8243743
  8.377071     46.824271
  8.3770615    46.8241669
  8.3770802    46.8240529
  8.37707      46.8240021
  8.3770412    46.8239593
  8.3770852    46.8239007
  8.3771275    46.8238648
  8.3772977    46.8237464
  8.3774474    46.8236899
  8.3775002    46.8236443
  8.3775554    46.8234885
  8.3775523    46.8234331
  8.3775073    46.8232176
  8.3775133    46.8231689
  8.3775406    46.8231103
  8.3775207    46.8230543
  8.3774773    46.8230081
  8.3772226    46.8228791
  8.377086     46.8226839
  8.3770314    46.8224751
  8.3769986    46.8224197
  8.3770843    46.8223421
  8.3771498    46.8222988
  8.3771788    46.8222441
  8.3773917    46.8220179
  8.3772642    46.8217601
  8.3771057    46.8217095
  8.3769728    46.8216425
  8.3768968    46.8215843
  8.3767797    46.8214789
  8.3766579    46.8212795
  8.3766214    46.8212401
  8.3765069    46.8211542
  8.3763457    46.821107
  8.3761875    46.8210041
  8.3760915    46.8207939
  8.3760961    46.8206874
  8.3760495    46.8205821
  8.375848     46.8203522
  8.3757049    46.8202258
  8.3756466    46.8201209
  8.3756035    46.8200837
  8.3755276    46.8200406
  8.3754954    46.8199999
  8.375468     46.8199473
  8.3754614    46.8198935
  8.3754382    46.8198363
  8.375413     46.8197923
  8.3753594    46.8197415
  8.3753318    46.8196937
  8.3753263    46.8196339
  8.3754255    46.8194326
  8.375581     46.8192663
  8.3755905    46.818823
  8.375652     46.8186606
  8.3757449    46.8184963
  8.3756536    46.8184084
  8.3757298    46.8182595
  8.3756031    46.818062
  8.3755527    46.8179298
  8.3754091    46.8176802
  8.3751823    46.8175835
  8.3751707    46.8175077
  8.3750726    46.8173932
  8.3748752    46.8172972
  8.3746514    46.8171687
  8.3744053    46.8169667
  8.3743435    46.8167766
  8.3741598    46.8166608
  8.3740924    46.8165986
  8.374003     46.8164279
  8.3738534    46.8162162
  8.3743196    46.8162662
  8.3750718    46.816293
  8.3760058    46.8165882
  8.3769215    46.816496
  8.3777785    46.8162886
  8.3782613    46.8160168
  8.3787261    46.8154318
  8.3791371    46.8151496
  8.3794695    46.8149492
  8.3802576    46.814402
  8.380869     46.8143517
  8.380939     46.8143489
  8.3811544    46.814305
  8.3814692    46.8142535
  8.3816054    46.8142162
  8.3818337    46.8142187
  8.3819141    46.8142303
  8.3823526    46.814012
  8.3828127    46.8137231
  8.3833068    46.8136524
  8.3838309    46.8136526
  8.3843069    46.8135982
  8.3849403    46.8134734
  8.3855471    46.8132551
  8.3858909    46.8130607
  8.3866516    46.8128016
  8.3869391    46.8127578
  8.387202     46.8127313
  8.3875626    46.8126717
  8.3878109    46.8125625
  8.3880423    46.8122359
  8.3880034    46.8121076
  8.3881066    46.8118701
  8.38817      46.8116753
  8.3882118    46.8113709
  8.3882217    46.8111108
  8.3883685    46.8110421
  8.3884159    46.8108294
  8.3884834    46.8106488
  8.3883916    46.8104941
  8.3883292    46.8103021
  8.3883011    46.8100468
  8.3885791    46.8099105
  8.388593     46.809806
  8.3885845    46.8096217
  8.3885959    46.8094525
  8.3886635    46.8093466
  8.3884887    46.8091682
  8.3881358    46.8086233
  8.3878218    46.8079773
  8.3875395    46.8072015
  8.3874373    46.8069792
  8.3872475    46.8066903
  8.3860578    46.8055712
  8.3852256    46.804817
  8.3848127    46.8036888
  8.3851579    46.8035049
  8.3859472    46.8035063
  8.3865924    46.8033279
  8.3867563    46.8031607
  8.3874317    46.80294
  8.3876332    46.8029673
  8.388479     46.802319
  8.3882464    46.8022173
  8.3885439    46.8019366
  8.389084     46.8021068
  8.3892953    46.8019068
  8.3891495    46.8016567
  8.3897218    46.801386
  8.3903281    46.8007773
  8.3905773    46.8004666
  8.3965399    46.7954515
  8.3980356    46.7951527
  8.3999759    46.7953859
  8.4012153    46.7955302
  8.4016518    46.7955755
  8.4020107    46.7954134
  8.402699     46.7950197
  8.4035324    46.7942902
  8.4035363    46.7940598
  8.403827     46.7939531
  8.4038943    46.793802
  8.4045439    46.7933909
  8.4050524    46.7932811
  8.4055306    46.7930945
  8.4057261    46.7929015
  8.406153     46.7925744
  8.4061451    46.7922186
  8.4064558    46.7919819
  8.4062871    46.7916422
  8.4067361    46.791582
  8.4080193    46.7907784
  8.4083919    46.790735
  8.4085521    46.7906558
  8.4090323    46.7905605
  8.4099159    46.790214
  8.4112148    46.7898933
  8.4114716    46.7898633
  8.4151381    46.7898613
  8.4156251    46.789788
  8.4165549    46.7894995
  8.4173064    46.7893599
  8.4177836    46.7893178
  8.4185643    46.7892804
  8.4195483    46.7890699
  8.4197345    46.7883599
  8.4197075    46.7880434
  8.419547     46.7878729
  8.4196684    46.787711
  8.4195041    46.7873347
  8.4195868    46.7871228
  8.4195792    46.7867438
  8.419681     46.7866234
  8.4196657    46.7865091
  8.419832     46.7864099
  8.4198682    46.7863475
  8.4200093    46.7861547
  8.4205784    46.7855556
  8.4214915    46.785288
  8.4220358    46.7847681
  8.422597     46.7840081
  8.4230625    46.7837309
  8.423432     46.7824646
  8.4238151    46.7819397
  8.4239142    46.781686
  8.4245287    46.7815286
  8.4248801    46.7810642
  8.4250607    46.7806337
  8.4252806    46.7779503
  8.4257004    46.7776128
  8.4263435    46.7772543
  8.4263821    46.7771461
  8.4264138    46.774448
  8.4165796    46.7783919
  8.3952292    46.771514
  8.3911646    46.7777961
  8.3902235    46.7778201
  8.3886204    46.7780241
  8.3878296    46.7785534
  8.3869597    46.7783834
  8.3857715    46.7786514
  8.3845214    46.779278
  8.3823242    46.7801868
  8.3822487    46.7803502
  8.3821971    46.7805595
  8.3820214    46.7806995
  8.3817742    46.7810366
  8.3817785    46.7813709
  8.3814071    46.7813887
  8.3813726    46.7817499
  8.3811526    46.782021
  8.3805044    46.7823622
  8.3800367    46.7827976
  8.3799863    46.7829815
  8.3793033    46.7832709
  8.3788978    46.7835287
  8.3787231    46.7841984
  8.3790316    46.7843067
  8.3789455    46.784518
  8.3780587    46.7851135
  8.3777466    46.7854084
  8.3773568    46.7858225
  8.376902     46.7858467
  8.3765888    46.7859384
  8.3759248    46.7860579
  8.3758725    46.7862369
  8.3756428    46.7863759
  8.3749476    46.7863671
  8.3746501    46.7865498
  8.3741636    46.786763
  8.372997     46.7873967
  8.3717034    46.7878951
  8.3714226    46.7880895
  8.3708078    46.7882792
  8.3703933    46.7882067
  8.3701299    46.7882474
  8.3696216    46.7882147
  8.3693563    46.7882178
  8.3689397    46.7879215
  8.3692437    46.7887196
  8.3691914    46.7891436
  8.3683019    46.7894785
  8.3671282    46.7900175
  8.3664972    46.7907695
  8.3655896    46.7911626
  8.3651031    46.7914841
  8.3642669    46.791834
  8.3631787    46.7925587
  8.3628866    46.7926119
  8.3624785    46.7928111
  8.3620916    46.7930117
  8.3619443    46.7931906
  8.3611185    46.7935571
  8.3598852    46.7939148
  8.3596942    46.7940384
  8.3589698    46.7943729
  8.3585211    46.794475
  8.357642     46.7945231
  8.356356     46.7947564
  8.3552452    46.7947215
  8.3545703    46.7949186
  8.3540439    46.7951776
  8.3535679    46.795742
  8.3530902    46.796024
  8.3522222    46.7961882
  8.3515987    46.7964162
  8.3511168    46.7964504
  8.3508094    46.7966432
  8.3501067    46.7968969
  8.3492288    46.7971164
  8.3487443    46.7975515
  8.3476852    46.7988021
  8.347134     46.7991845
  8.3456013    46.7998051
  8.3452911    46.7998325
  8.344974     46.7999546
  8.3444982    46.7999058
  8.344349     46.7999784
  8.3440937    46.8006792
  8.343399     46.8014541
  8.3430413    46.8021026
  8.3430045    46.8022329
  8.3430135    46.8023998
  8.343793     46.8029982
  8.3439656    46.8032483
  8.3435527    46.8036801
  8.3432929    46.8045324
  8.341338     46.8045787
  8.3392281    46.8053844
  8.3383251    46.8066811
  8.3378237    46.8072043
  8.3367704    46.8081149
  8.3360272    46.8084976
  8.3358927    46.8087394
  8.3356586    46.8088812
  8.3349331    46.809047
  8.3343683    46.8094635
  8.3338648    46.8096249
  8.3337792    46.8097676
  8.3333142    46.8101656
  8.3332766    46.8103878
  8.3327892    46.8106848
  8.332539     46.8108729
  8.3320477    46.8110972
  8.3319797    46.8114102
  8.3318418    46.8115365
  8.3316698    46.8121383
  8.3316813    46.8124432
  8.3311101    46.8128808
  8.3307539    46.8128899
  8.3302932    46.8131369
  8.3299067    46.813437
  8.3295974    46.8136043
  8.3287882    46.8138739
  8.3279158    46.8140185
  8.3265515    46.8147612
  8.326318     46.8148794
  8.326198     46.8154088
  8.3264047    46.8156593
  8.3263003    46.8158471
  8.3260428    46.8159481
  8.3257925    46.8163231
  8.3252722    46.8164042
  8.3252352    46.8166029
  8.3250286    46.8167345
  8.3247605    46.816739
  8.3244423    46.8170398
  8.3238511    46.8174327
  8.3237042    46.8180304
  8.3231804    46.8183341
  8.3230518    46.81876
  8.3232427    46.818992
  8.3233362    46.8192414
  8.3236146    46.819789
  8.3229653    46.8198322
  8.3228292    46.8200075
  8.3225582    46.8200109
  8.3221427    46.8202178
  8.3220088    46.8206362
  8.3220898    46.8207949
  8.322028     46.8209047
  8.3220427    46.8210238
  8.3221963    46.821119
  8.3223692    46.8213323
  8.3228909    46.8216864
  8.3228212    46.8218011
  8.3228238    46.8220392
  8.3229217    46.8221596
  8.3235365    46.822253
  8.3239521    46.8224465
  8.3241855    46.8227154
  8.3243371    46.8230178
  8.3248493    46.8232285
  8.3248504    46.8233501
  8.3255515    46.8238681
  8.3256166    46.8240329
  8.3264562    46.8241915
  8.326898     46.8243084
  8.3274199    46.824494
  8.3278319    46.8247282
  8.3282022    46.8247115
  8.3283713    46.8246336
  8.3288946    46.8247037
  8.3290949    46.8249437
  8.3293345    46.8252098
  8.32968      46.8252043
  8.3298463    46.8252571
  8.3300403    46.8253681
  8.3302944    46.8254212
  8.3310172    46.8257047
  8.3322097    46.825945
  8.3322938    46.8260363
  8.3329553    46.8264215
  8.3331564    46.8264793
  8.3332073    46.8266748
  8.3335056    46.8268428
  8.3343588    46.8272198
  8.3349715    46.8275464
  8.3352204    46.8284317
  8.3352135    46.8297017
  8.3348722    46.8303632
  8.334879     46.8311964
  8.3351516    46.8314676
  8.3358785    46.8318332
  8.3356983    46.8321311
  8.3356975    46.8325238
  8.3359428    46.8331083
  8.3352114    46.8336263
  8.3342502    46.8337833
  8.3325529    46.8337309
  8.3322623    46.8336536
  8.3325803    46.8378285
  8.3316471    46.8399484
  8.3311469    46.8403723
  8.3310226    46.84116
  8.3308783    46.8412589
  8.3302394    46.8417976
  8.3300341    46.8418014
  8.3291682    46.8421763
  8.3289452    46.842915
  8.3289287    46.8436642
  8.3286798    46.8442395
  8.328483     46.8447437
  8.3284836    46.8453846
  8.3284165    46.8458607
  8.3281953    46.8462132
  8.3279133    46.8468723
  8.3283366    46.8482617
  8.3289954    46.8489071
  8.3290201    46.8492765
  8.3302519    46.8509291
  8.3306867    46.8515293
  8.3308495    46.8520967
  8.3308032    46.8525953
  8.3303498    46.8531104
  8.3301412    46.8535321
  8.3300457    46.8537581
  8.3300281    46.8539383
  8.3301486    46.8540344
  8.3308409    46.8566771
  8.3337272    46.8602586
  8.3345568    46.8612426
  8.3342788    46.8620676
  8.3344655    46.8630866
  8.3345086    46.863284
  8.3343084    46.8638999
  8.3344196    46.8645093
  8.3343361    46.8649883
  8.3341568    46.8651457
  8.3339368    46.865709
  8.3340454    46.8661815
  8.3336603    46.8668093
  8.3339342    46.8670531
  8.3342424    46.8672581
  8.3337998    46.867952
  8.3334275    46.8683716
  8.3327539    46.8685331
  8.3322       46.8685281
  8.3319245    46.8686077
  8.3316679    46.8692487
  8.3316343    46.8694815
  8.3315643    46.8696571
  8.3311624    46.8699078
  8.3307141    46.8700991
  8.3301391    46.8707718
  8.3300857    46.8709406
  8.329906     46.8711335
  8.3296534    46.8714263
  8.3295069    46.8717662
  8.3295995    46.8718804
  8.329605     46.8722027
  8.3293728    46.8727669
  8.3300539    46.8742037
  8.3288463    46.8761392
  8.3283779    46.8779758
  8.3295857    46.8787553
  8.3300853    46.8794014
  8.3302938    46.8796366
  8.3309198    46.8801869
  8.3315162    46.8805365
  8.3322514    46.881233
  8.3330452    46.8819548
  8.3327468    46.8830258
  8.332638     46.8836627
  8.3325856    46.8838687
  8.3325827    46.8841488
  8.3328133    46.8843188
  8.3328171    46.8845966
  8.3329754    46.885028
  8.332897     46.8852164
  8.3329982    46.8853879
  8.3330965    46.8859072
  8.3332059    46.8861725
  8.3334295    46.8863948
  8.3337945    46.8867433
  8.3341276    46.8869664
  8.3342616    46.8870865
  8.3343772    46.8872457
  8.3347269    46.8874758
  8.3348377    46.8876747
  8.3350711    46.8879107
  8.3357569    46.8884002
  8.3359511    46.8885677
  8.3364399    46.8888351
  8.3370263    46.8892943
  8.33734      46.8894785
  8.3374647    46.8896251
  8.3377082    46.8898385
  8.3377143    46.8900127
  8.3381416    46.8906931
  8.3381076    46.8916388
  8.3382529    46.8920884
  8.3382665    46.8932164
  8.3382553    46.8935673
  8.3381801    46.8941724
  8.3383986    46.8949156
  8.3384208    46.8957745
  8.3382548    46.8961248
  8.3385033    46.8966996
  8.3385391    46.8970411
  8.3384078    46.8974299
  8.3383041    46.8979768
  8.3383257    46.8984048
  8.3381501    46.8987301
  8.3378504    46.8994089
  8.3376925    46.8996998
  8.3375702    46.899762
  8.3373419    46.9008703
  8.3371587    46.9012918
  8.3368048    46.9016374
  8.3367698    46.9019758
  8.336746     46.9024358
  8.3367618    46.9025994
  8.3362939    46.9030322
  8.3366374    46.9033983
  8.3367945    46.9036913
  8.3366201    46.904172
  8.3369536    46.9049656
  8.3368687    46.9053846
  8.3371786    46.9062566
  8.3383063    46.9068882
  8.3399127    46.9077383
  8.3402125    46.9081641
  8.3411076    46.9086977
  8.3417964    46.9100147
  8.3426092    46.9115016
  8.3426878    46.9117249
  8.3427081    46.9124643
  8.3429199    46.9129592
  8.3434803    46.9148997
  8.3417736    46.9174807
  8.3413754    46.9175351
  8.3409749    46.9176858
  8.3402453    46.9180964
  8.3393564    46.918411
  8.3392053    46.9183214
  8.3389395    46.9184422
  8.338396     46.9183673
  8.3384595    46.918473
  8.338652     46.9188457
  8.3391123    46.9192739
  8.3395751    46.919944
  8.339931     46.9201041
  8.3397916    46.9203292
  8.3400184    46.9204587
  8.3400956    46.9206847
  8.3401849    46.920918
  8.3403803    46.9209776
  8.3404105    46.9212124
  8.3405332    46.9215603
  8.3404437    46.9219505
  8.3403072    46.9221636
  8.3402879    46.9222824
  8.3402999    46.9226249
  8.3402011    46.9228032
  8.339841     46.9232858
  8.3401897    46.9236525
  8.3402781    46.9239286
  8.3403274    46.9243577
  8.3404259    46.924677
  8.3403805    46.9248736
  8.3404483    46.9250675
  8.3406777    46.9255304
  8.3409129    46.9258609
  8.3410603    46.9260021
  8.3412372    46.9261885
  8.3411603    46.9265452
  8.3410981    46.9267258
  8.3409922    46.9268333
  8.3408032    46.9269913
  8.3406531    46.9272222
  8.3402253    46.9279453
  8.33975      46.928416
  8.3381276    46.929313
  8.3345597    46.9280221
  8.3280913    46.9269443
  8.3265942    46.9264492
  8.326417     46.9263332
  8.3260635    46.9262632
  8.3258333    46.9262067
  8.3254429    46.9260773
  8.3252396    46.9260824
  8.325073     46.9260623
  8.3244495    46.9259358
  8.324276     46.9258837
  8.3240487    46.9257564
  8.3237043    46.9255243
  8.3233909    46.9254702
  8.323024     46.9253705
  8.3225339    46.9252986
  8.3221245    46.9253406
  8.3217848    46.9253436
  8.3214577    46.9252439
  8.3210509    46.9251558
  8.320748     46.9251838
  8.3202517    46.9251647
  8.318688     46.9250116
  8.3173967    46.9249675
  8.3164356    46.9246492
  8.3155079    46.9243666
  8.3146995    46.9248712
  8.3136808    46.9252749
  8.3129746    46.9253688
  8.3123077    46.9251738
  8.311185     46.9248135
  8.310245     46.9244901
  8.3096435    46.9243046
  8.3094682    46.9245367
  8.3090105    46.924871
  8.308908     46.9249892
  8.3088435    46.9252195
  8.3082254    46.9255035
  8.3073498    46.9256114
  8.3070491    46.9256924
  8.3069987    46.9257133
  8.3069529    46.9257395
  8.3069094    46.9257745
  8.3068365    46.9258469
  8.3067207    46.9259233
  8.306446     46.9260381
  8.3063431    46.9260739
  8.3062377    46.9261004
  8.3061129    46.9261226
  8.3060182    46.9261323
  8.3058548    46.9261409
  8.3057333    46.9261584
  8.3055281    46.9262094
  8.3054361    46.9262374
  8.3053793    46.9262594
  8.3053147    46.9262936
  8.3052085    46.9263722
  8.3050972    46.9264771
  8.3049734    46.9266183
  8.3049206    46.9266618
  8.3048591    46.9267005
  8.3048036    46.9267278
  8.3046627    46.9267855
  8.3043796    46.9269182
  8.3041762    46.9270206
  8.3038422    46.9271645
  8.3036347    46.927272
  8.3033082    46.9274652
  8.3030875    46.9275837
  8.3028536    46.9276948
  8.3023358    46.9279207
  8.3018356    46.9282103
  8.3016881    46.9282878
  8.3015337    46.9283786
  8.3014056    46.9284623
  8.3011958    46.9286109
  8.3010499    46.9287184
  8.300973     46.928783
  8.3008917    46.928865
  8.3008408    46.9289298
  8.3007922    46.92901
  8.300756     46.9290934
  8.3007453    46.929146
  8.3007446    46.9292167
  8.3007538    46.9292815
  8.3007729    46.929343
  8.3008388    46.9294645
  8.3009238    46.9295911
  8.3009869    46.9296663
  8.3010672    46.9297405
  8.3010061    46.9297786
  8.300718     46.9299114
  8.3004904    46.9299734
  8.3000781    46.9302386
  8.2997346    46.9303225
  8.2992471    46.9304485
  8.2983936    46.9306584
  8.2982479    46.9307071
  8.2970502    46.9310292
  8.2962388    46.9315385
  8.294628     46.9317377
  8.2938346    46.9319334
  8.2930638    46.9322256
  8.2924515    46.9324137
  8.291687     46.9325307
  8.2909684    46.9327153
  8.2904024    46.9329687
  8.2897826    46.9334587
  8.2886735    46.9337829
  8.288294     46.9338862
  8.2883679    46.9340978
  8.2885012    46.9346176
  8.2885813    46.9348315
  8.2889617    46.9351767
  8.2893425    46.9355349
  8.2895179    46.9358309
  8.2895424    46.9360951
  8.2895722    46.9363172
  8.2902772    46.9367132
  8.2904068    46.9372467
  8.2905817    46.9376504
  8.2909608    46.9381604
  8.2910504    46.9382664
  8.2916587    46.9390642
  8.2915728    46.9391994
  8.2919536    46.9397689
  8.2922147    46.9400414
  8.2929611    46.9406659
  8.2937459    46.9411824
  8.2942222    46.9413138
  8.2944335    46.9415102
  8.2949662    46.9418498
  8.295507     46.9425704
  8.29553      46.9427748
  8.2958731    46.9430817
  8.2963868    46.9434607
  8.2965682    46.9435413
  8.2971307    46.9442006
  8.2974698    46.9451469
  8.2978111    46.9454196
  8.2979764    46.9456099
  8.2981539    46.9457836
  8.2983874    46.9458844
  8.2984209    46.9460114
  8.2986449    46.9462198
  8.2989058    46.9464364
  8.2990245    46.946503
  8.2992158    46.9466779
  8.2994599    46.946744
  8.2997739    46.9470344
  8.3000779    46.9471585
  8.3002404    46.9471757
  8.3002784    46.9472532
  8.3003865    46.9473087
  8.3005967    46.9474798
  8.3009909    46.947646
  8.3011385    46.9476754
  8.3014065    46.9478421
  8.301761     46.9479114
  8.3018997    46.9480007
  8.3021302    46.9482842
  8.3023683    46.9484272
  8.3024769    46.9485622
  8.3027674    46.948739
  8.3030013    46.9488253
  8.3035146    46.9490519
  8.3036627    46.9491515
  8.3040827    46.9493332
  8.3046263    46.9495157
  8.3050573    46.9497266
  8.3051958    46.9498452
  8.3054652    46.9501373
  8.3056359    46.950172
  8.3062967    46.9505372
  8.307311     46.9510346
  8.3078022    46.951231
  8.3085082    46.9516255
  8.3089365    46.9517887
  8.3094794    46.9520571
  8.3099143    46.9522203
  8.3094926    46.9525371
  8.3087743    46.9528806
  8.3084928    46.9531216
  8.3082779    46.9533127
  8.3078847    46.9537784
  8.3064035    46.955493
  8.3061696    46.9557197
  8.3090279    46.9636066
  8.3109758    46.9689802
  8.3099114    46.9703438
  8.3096102    46.9714687
  8.3093008    46.9718401
  8.3092745    46.9718885
  8.3092433    46.9719805
  8.3092157    46.972034
  8.3090949    46.9721897
  8.3090805    46.9722852
  8.3090119    46.9723561
  8.3089688    46.972377
  8.3089321    46.9723877
  8.3088916    46.9723937
  8.3088046    46.972391
  8.3087597    46.9723955
  8.3087111    46.9724111
  8.3086733    46.9724353
  8.3086479    46.972466
  8.3086003    46.9725841
  8.3085583    46.9726459
  8.3082707    46.9729112
  8.3080271    46.9731904
  8.3079162    46.973281
  8.3078784    46.973304
  8.3078003    46.9733396
  8.3076789    46.9733773
  8.3076464    46.9733939
  8.3076157    46.9734158
  8.3075863    46.9734468
  8.3074254    46.973685
  8.3073105    46.9738338
  8.3071708    46.9739774
  8.3071114    46.9740276
  8.3070153    46.974092
  8.3069043    46.9741482
  8.3071705    46.9759169
  8.3070791    46.9759825
  8.3069678    46.9760514
  8.3069311    46.9760676
  8.3068858    46.9760786
  8.3068335    46.9760816
  8.306778     46.9760741
  8.3066282    46.9760161
  8.3065944    46.9760076
  8.3065442    46.9760068
  8.3064973    46.976019
  8.3064721    46.9760329
  8.3063096    46.9762009
  8.3062406    46.9762658
  8.3060943    46.9763626
  8.3059774    46.9764262
  8.3058419    46.976488
  8.3056733    46.9765526
  8.3055009    46.976609
  8.3052907    46.9766655
  8.3046593    46.9768114
  8.3043764    46.9768958
  8.3038358    46.9769002
  8.3036678    46.9769302
  8.3035507    46.9770426
  8.302922     46.9771288
  8.3027068    46.9771828
  8.3022151    46.9774343
  8.3017813    46.977461
  8.301518     46.977555
  8.3013472    46.9776599
  8.3009923    46.9775848
  8.3007744    46.9775574
  8.3006011    46.9774215
  8.3002507    46.9773856
  8.3001151    46.9774032
  8.2999676    46.9774461
  8.299937     46.977388
  8.2997313    46.9773632
  8.299519     46.9774245
  8.2993323    46.9775123
  8.2990885    46.9774924
  8.2989463    46.9775281
  8.2985986    46.9774927
  8.2982603    46.9773944
  8.2981304    46.9773634
  8.2979857    46.977431
  8.297681     46.977463
  8.297446     46.977504
  8.2972085    46.9774673
  8.2965666    46.9772337
  8.2962218    46.9771629
  8.2960377    46.9771432
  8.29598      46.9771597
  8.2955479    46.9772164
  8.295129     46.977093
  8.2946405    46.9769691
  8.2943212    46.9770266
  8.2937887    46.9770641
  8.2934843    46.9771748
  8.2930701    46.9771077
  8.2928098    46.9771917
  8.2922965    46.9766337
  8.2919169    46.9766077
  8.2914449    46.9764212
  8.2911046    46.9763961
  8.290872     46.9763445
  8.2905479    46.9762526
  8.2901225    46.976086
  8.2900577    46.9760766
  8.2889628    46.9761027
  8.2888531    46.9760982
  8.2887237    46.9760875
  8.2884861    46.9760537
  8.2883118    46.9760234
  8.2880106    46.9759409
  8.2878212    46.9758769
  8.2878054    46.975875
  8.2877176    46.9758689
  8.2876295    46.9758713
  8.2875426    46.975882
  8.2874588    46.9759008
  8.2867482    46.9758593
  8.2863813    46.9759302
  8.2859503    46.9761277
  8.2854276    46.9761587
  8.2853802    46.9761507
  8.2847598    46.975938
  8.2844613    46.9758574
  8.2843476    46.9758358
  8.2842315    46.975821
  8.284114     46.9758132
  8.2839959    46.9758126
  8.2838782    46.975819
  8.2837619    46.9758325
  8.2837159    46.9758398
  8.2831822    46.9759784
  8.2831194    46.9759878
  8.2830616    46.9759903
  8.2829913    46.9759859
  8.282733     46.9759493
  8.2823537    46.9758747
  8.2818646    46.9758096
  8.2818417    46.9758114
  8.2817372    46.9758283
  8.2816391    46.9758582
  8.2815569    46.9758968
  8.2814807    46.9759486
  8.2814278    46.9760001
  8.2813313    46.9761252
  8.281311     46.9763626
  8.2809134    46.9765669
  8.2805318    46.9765882
  8.2798996    46.9765056
  8.2797732    46.9767029
  8.2796456    46.9767959
  8.2794282    46.9768671
  8.2788983    46.9769128
  8.2786002    46.9768978
  8.2781908    46.9770239
  8.2772175    46.9771163
  8.2761063    46.977381
  8.2755286    46.9772771
  8.2751261    46.9776148
  8.2746003    46.978008
  8.2733978    46.9784334
  8.2728736    46.9785362
  8.2725158    46.9786017
  8.269492     46.9788679
  8.2687033    46.9787574
  8.2678906    46.9784257
  8.2676917    46.97835
  8.2671122    46.9783748
  8.2667543    46.9784704
  8.2658494    46.978423
  8.2653687    46.9783259
  8.264709     46.9783485
  8.2645253    46.9783898
  8.2643056    46.9785163
  8.2639887    46.9786268
  8.2637147    46.9786655
  8.2624929    46.9781047
  8.262256     46.9783787
  8.2619396    46.9786032
  8.2616304    46.979024
  8.2616436    46.9791402
  8.2615684    46.9793208
  8.2615737    46.9794554
  8.26168      46.979685
  8.2613399    46.9799242
  8.2611348    46.9801635
  8.2610779    46.9802658
  8.2610024    46.980339
  8.2608624    46.9803637
  8.2606312    46.9802271
  8.2602593    46.980106
  8.2598326    46.9801192
  8.2595082    46.9800081
  8.2591775    46.9800403
  8.2564291    46.9794953
  8.2559596    46.9795649
  8.2557314    46.9797681
  8.2542554    46.9801157
  8.2540385    46.9799803
  8.253573     46.9798599
  8.2533587    46.9796927
  8.2529935    46.9795189
  8.2524925    46.9791025
  8.2523962    46.9789741
  8.2523153    46.9788909
  8.2521451    46.9788413
  8.2519107    46.9786772
  8.2515622    46.978577
  8.2513405    46.978261
  8.2510258    46.9781058
  8.2508832    46.9779137
  8.2504973    46.9777289
  8.2482016    46.9762457
  8.2480682    46.9761495
  8.2477764    46.9761311
  8.2470058    46.9758223
  8.2467925    46.9757775
  8.2460516    46.9752747
  8.2456745    46.9750715
  8.2450918    46.97484
  8.2445305    46.9745743
  8.2441189    46.9742991
  8.2437764    46.9743302
  8.2433584    46.974263
  8.2419286    46.9740487
  8.2411615    46.9738552
  8.2408507    46.973643
  8.2407203    46.97359
  8.240568     46.9735581
  8.2404449    46.9736357
  8.239862     46.973694
  8.2389842    46.9737736
  8.2387682    46.9737733
  8.2375062    46.9740745
  8.2370289    46.9742036
  8.2358304    46.9745107
  8.235524     46.9744874
  8.2335613    46.9743718
  8.2323716    46.9736487
  8.2322735    46.9735314
  8.2321598    46.9733677
  8.2317316    46.9732555
  8.2311419    46.9732256
  8.2308578    46.9733019
  8.2306137    46.9734268
  8.2298718    46.9737289
  8.2288824    46.9731461
END
END
