polygon
1
  8.3964966    47.2199645
  8.3963068    47.2205304
  8.3960443    47.2214322
  8.3949697    47.2250392
  8.3948927    47.2253196
  8.3948456    47.2257346
  8.3948787    47.2262197
  8.3949473    47.2265058
  8.3950642    47.2268376
  8.3955916    47.2279666
  8.3960319    47.2288751
  8.3962041    47.2291984
  8.3964002    47.229525
  8.3967163    47.2299911
  8.3970529    47.2304192
  8.3975218    47.2309384
  8.3979076    47.2313116
  8.3983269    47.2316768
  8.3987296    47.2319992
  8.3990139    47.2322019
  8.3995306    47.2325453
  8.4000663    47.2328858
  8.4046433    47.235753
  8.4051034    47.2360613
  8.4054987    47.2363712
  8.4058346    47.2367148
  8.4060823    47.2370753
  8.4062791    47.2374335
  8.4064257    47.2378716
  8.4064812    47.2383055
  8.4064834    47.2389639
  8.4064954    47.2399569
  8.4065375    47.2402354
  8.4066055    47.2404921
  8.4067138    47.2407746
  8.4069032    47.2411319
  8.4070368    47.2413269
  8.4072226    47.2415566
  8.4073897    47.2417405
  8.407679     47.242025
  8.4081391    47.2424613
  8.4095244    47.2438277
  8.410156     47.2444543
  8.4102764    47.2445876
  8.4103876    47.2447248
  8.4104894    47.2448653
  8.4105815    47.2450088
  8.4106492    47.2451279
  8.4107103    47.2452487
  8.4107647    47.2453709
  8.4108122    47.2454944
  8.4108506    47.2456156
  8.4108838    47.2457374
  8.4109119    47.2458598
  8.4109347    47.2459827
  8.4109485    47.2460753
  8.4109592    47.2461681
  8.410967     47.2462609
  8.4109719    47.2463539
  8.4109707    47.2464574
  8.4109652    47.2465608
  8.4109554    47.246664
  8.4109411    47.2467671
  8.4109228    47.246868
  8.4109003    47.2469686
  8.4108736    47.2470687
  8.4108427    47.2471682
  8.4107468    47.2474155
  8.410688     47.2475434
  8.4106218    47.2476696
  8.4105484    47.2477939
  8.4104679    47.2479162
  8.4103818    47.2480345
  8.410289     47.2481504
  8.4101896    47.2482639
  8.4100839    47.2483746
  8.4104977    47.2482418
  8.4111251    47.2479469
  8.4119344    47.2474138
  8.412332     47.2470484
  8.4127288    47.2465719
  8.4130076    47.2460685
  8.4130862    47.2452344
  8.4132272    47.244779
  8.4134229    47.2443568
  8.4140085    47.2436703
  8.4141057    47.2435194
  8.4144782    47.2427926
  8.4146013    47.2426647
  8.4149017    47.2425493
  8.4155245    47.2424432
  8.4157789    47.2423053
  8.4160233    47.2417284
  8.4164867    47.2413224
  8.4164943    47.2410889
  8.4156308    47.2401279
  8.4151202    47.2399811
  8.4146544    47.2397502
  8.414241     47.2393872
  8.4141958    47.239155
  8.4142474    47.2389432
  8.4144531    47.2387472
  8.4151622    47.238447
  8.415412     47.2380585
  8.4157937    47.2376595
  8.4162503    47.2373529
  8.416407     47.2371461
  8.4164871    47.236974
  8.4162253    47.236104
  8.416277     47.2358498
  8.416678     47.2353889
  8.4167528    47.2352582
  8.4165935    47.2348161
  8.4166328    47.2345436
  8.417036     47.2337701
  8.4169481    47.2330814
  8.4168302    47.2322702
  8.4169644    47.2307277
  8.4171579    47.2303653
  8.4173731    47.2293538
  8.4173633    47.2291794
  8.4172114    47.2289585
  8.4172412    47.2288228
  8.4177682    47.2286443
  8.4179402    47.2284143
  8.4182026    47.2272004
  8.4183433    47.2269514
  8.4181755    47.2266209
  8.4185219    47.2261768
  8.4186933    47.2261645
  8.4189469    47.2263108
  8.4191755    47.2262872
  8.4199582    47.2257629
  8.4208165    47.2257254
  8.4209299    47.2256471
  8.421372     47.224661
  8.4215172    47.2237963
  8.4216847    47.2233208
  8.4230536    47.2234499
  8.4232517    47.2235098
  8.4241294    47.2235908
  8.4248846    47.2237282
  8.4256315    47.2237564
  8.4269511    47.224066
  8.4292811    47.224873
  8.4297588    47.2249511
  8.4303231    47.2248707
  8.4323049    47.2241253
  8.435534     47.2236907
  8.4360469    47.223811
  8.4371571    47.2236866
  8.4390529    47.2239018
  8.4400175    47.2243264
  8.4411217    47.2252153
  8.4415613    47.2248483
  8.4422653    47.2239232
  8.4426173    47.223565
  8.4428491    47.2235892
  8.4431616    47.2230814
  8.4434988    47.2228876
  8.4438004    47.2226376
  8.4446062    47.2230688
  8.4459125    47.2233355
  8.44664      47.223379
  8.4465753    47.2228212
  8.4464136    47.2222995
  8.4464243    47.2221207
  8.4466321    47.221839
  8.4473419    47.2213845
  8.447695     47.2210619
  8.4477941    47.2208051
  8.4478064    47.220023
  8.4479337    47.220109
  8.4500216    47.2200686
  8.450093     47.2200738
  8.4501841    47.2201008
  8.4502279    47.2201265
  8.4502617    47.2201533
  8.4502885    47.2201899
  8.4503042    47.2202278
  8.4503069    47.2202406
  8.4502936    47.2196478
  8.4502587    47.2194669
  8.450552     47.2194677
  8.4521061    47.2195997
  8.4530336    47.2186334
  8.4523349    47.2184343
  8.4516331    47.2183765
  8.4523083    47.2180009
  8.4529458    47.2177609
  8.4549261    47.2182347
  8.4556361    47.2185429
  8.4559761    47.2183946
  8.456128     47.2184833
  8.4566781    47.2185719
  8.457252     47.2177047
  8.4578225    47.2172827
  8.4583171    47.2170611
  8.4586975    47.2170022
  8.4597022    47.2159768
  8.4604237    47.2153261
  8.4609596    47.2142802
  8.4613343    47.2138854
  8.4614031    47.2136312
  8.4619954    47.2136011
  8.4625509    47.213779
  8.4632312    47.2139108
  8.4636466    47.2139426
  8.4636574    47.2138715
  8.4655243    47.213988
  8.4661542    47.2140914
  8.4669192    47.2142867
  8.4670642    47.2142057
  8.468311     47.2129558
  8.468379     47.2129905
  8.4688632    47.2132377
  8.4700905    47.2134045
  8.4704131    47.2119232
  8.4715021    47.2120023
  8.4719273    47.2119252
  8.4722565    47.2118107
  8.472468     47.2116957
  8.4735483    47.2107832
  8.4738357    47.2106244
  8.4728795    47.2101898
  8.4730336    47.2097328
  8.4726464    47.2096253
  8.4726199    47.2094884
  8.4729038    47.209002
  8.4732967    47.2085254
  8.4740142    47.208774
  8.4751556    47.2089287
  8.4755331    47.2096019
  8.4762199    47.2100215
  8.4771741    47.2093383
  8.4772105    47.2093187
  8.4772636    47.2093808
  8.4798975    47.2086217
  8.4799759    47.2085867
  8.4806746    47.2087224
  8.4813533    47.2086454
  8.4834066    47.2087827
  8.4836483    47.2084542
  8.4838243    47.2084484
  8.4854573    47.2090431
  8.4882192    47.2104069
  8.4891008    47.2107897
  8.4891319    47.2108138
  8.4892994    47.2108805
  8.4906053    47.2110728
  8.4917508    47.211375
  8.4924947    47.2117834
  8.4927541    47.2118429
  8.4930475    47.2119208
  8.4937492    47.211949
  8.494644     47.2118959
  8.4946745    47.2118976
  8.495361     47.2119369
  8.4973808    47.2122686
  8.4981122    47.2123482
  8.4984049    47.2120682
  8.4993021    47.2119614
  8.5003181    47.2118637
  8.5012839    47.2118336
  8.5018294    47.2118832
  8.5028209    47.2121066
  8.5033242    47.2122387
  8.5032043    47.2123857
  8.5038521    47.2125773
  8.5042309    47.2127994
  8.5043524    47.2129371
  8.5046181    47.2131724
  8.5050438    47.2134267
  8.5052102    47.2135322
  8.5058084    47.2137746
  8.5058121    47.2137851
  8.5058969    47.2138566
  8.5055131    47.2143013
  8.5053395    47.2144927
  8.505214     47.2146213
  8.5050663    47.2147566
  8.5051083    47.2147703
  8.5054623    47.2147019
  8.5063302    47.2145541
  8.5072032    47.2143904
  8.5073104    47.2143771
  8.5074145    47.2143972
  8.5079627    47.2146094
  8.5081449    47.2147156
  8.508589     47.2149192
  8.5091441    47.2150509
  8.5094203    47.2149674
  8.5097117    47.2151981
  8.5100312    47.2154212
  8.5104132    47.2156972
  8.5109209    47.2156053
  8.5116189    47.2155125
  8.5121799    47.2154899
  8.5123428    47.2155177
  8.5125876    47.2160409
  8.5126729    47.2162502
  8.5126946    47.2163302
  8.5127241    47.2163758
  8.5127743    47.2164162
  8.5127924    47.2164454
  8.5127931    47.2165027
  8.5128385    47.2165396
  8.5126112    47.2166368
  8.5126714    47.216897
  8.5127559    47.2169894
  8.5127903    47.2170832
  8.5127054    47.2173066
  8.512713     47.2174891
  8.512552     47.2182364
  8.5124387    47.2186572
  8.5124712    47.2189711
  8.5125744    47.2194135
  8.5126429    47.2193964
  8.5168923    47.2196054
  8.5174987    47.2196017
  8.5179189    47.2195751
  8.5206454    47.219326
  8.5208384    47.2196513
  8.5209406    47.2198098
  8.5210753    47.2199962
  8.5212247    47.2201793
  8.5216553    47.219954
  8.5215728    47.2198769
  8.5216533    47.2197954
  8.521677     47.2197223
  8.5216302    47.2196522
  8.521533     47.2195799
  8.5214293    47.2195375
  8.5214231    47.2194846
  8.5215343    47.2194589
  8.5216021    47.2193808
  8.521672     47.2193646
  8.5217645    47.2193244
  8.5218256    47.2191687
  8.5219221    47.2190133
  8.5219676    47.2189679
  8.5220273    47.2189483
  8.5222567    47.2189321
  8.5223422    47.2189334
  8.522423     47.2189201
  8.5224461    47.2188788
  8.5225148    47.2188249
  8.5226465    47.2188402
  8.5228325    47.2188992
  8.5228811    47.2188931
  8.5230456    47.2187525
  8.5231282    47.2187144
  8.5231999    47.2187243
  8.5232236    47.2187444
  8.5232011    47.2187707
  8.5231563    47.2187995
  8.5231724    47.2188386
  8.5232338    47.218854
  8.5233434    47.2188563
  8.5235269    47.2188311
  8.5237086    47.2188995
  8.523785     47.2188967
  8.5238394    47.2188781
  8.5238509    47.218839
  8.5238447    47.2187807
  8.5239326    47.2187518
  8.5240364    47.218769
  8.5241351    47.21877
  8.5241969    47.2187356
  8.5242781    47.2187211
  8.5244292    47.2187399
  8.5245837    47.2187813
  8.52466      47.2188059
  8.524837     47.218844
  8.524968     47.2188295
  8.5250736    47.2188488
  8.5251449    47.2188059
  8.5252316    47.2187403
  8.5253914    47.2187206
  8.5255002    47.218749
  8.5255751    47.2188046
  8.5256381    47.21882
  8.5257035    47.2188716
  8.5257746    47.2188755
  8.5258743    47.2188083
  8.525882     47.2187389
  8.5258751    47.2186541
  8.5258967    47.2185954
  8.5259433    47.2185738
  8.5260174    47.2186071
  8.5261052    47.2186268
  8.526249     47.2185889
  8.5264182    47.2186493
  8.526551     47.2186537
  8.5266334    47.2186748
  8.5267155    47.2187099
  8.5268041    47.2187058
  8.52689      47.2186809
  8.5269768    47.2186401
  8.5270423    47.2186274
  8.52722      47.2186273
  8.5272634    47.2186131
  8.5273001    47.2185804
  8.5273581    47.2185767
  8.5274722    47.2186007
  8.5276389    47.2185976
  8.5276935    47.2186096
  8.5277621    47.218612
  8.5278905    47.2186146
  8.5279852    47.2186104
  8.5280159    47.2185979
  8.5281784    47.2186037
  8.5282128    47.2186205
  8.5283326    47.2186109
  8.5284446    47.2185851
  8.5285524    47.2185362
  8.5286638    47.2185291
  8.5287392    47.2185633
  8.5288077    47.218569
  8.5288848    47.2185279
  8.5289674    47.218452
  8.5289962    47.2184362
  8.5290673    47.2184371
  8.5291699    47.2184029
  8.529252     47.2183226
  8.5293012    47.2183183
  8.5296295    47.2182628
  8.5297082    47.2182265
  8.5298287    47.2181893
  8.5299361    47.2181707
  8.5299983    47.2181419
  8.530044     47.2180729
  8.5300914    47.2179633
  8.5301242    47.2179073
  8.5300984    47.2178051
  8.5301079    47.2177744
  8.5301375    47.2177514
  8.5302524    47.2177122
  8.5303817    47.2177166
  8.5305053    47.2177026
  8.5306504    47.2177062
  8.530723     47.2176891
  8.5308795    47.2175992
  8.5309698    47.2175643
  8.53109      47.2175614
  8.5311011    47.2176231
  8.5311527    47.2176578
  8.5312197    47.2176786
  8.5312444    47.2177026
  8.5314034    47.2177606
  8.5315203    47.2178379
  8.5315616    47.2178832
  8.5315773    47.2179369
  8.5315698    47.218013
  8.531583     47.2180591
  8.5316476    47.2181169
  8.5317817    47.2182093
  8.5319006    47.2182681
  8.5318918    47.2182992
  8.5318406    47.2183511
  8.5318345    47.2184048
  8.5318748    47.2184511
  8.5318699    47.2184809
  8.5318144    47.2185239
  8.531828     47.2185715
  8.5318346    47.2186262
  8.5318113    47.2186625
  8.5318219    47.2187081
  8.5317825    47.2187426
  8.5317551    47.2188276
  8.5317648    47.2189003
  8.531705     47.2189306
  8.5317334    47.2190213
  8.5317311    47.2190578
  8.5316923    47.2190917
  8.5317659    47.2191491
  8.5317475    47.2192227
  8.5317577    47.2192765
  8.531829     47.2193384
  8.5317903    47.2194157
  8.5318153    47.2194536
  8.5318679    47.2194929
  8.5318826    47.2195384
  8.5318327    47.2195952
  8.5318255    47.2196387
  8.5318709    47.219709
  8.5318758    47.2197486
  8.5318548    47.2198149
  8.5318574    47.2199049
  8.5319344    47.2199659
  8.5319074    47.2200386
  8.5319061    47.2200935
  8.5319506    47.2201499
  8.5320559    47.2202141
  8.5321043    47.2202694
  8.5321199    47.2203123
  8.5321808    47.2203647
  8.5322739    47.2203986
  8.5323018    47.2204602
  8.5323049    47.2204821
  8.5323826    47.2204973
  8.5324124    47.2205348
  8.5325253    47.2206485
  8.5325236    47.2207067
  8.5325756    47.2208729
  8.5325577    47.2209428
  8.5325376    47.2209743
  8.5325345    47.2209991
  8.5325493    47.2210467
  8.5325719    47.221226
  8.5326019    47.2212762
  8.5325998    47.2213271
  8.5326276    47.2213682
  8.5326213    47.2214465
  8.5326012    47.2215277
  8.5325963    47.2215856
  8.5326101    47.2216721
  8.5325718    47.2217018
  8.5325448    47.2217441
  8.5325691    47.2218157
  8.5325216    47.2218915
  8.5324852    47.2219857
  8.5324778    47.2220487
  8.5324796    47.2220869
  8.5325097    47.2221129
  8.5325287    47.2221047
  8.5325536    47.2221313
  8.5326217    47.222094
  8.5329684    47.2218507
  8.5331259    47.2217508
  8.5333338    47.2216391
  8.5335557    47.2215404
  8.533745     47.2214705
  8.5357242    47.2208065
  8.5358702    47.2207327
  8.5359639    47.2206481
  8.5360864    47.2206122
  8.5363727    47.2205994
  8.5364187    47.2206609
  8.5364085    47.2207201
  8.5364968    47.2207816
  8.536521     47.2208344
  8.5365756    47.2208644
  8.5365431    47.2209843
  8.5365989    47.2210415
  8.5366687    47.2211528
  8.5366472    47.221264
  8.5366586    47.2213959
  8.5366077    47.2215471
  8.5366595    47.2215896
  8.5366738    47.2216619
  8.5367283    47.2217814
  8.5368488    47.2217843
  8.5369301    47.2218003
  8.5369888    47.2218424
  8.5370896    47.2218564
  8.5372121    47.2219442
  8.5374508    47.2220145
  8.5374987    47.2220729
  8.5375599    47.2220889
  8.5376451    47.2221221
  8.5377538    47.2221269
  8.5377867    47.2221737
  8.5379117    47.2222067
  8.5379647    47.2222017
  8.5380068    47.2222055
  8.538123     47.2222946
  8.5382735    47.2223586
  8.5383324    47.222357
  8.5384383    47.2224304
  8.5384809    47.2224282
  8.538577     47.2225466
  8.5386656    47.2225649
  8.5387527    47.2225886
  8.5388057    47.2226697
  8.5388713    47.2226723
  8.5389284    47.22269
  8.5390066    47.2226997
  8.5390678    47.2227385
  8.5391008    47.2227997
  8.5391709    47.2228443
  8.5391657    47.2229042
  8.5392189    47.2230062
  8.5392256    47.223054
  8.5393407    47.2230799
  8.5393828    47.2230744
  8.5394525    47.2230587
  8.5396051    47.2230163
  8.5397887    47.2230155
  8.5398611    47.2229867
  8.5405939    47.2227373
  8.5432319    47.222074
  8.5434507    47.2220457
  8.5444296    47.2219202
  8.5451075    47.2217077
  8.5451561    47.2215281
  8.5454087    47.2215146
  8.5455956    47.2214971
  8.5458894    47.2213958
  8.5461981    47.2216201
  8.5464828    47.2217788
  8.5468185    47.2219351
  8.5469514    47.221965
  8.5471848    47.2219641
  8.547253     47.2219438
  8.5472993    47.2219427
  8.5473072    47.2219745
  8.5480091    47.2219793
  8.5486503    47.2220065
  8.5499788    47.2218757
  8.5512347    47.2216961
  8.5526717    47.2216317
  8.5529656    47.2216542
  8.5531056    47.2220231
  8.5538472    47.2232358
  8.5542553    47.2230551
  8.5545387    47.2229365
  8.5554638    47.2225639
  8.5574876    47.2216996
  8.5575904    47.2216519
  8.5576885    47.2215998
  8.5578207    47.2215176
  8.5579411    47.2214276
  8.5580486    47.2213306
  8.5581426    47.2212273
  8.5582461    47.2212662
  8.5583067    47.2211868
  8.5583652    47.2210958
  8.5587891    47.2203186
  8.558838     47.2202598
  8.5589601    47.2202036
  8.5596303    47.2198461
  8.5598921    47.2197173
  8.5603556    47.2195427
  8.5610963    47.2195431
  8.5626531    47.2195568
  8.5635175    47.219574
  8.5641283    47.219613
  8.564168     47.219613
  8.5642244    47.2195971
  8.5645659    47.2194659
  8.5646111    47.2194387
  8.5647559    47.219385
  8.5648872    47.2193494
  8.5649108    47.2193355
  8.5651832    47.2192543
  8.5652687    47.2192447
  8.5653       47.21923
  8.5655229    47.2191539
  8.5655521    47.2191513
  8.5657658    47.2190717
  8.5657842    47.2191043
  8.5662645    47.218967
  8.5667276    47.2186781
  8.5669622    47.218577
  8.5671457    47.2185222
  8.5676481    47.2184862
  8.568128     47.2185216
  8.5685068    47.2185237
  8.5699527    47.2183833
  8.5702746    47.2183907
  8.5709091    47.2184993
  8.5712705    47.2185061
  8.5724071    47.2184251
  8.5728506    47.2183832
  8.5731243    47.2182935
  8.5736566    47.2179454
  8.5742508    47.2177151
  8.5743639    47.2176302
  8.5743978    47.2175198
  8.5743158    47.2171803
  8.5743419    47.2170915
  8.574374     47.2170666
  8.5744763    47.2170175
  8.5747217    47.2170082
  8.5757032    47.2171982
  8.5761125    47.2173083
  8.5765741    47.2175242
  8.5765454    47.2175665
  8.5767123    47.2176473
  8.5766688    47.2178088
  8.5767844    47.2178638
  8.576657     47.2187363
  8.576827     47.2187111
  8.577169     47.2186605
  8.5773455    47.2183372
  8.5777163    47.218037
  8.5783078    47.2177706
  8.5789935    47.2175876
  8.5797203    47.2175067
  8.5804559    47.2175318
  8.5810964    47.2176436
  8.582027     47.2179174
  8.5823865    47.2179524
  8.5826926    47.2179184
  8.5829732    47.2178283
  8.5832065    47.2176891
  8.5833747    47.217511
  8.5834765    47.2171664
  8.5833397    47.2168275
  8.5814036    47.2153017
  8.5811377    47.214952
  8.5810128    47.2145568
  8.5810266    47.2142353
  8.5811402    47.2139231
  8.5817529    47.2131533
  8.5819983    47.2127019
  8.5821221    47.2122279
  8.5822063    47.2110999
  8.5823311    47.2108648
  8.5825604    47.2106697
  8.5829406    47.2105168
  8.5833888    47.2104762
  8.5846485    47.2106137
  8.5848243    47.2106588
  8.5854032    47.2108073
  8.5858463    47.210999
  8.5862389    47.2112372
  8.5867194    47.2116488
  8.5871077    47.2121352
  8.5874798    47.2124238
  8.5878798    47.2125701
  8.5882371    47.2126088
  8.5889231    47.2124612
  8.5900337    47.2118055
  8.5913716    47.2115264
  8.5920252    47.2116821
  8.5931959    47.2120671
  8.5936248    47.2121195
  8.5941607    47.2120538
  8.5944917    47.2119147
  8.5948362    47.211671
  8.5953302    47.2111938
  8.5957595    47.2105364
  8.5963256    47.2099123
  8.5967369    47.2096441
  8.5974342    47.2092893
  8.5976923    47.2089449
  8.5976862    47.2085527
  8.5975569    47.2082536
  8.5966574    47.20719
  8.5965866    47.2068174
  8.5972926    47.2061194
  8.5973547    47.205718
  8.5971952    47.2055717
  8.5970178    47.2054997
  8.596619     47.2054898
  8.5963772    47.2052848
  8.5963285    47.2048909
  8.5965065    47.2042472
  8.596806     47.2036937
  8.5974362    47.2029285
  8.5975807    47.2028322
  8.5979331    47.2027099
  8.5982047    47.2019983
  8.598351     47.2017737
  8.5985798    47.2015807
  8.5990227    47.201431
  8.5993855    47.2014269
  8.6000229    47.2015698
  8.6019559    47.202784
  8.6021877    47.2028694
  8.603054     47.2029903
  8.6031501    47.2030382
  8.6033226    47.203144
  8.6043799    47.2040517
  8.6048301    47.2046589
  8.6051051    47.2049224
  8.6055387    47.2051348
  8.6060413    47.2052421
  8.6078492    47.2047353
  8.6082129    47.2045832
  8.6088948    47.2044377
  8.609254     47.2041453
  8.6096597    47.2034458
  8.610216     47.2029913
  8.6107966    47.2026822
  8.6124553    47.202238
  8.6128012    47.2020019
  8.6129381    47.2018634
  8.6130009    47.2012366
  8.6131818    47.2010585
  8.6133676    47.2005636
  8.6134837    47.2004437
  8.6140855    47.2000795
  8.6145453    47.1998625
  8.6149032    47.1995116
  8.6151626    47.1993406
  8.6151647    47.199338
  8.6155291    47.1989288
  8.6157158    47.1986164
  8.6159562    47.1974459
  8.6163115    47.1967222
  8.6171004    47.1956303
  8.617889     47.1949915
  8.618166     47.1945483
  8.618204     47.1942177
  8.618114     47.1938917
  8.6173259    47.192785
  8.6173028    47.1925249
  8.6173989    47.1922804
  8.6176826    47.1920129
  8.6183183    47.1917729
  8.6189944    47.1912229
  8.6201754    47.1907696
  8.6207215    47.1904848
  8.6208884    47.1903461
  8.6209865    47.1901471
  8.6209712    47.1899209
  8.6206003    47.1890584
  8.6204957    47.1885944
  8.620485     47.1881079
  8.62063      47.1877462
  8.6220496    47.186253
  8.6239443    47.1839919
  8.6255851    47.1822106
  8.6258155    47.1817877
  8.6259053    47.1810485
  8.6260453    47.1807269
  8.6264366    47.1804638
  8.6277425    47.1799279
  8.6279836    47.17973
  8.6281061    47.1794998
  8.6281526    47.1792337
  8.628039     47.1789785
  8.6269894    47.1778519
  8.6264726    47.1774379
  8.6253626    47.1767834
  8.6251046    47.1765264
  8.6246032    47.1753112
  8.6241017    47.1748363
  8.6239512    47.1745919
  8.6238235    47.1738457
  8.6239808    47.1733578
  8.6242864    47.1730314
  8.6247465    47.1727403
  8.6253545    47.1725055
  8.6260229    47.1723475
  8.628389     47.1720694
  8.631116     47.1721771
  8.6323152    47.1719947
  8.6327984    47.1718716
  8.632817     47.1718654
  8.6334376    47.1716605
  8.6337707    47.1716071
  8.6358177    47.1717336
  8.6370046    47.1717432
  8.6385575    47.1716362
  8.6393544    47.1714726
  8.6396757    47.171314
  8.6398036    47.1710719
  8.6393401    47.1700017
  8.6393474    47.1697813
  8.6394709    47.1695705
  8.6396575    47.1694242
  8.6398915    47.1693261
  8.6411143    47.1690079
  8.6417083    47.1689273
  8.6422161    47.1689325
  8.6427129    47.169004
  8.6459476    47.1698416
  8.6470359    47.1699334
  8.6481267    47.1701662
  8.6502973    47.1703432
  8.6508219    47.1704962
  8.6518569    47.1709525
  8.6522674    47.171037
  8.6526088    47.1710293
  8.6529328    47.1709557
  8.6548611    47.170056
  8.6552255    47.1699424
  8.6556161    47.1698811
  8.6560881    47.1698796
  8.6565472    47.1699542
  8.6577323    47.1704474
  8.6584506    47.1705926
  8.6591236    47.1705787
  8.6606606    47.1703235
  8.6606377    47.1699237
  8.6605044    47.1697851
  8.6604343    47.1695578
  8.660506     47.16938
  8.6604282    47.1692561
  8.6605157    47.1689209
  8.6606222    47.1688759
  8.6607821    47.1686895
  8.6608596    47.1687045
  8.6608856    47.1685035
  8.6610944    47.1682073
  8.6610916    47.1681529
  8.6610834    47.1679932
  8.6607945    47.1673915
  8.6608066    47.1666192
  8.6607446    47.1665916
  8.660876     47.1658193
  8.66094      47.1654229
  8.6607134    47.1644926
  8.6607949    47.1643272
  8.6607025    47.1641734
  8.6603676    47.163946
  8.6603814    47.1638044
  8.6606216    47.1633874
  8.6607083    47.162849
  8.6609122    47.1623679
  8.6612293    47.1609515
  8.6613832    47.1607603
  8.6623383    47.1605236
  8.6627626    47.1605003
  8.6634986    47.1605451
  8.6640042    47.1603351
  8.6647025    47.1599354
  8.6657734    47.1596659
  8.6661344    47.1596092
  8.6665988    47.1596112
  8.6673234    47.1594848
  8.6681773    47.1594597
  8.6702625    47.1597094
  8.6719412    47.1597015
  8.6725959    47.1595221
  8.6741655    47.1594376
  8.6749784    47.1594451
  8.6755051    47.1596732
  8.6760544    47.1600639
  8.6763309    47.1606546
  8.6763556    47.1607073
  8.6776843    47.1609858
  8.679279     47.1615395
  8.6803255    47.1619856
  8.6812578    47.1620117
  8.6824264    47.1621422
  8.6835709    47.1623554
  8.6839846    47.1624608
  8.6841007    47.1625297
  8.684673     47.1626311
  8.6852637    47.1626732
  8.6870422    47.1625743
  8.6887916    47.1627193
  8.6904855    47.1629635
  8.6916139    47.1632913
  8.692195     47.1634006
  8.6922231    47.1634049
  8.6927328    47.1634824
  8.6935705    47.1634097
  8.6951804    47.1631583
  8.6958222    47.1629404
  8.6964851    47.1610433
  8.6967329    47.1605539
  8.6967999    47.1601573
  8.6966374    47.1598417
  8.6967358    47.1594656
  8.6968412    47.1593179
  8.6970909    47.1591505
  8.6976774    47.1590204
  8.698121     47.1588125
  8.6982844    47.158484
  8.698081     47.1578442
  8.6981409    47.1571684
  8.6980947    47.1567673
  8.6986927    47.156264
  8.6991986    47.1550115
  8.6990683    47.154887
  8.6990805    47.1546722
  8.6988965    47.1542062
  8.6985612    47.1537335
  8.6987568    47.1528649
  8.6989431    47.152485
  8.6992477    47.1522305
  8.7008589    47.1513971
  8.7011586    47.1509463
  8.7005063    47.1509529
  8.6993234    47.150638
  8.6990893    47.1505364
  8.6990087    47.1504392
  8.69882      47.1497449
  8.6986691    47.1495896
  8.6985048    47.1495148
  8.6983202    47.1495658
  8.6982488    47.1496425
  8.6979861    47.1501053
  8.6975641    47.1503303
  8.6958618    47.1500766
  8.6954889    47.1498244
  8.6955093    47.1497612
  8.6952521    47.1494897
  8.6946469    47.1493981
  8.6940729    47.1491241
  8.6934021    47.1489417
  8.6930276    47.1486392
  8.692829     47.1482918
  8.6926434    47.148147
  8.6925398    47.1480662
  8.6923399    47.1479806
  8.6920843    47.147931
  8.6907315    47.1478725
  8.6905716    47.1478263
  8.6903762    47.1476146
  8.6902511    47.1472728
  8.6900408    47.147009
  8.6892788    47.1464505
  8.688497     47.1460839
  8.6881869    47.1457056
  8.6878956    47.145061
  8.6874764    47.1446823
  8.687286     47.1445725
  8.6868295    47.1440855
  8.6864147    47.1434137
  8.6859336    47.1428384
  8.6858133    47.1424622
  8.685689     47.14232
  8.6852892    47.1420893
  8.6850912    47.1420786
  8.6847721    47.1419273
  8.6845239    47.1412331
  8.6842567    47.1407848
  8.6842014    47.1400605
  8.6843253    47.1395428
  8.6845806    47.1387585
  8.6850463    47.1383842
  8.6852348    47.1379328
  8.685261     47.1374847
  8.6854585    47.1374041
  8.6859862    47.137305
  8.6864247    47.1371131
  8.6867036    47.1370963
  8.6872702    47.1371948
  8.6875251    47.137145
  8.6876173    47.137066
  8.6876044    47.1369321
  8.6872607    47.136697
  8.6871677    47.1364565
  8.6870782    47.1363077
  8.6870513    47.1363134
  8.6864178    47.1361201
  8.6863467    47.1358794
  8.686658     47.135559
  8.6872231    47.1352794
  8.6872682    47.1350679
  8.6872215    47.1348244
  8.6875144    47.1346086
  8.6874657    47.1344575
  8.6873748    47.13442
  8.6872435    47.1344752
  8.6868934    47.1345044
  8.6864364    47.1346431
  8.686326     47.1348114
  8.6861917    47.1348401
  8.6860168    47.1348021
  8.6858208    47.1346983
  8.6858066    47.1344587
  8.6853897    47.13432
  8.6853992    47.1340111
  8.6851207    47.1338412
  8.6851053    47.1335878
  8.6853165    47.133321
  8.6852631    47.1331731
  8.6851375    47.1331359
  8.6850269    47.1331552
  8.6849254    47.1333105
  8.6847821    47.1333216
  8.6845886    47.1331466
  8.6843685    47.1331001
  8.6843678    47.1330234
  8.6845266    47.132822
  8.6845659    47.1324911
  8.6848523    47.1324774
  8.68504      47.1322429
  8.6848806    47.1320048
  8.6845327    47.1320138
  8.6843722    47.1319298
  8.6843864    47.131839
  8.685067     47.1317282
  8.6851321    47.1316862
  8.6850773    47.1315831
  8.6853541    47.1313466
  8.6858364    47.1314472
  8.6859318    47.131427
  8.6860413    47.1312669
  8.6854813    47.1307218
  8.6849638    47.1307882
  8.6845204    47.1309044
  8.6841218    47.1308425
  8.6840031    47.1307556
  8.6841576    47.1306246
  8.684551     47.1306125
  8.684621     47.1305518
  8.6845925    47.1304358
  8.6843703    47.1303659
  8.6843442    47.1301628
  8.684445     47.1300529
  8.6847222    47.1300529
  8.6847462    47.1298728
  8.6843697    47.1296697
  8.6840633    47.1296044
  8.6839288    47.1293845
  8.6836632    47.12925
  8.6835828    47.129126
  8.6832807    47.128955
  8.6833       47.12882
  8.6835235    47.1286151
  8.683508     47.1284749
  8.6833423    47.1283563
  8.6830789    47.1283979
  8.682995     47.1282878
  8.6830352    47.1280387
  8.6829852    47.1279807
  8.6827578    47.1279838
  8.6825358    47.1277697
  8.6825223    47.127646
  8.6823892    47.1275858
  8.6823597    47.1275321
  8.6824242    47.1274107
  8.6826182    47.1273104
  8.6826381    47.1271838
  8.6825145    47.1270302
  8.6823027    47.1270141
  8.682232     47.126927
  8.682263     47.1267246
  8.6825647    47.1265408
  8.6825513    47.1264604
  8.6823333    47.1263942
  8.6822614    47.1262956
  8.6823989    47.125967
  8.682315     47.1258122
  8.6822203    47.1257467
  8.6818296    47.1257061
  8.6815027    47.125557
  8.6814676    47.1253779
  8.681647     47.1252781
  8.6818176    47.1250636
  8.6817849    47.1250232
  8.6813018    47.1248226
  8.680901     47.1247957
  8.680556     47.1248549
  8.6803841    47.1247386
  8.6799802    47.1247563
  8.6798955    47.1247102
  8.6796688    47.1243645
  8.679445     47.1242225
  8.6790272    47.1243145
  8.6787324    47.1245716
  8.6785393    47.1246145
  8.678275     47.1245266
  8.6779484    47.1242754
  8.6775352    47.1240886
  8.6773071    47.1238856
  8.6774265    47.1235772
  8.6774142    47.1233694
  8.6775755    47.1231488
  8.6775614    47.1230715
  8.6772115    47.1231614
  8.6767842    47.1230791
  8.6770955    47.1227897
  8.6777106    47.1224362
  8.677714     47.1223197
  8.6774545    47.1222673
  8.6773035    47.1222974
  8.6772383    47.1224366
  8.6771656    47.1224305
  8.677055     47.1222589
  8.6766254    47.1224655
  8.6765164    47.122488
  8.6764479    47.1224361
  8.6763236    47.1224462
  8.6762856    47.1223993
  8.6764113    47.1222119
  8.6764041    47.1221201
  8.6762919    47.1220795
  8.6761396    47.122195
  8.6759645    47.1220827
  8.6758589    47.121865
  8.6757049    47.1217612
  8.6757383    47.1216659
  8.6759824    47.1215969
  8.6760031    47.1214746
  8.6757201    47.1213449
  8.6756513    47.121239
  8.6755041    47.1211895
  8.6749523    47.1213782
  8.6747115    47.1214145
  8.6746476    47.1213507
  8.6748355    47.1211906
  8.6748274    47.121146
  8.6747155    47.1210858
  8.6745757    47.1211544
  8.6743873    47.1211131
  8.6742796    47.1209328
  8.674153     47.1208481
  8.6742436    47.1207816
  8.6741927    47.1207137
  8.6740813    47.1206961
  8.6737886    47.1208621
  8.6735114    47.1208966
  8.673445     47.1206573
  8.6731212    47.1205116
  8.6726149    47.120481
  8.6725093    47.1203783
  8.6725551    47.1201868
  8.6725023    47.1201008
  8.6721755    47.1199945
  8.6721204    47.1198709
  8.6719624    47.1197691
  8.671979     47.1196665
  8.6721124    47.1195164
  8.6720958    47.1194223
  8.6722654    47.1193677
  8.6722808    47.119298
  8.6721844    47.1192372
  8.6718992    47.1192456
  8.6719095    47.119035
  8.6718337    47.1189837
  8.6716366    47.1190144
  8.6713521    47.1189805
  8.6712497    47.1190872
  8.6707237    47.1191227
  8.6707594    47.1189283
  8.6710249    47.1187224
  8.6712003    47.1184359
  8.671151     47.1183845
  8.6709267    47.1184505
  8.6707794    47.1183743
  8.6706216    47.1183868
  8.6705245    47.1182034
  8.6709674    47.118055
  8.6711564    47.1182727
  8.6713473    47.1182159
  8.6715324    47.1182475
  8.6717204    47.1181057
  8.6716658    47.1180192
  8.6713122    47.1179936
  8.671205     47.117882
  8.6713001    47.1177676
  8.6714943    47.117739
  8.6716065    47.1178063
  8.6716691    47.1177933
  8.6717121    47.1176139
  8.6714745    47.1176679
  8.6714197    47.1176195
  8.6716428    47.1172549
  8.67145      47.1172087
  8.6718766    47.1169341
  8.6720103    47.1169387
  8.6720204    47.1168353
  8.6714519    47.1168793
  8.6712481    47.1169455
  8.6710288    47.116875
  8.6709954    47.1168259
  8.671043     47.1167592
  8.6711543    47.1167403
  8.6714571    47.1163817
  8.6714114    47.1161449
  8.671281     47.1159945
  8.6713723    47.115953
  8.6714854    47.1159676
  8.6717537    47.1161
  8.6718187    47.1156858
  8.6716624    47.1156886
  8.6715945    47.1157566
  8.671431     47.1158005
  8.6714193    47.1157405
  8.6670624    47.1156745
  8.6662073    47.1152275
  8.6653465    47.114978
  8.6645924    47.1150798
  8.6638669    47.1149939
  8.6631351    47.1150696
  8.6627378    47.1151929
  8.6622671    47.1150883
  8.6608635    47.1150368
  8.6598022    47.1146795
  8.6601548    47.113192
  8.6601827    47.1131436
  8.6606392    47.1123514
  8.660552     47.1118319
  8.6597737    47.1109216
  8.659065     47.1105742
  8.6581044    47.1101881
  8.6567072    47.1092164
  8.655843     47.1087246
  8.6556746    47.1085343
  8.6537711    47.1078582
  8.6493173    47.1034389
  8.6480663    47.1021975
  8.645478     47.0996286
  8.6449107    47.0958604
  8.6421843    47.094961
  8.6413436    47.0943868
  8.6406549    47.0945436
  8.6372427    47.0933307
  8.6346367    47.0933454
  8.6318906    47.0936262
  8.6302625    47.093555
  8.6299799    47.0938052
  8.6275861    47.0938069
  8.6259369    47.0938761
  8.6229883    47.0947158
  8.6117845    47.0949744
  8.6086995    47.0944522
  8.6078212    47.0927263
  8.6074503    47.0919973
  8.6031982    47.0911725
  8.5999374    47.09054
  8.5987714    47.0906108
  8.598187     47.0905828
  8.5975568    47.0909182
  8.5961501    47.0914743
  8.5954874    47.0912907
  8.5948886    47.0909053
  8.5944167    47.0907432
  8.5937801    47.0906218
  8.5936563    47.0904161
  8.5932349    47.0903406
  8.5924004    47.0895964
  8.5919073    47.0893327
  8.5913162    47.0891481
  8.591256     47.088981
  8.5909215    47.0888801
  8.5901       47.086405
  8.5873303    47.0856817
  8.5865465    47.0855798
  8.5857115    47.0854712
  8.5856043    47.0855637
  8.5851626    47.0854714
  8.5835254    47.0846564
  8.5817208    47.0841235
  8.5810923    47.0839982
  8.5798346    47.0839544
  8.5786376    47.084088
  8.5785812    47.0840528
  8.5781226    47.0842397
  8.5779523    47.084375
  8.5776015    47.0844832
  8.5758131    47.0832819
  8.5751182    47.0828151
  8.5742817    47.0822531
  8.5734971    47.0820268
  8.5729575    47.0820262
  8.5722891    47.0819462
  8.5716468    47.081957
  8.5709437    47.081852
  8.5703047    47.0817203
  8.5699991    47.0816037
  8.5695517    47.081214
  8.5694318    47.0812142
  8.569303     47.081231
  8.5690647    47.0811711
  8.5687684    47.0811463
  8.5686177    47.0810831
  8.5685036    47.0811062
  8.568469     47.0811132
  8.56837      47.0811033
  8.5678096    47.081107
  8.5675107    47.0810849
  8.5673866    47.0810589
  8.5673252    47.0810461
  8.5671107    47.081047
  8.5671157    47.0810738
  8.5670473    47.0810798
  8.5669163    47.0810468
  8.5667391    47.0810675
  8.566455     47.0810349
  8.5658649    47.0810315
  8.5656742    47.0810303
  8.5655021    47.0810745
  8.5652454    47.0811138
  8.565094     47.0811176
  8.5649079    47.0811869
  8.5648312    47.0812926
  8.5647093    47.0813447
  8.5646706    47.0813614
  8.5646172    47.0813843
  8.5645738    47.0813895
  8.5644465    47.0814049
  8.5643989    47.0814106
  8.5643575    47.0814432
  8.5643207    47.0814724
  8.5641424    47.0814875
  8.5639663    47.0815025
  8.5638683    47.0815107
  8.5637046    47.0815068
  8.5634306    47.0816298
  8.56334      47.08177
  8.5630247    47.0819047
  8.5628857    47.082172
  8.5625069    47.0829007
  8.5627175    47.0831381
  8.5628495    47.083809
  8.5631454    47.0839015
  8.5632756    47.0841959
  8.5633037    47.0842831
  8.5634192    47.0846422
  8.5634721    47.0850667
  8.5636579    47.0853649
  8.563917     47.0857807
  8.5641856    47.0859824
  8.5642419    47.0860484
  8.5645612    47.0864233
  8.5648268    47.0867351
  8.5648832    47.087262
  8.5645921    47.0874557
  8.5645128    47.0875084
  8.5643409    47.0876229
  8.5641293    47.0879971
  8.5640007    47.088295
  8.5638912    47.0885662
  8.5638111    47.0889207
  8.5638717    47.0894422
  8.5636797    47.0901811
  8.5637288    47.0907906
  8.5636692    47.091534
  8.5636043    47.091951
  8.5632918    47.09261
  8.5628958    47.0932413
  8.5624592    47.0937531
  8.5615341    47.0936614
  8.5609927    47.0937589
  8.5583649    47.0939574
  8.5559963    47.0934349
  8.5526615    47.0940347
  8.5524106    47.0940147
  8.5522323    47.0940005
  8.5519028    47.0939743
  8.5517462    47.0938643
  8.5513865    47.09383
  8.5506151    47.0938573
  8.5499176    47.0936996
  8.549007     47.0937118
  8.5486517    47.0936577
  8.5484538    47.0937465
  8.5481939    47.0937847
  8.547815     47.0937015
  8.5471526    47.0937092
  8.5470498    47.0938419
  8.5466828    47.0939599
  8.5463373    47.0941387
  8.5463104    47.0942999
  8.546129     47.0943491
  8.5458982    47.0944117
  8.5454773    47.0943154
  8.5450842    47.0943973
  8.5445098    47.0943601
  8.5443411    47.0944597
  8.5442002    47.0944572
  8.5437912    47.0942518
  8.5437207    47.0941455
  8.5434569    47.0940814
  8.5433816    47.0939038
  8.543167     47.0937532
  8.5430366    47.0938188
  8.5428043    47.0938244
  8.542702     47.093778
  8.5426957    47.0936906
  8.5425511    47.0936303
  8.5422722    47.0934773
  8.5421713    47.0933393
  8.5420763    47.0933387
  8.5420213    47.0932809
  8.5414775    47.0929029
  8.5409344    47.0926565
  8.5408652    47.0923747
  8.5407772    47.092275
  8.540499     47.0922498
  8.5398684    47.0919997
  8.5392858    47.0920716
  8.5380986    47.0918918
  8.5375679    47.0919133
  8.5373006    47.0918171
  8.5368771    47.0917868
  8.5363362    47.0918052
  8.5360531    47.0919204
  8.5359392    47.0919668
  8.5356093    47.0921011
  8.5353887    47.0920149
  8.5350777    47.0920935
  8.5343118    47.092068
  8.5337494    47.0920189
  8.5334674    47.0918226
  8.5324546    47.0917619
  8.5318718    47.0916557
  8.5315473    47.0917059
  8.531067     47.0914986
  8.530906     47.0914741
  8.5300763    47.0916582
  8.5295768    47.0916343
  8.5293878    47.0915751
  8.5287125    47.0916719
  8.5281224    47.0916768
  8.5279489    47.0916051
  8.5266564    47.0916707
  8.5263202    47.0915887
  8.525702     47.091655
  8.5254632    47.0915896
  8.5251095    47.0913479
  8.524956     47.0911412
  8.5246537    47.090886
  8.5243868    47.0904317
  8.5242349    47.0903362
  8.5237784    47.090327
  8.5236151    47.0903605
  8.5234214    47.0904869
  8.5232336    47.0905179
  8.5219347    47.0898614
  8.5217868    47.0899712
  8.5079389    47.0948919
  8.4930543    47.1001796
  8.4937425    47.1137307
  8.4803817    47.1263259
  8.4671112    47.1188244
  8.4672045    47.1187934
  8.467436     47.1187696
  8.4675325    47.1186792
  8.4675429    47.1186391
  8.4673792    47.1185602
  8.4670906    47.1185412
  8.4669135    47.118456
  8.4668373    47.1183833
  8.4666847    47.1180116
  8.4666452    47.1179927
  8.4665043    47.118046
  8.4663091    47.1180862
  8.4661668    47.1180873
  8.4660802    47.1180363
  8.4660993    47.1177508
  8.466076     47.1176587
  8.4661159    47.1175872
  8.4662705    47.1175089
  8.4662776    47.1174869
  8.4662001    47.117453
  8.4660867    47.1173869
  8.4659368    47.1172822
  8.4659106    47.1171052
  8.4658639    47.1170635
  8.4658034    47.117056
  8.4655756    47.1170897
  8.4654665    47.1170298
  8.4653475    47.1170033
  8.4651269    47.1170025
  8.4648977    47.1170418
  8.4648051    47.1170254
  8.4647786    47.1169869
  8.4648058    47.1168565
  8.4647601    47.116798
  8.4647058    47.1167885
  8.4645285    47.1168819
  8.4644373    47.1168713
  8.4642704    47.1168416
  8.464127     47.116799
  8.4637347    47.1167209
  8.4634353    47.1166326
  8.4632318    47.1165668
  8.4631513    47.1165487
  8.463033     47.1165351
  8.4629836    47.1165191
  8.4626704    47.1164666
  8.4623668    47.116435
  8.462287     47.1164305
  8.4619889    47.116337
  8.4615524    47.1162442
  8.4613178    47.1162074
  8.4610659    47.1161626
  8.4608402    47.1161164
  8.4606242    47.1160604
  8.4603996    47.1159887
  8.4601536    47.115884
  8.45991      47.1157642
  8.4556901    47.1134844
  8.4556105    47.1134467
  8.4548909    47.1134536
  8.4541158    47.1136951
  8.4540713    47.1139634
  8.4539956    47.1141551
  8.4539515    47.1144357
  8.4538506    47.1148353
  8.4536592    47.1153458
  8.4535243    47.1156792
  8.4534337    47.1158521
  8.4535689    47.1159416
  8.4535211    47.1160641
  8.4533442    47.1168257
  8.4530396    47.1175603
  8.4526469    47.1183509
  8.4525451    47.1186195
  8.4524869    47.118892
  8.4522207    47.1196727
  8.4519455    47.1199834
  8.4517605    47.1205494
  8.4517887    47.120741
  8.4517126    47.12104
  8.4515572    47.1210267
  8.4515664    47.1211659
  8.4515552    47.1214024
  8.4515847    47.1214466
  8.4515639    47.1215897
  8.4514665    47.1219848
  8.451141     47.1234992
  8.4510216    47.123492
  8.4508905    47.1242354
  8.4509069    47.1242591
  8.4508905    47.1243338
  8.4508723    47.1243562
  8.4508382    47.1248898
  8.4507864    47.1251971
  8.4498657    47.1295615
  8.449697     47.1300872
  8.449605     47.1304823
  8.4494531    47.1309597
  8.4495715    47.1309692
  8.4495626    47.1310097
  8.4492647    47.1309749
  8.4491313    47.1309023
  8.4487762    47.1305369
  8.4481162    47.1298828
  8.4476026    47.129384
  8.4474949    47.1293031
  8.4471876    47.129544
  8.4469377    47.1294192
  8.4454339    47.1288448
  8.445354     47.1288712
  8.4451609    47.1290871
  8.4447037    47.1291435
  8.4444449    47.1292212
  8.444115     47.1292591
  8.4434775    47.1293874
  8.4431036    47.1294367
  8.4426407    47.1294585
  8.4420826    47.1294939
  8.4416191    47.1294718
  8.4415484    47.1293138
  8.4411642    47.1292703
  8.4412489    47.1289061
  8.4413486    47.1285669
  8.4410572    47.1283886
  8.4406991    47.1282258
  8.44014      47.1279874
  8.4395683    47.1276179
  8.4392753    47.12745
  8.4386577    47.1270158
  8.4381913    47.1268187
  8.4366641    47.1260605
  8.4344354    47.1249876
  8.4321324    47.124604
  8.4319433    47.1247381
  8.4311029    47.124261
  8.4317767    47.1238404
  8.4314441    47.1237611
  8.4311117    47.1235994
  8.4304044    47.1233184
  8.4294525    47.123863
  8.4290177    47.1239192
  8.4288671    47.1241056
  8.4287599    47.1241904
  8.4285246    47.1240349
  8.4279124    47.1237378
  8.4276584    47.1235652
  8.4275618    47.1235555
  8.4272841    47.1233748
  8.4270251    47.1232611
  8.4267924    47.1235231
  8.426699     47.1236009
  8.4260919    47.1236565
  8.4254702    47.123643
  8.4248285    47.1236498
  8.4246561    47.1234258
  8.4247291    47.1229111
  8.42377      47.1225639
  8.4237062    47.1228257
  8.4236317    47.1230725
  8.4234234    47.123512
  8.4228245    47.1232292
  8.4224786    47.1233194
  8.4223023    47.1233493
  8.4220879    47.1234546
  8.4217902    47.1232315
  8.4213366    47.1230622
  8.420326     47.1226271
  8.4189951    47.1234472
  8.4186856    47.1233919
  8.4185506    47.1236061
  8.4183301    47.1236733
  8.4179555    47.1233887
  8.4177067    47.1231598
  8.4178655    47.122987
  8.4180265    47.1227943
  8.4178483    47.1223879
  8.4172671    47.1228238
  8.416935     47.1231283
  8.4165555    47.1235641
  8.4163088    47.1238269
  8.416005     47.1240486
  8.4154042    47.1244137
  8.4148458    47.1252981
  8.4145914    47.1257461
  8.4143557    47.1261875
  8.4143351    47.1265586
  8.4147491    47.1275259
  8.4156891    47.1281245
  8.4159881    47.128838
  8.4162929    47.1294696
  8.4167688    47.1305558
  8.4161829    47.1306585
  8.4155126    47.1307233
  8.4153732    47.1311253
  8.4151796    47.1314979
  8.4153103    47.1316929
  8.4154056    47.1317723
  8.4155939    47.1321206
  8.4156008    47.1322041
  8.4158366    47.1324023
  8.4160136    47.1325584
  8.416008     47.1326875
  8.4160772    47.1327836
  8.4161523    47.133105
  8.4158622    47.1336365
  8.4152378    47.1355823
  8.4134786    47.1381984
  8.4131135    47.1389724
  8.4122156    47.1405651
  8.4123895    47.1407274
  8.4125584    47.1408925
  8.4127219    47.1410599
  8.4128799    47.1412296
  8.413072     47.1414479
  8.4132552    47.1416697
  8.4134293    47.1418948
  8.413594     47.1421232
  8.4137449    47.1423432
  8.4138872    47.1425658
  8.4140208    47.1427908
  8.4141457    47.1430181
  8.4142579    47.1432395
  8.4143617    47.1434628
  8.4144573    47.1436878
  8.4145444    47.1439143
  8.4146218    47.1441368
  8.4146906    47.1443607
  8.4147507    47.1445857
  8.414802     47.1448117
  8.414844     47.1450355
  8.4148775    47.1452599
  8.4149024    47.1454849
  8.4149186    47.1457103
  8.4149285    47.1459351
  8.4149291    47.1461603
  8.4149203    47.1463853
  8.4149021    47.14661
  8.4148742    47.1468364
  8.4148368    47.1470621
  8.4147901    47.147287
  8.4147339    47.147511
  8.4146998    47.1476286
  8.4146634    47.1477458
  8.4146248    47.1478629
  8.414576     47.1480013
  8.4145239    47.1481392
  8.4144686    47.1482766
  8.4144102    47.1484133
  8.4143443    47.1485584
  8.4142749    47.1487028
  8.4142019    47.1488463
  8.4141253    47.1489891
  8.412337     47.1521604
  8.4122471    47.1523497
  8.4121691    47.1525415
  8.4121036    47.1527354
  8.4120504    47.152931
  8.4120051    47.1531548
  8.4119759    47.1533798
  8.4119631    47.1536053
  8.4119665    47.1538313
  8.4119823    47.1540139
  8.4120136    47.1541956
  8.4120606    47.1543757
  8.4121229    47.1545537
  8.4122005    47.1547289
  8.412295     47.1549042
  8.4124047    47.1550754
  8.4125294    47.1552417
  8.4126683    47.1554027
  8.4142187    47.1570549
  8.4145336    47.1573936
  8.4147262    47.157646
  8.414879     47.1578795
  8.4150087    47.1581218
  8.4150826    47.1583023
  8.4151727    47.1585759
  8.4152285    47.158845
  8.4152634    47.1592005
  8.4153168    47.1609992
  8.4153808    47.1627978
  8.4153905    47.1632155
  8.4153645    47.1636975
  8.4153143    47.1641284
  8.4152325    47.1645982
  8.4151304    47.1650272
  8.4149787    47.1654999
  8.4139211    47.1682075
  8.4135761    47.16911
  8.4128447    47.1709153
  8.4120655    47.1728793
  8.4118885    47.1732631
  8.4116636    47.1736239
  8.4114573    47.1738829
  8.4111965    47.1741631
  8.410885     47.174441
  8.4107733    47.174531
  8.4104353    47.1747714
  8.4100575    47.1749977
  8.4095802    47.1752302
  8.4093237    47.1753399
  8.4090216    47.1754455
  8.4086708    47.1755573
  8.4082689    47.1756574
  8.4077746    47.1757542
  8.4033959    47.1763925
  8.4030068    47.1764713
  8.4027526    47.1765662
  8.4025333    47.1766912
  8.402362     47.1768474
  8.402227     47.1770443
  8.4021354    47.1773028
  8.4015466    47.1791069
  8.4012607    47.1800088
  8.400444     47.1827144
  8.4003563    47.1830371
  8.4002735    47.1835807
  8.4002339    47.1840164
  8.4002151    47.1845155
  8.4002269    47.1849903
  8.4002649    47.1854146
  8.4003371    47.1858728
  8.4004302    47.1863128
  8.4005381    47.1867706
  8.4008828    47.1881082
  8.4010241    47.1885568
  8.4012057    47.1890051
  8.4014358    47.1894718
  8.4016758    47.1899007
  8.4019365    47.1902736
  8.4023549    47.1907945
  8.4025974    47.1910663
  8.4032103    47.1916869
  8.4040606    47.1925794
  8.4043739    47.1929025
  8.404629     47.1932179
  8.4047999    47.1934728
  8.4049566    47.1937499
  8.4052126    47.1943689
  8.4053113    47.194821
  8.4053392    47.1952674
  8.4053026    47.1957265
  8.4052024    47.1961681
  8.4050246    47.1966293
  8.4047832    47.1970712
  8.4030783    47.1997842
  8.402519     47.2006884
  8.4023147    47.2011011
  8.402156     47.201591
  8.4020858    47.2019019
  8.401832     47.2042924
  8.4017709    47.2047473
  8.4016727    47.2051934
  8.401524     47.205661
  8.4013426    47.2060957
  8.400731     47.2075041
  8.4005964    47.207901
  8.4004964    47.2083287
  8.4004403    47.2088019
  8.4004218    47.2092756
  8.400456     47.2097014
  8.400841     47.2123968
  8.4009642    47.2132953
  8.4010261    47.2138345
  8.4010207    47.2141943
  8.4009699    47.2145987
  8.4008283    47.2150954
  8.4005762    47.2156081
  8.4003206    47.2159992
  8.400056     47.2163397
  8.3997723    47.2166416
  8.3994833    47.2169058
  8.399109     47.2171995
  8.3984704    47.2176586
  8.397811     47.2181422
  8.3974496    47.2184191
  8.3971692    47.2187183
  8.3968328    47.2191659
  8.3966021    47.2196284
  8.3964966    47.2199645
END
END
