polygon
1
  8.046943     46.7871144
  8.049346     46.788232
  8.0496565    46.7884838
  8.0498112    46.788907
  8.0509682    46.78947
  8.0517044    46.7901487
  8.0521986    46.7904719
  8.0526471    46.7906746
  8.0529496    46.7910358
  8.0534134    46.7912632
  8.0535344    46.7916386
  8.053858     46.791877
  8.0542269    46.7920068
  8.0550271    46.7924104
  8.0553456    46.7927263
  8.0560973    46.7929471
  8.0566951    46.7942139
  8.0566147    46.794614
  8.0568491    46.7949072
  8.056856     46.7954759
  8.056641     46.7960171
  8.0565409    46.7964894
  8.056168     46.7968162
  8.0555824    46.7968665
  8.0551348    46.7972613
  8.0551815    46.7975062
  8.0555534    46.797931
  8.0554266    46.7983224
  8.0548895    46.7986397
  8.0552491    46.7988771
  8.0553063    46.7991638
  8.058367     46.8011089
  8.058531     46.8006718
  8.0596029    46.801051
  8.0606968    46.8016154
  8.061        46.8028021
  8.0615892    46.8028915
  8.0638684    46.8029807
  8.0640579    46.8042984
  8.0642193    46.8048876
  8.0643159    46.8054142
  8.0645183    46.8060696
  8.0645363    46.8061052
  8.0644798    46.8061526
  8.064471     46.8062093
  8.0643653    46.8062884
  8.0642745    46.8063743
  8.0642935    46.8064328
  8.064244     46.8065597
  8.0643001    46.806693
  8.0642725    46.807115
  8.0642798    46.807167
  8.0643526    46.8072551
  8.0644411    46.8073997
  8.0644097    46.8075027
  8.0644098    46.8075883
  8.0644359    46.807681
  8.0644427    46.8077704
  8.0644083    46.8078805
  8.0644497    46.8079395
  8.0644618    46.8080175
  8.0644892    46.8080635
  8.0642409    46.808095
  8.0641175    46.8081332
  8.0641803    46.8084411
  8.0638406    46.8088116
  8.0635895    46.8092333
  8.0632886    46.80971
  8.0627924    46.8103201
  8.0622896    46.8110682
  8.0618139    46.8115848
  8.0615161    46.8120252
  8.0610485    46.8125047
  8.0607822    46.8128799
  8.0605939    46.8131355
  8.060153     46.8136831
  8.0600569    46.8138164
  8.0600284    46.8139024
  8.0595801    46.8144716
  8.0592053    46.814814
  8.058914     46.8152513
  8.0588075    46.8155451
  8.058668     46.8157725
  8.0583912    46.8163004
  8.0578649    46.8167029
  8.0575999    46.8171088
  8.057382     46.8174007
  8.0571666    46.8176779
  8.0566205    46.8181701
  8.0563879    46.8185585
  8.0561114    46.8191152
  8.0560395    46.819283
  8.0561085    46.8195208
  8.0558189    46.8196341
  8.0553086    46.8198932
  8.0553742    46.8199459
  8.0551923    46.8201172
  8.0549541    46.8205544
  8.054693     46.8212608
  8.053773     46.8220146
  8.0533715    46.8225475
  8.0528638    46.8230701
  8.0526591    46.8233951
  8.0524202    46.8239307
  8.0522204    46.8242241
  8.0518712    46.8246362
  8.0515079    46.8251824
  8.0510544    46.8254097
  8.050592     46.8256667
  8.0504478    46.8257782
  8.0477208    46.8283581
  8.0470801    46.8289562
  8.0468046    46.829394
  8.0478033    46.8303196
  8.0477381    46.8316235
  8.0472037    46.8317757
  8.0465997    46.8320326
  8.046373     46.8322686
  8.0460679    46.8326453
  8.0455738    46.8331121
  8.0451016    46.8334394
  8.0447544    46.8338054
  8.0444956    46.8342189
  8.0443087    46.8345014
  8.0434406    46.8351726
  8.0431563    46.8355375
  8.0430752    46.8357906
  8.0424365    46.8362268
  8.0422021    46.8364871
  8.0423183    46.8365693
  8.0435963    46.8392423
  8.044187     46.8401316
  8.0447154    46.8414259
  8.0447982    46.8423736
  8.0453011    46.8432579
  8.0455663    46.8439897
  8.045765     46.8441775
  8.0465605    46.8443775
  8.0480781    46.8449029
  8.0492929    46.8449675
  8.0498002    46.845079
  8.0505435    46.8456561
  8.0507389    46.8461184
  8.051232     46.8463595
  8.0516972    46.8465648
  8.0520586    46.847332
  8.0527239    46.8477206
  8.0534642    46.8481422
  8.0542041    46.8485304
  8.0550675    46.8488082
  8.0559871    46.8493025
  8.0560917    46.8496258
  8.055977     46.8499217
  8.0559885    46.8502353
  8.056288     46.8503957
  8.05697      46.8509839
  8.0571615    46.8513238
  8.0573279    46.8515396
  8.0574596    46.8519321
  8.057727     46.8522662
  8.0583244    46.8526776
  8.0586695    46.8531533
  8.0589455    46.8534335
  8.0584672    46.8536916
  8.0584004    46.8541516
  8.0580531    46.8546311
  8.0579226    46.8552525
  8.0578355    46.8555427
  8.0573307    46.8560096
  8.0578612    46.8562982
  8.0585101    46.8569675
  8.0585133    46.8570732
  8.0582768    46.8571331
  8.0578133    46.8571623
  8.0575872    46.8573091
  8.0575205    46.8574855
  8.0581717    46.8575298
  8.0588453    46.8577231
  8.05915      46.8583233
  8.0595419    46.8586522
  8.0604807    46.8584069
  8.0609773    46.8583691
  8.0614943    46.8580551
  8.0621132    46.8579384
  8.0624783    46.858208
  8.0625718    46.8584711
  8.06269      46.8587061
  8.062777     46.8588649
  8.0637333    46.8586573
  8.0644179    46.8586634
  8.0649681    46.8587378
  8.0650881    46.858899
  8.0656839    46.8596028
  8.0659638    46.8607842
  8.066124     46.8611378
  8.0664304    46.8616641
  8.0672774    46.8624205
  8.0668805    46.8630272
  8.0665343    46.863594
  8.0663166    46.864152
  8.0661219    46.8645516
  8.0662257    46.8653615
  8.0660542    46.865501
  8.0662046    46.8659086
  8.0657603    46.8662781
  8.0658165    46.8664873
  8.0659848    46.8669731
  8.0669654    46.86727
  8.0677501    46.8674096
  8.0687868    46.8680201
  8.0693296    46.8684453
  8.0696996    46.868795
  8.0698967    46.8691528
  8.0698995    46.8693948
  8.0699655    46.8697641
  8.0699104    46.8699848
  8.0698982    46.8701756
  8.0697166    46.8707946
  8.0693505    46.8711186
  8.0691314    46.8712278
  8.0696557    46.8715308
  8.0701311    46.872139
  8.0704029    46.872607
  8.0715978    46.8737177
  8.0713124    46.8741016
  8.0710173    46.8745485
  8.0708141    46.875129
  8.0706586    46.8756165
  8.0702608    46.8761575
  8.070149     46.8769057
  8.0704912    46.8775605
  8.0702564    46.8781222
  8.0702141    46.8787611
  8.0701432    46.8792023
  8.0701298    46.8802963
  8.0708214    46.880207
  8.070959     46.8810851
  8.0710092    46.8815598
  8.0704777    46.8817696
  8.0701528    46.8819207
  8.0693511    46.8820286
  8.0692967    46.8821962
  8.0692107    46.8825835
  8.0688879    46.8829163
  8.0687878    46.8832164
  8.0684359    46.8846486
  8.0675758    46.8858246
  8.0670035    46.8878265
  8.0688544    46.8891243
  8.0696846    46.8907677
  8.0698294    46.8957289
  8.0708476    46.8961052
  8.0718678    46.8964455
  8.072504     46.896835
  8.0731328    46.8971157
  8.0760099    46.8971737
  8.0770168    46.8974137
  8.0780044    46.8973985
  8.078544     46.8976001
  8.0796119    46.8978707
  8.080471     46.8983563
  8.0825989    46.8991756
  8.0826064    46.8995086
  8.083237     46.8998836
  8.0832959    46.9001959
  8.0835792    46.9003185
  8.0838746    46.9015828
  8.0842756    46.9023558
  8.0861036    46.9042556
  8.085846     46.9060727
  8.0866219    46.9066357
  8.0869848    46.9067859
  8.0871006    46.907185
  8.0882567    46.908412
  8.0884024    46.9086242
  8.089117     46.9091492
  8.0914787    46.9094259
  8.0932174    46.9100921
  8.0938768    46.9103335
  8.0939488    46.9105472
  8.094713     46.9110699
  8.0947858    46.9119769
  8.0983677    46.9106103
  8.0994355    46.9099822
  8.0998448    46.9096423
  8.1002543    46.9093603
  8.1007027    46.9090871
  8.1020358    46.908836
  8.1025814    46.9088718
  8.1032144    46.908932
  8.1039017    46.9091349
  8.1050636    46.9088718
  8.1056107    46.9085474
  8.1062396    46.908394
  8.106676     46.9083801
  8.1077268    46.9083829
  8.1085477    46.9082768
  8.1083264    46.9074821
  8.1082988    46.90699
  8.1081466    46.9062883
  8.1078247    46.9057016
  8.1073083    46.9049587
  8.1073624    46.9042122
  8.1072111    46.9039226
  8.1069685    46.903491
  8.106253     46.9013532
  8.1064485    46.9003245
  8.1064357    46.898443
  8.1068708    46.897207
  8.1072987    46.8961434
  8.1076091    46.8948908
  8.1083291    46.8945193
  8.1084697    46.8944064
  8.108945     46.8940605
  8.1094797    46.8936621
  8.1096394    46.8935693
  8.1102649    46.893153
  8.1108466    46.8928524
  8.1111902    46.8927486
  8.1112695    46.8927323
  8.1116475    46.8931351
  8.112745     46.8937723
  8.1129838    46.8945469
  8.1132527    46.8949434
  8.1135996    46.8957118
  8.1140934    46.8963164
  8.1147238    46.8970324
  8.1149121    46.8974756
  8.1153836    46.898306
  8.1158035    46.8988263
  8.1160818    46.8995807
  8.1161551    46.8998228
  8.1162432    46.9001516
  8.1166742    46.9007737
  8.1169754    46.9012297
  8.1172817    46.9018863
  8.1175502    46.9025548
  8.1175345    46.9031037
  8.1180349    46.9036998
  8.1188467    46.9039917
  8.1190732    46.9046437
  8.1197269    46.9051655
  8.1203141    46.9056617
  8.1209153    46.9062464
  8.1214178    46.9068445
  8.1216633    46.9075847
  8.1217795    46.9084298
  8.122249     46.9091662
  8.1226942    46.9096675
  8.1233412    46.9102334
  8.1240636    46.9106846
  8.1247147    46.9113938
  8.1251819    46.9121181
  8.1256682    46.9124824
  8.1263159    46.9131647
  8.1263089    46.9134172
  8.1271205    46.9139903
  8.1278085    46.914355
  8.128449     46.9148813
  8.1286248    46.9155024
  8.1291586    46.9164083
  8.1293304    46.9164933
  8.1298046    46.9172231
  8.1305875    46.9180284
  8.1313634    46.9187533
  8.1322936    46.9195762
  8.133112     46.9200323
  8.1337746    46.9208434
  8.1339715    46.9215355
  8.1344234    46.921942
  8.1346599    46.922254
  8.1355918    46.9227889
  8.1362288    46.9227273
  8.1368546    46.9226605
  8.1378561    46.9229654
  8.1391677    46.9233355
  8.1398694    46.9238565
  8.1403564    46.9245204
  8.140865     46.9249984
  8.1410856    46.9255687
  8.1421539    46.9262667
  8.1431162    46.9268785
  8.1435982    46.9272372
  8.1442143    46.927363
  8.14537      46.9276938
  8.1466644    46.9285132
  8.1476113    46.9294372
  8.1480177    46.9296759
  8.1495532    46.9298783
  8.150712     46.9304603
  8.1516956    46.9309323
  8.1523736    46.9315219
  8.1532226    46.9322285
  8.1541096    46.9329053
  8.1553062    46.9331901
  8.1562409    46.933462
  8.1568709    46.9333961
  8.157399     46.9337372
  8.1578782    46.9342743
  8.1583611    46.9350164
  8.1587651    46.9353553
  8.1591488    46.9357394
  8.1592319    46.9358339
  8.1600276    46.9357691
  8.1605858    46.9359076
  8.16096      46.9360489
  8.1614789    46.9362315
  8.1619612    46.9364639
  8.1622407    46.936801
  8.1626253    46.9369644
  8.1632332    46.9372919
  8.1634947    46.9375173
  8.1637539    46.9376691
  8.1638683    46.9378154
  8.1640614    46.9380902
  8.1641009    46.9381769
  8.1643644    46.9385568
  8.1645421    46.9386962
  8.1647458    46.9388451
  8.1648494    46.9396034
  8.1642807    46.9403513
  8.1638876    46.9409243
  8.1631552    46.9420616
  8.1622555    46.9430721
  8.1618369    46.9434612
  8.1616938    46.9436054
  8.161362     46.94353
  8.1608322    46.9434611
  8.1606405    46.943637
  8.1601597    46.9440572
  8.1534967    46.9499537
  8.1511012    46.9528746
  8.1514776    46.9558094
  8.1513635    46.9561395
  8.151239     46.9562182
  8.1508609    46.9560997
  8.1504152    46.9563157
  8.1505557    46.9565694
  8.1505872    46.9568382
  8.150232     46.9568674
  8.1500097    46.9569293
  8.150248     46.9570249
  8.1502582    46.9572715
  8.1500487    46.9574208
  8.1501059    46.9575254
  8.1503897    46.9576032
  8.1504912    46.9576599
  8.1506181    46.9577705
  8.1506665    46.9579103
  8.1511965    46.9580932
  8.1520163    46.9583936
  8.1523591    46.9584774
  8.1530571    46.9587102
  8.1543406    46.9589185
  8.1549095    46.9590503
  8.1551649    46.9592015
  8.155537     46.9593933
  8.1555857    46.9595617
  8.155429     46.9596661
  8.1551284    46.9597762
  8.1548774    46.9599544
  8.1547537    46.9600936
  8.1547789    46.9602383
  8.1548639    46.9603348
  8.1550433    46.9604061
  8.1557423    46.960498
  8.1558781    46.9607423
  8.1561259    46.9606787
  8.1566032    46.9609096
  8.1567959    46.9612426
  8.1569572    46.96131
  8.1580739    46.9607964
  8.158996     46.961131
  8.1595203    46.9616242
  8.1610583    46.9627507
  8.1622592    46.9634839
  8.1636948    46.9642492
  8.1645392    46.964667
  8.1656911    46.9647363
  8.1664999    46.9649121
  8.1673712    46.9652377
  8.1685195    46.9652768
  8.1705034    46.9659837
  8.1720519    46.9665954
  8.1728352    46.9666181
  8.1738163    46.96717
  8.1748311    46.9672045
  8.1756975    46.9679379
  8.1766723    46.9684447
  8.1780585    46.9687292
  8.1789037    46.9685922
  8.1794932    46.9686505
  8.1807236    46.9686381
  8.1819255    46.9685255
  8.1827976    46.9693047
  8.1834423    46.9696317
  8.1873411    46.9717464
  8.1949872    46.9686957
  8.1998038    46.9674977
  8.201744     46.9670945
  8.2022506    46.9669791
  8.2030297    46.9669303
  8.2065279    46.9673784
  8.2089669    46.9676037
  8.2109546    46.9679227
  8.2140278    46.9684222
  8.2144484    46.9685287
  8.2161784    46.9690834
  8.2186399    46.9692273
  8.2202597    46.9694535
  8.2226462    46.9692081
  8.2259757    46.9690611
  8.227036     46.9692277
  8.2289016    46.9700103
  8.2289366    46.9706396
  8.2291797    46.9713219
  8.229718     46.9721488
  8.2288824    46.9731461
  8.2298718    46.9737289
  8.2306137    46.9734268
  8.2308578    46.9733019
  8.2311419    46.9732256
  8.2317316    46.9732555
  8.2321598    46.9733677
  8.2322735    46.9735314
  8.2323716    46.9736487
  8.2335613    46.9743718
  8.235524     46.9744874
  8.2358304    46.9745107
  8.2370289    46.9742036
  8.2375062    46.9740745
  8.2387682    46.9737733
  8.2389842    46.9737736
  8.239862     46.973694
  8.2404449    46.9736357
  8.240568     46.9735581
  8.2407203    46.97359
  8.2408507    46.973643
  8.2411615    46.9738552
  8.2419286    46.9740487
  8.2433584    46.974263
  8.2437764    46.9743302
  8.2441189    46.9742991
  8.2445305    46.9745743
  8.2450918    46.97484
  8.2456745    46.9750715
  8.2460516    46.9752747
  8.2467925    46.9757775
  8.2470058    46.9758223
  8.2477764    46.9761311
  8.2480682    46.9761495
  8.2482016    46.9762457
  8.2504973    46.9777289
  8.2508832    46.9779137
  8.2510258    46.9781058
  8.2513405    46.978261
  8.2515622    46.978577
  8.2519107    46.9786772
  8.2521451    46.9788413
  8.2523153    46.9788909
  8.2523962    46.9789741
  8.2524925    46.9791025
  8.2529935    46.9795189
  8.2533587    46.9796927
  8.253573     46.9798599
  8.2540385    46.9799803
  8.2542554    46.9801157
  8.2557314    46.9797681
  8.2559596    46.9795649
  8.2564291    46.9794953
  8.2591775    46.9800403
  8.2595082    46.9800081
  8.2598326    46.9801192
  8.2602593    46.980106
  8.2606312    46.9802271
  8.2608624    46.9803637
  8.2610024    46.980339
  8.2610779    46.9802658
  8.2611348    46.9801635
  8.2613399    46.9799242
  8.26168      46.979685
  8.2615737    46.9794554
  8.2615684    46.9793208
  8.2616436    46.9791402
  8.2616304    46.979024
  8.2619396    46.9786032
  8.262256     46.9783787
  8.2624929    46.9781047
  8.2637147    46.9786655
  8.2639887    46.9786268
  8.2643056    46.9785163
  8.2645253    46.9783898
  8.264709     46.9783485
  8.2653687    46.9783259
  8.2658494    46.978423
  8.2667543    46.9784704
  8.2671122    46.9783748
  8.2676917    46.97835
  8.2678906    46.9784257
  8.2687033    46.9787574
  8.269492     46.9788679
  8.2725158    46.9786017
  8.2728736    46.9785362
  8.2733978    46.9784334
  8.2746003    46.978008
  8.2751261    46.9776148
  8.2755286    46.9772771
  8.2761063    46.977381
  8.2772175    46.9771163
  8.2781908    46.9770239
  8.2786002    46.9768978
  8.2788983    46.9769128
  8.2794282    46.9768671
  8.2796456    46.9767959
  8.2797732    46.9767029
  8.2798996    46.9765056
  8.2805318    46.9765882
  8.2809134    46.9765669
  8.281311     46.9763626
  8.2813313    46.9761252
  8.2814278    46.9760001
  8.2814807    46.9759486
  8.2815569    46.9758968
  8.2816391    46.9758582
  8.2817372    46.9758283
  8.2818417    46.9758114
  8.2818646    46.9758096
  8.2823537    46.9758747
  8.282733     46.9759493
  8.2829913    46.9759859
  8.2830616    46.9759903
  8.2831194    46.9759878
  8.2831822    46.9759784
  8.2837159    46.9758398
  8.2837619    46.9758325
  8.2838782    46.975819
  8.2839959    46.9758126
  8.284114     46.9758132
  8.2842315    46.975821
  8.2843476    46.9758358
  8.2844613    46.9758574
  8.2847598    46.975938
  8.2853802    46.9761507
  8.2854276    46.9761587
  8.2859503    46.9761277
  8.2863813    46.9759302
  8.2867482    46.9758593
  8.2874588    46.9759008
  8.2875426    46.975882
  8.2876295    46.9758713
  8.2877176    46.9758689
  8.2878054    46.975875
  8.2878212    46.9758769
  8.2880106    46.9759409
  8.2883118    46.9760234
  8.2884861    46.9760537
  8.2887237    46.9760875
  8.2888531    46.9760982
  8.2889628    46.9761027
  8.2900577    46.9760766
  8.2901225    46.976086
  8.2905479    46.9762526
  8.290872     46.9763445
  8.2911046    46.9763961
  8.2914449    46.9764212
  8.2919169    46.9766077
  8.2922965    46.9766337
  8.2928098    46.9771917
  8.2930701    46.9771077
  8.2934843    46.9771748
  8.2937887    46.9770641
  8.2943212    46.9770266
  8.2946405    46.9769691
  8.295129     46.977093
  8.2955479    46.9772164
  8.29598      46.9771597
  8.2960377    46.9771432
  8.2962218    46.9771629
  8.2965666    46.9772337
  8.2972085    46.9774673
  8.297446     46.977504
  8.297681     46.977463
  8.2979857    46.977431
  8.2981304    46.9773634
  8.2982603    46.9773944
  8.2985986    46.9774927
  8.2989463    46.9775281
  8.2990885    46.9774924
  8.2993323    46.9775123
  8.299519     46.9774245
  8.2997313    46.9773632
  8.299937     46.977388
  8.2999676    46.9774461
  8.3001151    46.9774032
  8.3002507    46.9773856
  8.3006011    46.9774215
  8.3007744    46.9775574
  8.3009923    46.9775848
  8.3013472    46.9776599
  8.301518     46.977555
  8.3017813    46.977461
  8.3022151    46.9774343
  8.3027068    46.9771828
  8.302922     46.9771288
  8.3035507    46.9770426
  8.3036678    46.9769302
  8.3038358    46.9769002
  8.3043764    46.9768958
  8.3046593    46.9768114
  8.3052907    46.9766655
  8.3055009    46.976609
  8.3056733    46.9765526
  8.3058419    46.976488
  8.3059774    46.9764262
  8.3060943    46.9763626
  8.3062406    46.9762658
  8.3063096    46.9762009
  8.3064721    46.9760329
  8.3064973    46.976019
  8.3065442    46.9760068
  8.3065944    46.9760076
  8.3066282    46.9760161
  8.306778     46.9760741
  8.3068335    46.9760816
  8.3068858    46.9760786
  8.3069311    46.9760676
  8.3069678    46.9760514
  8.3070791    46.9759825
  8.3071705    46.9759169
  8.3069043    46.9741482
  8.3070153    46.974092
  8.3071114    46.9740276
  8.3071708    46.9739774
  8.3073105    46.9738338
  8.3074254    46.973685
  8.3075863    46.9734468
  8.3076157    46.9734158
  8.3076464    46.9733939
  8.3076789    46.9733773
  8.3078003    46.9733396
  8.3078784    46.973304
  8.3079162    46.973281
  8.3080271    46.9731904
  8.3082707    46.9729112
  8.3085583    46.9726459
  8.3086003    46.9725841
  8.3086479    46.972466
  8.3086733    46.9724353
  8.3087111    46.9724111
  8.3087597    46.9723955
  8.3088046    46.972391
  8.3088916    46.9723937
  8.3089321    46.9723877
  8.3089688    46.972377
  8.3090119    46.9723561
  8.3090805    46.9722852
  8.3090949    46.9721897
  8.3092157    46.972034
  8.3092433    46.9719805
  8.3092745    46.9718885
  8.3093008    46.9718401
  8.3096102    46.9714687
  8.3099114    46.9703438
  8.3109758    46.9689802
  8.3090279    46.9636066
  8.3061696    46.9557197
  8.3064035    46.955493
  8.3078847    46.9537784
  8.3082779    46.9533127
  8.3084928    46.9531216
  8.3087743    46.9528806
  8.3094926    46.9525371
  8.3099143    46.9522203
  8.3094794    46.9520571
  8.3089365    46.9517887
  8.3085082    46.9516255
  8.3078022    46.951231
  8.307311     46.9510346
  8.3062967    46.9505372
  8.3056359    46.950172
  8.3054652    46.9501373
  8.3051958    46.9498452
  8.3050573    46.9497266
  8.3046263    46.9495157
  8.3040827    46.9493332
  8.3036627    46.9491515
  8.3035146    46.9490519
  8.3030013    46.9488253
  8.3027674    46.948739
  8.3024769    46.9485622
  8.3023683    46.9484272
  8.3021302    46.9482842
  8.3018997    46.9480007
  8.301761     46.9479114
  8.3014065    46.9478421
  8.3011385    46.9476754
  8.3009909    46.947646
  8.3005967    46.9474798
  8.3003865    46.9473087
  8.3002784    46.9472532
  8.3002404    46.9471757
  8.3000779    46.9471585
  8.2997739    46.9470344
  8.2994599    46.946744
  8.2992158    46.9466779
  8.2990245    46.946503
  8.2989058    46.9464364
  8.2986449    46.9462198
  8.2984209    46.9460114
  8.2983874    46.9458844
  8.2981539    46.9457836
  8.2979764    46.9456099
  8.2978111    46.9454196
  8.2974698    46.9451469
  8.2971307    46.9442006
  8.2965682    46.9435413
  8.2963868    46.9434607
  8.2958731    46.9430817
  8.29553      46.9427748
  8.295507     46.9425704
  8.2949662    46.9418498
  8.2944335    46.9415102
  8.2942222    46.9413138
  8.2937459    46.9411824
  8.2929611    46.9406659
  8.2922147    46.9400414
  8.2919536    46.9397689
  8.2915728    46.9391994
  8.2916587    46.9390642
  8.2910504    46.9382664
  8.2909608    46.9381604
  8.2905817    46.9376504
  8.2904068    46.9372467
  8.2902772    46.9367132
  8.2895722    46.9363172
  8.2895424    46.9360951
  8.2895179    46.9358309
  8.2893425    46.9355349
  8.2889617    46.9351767
  8.2885813    46.9348315
  8.2885012    46.9346176
  8.2883679    46.9340978
  8.288294     46.9338862
  8.2886735    46.9337829
  8.2897826    46.9334587
  8.2904024    46.9329687
  8.2909684    46.9327153
  8.291687     46.9325307
  8.2924515    46.9324137
  8.2930638    46.9322256
  8.2938346    46.9319334
  8.294628     46.9317377
  8.2962388    46.9315385
  8.2970502    46.9310292
  8.2982479    46.9307071
  8.2983936    46.9306584
  8.2992471    46.9304485
  8.2997346    46.9303225
  8.3000781    46.9302386
  8.3004904    46.9299734
  8.300718     46.9299114
  8.3010061    46.9297786
  8.3010672    46.9297405
  8.3009869    46.9296663
  8.3009238    46.9295911
  8.3008388    46.9294645
  8.3007729    46.929343
  8.3007538    46.9292815
  8.3007446    46.9292167
  8.3007453    46.929146
  8.300756     46.9290934
  8.3007922    46.92901
  8.3008408    46.9289298
  8.3008917    46.928865
  8.300973     46.928783
  8.3010499    46.9287184
  8.3011958    46.9286109
  8.3014056    46.9284623
  8.3015337    46.9283786
  8.3016881    46.9282878
  8.3018356    46.9282103
  8.3023358    46.9279207
  8.3028536    46.9276948
  8.3030875    46.9275837
  8.3033082    46.9274652
  8.3036347    46.927272
  8.3038422    46.9271645
  8.3041762    46.9270206
  8.3043796    46.9269182
  8.3046627    46.9267855
  8.3048036    46.9267278
  8.3048591    46.9267005
  8.3049206    46.9266618
  8.3049734    46.9266183
  8.3050972    46.9264771
  8.3052085    46.9263722
  8.3053147    46.9262936
  8.3053793    46.9262594
  8.3054361    46.9262374
  8.3055281    46.9262094
  8.3057333    46.9261584
  8.3058548    46.9261409
  8.3060182    46.9261323
  8.3061129    46.9261226
  8.3062377    46.9261004
  8.3063431    46.9260739
  8.306446     46.9260381
  8.3067207    46.9259233
  8.3068365    46.9258469
  8.3069094    46.9257745
  8.3069529    46.9257395
  8.3069987    46.9257133
  8.3070491    46.9256924
  8.3073498    46.9256114
  8.3082254    46.9255035
  8.3088435    46.9252195
  8.308908     46.9249892
  8.3090105    46.924871
  8.3094682    46.9245367
  8.3096435    46.9243046
  8.310245     46.9244901
  8.311185     46.9248135
  8.3123077    46.9251738
  8.3129746    46.9253688
  8.3136808    46.9252749
  8.3146995    46.9248712
  8.3155079    46.9243666
  8.3164356    46.9246492
  8.3173967    46.9249675
  8.318688     46.9250116
  8.3202517    46.9251647
  8.320748     46.9251838
  8.3210509    46.9251558
  8.3214577    46.9252439
  8.3217848    46.9253436
  8.3221245    46.9253406
  8.3225339    46.9252986
  8.323024     46.9253705
  8.3233909    46.9254702
  8.3237043    46.9255243
  8.3240487    46.9257564
  8.324276     46.9258837
  8.3244495    46.9259358
  8.325073     46.9260623
  8.3252396    46.9260824
  8.3254429    46.9260773
  8.3258333    46.9262067
  8.3260635    46.9262632
  8.326417     46.9263332
  8.3265942    46.9264492
  8.3280913    46.9269443
  8.3345597    46.9280221
  8.3381276    46.929313
  8.33975      46.928416
  8.3402253    46.9279453
  8.3406531    46.9272222
  8.3408032    46.9269913
  8.3409922    46.9268333
  8.3410981    46.9267258
  8.3411603    46.9265452
  8.3412372    46.9261885
  8.3410603    46.9260021
  8.3409129    46.9258609
  8.3406777    46.9255304
  8.3404483    46.9250675
  8.3403805    46.9248736
  8.3404259    46.924677
  8.3403274    46.9243577
  8.3402781    46.9239286
  8.3401897    46.9236525
  8.339841     46.9232858
  8.3402011    46.9228032
  8.3402999    46.9226249
  8.3402879    46.9222824
  8.3403072    46.9221636
  8.3404437    46.9219505
  8.3405332    46.9215603
  8.3404105    46.9212124
  8.3403803    46.9209776
  8.3401849    46.920918
  8.3400956    46.9206847
  8.3400184    46.9204587
  8.3397916    46.9203292
  8.339931     46.9201041
  8.3395751    46.919944
  8.3391123    46.9192739
  8.338652     46.9188457
  8.3384595    46.918473
  8.338396     46.9183673
  8.3389395    46.9184422
  8.3392053    46.9183214
  8.3393564    46.918411
  8.3402453    46.9180964
  8.3409749    46.9176858
  8.3413754    46.9175351
  8.3417736    46.9174807
  8.3434803    46.9148997
  8.3429199    46.9129592
  8.3427081    46.9124643
  8.3426878    46.9117249
  8.3426092    46.9115016
  8.3417964    46.9100147
  8.3411076    46.9086977
  8.3402125    46.9081641
  8.3399127    46.9077383
  8.3383063    46.9068882
  8.3371786    46.9062566
  8.3368687    46.9053846
  8.3369536    46.9049656
  8.3366201    46.904172
  8.3367945    46.9036913
  8.3366374    46.9033983
  8.3362939    46.9030322
  8.3367618    46.9025994
  8.336746     46.9024358
  8.3367698    46.9019758
  8.3368048    46.9016374
  8.3371587    46.9012918
  8.3373419    46.9008703
  8.3375702    46.899762
  8.3376925    46.8996998
  8.3378504    46.8994089
  8.3381501    46.8987301
  8.3383257    46.8984048
  8.3383041    46.8979768
  8.3384078    46.8974299
  8.3385391    46.8970411
  8.3385033    46.8966996
  8.3382548    46.8961248
  8.3384208    46.8957745
  8.3383986    46.8949156
  8.3381801    46.8941724
  8.3382553    46.8935673
  8.3382665    46.8932164
  8.3382529    46.8920884
  8.3381076    46.8916388
  8.3381416    46.8906931
  8.3377143    46.8900127
  8.3377082    46.8898385
  8.3374647    46.8896251
  8.33734      46.8894785
  8.3370263    46.8892943
  8.3364399    46.8888351
  8.3359511    46.8885677
  8.3357569    46.8884002
  8.3350711    46.8879107
  8.3348377    46.8876747
  8.3347269    46.8874758
  8.3343772    46.8872457
  8.3342616    46.8870865
  8.3341276    46.8869664
  8.3337945    46.8867433
  8.3334295    46.8863948
  8.3332059    46.8861725
  8.3330965    46.8859072
  8.3329982    46.8853879
  8.332897     46.8852164
  8.3329754    46.885028
  8.3328171    46.8845966
  8.3328133    46.8843188
  8.3325827    46.8841488
  8.3325856    46.8838687
  8.332638     46.8836627
  8.3327468    46.8830258
  8.3330452    46.8819548
  8.3322514    46.881233
  8.3315162    46.8805365
  8.3309198    46.8801869
  8.3302938    46.8796366
  8.3300853    46.8794014
  8.3295857    46.8787553
  8.3283779    46.8779758
  8.3288463    46.8761392
  8.3300539    46.8742037
  8.3293728    46.8727669
  8.329605     46.8722027
  8.3295995    46.8718804
  8.3295069    46.8717662
  8.3296534    46.8714263
  8.329906     46.8711335
  8.3300857    46.8709406
  8.3301391    46.8707718
  8.3307141    46.8700991
  8.3311624    46.8699078
  8.3315643    46.8696571
  8.3316343    46.8694815
  8.3316679    46.8692487
  8.3319245    46.8686077
  8.3322       46.8685281
  8.3327539    46.8685331
  8.3334275    46.8683716
  8.3337998    46.867952
  8.3342424    46.8672581
  8.3339342    46.8670531
  8.3336603    46.8668093
  8.3340454    46.8661815
  8.3339368    46.865709
  8.3341568    46.8651457
  8.3343361    46.8649883
  8.3344196    46.8645093
  8.3343084    46.8638999
  8.3345086    46.863284
  8.3344655    46.8630866
  8.3342788    46.8620676
  8.3345568    46.8612426
  8.3337272    46.8602586
  8.3308409    46.8566771
  8.3301486    46.8540344
  8.3300281    46.8539383
  8.3300457    46.8537581
  8.3301412    46.8535321
  8.3303498    46.8531104
  8.3308032    46.8525953
  8.3308495    46.8520967
  8.3306867    46.8515293
  8.3302519    46.8509291
  8.3290201    46.8492765
  8.3289954    46.8489071
  8.3283366    46.8482617
  8.3279133    46.8468723
  8.3281953    46.8462132
  8.3284165    46.8458607
  8.3284836    46.8453846
  8.328483     46.8447437
  8.3286798    46.8442395
  8.3289287    46.8436642
  8.3289452    46.842915
  8.3291682    46.8421763
  8.3300341    46.8418014
  8.3302394    46.8417976
  8.3308783    46.8412589
  8.3310226    46.84116
  8.3311469    46.8403723
  8.3316471    46.8399484
  8.3325803    46.8378285
  8.3322623    46.8336536
  8.3325529    46.8337309
  8.3342502    46.8337833
  8.3352114    46.8336263
  8.3359428    46.8331083
  8.3356975    46.8325238
  8.3356983    46.8321311
  8.3358785    46.8318332
  8.3351516    46.8314676
  8.334879     46.8311964
  8.3348722    46.8303632
  8.3352135    46.8297017
  8.3352204    46.8284317
  8.3349715    46.8275464
  8.3343588    46.8272198
  8.3335056    46.8268428
  8.3332073    46.8266748
  8.3331564    46.8264793
  8.3329553    46.8264215
  8.3322938    46.8260363
  8.3322097    46.825945
  8.3310172    46.8257047
  8.3302944    46.8254212
  8.3300403    46.8253681
  8.3298463    46.8252571
  8.32968      46.8252043
  8.3293345    46.8252098
  8.3290949    46.8249437
  8.3288946    46.8247037
  8.3283713    46.8246336
  8.3282022    46.8247115
  8.3278319    46.8247282
  8.3274199    46.824494
  8.326898     46.8243084
  8.3264562    46.8241915
  8.3256166    46.8240329
  8.3255515    46.8238681
  8.3248504    46.8233501
  8.3248493    46.8232285
  8.3243371    46.8230178
  8.3241855    46.8227154
  8.3239521    46.8224465
  8.3235365    46.822253
  8.3229217    46.8221596
  8.3228238    46.8220392
  8.3228212    46.8218011
  8.3228909    46.8216864
  8.3223692    46.8213323
  8.3221963    46.821119
  8.3220427    46.8210238
  8.322028     46.8209047
  8.3220898    46.8207949
  8.3220088    46.8206362
  8.3221427    46.8202178
  8.3225582    46.8200109
  8.3228292    46.8200075
  8.3229653    46.8198322
  8.3236146    46.819789
  8.3233362    46.8192414
  8.3232427    46.818992
  8.3230518    46.81876
  8.3231804    46.8183341
  8.3237042    46.8180304
  8.3238511    46.8174327
  8.3244423    46.8170398
  8.3247605    46.816739
  8.3250286    46.8167345
  8.3252352    46.8166029
  8.3252722    46.8164042
  8.3257925    46.8163231
  8.3260428    46.8159481
  8.3263003    46.8158471
  8.3264047    46.8156593
  8.326198     46.8154088
  8.326318     46.8148794
  8.3265515    46.8147612
  8.3279158    46.8140185
  8.3287882    46.8138739
  8.3295974    46.8136043
  8.3299067    46.813437
  8.3302932    46.8131369
  8.3307539    46.8128899
  8.3311101    46.8128808
  8.3316813    46.8124432
  8.3316698    46.8121383
  8.3318418    46.8115365
  8.3319797    46.8114102
  8.3320477    46.8110972
  8.332539     46.8108729
  8.3327892    46.8106848
  8.3332766    46.8103878
  8.3333142    46.8101656
  8.3337792    46.8097676
  8.3338648    46.8096249
  8.3343683    46.8094635
  8.3349331    46.809047
  8.3356586    46.8088812
  8.3358927    46.8087394
  8.3360272    46.8084976
  8.3367704    46.8081149
  8.3378237    46.8072043
  8.3383251    46.8066811
  8.3392281    46.8053844
  8.341338     46.8045787
  8.3432929    46.8045324
  8.3435527    46.8036801
  8.3439656    46.8032483
  8.343793     46.8029982
  8.3430135    46.8023998
  8.3430045    46.8022329
  8.3430413    46.8021026
  8.343399     46.8014541
  8.3440937    46.8006792
  8.344349     46.7999784
  8.3444982    46.7999058
  8.344974     46.7999546
  8.3452911    46.7998325
  8.3456013    46.7998051
  8.347134     46.7991845
  8.3476852    46.7988021
  8.3487443    46.7975515
  8.3492288    46.7971164
  8.3501067    46.7968969
  8.3508094    46.7966432
  8.3511168    46.7964504
  8.3515987    46.7964162
  8.3522222    46.7961882
  8.3530902    46.796024
  8.3535679    46.795742
  8.3540439    46.7951776
  8.3545703    46.7949186
  8.3552452    46.7947215
  8.356356     46.7947564
  8.357642     46.7945231
  8.3585211    46.794475
  8.3589698    46.7943729
  8.3596942    46.7940384
  8.3598852    46.7939148
  8.3611185    46.7935571
  8.3619443    46.7931906
  8.3620916    46.7930117
  8.3624785    46.7928111
  8.3628866    46.7926119
  8.3631787    46.7925587
  8.3642669    46.791834
  8.3651031    46.7914841
  8.3655896    46.7911626
  8.3664972    46.7907695
  8.3671282    46.7900175
  8.3683019    46.7894785
  8.3691914    46.7891436
  8.3692437    46.7887196
  8.3689397    46.7879215
  8.3683219    46.7878242
  8.3677268    46.7875681
  8.3675678    46.7872382
  8.3673918    46.7870559
  8.3664067    46.7868191
  8.3660167    46.7865953
  8.365522     46.7864472
  8.364929     46.7863809
  8.3641025    46.7861733
  8.363799     46.7860697
  8.3640844    46.7851011
  8.363547     46.7845198
  8.3622633    46.7842421
  8.3612171    46.7838122
  8.3599219    46.7829641
  8.3566042    46.7825805
  8.3556549    46.7827016
  8.3505369    46.7820786
  8.342881     46.7814476
  8.3336948    46.780595
  8.3332219    46.7802749
  8.332927     46.78034
  8.3318892    46.779911
  8.3317412    46.779701
  8.3314323    46.7795237
  8.3312945    46.7788044
  8.3310218    46.7785158
  8.3296581    46.7780162
  8.328883     46.7779558
  8.3276808    46.7773636
  8.3268245    46.7768132
  8.3267969    46.7761355
  8.325823     46.7755845
  8.3208198    46.7733437
  8.315883     46.7701027
  8.3115617    46.7682755
  8.3068909    46.7652128
  8.3066295    46.764182
  8.302097     46.7620375
  8.2995509    46.7613855
  8.2984315    46.7622747
  8.2982447    46.7622305
  8.2981334    46.762095
  8.2979071    46.7619976
  8.2976866    46.7617167
  8.2975266    46.7612892
  8.2971291    46.7607042
  8.2969332    46.7602406
  8.2958605    46.7595379
  8.2948755    46.7592309
  8.2942687    46.7589349
  8.2930356    46.7582256
  8.2918187    46.757987
  8.291309     46.75805
  8.2912392    46.7578602
  8.2904286    46.7570108
  8.2870068    46.7553314
  8.2868426    46.7551387
  8.286501     46.7549177
  8.2864459    46.7545333
  8.2855399    46.7541011
  8.2848841    46.7539681
  8.2842195    46.7537568
  8.2834913    46.753169
  8.2819727    46.7540079
  8.2809899    46.7543309
  8.2806514    46.7543321
  8.2801317    46.7542231
  8.2788529    46.7543592
  8.2772957    46.7543977
  8.2763732    46.7547839
  8.2755177    46.7550843
  8.2752347    46.7549597
  8.2750042    46.7547123
  8.2744129    46.7548869
  8.2740881    46.7549617
  8.2737265    46.7549777
  8.2733671    46.7548769
  8.2728377    46.7549153
  8.2716444    46.7546001
  8.2702762    46.7545316
  8.2692823    46.7543105
  8.2689118    46.754262
  8.2686944    46.7543059
  8.2688544    46.7546266
  8.2686917    46.7553922
  8.2682665    46.755513
  8.2676484    46.7562039
  8.2668775    46.7567095
  8.2664625    46.7570782
  8.2666831    46.7576117
  8.2660869    46.7581706
  8.265359     46.7586692
  8.2649329    46.759104
  8.2643746    46.7595111
  8.2640664    46.759506
  8.2639063    46.7595884
  8.26367      46.7599907
  8.2626563    46.7606556
  8.2625439    46.7609566
  8.2611984    46.7620832
  8.260949     46.7624689
  8.2606762    46.762697
  8.2600931    46.7633522
  8.2593848    46.763812
  8.2571136    46.7644052
  8.2567367    46.7643704
  8.2557694    46.7643934
  8.255183     46.7645383
  8.254821     46.7649443
  8.2536953    46.7653856
  8.252475     46.7658173
  8.2518927    46.7660849
  8.2510918    46.7662311
  8.2505493    46.7664248
  8.249839     46.7665378
  8.249039     46.7667671
  8.2484016    46.7668794
  8.2480106    46.7672111
  8.2475145    46.7673496
  8.247181     46.7675639
  8.2455318    46.7675182
  8.2452817    46.7675797
  8.2452884    46.7677037
  8.2447981    46.7678286
  8.2445735    46.7680588
  8.2437422    46.7681688
  8.2431591    46.7684251
  8.2423953    46.7685673
  8.2416912    46.7688919
  8.2415901    46.7691702
  8.2408839    46.7692276
  8.2402913    46.7695012
  8.2396377    46.7694986
  8.2390724    46.7696086
  8.2339122    46.7619525
  8.2335399    46.7617281
  8.2320509    46.7614437
  8.2315981    46.7614303
  8.2304031    46.7610994
  8.2297876    46.7610057
  8.2293305    46.7610631
  8.2292122    46.7612091
  8.2283783    46.7611633
  8.2279544    46.7609883
  8.2276221    46.7612146
  8.2268665    46.7614831
  8.223005     46.7613181
  8.2219698    46.7610661
  8.2204225    46.7614994
  8.2193495    46.7635354
  8.2189599    46.7636768
  8.2184004    46.7637289
  8.2180065    46.7637124
  8.2175734    46.7641068
  8.2164068    46.7646807
  8.2120828    46.7663628
  8.210918     46.7671281
  8.2101478    46.7679925
  8.2096688    46.7679804
  8.2092976    46.768091
  8.2085964    46.7690716
  8.2079964    46.769458
  8.2065788    46.7695535
  8.2043507    46.7693906
  8.2032354    46.7693774
  8.2026258    46.7690468
  8.1993287    46.7687765
  8.1963029    46.7679295
  8.1931692    46.7684297
  8.1922737    46.7689299
  8.1897906    46.7703167
  8.1877309    46.76967
  8.1858109    46.7685851
  8.1741355    46.7654376
  8.1726338    46.7646646
  8.1720978    46.7641373
  8.1708818    46.7643475
  8.1679329    46.7653549
  8.1671934    46.7646913
  8.166793     46.7640209
  8.1661629    46.7637633
  8.1660392    46.7638258
  8.1660968    46.7639193
  8.1655987    46.7639143
  8.1650139    46.7634012
  8.1646684    46.7633534
  8.164253     46.7634024
  8.1636579    46.762346
  8.1635255    46.7616557
  8.1631264    46.7613112
  8.1628996    46.7614456
  8.1627762    46.7618215
  8.162157     46.7618708
  8.1624325    46.761265
  8.1620115    46.7612702
  8.1616304    46.7611091
  8.1608647    46.7606031
  8.1594434    46.7605185
  8.1593922    46.7603814
  8.1594174    46.7599471
  8.1588282    46.7597994
  8.1589897    46.7596047
  8.1586871    46.7596494
  8.1584674    46.7598079
  8.1583071    46.7598589
  8.1581897    46.7597561
  8.1580424    46.7595167
  8.1581412    46.759384
  8.1584489    46.7592441
  8.1555223    46.7585754
  8.1553078    46.7585699
  8.1543601    46.7581222
  8.1527252    46.7580525
  8.1517269    46.757669
  8.1496654    46.756995
  8.1488465    46.7565293
  8.1485661    46.7563099
  8.1469413    46.7548388
  8.1463511    46.7552704
  8.1461226    46.7554564
  8.1409768    46.7586297
  8.1401964    46.7590024
  8.1399302    46.7589777
  8.1397306    46.7590178
  8.1393332    46.7593155
  8.1386885    46.7595464
  8.1386303    46.7596565
  8.1387542    46.7599089
  8.138619     46.7601248
  8.1381231    46.760345
  8.1375298    46.760722
  8.1376843    46.7608335
  8.1372426    46.7614036
  8.1358587    46.7622648
  8.1353313    46.7626527
  8.1317196    46.7647697
  8.1298535    46.7660321
  8.1283574    46.7669064
  8.1267413    46.7677139
  8.1259666    46.7681798
  8.1218316    46.7703724
  8.121401     46.7705089
  8.1211038    46.7705867
  8.1199244    46.7707741
  8.1191187    46.7707714
  8.1188103    46.7709331
  8.1183496    46.7709556
  8.1175436    46.7713725
  8.1164628    46.7716376
  8.1162606    46.7718619
  8.1160242    46.7720132
  8.1157674    46.7719548
  8.1145137    46.772452
  8.1135232    46.7733958
  8.1115774    46.773656
  8.1112462    46.7738132
  8.110066     46.7737681
  8.1092367    46.7735619
  8.1068655    46.7728844
  8.1052623    46.7729396
  8.1023531    46.7737995
  8.1020743    46.7739956
  8.1018568    46.7744421
  8.1016095    46.7756811
  8.1016003    46.7760641
  8.101438     46.7761852
  8.0995554    46.7782733
  8.0974575    46.7787937
  8.097157     46.7789856
  8.096305     46.7795299
  8.0955921    46.7802393
  8.0953421    46.7805374
  8.0945104    46.7815292
  8.0941166    46.7818647
  8.0939271    46.7820988
  8.093833     46.78233
  8.0936406    46.7825184
  8.0929966    46.7829078
  8.092674     46.7831029
  8.09228      46.7833781
  8.0917731    46.783746
  8.0911065    46.7840105
  8.0907707    46.7843668
  8.090871     46.7849664
  8.0907277    46.7856086
  8.0904775    46.7861356
  8.0899904    46.7867368
  8.0898806    46.7871604
  8.090039     46.7876445
  8.0887195    46.7875599
  8.0872016    46.7872578
  8.0859614    46.7869378
  8.0857438    46.7868817
  8.0835661    46.786976
  8.0827846    46.7869291
  8.0805941    46.7864713
  8.0773268    46.7859382
  8.0757495    46.7860038
  8.0742973    46.7862906
  8.072525     46.7872691
  8.0706248    46.7877953
  8.0694454    46.7881922
  8.0690135    46.7886488
  8.0683668    46.7884292
  8.067245     46.7877365
  8.0664115    46.7876785
  8.0648714    46.787178
  8.0645785    46.7870031
  8.0643895    46.7871405
  8.0635229    46.7872621
  8.0626226    46.7870506
  8.0598223    46.7863926
  8.0550616    46.788437
  8.0502814    46.7883386
  8.046943     46.7871144
END
2
  8.3952292    46.771514
  8.4165796    46.7783919
  8.4264138    46.774448
  8.4263821    46.7771461
  8.4263435    46.7772543
  8.4257004    46.7776128
  8.4252806    46.7779503
  8.4250607    46.7806337
  8.4248801    46.7810642
  8.4245287    46.7815286
  8.4239142    46.781686
  8.4238151    46.7819397
  8.423432     46.7824646
  8.4230625    46.7837309
  8.422597     46.7840081
  8.4220358    46.7847681
  8.4214915    46.785288
  8.4205784    46.7855556
  8.4200093    46.7861547
  8.4198682    46.7863475
  8.419832     46.7864099
  8.4196657    46.7865091
  8.419681     46.7866234
  8.4195792    46.7867438
  8.4195868    46.7871228
  8.4195041    46.7873347
  8.4196684    46.787711
  8.419547     46.7878729
  8.4197075    46.7880434
  8.4197345    46.7883599
  8.4195483    46.7890699
  8.4185643    46.7892804
  8.4177836    46.7893178
  8.4173064    46.7893599
  8.4165549    46.7894995
  8.4156251    46.789788
  8.4151381    46.7898613
  8.4114716    46.7898633
  8.4112148    46.7898933
  8.4099159    46.790214
  8.4090323    46.7905605
  8.4085521    46.7906558
  8.4083919    46.790735
  8.4080193    46.7907784
  8.4067361    46.791582
  8.4062871    46.7916422
  8.4064558    46.7919819
  8.4061451    46.7922186
  8.406153     46.7925744
  8.4057261    46.7929015
  8.4055306    46.7930945
  8.4050524    46.7932811
  8.4045439    46.7933909
  8.4038943    46.793802
  8.403827     46.7939531
  8.4035363    46.7940598
  8.4035324    46.7942902
  8.402699     46.7950197
  8.4020107    46.7954134
  8.4016518    46.7955755
  8.4012153    46.7955302
  8.3999759    46.7953859
  8.3980356    46.7951527
  8.3965399    46.7954515
  8.3905773    46.8004666
  8.3903281    46.8007773
  8.3897218    46.801386
  8.3891495    46.8016567
  8.3892953    46.8019068
  8.389084     46.8021068
  8.3885439    46.8019366
  8.3882464    46.8022173
  8.388479     46.802319
  8.3876332    46.8029673
  8.3874317    46.80294
  8.3867563    46.8031607
  8.3865924    46.8033279
  8.3859472    46.8035063
  8.3851579    46.8035049
  8.3848127    46.8036888
  8.3852256    46.804817
  8.3860578    46.8055712
  8.3872475    46.8066903
  8.3874373    46.8069792
  8.3875395    46.8072015
  8.3878218    46.8079773
  8.3881358    46.8086233
  8.3884887    46.8091682
  8.3886635    46.8093466
  8.3885959    46.8094525
  8.3885845    46.8096217
  8.388593     46.809806
  8.3885791    46.8099105
  8.3883011    46.8100468
  8.3883292    46.8103021
  8.3883916    46.8104941
  8.3884834    46.8106488
  8.3884159    46.8108294
  8.3883685    46.8110421
  8.3882217    46.8111108
  8.3882118    46.8113709
  8.38817      46.8116753
  8.3881066    46.8118701
  8.3880034    46.8121076
  8.3880423    46.8122359
  8.3878109    46.8125625
  8.3875626    46.8126717
  8.387202     46.8127313
  8.3869391    46.8127578
  8.3866516    46.8128016
  8.3858909    46.8130607
  8.3855471    46.8132551
  8.3849403    46.8134734
  8.3843069    46.8135982
  8.3838309    46.8136526
  8.3833068    46.8136524
  8.3828127    46.8137231
  8.3823526    46.814012
  8.3819141    46.8142303
  8.3818337    46.8142187
  8.3816054    46.8142162
  8.3814692    46.8142535
  8.3811544    46.814305
  8.380939     46.8143489
  8.380869     46.8143517
  8.3802576    46.814402
  8.3794695    46.8149492
  8.3791371    46.8151496
  8.3787261    46.8154318
  8.3782613    46.8160168
  8.3777785    46.8162886
  8.3769215    46.816496
  8.3760058    46.8165882
  8.3750718    46.816293
  8.3743196    46.8162662
  8.3738534    46.8162162
  8.374003     46.8164279
  8.3740924    46.8165986
  8.3741598    46.8166608
  8.3743435    46.8167766
  8.3744053    46.8169667
  8.3746514    46.8171687
  8.3748752    46.8172972
  8.3750726    46.8173932
  8.3751707    46.8175077
  8.3751823    46.8175835
  8.3754091    46.8176802
  8.3755527    46.8179298
  8.3756031    46.818062
  8.3757298    46.8182595
  8.3756536    46.8184084
  8.3757449    46.8184963
  8.375652     46.8186606
  8.3755905    46.818823
  8.375581     46.8192663
  8.3754255    46.8194326
  8.3753263    46.8196339
  8.3753318    46.8196937
  8.3753594    46.8197415
  8.375413     46.8197923
  8.3754382    46.8198363
  8.3754614    46.8198935
  8.375468     46.8199473
  8.3754954    46.8199999
  8.3755276    46.8200406
  8.3756035    46.8200837
  8.3756466    46.8201209
  8.3757049    46.8202258
  8.375848     46.8203522
  8.3760495    46.8205821
  8.3760961    46.8206874
  8.3760915    46.8207939
  8.3761875    46.8210041
  8.3763457    46.821107
  8.3765069    46.8211542
  8.3766214    46.8212401
  8.3766579    46.8212795
  8.3767797    46.8214789
  8.3768968    46.8215843
  8.3769728    46.8216425
  8.3771057    46.8217095
  8.3772642    46.8217601
  8.3773917    46.8220179
  8.3771788    46.8222441
  8.3771498    46.8222988
  8.3770843    46.8223421
  8.3769986    46.8224197
  8.3770314    46.8224751
  8.377086     46.8226839
  8.3772226    46.8228791
  8.3774773    46.8230081
  8.3775207    46.8230543
  8.3775406    46.8231103
  8.3775133    46.8231689
  8.3775073    46.8232176
  8.3775523    46.8234331
  8.3775554    46.8234885
  8.3775002    46.8236443
  8.3774474    46.8236899
  8.3772977    46.8237464
  8.3771275    46.8238648
  8.3770852    46.8239007
  8.3770412    46.8239593
  8.37707      46.8240021
  8.3770802    46.8240529
  8.3770615    46.8241669
  8.377071     46.824271
  8.3770119    46.8243743
  8.3768425    46.8244879
  8.3768061    46.824533
  8.3767814    46.8245898
  8.3768907    46.8247874
  8.3769791    46.8248817
  8.3769783    46.824928
  8.3769194    46.8249738
  8.376818     46.8251263
  8.3768118    46.8251793
  8.3768388    46.8252905
  8.376781     46.8253855
  8.3766135    46.8255087
  8.3765734    46.825613
  8.3765683    46.8257215
  8.3765229    46.8258478
  8.3763862    46.8260233
  8.3767093    46.8264504
  8.3767593    46.8268255
  8.3767641    46.8269629
  8.3768165    46.8271301
  8.3767938    46.8271782
  8.3766289    46.8273017
  8.3765672    46.8273327
  8.3763437    46.8273933
  8.3761514    46.8274861
  8.376        46.8276171
  8.3758492    46.8276586
  8.3757822    46.8276928
  8.3756276    46.8278172
  8.3755158    46.8280164
  8.3752589    46.8283546
  8.3753755    46.8285079
  8.3753886    46.8285574
  8.3753658    46.8286636
  8.375304     46.8288171
  8.3751518    46.8289297
  8.3749675    46.8291867
  8.374803     46.8292299
  8.374706     46.8293204
  8.3746056    46.8295296
  8.3746074    46.8295764
  8.3747064    46.8297115
  8.3746065    46.829886
  8.37458      46.8300382
  8.3745064    46.8303056
  8.3743995    46.8304546
  8.3743183    46.8306593
  8.3741482    46.8310194
  8.3738205    46.8311814
  8.373595     46.8314537
  8.3732773    46.8317626
  8.3729248    46.8319756
  8.3725227    46.8321618
  8.3724278    46.8323687
  8.3721478    46.8326883
  8.3718912    46.8330312
  8.3718331    46.8332512
  8.3717091    46.8335049
  8.3716708    46.8339097
  8.3716297    46.8340537
  8.3712679    46.8342818
  8.3710456    46.8344395
  8.3708693    46.8347564
  8.3706134    46.8360204
  8.3708736    46.8362993
  8.3715589    46.8378117
  8.3714081    46.8381457
  8.3712167    46.8383585
  8.371188     46.8384973
  8.3709057    46.8387662
  8.3707778    46.8389352
  8.3708088    46.8390701
  8.3707987    46.8393006
  8.3706051    46.8395709
  8.3704867    46.8398731
  8.3703795    46.8408006
  8.3703501    46.8408694
  8.3703448    46.8408946
  8.3703226    46.8411124
  8.3702889    46.8413399
  8.3702877    46.8421702
  8.3702799    46.8426222
  8.3702655    46.8448385
  8.3700695    46.845037
  8.3700593    46.8451031
  8.3701391    46.8452891
  8.369901     46.8455905
  8.3694309    46.8460493
  8.3691292    46.8461951
  8.3689513    46.8463738
  8.3689025    46.846598
  8.3689094    46.8466564
  8.3689496    46.8468153
  8.3691056    46.8470799
  8.3692932    46.8475826
  8.3693259    46.8476547
  8.3692438    46.847793
  8.3689902    46.8480659
  8.3689261    46.8482279
  8.3688279    46.8483465
  8.3687469    46.8486688
  8.3687293    46.8488264
  8.3686809    46.8490601
  8.3685667    46.8493971
  8.3685414    46.8494513
  8.3684299    46.8496347
  8.3683147    46.8497608
  8.3683421    46.8499027
  8.3684081    46.850007
  8.3685839    46.8502008
  8.3687447    46.8503236
  8.3691237    46.8504784
  8.3692264    46.8505005
  8.3694333    46.850677
  8.3699888    46.8510278
  8.3702134    46.8512032
  8.3704625    46.8514259
  8.3706801    46.8516474
  8.3707477    46.8518402
  8.3707774    46.8521962
  8.3708994    46.8526504
  8.3709434    46.8527733
  8.3709133    46.8551828
  8.3708393    46.8564826
  8.371067     46.8572079
  8.3709254    46.8577776
  8.3709411    46.858451
  8.3708958    46.8589545
  8.3708698    46.8590158
  8.3708234    46.8595078
  8.3704283    46.8594375
  8.3701721    46.8593102
  8.3700598    46.8592899
  8.3695576    46.859224
  8.3692257    46.859295
  8.3689325    46.8592516
  8.3687875    46.8592851
  8.3686212    46.8592982
  8.3684173    46.8592674
  8.368149     46.8592974
  8.3680344    46.8593442
  8.367923     46.8594262
  8.3675731    46.8594389
  8.3673847    46.8593874
  8.3673074    46.8593943
  8.3672213    46.8594229
  8.3669787    46.8594186
  8.3664069    46.8593476
  8.3662218    46.8593366
  8.3658993    46.8593401
  8.3656229    46.8593621
  8.3653483    46.8594084
  8.3650767    46.8593989
  8.3644375    46.8594464
  8.3643139    46.8594303
  8.3639163    46.8594845
  8.3638774    46.8595161
  8.3638534    46.8595925
  8.363682     46.8597285
  8.363643     46.859794
  8.3636112    46.8598933
  8.3634679    46.8600915
  8.363192     46.8603903
  8.3630479    46.8605001
  8.3628728    46.8607102
  8.3627358    46.8608119
  8.3626488    46.8609667
  8.3625633    46.8610643
  8.3624124    46.8611829
  8.3623804    46.861282
  8.3623108    46.8613791
  8.3622384    46.8614292
  8.3621903    46.861496
  8.3620717    46.8615719
  8.3618984    46.8617187
  8.361764     46.8618732
  8.3616692    46.8620024
  8.3616056    46.8620598
  8.3614685    46.8622133
  8.3613831    46.8623332
  8.3613396    46.8624326
  8.361313     46.8625155
  8.3617229    46.8627704
  8.3619659    46.8629903
  8.362129     46.8631731
  8.362404     46.8634524
  8.3624597    46.8635858
  8.362528     46.8637156
  8.3626014    46.86393
  8.3632028    46.8643521
  8.3633291    46.8645103
  8.3633576    46.8646867
  8.3635024    46.8650214
  8.363626     46.8651027
  8.3636507    46.8654784
  8.3637824    46.865494
  8.3639391    46.8661523
  8.3640494    46.8666559
  8.3641403    46.8669297
  8.3641273    46.8670033
  8.3641305    46.8673294
  8.3642159    46.8673405
  8.3642828    46.8673067
  8.3645019    46.867278
  8.3647014    46.8672314
  8.364768     46.8672254
  8.3649004    46.8671836
  8.3650214    46.8671886
  8.3651716    46.8672668
  8.3652334    46.8672946
  8.3653369    46.8673179
  8.3656046    46.867341
  8.3658049    46.8673177
  8.366278     46.8672865
  8.3665415    46.8672728
  8.3667251    46.8672718
  8.3669083    46.8672847
  8.3670061    46.8672823
  8.3671084    46.8672856
  8.3673589    46.8672192
  8.3674497    46.8672096
  8.3676171    46.8671535
  8.3677878    46.8671356
  8.3679174    46.8671154
  8.3679957    46.8671206
  8.3681653    46.8671741
  8.3683538    46.867178
  8.3683893    46.867189
  8.3684843    46.8672635
  8.3686771    46.8673144
  8.3688216    46.867365
  8.3689281    46.8674317
  8.3690152    46.8674495
  8.3693593    46.8676128
  8.3693135    46.8680656
  8.3693283    46.8682547
  8.3693323    46.8684397
  8.3692938    46.8688816
  8.3692479    46.8691067
  8.3692633    46.8693527
  8.3693066    46.8695363
  8.3695583    46.8701086
  8.369669     46.8702832
  8.3698685    46.8707392
  8.3699107    46.8710878
  8.3699881    46.8714245
  8.3701663    46.8717544
  8.370335     46.8719326
  8.3705731    46.8722115
  8.3708479    46.8723983
  8.3709513    46.872561
  8.3712401    46.8729114
  8.3714529    46.873132
  8.3719631    46.8735881
  8.3723159    46.8738833
  8.3725413    46.8740502
  8.3727334    46.8741815
  8.3734161    46.8744938
  8.3740944    46.8745423
  8.3749472    46.874588
  8.3756093    46.8745369
  8.3761455    46.8744866
  8.376441     46.8744682
  8.376666     46.8744054
  8.3769984    46.8743752
  8.3776431    46.8742204
  8.3779096    46.8741962
  8.3780707    46.8742556
  8.37825      46.8742447
  8.3787388    46.8741703
  8.3792308    46.8741449
  8.3795723    46.8741215
  8.3801086    46.8740277
  8.3803844    46.8738833
  8.3804617    46.8738252
  8.3805776    46.8736832
  8.3807409    46.8735566
  8.3808722    46.8730691
  8.3811272    46.8727519
  8.3810862    46.8723866
  8.3815274    46.8721099
  8.3820173    46.871992
  8.3818486    46.8718303
  8.3813433    46.8715943
  8.3807357    46.8715284
  8.3806657    46.8712372
  8.3806896    46.8710447
  8.3804694    46.8709166
  8.3803942    46.8707799
  8.3803023    46.8705093
  8.3802315    46.8703729
  8.3804127    46.870209
  8.3808068    46.8698762
  8.3811398    46.8696543
  8.3814075    46.8693231
  8.3815618    46.8692161
  8.3816758    46.8691248
  8.38181      46.8690288
  8.3818161    46.868889
  8.3817963    46.8686728
  8.381854     46.868442
  8.3817799    46.8682676
  8.381794     46.8680732
  8.3822303    46.867756
  8.3828638    46.8673687
  8.3832164    46.867131
  8.3835683    46.8668537
  8.3840202    46.8665918
  8.384255     46.8664468
  8.3846664    46.8660458
  8.384677     46.8659747
  8.3846136    46.8659581
  8.3843914    46.8658501
  8.3840945    46.865527
  8.3839148    46.8654484
  8.383359     46.8649429
  8.383322     46.864927
  8.383073     46.8647914
  8.3828579    46.8646394
  8.3826505    46.8644828
  8.3822457    46.8641353
  8.3817811    46.8640482
  8.3806526    46.8638649
  8.3800999    46.863911
  8.3796931    46.8633736
  8.3790934    46.8629836
  8.3783634    46.8625623
  8.3780798    46.8620231
  8.377801     46.8618292
  8.3773738    46.8610186
  8.3768233    46.8603637
  8.376364     46.8597431
  8.3760311    46.8593051
  8.3757454    46.8589395
  8.3750627    46.8579932
  8.3748431    46.8566043
  8.3750653    46.8558855
  8.3753294    46.8554606
  8.3755167    46.8543903
  8.3754852    46.8540118
  8.3753385    46.8537261
  8.3753468    46.8535227
  8.3754804    46.8531375
  8.3751879    46.8529051
  8.3750451    46.8526894
  8.3749371    46.8525131
  8.3748553    46.8519542
  8.3740696    46.849977
  8.3738913    46.849454
  8.3740404    46.8492782
  8.374108     46.8490969
  8.3741124    46.8488944
  8.3740894    46.848703
  8.3739782    46.8484961
  8.3747797    46.847912
  8.3784594    46.8534171
  8.3813394    46.8565825
  8.3842771    46.8544252
  8.3847766    46.854718
  8.3851164    46.8549464
  8.3852603    46.8549281
  8.3855328    46.8552119
  8.3856928    46.8552843
  8.3858662    46.8553756
  8.3863125    46.8554753
  8.3862043    46.8558329
  8.3862279    46.8559311
  8.3864314    46.8561864
  8.3864884    46.8563712
  8.3865917    46.8564852
  8.3873884    46.8572372
  8.3887254    46.8575514
  8.3897472    46.8577831
  8.3906949    46.8581341
  8.3912425    46.8583194
  8.3915056    46.858364
  8.3917847    46.8584975
  8.3920616    46.8588019
  8.3924804    46.8591979
  8.3929815    46.8597955
  8.3930756    46.8598487
  8.3932559    46.8600397
  8.393522     46.8604675
  8.3937639    46.8609468
  8.3942086    46.8613947
  8.3945594    46.8617219
  8.394751     46.8619533
  8.3949233    46.8621255
  8.395294     46.8624713
  8.3958406    46.8628177
  8.3964358    46.8631735
  8.3968672    46.8634631
  8.3972484    46.863728
  8.3979196    46.8641488
  8.3983019    46.8644812
  8.3987091    46.8647323
  8.3990086    46.8646839
  8.3998139    46.8643191
  8.4016396    46.8640951
  8.4044901    46.864921
  8.4060076    46.8654265
  8.4058937    46.8663127
  8.4073761    46.8671828
  8.4093927    46.8686654
  8.4107917    46.868255
  8.4113974    46.8683956
  8.4128288    46.8698436
  8.4131731    46.86934
  8.4131486    46.8689658
  8.4135963    46.8685384
  8.4137503    46.8677599
  8.4139785    46.8673604
  8.4140374    46.8670614
  8.414302     46.8665657
  8.4143215    46.8664289
  8.4145538    46.8662528
  8.4148119    46.8658029
  8.4151006    46.8656039
  8.4157254    46.8654409
  8.4168938    46.8647113
  8.4175618    46.8645825
  8.4174578    46.864286
  8.4175868    46.8640508
  8.4179647    46.8636577
  8.4181727    46.8631691
  8.4188032    46.8627574
  8.4187277    46.8620205
  8.4185874    46.8618313
  8.4186661    46.8614592
  8.418416     46.8612337
  8.4189094    46.8605826
  8.4189779    46.8601649
  8.419153     46.8597904
  8.4193718    46.8595596
  8.419303     46.8588409
  8.4192111    46.8581564
  8.4196709    46.8574072
  8.41961      46.857097
  8.4198353    46.8568183
  8.4199039    46.8564257
  8.4202587    46.8561079
  8.4204274    46.8558384
  8.4197262    46.8549062
  8.4194927    46.8546761
  8.4191896    46.8545282
  8.4188797    46.8543323
  8.4188487    46.8540153
  8.4187139    46.8533902
  8.4187331    46.8531597
  8.418952     46.852986
  8.4191866    46.8525543
  8.4194932    46.852232
  8.4200632    46.8521468
  8.420189     46.8519823
  8.4208269    46.8518558
  8.4212326    46.851878
  8.4218907    46.8517698
  8.4222332    46.8517829
  8.4225488    46.851698
  8.4230208    46.8516424
  8.4234194    46.8515073
  8.4237521    46.8516094
  8.4251478    46.8513631
  8.4254172    46.8513809
  8.4265806    46.8512742
  8.4272473    46.8507825
  8.4276257    46.8506062
  8.4299983    46.850226
  8.4304611    46.8504169
  8.4306378    46.8505581
  8.430977     46.850569
  8.4311867    46.8506371
  8.4322079    46.8507701
  8.4325268    46.850724
  8.4328631    46.850833
  8.4330634    46.8510928
  8.4342687    46.8515678
  8.4349676    46.8517766
  8.4354064    46.851769
  8.4357925    46.8518756
  8.4364794    46.8524222
  8.4367074    46.8529832
  8.4372361    46.8531293
  8.4383595    46.8534141
  8.4391199    46.8535246
  8.4396015    46.8533709
  8.4403624    46.8532236
  8.4410036    46.8530787
  8.4414627    46.8531418
  8.4423936    46.8531266
  8.4433642    46.8530268
  8.4438077    46.8533728
  8.444846     46.8536381
  8.4452016    46.8535714
  8.4457071    46.8536116
  8.4464858    46.8537836
  8.4470078    46.8537896
  8.4479792    46.8539157
  8.4481992    46.8540499
  8.4488344    46.8541013
  8.4498719    46.8541315
  8.4511815    46.8539968
  8.4518134    46.8540368
  8.4521823    46.8539745
  8.4525045    46.8538872
  8.4541599    46.853761
  8.4555748    46.8539848
  8.4574848    46.8545925
  8.4590809    46.8548441
  8.4595174    46.8548872
  8.4598534    46.8549431
  8.4601859    46.8549831
  8.4605347    46.8549751
  8.4608401    46.854933
  8.4609998    46.8549531
  8.4613585    46.8549382
  8.4615089    46.8550586
  8.4617592    46.8552129
  8.4620387    46.8552622
  8.4631155    46.8552952
  8.4639107    46.8549869
  8.4640244    46.8550983
  8.4641245    46.8551527
  8.4648371    46.8553671
  8.4651392    46.8553203
  8.4658887    46.8551309
  8.4660235    46.8553951
  8.466439     46.8554074
  8.4666651    46.8554272
  8.4674095    46.8554452
  8.467803     46.8551839
  8.4683176    46.8551388
  8.4686191    46.8550283
  8.4692896    46.8549235
  8.469994     46.8549233
  8.4708438    46.854849
  8.4708506    46.8548438
  8.4717       46.8546874
  8.4727849    46.8547578
  8.4731713    46.8546959
  8.4733774    46.8546965
  8.4735357    46.8545919
  8.4736511    46.854653
  8.474572     46.8545417
  8.4751937    46.8547389
  8.4755697    46.8546511
  8.4763187    46.8550333
  8.47673      46.8554929
  8.4765476    46.8557066
  8.4768196    46.855822
  8.4767753    46.855947
  8.4774628    46.8564309
  8.4774687    46.8565789
  8.4780422    46.8568109
  8.4782233    46.8569549
  8.4783502    46.8569559
  8.4784634    46.857029
  8.4788406    46.8570467
  8.4794012    46.8572477
  8.4800532    46.8572471
  8.4805499    46.8568972
  8.4808647    46.8565117
  8.481387     46.856225
  8.4818596    46.8558103
  8.4819383    46.8557092
  8.4821555    46.8555719
  8.48236      46.8554095
  8.4835413    46.8551844
  8.4838837    46.8551793
  8.4840641    46.8552001
  8.4849323    46.8551551
  8.485274     46.8550659
  8.4854321    46.8549573
  8.4855723    46.8549378
  8.4860304    46.8545089
  8.48641      46.8543497
  8.4866641    46.8539892
  8.487598     46.8536496
  8.4881752    46.8535622
  8.4886167    46.8533794
  8.4895658    46.8532788
  8.4901989    46.8530362
  8.49201      46.8529886
  8.4924918    46.852848
  8.4929316    46.8528151
  8.4932763    46.852735
  8.4951234    46.8529299
  8.4955596    46.8531422
  8.4959589    46.8532297
  8.496495     46.8534986
  8.496769     46.8534701
  8.4969573    46.8535599
  8.4976761    46.853612
  8.4978747    46.8537256
  8.4985122    46.8531016
  8.4984987    46.852239
  8.4989217    46.8518317
  8.4996291    46.8513477
  8.5000209    46.8512702
  8.5003455    46.8511412
  8.5021475    46.8495016
  8.5025611    46.8479851
  8.5028344    46.8478818
  8.502898     46.8476456
  8.5032387    46.8473107
  8.5035161    46.8472254
  8.5037813    46.8470326
  8.5046297    46.84668
  8.5047921    46.8463936
  8.5053649    46.8460083
  8.5063538    46.8457163
  8.5068132    46.8454761
  8.506886     46.8454755
  8.50552      46.8448854
  8.5056048    46.8446687
  8.5055325    46.8443276
  8.505772     46.8438395
  8.5055625    46.8435265
  8.5057897    46.8430792
  8.5057969    46.8427822
  8.5055493    46.8425281
  8.5053401    46.8422287
  8.5050605    46.8420091
  8.5049213    46.8416027
  8.5043727    46.8411779
  8.5037432    46.8408365
  8.5035084    46.8406309
  8.5030442    46.8404238
  8.5025637    46.8401347
  8.502444     46.839975
  8.5018707    46.8398212
  8.5015663    46.8396774
  8.5007141    46.8393435
  8.4995894    46.8391515
  8.4993132    46.8392395
  8.4981236    46.8389447
  8.498102     46.8388459
  8.4974755    46.8386538
  8.4970985    46.8384864
  8.4967371    46.8384402
  8.4958619    46.8382
  8.4949999    46.8380362
  8.4937071    46.8376864
  8.4935064    46.8374805
  8.4931431    46.8374073
  8.4916942    46.8369889
  8.4911387    46.8367377
  8.4907672    46.8361743
  8.4902914    46.8359763
  8.4903666    46.8358047
  8.4889676    46.8356556
  8.4885159    46.835012
  8.4883872    46.8344599
  8.4881347    46.8342823
  8.4878221    46.8333765
  8.4876169    46.8330725
  8.4863147    46.8320364
  8.4863205    46.8309838
  8.486109     46.8308958
  8.4859812    46.8307568
  8.4857733    46.8304805
  8.4857292    46.8303055
  8.4855954    46.830098
  8.4854005    46.8291749
  8.4848586    46.8286041
  8.4846383    46.8282652
  8.4842812    46.8279005
  8.4841155    46.8276663
  8.4836552    46.8273826
  8.4834187    46.827016
  8.4835572    46.8263849
  8.4834554    46.8262059
  8.483347     46.8258857
  8.4832573    46.8257867
  8.483558     46.8254133
  8.4835976    46.82509
  8.4837189    46.8249215
  8.4836952    46.8243775
  8.4838389    46.8240162
  8.4834687    46.8235105
  8.4836508    46.8233028
  8.4837223    46.8217233
  8.4835007    46.821109
  8.4835602    46.8207972
  8.4833356    46.8203638
  8.4836864    46.8198694
  8.483418     46.8195462
  8.4832511    46.8191843
  8.483217     46.818984
  8.4822561    46.8184215
  8.4817473    46.8178639
  8.4811558    46.8175724
  8.4812065    46.817347
  8.4813764    46.8169811
  8.4811808    46.8163576
  8.4812768    46.8162398
  8.4804384    46.8152345
  8.4804068    46.8149568
  8.4800483    46.8145777
  8.4797269    46.8143602
  8.4781339    46.8137179
  8.478222     46.8126331
  8.4806977    46.8113672
  8.4806659    46.8107414
  8.4832375    46.8087548
  8.4832958    46.8076406
  8.4827131    46.8067112
  8.4834222    46.8057142
  8.4833003    46.8046987
  8.4819767    46.8032588
  8.4807019    46.8024427
  8.4803408    46.8024685
  8.4801117    46.8024076
  8.4800094    46.802199
  8.4801193    46.8021215
  8.4786683    46.8013404
  8.4763238    46.8008228
  8.4744166    46.8001582
  8.4723186    46.799373
  8.4700986    46.7993975
  8.4683388    46.7997903
  8.4642723    46.8005341
  8.4658029    46.7987066
  8.4647183    46.7985051
  8.4668777    46.7977102
  8.4683066    46.79769
  8.4713595    46.7958849
  8.4713264    46.7955262
  8.4725903    46.7954482
  8.4735774    46.7957595
  8.475491     46.7968351
  8.4770454    46.7972871
  8.4778086    46.7971884
  8.4811363    46.7984238
  8.4812728    46.7972909
  8.4814623    46.7966558
  8.4816669    46.7960611
  8.4818066    46.7954292
  8.4818982    46.7949534
  8.4819165    46.7948299
  8.4819321    46.7946733
  8.4819392    46.7938932
  8.4809591    46.7932032
  8.4805925    46.7926641
  8.4798763    46.7921389
  8.4792648    46.7918108
  8.4791355    46.7914935
  8.4787975    46.790946
  8.4785115    46.790586
  8.478373     46.7901285
  8.4785568    46.7892713
  8.4806699    46.7880762
  8.4811416    46.7876113
  8.4836229    46.7862968
  8.4841334    46.7854051
  8.4847124    46.7848043
  8.4854018    46.7832821
  8.4868618    46.7820615
  8.4875133    46.781898
  8.4882946    46.7814635
  8.4886079    46.7809425
  8.491439     46.7725265
  8.4904484    46.7720945
  8.4886487    46.7711277
  8.4872397    46.7708997
  8.4864744    46.7709426
  8.4853987    46.7706755
  8.4844536    46.7705626
  8.4844031    46.7703222
  8.4829303    46.7693165
  8.4824399    46.7693546
  8.4817991    46.7690589
  8.4805457    46.7687395
  8.4801301    46.7685766
  8.4796313    46.7686914
  8.4792117    46.7686614
  8.4788598    46.7687545
  8.4782086    46.7685961
  8.4773194    46.7684961
  8.4760894    46.7682011
  8.4760303    46.7680217
  8.4757856    46.7678911
  8.4747837    46.7678888
  8.4740928    46.7677105
  8.4730256    46.76772
  8.4722831    46.7678933
  8.4706764    46.767877
  8.4703804    46.7684553
  8.4697019    46.7688888
  8.4689197    46.7692019
  8.4683566    46.7691846
  8.4673127    46.7695047
  8.466402     46.7696122
  8.4645821    46.7695753
  8.4636923    46.7692509
  8.4627922    46.7685714
  8.4603586    46.7690999
  8.4577966    46.76793
  8.4572299    46.7675644
  8.456446     46.7674615
  8.4561055    46.7672803
  8.4559627    46.7665083
  8.4556307    46.7664305
  8.4550428    46.7659818
  8.4543117    46.7660673
  8.4536265    46.7654959
  8.4529748    46.7654614
  8.4524079    46.76508
  8.4513991    46.7646913
  8.4504927    46.7645087
  8.4496931    46.7641046
  8.4495386    46.7638992
  8.4486169    46.7634379
  8.4483254    46.7634203
  8.4481442    46.763679
  8.447942     46.76383
  8.4481147    46.7639735
  8.4479206    46.7642566
  8.4481071    46.7645089
  8.4482056    46.7647619
  8.4483967    46.7649497
  8.4483832    46.7651674
  8.4478376    46.7654544
  8.4464786    46.7661299
  8.4461323    46.7664191
  8.4464574    46.7668758
  8.4463957    46.7673358
  8.4464101    46.7674808
  8.4467744    46.7678403
  8.4466811    46.7681822
  8.4471185    46.7686862
  8.4467366    46.7689554
  8.447011     46.7695174
  8.4466388    46.7699923
  8.4466335    46.7700205
  8.4466234    46.7702641
  8.4440836    46.7698753
  8.4437507    46.7699388
  8.4432915    46.769834
  8.4421552    46.7698843
  8.4418597    46.7700723
  8.4411406    46.7708396
  8.4405995    46.7710579
  8.4399308    46.7710356
  8.4393873    46.7714434
  8.4387725    46.771735
  8.438664     46.7718932
  8.4384378    46.7720241
  8.4377807    46.7720385
  8.4371246    46.7723378
  8.436633     46.7723825
  8.4361192    46.7724958
  8.4354979    46.7725053
  8.4350554    46.772352
  8.4341056    46.7723804
  8.430559     46.7721513
  8.4295152    46.771979
  8.4284968    46.7719072
  8.4280453    46.7718119
  8.4265433    46.7713759
  8.4264451    46.7706742
  8.4261035    46.7704821
  8.4258998    46.7704098
  8.4251222    46.7702891
  8.4242681    46.7704075
  8.424203     46.7704307
  8.4226764    46.7704296
  8.4226319    46.7706187
  8.4225525    46.7706581
  8.422482     46.7708269
  8.4223637    46.7710485
  8.4218388    46.7710879
  8.4218788    46.7713966
  8.4218835    46.771863
  8.4210877    46.7727858
  8.4204402    46.7730404
  8.4195457    46.7734964
  8.4192454    46.773594
  8.4187896    46.7736592
  8.4184867    46.7738572
  8.4180166    46.7740605
  8.4168893    46.7742847
  8.4163423    46.7742396
  8.4157802    46.7742215
  8.4146394    46.7743193
  8.4144213    46.7741913
  8.4135628    46.7736503
  8.4124453    46.7734292
  8.4125345    46.7731257
  8.4117262    46.7725004
  8.4106211    46.7714829
  8.4108032    46.7713856
  8.4099579    46.7712356
  8.4094479    46.7710791
  8.4090981    46.7708406
  8.4088519    46.7704749
  8.4082761    46.770128
  8.4078125    46.7697603
  8.4075133    46.7695521
  8.4070774    46.7694791
  8.4068244    46.7693585
  8.4066018    46.7693759
  8.4061096    46.7692766
  8.4058782    46.7691138
  8.4055877    46.7690702
  8.4052334    46.7690457
  8.4050241    46.768875
  8.4046717    46.7688052
  8.4044871    46.7684504
  8.403716     46.7683381
  8.4034785    46.7681409
  8.4028484    46.7678128
  8.4026026    46.7674739
  8.4022491    46.7673312
  8.4018761    46.7670393
  8.4011031    46.7666619
  8.4007984    46.7664499
  8.3996064    46.7661649
  8.3984498    46.7659907
  8.3977833    46.7658354
  8.3976393    46.7658902
  8.3971595    46.7655379
  8.3963933    46.7654967
  8.3958701    46.7685107
  8.3952292    46.771514
END
END
