polygon
1
  8.4102721    46.6529381
  8.4182262    46.6521928
  8.4185508    46.6519386
  8.4188107    46.6506793
  8.4196458    46.6497294
  8.419715     46.6495476
  8.4202074    46.6491435
  8.420463     46.648649
  8.4209452    46.6483433
  8.4219909    46.6478804
  8.4207179    46.6465841
  8.4213729    46.6445001
  8.4213219    46.6440994
  8.4210917    46.6434775
  8.4210064    46.6428775
  8.4208204    46.6421689
  8.4208613    46.6398263
  8.4203051    46.6390126
  8.4199462    46.6384552
  8.4198269    46.6381068
  8.4198658    46.6377328
  8.4203089    46.6371776
  8.4196867    46.6365722
  8.4188062    46.6359156
  8.4188366    46.6357557
  8.4193462    46.6351585
  8.4194174    46.6344783
  8.4191863    46.6340535
  8.4193356    46.6338548
  8.4193557    46.6336684
  8.4199895    46.6331182
  8.4198056    46.6315146
  8.4199303    46.6312591
  8.4198866    46.6308677
  8.4202681    46.6300886
  8.4207214    46.6298499
  8.4209213    46.6295027
  8.4208155    46.6289271
  8.420974     46.6285529
  8.4209114    46.6283411
  8.4211104    46.6280811
  8.4210524    46.6278024
  8.4223559    46.6272623
  8.4221676    46.6268617
  8.4212239    46.6264405
  8.4207458    46.6262962
  8.4206318    46.6260904
  8.4206304    46.6257739
  8.4203971    46.6255713
  8.420596     46.6253318
  8.4203496    46.6250586
  8.4205634    46.6246412
  8.4204898    46.6242712
  8.4206463    46.6240297
  8.4204329    46.6232584
  8.4206606    46.62303
  8.4206484    46.6222114
  8.4204906    46.6216816
  8.4210183    46.6208994
  8.4208095    46.6204374
  8.4210029    46.6200813
  8.4209903    46.6196787
  8.4206805    46.6192225
  8.4203904    46.6190188
  8.4206554    46.6175754
  8.4204792    46.6171771
  8.4204056    46.6163489
  8.420212     46.6160623
  8.4199261    46.6158078
  8.4194814    46.6152828
  8.4184883    46.6147192
  8.4169805    46.612564
  8.4171795    46.6094944
  8.4161391    46.606827
  8.4151201    46.606422
  8.4147506    46.60577
  8.4148778    46.6056118
  8.4144518    46.6052885
  8.4141321    46.6047372
  8.4136386    46.6046002
  8.4132988    46.6047682
  8.4130495    46.6045013
  8.4127057    46.6044131
  8.4110288    46.6031407
  8.4112139    46.6026572
  8.4104992    46.6021941
  8.4081981    46.6013741
  8.4079885    46.6011854
  8.4084743    46.6011
  8.4081944    46.6006838
  8.4082925    46.6005582
  8.4077612    46.5999556
  8.4076369    46.5995189
  8.4088505    46.5980913
  8.4093009    46.5975153
  8.4103332    46.5968897
  8.4103074    46.5963755
  8.4100875    46.5964332
  8.4090108    46.5953919
  8.4091007    46.5952299
  8.4087496    46.594723
  8.4085492    46.5937439
  8.4087789    46.5931359
  8.4083261    46.5922277
  8.4080849    46.5916136
  8.4081181    46.5911996
  8.407789     46.5903544
  8.4081488    46.5896306
  8.4078457    46.5893193
  8.4079159    46.5889821
  8.4076416    46.5887068
  8.4074066    46.5877
  8.4070969    46.5875437
  8.4069208    46.5868297
  8.4061444    46.5859616
  8.4062822    46.585727
  8.4072222    46.585342
  8.4079775    46.5845167
  8.4078676    46.5834418
  8.4076588    46.5830184
  8.4104813    46.5796797
  8.4104176    46.5792249
  8.4098244    46.578754
  8.409955     46.5774789
  8.4123692    46.5754862
  8.4151341    46.5727193
  8.4157544    46.5722122
  8.4170345    46.5710963
  8.4192151    46.5667956
  8.4197588    46.5661654
  8.419609     46.5657206
  8.4193269    46.5654686
  8.4191868    46.5651088
  8.4196271    46.5635717
  8.4201814    46.5631543
  8.4203714    46.5625187
  8.4207594    46.561987
  8.4212889    46.5610525
  8.4216549    46.5607427
  8.4230201    46.5603862
  8.4232618    46.560155
  8.4234268    46.5596607
  8.4230341    46.556004
  8.4235969    46.5548036
  8.4235776    46.553958
  8.4239075    46.5536449
  8.4238038    46.5533116
  8.4239943    46.5531573
  8.4238571    46.5525992
  8.4241355    46.5517981
  8.4246579    46.5510597
  8.4254887    46.5507657
  8.4258338    46.5502197
  8.4260853    46.5499299
  8.4263019    46.5489847
  8.4265708    46.5485959
  8.4265556    46.5481902
  8.4263294    46.5480492
  8.4263204    46.5473243
  8.4266693    46.5468326
  8.4271619    46.5465582
  8.4277374    46.5462633
  8.4281124    46.545592
  8.4284717    46.5454324
  8.4284836    46.5442835
  8.4288492    46.5436302
  8.4292643    46.5433109
  8.4309253    46.5432883
  8.4324505    46.5429372
  8.4328661    46.5429351
  8.4342607    46.5417569
  8.4346672    46.5409788
  8.4355694    46.5401339
  8.4371911    46.5397278
  8.4382137    46.5396586
  8.4391863    46.5401421
  8.4397511    46.5400494
  8.4405926    46.5397247
  8.4410934    46.5397181
  8.4423549    46.5389723
  8.4426253    46.538925
  8.4426796    46.5387208
  8.4434232    46.5381
  8.4434701    46.537731
  8.4437218    46.5375517
  8.4448478    46.5375659
  8.4452892    46.5368359
  8.4461008    46.536577
  8.4507072    46.5354036
  8.4517905    46.5351369
  8.4519979    46.5350147
  8.4528675    46.5349682
  8.4533698    46.5347944
  8.4538517    46.5345547
  8.4547968    46.5342269
  8.4557534    46.5342204
  8.4568758    46.5340143
  8.4574066    46.5336528
  8.4581629    46.5335539
  8.4588811    46.5337099
  8.4602393    46.5338452
  8.4613375    46.5342546
  8.4624048    46.5348878
  8.4636897    46.5358399
  8.4644188    46.5358311
  8.46554      46.5354822
  8.4661002    46.5349504
  8.4662593    46.5344776
  8.466581     46.5340428
  8.4671012    46.5336799
  8.4674875    46.5339517
  8.4680243    46.5338655
  8.4681933    46.5334871
  8.4685815    46.5331144
  8.4694084    46.532848
  8.4722424    46.5304021
  8.4735105    46.5285552
  8.4739315    46.528416
  8.4752211    46.5281082
  8.4760977    46.5278233
  8.4767116    46.5278113
  8.4776247    46.527627
  8.4776255    46.5276195
  8.4776399    46.5276141
  8.4784137    46.5280166
  8.4790244    46.5284602
  8.4796308    46.5286683
  8.4799848    46.5290654
  8.4807279    46.5292989
  8.4819438    46.5315698
  8.4823461    46.5319182
  8.4826364    46.5323941
  8.483234     46.5323255
  8.4838756    46.5323866
  8.4850695    46.5323136
  8.4865453    46.5327575
  8.4902965    46.532849
  8.4913532    46.5330432
  8.491669     46.5332785
  8.4935013    46.5340899
  8.4950574    46.5345555
  8.4968235    46.5344415
  8.4975351    46.5342064
  8.499378     46.5344205
  8.499812     46.534208
  8.5002787    46.5343975
  8.5004554    46.5348385
  8.5013361    46.53512
  8.5023523    46.5351821
  8.5030844    46.5350702
  8.5037935    46.5351691
  8.5042283    46.5350846
  8.5046579    46.5351489
  8.5054244    46.5351782
  8.5072009    46.5357099
  8.5075304    46.5358253
  8.5079233    46.5362836
  8.5096526    46.5367871
  8.5104235    46.5372555
  8.5111415    46.5375234
  8.5113568    46.537623
  8.5117569    46.537491
  8.5120862    46.5376277
  8.512776     46.5377429
  8.5129811    46.5379341
  8.513363     46.5379579
  8.5138209    46.5381772
  8.5156175    46.5384879
  8.51608      46.5388467
  8.5169473    46.5389155
  8.5171809    46.5387609
  8.5177419    46.5388895
  8.5194742    46.5389183
  8.5195633    46.5396548
  8.5194333    46.5401371
  8.5196143    46.5406031
  8.5192682    46.5411689
  8.519413     46.541544
  8.5200125    46.5419349
  8.5204354    46.5425001
  8.5197963    46.5434318
  8.5188879    46.5437318
  8.5187478    46.5441091
  8.5182068    46.5443942
  8.5180505    46.5448838
  8.5177058    46.545191
  8.517974     46.5454865
  8.5180744    46.5467314
  8.5170545    46.5471704
  8.5165647    46.5475005
  8.5157242    46.5486093
  8.5152056    46.5502455
  8.514883     46.5505204
  8.5147348    46.5510579
  8.5144584    46.5515265
  8.5148585    46.5528171
  8.5158707    46.5544731
  8.5155545    46.5549447
  8.5153158    46.5555568
  8.5142249    46.5563628
  8.5135506    46.5566294
  8.5134964    46.5570008
  8.5132253    46.557332
  8.5131171    46.5580793
  8.5133823    46.558281
  8.513579     46.5592309
  8.5141746    46.5601076
  8.5148033    46.5606765
  8.5152143    46.5611801
  8.5157999    46.5622574
  8.5167762    46.5629101
  8.5177748    46.5648523
  8.5181421    46.5654367
  8.5197789    46.5665113
  8.5210066    46.5669165
  8.5210676    46.5682958
  8.5209787    46.5687179
  8.5210108    46.5690926
  8.5210192    46.5700576
  8.5205398    46.5712178
  8.5203337    46.5721153
  8.5199734    46.5726584
  8.5219067    46.5745786
  8.52187      46.5759818
  8.5211851    46.577248
  8.5227563    46.5776238
  8.5250152    46.577831
  8.5247891    46.5788226
  8.5248784    46.5792214
  8.5254888    46.5796259
  8.5259778    46.5800734
  8.5261309    46.5802906
  8.5260393    46.5810376
  8.5263341    46.5815293
  8.5269558    46.5820754
  8.5277172    46.5825346
  8.5293726    46.5833635
  8.5301806    46.5837037
  8.5305726    46.5840223
  8.5313867    46.5845676
  8.5323117    46.5847544
  8.5330668    46.5847174
  8.5342452    46.5845389
  8.5355353    46.584729
  8.5364864    46.5849017
  8.5377322    46.5856597
  8.5389348    46.5864162
  8.5392081    46.5867801
  8.5396474    46.5862975
  8.540799     46.5860095
  8.5410366    46.5858684
  8.5412412    46.5855359
  8.543634     46.5846657
  8.5450201    46.5840123
  8.5462577    46.5827602
  8.5465894    46.5824578
  8.5480482    46.5817371
  8.5509224    46.5806899
  8.5546642    46.5806379
  8.5586882    46.581576
  8.5587754    46.5815229
  8.5591001    46.5814607
  8.5592876    46.5814558
  8.5596029    46.5812044
  8.5603368    46.5812015
  8.5609485    46.5814411
  8.5615723    46.5816438
  8.56394      46.5813271
  8.5652074    46.5813344
  8.5658513    46.5814453
  8.5668143    46.5816724
  8.5674438    46.5818476
  8.5696492    46.5826243
  8.5724433    46.5837369
  8.5730833    46.5836329
  8.573703     46.5837122
  8.5745188    46.5832119
  8.5751718    46.5828058
  8.5758751    46.5822181
  8.5766715    46.5820292
  8.5774009    46.5816264
  8.5773237    46.5812067
  8.5775041    46.5808516
  8.5777409    46.5806533
  8.5784503    46.5806787
  8.5796336    46.5793788
  8.5804959    46.5783929
  8.5813892    46.5770519
  8.5837325    46.5770988
  8.5845101    46.5769468
  8.5849115    46.5764577
  8.5857265    46.5762364
  8.5862633    46.5759259
  8.5878105    46.574803
  8.5881047    46.5747683
  8.5892334    46.5740207
  8.5900281    46.573786
  8.5905391    46.5734049
  8.5919296    46.5736225
  8.5933539    46.5734714
  8.5956261    46.573773
  8.5965398    46.5739161
  8.5975964    46.5739721
  8.5978888    46.5740863
  8.5985654    46.5739884
  8.598826     46.5736548
  8.5997828    46.5735112
  8.6014308    46.5735942
  8.602528     46.5741596
  8.6034621    46.5741414
  8.6045937    46.574142
  8.6054295    46.5743342
  8.6065929    46.574409
  8.6077263    46.5746741
  8.6105158    46.574871
  8.6112565    46.5749984
  8.6113246    46.575242
  8.6116143    46.5753721
  8.6134225    46.5762553
  8.614696     46.5770212
  8.6149289    46.5777173
  8.6149633    46.5781525
  8.617749     46.5775453
  8.6196387    46.5780014
  8.6204014    46.5780918
  8.6220896    46.5776066
  8.6228707    46.5773673
  8.6239628    46.5771046
  8.6245448    46.577075
  8.6253468    46.5769377
  8.6255379    46.5766121
  8.6265576    46.5763665
  8.6265933    46.5759611
  8.626823     46.5757949
  8.6268115    46.5751753
  8.6270878    46.574727
  8.6279109    46.574169
  8.6295544    46.5737364
  8.6294547    46.57316
  8.6290711    46.5724299
  8.6288343    46.5715303
  8.628911     46.5707765
  8.6292057    46.5699986
  8.6297569    46.5688733
  8.6302606    46.5670924
  8.6308839    46.5658012
  8.631451     46.565419
  8.6324579    46.565384
  8.6339092    46.5653509
  8.6340281    46.5646696
  8.6346573    46.5643782
  8.6354288    46.5644222
  8.6365622    46.5643051
  8.6379674    46.5642818
  8.6389651    46.5644597
  8.6407542    46.5641279
  8.6415638    46.5644279
  8.6423384    46.5644814
  8.6427316    46.5647264
  8.643146     46.5647218
  8.6434405    46.5653688
  8.644505     46.5653694
  8.6453261    46.5651407
  8.6457145    46.5652771
  8.6464345    46.5655489
  8.6479543    46.5659143
  8.6483533    46.5661952
  8.6500035    46.5664354
  8.6504861    46.5666502
  8.651292     46.5666877
  8.6520123    46.5670477
  8.6525748    46.5672216
  8.6532315    46.5676454
  8.6546032    46.5682665
  8.6552469    46.5682439
  8.6560651    46.5684188
  8.6565973    46.5686589
  8.6572872    46.5690714
  8.6579418    46.5697468
  8.6584883    46.5706394
  8.6588495    46.5714988
  8.6592825    46.5716905
  8.6596716    46.572374
  8.6594555    46.5728171
  8.6598979    46.5730843
  8.6599562    46.573652
  8.6607802    46.5735295
  8.6615995    46.5735716
  8.6623013    46.573769
  8.662845     46.5738329
  8.6643231    46.5744799
  8.6649078    46.5747724
  8.6649973    46.5751802
  8.6654376    46.5757105
  8.666192     46.5759766
  8.6668638    46.5765857
  8.6686735    46.5768606
  8.6689467    46.5771362
  8.6699603    46.5773622
  8.6710412    46.5774807
  8.6723809    46.5780009
  8.6726357    46.5784961
  8.6750808    46.5785926
  8.6754994    46.578537
  8.6763622    46.5785265
  8.6771844    46.5786282
  8.6787487    46.5791899
  8.6819248    46.5885282
  8.680563     46.5930376
  8.6806131    46.5950479
  8.677278     46.5982745
  8.6772324    46.5985645
  8.6767235    46.5993716
  8.677287     46.6000305
  8.6773315    46.600255
  8.6772777    46.6003668
  8.6772615    46.6006456
  8.6772756    46.6009348
  8.6771914    46.6010561
  8.6770734    46.6011898
  8.6773135    46.6013849
  8.6771602    46.6015803
  8.6775416    46.6019257
  8.6776266    46.6023103
  8.6773343    46.6025822
  8.677665     46.6027602
  8.6778425    46.6030603
  8.6777142    46.6032128
  8.6784174    46.6040319
  8.6789655    46.6043182
  8.6793495    46.6046813
  8.6795007    46.6049486
  8.6796084    46.6053433
  8.6796366    46.6056161
  8.679371     46.606291
  8.679101     46.6072382
  8.6792265    46.6073955
  8.6786761    46.608051
  8.678721     46.608194
  8.6785151    46.6086116
  8.6784708    46.6088813
  8.6777526    46.6093591
  8.6783007    46.6145092
  8.6787486    46.6159915
  8.6766805    46.6199654
  8.6759713    46.619818
  8.6754428    46.6197131
  8.6753249    46.6198159
  8.6750374    46.6198177
  8.6748128    46.6198373
  8.674772     46.6199152
  8.6743517    46.6198783
  8.6740354    46.6200277
  8.6733711    46.6199141
  8.6728903    46.6197821
  8.6713431    46.6196069
  8.6677896    46.6200952
  8.6670985    46.6203415
  8.6664144    46.6206722
  8.6652508    46.621173
  8.6642676    46.6215562
  8.6640252    46.6216783
  8.6638311    46.6223039
  8.6637016    46.6224956
  8.6637031    46.6227599
  8.6638829    46.6231243
  8.6629606    46.6233794
  8.6625604    46.6234264
  8.662129     46.623791
  8.6615757    46.6241104
  8.66133      46.6241925
  8.6609741    46.6245052
  8.6604186    46.6245387
  8.6592561    46.6249288
  8.6587471    46.6255121
  8.658415     46.6258071
  8.658325     46.6259885
  8.6579585    46.6261597
  8.658142     46.6265547
  8.658173     46.626972
  8.6579596    46.6274809
  8.6579153    46.6283516
  8.6580062    46.6285491
  8.657701     46.6287764
  8.6573733    46.6289185
  8.6572438    46.6290684
  8.6570707    46.6290762
  8.656451     46.6298308
  8.6563522    46.6301741
  8.6565964    46.6304907
  8.6566428    46.6306887
  8.6565575    46.6310282
  8.6565862    46.6313257
  8.6562452    46.6314234
  8.6561921    46.6315219
  8.6558388    46.6316021
  8.6555885    46.6317872
  8.6549539    46.6320362
  8.6544694    46.6324372
  8.6536667    46.6326916
  8.6534005    46.6329424
  8.6531431    46.6330327
  8.6531003    46.6331885
  8.6515427    46.6340153
  8.6512942    46.6339531
  8.6511213    46.6342589
  8.6510673    46.6345843
  8.6512244    46.6350352
  8.6512662    46.6353998
  8.6515355    46.6366298
  8.6518034    46.6374705
  8.6518789    46.6379356
  8.6524377    46.6384056
  8.6534665    46.6387787
  8.653796     46.6393068
  8.6548592    46.6395959
  8.6557053    46.6397228
  8.6560943    46.6403543
  8.6564741    46.6408415
  8.6574768    46.6416297
  8.6572289    46.6418768
  8.6563936    46.6432077
  8.6564409    46.6437355
  8.6567908    46.6442302
  8.657552     46.6449821
  8.657647     46.6456013
  8.6581936    46.6463195
  8.6584211    46.6471591
  8.6582088    46.6477685
  8.6560649    46.6484979
  8.6548831    46.649968
  8.6592375    46.6539957
  8.6613983    46.6560204
  8.6662171    46.6559677
  8.6715451    46.6589065
  8.6741382    46.6614186
  8.6754195    46.6628712
  8.6786125    46.6642615
  8.6771425    46.6680859
  8.6740263    46.6706882
  8.6737266    46.6710112
  8.6736053    46.6714095
  8.6734756    46.6726289
  8.6735187    46.6729217
  8.6737241    46.6733483
  8.67379      46.6739419
  8.6739941    46.6749889
  8.6739999    46.675211
  8.6741384    46.6754959
  8.674163     46.6757896
  8.6740704    46.6761219
  8.6739333    46.6763329
  8.6736604    46.6767214
  8.6737015    46.6770524
  8.6741711    46.6779437
  8.6742194    46.6783392
  8.6737743    46.6795177
  8.6736906    46.6796794
  8.6733308    46.6803741
  8.6729672    46.6808083
  8.6728402    46.6812255
  8.6732247    46.6823105
  8.6739838    46.6832758
  8.6750238    46.6840527
  8.6751767    46.6845247
  8.6749803    46.6850292
  8.6750669    46.6852816
  8.6745462    46.6861378
  8.6744475    46.6866494
  8.6737793    46.6882458
  8.6739563    46.6889202
  8.673762     46.6898681
  8.6736487    46.6909099
  8.6743566    46.6921441
  8.6758939    46.693637
  8.6763262    46.6942145
  8.6782996    46.6949492
  8.6805862    46.6950504
  8.6814898    46.6945957
  8.6824706    46.6943819
  8.6838675    46.6946494
  8.6849525    46.6943138
  8.6859309    46.6942971
  8.6862819    46.6941788
  8.6892981    46.6961681
  8.6897977    46.6971335
  8.690649     46.6985654
  8.690968     46.699341
  8.691234     46.7002865
  8.6915961    46.7009827
  8.6925922    46.7018447
  8.6955355    46.7028322
  8.6957758    46.7028764
  8.6963478    46.7028504
  8.6967082    46.7028759
  8.6976791    46.7031411
  8.6985708    46.7034772
  8.7002083    46.7035832
  8.7006105    46.7034179
  8.7011557    46.7033924
  8.701786     46.7030915
  8.7025171    46.7026782
  8.7030147    46.7026349
  8.7040433    46.7020899
  8.7044886    46.701402
  8.7047983    46.7011822
  8.7049337    46.700942
  8.7062966    46.7003016
  8.7089892    46.6989581
  8.70966      46.6995493
  8.7100878    46.7001905
  8.7112885    46.7002527
  8.712881     46.7007739
  8.7142568    46.7012731
  8.7151345    46.7015467
  8.7165239    46.7024266
  8.7172017    46.7025841
  8.7173204    46.7028279
  8.7174807    46.7035426
  8.7176778    46.7040351
  8.7174777    46.7044348
  8.7174297    46.7049917
  8.7173911    46.7053044
  8.7177098    46.7060807
  8.7181289    46.706138
  8.7194638    46.7065034
  8.7201394    46.7069215
  8.7221608    46.706727
  8.7226255    46.7067602
  8.7230808    46.7068707
  8.724428     46.7066734
  8.7261022    46.7068703
  8.7276271    46.70744
  8.7281212    46.7078952
  8.7290589    46.7084544
  8.7296894    46.7086896
  8.7300356    46.7092303
  8.7305654    46.7097231
  8.7310798    46.7100455
  8.731474     46.7105312
  8.7324151    46.71106
  8.7330056    46.7116873
  8.7331925    46.7118471
  8.7335307    46.7119129
  8.7344734    46.7123675
  8.7352838    46.7130328
  8.7374895    46.7140579
  8.7408024    46.7146033
  8.7421276    46.7154624
  8.7430315    46.7155151
  8.7430201    46.716127
  8.744202     46.7166872
  8.7457032    46.7171151
  8.7460342    46.7175542
  8.7462739    46.7177268
  8.7470173    46.7180605
  8.7475352    46.7183784
  8.7490696    46.7207364
  8.7490942    46.7219233
  8.7484062    46.7224881
  8.7444013    46.7288775
  8.7444368    46.728982
  8.7444604    46.7292827
  8.7446152    46.7298355
  8.7447673    46.730219
  8.7450777    46.7308584
  8.7454781    46.7315175
  8.7451096    46.7317199
  8.7466807    46.7330166
  8.7472217    46.7332918
  8.7473442    46.7334666
  8.7472888    46.7337838
  8.7475926    46.7347437
  8.7479011    46.7351838
  8.7476442    46.7359066
  8.7496473    46.7364167
  8.7506764    46.7372533
  8.7510304    46.7375296
  8.7529765    46.7381377
  8.7538832    46.7388897
  8.7561623    46.7407043
  8.7566744    46.7410372
  8.7577775    46.7415522
  8.758461     46.7416481
  8.7589004    46.7418105
  8.7594777    46.7421293
  8.7610167    46.7429298
  8.7617018    46.743101
  8.7621416    46.7433201
  8.7637256    46.7438139
  8.7638828    46.7439143
  8.7647306    46.7441981
  8.7651557    46.7444662
  8.7661161    46.7447791
  8.7674948    46.7446944
  8.7680618    46.7444626
  8.7688421    46.7444489
  8.7690676    46.7445566
  8.7695944    46.744345
  8.7695408    46.7439921
  8.7694488    46.7438093
  8.7687609    46.7434674
  8.7691072    46.7432992
  8.7694576    46.7430736
  8.7695019    46.7428975
  8.7694332    46.7426333
  8.7697694    46.7417712
  8.7697537    46.7416757
  8.7694305    46.7411017
  8.7694072    46.7409488
  8.7696636    46.7405748
  8.7698557    46.7404257
  8.7701685    46.7403176
  8.7707879    46.7402173
  8.7714471    46.7402056
  8.771836     46.740143
  8.7723226    46.740013
  8.7727829    46.7397557
  8.7730754    46.7393922
  8.7733085    46.7388663
  8.7734023    46.7384477
  8.7735242    46.737705
  8.7738814    46.7374962
  8.7741718    46.7372828
  8.7750279    46.7363592
  8.7756635    46.7358977
  8.7755717    46.73537
  8.7754622    46.7352668
  8.7755048    46.7350396
  8.7759287    46.7346969
  8.7765375    46.7344309
  8.7764791    46.7341014
  8.7763547    46.733838
  8.7767727    46.7336237
  8.7769022    46.7332637
  8.7768421    46.7330096
  8.7774138    46.7326295
  8.7774982    46.7324621
  8.7773694    46.7322291
  8.7777566    46.7321741
  8.7782638    46.7320494
  8.778769     46.7317819
  8.7794231    46.7316911
  8.7797641    46.7314565
  8.7805401    46.7312114
  8.7811644    46.7298732
  8.7819892    46.7283082
  8.7834393    46.7288666
  8.7842082    46.7290428
  8.785378     46.7293907
  8.7860993    46.7298354
  8.7869785    46.7300577
  8.7882003    46.7302311
  8.7892396    46.7303667
  8.7906168    46.730828
  8.7914402    46.7312157
  8.792121     46.7313611
  8.7935508    46.7314229
  8.7947515    46.7317164
  8.7954046    46.7316423
  8.796113     46.7316908
  8.7975531    46.7316226
  8.7978164    46.7316497
  8.7982429    46.7316475
  8.7989909    46.7317322
  8.7995253    46.731449
  8.8001221    46.7317944
  8.800322     46.7320119
  8.8005976    46.7321737
  8.8015321    46.7325893
  8.8028792    46.73343
  8.803293     46.7335559
  8.803569     46.7339867
  8.8042522    46.7342503
  8.8046197    46.7344358
  8.8051461    46.7346109
  8.806779     46.7350538
  8.8076074    46.7350262
  8.8082511    46.7352678
  8.8085712    46.7350929
  8.8093071    46.7354796
  8.8096212    46.7357166
  8.8100948    46.7359571
  8.8104905    46.7363324
  8.8116522    46.7369464
  8.8119801    46.7370548
  8.8122136    46.7372012
  8.8126431    46.7373162
  8.8129843    46.7373106
  8.8111406    46.7416342
  8.8104364    46.7449211
  8.8109308    46.7456496
  8.8110661    46.7459273
  8.8112276    46.7463019
  8.8117635    46.7469738
  8.812028     46.747205
  8.8125351    46.7473219
  8.8129227    46.7476228
  8.8129894    46.7478582
  8.8129852    46.7482186
  8.8138229    46.7491374
  8.8139444    46.7493618
  8.8139705    46.7498293
  8.8141551    46.7499791
  8.8138904    46.751099
  8.8137159    46.7528241
  8.8142285    46.7533123
  8.8139721    46.7540482
  8.8145703    46.7550507
  8.8145291    46.7552625
  8.8155953    46.7563663
  8.8157209    46.756656
  8.8161002    46.7571309
  8.8165044    46.7574339
  8.8173016    46.7580418
  8.8177973    46.7580756
  8.8185699    46.7584043
  8.8185873    46.7588071
  8.8189327    46.7592995
  8.8186939    46.7596001
  8.8188843    46.7597559
  8.8189509    46.7599118
  8.8185534    46.7604604
  8.8183938    46.7611524
  8.8183535    46.7614676
  8.8182267    46.7617448
  8.8184954    46.7621701
  8.818552     46.7624801
  8.8193898    46.7627009
  8.8197983    46.7628979
  8.8205221    46.7631627
  8.8215441    46.7633018
  8.822585     46.7636052
  8.822421     46.7637455
  8.8224322    46.7638516
  8.822741     46.7641122
  8.8227689    46.764315
  8.8228986    46.7644771
  8.823002     46.764639
  8.8235092    46.7647805
  8.8239012    46.7649726
  8.8245965    46.7654137
  8.8250145    46.7657979
  8.825421     46.7660335
  8.8256247    46.7659862
  8.8259355    46.7659691
  8.8266774    46.7657446
  8.8270531    46.7655644
  8.8275337    46.7654666
  8.8290821    46.7648814
  8.8305741    46.7644668
  8.8311525    46.7643889
  8.8314348    46.7643002
  8.8317156    46.764331
  8.8321306    46.7646882
  8.832483     46.7649502
  8.832533     46.765244
  8.8328165    46.7655282
  8.8345764    46.7668518
  8.8329077    46.7687403
  8.8314805    46.7695309
  8.8303629    46.7711489
  8.8304498    46.7733125
  8.8306121    46.7735009
  8.8299935    46.7739393
  8.8298707    46.7757042
  8.8295985    46.7762245
  8.8292273    46.7766598
  8.8292647    46.7771599
  8.8287172    46.7778363
  8.8285298    46.7782119
  8.8281603    46.7785882
  8.8281333    46.7787874
  8.8279052    46.7791978
  8.8280023    46.7795063
  8.8279302    46.7798583
  8.8279976    46.7801634
  8.8284454    46.7809473
  8.8291024    46.7818342
  8.8288619    46.7821343
  8.8288014    46.782313
  8.8288986    46.7827437
  8.8289532    46.7835397
  8.8286181    46.7840287
  8.8283809    46.7846362
  8.828095     46.7850243
  8.8279456    46.7853755
  8.8278544    46.786194
  8.8266061    46.787241
  8.8264728    46.788051
  8.8263114    46.7883479
  8.8265638    46.788566
  8.8266824    46.7888705
  8.8271985    46.7895207
  8.8273878    46.7904093
  8.827596     46.79101
  8.8276849    46.7916369
  8.8281499    46.7921417
  8.8284561    46.7922251
  8.8296393    46.7923196
  8.8299637    46.7924704
  8.8306963    46.7925949
  8.8309521    46.7927762
  8.8317552    46.793088
  8.832346     46.7937234
  8.8330919    46.7939902
  8.8331721    46.7942259
  8.8335744    46.7945082
  8.8340143    46.7950369
  8.8344665    46.7952104
  8.835099     46.7951222
  8.8353214    46.7951937
  8.8362811    46.7952594
  8.8375799    46.7950814
  8.8386616    46.7951231
  8.8410942    46.793726
  8.8431113    46.7935646
  8.8435182    46.7936764
  8.8444044    46.7936083
  8.8448948    46.7936081
  8.8466649    46.793448
  8.8477175    46.7935147
  8.848216     46.7934396
  8.8479131    46.7939546
  8.8478714    46.7944638
  8.8474094    46.7951968
  8.8469991    46.7964653
  8.8473685    46.7972808
  8.8471434    46.797548
  8.8474622    46.797771
  8.8473029    46.7980051
  8.847955     46.7982354
  8.8481223    46.7983929
  8.8493125    46.7988103
  8.8505631    46.7990619
  8.8511479    46.7993623
  8.8516546    46.7995188
  8.8525468    46.7996909
  8.852811     46.8001673
  8.8536771    46.8007072
  8.8541838    46.8010523
  8.8548107    46.801328
  8.8552467    46.8019581
  8.8564482    46.8025858
  8.8569987    46.8030697
  8.8575295    46.8032336
  8.8574608    46.8039687
  8.8578561    46.8042903
  8.858221     46.8044767
  8.8586148    46.8047173
  8.8588074    46.8047802
  8.859886     46.8056945
  8.8604441    46.8058156
  8.8622742    46.8059655
  8.8629222    46.8060018
  8.8637047    46.8061646
  8.8649549    46.8063566
  8.8660717    46.8067274
  8.8666631    46.8066597
  8.8677437    46.8066119
  8.8694653    46.8066524
  8.8696778    46.8071061
  8.8703398    46.8075428
  8.8708733    46.8076771
  8.8713525    46.8079402
  8.8719031    46.8080858
  8.8728947    46.8082335
  8.8732532    46.8084322
  8.873599     46.8084783
  8.8739337    46.8086332
  8.8742351    46.8088887
  8.8744525    46.8093071
  8.8749566    46.810203
  8.8750102    46.8104688
  8.8753037    46.8109005
  8.8755053    46.8113267
  8.8758317    46.8114548
  8.8760945    46.8119376
  8.8762588    46.812195
  8.8766977    46.8126692
  8.8770532    46.8129135
  8.8768831    46.813452
  8.8759269    46.815015
  8.8755715    46.8159619
  8.876255     46.816936
  8.8801691    46.8200759
  8.8816422    46.8290674
  8.8770994    46.8334756
  8.8758247    46.8342838
  8.8749138    46.834755
  8.8743709    46.8352041
  8.8745264    46.8361475
  8.8743678    46.8364724
  8.8745979    46.8367482
  8.8744903    46.8373678
  8.8739399    46.8378469
  8.8736663    46.8386282
  8.8739663    46.8395414
  8.8740739    46.8396435
  8.873748     46.8401871
  8.8736791    46.8405476
  8.8732928    46.8407953
  8.8731896    46.8410956
  8.8729937    46.8413611
  8.872145     46.8417136
  8.8712361    46.842031
  8.8719172    46.8419694
  8.8726957    46.8420933
  8.8735024    46.8423884
  8.8739516    46.8427168
  8.874293     46.8431795
  8.8749828    46.8434523
  8.8752902    46.8436832
  8.8758548    46.8438264
  8.8769484    46.8439322
  8.87774      46.8441029
  8.8784367    46.8444193
  8.8790636    46.8447873
  8.879612     46.8450228
  8.8808524    46.8451812
  8.881523     46.8454526
  8.8824641    46.8457697
  8.8832555    46.8460784
  8.8839871    46.846204
  8.884531     46.8464011
  8.8848999    46.8466315
  8.8851905    46.8467106
  8.8862227    46.847283
  8.8874905    46.8476366
  8.8879536    46.8475726
  8.8881252    46.8476161
  8.8879856    46.8479628
  8.8888453    46.8482498
  8.8899209    46.8484446
  8.8910799    46.8485539
  8.8913837    46.8483943
  8.8919405    46.8485134
  8.8931131    46.8490372
  8.8936644    46.8491592
  8.8943942    46.8492319
  8.895668     46.8495675
  8.8957385    46.8500414
  8.8962842    46.8503161
  8.8963905    46.8507655
  8.8968389    46.8509693
  8.897032     46.8511566
  8.8973926    46.8513539
  8.8991886    46.8525062
  8.8991599    46.8526554
  8.8993905    46.8529031
  8.8993705    46.8531587
  8.8999464    46.8537294
  8.900352     46.8540918
  8.9001663    46.8544807
  8.9006288    46.8547333
  8.9006414    46.8548463
  8.9014876    46.8555052
  8.9020776    46.8558714
  8.9027757    46.8561156
  8.9029244    46.8564401
  8.9037376    46.8571511
  8.9048855    46.8578366
  8.9055952    46.8584054
  8.906041     46.8586746
  8.9073771    46.8598545
  8.9075907    46.8602195
  8.9082798    46.8605368
  8.9089128    46.8607078
  8.9092539    46.860974
  8.909437     46.8609831
  8.9100427    46.8607248
  8.9106217    46.8605995
  8.911278     46.8602953
  8.9122465    46.8603967
  8.9123956    46.8602915
  8.912816     46.8603673
  8.9137016    46.8601302
  8.914242     46.8601604
  8.9145806    46.8601167
  8.915892     46.8601737
  8.9165752    46.8604613
  8.9173978    46.8605884
  8.9178171    46.8604765
  8.9182672    46.8608423
  8.9194329    46.8614965
  8.9206387    46.8620964
  8.9209437    46.8621028
  8.9215568    46.8624906
  8.9231304    46.8632963
  8.9234758    46.8633908
  8.9239778    46.8634454
  8.9266762    46.8642251
  8.9275194    46.8643132
  8.9281304    46.8643331
  8.9287839    46.8646485
  8.9292097    46.8647419
  8.9298596    46.8648045
  8.9303182    46.8649539
  8.9308649    46.8649972
  8.9315379    46.865429
  8.931975     46.8655056
  8.9325254    46.8654845
  8.9333829    46.8653369
  8.9336969    46.8655576
  8.9340612    46.8657765
  8.9340483    46.8660644
  8.934803     46.8665564
  8.9353525    46.8670013
  8.9356609    46.8674024
  8.9359081    46.867553
  8.9368831    46.8679101
  8.9375535    46.8681275
  8.9377798    46.8682886
  8.9383593    46.8686049
  8.9387572    46.8686627
  8.9391314    46.8690326
  8.9396624    46.8693173
  8.9401112    46.8696461
  8.9401995    46.8698847
  8.9406361    46.8699715
  8.9410805    46.8704624
  8.9417191    46.8708883
  8.9423545    46.8709787
  8.9427696    46.8711052
  8.943133     46.8711426
  8.943707     46.8710621
  8.9437687    46.8711627
  8.9443438    46.8713484
  8.9447903    46.8713939
  8.9453258    46.8713954
  8.9454802    46.8715324
  8.945582     46.8717848
  8.945768     46.8718868
  8.945883     46.8721318
  8.9463759    46.8722831
  8.9467798    46.8722435
  8.9472897    46.8723286
  8.9474789    46.8723192
  8.9480679    46.8727231
  8.9485255    46.8729593
  8.9490372    46.8730868
  8.9503786    46.8731756
  8.9559207    46.8753281
  8.9578097    46.8794975
  8.957637     46.8809096
  8.9567818    46.8863157
  8.9572858    46.8879015
  8.9561925    46.8899908
  8.9562322    46.8903735
  8.9545891    46.8944746
  8.9539795    46.8965024
  8.9541535    46.8969949
  8.9528201    46.8983541
  8.9531515    46.8994501
  8.9534161    46.9006899
  8.9529151    46.9007442
  8.9527249    46.9008139
  8.9525337    46.9009847
  8.9522438    46.9010946
  8.9518087    46.9016158
  8.9509371    46.9017292
  8.9497207    46.9015366
  8.9490134    46.9015462
  8.948587     46.9016078
  8.9476791    46.9021618
  8.947542     46.9023799
  8.9471627    46.9026927
  8.9468945    46.9026871
  8.9462315    46.9039923
  8.9460209    46.9043937
  8.9458546    46.9047359
  8.9457463    46.904947
  8.9435706    46.9061604
  8.9423522    46.9097123
  8.9403863    46.9116858
  8.9400299    46.9120665
  8.9398754    46.9122529
  8.9395971    46.9127673
  8.9392587    46.9132717
  8.938617     46.9142689
  8.9376732    46.9161148
  8.9353832    46.9198504
  8.9350764    46.9197277
  8.9348753    46.9195567
  8.9346572    46.9192893
  8.9343193    46.9194912
  8.9339513    46.919467
  8.9334833    46.9193278
  8.9331713    46.9191548
  8.9329989    46.9189846
  8.9324581    46.9188485
  8.9319522    46.9182877
  8.9316099    46.9182399
  8.9310639    46.918057
  8.9301845    46.9178456
  8.9299761    46.9176507
  8.9299053    46.917461
  8.929746     46.9172804
  8.9288467    46.9172725
  8.9285734    46.9171621
  8.9283785    46.9170043
  8.927679     46.9166798
  8.9272996    46.9164672
  8.9268451    46.9163111
  8.9265015    46.9160393
  8.9255692    46.9159713
  8.9251823    46.9158648
  8.9247796    46.9155779
  8.9246774    46.9152857
  8.9241088    46.9155071
  8.9236874    46.9155986
  8.9228387    46.9156858
  8.9222677    46.9152375
  8.9220016    46.9152587
  8.9215535    46.9148539
  8.9213544    46.9145027
  8.9214534    46.9140901
  8.9210758    46.9136122
  8.9207605    46.9139439
  8.9204096    46.9139972
  8.9201868    46.9139419
  8.9195138    46.9140648
  8.9190792    46.9137666
  8.9187087    46.9136576
  8.918089     46.9133541
  8.9172091    46.9127874
  8.9168954    46.9120716
  8.9165325    46.9118825
  8.9160357    46.9117737
  8.9158616    46.9114266
  8.9153136    46.9113792
  8.9149581    46.91108
  8.9140826    46.9115674
  8.9133762    46.9111935
  8.9123192    46.911124
  8.9118338    46.9108617
  8.91132      46.9107277
  8.9112331    46.9101489
  8.9108558    46.9100035
  8.9106688    46.9096951
  8.9103473    46.9096122
  8.9103382    46.909412
  8.9101472    46.9093538
  8.9102789    46.909194
  8.9098268    46.9087873
  8.9096385    46.9087042
  8.9088574    46.9089491
  8.9080014    46.9088643
  8.9074148    46.9088635
  8.9072911    46.9086998
  8.9075072    46.9082633
  8.90742      46.9079308
  8.9076176    46.9076495
  8.907458     46.907475
  8.9060222    46.9081551
  8.905966     46.9083477
  8.905332     46.9084452
  8.9041873    46.9084005
  8.9040105    46.9081554
  8.9029662    46.9082291
  8.9016565    46.9077924
  8.901099     46.9073886
  8.8987897    46.9063371
  8.8992164    46.9057768
  8.898718     46.9053763
  8.898947     46.9050901
  8.8989755    46.9047234
  8.8986021    46.904712
  8.8984326    46.9045314
  8.8974073    46.9047979
  8.8972494    46.9045712
  8.8972582    46.9043055
  8.8960218    46.9045179
  8.895684     46.9042808
  8.8955628    46.9041133
  8.8956186    46.9037356
  8.8953963    46.9036444
  8.895401     46.903296
  8.8951847    46.9029234
  8.8933144    46.9027697
  8.8925114    46.9029093
  8.8923253    46.9030034
  8.8917868    46.9030726
  8.8915881    46.9030306
  8.8911908    46.9031132
  8.8909828    46.9031051
  8.8909858    46.902823
  8.890713     46.902799
  8.8904386    46.9026404
  8.890142     46.9027653
  8.8894564    46.9026691
  8.8894338    46.9025321
  8.8890733    46.9026026
  8.8885834    46.9026195
  8.8869761    46.9023546
  8.883499     46.9007936
  8.8825173    46.8990858
  8.8810296    46.8978909
  8.8744311    46.8949743
  8.871388     46.8944987
  8.8711143    46.8940307
  8.8700073    46.8941534
  8.8685271    46.8942124
  8.867189     46.8947752
  8.866636     46.8949378
  8.8664296    46.8949485
  8.8661394    46.8949059
  8.8657603    46.8949054
  8.8654908    46.8950921
  8.8651889    46.8950786
  8.86503      46.8950124
  8.8645989    46.8950429
  8.8642801    46.8949863
  8.8639808    46.8950472
  8.8636662    46.8950327
  8.8635515    46.8949764
  8.863472     46.8948564
  8.8632955    46.8948549
  8.8629992    46.8948166
  8.8627586    46.8948031
  8.8623001    46.8947246
  8.8620746    46.8947458
  8.861839     46.8947409
  8.8616669    46.894537
  8.8615106    46.8944996
  8.8612781    46.8945059
  8.8617234    46.8940814
  8.8619596    46.8939676
  8.8621243    46.893775
  8.8618151    46.8936171
  8.8616568    46.8936541
  8.8614724    46.8936285
  8.8610337    46.893058
  8.8610802    46.8925524
  8.8611825    46.8923794
  8.8612264    46.8917848
  8.8614487    46.8916349
  8.8609493    46.891291
  8.8607835    46.89101
  8.8605734    46.8908467
  8.8604353    46.890499
  8.8603425    46.8904735
  8.8598228    46.8901361
  8.8595341    46.890021
  8.8593761    46.8898542
  8.8593268    46.889653
  8.8588732    46.8893521
  8.8585888    46.889212
  8.8577194    46.8889572
  8.8566655    46.8887004
  8.8562135    46.8886254
  8.855955     46.8885365
  8.8556871    46.8883253
  8.8554075    46.8882387
  8.855378     46.8881673
  8.8555101    46.8879447
  8.8552766    46.8878538
  8.8550465    46.8874878
  8.8548566    46.8873167
  8.8544962    46.8870986
  8.8545956    46.8869041
  8.8544052    46.8867272
  8.8543663    46.886606
  8.854424     46.8864742
  8.8547183    46.8861398
  8.8547669    46.8857458
  8.8541893    46.8856461
  8.8537979    46.8854758
  8.8536157    46.8852832
  8.8533738    46.8854213
  8.8531815    46.8854035
  8.8496074    46.8882187
  8.8478429    46.8909935
  8.8477762    46.8929556
  8.8484895    46.8953804
  8.8489582    46.8989869
  8.8491821    46.9000186
  8.8492067    46.9001083
  8.8490314    46.9002985
  8.849034     46.9008995
  8.8485143    46.9018839
  8.8483736    46.9019579
  8.848231     46.902389
  8.8483846    46.9030411
  8.8485916    46.9035439
  8.8485218    46.9037272
  8.8482564    46.9039913
  8.8483336    46.9046623
  8.8482416    46.9052279
  8.8483827    46.9058595
  8.8486419    46.9061043
  8.8488129    46.9065056
  8.8487466    46.9068734
  8.8490036    46.9073149
  8.8488791    46.9076797
  8.8493911    46.9086597
  8.8494978    46.9095816
  8.8493408    46.9098791
  8.8492782    46.9103
  8.8494653    46.9105283
  8.8494167    46.9111354
  8.8491648    46.9114955
  8.8488011    46.912157
  8.8488118    46.9127695
  8.8481037    46.9130858
  8.8479678    46.9134681
  8.8470756    46.9137773
  8.8469409    46.913489
  8.847134     46.9131656
  8.8467913    46.9129743
  8.8466798    46.9125983
  8.8461599    46.9121064
  8.8455036    46.911895
  8.8450804    46.9115223
  8.8442036    46.9113436
  8.8438246    46.9111146
  8.8437645    46.9107748
  8.8432251    46.9102095
  8.8426475    46.9100218
  8.8425333    46.9096904
  8.8426878    46.9094568
  8.8425629    46.9094207
  8.8396136    46.9083367
  8.8361242    46.9076776
  8.8352523    46.9097395
  8.8334455    46.9114484
  8.8312716    46.9149476
  8.830136     46.9167292
  8.8286965    46.9179298
  8.8277877    46.9193443
  8.8275048    46.922412
  8.8288415    46.9228612
  8.8297841    46.9240629
  8.828442     46.9250264
  8.82875      46.9265015
  8.8289147    46.9268804
  8.8292105    46.9273097
  8.8291924    46.927735
  8.8296291    46.9280049
  8.8298758    46.9292943
  8.829796     46.929835
  8.8300799    46.9304628
  8.8298474    46.9316078
  8.8287058    46.9328288
  8.8278728    46.9331919
  8.8271761    46.9336539
  8.8273305    46.9341013
  8.8267728    46.9357121
  8.8240656    46.9358659
  8.8211282    46.936242
  8.8200798    46.9373806
  8.8141921    46.9386252
  8.8107042    46.9414524
  8.8095867    46.9407157
  8.8087568    46.940272
  8.8071325    46.9396042
  8.805658     46.9388688
  8.8041915    46.9383213
  8.8032561    46.9383384
  8.8022572    46.938061
  8.8013026    46.937708
  8.8014419    46.9376066
  8.8013209    46.9374613
  8.8009878    46.9373963
  8.8007276    46.9375078
  8.7999616    46.9373697
  8.7994328    46.9371528
  8.7979745    46.9367338
  8.7973639    46.9362815
  8.7960151    46.9354628
  8.7962939    46.9351748
  8.7963334    46.9349396
  8.7962277    46.9346954
  8.7946819    46.9333268
  8.7943941    46.9331061
  8.7933026    46.9326064
  8.7927809    46.9321681
  8.7918038    46.9317076
  8.791967     46.9307794
  8.7877492    46.930354
  8.7872167    46.9305329
  8.786336     46.930952
  8.7854446    46.931054
  8.7850392    46.9311332
  8.7833898    46.9316754
  8.7830347    46.9316236
  8.7826426    46.9318313
  8.7820304    46.9319399
  8.7810545    46.9324237
  8.7792679    46.9325152
  8.778477     46.9328343
  8.7781015    46.9331749
  8.7778452    46.9331334
  8.77739      46.933774
  8.7743049    46.9382593
  8.7744815    46.9396796
  8.7709288    46.9415009
  8.7688834    46.9403671
  8.7666121    46.9401189
  8.7662207    46.9395709
  8.766186     46.939411
  8.7658057    46.9390359
  8.7652109    46.9387309
  8.7631067    46.9384131
  8.7625359    46.9383683
  8.7622565    46.9383831
  8.761357     46.9377019
  8.7609464    46.9375992
  8.7608268    46.9373467
  8.7605999    46.9374227
  8.7594625    46.9371998
  8.7590191    46.9375352
  8.7589085    46.9375246
  8.7587211    46.9371661
  8.7585813    46.9367315
  8.7580528    46.9369607
  8.757871     46.9367753
  8.7574161    46.9365917
  8.757336     46.936686
  8.7571598    46.936645
  8.756829     46.9362159
  8.7565858    46.9362619
  8.756301     46.9365836
  8.7543594    46.9358039
  8.753812     46.9356859
  8.7529431    46.9352085
  8.7525636    46.9352383
  8.7523331    46.9351448
  8.7522584    46.9349632
  8.7511793    46.9344428
  8.7501982    46.9341122
  8.7496484    46.9339573
  8.7491264    46.9336703
  8.7474696    46.9343274
  8.7470184    46.934607
  8.7460639    46.9348699
  8.7459656    46.9353491
  8.7456226    46.9352448
  8.745149     46.9352084
  8.7450563    46.9348184
  8.7450206    46.9339865
  8.745097     46.9334882
  8.7448827    46.933349
  8.7447627    46.9329795
  8.7442762    46.9326355
  8.7436279    46.9323637
  8.7426794    46.9322194
  8.7421182    46.9320363
  8.7415815    46.932467
  8.7411529    46.9326002
  8.740687     46.9325853
  8.7402483    46.9322913
  8.7400444    46.9319581
  8.7393912    46.9317731
  8.7384512    46.9323237
  8.7378255    46.9324822
  8.7374294    46.9323789
  8.737121     46.9321677
  8.7365412    46.9314593
  8.7365286    46.9312574
  8.7363255    46.9309346
  8.7366978    46.9305527
  8.7358204    46.9302542
  8.7345601    46.9302658
  8.7344392    46.9301338
  8.7337516    46.9302262
  8.7336348    46.9299705
  8.732595     46.9297457
  8.7325555    46.9294895
  8.7323343    46.9293391
  8.7320182    46.928997
  8.7317236    46.928944
  8.7314487    46.9284379
  8.7308446    46.9281485
  8.7301017    46.9282248
  8.729466     46.9282137
  8.7285307    46.928358
  8.7289733    46.9279107
  8.7289258    46.9277593
  8.7288922    46.9276522
  8.728665     46.9269275
  8.7279939    46.926793
  8.7280736    46.9264828
  8.7274505    46.9262291
  8.7271962    46.9262787
  8.7271065    46.9261351
  8.7267651    46.9260327
  8.7264137    46.9257701
  8.7258157    46.9260335
  8.7254303    46.925954
  8.7255168    46.9254582
  8.7254186    46.9252651
  8.7248903    46.925377
  8.7245837    46.9252232
  8.7245757    46.9247794
  8.7247067    46.9244054
  8.7243929    46.9245242
  8.7242065    46.9245514
  8.7240056    46.9243827
  8.7240359    46.9239748
  8.7239003    46.9239089
  8.7237037    46.9239567
  8.7236522    46.9237151
  8.723205     46.9235479
  8.7226089    46.9231253
  8.7225651    46.9225872
  8.7223264    46.9224675
  8.7218546    46.9221229
  8.7214139    46.922078
  8.7212802    46.9219272
  8.7207211    46.9219923
  8.7205093    46.9218369
  8.7205113    46.9211386
  8.7203548    46.9210974
  8.7205716    46.9204538
  8.7202391    46.9201137
  8.7196084    46.9198947
  8.7194305    46.9196106
  8.7185611    46.9193615
  8.7185568    46.9191798
  8.717855     46.9192435
  8.7176776    46.9184881
  8.7169941    46.918544
  8.7166724    46.9186369
  8.7163283    46.9185664
  8.7163895    46.9182793
  8.7154982    46.9180906
  8.7146217    46.9184357
  8.7141173    46.9184952
  8.7139643    46.9184995
  8.7134744    46.918525
  8.7126484    46.9186184
  8.7124607    46.9185337
  8.7121295    46.9182885
  8.7116451    46.9183563
  8.7115176    46.9181319
  8.7108822    46.9179838
  8.7106961    46.9176706
  8.7104857    46.9176573
  8.7103523    46.9175519
  8.7099878    46.9175746
  8.7099273    46.9174043
  8.7096721    46.9173976
  8.7092881    46.9176059
  8.7089295    46.9174634
  8.7088232    46.9171369
  8.7077728    46.917162
  8.7077478    46.9171645
  8.7076591    46.9171861
  8.7075504    46.9175309
  8.7072544    46.917949
  8.706593     46.9187453
  8.7061985    46.9191662
  8.7057675    46.919431
  8.7059142    46.9195823
  8.7056355    46.9197347
  8.7053928    46.9199677
  8.704815     46.9201314
  8.7046458    46.9202512
  8.7042787    46.9206647
  8.7041357    46.9207805
  8.7039158    46.9208108
  8.7038545    46.9211614
  8.7036922    46.9212973
  8.7034391    46.9213091
  8.7033188    46.9214454
  8.7029197    46.9216144
  8.702515     46.9217161
  8.7021483    46.9218658
  8.7018174    46.9220908
  8.700861     46.92258
  8.7007762    46.9224307
  8.7004284    46.9226612
  8.6995744    46.9229765
  8.6994785    46.9231422
  8.6993246    46.92369
  8.6992415    46.9238446
  8.6986508    46.9241337
  8.6985612    46.9242885
  8.6985509    46.9246323
  8.6983094    46.925531
  8.6983057    46.925711
  8.6982244    46.9258827
  8.6980817    46.926013
  8.6976982    46.9262341
  8.6975826    46.9264
  8.6975627    46.9265576
  8.6975727    46.9267068
  8.6976655    46.926857
  8.6977191    46.927012
  8.697505     46.9272914
  8.6973933    46.9274563
  8.6973345    46.9276334
  8.6973123    46.9278657
  8.6965397    46.928799
  8.7003205    46.9326492
  8.7000603    46.9330326
  8.6998821    46.9333855
  8.6998091    46.9348032
  8.6980787    46.9379628
  8.6979257    46.9383261
  8.6976943    46.9386526
  8.6975772    46.9389777
  8.6974893    46.9391504
  8.6974564    46.9394828
  8.6973853    46.9396455
  8.6972731    46.9397889
  8.697132     46.9399335
  8.6965796    46.9402985
  8.6969049    46.9415634
  8.6969065    46.9421886
  8.6964076    46.9430407
  8.6962132    46.9431508
  8.6958784    46.9432732
  8.6956917    46.9433202
  8.6954744    46.943409
  8.6952599    46.9434464
  8.695123     46.9435451
  8.6949495    46.9435973
  8.6947849    46.9436954
  8.6945754    46.9439451
  8.6942128    46.9442791
  8.6940939    46.9444218
  8.6940437    46.9445744
  8.6939359    46.94502
  8.6938581    46.9451773
  8.6935081    46.9455455
  8.6933369    46.9458074
  8.6932394    46.9460766
  8.6932414    46.946216
  8.693203     46.9463719
  8.6929977    46.9468322
  8.6929348    46.9468766
  8.6929617    46.9469774
  8.692572     46.9470669
  8.6921894    46.947021
  8.6919482    46.9470075
  8.6916089    46.9470337
  8.6914208    46.9470236
  8.6911749    46.9469594
  8.6910443    46.9469374
  8.6908747    46.946979
  8.6907713    46.9469556
  8.6906353    46.9469961
  8.6904329    46.9469687
  8.6901222    46.947087
  8.6900579    46.9470304
  8.6897413    46.9469757
  8.6896211    46.9469811
  8.6893058    46.9468896
  8.6890934    46.9468579
  8.6889839    46.9467822
  8.6889013    46.9466946
  8.6887813    46.9466589
  8.6886169    46.94659
  8.6884946    46.9465807
  8.6883934    46.9465972
  8.6883064    46.9465761
  8.6882233    46.9464755
  8.688107     46.9464206
  8.6878623    46.9463692
  8.687461     46.9463093
  8.6873814    46.9462619
  8.6871055    46.9462344
  8.6869538    46.9461544
  8.6865298    46.9460425
  8.6861824    46.9460077
  8.6859623    46.9459445
  8.6857715    46.9458601
  8.6853563    46.945745
  8.6852078    46.9456944
  8.6847599    46.9455257
  8.6845814    46.9455206
  8.6844417    46.9454919
  8.6843068    46.9454461
  8.6841924    46.9454632
  8.6840394    46.9454755
  8.6838045    46.9454804
  8.6837163    46.9454874
  8.6832878    46.94558
  8.683162     46.9455981
  8.683038     46.9456909
  8.6829258    46.9457372
  8.6827077    46.9458145
  8.6825748    46.9458127
  8.6824707    46.9458168
  8.6823876    46.945829
  8.682148     46.9458095
  8.6816438    46.9458811
  8.6814995    46.9459363
  8.6813947    46.9460137
  8.681249     46.9460673
  8.6811709    46.9461281
  8.6810127    46.9460833
  8.6808653    46.9460197
  8.6807266    46.9459657
  8.6802905    46.9459159
  8.6801648    46.9458545
  8.6798582    46.945835
  8.6796098    46.9458992
  8.6794777    46.9459728
  8.6793266    46.9459908
  8.6787753    46.9458901
  8.6786277    46.9458563
  8.6785311    46.9457931
  8.6783544    46.9457615
  8.6782023    46.9457554
  8.678025     46.9457398
  8.6776959    46.9456931
  8.6775258    46.945696
  8.6773703    46.9456658
  8.6772867    46.9456921
  8.6771472    46.9456812
  8.6770714    46.9456625
  8.6769357    46.9455991
  8.6767768    46.9454813
  8.6766396    46.9454518
  8.676592     46.9454183
  8.6765605    46.9453146
  8.6764603    46.9452653
  8.6763549    46.9452559
  8.6760545    46.9452619
  8.6759661    46.9452492
  8.6758848    46.9452229
  8.675817     46.9451926
  8.6757218    46.9451369
  8.675678     46.9450813
  8.6756806    46.9450357
  8.6756148    46.9449835
  8.6753418    46.9449233
  8.6751948    46.9449479
  8.6751715    46.94494
  8.6750341    46.9449388
  8.6749237    46.9449727
  8.6747583    46.9449717
  8.6745394    46.94493
  8.674369     46.9449444
  8.67423      46.9449843
  8.6741091    46.9449821
  8.6739833    46.9450154
  8.6738883    46.9449978
  8.673786     46.944985
  8.6736653    46.945011
  8.6736278    46.9450085
  8.6735344    46.9449208
  8.6733341    46.9448492
  8.6732192    46.9448397
  8.6731078    46.9448407
  8.6729933    46.9448105
  8.6728252    46.944802
  8.6727161    46.944744
  8.6726171    46.9446652
  8.6724913    46.9445989
  8.6723713    46.9445524
  8.6722335    46.9445227
  8.672205     46.9444668
  8.6720988    46.944421
  8.6719593    46.944387
  8.6718247    46.9444219
  8.671667     46.9443864
  8.6715817    46.94438
  8.6715406    46.9444011
  8.6712604    46.9444165
  8.6710208    46.9443585
  8.671019     46.9442977
  8.6707504    46.9441064
  8.6706572    46.9440874
  8.6705511    46.9441143
  8.67036      46.9441118
  8.6701502    46.9441412
  8.6699224    46.9441118
  8.6698367    46.944137
  8.6696905    46.9441633
  8.6696154    46.9441292
  8.6695778    46.9440706
  8.6694196    46.9440818
  8.6692539    46.9441344
  8.6689326    46.944208
  8.6688375    46.9442016
  8.6686142    46.9442724
  8.6684409    46.9443537
  8.6683454    46.9444417
  8.6681211    46.9445807
  8.6680002    46.9446407
  8.66773      46.9446745
  8.6674632    46.9447278
  8.6670976    46.9447487
  8.6669063    46.944753
  8.6665945    46.9448413
  8.6664923    46.9448738
  8.6664226    46.9449172
  8.6661617    46.9450059
  8.6659076    46.9450877
  8.6658631    46.9450952
  8.6657418    46.9451285
  8.6656314    46.9452669
  8.6655392    46.9453125
  8.6652926    46.9453286
  8.665202     46.9453667
  8.6651343    46.9454432
  8.6650841    46.9455574
  8.6650275    46.9455805
  8.664939     46.9455563
  8.6649002    46.9455171
  8.6647749    46.9455123
  8.6646708    46.9454846
  8.6645816    46.9455081
  8.664474     46.9454937
  8.6643989    46.9455231
  8.6643611    46.9455829
  8.6643073    46.945592
  8.6641942    46.9455264
  8.6640594    46.9455358
  8.6639661    46.9455728
  8.6639609    46.9456093
  8.6638477    46.9456371
  8.6636597    46.9456304
  8.6635036    46.9455979
  8.6633386    46.9456317
  8.6631072    46.9456395
  8.6629264    46.9456821
  8.6627294    46.9456925
  8.6625716    46.9456721
  8.6623878    46.9456596
  8.6622723    46.9456623
  8.6621297    46.9457
  8.6620585    46.9456829
  8.6619882    46.9457133
  8.6619724    46.9457864
  8.6619454    46.9458505
  8.6618612    46.9459092
  8.6616921    46.945935
  8.6615468    46.945974
  8.6614312    46.9459787
  8.6613015    46.9459647
  8.6611181    46.9459262
  8.6609297    46.9459443
  8.6608775    46.9459645
  8.6608474    46.9459301
  8.6605616    46.9459716
  8.6604466    46.9460081
  8.6602328    46.9460059
  8.6601107    46.9461163
  8.6599549    46.9462162
  8.6596844    46.9462944
  8.6594858    46.9463209
  8.6593509    46.9463295
  8.6591652    46.9462851
  8.6590851    46.9463026
  8.6590357    46.9463223
  8.6590069    46.9463719
  8.6588373    46.9464194
  8.6586231    46.9463785
  8.658529     46.9463644
  8.6583919    46.9463311
  8.658273     46.9462862
  8.6581226    46.9462018
  8.657974     46.946052
  8.657881     46.9460245
  8.657773     46.9460296
  8.6576167    46.9459668
  8.6575029    46.9459502
  8.6573806    46.945921
  8.6573027    46.9459266
  8.6571525    46.9459061
  8.6570508    46.9458545
  8.6569188    46.9458641
  8.656668     46.9459528
  8.6564788    46.9460679
  8.6564098    46.9461523
  8.6562925    46.9462235
  8.6561833    46.9462459
  8.6560922    46.9463
  8.6560446    46.9463667
  8.6559263    46.9464402
  8.6558152    46.9464617
  8.6556626    46.9464429
  8.6555561    46.9464199
  8.6554693    46.946438
  8.6553511    46.9464872
  8.6552752    46.9464953
  8.6551303    46.946473
  8.6549379    46.9465225
  8.6547234    46.9465588
  8.6544282    46.946627
  8.6541915    46.9467366
  8.6539764    46.9467243
  8.6538828    46.9468184
  8.6536784    46.946919
  8.6535682    46.9468954
  8.653048     46.9470262
  8.6528335    46.9470686
  8.6526767    46.9469605
  8.6525074    46.9469578
  8.6524068    46.946989
  8.6522428    46.9470199
  8.6521993    46.9470745
  8.6521518    46.9471453
  8.6520381    46.9471905
  8.6517803    46.9471908
  8.6515836    46.9471804
  8.6514122    46.9472838
  8.6512125    46.9473074
  8.6510143    46.9473755
  8.6507691    46.9474426
  8.6505999    46.9474611
  8.650122     46.9477281
  8.6500429    46.9477596
  8.6499349    46.9477698
  8.6498228    46.9477507
  8.6496736    46.9478157
  8.6495019    46.9478384
  8.6492177    46.9478265
  8.6490627    46.9478596
  8.6488402    46.9478696
  8.6483207    46.9479708
  8.6482022    46.9480087
  8.6481014    46.9480697
  8.6479147    46.9482209
  8.647772     46.948275
  8.6474952    46.9483466
  8.6473031    46.9484231
  8.6469544    46.9484985
  8.6468451    46.9485157
  8.6466204    46.948604
  8.6465249    46.9486269
  8.6463695    46.9486283
  8.6462529    46.9486531
  8.646047     46.9487738
  8.6459782    46.948787
  8.6458903    46.9488587
  8.645707     46.9489637
  8.6455463    46.9489889
  8.6454867    46.949025
  8.6454366    46.9490339
  8.6452696    46.9490325
  8.6451476    46.9490136
  8.6450095    46.9490527
  8.6448682    46.9490985
  8.644786     46.9491082
  8.6446057    46.9490768
  8.6444759    46.9490975
  8.6443589    46.9490928
  8.6442417    46.949064
  8.6441053    46.94902
  8.6440077    46.9490193
  8.6438529    46.9490873
  8.6436721    46.9491162
  8.6434697    46.9491179
  8.643292     46.9491742
  8.6431091    46.9492387
  8.6430303    46.9492824
  8.6429414    46.949289
  8.6422915    46.9491995
  8.642225     46.9491246
  8.6420124    46.9491536
  8.6419764    46.9491369
  8.6418823    46.949049
  8.6418299    46.9490465
  8.6417106    46.9490706
  8.6416554    46.9491018
  8.6416109    46.9491387
  8.6414609    46.9493607
  8.6414113    46.9494029
  8.6411794    46.9495219
  8.6407907    46.9496178
  8.640363     46.949584
  8.6402891    46.9495668
  8.6401977    46.949533
  8.6401323    46.9495203
  8.6398905    46.9495134
  8.6396875    46.9495137
  8.6393478    46.9494809
  8.6392811    46.9494645
  8.6392186    46.9494584
  8.6390274    46.9494847
  8.6388665    46.9494891
  8.6385908    46.9494694
  8.6383528    46.9494607
  8.6381664    46.9494653
  8.6380348    46.9494825
  8.6377871    46.9495413
  8.6376609    46.9495642
  8.6375406    46.9495924
  8.637205     46.9497129
  8.6367961    46.949813
  8.6366776    46.9498327
  8.636562     46.9498397
  8.6363763    46.9498417
  8.6358129    46.9496136
  8.6354025    46.9497691
  8.6353405    46.949758
  8.6351295    46.9498376
  8.6347929    46.9498843
  8.6345908    46.9498392
  8.6343371    46.9498625
  8.633892     46.9498415
  8.633632     46.9497294
  8.6333871    46.9497042
  8.6324585    46.949775
  8.6318287    46.9501041
  8.6314844    46.9498945
  8.6313584    46.9499003
  8.6312182    46.9500038
  8.6307189    46.9500936
  8.6305775    46.9500209
  8.6303772    46.9500544
  8.6301789    46.9500565
  8.6298301    46.9501159
  8.629694     46.9502289
  8.6291848    46.9501937
  8.6289365    46.9498958
  8.6287345    46.949917
  8.628209     46.9499999
  8.6278189    46.9498027
  8.6276676    46.9498506
  8.6273938    46.949815
  8.6273467    46.9498254
  8.6277046    46.950268
  8.6272546    46.9508512
  8.6237057    46.9525075
  8.6224039    46.95273
  8.6223128    46.9527231
  8.6220303    46.9526325
  8.6213271    46.9525073
  8.6212154    46.952501
  8.6208802    46.9524945
  8.6207791    46.9525029
  8.6044026    46.9519644
  8.6035142    46.9685537
  8.6011881    46.9752346
  8.6041417    46.9823297
  8.6031397    46.9868403
  8.5971389    46.9902116
  8.5824165    46.9934091
  8.5710491    46.9901552
  8.5742681    46.983826
  8.5745324    46.9835102
  8.5745825    46.9834791
  8.5745929    46.9834274
  8.574646     46.9833831
  8.5747069    46.9833396
  8.5747906    46.9833386
  8.5748563    46.9832993
  8.5748894    46.9833021
  8.5749146    46.9833217
  8.5749545    46.9831289
  8.574945     46.9830595
  8.5748295    46.9829523
  8.5747219    46.9828739
  8.5747271    46.9828078
  8.5745697    46.982571
  8.5744965    46.9825187
  8.5745057    46.9824367
  8.5745374    46.9823667
  8.5745346    46.9823507
  8.5744123    46.9822735
  8.5743098    46.9821638
  8.5742169    46.9821038
  8.5741603    46.9820365
  8.5741542    46.9820217
  8.5741334    46.9819962
  8.574098     46.9819112
  8.5740562    46.9817823
  8.5740106    46.9817484
  8.5739496    46.9817196
  8.5739238    46.9816879
  8.5739018    46.9816114
  8.5738557    46.9815532
  8.5737605    46.9814972
  8.5737052    46.9814499
  8.5736709    46.9813864
  8.5735959    46.9813466
  8.5735555    46.9812753
  8.5734836    46.9812327
  8.573457     46.9811917
  8.5734005    46.9811608
  8.573365     46.9811189
  8.573289     46.9810521
  8.5732725    46.9810119
  8.5732552    46.980887
  8.5731708    46.9808295
  8.5730883    46.9806921
  8.5729787    46.9805269
  8.5729236    46.9804201
  8.5728871    46.9803972
  8.5728523    46.9803452
  8.5727355    46.9802077
  8.5727376    46.9800644
  8.5726122    46.9799632
  8.5724669    46.9798859
  8.5722691    46.9798183
  8.5718944    46.9797197
  8.5718119    46.9796655
  8.5717401    46.9795838
  8.5716985    46.9795828
  8.5716523    46.9794731
  8.5715662    46.9793884
  8.5715603    46.9793647
  8.5715185    46.9793223
  8.5714252    46.9791996
  8.5712856    46.9790664
  8.5712186    46.9789745
  8.5711575    46.9789193
  8.571128     46.9788744
  8.5710462    46.9788287
  8.5709792    46.978758
  8.5709111    46.9785888
  8.5708425    46.9784997
  8.5707327    46.9784402
  8.5706436    46.9783627
  8.5705296    46.9782923
  8.5703879    46.9780991
  8.5703357    46.9780104
  8.5702637    46.9779073
  8.5702094    46.9778011
  8.5701465    46.97766
  8.5700954    46.9776171
  8.5699986    46.9775675
  8.5699869    46.9775116
  8.569946     46.9774887
  8.5699008    46.9773416
  8.5698388    46.9772204
  8.5697872    46.9771992
  8.5697526    46.9771318
  8.5697457    46.9771133
  8.5697516    46.9770541
  8.5697423    46.9770132
  8.5696367    46.9769041
  8.5694494    46.9766174
  8.5693382    46.9765174
  8.5691513    46.976328
  8.5691       46.9762943
  8.5690647    46.9762548
  8.5690421    46.9762214
  8.5689994    46.9761375
  8.5688894    46.9760854
  8.5687279    46.9759488
  8.5686589    46.975841
  8.568652     46.9758406
  8.5686206    46.9757175
  8.5685161    46.9755726
  8.5684903    46.9755504
  8.5678963    46.97534
  8.5674577    46.9750659
  8.5670602    46.9746314
  8.5659455    46.9743464
  8.5634595    46.9733851
  8.5622175    46.9729221
  8.5623873    46.9726314
  8.5626099    46.9716472
  8.5630599    46.9702177
  8.5629171    46.9699243
  8.5627262    46.9696428
  8.562278     46.9691264
  8.5621774    46.9687151
  8.5618772    46.968459
  8.5616837    46.9681977
  8.5614928    46.9680882
  8.5612457    46.9676489
  8.5609814    46.9671142
  8.5606856    46.9666395
  8.5602429    46.9655824
  8.5597877    46.9654905
  8.5593694    46.9653932
  8.5591476    46.9653153
  8.5587951    46.9646387
  8.5584832    46.9641626
  8.5581216    46.963942
  8.5574944    46.963803
  8.5569636    46.9636256
  8.556435     46.9634211
  8.5558097    46.9633126
  8.5553248    46.9632454
  8.5549758    46.963214
  8.554918     46.9629523
  8.5548302    46.9626401
  8.5549795    46.9624402
  8.5550252    46.9621632
  8.5550724    46.9617815
  8.5551812    46.9612287
  8.5558211    46.9607031
  8.555953     46.9602733
  8.5559366    46.9601401
  8.5559897    46.9600746
  8.5561652    46.9599002
  8.5560985    46.95957
  8.5558751    46.9592178
  8.5556527    46.9565294
  8.5558279    46.9556527
  8.5558812    46.9547417
  8.5558565    46.9539998
  8.5556911    46.9536901
  8.5555877    46.9526305
  8.5556747    46.9515717
  8.5556486    46.9514347
  8.5568665    46.9486146
  8.5569707    46.9476856
  8.5573389    46.9475206
  8.5557634    46.9456045
  8.5563362    46.9455422
  8.5566964    46.9454919
  8.5570826    46.9453685
  8.5568163    46.9450661
  8.5562627    46.9445344
  8.5561496    46.9443412
  8.5563821    46.9439575
  8.5564451    46.943768
  8.5563608    46.9435664
  8.5563696    46.9433585
  8.5563367    46.9431654
  8.5561819    46.9429879
  8.5562334    46.9428092
  8.5561379    46.9426401
  8.5560707    46.9424411
  8.5558341    46.9423049
  8.5556074    46.9421424
  8.5557038    46.9417879
  8.5556084    46.9414938
  8.5556386    46.941113
  8.5558865    46.9407813
  8.5581885    46.9409459
  8.558326     46.9407997
  8.5586742    46.940745
  8.5588145    46.9406042
  8.5588265    46.9404027
  8.5584668    46.9399275
  8.5582138    46.9398247
  8.557783     46.9397659
  8.5575266    46.9396911
  8.5572447    46.9395202
  8.5571067    46.9395162
  8.5567905    46.9393474
  8.5564909    46.9393369
  8.5562096    46.9392658
  8.5558779    46.9392331
  8.5556567    46.9395834
  8.5556038    46.9398178
  8.5556868    46.9401472
  8.5549438    46.9394743
  8.5543929    46.9392539
  8.5522371    46.9392371
  8.5498303    46.9393352
  8.5488937    46.93863
  8.547452     46.9389067
  8.5443821    46.9394636
  8.543688     46.9393713
  8.5435811    46.939349
  8.544089     46.9389455
  8.5444368    46.9386795
  8.5449461    46.9373215
  8.5454473    46.9364053
  8.5460905    46.9356875
  8.5471957    46.9358798
  8.5476814    46.9348165
  8.5474348    46.9345167
  8.5474676    46.9340683
  8.5473556    46.9338607
  8.5469081    46.9333648
  8.5469088    46.9331471
  8.5468223    46.9329023
  8.5469435    46.9326007
  8.5474579    46.9324509
  8.5472391    46.9322875
  8.5469118    46.9320819
  8.5467674    46.9318944
  8.5465568    46.9317426
  8.5464155    46.9315802
  8.5463588    46.9314404
  8.546223     46.9313527
  8.5461114    46.9312242
  8.5458684    46.9310323
  8.54565      46.93076
  8.545558     46.9304352
  8.5452225    46.9302756
  8.5445515    46.9298359
  8.5443609    46.9296974
  8.5441105    46.9293985
  8.5440471    46.9291922
  8.5438384    46.9289423
  8.5440711    46.928738
  8.5440594    46.9278592
  8.5435693    46.9277023
  8.5432476    46.9276516
  8.5428467    46.927509
  8.5426365    46.9273772
  8.542212     46.9271923
  8.5421207    46.926934
  8.5418387    46.9267101
  8.5414267    46.9265566
  8.5410855    46.9264123
  8.5402297    46.9262383
  8.5395468    46.9260797
  8.5386448    46.9258139
  8.5384054    46.9258109
  8.5371756    46.9256327
  8.5367312    46.925299
  8.5359571    46.9249772
  8.5354846    46.9249054
  8.534839     46.9249309
  8.5344447    46.9248893
  8.5340171    46.9246095
  8.5328248    46.9241046
  8.5324902    46.9239222
  8.531718     46.9235358
  8.5312434    46.9235234
  8.5309858    46.9234697
  8.5306169    46.9234521
  8.5301574    46.9234893
  8.5297251    46.9236476
  8.529429     46.9236698
  8.5291792    46.9234293
  8.528921     46.9232765
  8.5286366    46.9232471
  8.528334     46.9232334
  8.5277179    46.9233268
  8.5271913    46.9232258
  8.5264626    46.9232609
  8.5262005    46.9232308
  8.5254712    46.9232332
  8.5249794    46.9231629
  8.5247863    46.9229711
  8.5244591    46.9228335
  8.5239477    46.9227371
  8.5236429    46.9227391
  8.5229047    46.9228839
  8.5226002    46.922891
  8.5222806    46.9228258
  8.521759     46.9229191
  8.5210652    46.9229173
  8.5206423    46.922848
  8.5198402    46.9228401
  8.5196073    46.9219954
  8.5195049    46.921586
  8.5194879    46.9212251
  8.5192325    46.9208765
  8.5190053    46.9202209
  8.5188458    46.9200168
  8.5180752    46.919701
  8.51738      46.9195108
  8.5170948    46.919421
  8.5167234    46.9192448
  8.5160266    46.9190065
  8.5157877    46.9188232
  8.5157007    46.9186313
  8.5155667    46.9185452
  8.5155011    46.9183598
  8.5155798    46.9182111
  8.5153322    46.91798
  8.5150191    46.9179494
  8.5145628    46.9179425
  8.5142927    46.9178729
  8.5139638    46.9178794
  8.5126666    46.9172946
  8.5123827    46.9172253
  8.5119605    46.9170259
  8.5108975    46.9167156
  8.5105246    46.916306
  8.509731     46.9159529
  8.5093231    46.9158381
  8.508997     46.9156932
  8.5076135    46.9154425
  8.5071124    46.915224
  8.5068342    46.9152916
  8.5062147    46.9151145
  8.505873     46.9152177
  8.504838     46.914971
  8.5045177    46.9148228
  8.5038254    46.9146059
  8.5031675    46.9145163
  8.5027872    46.9144257
  8.502379     46.9144979
  8.5019852    46.9146235
  8.5017464    46.9148159
  8.501541     46.9151588
  8.5013298    46.9153647
  8.5012787    46.9155945
  8.5009612    46.915868
  8.5004009    46.9160822
  8.4997735    46.916556
  8.4981166    46.9187548
  8.4977571    46.9185364
  8.4973828    46.9184093
  8.4968973    46.9182005
  8.4965084    46.9181014
  8.4959764    46.9178909
  8.4958815    46.917893
  8.4957787    46.9180258
  8.4953661    46.9180246
  8.4950225    46.917957
  8.4944176    46.917892
  8.4940516    46.9181782
  8.4938579    46.9182115
  8.493594     46.9185433
  8.4924131    46.9183821
  8.4922208    46.9184165
  8.4919671    46.9184465
  8.4910607    46.9184131
  8.4904396    46.9183946
  8.4897169    46.9184859
  8.4877782    46.9183787
  8.4869464    46.9185118
  8.4860862    46.9184712
  8.4849825    46.9171679
  8.4846148    46.9137204
  8.4844627    46.9132258
  8.4842389    46.9128197
  8.4841175    46.9119647
  8.4839204    46.9117031
  8.4830845    46.9109873
  8.4824321    46.9102388
  8.4819442    46.9099028
  8.4814451    46.9091449
  8.4814246    46.9089695
  8.4815122    46.9087427
  8.4812592    46.9085319
  8.4805952    46.9084497
  8.4800244    46.9083118
  8.4793783    46.9080088
  8.4790262    46.9078948
  8.4783483    46.9078338
  8.4779418    46.9077403
  8.4774658    46.9074736
  8.4764811    46.9073507
  8.4758702    46.907326
  8.475254     46.9072064
  8.4746816    46.9071737
  8.474474     46.9070576
  8.4742906    46.9068735
  8.4735177    46.9067143
  8.471248     46.9061212
  8.4706743    46.9059444
  8.4694537    46.9054442
  8.4677465    46.9048718
  8.4676511    46.9049688
  8.4672141    46.9050017
  8.4665594    46.9052948
  8.4654015    46.9050171
  8.4649807    46.9049719
  8.4642629    46.9047375
  8.4637739    46.9039422
  8.4632806    46.9027141
  8.4619464    46.9018526
  8.4620119    46.9015689
  8.461388     46.9011495
  8.4608499    46.9010467
  8.460585     46.9009485
  8.4603689    46.900786
  8.4598502    46.9003018
  8.4598493    46.9000781
  8.459745     46.8998438
  8.4592957    46.8995029
  8.4587477    46.8992244
  8.4586104    46.8990087
  8.4582984    46.8987778
  8.4586725    46.8980618
  8.4594737    46.8976168
  8.4601571    46.8974408
  8.4609797    46.8973658
  8.4612769    46.8971978
  8.4621256    46.8972164
  8.4624815    46.8972631
  8.462808     46.8972139
  8.4635135    46.8972618
  8.4650506    46.8974217
  8.4654028    46.8975347
  8.4656841    46.8975028
  8.4659812    46.8976849
  8.4668799    46.8977059
  8.4676563    46.8975599
  8.4679098    46.8974602
  8.4683507    46.8971784
  8.4684588    46.8968614
  8.4686262    46.896677
  8.4694981    46.8960678
  8.4696362    46.8957554
  8.4700969    46.8954874
  8.4702943    46.8953008
  8.4704873    46.8946621
  8.4710167    46.8946317
  8.4715132    46.8945373
  8.4717175    46.89428
  8.4717153    46.8940676
  8.4719356    46.8939313
  8.4724256    46.8937981
  8.4726892    46.893671
  8.4735591    46.8934613
  8.4740563    46.8934304
  8.4734953    46.8928972
  8.473297     46.8926341
  8.4732484    46.8923599
  8.473299     46.8922322
  8.4734059    46.8921527
  8.4729255    46.891706
  8.4729666    46.8914778
  8.4737595    46.8906811
  8.4740181    46.8902299
  8.4744187    46.8899845
  8.4745739    46.8895717
  8.4748185    46.8892391
  8.4753297    46.8888685
  8.4757701    46.888637
  8.4766725    46.8883005
  8.4765252    46.8880639
  8.4764437    46.8877143
  8.4766878    46.8873825
  8.4766364    46.8871396
  8.4767196    46.8864595
  8.4769807    46.8861657
  8.4790907    46.8825229
  8.4776222    46.8816655
  8.4773797    46.8815917
  8.4770599    46.881641
  8.476818     46.881444
  8.4766694    46.8812129
  8.4763643    46.8809997
  8.4760884    46.8809486
  8.4758619    46.8809777
  8.4750798    46.8803361
  8.4748174    46.8802417
  8.4746053    46.880063
  8.4738917    46.8797047
  8.4737995    46.8795012
  8.473494     46.8793862
  8.4734519    46.8791486
  8.4733658    46.8790593
  8.4731566    46.878981
  8.4727559    46.8786054
  8.4726437    46.8784019
  8.4721222    46.87822
  8.4718355    46.877899
  8.467889     46.8771417
  8.4672929    46.8764725
  8.467191     46.8762439
  8.4670635    46.8751613
  8.4671949    46.8748375
  8.4672005    46.8743992
  8.4676264    46.8737612
  8.4677946    46.8733987
  8.468446     46.8729121
  8.468831     46.8724476
  8.469097     46.8721821
  8.4697762    46.8715538
  8.4700619    46.8711979
  8.4702064    46.8709198
  8.470119     46.8697826
  8.4702051    46.8692212
  8.4706391    46.8689349
  8.4710269    46.8685662
  8.4713386    46.8681288
  8.4713531    46.86788
  8.4712614    46.867608
  8.4708543    46.8671867
  8.4702459    46.8658013
  8.4700941    46.8655612
  8.4694855    46.8648744
  8.4691435    46.8641063
  8.4692155    46.8636864
  8.4690803    46.8634645
  8.4691245    46.8632683
  8.4690362    46.8629872
  8.4691233    46.8628688
  8.469169     46.8623781
  8.4693106    46.8620109
  8.4688826    46.861795
  8.4687402    46.8616668
  8.4678973    46.8606437
  8.4681157    46.8602151
  8.4685368    46.8598443
  8.4686411    46.8596117
  8.4690646    46.8594053
  8.4691588    46.8591955
  8.4689198    46.8584505
  8.4690684    46.8580286
  8.4702309    46.857071
  8.47088      46.8563355
  8.4709254    46.855895
  8.4706592    46.8552664
  8.4708438    46.854849
  8.4708506    46.8548438
  8.4717       46.8546874
  8.4727849    46.8547578
  8.4731713    46.8546959
  8.4733774    46.8546965
  8.4735357    46.8545919
  8.4736511    46.854653
  8.474572     46.8545417
  8.4751937    46.8547389
  8.4755697    46.8546511
  8.4763187    46.8550333
  8.47673      46.8554929
  8.4765476    46.8557066
  8.4768196    46.855822
  8.4767753    46.855947
  8.4774628    46.8564309
  8.4774687    46.8565789
  8.4780422    46.8568109
  8.4782233    46.8569549
  8.4783502    46.8569559
  8.4784634    46.857029
  8.4788406    46.8570467
  8.4794012    46.8572477
  8.4800532    46.8572471
  8.4805499    46.8568972
  8.4808647    46.8565117
  8.481387     46.856225
  8.4818596    46.8558103
  8.4819383    46.8557092
  8.4821555    46.8555719
  8.48236      46.8554095
  8.4835413    46.8551844
  8.4838837    46.8551793
  8.4840641    46.8552001
  8.4849323    46.8551551
  8.485274     46.8550659
  8.4854321    46.8549573
  8.4855723    46.8549378
  8.4860304    46.8545089
  8.48641      46.8543497
  8.4866641    46.8539892
  8.487598     46.8536496
  8.4881752    46.8535622
  8.4886167    46.8533794
  8.4895658    46.8532788
  8.4901989    46.8530362
  8.49201      46.8529886
  8.4924918    46.852848
  8.4929316    46.8528151
  8.4932763    46.852735
  8.4951234    46.8529299
  8.4955596    46.8531422
  8.4959589    46.8532297
  8.496495     46.8534986
  8.496769     46.8534701
  8.4969573    46.8535599
  8.4976761    46.853612
  8.4978747    46.8537256
  8.4985122    46.8531016
  8.4984987    46.852239
  8.4989217    46.8518317
  8.4996291    46.8513477
  8.5000209    46.8512702
  8.5003455    46.8511412
  8.5021475    46.8495016
  8.5025611    46.8479851
  8.5028344    46.8478818
  8.502898     46.8476456
  8.5032387    46.8473107
  8.5035161    46.8472254
  8.5037813    46.8470326
  8.5046297    46.84668
  8.5047921    46.8463936
  8.5053649    46.8460083
  8.5063538    46.8457163
  8.5068132    46.8454761
  8.506886     46.8454755
  8.50552      46.8448854
  8.5056048    46.8446687
  8.5055325    46.8443276
  8.505772     46.8438395
  8.5055625    46.8435265
  8.5057897    46.8430792
  8.5057969    46.8427822
  8.5055493    46.8425281
  8.5053401    46.8422287
  8.5050605    46.8420091
  8.5049213    46.8416027
  8.5043727    46.8411779
  8.5037432    46.8408365
  8.5035084    46.8406309
  8.5030442    46.8404238
  8.5025637    46.8401347
  8.502444     46.839975
  8.5018707    46.8398212
  8.5015663    46.8396774
  8.5007141    46.8393435
  8.4995894    46.8391515
  8.4993132    46.8392395
  8.4981236    46.8389447
  8.498102     46.8388459
  8.4974755    46.8386538
  8.4970985    46.8384864
  8.4967371    46.8384402
  8.4958619    46.8382
  8.4949999    46.8380362
  8.4937071    46.8376864
  8.4935064    46.8374805
  8.4931431    46.8374073
  8.4916942    46.8369889
  8.4911387    46.8367377
  8.4907672    46.8361743
  8.4902914    46.8359763
  8.4903666    46.8358047
  8.4889676    46.8356556
  8.4885159    46.835012
  8.4883872    46.8344599
  8.4881347    46.8342823
  8.4878221    46.8333765
  8.4876169    46.8330725
  8.4863147    46.8320364
  8.4863205    46.8309838
  8.486109     46.8308958
  8.4859812    46.8307568
  8.4857733    46.8304805
  8.4857292    46.8303055
  8.4855954    46.830098
  8.4854005    46.8291749
  8.4848586    46.8286041
  8.4846383    46.8282652
  8.4842812    46.8279005
  8.4841155    46.8276663
  8.4836552    46.8273826
  8.4834187    46.827016
  8.4835572    46.8263849
  8.4834554    46.8262059
  8.483347     46.8258857
  8.4832573    46.8257867
  8.483558     46.8254133
  8.4835976    46.82509
  8.4837189    46.8249215
  8.4836952    46.8243775
  8.4838389    46.8240162
  8.4834687    46.8235105
  8.4836508    46.8233028
  8.4837223    46.8217233
  8.4835007    46.821109
  8.4835602    46.8207972
  8.4833356    46.8203638
  8.4836864    46.8198694
  8.483418     46.8195462
  8.4832511    46.8191843
  8.483217     46.818984
  8.4822561    46.8184215
  8.4817473    46.8178639
  8.4811558    46.8175724
  8.4812065    46.817347
  8.4813764    46.8169811
  8.4811808    46.8163576
  8.4812768    46.8162398
  8.4804384    46.8152345
  8.4804068    46.8149568
  8.4800483    46.8145777
  8.4797269    46.8143602
  8.4781339    46.8137179
  8.478222     46.8126331
  8.4806977    46.8113672
  8.4806659    46.8107414
  8.4832375    46.8087548
  8.4832958    46.8076406
  8.4827131    46.8067112
  8.4834222    46.8057142
  8.4833003    46.8046987
  8.4819767    46.8032588
  8.4807019    46.8024427
  8.4803408    46.8024685
  8.4801117    46.8024076
  8.4800094    46.802199
  8.4801193    46.8021215
  8.4786683    46.8013404
  8.4763238    46.8008228
  8.4744166    46.8001582
  8.4723186    46.799373
  8.4700986    46.7993975
  8.4683388    46.7997903
  8.4642723    46.8005341
  8.4658029    46.7987066
  8.4647183    46.7985051
  8.4668777    46.7977102
  8.4683066    46.79769
  8.4713595    46.7958849
  8.4713264    46.7955262
  8.4725903    46.7954482
  8.4735774    46.7957595
  8.475491     46.7968351
  8.4770454    46.7972871
  8.4778086    46.7971884
  8.4811363    46.7984238
  8.4812728    46.7972909
  8.4814623    46.7966558
  8.4816669    46.7960611
  8.4818066    46.7954292
  8.4818982    46.7949534
  8.4819165    46.7948299
  8.4819321    46.7946733
  8.4819392    46.7938932
  8.4809591    46.7932032
  8.4805925    46.7926641
  8.4798763    46.7921389
  8.4792648    46.7918108
  8.4791355    46.7914935
  8.4787975    46.790946
  8.4785115    46.790586
  8.478373     46.7901285
  8.4785568    46.7892713
  8.4806699    46.7880762
  8.4811416    46.7876113
  8.4836229    46.7862968
  8.4841334    46.7854051
  8.4847124    46.7848043
  8.4854018    46.7832821
  8.4868618    46.7820615
  8.4875133    46.781898
  8.4882946    46.7814635
  8.4886079    46.7809425
  8.491439     46.7725265
  8.4904484    46.7720945
  8.4886487    46.7711277
  8.4872397    46.7708997
  8.4864744    46.7709426
  8.4853987    46.7706755
  8.4844536    46.7705626
  8.4844031    46.7703222
  8.4829303    46.7693165
  8.4824399    46.7693546
  8.4817991    46.7690589
  8.4805457    46.7687395
  8.4801301    46.7685766
  8.4796313    46.7686914
  8.4792117    46.7686614
  8.4788598    46.7687545
  8.4782086    46.7685961
  8.4773194    46.7684961
  8.4760894    46.7682011
  8.4760303    46.7680217
  8.4757856    46.7678911
  8.4747837    46.7678888
  8.4740928    46.7677105
  8.4730256    46.76772
  8.4722831    46.7678933
  8.4706764    46.767877
  8.4703804    46.7684553
  8.4697019    46.7688888
  8.4689197    46.7692019
  8.4683566    46.7691846
  8.4673127    46.7695047
  8.466402     46.7696122
  8.4645821    46.7695753
  8.4636923    46.7692509
  8.4627922    46.7685714
  8.4603586    46.7690999
  8.4577966    46.76793
  8.4572299    46.7675644
  8.456446     46.7674615
  8.4561055    46.7672803
  8.4559627    46.7665083
  8.4556307    46.7664305
  8.4550428    46.7659818
  8.4543117    46.7660673
  8.4536265    46.7654959
  8.4529748    46.7654614
  8.4524079    46.76508
  8.4513991    46.7646913
  8.4504927    46.7645087
  8.4496931    46.7641046
  8.4495386    46.7638992
  8.4486169    46.7634379
  8.4483254    46.7634203
  8.4475521    46.7613635
  8.4475995    46.7611342
  8.4473223    46.7601295
  8.4473545    46.7599025
  8.4469808    46.7591035
  8.4469854    46.75886
  8.4471247    46.7586728
  8.4474931    46.7583708
  8.4473447    46.7579145
  8.4469622    46.7577893
  8.4468668    46.7577212
  8.4466258    46.7573535
  8.4462478    46.7569745
  8.4460648    46.7569427
  8.445304     46.7565774
  8.4452934    46.7563393
  8.4451576    46.7560932
  8.4450928    46.756013
  8.4440813    46.755429
  8.4442188    46.7550369
  8.4441478    46.7549035
  8.4439955    46.7547251
  8.4437628    46.7545594
  8.4437303    46.7545206
  8.4437268    46.7543367
  8.4435619    46.7538792
  8.4428078    46.7539786
  8.4425299    46.7542198
  8.4423102    46.7542957
  8.4420131    46.7542496
  8.4416955    46.7543149
  8.4411974    46.7542393
  8.4405294    46.7538863
  8.4402451    46.7537872
  8.4398591    46.7537769
  8.43989      46.7533629
  8.4397065    46.7532886
  8.4391745    46.7531241
  8.4391143    46.7530068
  8.4391538    46.7528275
  8.4392775    46.7525429
  8.4390415    46.7524248
  8.4392988    46.7521242
  8.4397336    46.7516356
  8.4397178    46.751569
  8.439657     46.7514419
  8.439684     46.7513632
  8.4403461    46.7509961
  8.4405037    46.7508724
  8.4406646    46.7507279
  8.4408125    46.750642
  8.4410057    46.7506148
  8.4414601    46.7503187
  8.4418376    46.7500186
  8.4421519    46.7496983
  8.4422353    46.7494991
  8.4424804    46.7492775
  8.4427661    46.748949
  8.4427701    46.7488851
  8.4427577    46.7488237
  8.442996     46.7485625
  8.4433445    46.748067
  8.4437718    46.747099
  8.4425807    46.7463898
  8.4425233    46.7461951
  8.4424198    46.7460225
  8.442306     46.7458061
  8.4420845    46.7456443
  8.441812     46.7452996
  8.4416222    46.7451415
  8.440939     46.7446814
  8.4407712    46.7445636
  8.440707     46.7444378
  8.4406877    46.744315
  8.4405939    46.743935
  8.4405238    46.7437703
  8.4404305    46.7436028
  8.4404267    46.7434323
  8.4404581    46.7432017
  8.4405292    46.7430526
  8.4402726    46.7429888
  8.4402426    46.7426398
  8.4408723    46.7423687
  8.4411833    46.7423014
  8.4412339    46.7420944
  8.4412469    46.7419453
  8.4412043    46.7417646
  8.4414981    46.7413866
  8.4411185    46.7410443
  8.4411719    46.7407514
  8.4409642    46.7403178
  8.4408587    46.7401557
  8.4408493    46.7400718
  8.4409781    46.7397888
  8.4409993    46.7396558
  8.4409983    46.7393902
  8.4409512    46.7392795
  8.440884     46.7391825
  8.4407135    46.7389982
  8.440764     46.7386659
  8.4408233    46.7384283
  8.4406958    46.7380449
  8.4408719    46.7378667
  8.4410076    46.7375606
  8.4410639    46.7374056
  8.4411859    46.7371849
  8.4412141    46.7370015
  8.4412967    46.7368504
  8.4415216    46.7365075
  8.4417218    46.7363196
  8.4419983    46.7359633
  8.4419956    46.7356841
  8.4423138    46.7354382
  8.4425179    46.7352942
  8.4427313    46.7351564
  8.442994     46.7348906
  8.4432334    46.7346793
  8.4437234    46.7342833
  8.4439917    46.7342439
  8.4445808    46.7340255
  8.4447048    46.7339909
  8.4448992    46.7339725
  8.4449686    46.7339467
  8.4451858    46.7338486
  8.4452753    46.7337913
  8.4453017    46.7337012
  8.4453755    46.7335856
  8.4454594    46.7335137
  8.4456072    46.7334497
  8.4456369    46.7334139
  8.4456872    46.7333381
  8.4457255    46.7332688
  8.4457704    46.7332329
  8.4462002    46.7330201
  8.4467694    46.7329628
  8.4468969    46.7329917
  8.4486888    46.7313709
  8.4494535    46.7301914
  8.4497205    46.7298354
  8.4495636    46.7295621
  8.4493161    46.728805
  8.4487532    46.7285415
  8.4474582    46.7282633
  8.4470785    46.7270569
  8.4471592    46.7225559
  8.4471936    46.7201918
  8.4471934    46.7177566
  8.4474445    46.7169931
  8.4475762    46.7164519
  8.4474078    46.7156098
  8.4473948    46.7154973
  8.4474261    46.7154222
  8.4476413    46.7152703
  8.4472639    46.7149136
  8.4474296    46.7141548
  8.4478289    46.7136413
  8.4478413    46.7134312
  8.4479092    46.7132806
  8.4481264    46.7129356
  8.4482972    46.7127429
  8.448581     46.7124704
  8.4489686    46.7122045
  8.4500841    46.7118159
  8.4507815    46.7115023
  8.4510306    46.7114101
  8.4526013    46.7111636
  8.4528411    46.7111615
  8.4531142    46.711189
  8.453637     46.7108732
  8.4538654    46.7108449
  8.4540778    46.7108479
  8.4538584    46.7107546
  8.4536937    46.7105597
  8.4536281    46.7098214
  8.4535804    46.7096301
  8.4535464    46.7092448
  8.4535702    46.7088413
  8.4535978    46.7086451
  8.4538407    46.7084132
  8.4538434    46.7082226
  8.4536654    46.7078541
  8.4536438    46.707759
  8.4536359    46.7075474
  8.4535395    46.7074337
  8.4531837    46.7072043
  8.4531777    46.7070321
  8.4530542    46.7065975
  8.4528181    46.706383
  8.4527166    46.706018
  8.4526448    46.7058337
  8.4525134    46.7056503
  8.4524465    46.7052485
  8.4523073    46.7049057
  8.4522943    46.7046667
  8.4521646    46.7044315
  8.4521471    46.7042014
  8.4525572    46.7036205
  8.4524977    46.7035358
  8.4525297    46.7034609
  8.4525301    46.7033845
  8.4523582    46.7032185
  8.4523183    46.7030851
  8.4523016    46.7028688
  8.4523841    46.7026802
  8.4525112    46.7025274
  8.4526735    46.7024444
  8.4529724    46.7024087
  8.4531855    46.7022777
  8.4533672    46.7019159
  8.4535383    46.7017484
  8.4535108    46.7014397
  8.4535627    46.7011923
  8.4535304    46.7010896
  8.4537569    46.7006078
  8.4537598    46.700172
  8.453845     46.6999862
  8.4544668    46.6996428
  8.4545561    46.6994112
  8.4546647    46.6992697
  8.4548276    46.6992098
  8.4551633    46.6988992
  8.4544615    46.6983579
  8.4544542    46.6981065
  8.4548077    46.6976901
  8.4549483    46.6976473
  8.4550737    46.6975195
  8.4548007    46.6969535
  8.4538902    46.6947241
  8.4535909    46.6942826
  8.4533556    46.6942419
  8.4530286    46.6939514
  8.4530218    46.6937787
  8.452895     46.6936415
  8.4529016    46.6933847
  8.4527082    46.6929333
  8.4527253    46.6926876
  8.4531127    46.6914057
  8.4528439    46.6911352
  8.4526472    46.6908182
  8.4525231    46.6905336
  8.4525689    46.6902814
  8.4525553    46.6897396
  8.4524484    46.6892023
  8.4522918    46.6887414
  8.4514492    46.6883961
  8.4512031    46.6883798
  8.4509185    46.6884193
  8.4505581    46.6883292
  8.4501461    46.6882025
  8.4499742    46.6880817
  8.4493251    46.6880429
  8.4488139    46.6879857
  8.4475944    46.6876373
  8.4469244    46.6873739
  8.4465885    46.6873827
  8.4462838    46.6873654
  8.4456383    46.6872731
  8.444551     46.6870399
  8.4437686    46.6867693
  8.4423776    46.6861894
  8.4420816    46.6860972
  8.4416656    46.6859094
  8.4413464    46.6856289
  8.4408122    46.685507
  8.4405719    46.6855265
  8.4397475    46.6858075
  8.4393803    46.6858794
  8.4390851    46.6858367
  8.4380156    46.6861709
  8.4377415    46.6863061
  8.4364286    46.6863692
  8.4347517    46.6866259
  8.4337695    46.6868527
  8.4332916    46.6868942
  8.4316392    46.6868899
  8.4298538    46.6864678
  8.4281897    46.6860609
  8.4236869    46.6867108
  8.4234632    46.6867931
  8.4232253    46.6870132
  8.42296      46.6871075
  8.4227594    46.6870805
  8.4222335    46.6870563
  8.4220002    46.6870756
  8.4216771    46.6871932
  8.4214094    46.6871553
  8.4211189    46.6872324
  8.4206436    46.6872422
  8.4201786    46.6873668
  8.4199455    46.6873859
  8.4199387    46.6870129
  8.4195137    46.6870338
  8.4190628    46.687009
  8.4180719    46.6871036
  8.417619     46.6873008
  8.4173636    46.6873789
  8.4169702    46.6873961
  8.4164826    46.6873681
  8.4160427    46.6873948
  8.4152884    46.6874806
  8.4148097    46.6874352
  8.4151409    46.6877244
  8.4151008    46.687855
  8.4149308    46.6879789
  8.4148655    46.6881175
  8.414815     46.6882948
  8.4148064    46.6884465
  8.4150161    46.6887907
  8.414777     46.689001
  8.4144649    46.6895516
  8.4140853    46.689652
  8.4138154    46.6897519
  8.4136485    46.6898697
  8.4136645    46.6900395
  8.4135994    46.6901208
  8.4134581    46.6901308
  8.4132446    46.6903396
  8.4128256    46.6903867
  8.4126043    46.6905491
  8.4123933    46.6905975
  8.4122315    46.6907117
  8.4120013    46.6907378
  8.4112881    46.6907297
  8.4105141    46.6904984
  8.4083338    46.6905046
  8.3996166    46.6928724
  8.3995526    46.6927631
  8.3994931    46.6925692
  8.3987266    46.6916516
  8.3989801    46.6913624
  8.3987421    46.6910698
  8.3986151    46.6908544
  8.3986185    46.6899614
  8.3987041    46.6889317
  8.3995923    46.6882363
  8.3995213    46.6878065
  8.3994243    46.6876013
  8.3992742    46.6872585
  8.399245     46.687043
  8.399093     46.6867566
  8.3989368    46.6865517
  8.3988593    46.6863969
  8.3987207    46.6858364
  8.3987055    46.6856149
  8.3982058    46.6851988
  8.3978967    46.6848088
  8.3976395    46.6844431
  8.3973631    46.684247
  8.3975588    46.6840263
  8.3976811    46.6837063
  8.3974059    46.6831824
  8.3976089    46.6828681
  8.3976004    46.6824717
  8.3988767    46.6816832
  8.3988989    46.6815542
  8.398723     46.6813545
  8.3984878    46.6809731
  8.3986711    46.6808223
  8.3987871    46.6806207
  8.3989133    46.6803258
  8.398935     46.6797916
  8.399022     46.6794108
  8.3988678    46.6791235
  8.3986053    46.678828
  8.3986064    46.6787363
  8.3987577    46.6786103
  8.399022     46.6784699
  8.3989138    46.6782726
  8.3989076    46.6779049
  8.3987972    46.6777327
  8.3987599    46.6775355
  8.3986604    46.6773485
  8.3985861    46.6769841
  8.3985133    46.6767816
  8.3984317    46.6766809
  8.3983957    46.6765482
  8.3980693    46.6761412
  8.3980494    46.6760527
  8.3980719    46.6759427
  8.3978828    46.6754762
  8.3979012    46.6750052
  8.3980608    46.6742252
  8.3981519    46.6740935
  8.3982419    46.674034
  8.3985915    46.6738665
  8.3990297    46.6735868
  8.3993279    46.6734357
  8.3996337    46.6730749
  8.3998273    46.6729034
  8.4001974    46.6726906
  8.4005338    46.672526
  8.4006031    46.6723472
  8.4007712    46.6713886
  8.4009454    46.6713071
  8.4010903    46.6710207
  8.4010797    46.6707753
  8.4011432    46.6704767
  8.4015763    46.669913
  8.4017987    46.6694435
  8.401909     46.6693865
  8.4020785    46.6691928
  8.4021979    46.6688051
  8.4023384    46.6686654
  8.4027364    46.6684286
  8.4029695    46.6681497
  8.4038884    46.6678725
  8.4046142    46.6677202
  8.4050365    46.6675119
  8.4053376    46.6674338
  8.4056567    46.667414
  8.4060866    46.66725
  8.40625      46.6671707
  8.4063932    46.6671126
  8.4066072    46.6669762
  8.4068223    46.6668981
  8.4071588    46.666794
  8.40739      46.6664606
  8.4082419    46.6658403
  8.4084334    46.6656241
  8.4085604    46.6650203
  8.4084252    46.6648043
  8.4085108    46.6642221
  8.4086186    46.6640836
  8.408802     46.6639743
  8.4088911    46.6634492
  8.40897      46.6633308
  8.4090662    46.6632467
  8.4089276    46.6628441
  8.4090074    46.662632
  8.4090433    46.6622992
  8.4091255    46.6620368
  8.4089729    46.6614962
  8.40905      46.6611353
  8.4090108    46.6609139
  8.4090702    46.6607551
  8.4091991    46.6605637
  8.4091328    46.6599604
  8.4090331    46.659663
  8.4090561    46.6595834
  8.4089697    46.6594398
  8.4092096    46.6590732
  8.4092391    46.6586819
  8.4093047    46.6584774
  8.4095503    46.6579274
  8.4092957    46.6567608
  8.4102721    46.6529381
END
END
