polygon
1
  7.5546595    47.5643666
  7.5572997    47.5650307
  7.558265     47.5672471
  7.5593353    47.5693894
  7.5564642    47.5713871
  7.5568956    47.5724659
  7.5570257    47.5725228
  7.5624082    47.5748755
  7.5654375    47.5762202
  7.5664902    47.5776694
  7.5690791    47.5774147
  7.5716147    47.5771124
  7.5752538    47.5761401
  7.5764032    47.576454
  7.5788585    47.5766687
  7.5807642    47.5762962
  7.5831556    47.5758205
  7.5846599    47.5755212
  7.5843971    47.5785818
  7.5847394    47.5808568
  7.5857254    47.5840902
  7.5869704    47.5865515
  7.5882543    47.588521
  7.5890451    47.5899018
  7.590412     47.5895963
  7.5931714    47.5889797
  7.5984685    47.5876436
  7.601975     47.586146
  7.602131     47.5860796
  7.6048224    47.5849348
  7.604586     47.5828148
  7.6040606    47.5813388
  7.6044691    47.5812991
  7.6047005    47.5811761
  7.6047687    47.5804091
  7.605339     47.5798879
  7.6048885    47.5778789
  7.6078589    47.5781013
  7.6094177    47.5781859
  7.6111623    47.578183
  7.6113252    47.5781827
  7.6132115    47.5781611
  7.6149813    47.577998
  7.6167153    47.5776847
  7.6191423    47.5768749
  7.6206029    47.5775644
  7.6223957    47.5783608
  7.6239583    47.5791648
  7.6245533    47.5794211
  7.625014     47.5796196
  7.6264436    47.5804061
  7.6280286    47.5813702
  7.6296149    47.5825138
  7.6311075    47.5836546
  7.632622     47.5847831
  7.6341102    47.5858632
  7.6348711    47.5867725
  7.6356338    47.5875861
  7.6364444    47.5883771
  7.6396376    47.59037
  7.6432475    47.5913464
  7.6418646    47.5929128
  7.641791     47.5941972
  7.6430536    47.5950505
  7.6444127    47.5957457
  7.6456773    47.596961
  7.64901      47.5962339
  7.6490224    47.5962312
  7.6510644    47.5957223
  7.6550724    47.5954012
  7.6616978    47.593708
  7.6646278    47.5926712
  7.6673378    47.5919514
  7.6696618    47.5919317
  7.6721998    47.5919044
  7.6751792    47.5919878
  7.6755067    47.5930504
  7.6767909    47.5943191
  7.6780725    47.5953613
  7.6797259    47.5963647
  7.6806668    47.5971981
  7.6815599    47.5973391
  7.6830177    47.5984989
  7.6848281    47.5987727
  7.6870313    47.5987034
  7.687993     47.5986125
  7.6893228    47.5988473
  7.6916464    47.5995912
  7.6933348    47.6009181
  7.6938017    47.6007754
  7.6930456    47.5994918
  7.6919836    47.5986803
  7.6901627    47.5975753
  7.6864999    47.5969506
  7.6847252    47.5966419
  7.6836541    47.5960275
  7.6828339    47.5951511
  7.6819878    47.5942668
  7.6795894    47.5922526
  7.6773885    47.5913677
  7.6745464    47.5892411
  7.6730884    47.5881702
  7.6717499    47.5872757
  7.6720771    47.5852449
  7.6749441    47.5842394
  7.6769209    47.5837456
  7.6789354    47.5832699
  7.6808605    47.5826894
  7.681365     47.5809999
  7.681473     47.5802552
  7.6815696    47.579751
  7.6816135    47.5794616
  7.6819239    47.5777083
  7.6818996    47.5774562
  7.6825486    47.5772314
  7.6838528    47.5766573
  7.6836701    47.5739056
  7.6843054    47.5737956
  7.6855034    47.5730872
  7.6889131    47.572425
  7.6896532    47.571398
  7.6889478    47.5703707
  7.6888902    47.5702869
  7.6870989    47.5683843
  7.6868386    47.5677076
  7.6868141    47.567646
  7.6865233    47.5670063
  7.6862472    47.5663082
  7.6859288    47.5656151
  7.6851852    47.5665564
  7.6847368    47.5671235
  7.6841174    47.5679072
  7.6837971    47.5683121
  7.6837634    47.5683558
  7.6834304    47.5684263
  7.6835319    47.5692248
  7.6837139    47.5705354
  7.6834998    47.571254
  7.6820991    47.5707897
  7.6810223    47.5704327
  7.6791014    47.5695
  7.678441     47.5689615
  7.6781044    47.5684492
  7.6776819    47.5678061
  7.6767437    47.5669837
  7.6756926    47.5659577
  7.6751444    47.5654226
  7.6772795    47.5649333
  7.6773158    47.563745
  7.6762257    47.5635758
  7.6756147    47.5634809
  7.6744535    47.563456
  7.6734686    47.5635884
  7.6724486    47.5637255
  7.6723096    47.5650023
  7.6723599    47.5654399
  7.6706995    47.5658147
  7.6702191    47.5658319
  7.6694593    47.5656853
  7.6674872    47.5653049
  7.6661096    47.5651307
  7.6655502    47.56506
  7.6642272    47.5653987
  7.6633205    47.5652461
  7.6623094    47.5650759
  7.6607581    47.5648147
  7.6597751    47.5646493
  7.6587522    47.5644771
  7.6578889    47.5638938
  7.6567566    47.5631288
  7.6564418    47.5626831
  7.6561556    47.562278
  7.6554591    47.5623161
  7.654536     47.5623665
  7.6537022    47.562107
  7.6528236    47.5618335
  7.6526504    47.5617824
  7.6518063    47.5614585
  7.6503568    47.5609023
  7.648899     47.5602229
  7.6482841    47.5599364
  7.6472585    47.5602637
  7.6468426    47.5603964
  7.6465121    47.5605019
  7.6460728    47.5607223
  7.6440578    47.5612897
  7.6412671    47.5612696
  7.6401013    47.5620044
  7.6383384    47.5632316
  7.6361268    47.5639226
  7.6359981    47.5637623
  7.635972     47.5637298
  7.6347841    47.5622501
  7.6339646    47.5612292
  7.6327121    47.5615165
  7.6326022    47.5615119
  7.6315247    47.5616539
  7.6302133    47.5617117
  7.6287834    47.561687
  7.627369     47.561522
  7.6258997    47.5611511
  7.6243898    47.5607586
  7.6226166    47.5602101
  7.6192736    47.5591179
  7.6176244    47.5586537
  7.6176824    47.5584012
  7.6177316    47.5581478
  7.6177719    47.5578937
  7.6178033    47.5576391
  7.6178258    47.557384
  7.6178393    47.5571286
  7.6178435    47.5569425
  7.6178413    47.5567564
  7.6178328    47.5565704
  7.6178179    47.5563846
  7.6177968    47.556199
  7.6177694    47.5560139
  7.6177207    47.5557153
  7.6176665    47.5554171
  7.6176069    47.5551194
  7.6175887    47.5549844
  7.6175894    47.5548489
  7.617609     47.554714
  7.6176472    47.554581
  7.6177037    47.554451
  7.6177781    47.5543252
  7.6179015    47.5541384
  7.6180508    47.5539604
  7.6182246    47.5537929
  7.6184212    47.5536375
  7.6186389    47.5534955
  7.6188757    47.5533683
  7.6204105    47.5525957
  7.6205956    47.5525008
  7.6207762    47.5524019
  7.620952     47.5522991
  7.6211229    47.5521926
  7.6212888    47.5520825
  7.6214494    47.5519689
  7.6217516    47.5517203
  7.6220237    47.5514562
  7.6222639    47.5511783
  7.6224707    47.5508883
  7.6226428    47.5505881
  7.6227791    47.5502797
  7.6228387    47.5501188
  7.6228873    47.5499562
  7.6229248    47.5497922
  7.6229511    47.5496273
  7.6229661    47.5494617
  7.6229699    47.5492959
  7.6227784    47.5464076
  7.622497     47.5424311
  7.6223107    47.5397776
  7.6197727    47.5402858
  7.6195023    47.5403456
  7.6192372    47.5404156
  7.6189784    47.5404956
  7.6187267    47.5405854
  7.6184828    47.5406846
  7.6182476    47.5407929
  7.6182101    47.5408046
  7.6181688    47.5408057
  7.6181301    47.540796
  7.6180997    47.5407771
  7.6179437    47.5406435
  7.6177736    47.5405181
  7.6175904    47.5404014
  7.617395     47.540294
  7.6171886    47.5401967
  7.6169721    47.5401101
  7.6167469    47.5400344
  7.616514     47.5399699
  7.6146925    47.5395185
  7.6146699    47.539556
  7.614289     47.5394503
  7.6140956    47.5393889
  7.6139122    47.5393146
  7.6137406    47.5392284
  7.6135826    47.5391309
  7.6134397    47.5390232
  7.6133134    47.5389066
  7.613205     47.5387818
  7.6131155    47.5386505
  7.6130458    47.5385137
  7.6129966    47.5383729
  7.6129684    47.5382294
  7.6128612    47.53735
  7.6128392    47.5372473
  7.6127988    47.5371472
  7.6127406    47.5370513
  7.6126655    47.5369608
  7.6125746    47.5368774
  7.6124693    47.536802
  7.6123511    47.536736
  7.6122347    47.5366844
  7.6121112    47.5366411
  7.611982     47.5366063
  7.6118483    47.5365804
  7.6118224    47.5364298
  7.611035     47.5359636
  7.6110932    47.5358973
  7.6112283    47.5357092
  7.611352     47.5355113
  7.6113862    47.53545
  7.610492     47.5352178
  7.6103576    47.5354563
  7.6102286    47.535635
  7.6091897    47.5350198
  7.6073509    47.532675
  7.6060159    47.5309758
  7.6060263    47.5309112
  7.6060344    47.5308464
  7.6060401    47.5307816
  7.6056495    47.5307452
  7.6056875    47.5305579
  7.6055812    47.5304224
  7.6054891    47.5303051
  7.6055084    47.5301728
  7.6055263    47.5300329
  7.6055404    47.5298885
  7.6055474    47.5297861
  7.604622     47.5298011
  7.60471      47.5292942
  7.6042141    47.5286508
  7.6029953    47.5269999
  7.6017749    47.5253506
  7.6006443    47.5243762
  7.5988024    47.5227886
  7.5978066    47.5219302
  7.5962972    47.5206163
  7.5947883    47.5192971
  7.5927878    47.5194695
  7.5907456    47.5196552
  7.5902549    47.5197945
  7.5902188    47.5199291
  7.5900421    47.5204157
  7.5899052    47.5207928
  7.5897881    47.5213179
  7.5896743    47.5218313
  7.5894431    47.5222979
  7.5893247    47.5229601
  7.5894018    47.5237183
  7.5896159    47.5244322
  7.5896475    47.5251621
  7.5899705    47.5257425
  7.5899479    47.5261679
  7.5899299    47.5266793
  7.5898397    47.5270794
  7.5895674    47.5277506
  7.5894891    47.527928
  7.5893282    47.5279402
  7.5891703    47.5279649
  7.5890178    47.5280018
  7.5888726    47.5280505
  7.5887367    47.5281102
  7.5886119    47.5281801
  7.5885404    47.5282326
  7.5884816    47.5282921
  7.5884371    47.5283568
  7.5884077    47.5284255
  7.5883943    47.5284964
  7.588397     47.5285678
  7.5884725    47.5290605
  7.5871023    47.5291764
  7.5858735    47.5292804
  7.5859114    47.5299633
  7.5858308    47.5306357
  7.5856897    47.5313277
  7.5851696    47.5312989
  7.5849915    47.5312838
  7.584816     47.5312584
  7.5846443    47.531223
  7.5844778    47.5311778
  7.5843175    47.5311231
  7.5841647    47.5310593
  7.5838576    47.5309186
  7.5831795    47.5314872
  7.5827872    47.5319839
  7.582695     47.5324731
  7.5830064    47.5329477
  7.5834715    47.5334647
  7.5836817    47.5337942
  7.5841821    47.5346472
  7.584525     47.5351819
  7.5850724    47.5359977
  7.5856353    47.5369109
  7.585926     47.5374087
  7.5859518    47.5375011
  7.5859794    47.5375624
  7.5859905    47.53761
  7.585992     47.5376794
  7.585976     47.537748
  7.5859463    47.5378089
  7.5858987    47.5378704
  7.585852     47.5379135
  7.585715     47.5380141
  7.5856522    47.5380678
  7.5855881    47.5381376
  7.5855371    47.5382121
  7.5854951    47.5383037
  7.5854729    47.5383984
  7.5854708    47.5384943
  7.585489     47.5385894
  7.5855112    47.5386492
  7.5857276    47.5391344
  7.586523     47.5405128
  7.5868443    47.5412447
  7.5872696    47.5419057
  7.5814796    47.5438287
  7.5814467    47.5438253
  7.5809715    47.5436927
  7.5805387    47.543793
  7.580074     47.5438389
  7.5791554    47.5438374
  7.5786353    47.5437935
  7.5784751    47.5437334
  7.5782816    47.5437661
  7.5781005    47.5437966
  7.5778786    47.5438114
  7.5777302    47.5438213
  7.5757024    47.5439571
  7.5752918    47.5440274
  7.5711221    47.5447413
  7.5675924    47.5452599
  7.5647916    47.5456913
  7.5646849    47.5456943
  7.564523     47.545663
  7.5642366    47.5455886
  7.5635183    47.5454184
  7.5630212    47.5453107
  7.5622724    47.5452068
  7.5619328    47.5451694
  7.5617134    47.5451378
  7.5614972    47.5450976
  7.5612845    47.545049
  7.5610736    47.5449904
  7.5608579    47.5449423
  7.5600998    47.5448043
  7.5594224    47.5446929
  7.5575452    47.5444047
  7.5570486    47.5443675
  7.556546     47.544337
  7.5558883    47.5443407
  7.5587589    47.5523584
  7.5612499    47.551728
  7.5613257    47.5518623
  7.5630591    47.5549344
  7.5645847    47.5570412
  7.5645785    47.5571084
  7.5645679    47.5572226
  7.5615911    47.5591851
  7.5598767    47.5605372
  7.5587268    47.561964
  7.5579342    47.5626254
  7.556297     47.5634898
  7.5546595    47.5643666
END
END
