polygon
1
  24.0130258   62.3633325
  24.0146627   62.3563485
  24.0147402   62.3558919
  24.0180876   62.3413229
  24.0267662   62.3418095
  24.0266921   62.3400081
  24.0246826   62.3399064
  24.0186981   62.3396036
  24.0185811   62.3395997
  24.0188321   62.3386375
  24.0192345   62.3369981
  24.0213063   62.327863
  24.0217569   62.3260791
  24.017122    62.3267767
  24.0141255   62.324051
  24.0158657   62.322709
  24.0195038   62.3226806
  24.0223352   62.3235751
  24.0228409   62.3216932
  24.0244391   62.3152145
  24.0246955   62.313877
  24.0247572   62.3135493
  24.0247824   62.3133701
  24.0282296   62.3111183
  24.0309933   62.3093205
  24.0430311   62.3012526
  24.04434     62.3003948
  24.0452208   62.2998028
  24.0454243   62.2996669
  24.0480576   62.2979071
  24.0514983   62.2991373
  24.0514264   62.2991904
  24.0511912   62.2992958
  24.0510273   62.299341
  24.0508685   62.2993974
  24.0507076   62.2995071
  24.0505842   62.2997091
  24.0505574   62.2998562
  24.0505413   62.3000507
  24.0506164   62.3002627
  24.0507612   62.3004547
  24.0507934   62.3005694
  24.0508076   62.3007063
  24.050773    62.3008228
  24.0507998   62.3009076
  24.0508041   62.3010332
  24.0508524   62.3012058
  24.0509382   62.3013915
  24.0511979   62.3015658
  24.0515273   62.3016543
  24.05181     62.3016902
  24.0521935   62.3016625
  24.0660123   62.3017912
  24.0758184   62.2969435
  24.0761403   62.2947887
  24.0783182   62.284538
  24.0793879   62.2811078
  24.0807966   62.2763771
  24.0896919   62.2731342
  24.0906457   62.272953
  24.0908817   62.2730828
  24.0917829   62.272923
  24.0936186   62.2721259
  24.094551    62.2716751
  24.0953535   62.2709947
  24.0997341   62.2693902
  24.1049912   62.2673982
  24.1127256   62.2644859
  24.1215565   62.2611498
  24.1348485   62.2561263
  24.1442536   62.2525156
  24.1445355   62.2524072
  24.1501306   62.2523257
  24.1579605   62.2523162
  24.1605834   62.2523219
  24.1847773   62.2523807
  24.2112876   62.2523316
  24.217109    62.2523285
  24.2354658   62.2523189
  24.2526848   62.2523216
  24.2580707   62.2558879
  24.2665261   62.2603117
  24.268778    62.2544494
  24.2753441   62.2375824
  24.276873    62.2335356
  24.2788116   62.2283396
  24.2790348   62.2277756
  24.2809456   62.222705
  24.2803019   62.222045
  24.2866533   62.2089662
  24.292227    62.1971283
  24.2932838   62.1953325
  24.3018224   62.1904488
  24.3100621   62.1856833
  24.3110354   62.185099
  24.3204959   62.1796658
  24.3329575   62.1728848
  24.3381341   62.1707818
  24.3359401   62.1680364
  24.3396791   62.1673457
  24.3416532   62.1676162
  24.3511321   62.1664635
  24.3603857   62.1642699
  24.3625691   62.1650709
  24.3891819   62.166424
  24.3892678   62.1668147
  24.3925722   62.1727251
  24.4002541   62.1716533
  24.3980225   62.1632078
  24.4070347   62.1622058
  24.4082363   62.1694394
  24.4087299   62.1693393
  24.4091107   62.1693388
  24.4093307   62.1692792
  24.409159    62.169179
  24.4095184   62.1690583
  24.4099905   62.1689481
  24.4102319   62.168648
  24.4102051   62.1683971
  24.4098671   62.1681271
  24.4101622   62.1678661
  24.4098403   62.1676958
  24.4096311   62.1673256
  24.4098671   62.1671653
  24.4103177   62.1668247
  24.4108971   62.1665542
  24.4110473   62.1662937
  24.4114121   62.1662036
  24.411455    62.1660533
  24.411219    62.1658629
  24.4108542   62.1657527
  24.4105752   62.1655523
  24.4102319   62.1655423
  24.4097169   62.1655123
  24.409438    62.165392
  24.4094165   62.1651616
  24.4089659   62.1650915
  24.4087942   62.1651616
  24.4084724   62.1651315
  24.4081291   62.1653319
  24.4077643   62.1652518
  24.4079789   62.1651315
  24.4083007   62.164881
  24.4087889   62.1646401
  24.4090893   62.1645499
  24.4091805   62.1644001
  24.4090893   62.1641992
  24.409218    62.1640089
  24.4094326   62.1637183
  24.4096901   62.1637183
  24.4095882   62.1638591
  24.4102051   62.1639187
  24.4109615   62.1638992
  24.4113262   62.1636487
  24.4116642   62.1634478
  24.4119914   62.1634082
  24.4122275   62.1632178
  24.4120129   62.1630375
  24.4120129   62.1629072
  24.4121846   62.162807
  24.412544    62.1627364
  24.4126566   62.162827
  24.4129088   62.1627764
  24.413295    62.1626161
  24.4136812   62.1625259
  24.4137671   62.1623857
  24.4145953   62.1621747
  24.4153174   62.1622459
  24.4156124   62.1621352
  24.4161113   62.1618751
  24.4165619   62.1616747
  24.4173988   62.1614643
  24.4177421   62.1614142
  24.4183858   62.1614142
  24.4186004   62.1613541
  24.4192441   62.161324
  24.4195445   62.1613541
  24.4201883   62.1614042
  24.4205101   62.1613741
  24.4207033   62.1614042
  24.4215777   62.1614137
  24.4221356   62.1614538
  24.4229939   62.1614337
  24.4231655   62.1613536
  24.4234713   62.161304
  24.4238951   62.1612734
  24.4243725   62.1611737
  24.4247105   62.1609828
  24.4249948   62.1608531
  24.4251235   62.1606727
  24.4250162   62.1604923
  24.4245871   62.1604723
  24.4242223   62.1604923
  24.4239863   62.1604021
  24.423879    62.1602218
  24.4234927   62.1601115
  24.4232782   62.1599111
  24.4229134   62.1597608
  24.4224413   62.1597408
  24.4221195   62.159861
  24.4215616   62.1600514
  24.4209822   62.1601216
  24.4203599   62.1601015
  24.419802    62.1601416
  24.4187506   62.1602117
  24.417785    62.1602117
  24.4172486   62.1601115
  24.4168409   62.1601717
  24.4161328   62.1602819
  24.4156178   62.1603019
  24.4152315   62.1602418
  24.4149741   62.1599813
  24.4145234   62.159861
  24.4138153   62.1597107
  24.4134506   62.1597007
  24.4130429   62.1595904
  24.4129356   62.1594602
  24.4129999   62.1593099
  24.4127854   62.1593499
  24.4125708   62.1595103
  24.4116481   62.1595804
  24.4115408   62.1594502
  24.4115194   62.1592197
  24.411691    62.1590994
  24.4113692   62.1589892
  24.4107898   62.1590293
  24.4104894   62.1590092
  24.4104036   62.1588689
  24.4105967   62.1587387
  24.4105913   62.1586079
  24.4105873   62.1586073
  24.4101675   62.1587587
  24.4100173   62.1586986
  24.4102051   62.1585277
  24.4098403   62.1584475
  24.4096901   62.1583072
  24.4094755   62.1582571
  24.4093039   62.1581669
  24.4089444   62.1580873
  24.4086816   62.1580266
  24.4109561   62.1570746
  24.4108327   62.1573356
  24.4108703   62.1574654
  24.4111117   62.1574459
  24.4113048   62.1572855
  24.4114925   62.1573151
  24.4116857   62.1574153
  24.4119914   62.1574359
  24.412383    62.1573121
  24.4126942   62.1570345
  24.4131877   62.1567839
  24.4137027   62.1565735
  24.4142391   62.1562528
  24.4146254   62.1560323
  24.4152745   62.1558123
  24.4159772   62.1557216
  24.4164493   62.1556715
  24.4167497   62.155441
  24.417034    62.1553513
  24.4174417   62.1552511
  24.4180425   62.1550606
  24.4182571   62.15478
  24.4180425   62.1546297
  24.4183215   62.1545996
  24.418536    62.1544994
  24.4186862   62.1543089
  24.4189223   62.1542087
  24.419287    62.1541887
  24.4195875   62.1541887
  24.4197108   62.1542683
  24.419861    62.1543586
  24.4203975   62.1544488
  24.4208695   62.1543686
  24.4217064   62.1539376
  24.4220497   62.1538273
  24.4227578   62.1534866
  24.4228276   62.1532966
  24.4227417   62.1531363
  24.4227417   62.1529859
  24.4232138   62.1527554
  24.4235786   62.1526652
  24.4240506   62.1526451
  24.4240936   62.1524747
  24.4239434   62.1523444
  24.4239219   62.1520237
  24.424115    62.1517931
  24.4244798   62.151723
  24.4248017   62.1518132
  24.4249304   62.1520036
  24.4250377   62.1523645
  24.4261481   62.1524141
  24.4276555   62.1527654
  24.440675    62.1580567
  24.4393875   62.1609327
  24.4389798   62.1616742
  24.4364907   62.1670647
  24.4301822   62.1664736
  24.4269206   62.172965
  24.4334867   62.1736461
  24.4329127   62.1749687
  24.4360614   62.1760414
  24.4449075   62.1790549
  24.456044    62.1828301
  24.4675561   62.1866905
  24.4821366   62.1916005
  24.4889816   62.1939528
  24.4981815   62.1971052
  24.4984176   62.1992369
  24.4985088   62.1997778
  24.4988896   62.2012584
  24.4989755   62.2015686
  24.4989326   62.2023592
  24.4987824   62.2029696
  24.4987394   62.2032298
  24.4987609   62.2034999
  24.4988253   62.2039802
  24.498821    62.2045866
  24.5092591   62.2013765
  24.5238092   62.1968838
  24.5453294   62.1902491
  24.560221    62.1856437
  24.5653591   62.1796913
  24.5701312   62.1740867
  24.5787122   62.1644597
  24.5842912   62.1576158
  24.5921286   62.1484952
  24.5949009   62.1481734
  24.6017202   62.1393614
  24.6132376   62.1363224
  24.6143802   62.1359317
  24.6216704   62.1296726
  24.6218689   62.1293421
  24.622105    62.1288606
  24.6224644   62.1285291
  24.6227916   62.1273058
  24.6228935   62.1271448
  24.6231907   62.1274191
  24.6238205   62.1278605
  24.6247647   62.1276284
  24.6313897   62.1259996
  24.6423739   62.1232708
  24.6498277   62.1214126
  24.6582938   62.1192959
  24.6622213   62.1183105
  24.6660909   62.1173472
  24.6737965   62.1154245
  24.6668163   62.0895221
  24.6662927   62.0654347
  24.6658175   62.0524054
  24.6676095   62.0516378
  24.6683988   62.0493873
  24.6795525   62.0502829
  24.6896108   62.0480697
  24.6896087   62.0476548
  24.6963313   62.0475
  24.701022    62.0457478
  24.7039241   62.0466983
  24.7109158   62.0405827
  24.7174819   62.034957
  24.7198609   62.0328726
  24.7214662   62.031466
  24.7231417   62.0299979
  24.7309152   62.0231853
  24.7282163   62.0219567
  24.7054795   62.0116046
  24.6984638   62.0083577
  24.6864496   62.002935
  24.6732714   62.0020325
  24.670732    62.0006589
  24.6667745   61.9985274
  24.6578272   61.998477
  24.654394    61.9946485
  24.6405913   61.9974358
  24.6390189   61.9977541
  24.6369575   61.9988336
  24.6212054   61.9925044
  24.6153368   61.983004
  24.6122608   61.9786368
  24.6067236   61.9704909
  24.6010481   61.9621401
  24.5922526   61.956862
  24.5834903   61.9516415
  24.5711414   61.9515497
  24.558284    61.9514675
  24.5584353   61.9513131
  24.5584997   61.9512122
  24.5583709   61.9510911
  24.5582636   61.9504453
  24.5583494   61.9502637
  24.5583709   61.9500014
  24.5582636   61.9497592
  24.5582008   61.9495628
  24.5582449   61.9494216
  24.558564    61.9492244
  24.558564    61.9489822
  24.5584712   61.9486974
  24.5581134   61.9483667
  24.5581134   61.9481346
  24.558328    61.9479832
  24.5587786   61.9475897
  24.5589932   61.9471961
  24.5589181   61.9469802
  24.5588859   61.946853
  24.5587893   61.9466875
  24.5584997   61.9466108
  24.5581992   61.946409
  24.5578988   61.9462274
  24.557577    61.9460659
  24.5571907   61.945965
  24.5568689   61.945965
  24.5564075   61.9461123
  24.5558818   61.9462375
  24.5553776   61.946516
  24.5549484   61.9468793
  24.5545085   61.9470044
  24.5541223   61.9469035
  24.5538863   61.9467118
  24.5535215   61.9466815
  24.5530923   61.9467118
  24.5528348   61.9466209
  24.5526417   61.9464393
  24.5523735   61.9463142
  24.5523198   61.946187
  24.5525773   61.9459347
  24.5530494   61.9456521
  24.5539292   61.9451677
  24.5542296   61.9450769
  24.5545729   61.9449861
  24.5550235   61.9449255
  24.5553454   61.9448145
  24.5556243   61.9446228
  24.556032    61.9444613
  24.5563753   61.9443099
  24.5567616   61.9440778
  24.5569118   61.9439163
  24.5568045   61.9437044
  24.5567401   61.9435126
  24.5569332   61.9433915
  24.5573839   61.9432906
  24.5577915   61.9432704
  24.5581456   61.9433471
  24.5584031   61.9434783
  24.5587142   61.9434823
  24.5591863   61.943341
  24.5596798   61.9431291
  24.55983     61.9429373
  24.5600231   61.942685
  24.5601473   61.9424125
  24.5601519   61.9424024
  24.5603852   61.9422756
  24.560581    61.9421501
  24.5593687   61.9402248
  24.5477966   61.9413427
  24.5478566   61.9418574
  24.5417245   61.9421332
  24.5412262   61.9390212
  24.5408099   61.9385992
  24.5429332   61.9346032
  24.5405465   61.9312646
  24.5246546   61.909334
  24.5263155   61.9095056
  24.5384711   61.9107764
  24.5519594   61.9122732
  24.5802417   61.8964628
  24.5891402   61.8939893
  24.5892322   61.8939634
  24.6091334   61.8883531
  24.6131202   61.8872177
  24.6312058   61.8791961
  24.6373202   61.8763954
  24.6374843   61.8756161
  24.650831    61.8697793
  24.6666743   61.862981
  24.6740266   61.8571905
  24.686097    61.8477488
  24.695421    61.8405578
  24.7008283   61.8363651
  24.7078665   61.830845
  24.7191586   61.8220132
  24.7299518   61.8132873
  24.7728317   61.8015071
  24.7723468   61.8011203
  24.7727545   61.8008972
  24.7730334   61.8007756
  24.773248    61.8005424
  24.7732694   61.8002787
  24.7732694   61.799934
  24.7735913   61.7998833
  24.773763    61.7997616
  24.7739132   61.7995588
  24.7738703   61.7992242
  24.7739775   61.7990721
  24.774278    61.7988693
  24.774514    61.7984231
  24.7746857   61.7983217
  24.7751363   61.7977741
  24.7752865   61.7976017
  24.7752221   61.7966586
  24.7712524   61.7934742
  24.7758229   61.7927947
  24.7753938   61.7925513
  24.7772391   61.7904619
  24.7776897   61.7906647
  24.7781833   61.7906647
  24.7784837   61.7904923
  24.7787626   61.7906242
  24.7785051   61.7908169
  24.7784837   61.79104
  24.7822279   61.7927544
  24.782589    61.7928594
  24.7833546   61.792602
  24.7830327   61.7921354
  24.78211     61.7914964
  24.7915428   61.7857263
  24.7955983   61.7891042
  24.7974866   61.7891042
  24.7973235   61.7869522
  24.7988255   61.786871
  24.7978814   61.7861102
  24.8005851   61.7843349
  24.8034175   61.7848117
  24.8075577   61.7864044
  24.8089525   61.7859479
  24.804353    61.7842248
  24.8013361   61.7838987
  24.8003898   61.7835618
  24.8207113   61.7701489
  24.8192092   61.7664034
  24.8100608   61.7642529
  24.8133942   61.7578653
  24.8152396   61.7542829
  24.803878    61.7559442
  24.8033495   61.75602
  24.7834747   61.7588721
  24.7746556   61.764395
  24.7721451   61.7635017
  24.7691925   61.7653071
  24.7717674   61.7662715
  24.7689264   61.7680494
  24.7705357   61.7690339
  24.7669373   61.7712669
  24.7653001   61.7710537
  24.7647532   61.7714296
  24.7625535   61.7729415
  24.7566097   61.7732764
  24.7497433   61.7761686
  24.7594421   61.7823479
  24.7531851   61.7866073
  24.751211    61.7853595
  24.749902    61.7821435
  24.7474773   61.7815449
  24.7404607   61.7809564
  24.7350662   61.7778429
  24.7246678   61.7794446
  24.7239383   61.7756597
  24.722801    61.7698343
  24.7223504   61.7673576
  24.721609    61.763425
  24.7222701   61.7625192
  24.7252257   61.7583527
  24.7287684   61.7534532
  24.7408094   61.7368248
  24.7409939   61.736591
  24.7415235   61.7357798
  24.7415998   61.7356757
  24.7448707   61.7311515
  24.7451565   61.7307561
  24.7460478   61.7295232
  24.7465546   61.7288221
  24.7486704   61.7191364
  24.7467415   61.7151568
  24.7419412   61.7057122
  24.7396378   61.7011095
  24.7375014   61.6969031
  24.7373472   61.6968834
  24.7372763   61.6967518
  24.7374051   61.6967009
  24.7360136   61.6937387
  24.7501749   61.6879806
  24.7576483   61.6849463
  24.7631972   61.6826679
  24.7620471   61.6819844
  24.7628625   61.6815162
  24.7674973   61.6758969
  24.7864874   61.6874906
  24.7913711   61.6903965
  24.8051904   61.6866683
  24.8184582   61.6831041
  24.8277923   61.6805492
  24.8550006   61.6732091
  24.845967    61.6704395
  24.8397442   61.6685353
  24.8239911   61.6637173
  24.8120424   61.660021
  24.8285895   61.6510097
  24.83375     61.6499979
  24.8366254   61.6523617
  24.844172    61.6491236
  24.8513314   61.648499
  24.8620173   61.6463122
  24.8757867   61.6445782
  24.877145    61.6452992
  24.8882386   61.647266
  24.8941856   61.6442832
  24.9004832   61.6411012
  24.9096748   61.6364727
  24.9181409   61.6309895
  24.9277314   61.6309242
  24.9591458   61.630664
  24.9599425   61.6306573
  24.960304    61.63064
  24.9601957   61.6307488
  24.9599012   61.6308572
  24.9593915   61.6310318
  24.9591126   61.6312793
  24.9585614   61.6315169
  24.9583283   61.6316491
  24.9581239   61.6318314
  24.9565366   61.6332724
  24.9565784   61.6350035
  24.9489395   61.6410481
  24.9509136   61.6466431
  24.9573295   61.64862
  24.961739    61.648569
  24.9617926   61.6500975
  24.9615126   61.6501917
  24.9610984   61.6504551
  24.960915    61.6505677
  24.9605073   61.65069
  24.9600353   61.6508122
  24.9598185   61.6509432
  24.9595181   61.6511673
  24.9591534   61.6512998
  24.9588122   61.6513319
  24.9584667   61.6513303
  24.9582114   61.651393
  24.9578895   61.6515662
  24.9573295   61.6516666
  24.9567522   61.6518006
  24.9564733   61.651933
  24.9561494   61.6523481
  24.9560913   61.652554
  24.9648611   61.6583701
  24.963609    61.6594625
  24.9631037   61.6600421
  24.9627776   61.6604394
  24.9628022   61.6606635
  24.9631294   61.6608766
  24.9642388   61.6618027
  24.9639803   61.6621037
  24.9569647   61.6714672
  24.942867    61.6800903
  24.9307434   61.6849048
  24.9249284   61.6911737
  24.923054    61.6931948
  24.9226968   61.6934682
  24.9225895   61.6936056
  24.922568    61.6937938
  24.9225466   61.6940686
  24.9223985   61.6943374
  24.916517    61.7022633
  24.9165599   61.704674
  24.9134786   61.7064676
  24.9148288   61.7074875
  24.9203863   61.7123662
  24.9242235   61.7157297
  24.9265195   61.7200608
  24.9439399   61.737591
  24.9468184   61.7373182
  24.9501004   61.7438812
  24.9443079   61.7487162
  24.9438787   61.7511029
  24.9556558   61.7555291
  24.9666206   61.7448041
  24.9599301   61.7370484
  24.9657001   61.7339447
  24.9590911   61.728335
  24.9676957   61.7241372
  24.97883     61.7218383
  24.9871297   61.7250389
  24.9887268   61.7256548
  24.9911703   61.726597
  25.0009185   61.7302833
  25.0035085   61.7312619
  25.0003542   61.733711
  24.9942173   61.7385679
  24.9795617   61.7583636
  24.9841533   61.760005
  24.9900095   61.7620984
  24.9895225   61.7623719
  24.9809297   61.7671972
  24.9763581   61.7697579
  24.9616424   61.7765418
  24.9606866   61.780198
  24.9615387   61.7805059
  24.9754533   61.7855337
  24.979284    61.7869177
  24.9862592   61.7849832
  24.9921197   61.7833578
  25.0001296   61.7811361
  25.0067133   61.7793254
  25.0101465   61.7782702
  25.0199312   61.7756085
  25.0430626   61.7691365
  25.0445432   61.7687249
  25.069119    61.7618127
  25.0744552   61.7603047
  25.0985736   61.7535624
  25.0988246   61.7536721
  25.0993611   61.7536619
  25.0997538   61.7535827
  25.0995113   61.7533065
  25.1057111   61.7515407
  25.1117701   61.7498149
  25.1118559   61.7500282
  25.1129223   61.7497418
  25.1128365   61.7495285
  25.1167644   61.7484235
  25.1242584   61.7463412
  25.1255459   61.7459451
  25.1321613   61.7441182
  25.1458824   61.7402578
  25.1485582   61.7395243
  25.14988     61.7391585
  25.1504121   61.73903
  25.1509335   61.7389772
  25.1511706   61.7391135
  25.1515311   61.7392911
  25.1517886   61.7393724
  25.1522178   61.739413
  25.1527757   61.7394232
  25.1532048   61.739413
  25.153634    61.7393317
  25.1539576   61.7392515
  25.1547069   61.7390473
  25.1557583   61.7388745
  25.156402    61.7388034
  25.1567979   61.7386083
  25.1571605   61.7382604
  25.1576651   61.7380434
  25.1582055   61.7382075
  25.1589254   61.7382685
  25.1595574   61.7380551
  25.1600251   61.7379937
  25.1605619   61.7380383
  25.1608835   61.7380612
  25.1614306   61.7378621
  25.1625936   61.7377884
  25.1632288   61.737731
  25.1635946   61.7377468
  25.1642384   61.7377559
  25.1645742   61.7376594
  25.1650859   61.7374577
  25.1655194   61.7374358
  25.1659528   61.7373012
  25.1668061   61.7371239
  25.1673747   61.7371188
  25.1686085   61.7370223
  25.1699869   61.7369126
  25.1705149   61.7369146
  25.1713473   61.7370152
  25.1718666   61.7369984
  25.1724052   61.7371265
  25.1729116   61.7373271
  25.1742387   61.7373439
  25.1748127   61.7373271
  25.1755272   61.7371356
  25.1796943   61.7361835
  25.1874727   61.7299528
  25.190289    61.729406
  25.199253    61.7328084
  25.2039308   61.7328084
  25.206098    61.734292
  25.2185735   61.7367383
  25.2356023   61.7263955
  25.2385849   61.7274831
  25.2388209   61.7277067
  25.2395505   61.7280014
  25.2444214   61.7277067
  25.2450437   61.7278998
  25.2455586   61.728286
  25.2555365   61.735989
  25.2567166   61.7364868
  25.2578539   61.7368628
  25.2587122   61.737127
  25.2591199   61.7372794
  25.2597636   61.7376756
  25.2601284   61.7378992
  25.2607507   61.7380922
  25.2619581   61.7385687
  25.2639414   61.7392078
  25.268233    61.73681
  25.2652074   61.7264748
  25.2934112   61.7258777
  25.3020567   61.7257044
  25.3029579   61.725623
  25.3034625   61.7255984
  25.3040737   61.7252063
  25.3050822   61.7248099
  25.3054945   61.7249642
  25.3053068   61.7251578
  25.3043905   61.7254978
  25.3048381   61.7254504
  25.3149098   61.724383
  25.3144163   61.7243423
  25.3141803   61.7242915
  25.3145236   61.7242
  25.3148884   61.7237324
  25.3150815   61.7237832
  25.3149313   61.7242203
  25.315575    61.724322
  25.3525466   61.7202151
  25.3560013   61.7198491
  25.3577973   61.7196539
  25.3728391   61.7130654
  25.3934599   61.722907
  25.4074997   61.7403782
  25.39611     61.7448508
  25.4122633   61.7552634
  25.4118492   61.7553525
  25.4116088   61.7554055
  25.4114582   61.7554866
  25.4114415   61.7556419
  25.411538    61.7557485
  25.411699    61.7558653
  25.4116303   61.7559691
  25.4114479   61.756096
  25.4113771   61.7562004
  25.4114629   61.7562968
  25.4116346   61.7563628
  25.4119135   61.7563476
  25.4121496   61.7562207
  25.4122247   61.7560836
  25.4120852   61.7557942
  25.4120316   61.7556165
  25.412289    61.7554794
  25.4124393   61.7553106
  25.5352394   61.7795659
  25.5009039   61.7629696
  25.4970673   61.7045897
  25.5001336   61.6864296
  25.5013631   61.6768604
  25.5310144   61.6768584
  25.5345216   61.6803766
  25.567044    61.6735832
  25.5726305   61.6746721
  25.5786171   61.6757284
  25.5960783   61.6785992
  25.6084219   61.680682
  25.6188288   61.6854455
  25.632154    61.6916023
  25.6390849   61.6949194
  25.6380764   61.6955543
  25.6362095   61.6957679
  25.6361646   61.6958886
  25.6360808   61.6961851
  25.6449643   61.701349
  25.6493202   61.7066178
  25.6584397   61.7122417
  25.664362    61.7158819
  25.6686321   61.7166038
  25.6749621   61.7141127
  25.6801334   61.7161361
  25.6881371   61.7183769
  25.6903902   61.7158046
  25.6901144   61.7141396
  25.6951591   61.7130618
  25.6955003   61.7131337
  25.6957063   61.7131597
  25.6959268   61.7130704
  25.6960555   61.7128976
  25.6961945   61.712866
  25.696364    61.7128767
  25.696614    61.7129044
  25.6967803   61.7129375
  25.6969315   61.7128376
  25.697115    61.7127758
  25.6974057   61.7127542
  25.6984749   61.7125379
  25.6987833   61.7125211
  25.6992779   61.7124072
  25.6997586   61.7123713
  25.700515    61.7122008
  25.7008937   61.7120576
  25.701391    61.7118443
  25.701848    61.7117576
  25.7022552   61.7117429
  25.7025105   61.7117894
  25.7029214   61.7119814
  25.7029536   61.7120881
  25.7028683   61.7121807
  25.7026205   61.7122354
  25.7023603   61.7124003
  25.7023957   61.7126271
  25.7028678   61.7130898
  25.7072773   61.7119509
  25.7059041   61.7115848
  25.7208043   61.7112812
  25.7258811   61.7109136
  25.7375756   61.7077712
  25.7488623   61.7048115
  25.7576814   61.6996339
  25.757617    61.6993083
  25.7572094   61.6985962
  25.7486477   61.6986979
  25.7456222   61.6955339
  25.7427683   61.692512
  25.7472101   61.6913316
  25.748004    61.6911688
  25.7711751   61.6850628
  25.7781637   61.6944914
  25.7865118   61.7058711
  25.7915339   61.712812
  25.79573     61.718515
  25.7990355   61.7229936
  25.8071422   61.7341048
  25.8110926   61.7396586
  25.8231743   61.7566156
  25.8312585   61.7679405
  25.8366959   61.7721917
  25.8373686   61.7723105
  25.838081    61.7725733
  25.8384458   61.7727154
  25.8388964   61.7727154
  25.839111    61.7726444
  25.8392826   61.7725226
  25.839583    61.7724921
  25.8397761   61.772553
  25.840334    61.7727154
  25.840613    61.7728372
  25.8411709   61.7730097
  25.8414498   61.7733243
  25.8419005   61.7736491
  25.8425903   61.7739343
  25.8432341   61.7742793
  25.8434272   61.7744518
  25.8436814   61.7745016
  25.8441138   61.7744823
  25.8444357   61.774462
  25.844647    61.7745624
  25.844647    61.7747756
  25.8450333   61.7751206
  25.8451009   61.7753449
  25.8450365   61.775629
  25.8451835   61.775831
  25.8455729   61.7760045
  25.8461062   61.776247
  25.846324    61.7763901
  25.84656     61.7766844
  25.8468572   61.7768457
  25.8473292   61.7769878
  25.8476758   61.7771004
  25.847973    61.7771096
  25.8484054   61.7773034
  25.8487669   61.7773632
  25.8491349   61.7774657
  25.8493924   61.7776281
  25.8499074   61.7777803
  25.8501005   61.7779021
  25.8502293   61.7780543
  25.8505511   61.778176
  25.8506369   61.7783282
  25.8506337   61.7784185
  25.8508912   61.7783881
  25.8510876   61.7782876
  25.8515167   61.7782572
  25.8519212   61.7783779
  25.8523933   61.7783982
  25.85289     61.7783993
  25.8532762   61.7784398
  25.8536196   61.7785718
  25.853788    61.7787331
  25.8541099   61.7790476
  25.8544103   61.7794434
  25.8545208   61.779627
  25.8545176   61.7799608
  25.8546892   61.7802044
  25.8550326   61.7802855
  25.8553544   61.7803363
  25.8557407   61.7804276
  25.8559338   61.780529
  25.8559767   61.7806406
  25.8561054   61.7808131
  25.8561484   61.7810262
  25.8560625   61.7813103
  25.8559585   61.7818592
  25.8557567   61.7822102
  25.8555905   61.7822437
  25.8561913   61.7836945
  25.8563415   61.7841612
  25.8564488   61.7844655
  25.8565775   61.784567
  25.856556    61.7847192
  25.8562556   61.7848307
  25.8561698   61.7849423
  25.8563415   61.7851858
  25.8563629   61.7853887
  25.8559338   61.7857133
  25.8556334   61.7859872
  25.8553759   61.786038
  25.8547751   61.786038
  25.8543888   61.7861698
  25.8541742   61.7863829
  25.8543245   61.7865858
  25.8544961   61.7868292
  25.8545605   61.7870828
  25.8544532   61.7871944
  25.8540026   61.787377
  25.853788    61.787661
  25.8532945   61.7877422
  25.8531443   61.7879552
  25.8529082   61.7880972
  25.8527366   61.788503
  25.8524791   61.7887058
  25.8521358   61.7888073
  25.8520285   61.7889696
  25.852007    61.7895072
  25.8518354   61.7897405
  25.8514491   61.7900549
  25.8514062   61.7903389
  25.8511058   61.7904201
  25.8508268   61.7907243
  25.8506337   61.7908055
  25.8503548   61.7910895
  25.8498827   61.7913532
  25.8497969   61.7914546
  25.84999     61.7915358
  25.8501187   61.7917386
  25.8503548   61.7919617
  25.8502904   61.7921037
  25.8500329   61.7922356
  25.8500329   61.7923776
  25.8502046   61.7926007
  25.8501617   61.7927224
  25.8497754   61.7929963
  25.849475    61.7931687
  25.8494321   61.7933107
  25.8491102   61.7934729
  25.8490029   61.7938685
  25.8487455   61.794122
  25.8487025   61.7943654
  25.8486167   61.7944871
  25.8486811   61.7946595
  25.848724    61.7948522
  25.8489386   61.7950956
  25.84896     61.7955621
  25.8490459   61.7957244
  25.8490459   61.7958664
  25.8489386   61.7959576
  25.84896     61.796272
  25.8487025   61.7965357
  25.8486811   61.7966979
  25.8488527   61.7968298
  25.8493248   61.7968196
  25.8495179   61.7969819
  25.8494536   61.7972861
  25.8494321   61.7975396
  25.8491746   61.7977424
  25.8486167   61.7980264
  25.8486167   61.7982596
  25.8486811   61.7984725
  25.8488313   61.7986551
  25.8490888   61.7988376
  25.8491746   61.7990201
  25.8491317   61.7994359
  25.8488313   61.7997096
  25.8485738   61.799953
  25.8479944   61.8001152
  25.8475438   61.8001963
  25.8467713   61.8005614
  25.8462778   61.8008047
  25.8459774   61.8009061
  25.8453766   61.8009467
  25.8451191   61.8011089
  25.8449592   61.8014187
  25.8833213   61.7946336
  25.8819425   61.7928127
  25.8810641   61.7916526
  25.8808608   61.7913841
  25.8801001   61.7903793
  25.8795313   61.7896281
  25.8584427   61.7620882
  25.8626999   61.7611453
  25.8698571   61.7616468
  25.8701667   61.7606623
  25.8706634   61.7606501
  25.8709198   61.7610255
  25.8707777   61.7613034
  25.8710732   61.7617263
  25.8759708   61.7620535
  25.8768089   61.7621095
  25.8767702   61.7617207
  25.8783844   61.7616791
  25.8787444   61.7622491
  25.88346     61.7625922
  25.8844483   61.7626641
  25.8840009   61.7614879
  25.8826089   61.7601191
  25.8835455   61.7599731
  25.8843083   61.7608278
  25.8853109   61.7627093
  25.8967645   61.7634874
  25.8973476   61.763573
  25.9075084   61.765065
  25.9166171   61.77961
  25.9236376   61.7907456
  25.9243435   61.7905285
  25.9247517   61.7901603
  25.9246139   61.7896055
  25.9239358   61.7894607
  25.9233323   61.7892084
  25.9222358   61.7877388
  25.9222672   61.7874461
  25.9223201   61.7869529
  25.9231172   61.7869009
  25.9264914   61.7817369
  25.9373051   61.7763551
  25.9462193   61.771918
  25.9489067   61.7705802
  25.9494908   61.7700971
  25.9507638   61.7703389
  25.9512343   61.7699659
  25.9532829   61.7692006
  25.9838666   61.7595833
  25.9850741   61.7550366
  25.9837046   61.7537751
  25.9827304   61.7520302
  25.9803443   61.7502909
  25.9803497   61.7471703
  25.98773     61.7462645
  25.987067    61.7454811
  25.9844626   61.7434677
  25.9844668   61.7432145
  25.985234    61.7428062
  25.9861271   61.741822
  25.988451    61.7410288
  25.9897862   61.7412295
  25.9909937   61.7410692
  25.9928235   61.7403075
  25.9950943   61.7385991
  25.9930628   61.7327304
  25.9941963   61.7287296
  25.9975689   61.7289605
  26.0005258   61.7274995
  26.0157371   61.720487
  26.0353274   61.7250373
  26.0415078   61.72388
  26.0454914   61.7256918
  26.0467252   61.7291615
  26.0472268   61.729986
  26.0479617   61.7355698
  26.0524957   61.7383449
  26.0625143   61.7307154
  26.0672747   61.7254527
  26.0664228   61.7187536
  26.0625218   61.7172113
  26.0638399   61.7155193
  26.0663165   61.7149214
  26.0654725   61.7138957
  26.0663683   61.7132177
  26.0708084   61.7097943
  26.076965    61.7106579
  26.0803988   61.7098687
  26.0810956   61.7097086
  26.0813091   61.7093709
  26.0817393   61.7065151
  26.0802405   61.7045781
  26.0791011   61.7001222
  26.0803585   61.6967721
  26.0825858   61.6945658
  26.0826738   61.6928732
  26.0843754   61.6890731
  26.0828433   61.6852155
  26.0788951   61.683246
  26.0788736   61.6813625
  26.071166    61.6777177
  26.0703871   61.6724408
  26.0901453   61.6569207
  26.1051786   61.64457
  26.1284183   61.637782
  26.1383779   61.629818
  26.13757     61.6195285
  26.1610147   61.6160447
  26.1918011   61.6500361
  26.1942108   61.6491837
  26.1979015   61.647912
  26.2239457   61.6421373
  26.2257439   61.642464
  26.2261516   61.6416894
  26.2341081   61.6416145
  26.238979    61.64167
  26.2670842   61.6417302
  26.2670574   61.6419095
  26.2711612   61.6456273
  26.271938    61.6463397
  26.2831174   61.6566671
  26.285849    61.6548562
  26.2864219   61.6547095
  26.2867695   61.6541864
  26.2879604   61.6512435
  26.2892114   61.6500819
  26.2903486   61.650007
  26.3002793   61.6537952
  26.3144241   61.6397228
  26.3108622   61.6367983
  26.299466    61.6273764
  26.3058271   61.6209145
  26.3153812   61.6103095
  26.3150679   61.6084424
  26.3251315   61.6084944
  26.3289441   61.6147481
  26.337886    61.612588
  26.3386993   61.6130297
  26.3384166   61.6134306
  26.3386853   61.6137514
  26.3393242   61.6140184
  26.3396928   61.6140429
  26.339983    61.6141105
  26.3403896   61.6144002
  26.3400468   61.6144711
  26.3399685   61.6151247
  26.3427221   61.6152515
  26.3547695   61.6219142
  26.3530454   61.629165
  26.3493493   61.6293095
  26.3486406   61.632764
  26.348881    61.6344051
  26.3564292   61.6384694
  26.3596591   61.6384401
  26.3602954   61.637855
  26.3611199   61.6379302
  26.3619621   61.6380622
  26.362947    61.6381195
  26.3639668   61.6383252
  26.3646212   61.6383802
  26.3658416   61.6383501
  26.3675931   61.6380176
  26.3676065   61.6395307
  26.3693902   61.6410701
  26.3683049   61.6428323
  26.3685769   61.6432505
  26.3686573   61.6436276
  26.368711    61.6444225
  26.3684642   61.6458747
  26.3689899   61.6468479
  26.3727124   61.6480024
  26.3740795   61.6484729
  26.3759315   61.6490999
  26.3787304   61.6494895
  26.3785152   61.6535128
  26.3772632   61.6577645
  26.4195069   61.6503286
  26.4454221   61.6402133
  26.5069901   61.6273942
  26.5116207   61.6287564
  26.5126592   61.6273962
  26.5154574   61.6270551
  26.5160519   61.6297297
  26.5160345   61.6326532
  26.5174893   61.6329769
  26.5192564   61.6342615
  26.5202585   61.6342497
  26.5220115   61.6352605
  26.5227604   61.6365149
  26.5222959   61.6372162
  26.5225834   61.6377462
  26.5232765   61.6375036
  26.524049    61.637758
  26.5239513   61.6382355
  26.5222208   61.6377366
  26.5219761   61.6379934
  26.5219944   61.6390398
  26.5209784   61.6394857
  26.5212595   61.6397369
  26.5209344   61.6399805
  26.5202499   61.6414875
  26.5220738   61.6427666
  26.5229256   61.6427314
  26.5235061   61.6429872
  26.5234878   61.6434948
  26.5237561   61.6437669
  26.5230147   61.6459819
  26.5221864   61.6464782
  26.5217573   61.6472664
  26.5197263   61.6464909
  26.5192886   61.6450596
  26.5176889   61.6437597
  26.5175119   61.6429898
  26.5164154   61.6431992
  26.5165621   61.6481491
  26.5167641   61.6527605
  26.5182404   61.6527518
  26.5180075   61.6535113
  26.517469    61.6535261
  26.5172501   61.6537171
  26.517985    61.654769
  26.5177232   61.6550227
  26.5180526   61.6552998
  26.5184968   61.6555061
  26.51847     61.6562355
  26.5200278   61.6572609
  26.5205868   61.6572502
  26.5215041   61.6567057
  26.5185097   61.6600326
  26.5152427   61.6609921
  26.5152116   61.6619669
  26.5172769   61.6624909
  26.519943    61.6622607
  26.5210277   61.6627537
  26.5205396   61.6632329
  26.5196115   61.6630205
  26.5192135   61.6627705
  26.518736    61.6637528
  26.5182361   61.6640044
  26.5161161   61.6644021
  26.5165119   61.6648808
  26.526435    61.6639351
  26.5257742   61.6749642
  26.5330266   61.6906172
  26.5300571   61.7001053
  26.5307952   61.7030146
  26.5264093   61.7050164
  26.5183114   61.7136358
  26.5137196   61.7185054
  26.5098354   61.7227376
  26.5116424   61.7266581
  26.5017673   61.7298241
  26.5003085   61.7314184
  26.4985592   61.733524
  26.4947692   61.7379763
  26.4912359   61.7422489
  26.4645168   61.7687684
  26.4380424   61.7842721
  26.4285808   61.7928554
  26.4267072   61.7945665
  26.4258006   61.7962783
  26.3980701   61.804115
  26.3670883   61.8078745
  26.3780166   61.8143777
  26.3767875   61.8154528
  26.3754834   61.8160667
  26.3754908   61.818366
  26.3756882   61.8198091
  26.3766558   61.820028
  26.3770222   61.8203534
  26.378403    61.8205546
  26.378368    61.8226035
  26.3791219   61.8228253
  26.3740257   61.8279515
  26.3757679   61.8295913
  26.3758865   61.8329885
  26.3825604   61.8358145
  26.3775274   61.8393647
  26.3718368   61.8454605
  26.3891094   61.854157
  26.3710646   61.8704664
  26.3742039   61.8790924
  26.378077    61.88306
  26.3523691   61.8854255
  26.3287088   61.8808413
  26.3271483   61.8806792
  26.3242729   61.879685
  26.3256802   61.8818799
  26.3271276   61.8841372
  26.3311874   61.8856904
  26.3345691   61.8861353
  26.3359424   61.8883355
  26.3359338   61.8908914
  26.3327753   61.8935481
  26.337599    61.8968556
  26.3434354   61.9006074
  26.3427145   61.9038939
  26.3404056   61.9083966
  26.3406889   61.9139129
  26.3415707   61.9175682
  26.3417017   61.9181111
  26.3433925   61.9214684
  26.3415128   61.9279719
  26.3386461   61.9276165
  26.3388692   61.9268693
  26.3375389   61.9263926
  26.3357364   61.9273176
  26.3369466   61.9285576
  26.334655    61.9294461
  26.3310243   61.9414391
  26.335539    61.9442812
  26.3342492   61.950793
  26.4131571   61.9725025
  26.4131301   61.9725619
  26.4132149   61.9726462
  26.4133761   61.9727114
  26.4135609   61.972749
  26.4137797   61.972748
  26.4139508   61.9727086
  26.4145542   61.9728739
  26.4146157   61.9729322
  26.4145902   61.9730003
  26.4146488   61.9730593
  26.4062723   61.9798296
  26.3746865   62.0042523
  26.3316233   62.0368079
  26.3181375   62.0469875
  26.2679321   62.0841164
  26.2583687   62.0911073
  26.2475945   62.0990324
  26.2207365   62.1185566
  26.2826753   62.1719967
  26.283788    62.1729488
  26.3017592   62.1883215
  26.3160018   62.2004991
  26.3178343   62.2013597
  26.3195445   62.2015756
  26.3232755   62.2007478
  26.324822    62.1994002
  26.324712    62.1983464
  26.3251922   62.1979821
  26.3251675   62.1974266
  26.3259818   62.1966728
  26.3263342   62.1950836
  26.3269887   62.1947755
  26.3273374   62.1944057
  26.3301626   62.1928361
  26.3376908   62.1950732
  26.3382971   62.1952533
  26.3520116   62.1993283
  26.3677435   62.2039891
  26.3677884   62.2040994
  26.3681274   62.2049319
  26.3670231   62.2050732
  26.366532    62.2053271
  26.3661873   62.2056426
  26.3661777   62.2058188
  26.3659778   62.2060157
  26.3654081   62.2063288
  26.3650181   62.206672
  26.3649841   62.2068855
  26.3651286   62.2070989
  26.3951359   62.2095532
  26.4147983   62.2078614
  26.4173392   62.2116278
  26.4145947   62.218894
  26.4184485   62.2219475
  26.4193667   62.2223337
  26.4199889   62.2228269
  26.4203449   62.2235082
  26.4212091   62.2244054
  26.4214368   62.2244954
  26.4221591   62.2245599
  26.4229072   62.2245586
  26.4236515   62.2243638
  26.4249896   62.2243947
  26.4261395   62.224864
  26.4269439   62.2248983
  26.4275699   62.2252498
  26.4284355   62.2253237
  26.4350345   62.2263926
  26.4361463   62.2244018
  26.437511    62.2219427
  26.4376738   62.2218331
  26.4379104   62.2213044
  26.4377307   62.2210328
  26.4381896   62.220911
  26.4385828   62.2207382
  26.438402    62.2204771
  26.4384846   62.2197303
  26.438744    62.21955
  26.4385045   62.2187504
  26.4380533   62.2184765
  26.4378997   62.2183148
  26.4375982   62.2175488
  26.4376763   62.2172285
  26.4382038   62.21691
  26.4382376   62.2166932
  26.4379294   62.2163633
  26.4378956   62.2160593
  26.4377194   62.215795
  26.4377095   62.21533
  26.4385029   62.2149119
  26.4391745   62.2149207
  26.4400143   62.2145963
  26.4408565   62.213906
  26.4409166   62.2137686
  26.4407406   62.2136528
  26.4404309   62.2135262
  26.4403568   62.2133242
  26.4403842   62.2129096
  26.4401471   62.2127562
  26.4402495   62.2122206
  26.439781    62.2116575
  26.4393389   62.2104574
  26.4399068   62.2099972
  26.4400822   62.2096245
  26.4407584   62.2096517
  26.4409592   62.2095018
  26.4419313   62.2094317
  26.4422094   62.2094635
  26.442693    62.2099293
  26.4430728   62.2100645
  26.4437887   62.2105203
  26.4440883   62.2105879
  26.4456542   62.210611
  26.446211    62.2105211
  26.4471026   62.2105852
  26.4475207   62.210872
  26.4478321   62.2109327
  26.448       62.2107398
  26.4482347   62.2107494
  26.4485097   62.2110802
  26.4491741   62.2113214
  26.4496214   62.2116877
  26.4494747   62.2121985
  26.4496043   62.2123115
  26.4495541   62.2126793
  26.4491083   62.212886
  26.4490129   62.2136945
  26.4484651   62.213969
  26.448529    62.2144914
  26.4489718   62.2150347
  26.4494337   62.215161
  26.4494739   62.2154287
  26.4502198   62.2155283
  26.4499278   62.2163927
  26.4496257   62.2165766
  26.4495866   62.2171276
  26.4499712   62.2174389
  26.4510334   62.2179058
  26.4514478   62.2182414
  26.4524201   62.218484
  26.4528787   62.2183504
  26.4538875   62.2187303
  26.4552852   62.2189321
  26.4558707   62.2188923
  26.4560274   62.2186761
  26.4563291   62.2186751
  26.4565842   62.218961
  26.4561647   62.2197119
  26.4560917   62.2201491
  26.4563152   62.2204385
  26.4566416   62.2206525
  26.4570217   62.2206935
  26.457524    62.2210673
  26.4577693   62.2210825
  26.4580546   62.2205524
  26.4583027   62.2204366
  26.4585728   62.220463
  26.4592428   62.2211297
  26.459802    62.2214223
  26.4605514   62.2213139
  26.4609221   62.2211478
  26.4619564   62.2212359
  26.4626556   62.2209602
  26.4684843   62.2176689
  26.4840047   62.2229817
  26.4823935   62.2251463
  26.496323    62.2289029
  26.484664    62.2413797
  26.4783506   62.2469814
  26.4817115   62.247152
  26.4831176   62.2472233
  26.5175838   62.2489725
  26.5121381   62.2571801
  26.5120311   62.2573414
  26.517911    62.256067
  26.5223361   62.2551078
  26.5440532   62.2656322
  26.5477261   62.262512
  26.5485761   62.2617898
  26.5518107   62.2590416
  26.5522318   62.2586442
  26.5525735   62.2583592
  26.5552127   62.2561563
  26.5553071   62.2560775
  26.5558457   62.2557784
  26.556655    62.2549523
  26.5565236   62.254497
  26.5586795   62.2540355
  26.558976    62.2541242
  26.5594614   62.2540737
  26.5602433   62.2540922
  26.5609615   62.2545115
  26.5616857   62.2543669
  26.5623547   62.2540897
  26.5627693   62.2540951
  26.5632298   62.2541646
  26.5639383   62.2541576
  26.5644436   62.2541042
  26.5649988   62.2537435
  26.5649226   62.2534763
  26.5655079   62.2533647
  26.5657758   62.2530509
  26.5661033   62.2526179
  26.5662273   62.2524004
  26.5661234   62.252131
  26.5658832   62.2520306
  26.5658818   62.2519258
  26.5667606   62.251764
  26.5676762   62.2514995
  26.5690602   62.2508031
  26.5692469   62.2504217
  26.5688365   62.2501875
  26.5693333   62.2496257
  26.590391    62.23085
  26.5921184   62.2298442
  26.5923976   62.2298324
  26.5929059   62.2297447
  26.596923    62.2279212
  26.5979291   62.2279694
  26.5983242   62.2283456
  26.5996757   62.2291192
  26.6004917   62.2299151
  26.600795    62.2300972
  26.6070778   62.2329502
  26.6143989   62.2259059
  26.6118795   62.2199228
  26.6118967   62.2197078
  26.6123363   62.2192469
  26.6140663   62.2170729
  26.6197279   62.2160221
  26.6234004   62.2147089
  26.6268722   62.2113733
  26.6276018   62.2115061
  26.6304921   62.212039
  26.6360851   62.2133472
  26.6387204   62.2139085
  26.6492461   62.2162752
  26.6525236   62.2169024
  26.6521596   62.2176402
  26.6516339   62.2178664
  26.6512061   62.2184718
  26.6511929   62.218827
  26.650944    62.2191001
  26.6511025   62.2195994
  26.6518675   62.2200898
  26.6525759   62.220632
  26.652949    62.2212232
  26.6528937   62.2216967
  26.6530767   62.2221491
  26.6528599   62.2228862
  26.6530922   62.2231665
  26.6537241   62.2235052
  26.6538363   62.2239036
  26.6537362   62.2241656
  26.6531145   62.2247407
  26.6528323   62.2249774
  26.6527677   62.2251069
  26.6553775   62.2280914
  26.6593305   62.2322661
  26.6524785   62.2333357
  26.6517152   62.2332969
  26.6486601   62.2342823
  26.6486585   62.2346164
  26.6481111   62.2346346
  26.6478488   62.2349569
  26.6465063   62.2360815
  26.6458046   62.2373471
  26.6444619   62.237835
  26.6438525   62.23857
  26.6425742   62.2393891
  26.6423537   62.2394192
  26.6386295   62.2389411
  26.6404815   62.2477311
  26.6326731   62.2595834
  26.6310114   62.262105
  26.6309108   62.2622577
  26.6295406   62.2643369
  26.6293419   62.2646383
  26.6286836   62.2656372
  26.6259504   62.2679921
  26.6249097   62.2732332
  26.6259311   62.2736578
  26.6273859   62.2753736
  26.6279406   62.2756062
  26.629028    62.275683
  26.6313636   62.2770791
  26.6325046   62.2833853
  26.6308065   62.2837549
  26.6300242   62.2841495
  26.6291916   62.2842523
  26.6284964   62.2845419
  26.6273163   62.2845433
  26.6271695   62.2847018
  26.6264031   62.2851108
  26.6263787   62.2853402
  26.6261571   62.2853521
  26.6257739   62.2854517
  26.6257544   62.2856954
  26.62525     62.2859265
  26.6245779   62.2859441
  26.6245253   62.2861371
  26.6242671   62.2863705
  26.6237933   62.286441
  26.6237371   62.2866368
  26.6233846   62.2867073
  26.623079    62.2872024
  26.621094    62.2887563
  26.6207084   62.2890947
  26.6201654   62.2891198
  26.6195303   62.2894518
  26.619307    62.2897806
  26.6183873   62.2901329
  26.6183296   62.2903349
  26.6177611   62.2905725
  26.6171119   62.2907475
  26.6170524   62.2910349
  26.6165634   62.2912507
  26.6161225   62.291194
  26.6158971   62.2913501
  26.6152308   62.2913619
  26.6149126   62.2916569
  26.6139914   62.2919686
  26.6135038   62.2919742
  26.6129893   62.29213
  26.6128975   62.2923151
  26.6122421   62.2922337
  26.6118829   62.2923528
  26.6116764   62.2922151
  26.6111557   62.2919523
  26.6106618   62.2925912
  26.6107516   62.2927666
  26.6103521   62.2930985
  26.6104609   62.2931878
  26.6101388   62.2934273
  26.6104104   62.2934931
  26.6104671   62.2936732
  26.6104968   62.2938282
  26.6108526   62.2939379
  26.6108851   62.2943011
  26.6107022   62.2944139
  26.6110097   62.2945143
  26.6107246   62.2949591
  26.6195936   62.2963562
  26.6463888   62.3005104
  26.65292     62.2992368
  26.6529388   62.2996168
  26.6696983   62.3027596
  26.6671003   62.3052279
  26.6831507   62.3077227
  26.6808017   62.3098673
  26.6747413   62.3152837
  26.6739132   62.3162076
  26.6722315   62.317728
  26.6689381   62.3206023
  26.6619645   62.3269722
  26.668663    62.3285054
  26.6739679   62.3297181
  26.6740108   62.3298576
  26.6737748   62.3301067
  26.6735602   62.3301715
  26.6733349   62.3303658
  26.673056    62.3304903
  26.6730131   62.3306348
  26.6727877   62.3306996
  26.6726054   62.3307992
  26.6725195   62.3309138
  26.6722191   62.3310433
  26.6720796   62.3311928
  26.6718865   62.3314319
  26.6715861   62.3315116
  26.6712643   62.3316212
  26.6709638   62.3317707
  26.6708458   62.3319251
  26.6707493   62.3320796
  26.6706742   62.3321842
  26.6705454   62.3324632
  26.670481    62.3327322
  26.6703094   62.3328667
  26.6699124   62.3329863
  26.6697944   62.3330909
  26.6698159   62.3332055
  26.6699661   62.3334894
  26.6700841   62.3337086
  26.6700734   62.3342666
  26.670009    62.3343761
  26.6696013   62.3347348
  26.6694833   62.3348992
  26.6692901   62.3349988
  26.6692794   62.3351533
  26.6694189   62.3352678
  26.6693974   62.3354671
  26.6692043   62.335746
  26.6689361   62.3359303
  26.6686893   62.336025
  26.6685928   62.3360997
  26.6686786   62.3363239
  26.668625    62.3364334
  26.6683031   62.3365231
  26.6681958   62.3367223
  26.6682065   62.3368419
  26.6680671   62.3369863
  26.6680241   62.3373649
  26.6678096   62.3375143
  26.6677559   62.3376837
  26.6676486   62.3377933
  26.6676486   62.337873
  26.6677881   62.3380124
  26.6677774   62.3380772
  26.667477    62.3381768
  26.6674233   62.3384707
  26.6676272   62.3386948
  26.6678021   62.3387673
  26.6677855   62.3388522
  26.6675413   62.3389239
  26.6675092   62.3390235
  26.6676164   62.339168
  26.6674984   62.3392776
  26.6675092   62.3393473
  26.6676379   62.3394519
  26.6676272   62.3395366
  26.6673697   62.3397258
  26.6673482   62.3398304
  26.6674448   62.3398952
  26.6675306   62.3400296
  26.6677237   62.3401392
  26.667949    62.3403982
  26.6681636   62.3405227
  26.6682602   62.3407269
  26.6684426   62.3408315
  26.6685713   62.3410357
  26.6689897   62.3413644
  26.6691078   62.3413943
  26.6690863   62.3415337
  26.6689361   62.3416831
  26.6689468   62.3417678
  26.6691185   62.3418823
  26.6731203   62.3423306
  26.6800349   62.3431171
  26.6803497   62.3431529
  26.6815751   62.3432923
  26.682282    62.3433727
  26.683935    62.3435607
  26.6845358   62.3436403
  26.6918649   62.3444705
  26.6950942   62.3448471
  26.7019004   62.3456407
  26.7026997   62.3457269
  26.7206781   62.3477774
  26.7515331   62.3512284
  26.7537475   62.3515126
  26.7714775   62.3535279
  26.7714812   62.3534241
  26.7715236   62.3532843
  26.7716006   62.3532087
  26.7714722   62.3531662
  26.7715068   62.3531383
  26.7716246   62.3531689
  26.7716754   62.3531456
  26.7719329   62.3530361
  26.7723621   62.3529514
  26.7725841   62.3529596
  26.7729051   62.3528785
  26.7730809   62.3529166
  26.7733062   62.3527822
  26.7736066   62.3527623
  26.7737575   62.3526853
  26.7740358   62.3525432
  26.7742866   62.3524406
  26.7748404   62.3523739
  26.7751733   62.3522427
  26.7751853   62.3522379
  26.7752696   62.3522047
  26.77557     62.3520752
  26.7755751   62.3520678
  26.7756773   62.3519209
  26.7756987   62.3517964
  26.7758168   62.3517118
  26.7760206   62.3516919
  26.7762703   62.3516489
  26.7764712   62.3515276
  26.7766254   62.3513647
  26.7767287   62.3511691
  26.7768742   62.3510984
  26.776954    62.3510596
  26.7772544   62.3509351
  26.7775548   62.3507011
  26.7777363   62.3506569
  26.7780029   62.3505919
  26.7781878   62.3505468
  26.7782112   62.3505387
  26.7786623   62.3504271
  26.7786814   62.3504223
  26.7789925   62.3503874
  26.7791534   62.3503924
  26.7800546   62.3505766
  26.7803229   62.3506912
  26.7696166   62.3596835
  26.7565585   62.3668928
  26.7345429   62.379052
  26.7085148   62.3892372
  26.6940523   62.3948456
  26.6934944   62.3987231
  26.680534    62.4038426
  26.6805125   62.4063275
  26.6852405   62.4097705
  26.6898895   62.4131947
  26.6992633   62.4200131
  26.7021848   62.4249477
  26.7023779   62.4250371
  26.7026997   62.4250371
  26.7032576   62.4252159
  26.7037297   62.4255089
  26.7042126   62.425941
  26.7049206   62.4261049
  26.7051459   62.4263879
  26.7055      62.4267951
  26.7057575   62.4270087
  26.7056395   62.427252
  26.7046631   62.4282998
  26.7044485   62.4284787
  26.7042661   62.4286276
  26.7042983   62.428717
  26.7041267   62.4287667
  26.7039872   62.4288213
  26.7037619   62.4289206
  26.703601    62.4289107
  26.7034078   62.4290398
  26.7031933   62.4291192
  26.7030538   62.4292136
  26.7028821   62.4292781
  26.7028607   62.4293178
  26.7027748   62.4293625
  26.7026676   62.4294569
  26.7023457   62.4295612
  26.7023457   62.42973
  26.7024422   62.4298343
  26.7025603   62.4299088
  26.7025388   62.430018
  26.7026997   62.4301372
  26.7025389   62.4302514
  26.7023135   62.4303457
  26.7023243   62.4304749
  26.7022813   62.4306883
  26.7021311   62.4308423
  26.7020882   62.4309614
  26.7019487   62.4310608
  26.702056    62.4311849
  26.7020024   62.4312991
  26.7016698   62.4314779
  26.7016698   62.4315722
  26.701702    62.4316815
  26.7017341   62.4317609
  26.7015839   62.4318503
  26.7012728   62.4319546
  26.7011655   62.4322177
  26.7008222   62.4323419
  26.7006613   62.4324461
  26.7007149   62.4325405
  26.7008866   62.4326993
  26.7008544   62.4327937
  26.7007256   62.4328384
  26.7004896   62.4328235
  26.7003179   62.4329277
  26.7001141   62.4329724
  26.7000283   62.4331661
  26.6997922   62.4333051
  26.6997815   62.4334938
  26.6998673   62.4336775
  26.7000819   62.4338959
  26.7000926   62.4340449
  26.7000497   62.4341343
  26.6996849   62.4342435
  26.6995455   62.4343229
  26.6994704   62.4344619
  26.6994918   62.4345513
  26.699642    62.4346506
  26.6997815   62.4347499
  26.6996957   62.4349038
  26.6994704   62.4350279
  26.6993845   62.4351173
  26.6993953   62.4352414
  26.6995669   62.4353854
  26.6994489   62.4354847
  26.6989339   62.4355195
  26.6987408   62.4355691
  26.6983546   62.4355989
  26.6981293   62.435723
  26.6981078   62.4358173
  26.6982795   62.4360507
  26.6982258   62.4361698
  26.697904    62.4363684
  26.6977323   62.4365173
  26.6977323   62.4366216
  26.6979254   62.4367507
  26.6979469   62.43684
  26.6978074   62.4370585
  26.6977537   62.4372024
  26.6979147   62.4373613
  26.6979469   62.4375301
  26.6978932   62.437679
  26.6980327   62.4379272
  26.6982044   62.4380265
  26.6988803   62.4383939
  26.699009    62.4385527
  26.6991485   62.4385825
  26.6993094   62.4385776
  26.6994704   62.4384981
  26.6995884   62.4383989
  26.6997386   62.4383492
  26.6999746   62.4383542
  26.7001355   62.4384137
  26.7003501   62.4385825
  26.7005325   62.4388407
  26.7008544   62.4391087
  26.7010368   62.4394165
  26.701069    62.4395654
  26.7009509   62.4396796
  26.7004038   62.4398633
  26.7001248   62.4399725
  26.7000175   62.4401065
  26.7001355   62.4402058
  26.7001248   62.4403994
  26.6997279   62.4407766
  26.6991914   62.4414815
  26.6990734   62.4416205
  26.6990519   62.4422211
  26.6989768   62.4424742
  26.6988052   62.4426728
  26.6988052   62.4427919
  26.6986764   62.4430401
  26.6988374   62.443462
  26.6988052   62.4436406
  26.6989983   62.443993
  26.6989876   62.4441767
  26.698773    62.4442908
  26.6985584   62.4443901
  26.698376    62.4446085
  26.6982044   62.4449361
  26.6980434   62.4452736
  26.7025495   62.4495912
  26.7091263   62.4529475
  26.6982024   62.4589997
  26.6848632   62.4633897
  26.6820512   62.4618917
  26.6718427   62.4595995
  26.6331395   62.4507646
  26.6252614   62.4547214
  26.621888    62.4564109
  26.6218103   62.456455
  26.6177925   62.4584767
  26.6152095   62.4597795
  26.6038208   62.4655036
  26.6021302   62.466391
  26.6012127   62.4668725
  26.5982286   62.4683458
  26.597795    62.4685599
  26.5897092   62.4725516
  26.5774987   62.4787115
  26.5699663   62.4816201
  26.5695449   62.4817828
  26.567224    62.4826789
  26.5571128   62.4865722
  26.5359127   62.494789
  26.5235144   62.4996132
  26.5224756   62.5000149
  26.5079608   62.5056279
  26.5057893   62.505661
  26.4982523   62.5087234
  26.4918923   62.5112144
  26.4893723   62.5098107
  26.4886908   62.5094311
  26.4812492   62.5123792
  26.4800551   62.5122256
  26.4754739   62.5155319
  26.4782849   62.5167465
  26.4729891   62.5181689
  26.4707361   62.5189185
  26.4838703   62.5293145
  26.4832319   62.5323532
  26.490174    62.5326499
  26.4957852   62.5328053
  26.5081738   62.5331423
  26.5177343   62.5364497
  26.5244301   62.5415481
  26.5261779   62.5410509
  26.5366106   62.5484124
  26.5424127   62.5524476
  26.5520183   62.5591285
  26.5561467   62.5620024
  26.5581519   62.5654514
  26.5694001   62.5801092
  26.5724106   62.5885215
  26.5941526   62.5906775
  26.5940592   62.5907972
  26.5939272   62.5908933
  26.5937663   62.5909723
  26.5937052   62.5911084
  26.5936054   62.5911946
  26.593555    62.5913109
  26.5935979   62.5914047
  26.5937373   62.5914739
  26.5939412   62.5914887
  26.5941236   62.5915183
  26.5942309   62.5915776
  26.5944991   62.5915726
  26.5950232   62.5920166
  26.5949604   62.5920715
  26.5948821   62.5921626
  26.5948531   62.5923036
  26.5949497   62.5923727
  26.5952287   62.5924764
  26.5953574   62.5925999
  26.5955291   62.5926098
  26.5957222   62.5926394
  26.5958181   62.5926212
  26.5991018   62.5944565
  26.5823251   62.6016019
  26.5763599   62.6040358
  26.576804    62.6042896
  26.5983904   62.6107658
  26.5955612   62.6231738
  26.5926956   62.6356038
  26.5913341   62.6416492
  26.588609    62.6412942
  26.5696189   62.6534208
  26.5704043   62.6583354
  26.570283    62.6583384
  26.5700567   62.65824
  26.5698517   62.6582627
  26.5698979   62.6584477
  26.5702396   62.6584519
  26.5704311   62.6584253
  26.5709461   62.6614311
  26.5693369   62.6658572
  26.5686319   62.6677988
  26.5628565   62.6749383
  26.562216    62.6817069
  26.5526856   62.6887053
  26.5450928   62.6942994
  26.5341462   62.7066872
  26.5260598   62.7158093
  26.5292356   62.7222907
  26.5095589   62.7382865
  26.4923895   62.7521984
  26.4744338   62.7666879
  26.4574607   62.7803828
  26.4465635   62.7891608
  26.424994    62.7833855
  26.3989272   62.7782504
  26.3978399   62.7776739
  26.396901    62.777176
  26.3954389   62.7764007
  26.3942444   62.7757672
  26.3932935   62.7752629
  26.4055802   62.7677268
  26.3998907   62.7661479
  26.3561825   62.7474048
  26.294187    62.7847996
  26.2742013   62.7967704
  26.2473771   62.8129214
  26.2403411   62.8171432
  26.239722    62.8168467
  26.2395289   62.8166898
  26.2395396   62.816533
  26.2396255   62.8163909
  26.2397435   62.8162781
  26.2397328   62.8161458
  26.2396577   62.8160233
  26.2396147   62.8159301
  26.2343029   62.819853
  26.2323277   62.8193198
  26.2229604   62.8256599
  26.2197492   62.8247299
  26.2107574   62.8306696
  26.1977079   62.8265384
  26.1895497   62.8238332
  26.1633821   62.8399096
  26.1543924   62.8453865
  26.1583556   62.8467707
  26.1557249   62.8481955
  26.1660739   62.8514928
  26.1776165   62.8550936
  26.1789512   62.8554907
  26.1824172   62.8565911
  26.1888148   62.86192
  26.1654055   62.8725259
  26.1467395   62.8757701
  26.1332947   62.8781201
  26.124739    62.8795877
  26.0982044   62.884194
  26.0682559   62.8893981
  26.0398283   62.9360968
  26.089358    62.9400876
  26.089726    62.9401586
  26.0898631   62.940203
  26.0900741   62.9402713
  26.1243093   62.9528968
  26.149101    62.9533592
  26.169585    62.9536769
  26.1721859   62.9537054
  26.1813348   62.9538523
  26.1964843   62.954075
  26.2091154   62.954237
  26.2210263   62.9543841
  26.2221895   62.9543984
  26.2547263   62.9397679
  26.2663805   62.9345171
  26.272658    62.9250563
  26.2869245   62.9364615
  26.2929011   62.9412189
  26.3033575   62.9496153
  26.3078872   62.9531432
  26.3141013   62.9586233
  26.3181906   62.9642423
  26.3242969   62.9724658
  26.3325474   62.983546
  26.2898488   62.9821482
  26.2803581   62.9883845
  26.2802282   62.9884839
  26.278896    62.9893484
  26.2783577   62.9896977
  26.2620922   63.0002506
  26.2506285   63.0076542
  26.2300291   63.0210155
  26.2225844   63.0258668
  26.2239877   63.0274187
  26.2362153   63.0409348
  26.2389437   63.043909
  26.312227    63.0371324
  26.3342758   63.0350931
  26.3299107   63.0418756
  26.3294783   63.0429004
  26.3031734   63.0489205
  26.2961331   63.0520441
  26.2892988   63.0551819
  26.2855212   63.0569626
  26.2613116   63.0635883
  26.2499777   63.0672682
  26.2500549   63.0674635
  26.2503339   63.0676093
  26.2504626   63.0676385
  26.2508274   63.0678232
  26.2509776   63.0682216
  26.2508488   63.0683577
  26.2504047   63.0685302
  26.2498725   63.0685365
  26.2437077   63.0707873
  26.2445371   63.0748928
  26.2273795   63.0839788
  26.2215634   63.0870846
  26.2189724   63.089635
  26.2196687   63.0917457
  26.2204701   63.09214
  26.187698    63.12193
  26.1909595   63.1325563
  26.1635152   63.146977
  26.1619584   63.1544693
  26.160833    63.1586657
  26.1570779   63.1734642
  26.155438    63.1796921
  26.1507479   63.1980527
  26.1495505   63.2022883
  26.148983    63.2048987
  26.1477438   63.2100264
  26.1848656   63.2131792
  26.1799678   63.2285234
  26.1758748   63.2413613
  26.1714331   63.2425844
  26.1716648   63.2455138
  26.1419094   63.2746849
  26.1339786   63.3088236
  26.1332357   63.3120194
  26.1331266   63.3123872
  26.1289041   63.330217
  26.0867511   63.3537348
  26.0705543   63.3547837
  26.0749392   63.3592713
  26.0753031   63.3596437
  26.1206698   63.4060313
  26.1661116   63.4326722
  26.1767036   63.4388594
  26.1539917   63.4499436
  26.1387455   63.45755
  26.1386459   63.4575875
  26.1369672   63.4572276
  26.1342904   63.4566734
  26.1135871   63.4526474
  26.1087783   63.4516973
  26.0698251   63.444032
  26.0323085   63.4365997
  26.0061473   63.4314335
  25.9946031   63.4291108
  25.9730767   63.4314167
  25.9640935   63.4323394
  25.9302955   63.4358042
  25.8928497   63.4396418
  25.860763    63.4605878
  25.8390146   63.474783
  25.8312029   63.4799237
  25.8173391   63.4890076
  25.809079    63.4944866
  25.8019743   63.4967954
  25.7786885   63.5043834
  25.7743701   63.5057082
  25.7533967   63.5110207
  25.7529843   63.5111252
  25.738215    63.5148843
  25.7342583   63.5153809
  25.7314709   63.5157307
  25.6982447   63.5199571
  25.5890978   63.5224752
  25.5822998   63.5226622
  25.5794474   63.5227407
  25.5509518   63.5235247
  25.5415093   63.5237509
  25.4825844   63.5325607
  25.4811746   63.532827
  25.4666505   63.5380932
  25.4336289   63.5500627
  25.4243118   63.553439
  25.4231021   63.5538773
  25.4217846   63.5543436
  25.4214429   63.5544619
  25.4180326   63.5557123
  25.4158746   63.5565035
  25.4157717   63.5565391
  25.4144343   63.5570324
  25.4094448   63.5588725
  25.4090511   63.5590177
  25.4025885   63.5613913
  25.3983652   63.5629424
  25.3917358   63.5654056
  25.3868757   63.5672449
  25.3754999   63.5714135
  25.359235    63.5773728
  25.3480341   63.5814759
  25.3233375   63.5894337
  25.2884645   63.6005918
  25.2851664   63.6016327
  25.2792623   63.6035326
  25.2767239   63.6044264
  25.2740621   63.6052291
  25.268408    63.6071049
  25.2611113   63.6093302
  25.2603624   63.6095109
  25.251126    63.6122891
  25.2452155   63.6102644
  25.234934    63.6067892
  25.2268949   63.6040215
  25.2091387   63.5979666
  25.1919725   63.5920755
  25.1592185   63.5808697
  25.140141    63.5743088
  25.1400627   63.574177
  25.1362437   63.5640592
  25.1344338   63.5590373
  25.1336259   63.5567016
  25.129903    63.5466643
  25.1292429   63.5448975
  25.1287411   63.543559
  25.1268378   63.5382007
  25.1267885   63.5380646
  25.1262177   63.5364897
  25.1251212   63.533464
  25.1231728   63.5286944
  25.1198887   63.5199571
  25.1177419   63.5129929
  25.1140946   63.5033643
  25.112547    63.5016445
  25.1088316   63.4973896
  25.10729     63.4956354
  25.1067958   63.4950731
  25.1061622   63.4943521
  25.1037171   63.491039
  25.1030267   63.4902913
  25.1001562   63.4871821
  25.0975695   63.4843801
  25.0936846   63.4802538
  25.0875522   63.473352
  25.087051    63.4727878
  25.0863787   63.4720529
  25.0819033   63.4671603
  25.0660667   63.4640107
  25.0546933   63.4617485
  25.0363247   63.4580701
  25.020697    63.4549302
  24.9886393   63.4484853
  24.9714839   63.4450686
  24.9543714   63.4416361
  24.9369048   63.4381437
  24.9253177   63.435812
  24.9151468   63.4337776
  24.9026155   63.4312728
  24.9012874   63.430542
  24.883722    63.4206733
  24.8805677   63.4189355
  24.87486     63.415738
  24.8729502   63.4146721
  24.8662362   63.4108987
  24.8641955   63.4097545
  24.8606868   63.4078066
  24.8595285   63.4071636
  24.8563527   63.4053865
  24.8466861   63.3999843
  24.8452458   63.3991696
  24.8436847   63.3982905
  24.8406025   63.3965732
  24.825606    63.388198
  24.820189    63.3851514
  24.8137807   63.3815536
  24.8013031   63.3746095
  24.7931073   63.3700514
  24.785051    63.365509
  24.7835232   63.3646519
  24.780252    63.3628086
  24.7774966   63.361256
  24.7729256   63.35868
  24.7745129   63.3541766
  24.7763379   63.3492612
  24.7807928   63.3371225
  24.7825606   63.3322779
  24.7865711   63.3214102
  24.7883193   63.3165817
  24.7892657   63.3139397
  24.7894581   63.3134795
  24.7896195   63.3130397
  24.7896845   63.3127705
  24.79262     63.3047074
  24.7982966   63.2894648
  24.8021794   63.2788048
  24.8036092   63.2759222
  24.7844481   63.2720627
  24.7541498   63.2659145
  24.7666092   63.2553047
  24.7518238   63.2519755
  24.7549357   63.2429913
  24.7549502   63.242942
  24.755051    63.2423522
  24.7564673   63.2378017
  24.7577976   63.2337433
  24.7600078   63.2268331
  24.7612877   63.2228607
  24.7626546   63.2187983
  24.7621761   63.218345
  24.7605896   63.2163222
  24.7602653   63.2159087
  24.7601159   63.2157135
  24.7583941   63.2134642
  24.7498958   63.2028928
  24.7458242   63.1978753
  24.7451998   63.1956229
  24.7432922   63.188957
  24.741404    63.1822394
  24.7391005   63.1740585
  24.7378956   63.1697103
  24.7359891   63.1629494
  24.7348089   63.1585996
  24.7333573   63.1533668
  24.7321589   63.1490252
  24.7316021   63.1470373
  24.739388    63.1445554
  24.7728062   63.133374
  24.7381209   63.1366364
  24.7184872   63.1384979
  24.7006269   63.1402241
  24.6966787   63.1406119
  24.6943054   63.1408422
  24.6848684   63.1417428
  24.6476339   63.1453614
  24.6266913   63.1473969
  24.6091743   63.1490935
  24.5865869   63.1512736
  24.5676537   63.1531444
  24.5465039   63.1552369
  24.5322807   63.1566196
  24.5307755   63.1574946
  24.5297884   63.1570101
  24.5284484   63.156686
  24.5142745   63.1533571
  24.5032592   63.150741
  24.4930024   63.1483472
  24.4838904   63.1461756
  24.4587989   63.1402241
  24.443035    63.1364909
  24.4170916   63.1303091
  24.399168    63.1260469
  24.3699856   63.1190799
  24.3641792   63.117695
  24.3590031   63.1164238
  24.3548446   63.1183565
  24.352892    63.1173771
  24.3537031   63.1166446
  24.3542824   63.1162598
  24.3573509   63.1144308
  24.3409142   63.094529
  24.3330747   63.0849845
  24.331549    63.085321
  24.3307572   63.0842725
  24.3320908   63.0837105
  24.3296747   63.0808483
  24.3285728   63.0794979
  24.3207204   63.0700004
  24.3179663   63.0666314
  24.3087417   63.0661153
  24.2779622   63.0644121
  24.282489    63.049303
  24.282526    63.0491796
  24.2825606   63.049064
  24.2720201   63.0482463
  24.2761088   63.0380672
  24.2781354   63.0330266
  24.2758956   63.0328548
  24.2750967   63.0327936
  24.2633569   63.0318934
  24.262219    63.0318061
  24.2634372   63.0283346
  24.2489024   63.0269426
  24.2468373   63.0326912
  24.2306688   63.0314017
  24.2270353   63.0311119
  24.2267446   63.0310887
  24.2155734   63.0301978
  24.2187289   63.0216773
  24.2364996   63.0202776
  24.2358828   63.023617
  24.2472358   63.0245737
  24.2490367   63.0197276
  24.2652107   63.025738
  24.2664849   63.0262114
  24.2673819   63.0265447
  24.2750614   63.029398
  24.275675    63.029626
  24.2765754   63.0299605
  24.2776976   63.0303774
  24.2778646   63.0304394
  24.2785872   63.0307084
  24.2792468   63.0309539
  24.2936011   63.0362961
  24.2975493   63.0353363
  24.2968595   63.0346065
  24.2998968   63.0304077
  24.3086118   63.0184862
  24.2957437   63.0171096
  24.2963119   63.0158643
  24.2976759   63.0128747
  24.2977178   63.0126649
  24.2975579   63.0080631
  24.3050584   63.0019284
  24.2895375   62.9990494
  24.3034045   62.9916227
  24.3009208   62.9883523
  24.3036555   62.9853866
  24.3110895   62.9772915
  24.3343636   62.9829611
  24.3482329   62.9639589
  24.3482037   62.9636962
  24.3477606   62.9595999
  24.3474547   62.9571335
  24.3465965   62.950213
  24.3451642   62.9375437
  24.3440012   62.9268651
  24.3429862   62.9177129
  24.3685123   62.9171351
  24.393253    62.9161513
  24.4183231   62.9110394
  24.434       62.9078553
  24.4405714   62.901744
  24.4467749   62.8960074
  24.4472199   62.8895111
  24.4473714   62.8870627
  24.4484443   62.8709973
  24.4266733   62.868556
  24.4160791   62.8673734
  24.3892994   62.864415
  24.363481    62.8615407
  24.3573307   62.8724669
  24.3588783   62.8744917
  24.357114    62.8751721
  24.3512619   62.8673164
  24.3454383   62.859563
  24.3359186   62.8467592
  24.3361117   62.8467151
  24.3363156   62.8467004
  24.3365302   62.8467298
  24.3369271   62.8467396
  24.337367    62.84672
  24.3377103   62.8467347
  24.3379893   62.8467298
  24.3383433   62.8464605
  24.3387939   62.8463969
  24.3389951   62.8464346
  24.3388771   62.8465031
  24.3385472   62.8465633
  24.338515    62.8466417
  24.3385579   62.8467543
  24.3387403   62.8468473
  24.3391051   62.8468816
  24.3396201   62.8469012
  24.3400465   62.8468948
  24.3404033   62.8470138
  24.34073     62.8470514
  24.3409907   62.8470858
  24.3411731   62.8471543
  24.3414735   62.8473159
  24.3417873   62.847381
  24.3422486   62.8473076
  24.342828    62.8472488
  24.3432357   62.847146
  24.3433939   62.8470466
  24.3433081   62.8469781
  24.3433362   62.8468727
  24.3434395   62.8468424
  24.3434282   62.8469081
  24.3435576   62.8469893
  24.3437399   62.8470677
  24.3439223   62.8471852
  24.3441906   62.8472684
  24.3444588   62.8473174
  24.3449308   62.8472929
  24.3454244   62.8472341
  24.3456175   62.8471558
  24.3458492   62.8471458
  24.3459823   62.8472341
  24.3461754   62.8473419
  24.3464329   62.8474202
  24.3467011   62.8474936
  24.3471195   62.8475965
  24.3474307   62.8477336
  24.3476452   62.8479049
  24.3477203   62.8480714
  24.3478384   62.8482134
  24.3479242   62.8484092
  24.3480529   62.8485904
  24.348289    62.8486638
  24.3486323   62.8486883
  24.3489005   62.8486491
  24.3492358   62.8484797
  24.3623014   62.8528232
  24.3676304   62.8490153
  24.3847944   62.8364697
  24.3977559   62.8268675
  24.3807808   62.821494
  24.3808082   62.8212333
  24.3808554   62.8210513
  24.3808296   62.8208364
  24.3810871   62.82066
  24.3812743   62.8205874
  24.3815426   62.8205776
  24.3818596   62.8205864
  24.3822351   62.8206306
  24.3826643   62.8207139
  24.3830398   62.8208364
  24.3832651   62.8209442
  24.3834845   62.8210873
  24.3836669   62.8211804
  24.3838337   62.8212186
  24.3840375   62.8212284
  24.3842414   62.8212039
  24.3845037   62.8211363
  24.3848208   62.8210324
  24.3855289   62.8207825
  24.3861511   62.8205129
  24.3864564   62.8204061
  24.3867627   62.8203757
  24.3870464   62.8203865
  24.3873147   62.82046
  24.3876639   62.8205766
  24.3879477   62.8205972
  24.3882588   62.8205923
  24.3885163   62.8205139
  24.3886987   62.8203522
  24.388769    62.8201503
  24.3888274   62.8199454
  24.3889835   62.8197778
  24.3890265   62.8196651
  24.389278    62.8193769
  24.3897024   62.8190231
  24.3900242   62.8190574
  24.3906358   62.8191211
  24.3912366   62.8191211
  24.391655    62.8190868
  24.3920305   62.8190035
  24.3925503   62.8188329
  24.3928078   62.8186908
  24.3930868   62.8185683
  24.3933979   62.8184849
  24.3940905   62.8183075
  24.3944016   62.8182095
  24.3946484   62.8181115
  24.3948844   62.8180086
  24.395099    62.8178174
  24.3953565   62.8177096
  24.3955544   62.8176175
  24.39585     62.8174645
  24.3961552   62.8173577
  24.3965522   62.8172597
  24.3969121   62.8171754
  24.3970945   62.817043
  24.3973413   62.8169646
  24.3976144   62.8168529
  24.3980494   62.8167489
  24.398419    62.8166274
  24.398618    62.8165186
  24.3988541   62.8163862
  24.3991437   62.8163078
  24.3994597   62.8161863
  24.3997875   62.815999
  24.4000283   62.815853
  24.4002381   62.8157834
  24.4005921   62.8157295
  24.4010749   62.815651
  24.4013539   62.8155628
  24.4016328   62.8154746
  24.4018045   62.8153667
  24.4022707   62.8152746
  24.4026628   62.8151462
  24.4028822   62.8150295
  24.4031284   62.8149343
  24.4033242   62.8148347
  24.4035493   62.8147154
  24.4036976   62.8146619
  24.4040039   62.8145727
  24.4041804   62.8144462
  24.4042507   62.8142639
  24.4044331   62.8140727
  24.4047168   62.8139364
  24.4050146   62.8137972
  24.4053391   62.8137453
  24.4056824   62.8136619
  24.4060853   62.8135041
  24.4064394   62.8134257
  24.4065939   62.8133948
  24.4067446   62.8133384
  24.4071416   62.8131864
  24.407281    62.8131374
  24.4074849   62.8131668
  24.4078019   62.8131609
  24.4081345   62.8130727
  24.4083201   62.8130752
  24.4218411   62.8012537
  24.4303727   62.8020153
  24.4287977   62.7969654
  24.4302461   62.7957363
  24.4330324   62.7925597
  24.4339164   62.7917101
  24.4386157   62.786996
  24.4601377   62.7654417
  24.4771687   62.7485404
  24.485593    62.7401921
  24.4895401   62.7338591
  24.4961136   62.7234057
  24.5042407   62.7104366
  24.5101104   62.7010948
  24.5074003   62.7007494
  24.5118678   62.6982742
  24.5132899   62.6960622
  24.5133505   62.6959821
  24.5156052   62.6957368
  24.5156744   62.6956492
  24.515927    62.6954809
  24.5160558   62.6953431
  24.5160665   62.6952003
  24.5156851   62.6950586
  24.5154813   62.6949749
  24.5153262   62.6948017
  24.5152404   62.694659
  24.5151653   62.6944276
  24.5151487   62.6942268
  24.5144642   62.6941486
  24.5181307   62.6882444
  24.5196001   62.6859695
  24.5462301   62.676915
  24.5699316   62.6688325
  24.5821751   62.6647765
  24.5771135   62.6626259
  24.5710965   62.6600692
  24.5684732   62.6589604
  24.53629     62.6452582
  24.5116513   62.6347842
  24.5036476   62.6212542
  24.5410086   62.6162341
  24.5786979   62.62138
  24.5824228   62.6149684
  24.5842994   62.6117086
  24.5837462   62.6116407
  24.5537834   62.6079658
  24.5601724   62.5948403
  24.565919    62.5830001
  24.5670389   62.5808237
  24.5486887   62.5789015
  24.5354446   62.577493
  24.5362561   62.5762472
  24.5455029   62.5613884
  24.5249379   62.5586811
  24.5344393   62.5428646
  24.5382223   62.5366373
  24.5378436   62.5365833
  24.5320307   62.5357545
  24.5310023   62.5367455
  24.5257307   62.5417189
  24.5184287   62.5400338
  24.5221573   62.5364727
  24.5305743   62.5284062
  24.5170667   62.5250945
  24.5113782   62.5296747
  24.5072777   62.5285443
  24.5037629   62.5189382
  24.5029872   62.5192535
  24.5008382   62.5182188
  24.5050632   62.5159913
  24.5074203   62.510319
  24.5079632   62.5089833
  24.5074429   62.506599
  24.5136227   62.5031526
  24.5060921   62.4998239
  24.5058845   62.4997572
  24.5056163   62.4996928
  24.5053625   62.4996717
  24.5050799   62.4996483
  24.5046631   62.4995581
  24.5040714   62.4993906
  24.5037189   62.4992856
  24.5034936   62.4991816
  24.5032882   62.4990637
  24.5029679   62.4988843
  24.5026659   62.4987615
  24.5022276   62.4987109
  24.5019701   62.4986614
  24.5017647   62.4985534
  24.5013355   62.4984345
  24.5008972   62.4983592
  24.5004788   62.4982056
  24.4999316   62.4979678
  24.4994687   62.4978548
  24.4990733   62.4977448
  24.4989215   62.4976418
  24.4988262   62.4974566
  24.4987729   62.4973435
  24.4987407   62.4971751
  24.4986855   62.4971166
  24.4985353   62.4971067
  24.4981598   62.4970819
  24.4977644   62.4970264
  24.497398    62.4969135
  24.4968905   62.4967757
  24.4965397   62.4966955
  24.4963037   62.4966905
  24.4960247   62.4967004
  24.4957613   62.4967606
  24.4953536   62.4968362
  24.4949518   62.4968788
  24.4944798   62.4969036
  24.4939111   62.4968887
  24.4936537   62.4969432
  24.4933854   62.4970126
  24.4928613   62.4970017
  24.4923769   62.4969729
  24.4916061   62.4968729
  24.4911646   62.4968342
  24.4907891   62.4968342
  24.4905208   62.4967946
  24.4902955   62.4968342
  24.4899737   62.4969184
  24.4897591   62.4970076
  24.4897054   62.4971364
  24.4896089   62.4972652
  24.4896196   62.4973247
  24.4893208   62.4974624
  24.4889544   62.4977161
  24.4886755   62.4978598
  24.4883751   62.4979688
  24.4878021   62.4980694
  24.4872915   62.4981719
  24.487057    62.4982452
  24.4866477   62.498375
  24.4863044   62.4985138
  24.4858626   62.4985954
  24.4858739   62.4986747
  24.4865313   62.4989933
  24.4771532   62.5025309
  24.4739441   62.5022704
  24.4670252   62.5017086
  24.4525198   62.5108518
  24.4505039   62.5102966
  24.4601598   62.5011632
  24.4592361   62.5010943
  24.4589357   62.5012231
  24.4585494   62.5012429
  24.4581632   62.5011439
  24.4579272   62.5011042
  24.4576053   62.5010349
  24.4573478   62.5008664
  24.4571547   62.5007575
  24.4568328   62.5007773
  24.4563608   62.5008763
  24.4559101   62.5009952
  24.4554821   62.5010542
  24.4550304   62.5010745
  24.4545808   62.5011136
  24.454215    62.5010547
  24.4540862   62.5008863
  24.4539371   62.5007272
  24.4644085   62.4968035
  24.4657163   62.4974188
  24.4659598   62.4972509
  24.4666523   62.4975451
  24.4669662   62.4976784
  24.4671944   62.4977498
  24.4673052   62.4977845
  24.4675627   62.4979232
  24.4679136   62.4980535
  24.4682376   62.4981734
  24.4683771   62.4983404
  24.4684082   62.4984915
  24.4682923   62.4986069
  24.4680133   62.4988348
  24.4677805   62.4990146
  24.467669    62.4992618
  24.4677655   62.4994055
  24.4680133   62.4995284
  24.4682483   62.4996136
  24.468421    62.4997117
  24.4686678   62.4997513
  24.4690433   62.4997018
  24.4693105   62.4996483
  24.4694188   62.4995531
  24.4694832   62.4994095
  24.4695787   62.4993461
  24.4697289   62.499356
  24.4699231   62.4994095
  24.4702235   62.4995284
  24.4704917   62.4996374
  24.4709949   62.4998217
  24.4713715   62.4998652
  24.4718221   62.4998553
  24.4720796   62.499781
  24.4722083   62.4997117
  24.4723253   62.4996383
  24.4724647   62.4996235
  24.4726482   62.4996423
  24.4728402   62.4997919
  24.4731836   62.5001486
  24.4732158   62.5003071
  24.4732168   62.500435
  24.4730774   62.5006083
  24.4730656   62.5007877
  24.4732479   62.5009162
  24.4736567   62.5010641
  24.4738176   62.5011087
  24.4747189   62.5015397
  24.4748315   62.5016041
  24.4752124   62.501822
  24.4754699   62.501931
  24.4757274   62.5019706
  24.4760374   62.5019367
  24.4762627   62.5017633
  24.4764559   62.5016296
  24.4768314   62.5015652
  24.4770138   62.5015206
  24.477046    62.5014265
  24.4770674   62.5012432
  24.4771962   62.5010995
  24.4774751   62.5009066
  24.477679    62.5008174
  24.4779472   62.500748
  24.478195    62.5006529
  24.4783238   62.5006331
  24.4784836   62.5006936
  24.47871     62.5007272
  24.4789031   62.5006678
  24.4790737   62.5005053
  24.4792346   62.5003666
  24.4794814   62.5002378
  24.4798033   62.5000793
  24.4799535   62.4999604
  24.4801359   62.4998563
  24.4803499   62.4997721
  24.4805323   62.4996433
  24.4807576   62.4994947
  24.4810151   62.4993461
  24.4812726   62.4992371
  24.481521    62.4991816
  24.4818519   62.4991925
  24.4821416   62.4992024
  24.4822918   62.4992172
  24.4824528   62.4993312
  24.4826153   62.4993748
  24.4827961   62.4993758
  24.4831716   62.4992569
  24.4834827   62.4991182
  24.4840621   62.498925
  24.4842445   62.498816
  24.4843196   62.4987714
  24.4845358   62.4987307
  24.4846736   62.4986327
  24.4848882   62.4985732
  24.4851242   62.4985881
  24.4854461   62.4986029
  24.4856301   62.4986118
  24.4857807   62.4986056
  24.4844695   62.495883
  24.4698068   62.4947241
  24.459574    62.4939153
  24.4563225   62.4936921
  24.455143    62.4936111
  24.4518517   62.4847502
  24.4246316   62.4734183
  24.4070631   62.4958835
  24.3959953   62.4941805
  24.3950206   62.4955401
  24.394342    62.4964741
  24.405353    62.4981809
  24.4030312   62.5016086
  24.3919441   62.4999352
  24.3923614   62.4994358
  24.3797046   62.4935012
  24.3746803   62.501896
  24.3480698   62.4953891
  24.3351113   62.4921712
  24.3318647   62.4951428
  24.3281128   62.4942405
  24.3358076   62.4858342
  24.3211734   62.482313
  24.3332198   62.469855
  24.3378214   62.4707997
  24.3423339   62.466197
  24.3440334   62.4644313
  24.3394221   62.4633585
  24.3308058   62.4558013
  24.3216991   62.447727
  24.3155258   62.4494436
  24.3102933   62.4508598
  24.303113    62.4528257
  24.2899267   62.4564356
  24.2729269   62.4610291
  24.264729    62.463286
  24.2013886   62.4826926
  24.1800506   62.4691052
  24.1776806   62.4676154
  24.157033    62.4544408
  24.1474371   62.448198
  24.1281374   62.4354362
  24.1263442   62.434286
  24.109236    62.4229171
  24.0954655   62.4137952
  24.0971729   62.4123523
  24.100978    62.4091365
  24.080134    62.3997528
  24.079658    62.3995344
  24.0638069   62.3924142
  24.0634315   62.3922449
  24.0376393   62.3806052
  24.0337855   62.3779729
  24.0130258   62.3633325
END
END
