polygon
1
  22.4341638   61.4889232
  22.4508766   61.4761102
  22.4515316   61.4755982
  22.4528671   61.4745542
  22.4554052   61.47257
  22.464485    61.4654707
  22.4668981   61.4635836
  22.4879119   61.4463194
  22.4946301   61.4405881
  22.5092497   61.4281126
  22.5201378   61.4263293
  22.5402813   61.4230298
  22.5614593   61.4195605
  22.5611973   61.4194851
  22.5596598   61.4193866
  22.5619054   61.4189039
  22.5742564   61.3968634
  22.5603774   61.3946241
  22.5584153   61.3943075
  22.5586456   61.3939463
  22.5614658   61.3896675
  22.562876    61.3875277
  22.5764524   61.3669197
  22.5914158   61.3421402
  22.5594896   61.3309056
  22.5810852   61.318061
  22.5869394   61.3145814
  22.5874676   61.3142674
  22.6016705   61.305824
  22.6025066   61.3038481
  22.5995004   61.3021592
  22.5991657   61.3019712
  22.6042412   61.3019812
  22.6055523   61.3017686
  22.6106545   61.301543
  22.6101458   61.3013904
  22.6101609   61.3012019
  22.6084553   61.3011699
  22.6187572   61.2916301
  22.6251334   61.2827677
  22.6260291   61.2815225
  22.6273961   61.2796221
  22.627204    61.279463
  22.6268864   61.2791999
  22.6259468   61.2784217
  22.626448    61.2783112
  22.6268154   61.2780248
  22.6291488   61.2772533
  22.6339896   61.2703469
  22.634899    61.2690492
  22.6405048   61.2668985
  22.6410145   61.2652197
  22.6316106   61.2631719
  22.6323195   61.2624041
  22.631189    61.2622989
  22.6295903   61.2629616
  22.6256076   61.2618642
  22.6274478   61.2609692
  22.6356554   61.2583279
  22.6412987   61.2523531
  22.6475204   61.2536621
  22.6476502   61.2532329
  22.6456225   61.2490969
  22.6453328   61.2477603
  22.6455045   61.2466559
  22.6512658   61.2458404
  22.6512551   61.2451024
  22.6531327   61.2449837
  22.6532024   61.2445385
  22.6695585   61.2451127
  22.6830125   61.2469552
  22.6850247   61.2461
  22.6909947   61.245234
  22.6913166   61.2456649
  22.6929081   61.2451982
  22.6932769   61.2452043
  22.6942377   61.2458135
  22.6938194   61.2460309
  22.7018117   61.2461298
  22.7033683   61.2425324
  22.7055429   61.2413521
  22.7056495   61.2412942
  22.7066479   61.2407523
  22.7070527   61.2405326
  22.710703    61.2415715
  22.710203    61.2427642
  22.7108331   61.2429306
  22.710878    61.243215
  22.7101403   61.2434523
  22.7102539   61.2435786
  22.7093314   61.2436021
  22.7086527   61.243524
  22.7072698   61.2442033
  22.7066778   61.2446314
  22.7092551   61.2451104
  22.7089371   61.2457605
  22.7131254   61.2446049
  22.7138811   61.2442807
  22.7145526   61.2441925
  22.7147765   61.2441631
  22.7151898   61.2443212
  22.71501     61.2443763
  22.7136293   61.2447989
  22.7091855   61.2461589
  22.7161771   61.2461864
  22.7170885   61.2458024
  22.7233471   61.245516
  22.723638    61.2460755
  22.7233692   61.2462023
  22.7276492   61.2462371
  22.7285681   61.2462445
  22.7357282   61.2462205
  22.7426081   61.2441921
  22.745434    61.2448904
  22.7460286   61.2454266
  22.7457987   61.2456396
  22.7414909   61.2462576
  22.7678379   61.246351
  22.7887657   61.2431518
  22.789634    61.2429368
  22.7903357   61.2429741
  22.791464    61.242478
  22.79156     61.2421978
  22.7921764   61.2422789
  22.7929361   61.2420137
  22.7945447   61.2418168
  22.7963857   61.2414891
  22.7983436   61.2414188
  22.8163735   61.2368231
  22.8164112   61.2363799
  22.8152912   61.235888
  22.8159095   61.2357335
  22.8168672   61.2359226
  22.8166818   61.2361617
  22.8174769   61.2362411
  22.8175365   61.2365267
  22.8203874   61.2357999
  22.8195189   61.2353524
  22.8179775   61.2348356
  22.8168343   61.2346587
  22.8163734   61.2343
  22.8164593   61.2338428
  22.8195233   61.2329558
  22.8196871   61.2312486
  22.8192351   61.2301893
  22.8217533   61.229435
  22.8253059   61.2302873
  22.8263309   61.2309951
  22.8263719   61.2310506
  22.8268671   61.231722
  22.8263685   61.2316887
  22.8256959   61.2319066
  22.824319    61.2318324
  22.8223551   61.2330175
  22.8220021   61.2336749
  22.8217718   61.2345998
  22.8214062   61.2351328
  22.8214501   61.235529
  22.8454625   61.2294072
  22.8560798   61.2358363
  22.8820777   61.2260792
  22.8720982   61.2226327
  22.9325652   61.2071533
  22.9342375   61.2049854
  22.9560513   61.176607
  22.9150574   61.1787807
  22.9228667   61.1477448
  22.9246732   61.1472316
  22.9232862   61.1455544
  22.9241687   61.1419889
  22.9251982   61.1419669
  22.9269324   61.1417983
  22.928465    61.1415139
  22.9294863   61.141175
  22.9308707   61.1403798
  22.9323119   61.1399127
  22.9328697   61.1396681
  22.9343711   61.1388611
  22.9370039   61.1376696
  22.9378594   61.1370739
  22.938364    61.1368131
  22.9391828   61.1364926
  22.9398323   61.1363788
  22.9404721   61.1363622
  22.9412937   61.136559
  22.942031    61.1367269
  22.9426268   61.1366929
  22.9435714   61.1366177
  22.9452632   61.1365894
  22.9459266   61.1365289
  22.9471418   61.1364152
  22.9462514   61.1354034
  22.9439398   61.1358658
  22.9417227   61.1359163
  22.9414925   61.1341001
  22.9424606   61.1244493
  22.9659138   61.1204227
  22.9633206   61.1188308
  22.9651581   61.1175238
  22.9681795   61.1166892
  22.9699313   61.1182255
  22.971884    61.1158416
  22.9290686   61.0943164
  22.9156803   61.0865194
  22.9216158   61.0824569
  22.9293556   61.0770935
  22.9300224   61.0766314
  22.9362501   61.0729004
  22.9477129   61.0765027
  22.9955131   61.0876961
  23.0062873   61.0749295
  22.9985677   61.0729232
  23.0012909   61.0706879
  22.987306    61.0667113
  22.9865068   61.0678213
  22.9834293   61.0681936
  22.9821498   61.0674202
  22.9810467   61.0675684
  22.9801422   61.0672294
  22.9803779   61.0669454
  22.9765038   61.0657504
  22.9762943   61.065667
  22.9760786   61.0655298
  22.9754513   61.065036
  22.9787744   61.0642447
  22.9664744   61.0607167
  22.9663326   61.0603989
  22.9667386   61.0596147
  22.9688863   61.0601482
  22.9717448   61.0580624
  22.967733    61.0569485
  22.9671424   61.0572202
  22.9666497   61.0568354
  22.9668327   61.0567078
  22.964494    61.056074
  22.963758    61.0567771
  22.9641167   61.0568725
  22.9635266   61.0578859
  22.9643263   61.0579421
  22.9634523   61.0598132
  22.9599379   61.0588055
  22.9667719   61.044209
  22.9687031   61.043621
  22.96851     61.0432574
  22.9690501   61.043186
  22.9694364   61.0430717
  22.9697797   61.0429263
  22.9701874   61.0428224
  22.9707378   61.0427164
  22.9709309   61.042706
  22.9711959   61.0427705
  22.9715317   61.0428099
  22.9725402   61.0428203
  22.9835233   61.0376904
  22.9907449   61.0343065
  22.9975491   61.0311458
  23.0162999   61.0223913
  23.0260557   61.0245411
  23.0356689   61.026661
  23.0401963   61.0276594
  23.0414194   61.0271501
  23.0423066   61.0268507
  23.0435726   61.0263206
  23.0442593   61.0261127
  23.0450886   61.0259131
  23.0461615   61.0256533
  23.0469629   61.0254891
  23.0478352   61.0253622
  23.0485648   61.0252895
  23.0487868   61.0254994
  23.0487364   61.0256949
  23.0472204   61.0261335
  23.0464909   61.0263102
  23.0458396   61.0264121
  23.0449384   61.0265368
  23.0439299   61.0269941
  23.043122    61.0273288
  23.0414408   61.0279192
  23.0553454   61.0309852
  23.0763954   61.0321388
  23.0831868   61.0325113
  23.1074081   61.0338872
  23.1196969   61.0330845
  23.1300707   61.0325098
  23.1365931   61.0321153
  23.1480479   61.0314175
  23.1580418   61.0232209
  23.1588158   61.0212888
  23.1602949   61.0175965
  23.1623817   61.0120132
  23.1638354   61.0081233
  23.1643074   61.0072809
  23.165037    61.0054504
  23.1658095   61.0053568
  23.1871245   61.0024069
  23.1903002   61.0019263
  23.1954093   61.0012194
  23.2134026   61.0069273
  23.2546915   61.0066278
  23.266211    61.0065165
  23.2669449   61.0109022
  23.2671187   61.0109022
  23.2674545   61.01168
  23.2678622   61.0118776
  23.2682055   61.0119816
  23.2682699   61.0125639
  23.268184    61.0127719
  23.2677763   61.0130319
  23.2672184   61.0133334
  23.266947    61.0135955
  23.2670682   61.0138741
  23.2671326   61.0141445
  23.266918    61.014498
  23.2664674   61.0150803
  23.266446    61.0153923
  23.2662958   61.0155898
  23.2661026   61.0162449
  23.2661026   61.0165984
  23.2659954   61.0168271
  23.2658741   61.016954
  23.2655662   61.0169623
  23.2650083   61.0168687
  23.2648012   61.0168708
  23.2644719   61.0169207
  23.2638281   61.0171391
  23.2635063   61.0171807
  23.2629484   61.0171391
  23.2625053   61.0171723
  23.2620686   61.0173262
  23.2617682   61.0175653
  23.2614678   61.0179084
  23.2609743   61.0181788
  23.2605236   61.0183763
  23.2602093   61.0184616
  23.2600044   61.0185395
  23.2681808   61.0198682
  23.2687623   61.0208907
  23.2731633   61.019128
  23.2929676   61.0162761
  23.3042758   61.0146228
  23.3045623   61.0143961
  23.3065182   61.0139948
  23.3088463   61.013583
  23.3101982   61.0134582
  23.310284    61.0137806
  23.3141464   61.0131983
  23.3150208   61.0130953
  23.3174079   61.0126783
  23.3185098   61.0125244
  23.3193391   61.0120128
  23.3204195   61.0117133
  23.3205408   61.0119088
  23.3213132   61.0117632
  23.3238882   61.0114824
  23.3245963   61.0116384
  23.3263772   61.0113473
  23.3257121   61.0096417
  23.3276003   61.0094545
  23.3283513   61.0110665
  23.3312267   61.0106505
  23.3359903   61.0100057
  23.3387015   61.0104134
  23.3397883   61.0105569
  23.3430713   61.0111393
  23.3469766   61.0118776
  23.3575982   61.0136766
  23.3624476   61.0145188
  23.3745712   61.005492
  23.3786986   61.0024568
  23.3790558   61.001737
  23.3856433   60.9921862
  23.3903501   60.9852991
  23.392646    60.9819269
  23.3947414   60.979031
  23.3998773   60.9756185
  23.4001519   60.9754378
  23.4039113   60.9729636
  23.4056698   60.9718339
  23.4107563   60.9685003
  23.4112284   60.9682197
  23.4117809   60.9684045
  23.4122905   60.9684633
  23.4126392   60.9684389
  23.4128087   60.9682551
  23.4127873   60.9680885
  23.4128806   60.9678823
  23.4132454   60.9676844
  23.4137175   60.9674345
  23.413975    60.9672575
  23.4142968   60.9670075
  23.4147399   60.9668701
  23.4151905   60.9667555
  23.4156272   60.966716
  23.4161347   60.9667451
  23.4166282   60.966818
  23.4170359   60.9669742
  23.4172719   60.9672033
  23.4175369   60.9676219
  23.4177011   60.9679843
  23.4178803   60.9682363
  23.4179586   60.968505
  23.4178159   60.9686841
  23.4175509   60.9688382
  23.4174865   60.9690777
  23.4176153   60.9692339
  23.4179876   60.9693714
  23.4189317   60.9695171
  23.4195325   60.9696942
  23.4201977   60.9699961
  23.4208983   60.9702335
  23.4214347   60.970421
  23.4219143   60.970548
  23.4221214   60.9706709
  23.4222576   60.9708395
  23.4224508   60.9709957
  23.4227222   60.9710665
  23.4231299   60.971077
  23.4237742   60.9710926
  23.4242639   60.9710947
  23.4249114   60.9710665
  23.4251153   60.9709676
  23.4254049   60.9708739
  23.4257161   60.9708218
  23.4262917   60.9708343
  23.4265814   60.9707771
  23.4270212   60.9705792
  23.4274397   60.9705011
  23.4283731   60.9704022
  23.4298      60.9702148
  23.4303509   60.9700982
  23.4309373   60.9698712
  23.431302    60.9696785
  23.431574    60.9695515
  23.4318278   60.9694599
  23.4323964   60.9693349
  23.4327327   60.9692443
  23.4331152   60.9691839
  23.4335589   60.9691298
  23.4340808   60.9691058
  23.4345352   60.9690881
  23.4348533   60.9691511
  23.4350502   60.9693693
  23.4352717   60.9695119
  23.4357261   60.9696765
  23.4363054   60.9697962
  23.4368419   60.9698639
  23.437035    60.969942
  23.4372067   60.9701398
  23.4373139   60.9703325
  23.4374963   60.9705719
  23.4375822   60.9708531
  23.4376787   60.971155
  23.4377002   60.9713945
  23.4378182   60.9716184
  23.4379899   60.9717902
  23.4381615   60.9718631
  23.438426    60.971886
  23.438662    60.9718808
  23.4390627   60.9718214
  23.4400246   60.9716413
  23.441355    60.9714018
  23.4418056   60.9713237
  23.442099    60.9713373
  23.4429643   60.9713393
  23.4437904   60.9713393
  23.4442517   60.9712873
  23.4449706   60.9711363
  23.445661    60.9709676
  23.4463798   60.9707333
  23.4471523   60.9704053
  23.4477708   60.9701107
  23.4480927   60.9700222
  23.4485326   60.9699805
  23.4491012   60.9699441
  23.4496054   60.9698816
  23.4500775   60.9697618
  23.4507963   60.9696057
  23.4513043   60.9694994
  23.4517979   60.9694213
  23.4521734   60.9693224
  23.4525274   60.9690933
  23.4528026   60.9688299
  23.4531138   60.9685487
  23.4534179   60.9683488
  23.4540509   60.9680624
  23.4553491   60.967547
  23.4562251   60.9672366
  23.4569048   60.9670523
  23.4574482   60.9669815
  23.4582851   60.966867
  23.4588038   60.9667607
  23.4592475   60.9666149
  23.4596728   60.9663963
  23.4600768   60.9661276
  23.4605633   60.9658808
  23.4612714   60.9656019
  23.4615681   60.9655704
  23.4619044   60.9655892
  23.462355    60.9657298
  23.4629773   60.9658599
  23.4635459   60.9659276
  23.4642219   60.9659172
  23.4648618   60.9658568
  23.4652052   60.9657631
  23.4653661   60.9656641
  23.4653661   60.9655131
  23.4651553   60.9653809
  23.4647583   60.9653705
  23.4643935   60.9653705
  23.4641038   60.9652872
  23.4639107   60.9651205
  23.4638104   60.9648011
  23.4639284   60.9646646
  23.4643823   60.9642988
  23.4648012   60.964152
  23.4665715   60.9636885
  23.4676229   60.9633709
  23.4679947   60.9632219
  23.468331    60.9631365
  23.4686529   60.9631001
  23.4691426   60.9631022
  23.4699189   60.9630063
  23.4697864   60.9627793
  23.4698937   60.9626647
  23.4700798   60.9626106
  23.4703373   60.9626262
  23.4706806   60.962746
  23.4708416   60.9628189
  23.4708737   60.962897
  23.4727368   60.9628782
  23.4728441   60.9627324
  23.4731161   60.9626002
  23.4734878   60.9625293
  23.4738242   60.962496
  23.4738027   60.9626262
  23.4740388   60.9627095
  23.4743392   60.9628553
  23.4743392   60.9630011
  23.4740709   60.9632146
  23.4740602   60.9634073
  23.474146    60.9634542
  23.4744963   60.9635083
  23.4747898   60.9635063
  23.4752688   60.9634563
  23.475787    60.9634375
  23.4760772   60.9634438
  23.4765278   60.9634906
  23.4771356   60.9635136
  23.4776292   60.9634617
  23.4783517   60.9633188
  23.4789595   60.9631907
  23.479371    60.9630428
  23.4794783   60.9629543
  23.4796998   60.9629564
  23.4800254   60.9629959
  23.479886    60.9631053
  23.4794783   60.9632355
  23.4786307   60.9633969
  23.4782015   60.9634688
  23.4777831   60.9635323
  23.4772467   60.9635948
  23.4767424   60.9636
  23.4761738   60.9635427
  23.4758305   60.9635115
  23.4753369   60.9635531
  23.4749078   60.9635896
  23.4744894   60.9635844
  23.4740173   60.9635063
  23.473917    60.9635451
  23.4752511   60.964881
  23.4721395   60.9655996
  23.4715172   60.9657746
  23.4655102   60.96712
  23.4660241   60.9682218
  23.4614547   60.9692646
  23.4639856   60.9746253
  23.4577854   60.9760532
  23.4589827   60.9772681
  23.4604032   60.9769485
  23.4614321   60.9766867
  23.4617755   60.9770718
  23.4635146   60.9767403
  23.4638998   60.9773113
  23.4634921   60.9784772
  23.4531066   60.9816
  23.4542663   60.9832462
  23.4587285   60.9838691
  23.4590729   60.9837249
  23.4663685   60.9829547
  23.4686604   60.9837267
  23.4683587   60.9841257
  23.4682539   60.9842042
  23.4680572   60.9843513
  23.4678834   60.9844488
  23.4678496   60.9846422
  23.4674416   60.9878179
  23.4691153   60.987464
  23.4693503   60.9873579
  23.469758    60.9869
  23.4702086   60.9867959
  23.4706173   60.9867563
  23.4707675   60.9866835
  23.4743295   60.9877346
  23.4785771   60.9902816
  23.4789215   60.9902322
  23.4790717   60.9901177
  23.4865389   60.9904715
  23.4884487   60.9905027
  23.4908938   60.990625
  23.4910665   60.9906068
  23.4926114   60.9904923
  23.4996066   60.9907525
  23.5066018   60.9929688
  23.5093699   60.9931665
  23.5101628   60.9933928
  23.5107861   60.9935411
  23.5161709   60.9918425
  23.516389    60.9921426
  23.5163855   60.9922795
  23.5162363   60.9924382
  23.5203991   60.9912519
  23.521472    60.992896
  23.5262131   60.9923627
  23.5260843   60.9888668
  23.5309563   60.9873599
  23.5341953   60.989293
  23.535677    60.9901385
  23.5367499   60.9908149
  23.5380373   60.9915017
  23.5433938   60.994624
  23.5441957   60.9950914
  23.5403537   60.9966287
  23.5410182   60.9985977
  23.5413193   60.9994896
  23.5479293   60.9965584
  23.5546874   60.9992608
  23.5643015   60.9961839
  23.5649656   60.995994
  23.5658883   60.9989279
  23.5660332   60.9991463
  23.5660814   60.9999994
  23.5663175   61.0010604
  23.5701799   60.9995416
  23.5726475   60.9986574
  23.5783134   60.9975676
  23.5815964   60.9969122
  23.5821758   60.9968289
  23.5875541   60.995736
  23.5829268   60.9903882
  23.5756516   60.9934969
  23.57267     60.9905756
  23.579471    60.9878366
  23.5810844   60.9862054
  23.5812209   60.9860695
  23.5819183   60.9856167
  23.582679    60.9851669
  23.5833881   60.9847945
  23.5837636   60.9846176
  23.5844278   60.9844331
  23.584696    60.9843706
  23.5854792   60.9841157
  23.5857377   60.9840764
  23.5860371   60.9840792
  23.5863482   60.9841261
  23.5868267   60.9842616
  23.5903592   60.9866497
  23.5951126   60.9898604
  23.598554    60.9890955
  23.5987411   60.9890667
  23.6000919   60.9900631
  23.6030745   60.990677
  23.6053275   60.9904377
  23.6058854   60.9919049
  23.6081181   60.991356
  23.6146187   60.9981892
  23.6185251   61.0025194
  23.620777    61.0017678
  23.6272573   61.0003635
  23.6306701   61.0039652
  23.6383949   61.0022281
  23.639618    61.0034451
  23.6443805   61.0023919
  23.6479434   61.0015989
  23.6497402   61.001199
  23.6498951   61.0011645
  23.6499532   61.0012253
  23.650359    61.0016505
  23.6517619   61.0031201
  23.6607538   61.0018016
  23.6645732   61.005723
  23.6757945   61.0059493
  23.6753439   61.0043475
  23.6756673   61.0043312
  23.6792707   61.0041498
  23.6851072   61.0029641
  23.6871885   61.0051172
  23.687961    61.0052732
  23.6949358   61.0047453
  23.6951923   61.0053876
  23.6949348   61.0055956
  23.694806    61.0058349
  23.6966954   61.0060351
  23.7123166   61.0090304
  23.7375937   61.0037156
  23.7368641   60.998067
  23.7358545   60.9921442
  23.738688    60.9925214
  23.7399315   60.9927685
  23.7454901   60.9936764
  23.7457476   60.9932602
  23.7492881   60.9938221
  23.7534284   60.9921962
  23.7546944   60.9930287
  23.754866    60.9934553
  23.7549304   60.9941628
  23.7532782   60.9948807
  23.7665401   60.9970786
  23.7677997   60.995942
  23.7758742   60.9959238
  23.7767733   60.9957141
  23.7796507   60.9931665
  23.7786841   60.9924148
  23.7806807   60.9919803
  23.7839852   60.9913664
  23.7850366   60.9888377
  23.7949071   60.9890562
  23.7973119   60.9863718
  23.8072871   60.9752001
  23.8122009   60.9697443
  23.8188485   60.9623975
  23.8255701   60.9549672
  23.8296031   60.9504644
  23.8393352   60.9397267
  23.8562096   60.9488405
  23.8569255   60.9492333
  23.8648817   60.9535988
  23.8565811   60.9715401
  23.8525278   60.9804897
  23.8452676   60.9844642
  23.831127    60.9921132
  23.8165358   61.0000515
  23.8154803   61.0006056
  23.8153771   61.0006653
  23.8198456   61.0011282
  23.8344272   61.0025955
  23.8344958   61.0102135
  23.8349207   61.0101256
  23.8354185   61.0100783
  23.8357189   61.0100783
  23.8359979   61.0099535
  23.8359764   61.0097663
  23.8365987   61.0095687
  23.8366631   61.0092879
  23.8370064   61.0090071
  23.8370064   61.0087784
  23.8366201   61.0087264
  23.836191    61.0087368
  23.8361266   61.0085703
  23.8365343   61.0085495
  23.8367489   61.0083831
  23.8367274   61.0082271
  23.8364485   61.0081855
  23.8362983   61.0084143
  23.836191    61.0082583
  23.835912    61.0082895
  23.8358262   61.0082063
  23.835955    61.0080087
  23.8357404   61.0079047
  23.8358863   61.0075152
  23.8358219   61.0073384
  23.8364699   61.0072287
  23.8374141   61.0069375
  23.8376501   61.0068543
  23.8380578   61.0067295
  23.8385513   61.0068959
  23.8389977   61.0069432
  23.8394311   61.0069583
  23.8399246   61.0070415
  23.8404182   61.0070103
  23.8407186   61.0070207
  23.8411863   61.0071616
  23.8416198   61.0072079
  23.841839    61.0071732
  23.8421562   61.0072495
  23.8425425   61.0074159
  23.8428214   61.0074055
  23.8430574   61.0073535
  23.8433793   61.0075407
  23.8438943   61.0076967
  23.8440188   61.0078689
  23.8443878   61.0079671
  23.8447955   61.0080711
  23.8457182   61.0081855
  23.8458469   61.0085495
  23.8459113   61.0088304
  23.846083    61.0091111
  23.8459113   61.0093711
  23.8461431   61.0095641
  23.8459757   61.0097871
  23.8458856   61.0100944
  23.8456753   61.0102239
  23.8457354   61.0104376
  23.846083    61.0107231
  23.8460615   61.0108791
  23.846319    61.0110455
  23.8467482   61.0112535
  23.8470014   61.0114048
  23.8471087   61.0115815
  23.8472417   61.0117318
  23.8474563   61.0117942
  23.8476022   61.0120807
  23.8477781   61.012231
  23.8480142   61.0122622
  23.8484004   61.0122726
  23.8490613   61.0124031
  23.8495977   61.0125798
  23.8504603   61.0127717
  23.8513787   61.0129334
  23.8518326   61.0130109
  23.8521941   61.0129854
  23.8526694   61.0130421
  23.8530986   61.0130317
  23.853635    61.0128861
  23.8540427   61.0128965
  23.8546618   61.013079
  23.8548152   61.0129589
  23.855416    61.0118046
  23.8580553   61.0125637
  23.8577978   61.0128237
  23.8577978   61.0130213
  23.8580306   61.0132142
  23.8581411   61.0132812
  23.8580767   61.0134476
  23.8608062   61.0146907
  23.861788    61.0151992
  23.8623704   61.0155007
  23.8652007   61.014945
  23.8662704   61.0156785
  23.8664849   61.0158657
  23.866721    61.0160632
  23.8670031   61.0161407
  23.867472    61.0163544
  23.8679226   61.0165519
  23.8682445   61.0167079
  23.8683979   61.0168165
  23.8687809   61.0168223
  23.8690845   61.0168997
  23.8692315   61.0170302
  23.8691489   61.0172636
  23.8688914   61.0173884
  23.8684408   61.0173884
  23.8682691   61.0175028
  23.8684161   61.0176644
  23.868827    61.0177003
  23.869106    61.0177835
  23.869621    61.0177003
  23.8700684   61.0177788
  23.8708655   61.0180122
  23.87127     61.0182363
  23.8718097   61.0183449
  23.8723246   61.0183033
  23.8729684   61.0184905
  23.8735906   61.0186048
  23.8742129   61.0185944
  23.8746206   61.0186152
  23.8749425   61.0187504
  23.8749822   61.0188913
  23.8749607   61.0190784
  23.8750895   61.0192344
  23.8753931   61.0193222
  23.875715    61.0195405
  23.8761838   61.0200453
  23.8765303   61.0203826
  23.8768737   61.0205698
  23.8771312   61.0206633
  23.8771065   61.0208042
  23.876981    61.0209544
  23.8770882   61.0211
  23.8774283   61.0212512
  23.8778607   61.0213703
  23.8782008   61.0215631
  23.8783939   61.0218438
  23.8785227   61.0219997
  23.8783542   61.0221292
  23.878204    61.0224098
  23.8780935   61.0226235
  23.8778822   61.0228361
  23.877453    61.0229088
  23.8768093   61.0231271
  23.876187    61.0233766
  23.8757976   61.023663
  23.8753716   61.0240731
  23.8751356   61.0243433
  23.8749425   61.0245305
  23.8746635   61.0245928
  23.8742987   61.0246864
  23.8740198   61.0248735
  23.872389    61.0266509
  23.8721744   61.0268068
  23.8682445   61.0306685
  23.8655837   61.0372881
  23.8573472   61.0356614
  23.8322642   61.0308811
  23.8284662   61.0302159
  23.8252261   61.0297898
  23.8230589   61.0294468
  23.811804    61.0278746
  23.7926716   61.025191
  23.7966617   61.0289885
  23.7986723   61.0309123
  23.7988646   61.0310682
  23.8014907   61.0332355
  23.8047083   61.0359996
  23.7956574   61.0438798
  23.8036998   61.0510008
  23.7975457   61.0518675
  23.7568899   61.0573061
  23.7567971   61.0573542
  23.7724799   61.0653741
  23.7863041   61.0723987
  23.7866171   61.0726888
  23.7864907   61.0727109
  23.7863191   61.0727005
  23.7862357   61.0727116
  23.7860881   61.0727456
  23.7859146   61.0729053
  23.7857606   61.0729924
  23.7853497   61.0731325
  23.7850617   61.0732028
  23.7843463   61.0732999
  23.7841017   61.0734046
  23.7839475   61.0735085
  23.7838713   61.0736888
  23.7836988   61.0737977
  23.7840164   61.0741504
  23.784231    61.0741971
  23.7842591   61.0740627
  23.7841773   61.0739532
  23.7854661   61.0738396
  23.7856418   61.0740829
  23.7865108   61.0739143
  23.7867522   61.073948
  23.78832     61.0734166
  23.7899468   61.0739577
  23.7918487   61.0745531
  23.7997301   61.0773707
  23.8030775   61.0787509
  23.8045366   61.0793631
  23.8061717   61.0795753
  23.8079098   61.0798348
  23.8092402   61.0800527
  23.8253334   61.082377
  23.840902    61.0760868
  23.8436171   61.0749889
  23.8449801   61.0744286
  23.8472181   61.0748909
  23.8604961   61.0776717
  23.8621752   61.0779877
  23.8644035   61.0784396
  23.887457    61.0831414
  23.9036829   61.0864383
  23.9046367   61.0866469
  23.906378    61.0870043
  23.9077405   61.0872201
  23.9065625   61.0880282
  23.9065464   61.0883275
  23.9068254   61.0886387
  23.908263    61.0891781
  23.9098756   61.0881766
  23.9132197   61.0894271
  23.9129837   61.0898421
  23.9128764   61.0901429
  23.9199821   61.0918176
  23.9205186   61.0905314
  23.9237801   61.0901994
  23.9248171   61.0899925
  23.9251749   61.090263
  23.9263953   61.0901774
  23.926119    61.0897845
  23.9272992   61.0894318
  23.9273984   61.0894852
  23.9279215   61.0894837
  23.9287031   61.0896029
  23.9288125   61.08966
  23.9290163   61.08966
  23.9290877   61.0897228
  23.928952    61.0898675
  23.9287589   61.0898364
  23.9286408   61.089883
  23.9286371   61.0899925
  23.9288125   61.0901061
  23.9288232   61.0902305
  23.9287159   61.0903343
  23.9284906   61.0903913
  23.9282761   61.0905417
  23.9283796   61.0906875
  23.9282761   61.0907907
  23.9279756   61.0907751
  23.9276967   61.090661
  23.9274499   61.0906351
  23.927289    61.0906714
  23.9271603   61.090827
  23.9271281   61.0910033
  23.9269741   61.0911854
  23.9267096   61.0912264
  23.92642     61.0912108
  23.9262376   61.0912471
  23.9260981   61.0915635
  23.9260659   61.0917398
  23.9260874   61.0918799
  23.9260015   61.0920147
  23.9257655   61.0920977
  23.9255724   61.092274
  23.9253364   61.092357
  23.9251647   61.092414
  23.9250681   61.0925281
  23.9251862   61.0926993
  23.9252682   61.0928243
  23.9251862   61.0929223
  23.9250145   61.0929275
  23.9248536   61.0928549
  23.9246497   61.0928134
  23.9242849   61.0928134
  23.9239094   61.0928756
  23.9235521   61.0929884
  23.9246741   61.0932744
  23.9303102   61.094711
  23.9346456   61.0958295
  23.9409431   61.0974345
  23.9461774   61.0988024
  23.9492255   61.0995989
  23.9503662   61.099897
  23.9516563   61.1002202
  23.9540006   61.1008074
  23.9549151   61.1010365
  23.955191    61.1011056
  23.9582649   61.1019078
  23.9585824   61.1019907
  23.962075    61.1029021
  23.9649896   61.1036628
  23.965593    61.1038202
  23.9691043   61.1047366
  23.9706652   61.1051439
  23.9709139   61.1052079
  23.9805539   61.1076897
  23.9916105   61.1105636
  23.9938572   61.1111476
  23.9943941   61.1112871
  24.0059998   61.1142975
  24.0080412   61.114827
  24.0118177   61.1158065
  24.0139245   61.1163523
  24.0150871   61.1166534
  24.0159452   61.1168757
  24.0192405   61.1177293
  24.0203939   61.1180281
  24.025779    61.119423
  24.0263017   61.1195584
  24.02373     61.120589
  24.0238276   61.1207586
  24.024481    61.1218948
  24.0268619   61.122437
  24.027004    61.1224693
  24.0284836   61.1228143
  24.0305482   61.1232957
  24.0347127   61.1242666
  24.0357139   61.1245
  24.0359228   61.1245487
  24.0371625   61.1248377
  24.0377252   61.1245513
  24.0379246   61.1244498
  24.0415398   61.1226098
  24.046429    61.1244704
  24.0476124   61.1239466
  24.0479327   61.1237774
  24.048041    61.1237202
  24.048299    61.1235839
  24.0492217   61.123159
  24.0495436   61.1227031
  24.0497367   61.1225062
  24.0501229   61.1223197
  24.0506775   61.1221054
  24.0513031   61.1218637
  24.0517752   61.1216979
  24.0518762   61.1216181
  24.0520112   61.1215114
  24.0520756   61.1212316
  24.0521828   61.1210347
  24.0524618   61.1207859
  24.0525262   61.1206305
  24.0560259   61.119961
  24.0608523   61.1190277
  24.0615169   61.1188998
  24.0624162   61.1192013
  24.0632765   61.1195009
  24.0660842   61.12103
  24.0663202   61.121258
  24.0653793   61.1218741
  24.0652474   61.1222528
  24.0637485   61.1229207
  24.0873091   61.1256045
  24.0881137   61.1256859
  24.1098908   61.1281436
  24.1104494   61.128204
  24.1110809   61.1282731
  24.112025    61.1282042
  24.1257663   61.1258845
  24.128502    61.1254226
  24.1419371   61.1231544
  24.142495    61.1248538
  24.1446407   61.1256309
  24.1435464   61.1274235
  24.143335    61.1276561
  24.1441687   61.1290087
  24.1408889   61.1291584
  24.1387431   61.1316552
  24.1372625   61.1318934
  24.1365443   61.1323804
  24.1353528   61.1331884
  24.1353356   61.1333649
  24.1352423   61.1343232
  24.1348096   61.1351977
  24.1345654   61.1356913
  24.1342961   61.1362355
  24.1340868   61.1366585
  24.1341423   61.1367929
  24.1345771   61.137845
  24.1343228   61.1382744
  24.1389362   61.1432145
  24.1823665   61.1450785
  24.2067607   61.1475073
  24.2318909   61.1499866
  24.2355118   61.1514239
  24.2675004   61.1721927
  24.2775844   61.1787118
  24.2778355   61.1788824
  24.2776166   61.1790222
  24.2774986   61.1791153
  24.2775523   61.1792808
  24.277607    61.1795119
  24.2775415   61.1796014
  24.2772958   61.1797395
  24.2770695   61.1798755
  24.2770598   61.1800136
  24.2771778   61.1801378
  24.2772315   61.1802515
  24.2774031   61.180386
  24.2777035   61.1804894
  24.2780994   61.1804444
  24.2783355   61.1804548
  24.2785082   61.1805153
  24.2786895   61.1805427
  24.278712    61.1806498
  24.2787657   61.1810997
  24.2785511   61.18141
  24.2786477   61.1814462
  24.2788397   61.1814581
  24.2789481   61.181591
  24.2790661   61.1817307
  24.2791412   61.1817824
  24.2792592   61.1818134
  24.2792807   61.182072
  24.2795049   61.1820684
  24.2796444   61.1820477
  24.2798708   61.1821082
  24.2801808   61.1820942
  24.2806207   61.1820011
  24.2807495   61.1819132
  24.2811464   61.1817736
  24.2815219   61.1817064
  24.2816399   61.1815719
  24.2971442   61.1914881
  24.2963503   61.191912
  24.2716224   61.2050028
  24.2710838   61.2053046
  24.2712222   61.205332
  24.2712233   61.2054545
  24.2711924   61.2055905
  24.2710597   61.2057262
  24.2707191   61.205842
  24.2705903   61.2059506
  24.2703543   61.2060022
  24.270195    61.2059629
  24.2699788   61.2059402
  24.2697749   61.2059764
  24.2655156   61.2082139
  24.2616317   61.2134325
  24.2594645   61.2163049
  24.2580258   61.2182694
  24.2595933   61.2195489
  24.2598926   61.2198294
  24.2596576   61.2200655
  24.2604719   61.2203873
  24.2608402   61.2207162
  24.2609368   61.2208024
  24.2610495   61.220903
  24.2613307   61.2211541
  24.2613993   61.2212155
  24.2617652   61.2215422
  24.2618662   61.2216323
  24.2619504   61.2217075
  24.2628898   61.2225615
  24.2635388   61.2231516
  24.2646551   61.224166
  24.2664876   61.2256916
  24.2684542   61.2254592
  24.2700002   61.2252408
  24.2702464   61.2254886
  24.2718642   61.2271167
  24.2718885   61.2271412
  24.2721235   61.2272151
  24.2721675   61.2273685
  24.2730965   61.2282701
  24.2734978   61.2286595
  24.2687986   61.2300021
  24.2692644   61.2302663
  24.2693323   61.2303715
  24.2697131   61.2305447
  24.2699588   61.2307477
  24.2718482   61.2323085
  24.2724415   61.2327571
  24.2747068   61.2344702
  24.274957    61.2346594
  24.2757711   61.2346048
  24.2762283   61.2345742
  24.2770432   61.2352883
  24.2798203   61.2377217
  24.2825508   61.2401141
  24.289488    61.2377401
  24.2900326   61.2375537
  24.2909839   61.2372281
  24.2957527   61.235596
  24.2967397   61.2353136
  24.3001774   61.2341669
  24.3028326   61.2332747
  24.3130174   61.2348999
  24.3332326   61.2382268
  24.3505981   61.2410801
  24.3593768   61.2425224
  24.3610053   61.24279
  24.3641148   61.2436315
  24.3864133   61.2496656
  24.3993952   61.2468891
  24.4031074   61.2534738
  24.4104171   61.2561582
  24.4125488   61.256941
  24.4185086   61.2570793
  24.4202177   61.2550036
  24.4179722   61.2532302
  24.4185301   61.2530445
  24.4188305   61.2529103
  24.4205042   61.2534366
  24.4260242   61.2571474
  24.4303318   61.2634143
  24.4365814   61.2657003
  24.4476696   61.2697273
  24.4566014   61.2675158
  24.4658657   61.270274
  24.4676521   61.271456
  24.4687723   61.2719665
  24.4705489   61.2727761
  24.4746419   61.2746572
  24.4835307   61.2781077
  24.483402    61.2782469
  24.4838312   61.2787522
  24.4838794   61.2790656
  24.4848128   61.2791069
  24.485698    61.2789842
  24.493117    61.2818547
  24.505203    61.2857993
  24.5202931   61.2908034
  24.5289727   61.2929777
  24.5380665   61.2951818
  24.5509668   61.2983368
  24.5518681   61.2978112
  24.552088    61.2981781
  24.5517608   61.2985017
  24.5541909   61.2990746
  24.5544859   61.2988933
  24.5556017   61.2991818
  24.555473    61.2994085
  24.5603921   61.3006203
  24.5607355   61.3004245
  24.561803    61.3003565
  24.5622536   61.300068
  24.5626666   61.3003009
  24.5618158   61.3009511
  24.5636108   61.3013931
  24.5647641   61.3009336
  24.5654776   61.3011973
  24.5647051   61.3016507
  24.5663735   61.3021082
  24.5668884   61.3021288
  24.5671888   61.302067
  24.5676609   61.3020773
  24.5674732   61.302372
  24.5689752   61.3026914
  24.573712    61.3039422
  24.579468    61.3002906
  24.5801654   61.3000742
  24.5803317   61.2997073
  24.5803853   61.299393
  24.5808467   61.2991869
  24.5808574   61.2991148
  24.5810934   61.2990015
  24.5812222   61.2988675
  24.5812329   61.298749
  24.5817532   61.2984666
  24.5816835   61.2983574
  24.5815639   61.298269
  24.5819088   61.2982647
  24.5822146   61.2983069
  24.5824849   61.2980578
  24.5827725   61.297838
  24.5830407   61.297668
  24.5831641   61.2975124
  24.5832177   61.2973784
  24.5834752   61.2972651
  24.5837059   61.2972661
  24.5839687   61.2972032
  24.5840438   61.2969971
  24.5841297   61.2969198
  24.5842228   61.2968522
  24.5842692   61.2968013
  24.5841994   61.2967147
  24.5840331   61.296621
  24.5840438   61.2964973
  24.5841082   61.2964509
  24.5840868   61.296353
  24.5842477   61.2962087
  24.5845052   61.2960748
  24.5847305   61.295982
  24.5849612   61.2957512
  24.5850577   61.2955244
  24.5850631   61.2953224
  24.5851543   61.2951998
  24.5852616   61.2951019
  24.5852562   61.2950081
  24.5849665   61.2948329
  24.5849773   61.2947401
  24.5852133   61.2946165
  24.5853635   61.2944722
  24.5854292   61.2941951
  24.5854666   61.2940371
  24.5851392   61.293819
  24.5850148   61.2936178
  24.5848324   61.2932313
  24.5846608   61.2930664
  24.5871928   61.2926438
  24.5896175   61.2883764
  24.5932009   61.2899639
  24.5948451   61.291273
  24.6029588   61.2896227
  24.6147605   61.2872157
  24.6257897   61.2849786
  24.6308656   61.283975
  24.6370121   61.2826796
  24.6375271   61.2825455
  24.6380689   61.2831703
  24.6419045   61.2823806
  24.6407672   61.2819269
  24.6428688   61.281481
  24.6540849   61.2791806
  24.6658294   61.2768019
  24.6663877   61.2766888
  24.6687963   61.2775509
  24.6691772   61.2776684
  24.6693937   61.2778882
  24.6705558   61.278747
  24.6877005   61.2799741
  24.6905973   61.278118
  24.7025707   61.2723739
  24.7040073   61.2726407
  24.7083428   61.2723894
  24.7169655   61.2794059
  24.7166469   61.2830775
  24.7181918   61.2837271
  24.7187927   61.2887991
  24.7199299   61.2986212
  24.7295644   61.3139821
  24.7317531   61.3174427
  24.7417685   61.3046119
  24.7566033   61.2856481
  24.7597087   61.2814786
  24.7606104   61.2802968
  24.7637626   61.2764207
  24.7705485   61.2677096
  24.8005807   61.2717606
  24.8078849   61.2727636
  24.8095318   61.272595
  24.81061     61.2723407
  24.8137241   61.2730791
  24.8202659   61.2746303
  24.8257591   61.2759193
  24.8346212   61.2754243
  24.840831    61.2742502
  24.8453285   61.2759812
  24.8445936   61.2775033
  24.8470531   61.2779972
  24.8723437   61.2833434
  24.8728158   61.283364
  24.8730089   61.2837042
  24.8735239   61.2836011
  24.8853042   61.2861373
  24.890733    61.2873022
  24.8913123   61.2874362
  24.8854876   61.2922272
  24.8788583   61.2977585
  24.8915913   61.3076242
  24.8943754   61.3097938
  24.9045678   61.3176526
  24.9139138   61.32485
  24.9151562   61.3258318
  24.9076792   61.3273324
  24.9077436   61.3274662
  24.9079582   61.3275177
  24.9082586   61.3274559
  24.9079861   61.3278605
  24.9077222   61.3285884
  24.8996766   61.3407029
  24.8995264   61.3408366
  24.8952442   61.3473186
  24.8939045   61.3493462
  24.8892965   61.355697
  24.8982572   61.3720514
  24.8995876   61.3745022
  24.9020064   61.3810746
  24.9021485   61.3814607
  24.9042328   61.3871229
  24.9048039   61.3886741
  24.8939474   61.3912634
  24.8946604   61.3922105
  24.8948068   61.392405
  24.8968252   61.395086
  24.896916    61.3952066
  24.9029221   61.4031831
  24.906778    61.4083143
  24.9124214   61.4158303
  24.8979224   61.4249183
  24.8896183   61.4257086
  24.88979     61.4287668
  24.8866572   61.4317838
  24.878412    61.4364589
  24.878176    61.4368077
  24.8775537   61.4370848
  24.8766954   61.4372797
  24.8761      61.4372217
  24.875408    61.4369924
  24.8748984   61.4369345
  24.8745121   61.43676
  24.8739918   61.4366539
  24.8736699   61.4366539
  24.8731978   61.4370335
  24.8728384   61.4373756
  24.8730047   61.437649
  24.8732032   61.4378475
  24.8733051   61.4379568
  24.8732622   61.4381517
  24.873348    61.4383569
  24.8736484   61.4386441
  24.8738845   61.4389314
  24.8740124   61.439225
  24.8740991   61.4394238
  24.8740991   61.4397726
  24.8739489   61.4399573
  24.87404     61.4400429
  24.8744048   61.4401147
  24.8745497   61.4402137
  24.8746784   61.4403266
  24.874378    61.4404497
  24.8743136   61.4406446
  24.874555    61.4407815
  24.8744209   61.4410139
  24.8747911   61.4412636
  24.8751719   61.4413113
  24.8762716   61.4434485
  24.8733749   61.4446281
  24.8667444   61.4491818
  24.8591484   61.451438
  24.86241     61.4580515
  24.859878    61.4619575
  24.8595776   61.4623676
  24.8554792   61.4694195
  24.859966    61.4759878
  24.9107423   61.4643101
  24.9319114   61.4595484
  24.948363    61.4557616
  24.9634816   61.452318
  24.9705262   61.4507034
  24.9888531   61.4519947
  25.0103186   61.4554565
  25.0390941   61.4600588
  25.0540072   61.4624372
  25.0544063   61.4630199
  25.0550715   61.4629379
  25.0546423   61.4625381
  25.064191    61.4641065
  25.069491    61.464906
  25.0746709   61.4658403
  25.0795204   61.4666091
  25.0745851   61.4763755
  25.0784689   61.4768673
  25.0935322   61.4716515
  25.1075226   61.4714466
  25.1115138   61.4727173
  25.1181227   61.4730145
  25.1184446   61.4726148
  25.1202735   61.472262
  25.120371    61.4722436
  25.1209912   61.4721262
  25.122749    61.4717935
  25.1211912   61.4698581
  25.1307527   61.4692723
  25.1358253   61.4672753
  25.137069    61.4664396
  25.1380463   61.4657828
  25.1383573   61.4655738
  25.1390209   61.4651416
  25.1404971   61.46418
  25.1408672   61.4639389
  25.1416618   61.4634213
  25.143653    61.4620595
  25.1463484   61.460216
  25.1477772   61.4592387
  25.1492178   61.4600103
  25.1646311   61.4682649
  25.1717403   61.4720984
  25.1724321   61.4724714
  25.1729971   61.4727786
  25.1736131   61.4731136
  25.1759545   61.4743868
  25.1832682   61.4783633
  25.1878272   61.4780244
  25.1959497   61.4774206
  25.2129442   61.4761193
  25.2288658   61.4749
  25.2554089   61.4728608
  25.2559883   61.4727788
  25.2758495   61.4801752
  25.3030578   61.4811587
  25.3577534   61.4830745
  25.388116    61.4845701
  25.4221693   61.4861783
  25.4374612   61.4868917
  25.506629    61.6338853
  25.5013631   61.6768604
  25.5001336   61.6864296
  25.4970673   61.7045897
  25.5009039   61.7629696
  25.5352394   61.7795659
  25.4124393   61.7553106
  25.412289    61.7554794
  25.4120316   61.7556165
  25.4120852   61.7557942
  25.4122247   61.7560836
  25.4121496   61.7562207
  25.4119135   61.7563476
  25.4116346   61.7563628
  25.4114629   61.7562968
  25.4113771   61.7562004
  25.4114479   61.756096
  25.4116303   61.7559691
  25.411699    61.7558653
  25.411538    61.7557485
  25.4114415   61.7556419
  25.4114582   61.7554866
  25.4116088   61.7554055
  25.4118492   61.7553525
  25.4122633   61.7552634
  25.39611     61.7448508
  25.4074997   61.7403782
  25.3934599   61.722907
  25.3728391   61.7130654
  25.3577973   61.7196539
  25.3560013   61.7198491
  25.3525466   61.7202151
  25.315575    61.724322
  25.3149313   61.7242203
  25.3150815   61.7237832
  25.3148884   61.7237324
  25.3145236   61.7242
  25.3141803   61.7242915
  25.3144163   61.7243423
  25.3149098   61.724383
  25.3048381   61.7254504
  25.3043905   61.7254978
  25.3053068   61.7251578
  25.3054945   61.7249642
  25.3050822   61.7248099
  25.3040737   61.7252063
  25.3034625   61.7255984
  25.3029579   61.725623
  25.3020567   61.7257044
  25.2934112   61.7258777
  25.2652074   61.7264748
  25.268233    61.73681
  25.2639414   61.7392078
  25.2619581   61.7385687
  25.2607507   61.7380922
  25.2601284   61.7378992
  25.2597636   61.7376756
  25.2591199   61.7372794
  25.2587122   61.737127
  25.2578539   61.7368628
  25.2567166   61.7364868
  25.2555365   61.735989
  25.2455586   61.728286
  25.2450437   61.7278998
  25.2444214   61.7277067
  25.2395505   61.7280014
  25.2388209   61.7277067
  25.2385849   61.7274831
  25.2356023   61.7263955
  25.2185735   61.7367383
  25.206098    61.734292
  25.2039308   61.7328084
  25.199253    61.7328084
  25.190289    61.729406
  25.1874727   61.7299528
  25.1796943   61.7361835
  25.1755272   61.7371356
  25.1748127   61.7373271
  25.1742387   61.7373439
  25.1729116   61.7373271
  25.1724052   61.7371265
  25.1718666   61.7369984
  25.1713473   61.7370152
  25.1705149   61.7369146
  25.1699869   61.7369126
  25.1686085   61.7370223
  25.1673747   61.7371188
  25.1668061   61.7371239
  25.1659528   61.7373012
  25.1655194   61.7374358
  25.1650859   61.7374577
  25.1645742   61.7376594
  25.1642384   61.7377559
  25.1635946   61.7377468
  25.1632288   61.737731
  25.1625936   61.7377884
  25.1614306   61.7378621
  25.1608835   61.7380612
  25.1605619   61.7380383
  25.1600251   61.7379937
  25.1595574   61.7380551
  25.1589254   61.7382685
  25.1582055   61.7382075
  25.1576651   61.7380434
  25.1571605   61.7382604
  25.1567979   61.7386083
  25.156402    61.7388034
  25.1557583   61.7388745
  25.1547069   61.7390473
  25.1539576   61.7392515
  25.153634    61.7393317
  25.1532048   61.739413
  25.1527757   61.7394232
  25.1522178   61.739413
  25.1517886   61.7393724
  25.1515311   61.7392911
  25.1511706   61.7391135
  25.1509335   61.7389772
  25.1504121   61.73903
  25.14988     61.7391585
  25.1485582   61.7395243
  25.1458824   61.7402578
  25.1321613   61.7441182
  25.1255459   61.7459451
  25.1242584   61.7463412
  25.1167644   61.7484235
  25.1128365   61.7495285
  25.1129223   61.7497418
  25.1118559   61.7500282
  25.1117701   61.7498149
  25.1057111   61.7515407
  25.0995113   61.7533065
  25.0997538   61.7535827
  25.0993611   61.7536619
  25.0988246   61.7536721
  25.0985736   61.7535624
  25.0744552   61.7603047
  25.069119    61.7618127
  25.0445432   61.7687249
  25.0430626   61.7691365
  25.0199312   61.7756085
  25.0101465   61.7782702
  25.0067133   61.7793254
  25.0001296   61.7811361
  24.9921197   61.7833578
  24.9862592   61.7849832
  24.979284    61.7869177
  24.9754533   61.7855337
  24.9615387   61.7805059
  24.9606866   61.780198
  24.9616424   61.7765418
  24.9763581   61.7697579
  24.9809297   61.7671972
  24.9895225   61.7623719
  24.9900095   61.7620984
  24.9841533   61.760005
  24.9795617   61.7583636
  24.9942173   61.7385679
  25.0003542   61.733711
  25.0035085   61.7312619
  25.0009185   61.7302833
  24.9911703   61.726597
  24.9887268   61.7256548
  24.9871297   61.7250389
  24.97883     61.7218383
  24.9676957   61.7241372
  24.9590911   61.728335
  24.9657001   61.7339447
  24.9599301   61.7370484
  24.9666206   61.7448041
  24.9556558   61.7555291
  24.9438787   61.7511029
  24.9443079   61.7487162
  24.9501004   61.7438812
  24.9468184   61.7373182
  24.9439399   61.737591
  24.9265195   61.7200608
  24.9242235   61.7157297
  24.9203863   61.7123662
  24.9148288   61.7074875
  24.9134786   61.7064676
  24.9165599   61.704674
  24.916517    61.7022633
  24.9223985   61.6943374
  24.9225466   61.6940686
  24.922568    61.6937938
  24.9225895   61.6936056
  24.9226968   61.6934682
  24.923054    61.6931948
  24.9249284   61.6911737
  24.9307434   61.6849048
  24.942867    61.6800903
  24.9569647   61.6714672
  24.9639803   61.6621037
  24.9642388   61.6618027
  24.9631294   61.6608766
  24.9628022   61.6606635
  24.9627776   61.6604394
  24.9631037   61.6600421
  24.963609    61.6594625
  24.9648611   61.6583701
  24.9560913   61.652554
  24.9561494   61.6523481
  24.9564733   61.651933
  24.9567522   61.6518006
  24.9573295   61.6516666
  24.9578895   61.6515662
  24.9582114   61.651393
  24.9584667   61.6513303
  24.9588122   61.6513319
  24.9591534   61.6512998
  24.9595181   61.6511673
  24.9598185   61.6509432
  24.9600353   61.6508122
  24.9605073   61.65069
  24.960915    61.6505677
  24.9610984   61.6504551
  24.9615126   61.6501917
  24.9617926   61.6500975
  24.961739    61.648569
  24.9573295   61.64862
  24.9509136   61.6466431
  24.9489395   61.6410481
  24.9565784   61.6350035
  24.9565366   61.6332724
  24.9581239   61.6318314
  24.9583283   61.6316491
  24.9585614   61.6315169
  24.9591126   61.6312793
  24.9593915   61.6310318
  24.9599012   61.6308572
  24.9601957   61.6307488
  24.960304    61.63064
  24.9599425   61.6306573
  24.9591458   61.630664
  24.9277314   61.6309242
  24.9181409   61.6309895
  24.9096748   61.6364727
  24.9004832   61.6411012
  24.8941856   61.6442832
  24.8882386   61.647266
  24.877145    61.6452992
  24.8757867   61.6445782
  24.8620173   61.6463122
  24.8513314   61.648499
  24.844172    61.6491236
  24.8366254   61.6523617
  24.83375     61.6499979
  24.8285895   61.6510097
  24.8120424   61.660021
  24.8239911   61.6637173
  24.8397442   61.6685353
  24.845967    61.6704395
  24.8550006   61.6732091
  24.8277923   61.6805492
  24.8184582   61.6831041
  24.8051904   61.6866683
  24.7913711   61.6903965
  24.7864874   61.6874906
  24.7674973   61.6758969
  24.7628625   61.6815162
  24.7620471   61.6819844
  24.7631972   61.6826679
  24.7576483   61.6849463
  24.7501749   61.6879806
  24.7360136   61.6937387
  24.7374051   61.6967009
  24.7372763   61.6967518
  24.7373472   61.6968834
  24.7375014   61.6969031
  24.7396378   61.7011095
  24.7419412   61.7057122
  24.7467415   61.7151568
  24.7486704   61.7191364
  24.7465546   61.7288221
  24.7460478   61.7295232
  24.7451565   61.7307561
  24.7448707   61.7311515
  24.7415998   61.7356757
  24.7415235   61.7357798
  24.7409939   61.736591
  24.7408094   61.7368248
  24.7287684   61.7534532
  24.7252257   61.7583527
  24.7222701   61.7625192
  24.721609    61.763425
  24.7223504   61.7673576
  24.722801    61.7698343
  24.7239383   61.7756597
  24.7246678   61.7794446
  24.7350662   61.7778429
  24.7404607   61.7809564
  24.7474773   61.7815449
  24.749902    61.7821435
  24.751211    61.7853595
  24.7531851   61.7866073
  24.7594421   61.7823479
  24.7497433   61.7761686
  24.7566097   61.7732764
  24.7625535   61.7729415
  24.7647532   61.7714296
  24.7653001   61.7710537
  24.7669373   61.7712669
  24.7705357   61.7690339
  24.7689264   61.7680494
  24.7717674   61.7662715
  24.7691925   61.7653071
  24.7721451   61.7635017
  24.7746556   61.764395
  24.7834747   61.7588721
  24.8033495   61.75602
  24.803878    61.7559442
  24.8152396   61.7542829
  24.8133942   61.7578653
  24.8100608   61.7642529
  24.8192092   61.7664034
  24.8207113   61.7701489
  24.8003898   61.7835618
  24.8013361   61.7838987
  24.804353    61.7842248
  24.8089525   61.7859479
  24.8075577   61.7864044
  24.8034175   61.7848117
  24.8005851   61.7843349
  24.7978814   61.7861102
  24.7988255   61.786871
  24.7973235   61.7869522
  24.7974866   61.7891042
  24.7955983   61.7891042
  24.7915428   61.7857263
  24.78211     61.7914964
  24.7830327   61.7921354
  24.7833546   61.792602
  24.782589    61.7928594
  24.7822279   61.7927544
  24.7784837   61.79104
  24.7785051   61.7908169
  24.7787626   61.7906242
  24.7784837   61.7904923
  24.7781833   61.7906647
  24.7776897   61.7906647
  24.7772391   61.7904619
  24.7753938   61.7925513
  24.7758229   61.7927947
  24.7712524   61.7934742
  24.7752221   61.7966586
  24.7752865   61.7976017
  24.7751363   61.7977741
  24.7746857   61.7983217
  24.774514    61.7984231
  24.774278    61.7988693
  24.7739775   61.7990721
  24.7738703   61.7992242
  24.7739132   61.7995588
  24.773763    61.7997616
  24.7735913   61.7998833
  24.7732694   61.799934
  24.7732694   61.8002787
  24.773248    61.8005424
  24.7730334   61.8007756
  24.7727545   61.8008972
  24.7723468   61.8011203
  24.7728317   61.8015071
  24.7299518   61.8132873
  24.7191586   61.8220132
  24.7078665   61.830845
  24.7008283   61.8363651
  24.695421    61.8405578
  24.686097    61.8477488
  24.6740266   61.8571905
  24.6666743   61.862981
  24.650831    61.8697793
  24.6374843   61.8756161
  24.6373202   61.8763954
  24.6312058   61.8791961
  24.6131202   61.8872177
  24.6091334   61.8883531
  24.5892322   61.8939634
  24.5891402   61.8939893
  24.5802417   61.8964628
  24.5519594   61.9122732
  24.5384711   61.9107764
  24.5263155   61.9095056
  24.5246546   61.909334
  24.5405465   61.9312646
  24.5429332   61.9346032
  24.5408099   61.9385992
  24.5412262   61.9390212
  24.5417245   61.9421332
  24.5478566   61.9418574
  24.5477966   61.9413427
  24.5593687   61.9402248
  24.560581    61.9421501
  24.5603852   61.9422756
  24.5601519   61.9424024
  24.5601473   61.9424125
  24.5600231   61.942685
  24.55983     61.9429373
  24.5596798   61.9431291
  24.5591863   61.943341
  24.5587142   61.9434823
  24.5584031   61.9434783
  24.5581456   61.9433471
  24.5577915   61.9432704
  24.5573839   61.9432906
  24.5569332   61.9433915
  24.5567401   61.9435126
  24.5568045   61.9437044
  24.5569118   61.9439163
  24.5567616   61.9440778
  24.5563753   61.9443099
  24.556032    61.9444613
  24.5556243   61.9446228
  24.5553454   61.9448145
  24.5550235   61.9449255
  24.5545729   61.9449861
  24.5542296   61.9450769
  24.5539292   61.9451677
  24.5530494   61.9456521
  24.5525773   61.9459347
  24.5523198   61.946187
  24.5523735   61.9463142
  24.5526417   61.9464393
  24.5528348   61.9466209
  24.5530923   61.9467118
  24.5535215   61.9466815
  24.5538863   61.9467118
  24.5541223   61.9469035
  24.5545085   61.9470044
  24.5549484   61.9468793
  24.5553776   61.946516
  24.5558818   61.9462375
  24.5564075   61.9461123
  24.5568689   61.945965
  24.5571907   61.945965
  24.557577    61.9460659
  24.5578988   61.9462274
  24.5581992   61.946409
  24.5584997   61.9466108
  24.5587893   61.9466875
  24.5588859   61.946853
  24.5589181   61.9469802
  24.5589932   61.9471961
  24.5587786   61.9475897
  24.558328    61.9479832
  24.5581134   61.9481346
  24.5581134   61.9483667
  24.5584712   61.9486974
  24.558564    61.9489822
  24.558564    61.9492244
  24.5582449   61.9494216
  24.5582008   61.9495628
  24.5582636   61.9497592
  24.5583709   61.9500014
  24.5583494   61.9502637
  24.5582636   61.9504453
  24.5583709   61.9510911
  24.5584997   61.9512122
  24.5584353   61.9513131
  24.558284    61.9514675
  24.5711414   61.9515497
  24.5834903   61.9516415
  24.5922526   61.956862
  24.6010481   61.9621401
  24.6067236   61.9704909
  24.6122608   61.9786368
  24.6153368   61.983004
  24.6212054   61.9925044
  24.6369575   61.9988336
  24.6390189   61.9977541
  24.6405913   61.9974358
  24.654394    61.9946485
  24.6578272   61.998477
  24.6667745   61.9985274
  24.670732    62.0006589
  24.6732714   62.0020325
  24.6864496   62.002935
  24.6984638   62.0083577
  24.7054795   62.0116046
  24.7282163   62.0219567
  24.7309152   62.0231853
  24.7231417   62.0299979
  24.7214662   62.031466
  24.7198609   62.0328726
  24.7174819   62.034957
  24.7109158   62.0405827
  24.7039241   62.0466983
  24.701022    62.0457478
  24.6963313   62.0475
  24.6896087   62.0476548
  24.6896108   62.0480697
  24.6795525   62.0502829
  24.6683988   62.0493873
  24.6676095   62.0516378
  24.6658175   62.0524054
  24.6662927   62.0654347
  24.6668163   62.0895221
  24.6737965   62.1154245
  24.6660909   62.1173472
  24.6622213   62.1183105
  24.6582938   62.1192959
  24.6498277   62.1214126
  24.6423739   62.1232708
  24.6313897   62.1259996
  24.6247647   62.1276284
  24.6238205   62.1278605
  24.6231907   62.1274191
  24.6228935   62.1271448
  24.6227916   62.1273058
  24.6224644   62.1285291
  24.622105    62.1288606
  24.6218689   62.1293421
  24.6216704   62.1296726
  24.6143802   62.1359317
  24.6132376   62.1363224
  24.6017202   62.1393614
  24.5949009   62.1481734
  24.5921286   62.1484952
  24.5842912   62.1576158
  24.5787122   62.1644597
  24.5701312   62.1740867
  24.5653591   62.1796913
  24.560221    62.1856437
  24.5453294   62.1902491
  24.5238092   62.1968838
  24.5092591   62.2013765
  24.498821    62.2045866
  24.4988253   62.2039802
  24.4987609   62.2034999
  24.4987394   62.2032298
  24.4987824   62.2029696
  24.4989326   62.2023592
  24.4989755   62.2015686
  24.4988896   62.2012584
  24.4985088   62.1997778
  24.4984176   62.1992369
  24.4981815   62.1971052
  24.4889816   62.1939528
  24.4821366   62.1916005
  24.4675561   62.1866905
  24.456044    62.1828301
  24.4449075   62.1790549
  24.4360614   62.1760414
  24.4329127   62.1749687
  24.4334867   62.1736461
  24.4269206   62.172965
  24.4301822   62.1664736
  24.4364907   62.1670647
  24.4389798   62.1616742
  24.4393875   62.1609327
  24.440675    62.1580567
  24.4276555   62.1527654
  24.4261481   62.1524141
  24.4250377   62.1523645
  24.4249304   62.1520036
  24.4248017   62.1518132
  24.4244798   62.151723
  24.424115    62.1517931
  24.4239219   62.1520237
  24.4239434   62.1523444
  24.4240936   62.1524747
  24.4240506   62.1526451
  24.4235786   62.1526652
  24.4232138   62.1527554
  24.4227417   62.1529859
  24.4227417   62.1531363
  24.4228276   62.1532966
  24.4227578   62.1534866
  24.4220497   62.1538273
  24.4217064   62.1539376
  24.4208695   62.1543686
  24.4203975   62.1544488
  24.419861    62.1543586
  24.4197108   62.1542683
  24.4195875   62.1541887
  24.419287    62.1541887
  24.4189223   62.1542087
  24.4186862   62.1543089
  24.418536    62.1544994
  24.4183215   62.1545996
  24.4180425   62.1546297
  24.4182571   62.15478
  24.4180425   62.1550606
  24.4174417   62.1552511
  24.417034    62.1553513
  24.4167497   62.155441
  24.4164493   62.1556715
  24.4159772   62.1557216
  24.4152745   62.1558123
  24.4146254   62.1560323
  24.4142391   62.1562528
  24.4137027   62.1565735
  24.4131877   62.1567839
  24.4126942   62.1570345
  24.412383    62.1573121
  24.4119914   62.1574359
  24.4116857   62.1574153
  24.4114925   62.1573151
  24.4113048   62.1572855
  24.4111117   62.1574459
  24.4108703   62.1574654
  24.4108327   62.1573356
  24.4109561   62.1570746
  24.4086816   62.1580266
  24.4089444   62.1580873
  24.4093039   62.1581669
  24.4094755   62.1582571
  24.4096901   62.1583072
  24.4098403   62.1584475
  24.4102051   62.1585277
  24.4100173   62.1586986
  24.4101675   62.1587587
  24.4105873   62.1586073
  24.4105913   62.1586079
  24.4105967   62.1587387
  24.4104036   62.1588689
  24.4104894   62.1590092
  24.4107898   62.1590293
  24.4113692   62.1589892
  24.411691    62.1590994
  24.4115194   62.1592197
  24.4115408   62.1594502
  24.4116481   62.1595804
  24.4125708   62.1595103
  24.4127854   62.1593499
  24.4129999   62.1593099
  24.4129356   62.1594602
  24.4130429   62.1595904
  24.4134506   62.1597007
  24.4138153   62.1597107
  24.4145234   62.159861
  24.4149741   62.1599813
  24.4152315   62.1602418
  24.4156178   62.1603019
  24.4161328   62.1602819
  24.4168409   62.1601717
  24.4172486   62.1601115
  24.417785    62.1602117
  24.4187506   62.1602117
  24.419802    62.1601416
  24.4203599   62.1601015
  24.4209822   62.1601216
  24.4215616   62.1600514
  24.4221195   62.159861
  24.4224413   62.1597408
  24.4229134   62.1597608
  24.4232782   62.1599111
  24.4234927   62.1601115
  24.423879    62.1602218
  24.4239863   62.1604021
  24.4242223   62.1604923
  24.4245871   62.1604723
  24.4250162   62.1604923
  24.4251235   62.1606727
  24.4249948   62.1608531
  24.4247105   62.1609828
  24.4243725   62.1611737
  24.4238951   62.1612734
  24.4234713   62.161304
  24.4231655   62.1613536
  24.4229939   62.1614337
  24.4221356   62.1614538
  24.4215777   62.1614137
  24.4207033   62.1614042
  24.4205101   62.1613741
  24.4201883   62.1614042
  24.4195445   62.1613541
  24.4192441   62.161324
  24.4186004   62.1613541
  24.4183858   62.1614142
  24.4177421   62.1614142
  24.4173988   62.1614643
  24.4165619   62.1616747
  24.4161113   62.1618751
  24.4156124   62.1621352
  24.4153174   62.1622459
  24.4145953   62.1621747
  24.4137671   62.1623857
  24.4136812   62.1625259
  24.413295    62.1626161
  24.4129088   62.1627764
  24.4126566   62.162827
  24.412544    62.1627364
  24.4121846   62.162807
  24.4120129   62.1629072
  24.4120129   62.1630375
  24.4122275   62.1632178
  24.4119914   62.1634082
  24.4116642   62.1634478
  24.4113262   62.1636487
  24.4109615   62.1638992
  24.4102051   62.1639187
  24.4095882   62.1638591
  24.4096901   62.1637183
  24.4094326   62.1637183
  24.409218    62.1640089
  24.4090893   62.1641992
  24.4091805   62.1644001
  24.4090893   62.1645499
  24.4087889   62.1646401
  24.4083007   62.164881
  24.4079789   62.1651315
  24.4077643   62.1652518
  24.4081291   62.1653319
  24.4084724   62.1651315
  24.4087942   62.1651616
  24.4089659   62.1650915
  24.4094165   62.1651616
  24.409438    62.165392
  24.4097169   62.1655123
  24.4102319   62.1655423
  24.4105752   62.1655523
  24.4108542   62.1657527
  24.411219    62.1658629
  24.411455    62.1660533
  24.4114121   62.1662036
  24.4110473   62.1662937
  24.4108971   62.1665542
  24.4103177   62.1668247
  24.4098671   62.1671653
  24.4096311   62.1673256
  24.4098403   62.1676958
  24.4101622   62.1678661
  24.4098671   62.1681271
  24.4102051   62.1683971
  24.4102319   62.168648
  24.4099905   62.1689481
  24.4095184   62.1690583
  24.409159    62.169179
  24.4093307   62.1692792
  24.4091107   62.1693388
  24.4087299   62.1693393
  24.4082363   62.1694394
  24.4070347   62.1622058
  24.3980225   62.1632078
  24.4002541   62.1716533
  24.3925722   62.1727251
  24.3892678   62.1668147
  24.3891819   62.166424
  24.3625691   62.1650709
  24.3603857   62.1642699
  24.3511321   62.1664635
  24.3416532   62.1676162
  24.3396791   62.1673457
  24.3359401   62.1680364
  24.3381341   62.1707818
  24.3329575   62.1728848
  24.3204959   62.1796658
  24.3110354   62.185099
  24.3100621   62.1856833
  24.3018224   62.1904488
  24.2932838   62.1953325
  24.292227    62.1971283
  24.2866533   62.2089662
  24.2803019   62.222045
  24.2809456   62.222705
  24.2790348   62.2277756
  24.2788116   62.2283396
  24.276873    62.2335356
  24.2753441   62.2375824
  24.268778    62.2544494
  24.2665261   62.2603117
  24.2580707   62.2558879
  24.2526848   62.2523216
  24.2354658   62.2523189
  24.217109    62.2523285
  24.2112876   62.2523316
  24.1847773   62.2523807
  24.1605834   62.2523219
  24.1579605   62.2523162
  24.1501306   62.2523257
  24.1445355   62.2524072
  24.1442536   62.2525156
  24.1348485   62.2561263
  24.1215565   62.2611498
  24.1127256   62.2644859
  24.1049912   62.2673982
  24.0997341   62.2693902
  24.0953535   62.2709947
  24.094551    62.2716751
  24.0936186   62.2721259
  24.0917829   62.272923
  24.0908817   62.2730828
  24.0906457   62.272953
  24.0896919   62.2731342
  24.0807966   62.2763771
  24.0793879   62.2811078
  24.0783182   62.284538
  24.0761403   62.2947887
  24.0758184   62.2969435
  24.0660123   62.3017912
  24.0521935   62.3016625
  24.05181     62.3016902
  24.0515273   62.3016543
  24.0511979   62.3015658
  24.0509382   62.3013915
  24.0508524   62.3012058
  24.0508041   62.3010332
  24.0507998   62.3009076
  24.050773    62.3008228
  24.0508076   62.3007063
  24.0507934   62.3005694
  24.0507612   62.3004547
  24.0506164   62.3002627
  24.0505413   62.3000507
  24.0505574   62.2998562
  24.0505842   62.2997091
  24.0507076   62.2995071
  24.0508685   62.2993974
  24.0510273   62.299341
  24.0511912   62.2992958
  24.0514264   62.2991904
  24.0514983   62.2991373
  24.0480576   62.2979071
  24.0454243   62.2996669
  24.0452208   62.2998028
  24.04434     62.3003948
  24.0430311   62.3012526
  24.0309933   62.3093205
  24.0282296   62.3111183
  24.0247824   62.3133701
  24.0247572   62.3135493
  24.0246955   62.313877
  24.0244391   62.3152145
  24.0228409   62.3216932
  24.0223352   62.3235751
  24.0195038   62.3226806
  24.0158657   62.322709
  24.0141255   62.324051
  24.017122    62.3267767
  24.0217569   62.3260791
  24.0213063   62.327863
  24.0192345   62.3369981
  24.0188321   62.3386375
  24.0185811   62.3395997
  24.0186981   62.3396036
  24.0246826   62.3399064
  24.0266921   62.3400081
  24.0267662   62.3418095
  24.0180876   62.3413229
  24.0147402   62.3558919
  24.0146627   62.3563485
  24.0130258   62.3633325
  23.9952586   62.3735743
  23.9954467   62.3769186
  23.9591239   62.3856671
  23.954217    62.3868562
  23.9482653   62.3870357
  23.9557275   62.3899617
  23.9514412   62.3913259
  23.9452055   62.3871315
  23.9242337   62.3906258
  23.9226184   62.3970522
  23.9118429   62.4052366
  23.9099929   62.4113623
  23.9096734   62.4115547
  23.9073896   62.4140686
  23.9100905   62.4192516
  23.9105044   62.4241419
  23.9093747   62.4245737
  23.9089358   62.4249607
  23.9090197   62.4256031
  23.9079317   62.4269193
  23.9072881   62.4269912
  23.9072188   62.427045
  23.9065806   62.4275405
  23.9066035   62.4277286
  23.9062885   62.4276588
  23.9062018   62.4278997
  23.9058001   62.4278912
  23.9054988   62.4281574
  23.9059162   62.4283688
  23.9050383   62.4293667
  23.9051803   62.4299463
  23.9037343   62.4322049
  23.9039925   62.4327785
  23.9028435   62.433603
  23.9024338   62.4343032
  23.90234     62.4344634
  23.9025466   62.4348517
  23.9017332   62.4355507
  23.9048678   62.4416032
  23.9058043   62.4434112
  23.9111829   62.4537931
  23.9017982   62.4548401
  23.9036605   62.4583693
  23.9120958   62.4575419
  23.8991461   62.4844827
  23.8746032   62.485598
  23.8673034   62.485437
  23.8681555   62.4602091
  23.8390811   62.4595764
  23.8379279   62.4701768
  23.8357439   62.4902427
  23.8355488   62.491823
  23.8355213   62.4920114
  23.8352467   62.4943278
  23.8163339   62.4844309
  23.8038353   62.4779695
  23.8174164   62.4668099
  23.8075083   62.4629432
  23.8117355   62.4559979
  23.8087014   62.4553105
  23.8106835   62.4540428
  23.8092673   62.4534893
  23.8033369   62.4558897
  23.799297    62.4574694
  23.7982214   62.4593344
  23.796301    62.462157
  23.7945763   62.4641892
  23.7913931   62.4636021
  23.7892945   62.4658738
  23.7764044   62.4593091
  23.7790415   62.4573347
  23.7796718   62.4570921
  23.779498    62.4570606
  23.7712813   62.455727
  23.7657656   62.4548267
  23.7619215   62.4547605
  23.7597484   62.4556903
  23.7554024   62.4535519
  23.7399982   62.4459711
  23.7333013   62.4426616
  23.7254747   62.4387907
  23.7248711   62.4384922
  23.705262    62.4287281
  23.6998504   62.4260725
  23.6973679   62.4248561
  23.6953662   62.4238679
  23.6878442   62.4201837
  23.6826397   62.4176944
  23.6637521   62.4086365
  23.6482405   62.4091855
  23.647102    62.4092223
  23.6364188   62.4096032
  23.6318859   62.4097709
  23.6311804   62.4097873
  23.5750509   62.4117873
  23.5745681   62.4124481
  23.5739088   62.4124638
  23.5735489   62.4123289
  23.5732699   62.4121848
  23.5730446   62.4120804
  23.5726798   62.4120059
  23.5727764   62.4118867
  23.5700513   62.4119965
  23.5632803   62.4122295
  23.535668    62.4133675
  23.5034349   62.4146317
  23.5048521   62.409278
  23.5069292   62.4027936
  23.5155059   62.3760213
  23.5174473   62.3699467
  23.5180063   62.3682075
  23.5180604   62.3680392
  23.5178399   62.3677449
  23.5155381   62.3685635
  23.5149909   62.3678917
  23.5099322   62.369688
  23.5109472   62.3701427
  23.5052089   62.3721143
  23.4902695   62.3773657
  23.4824246   62.3801422
  23.475049    62.382686
  23.4686799   62.3811315
  23.4588796   62.378743
  23.4552206   62.377832
  23.4512831   62.3768769
  23.4451837   62.3753719
  23.4227583   62.3783222
  23.4224547   62.3785483
  23.4222674   62.3786593
  23.4214607   62.3794703
  23.4170618   62.3804452
  23.4154986   62.381137
  23.4122124   62.3821959
  23.4060986   62.3839983
  23.3901013   62.3891981
  23.3890955   62.3950193
  23.3880259   62.3968179
  23.3802798   62.4005858
  23.3800758   62.4006802
  23.3762815   62.4025106
  23.3662297   62.39689
  23.3596196   62.3994299
  23.3633114   62.4009007
  23.3695782   62.4019619
  23.3687247   62.4029069
  23.373146    62.4040242
  23.3633311   62.4087645
  23.356283    62.4121681
  23.3455649   62.4072756
  23.3356407   62.4118119
  23.3346465   62.4198515
  23.3377908   62.4251001
  23.3135214   62.4184482
  23.2954015   62.4134932
  23.280062    62.4092593
  23.2750682   62.4078808
  23.2764257   62.4073405
  23.2779821   62.406721
  23.2785862   62.4061316
  23.2792084   62.4053295
  23.2783201   62.4045636
  23.2771002   62.4040811
  23.2768937   62.4040274
  23.2751669   62.4035781
  23.2727851   62.4049602
  23.2710588   62.4026949
  23.2713376   62.4024238
  23.2714879   62.4021676
  23.2716982   62.4016815
  23.2717562   62.4014379
  23.2719783   62.4012336
  23.2724675   62.4008464
  23.2703883   62.400322
  23.2709708   62.4016785
  23.2704816   62.4019876
  23.2664559   62.3968299
  23.2605364   62.3891594
  23.2501107   62.3756449
  23.2555428   62.3701847
  23.260742    62.3699792
  23.2643704   62.3715191
  23.2671438   62.3721838
  23.2649444   62.3674495
  23.2648264   62.3672137
  23.2647492   62.366926
  23.2629221   62.3628991
  23.2639395   62.3618743
  23.2642      62.3616119
  23.2659701   62.3598288
  23.2631463   62.3592375
  23.260389    62.3596989
  23.260715    62.3604971
  23.2610821   62.3613961
  23.2604576   62.3613956
  23.2590436   62.3585003
  23.2600285   62.3584804
  23.2553269   62.3573833
  23.2505946   62.3562713
  23.2474049   62.3593246
  23.2450135   62.3587059
  23.2387393   62.3578666
  23.235924    62.3581549
  23.2361633   62.3576178
  23.2373552   62.3560831
  23.2370945   62.3555724
  23.2317998   62.3536707
  23.2320595   62.3516758
  23.229418    62.3517421
  23.2271886   62.3543274
  23.2239474   62.353494
  23.2211247   62.3555316
  23.2226911   62.3568522
  23.2204402   62.3598765
  23.2191916   62.3597387
  23.2190972   62.3598937
  23.2190529   62.3599705
  23.2189239   62.3600703
  23.2187552   62.3601225
  23.2171818   62.3602732
  23.2165563   62.3603653
  23.2162323   62.360331
  23.2159625   62.3602026
  23.2157205   62.3601784
  23.2154668   62.3601869
  23.2152721   62.3602469
  23.2151278   62.3603265
  23.2149051   62.3607105
  23.2145962   62.3607227
  23.2138087   62.36077
  23.2132443   62.3608118
  23.2129866   62.3608523
  23.2127476   62.3608899
  23.2122401   62.3611661
  23.2117262   62.3613757
  23.2111222   62.3616081
  23.210487    62.3615807
  23.2095976   62.3617231
  23.2092543   62.3616798
  23.2090815   62.3616141
  23.2090633   62.3613856
  23.2088208   62.361192
  23.208072    62.360867
  23.2075656   62.3607814
  23.2067255   62.3606132
  23.2069497   62.3602717
  23.2118163   62.361088
  23.2153532   62.360106
  23.2183701   62.3592684
  23.2198029   62.3588706
  23.2198629   62.3570278
  23.2199209   62.3552488
  23.2227683   62.352693
  23.223971    62.3512875
  23.2240311   62.3492029
  23.2239952   62.347974
  23.2239933   62.3479081
  23.2239807   62.3474781
  23.2280812   62.3471728
  23.2263582   62.3448857
  23.220909    62.3461475
  23.2191031   62.3445228
  23.2186109   62.34408
  23.2092296   62.3361624
  23.2093948   62.333589
  23.2097532   62.3335132
  23.2104698   62.3346022
  23.217597    62.3347521
  23.2178094   62.3341678
  23.2077722   62.3321161
  23.14451     62.3191816
  23.1210958   62.3144485
  23.0988426   62.3099943
  23.0779713   62.3058353
  23.0756614   62.3054082
  23.0721777   62.3046637
  23.0716413   62.3045949
  23.060155    62.3022475
  23.0391822   62.2980183
  23.0305472   62.2962542
  23.0264686   62.2954209
  23.0133617   62.292771
  23.0082462   62.2917259
  22.9943545   62.288904
  22.9761385   62.2851909
  22.9139784   62.2725015
  22.9009675   62.2698374
  22.896851    62.2690048
  22.8312934   62.2708806
  22.8312993   62.2707888
  22.8309635   62.2707733
  22.8309646   62.2707211
  22.8312097   62.2705864
  22.8313932   62.2704541
  22.8314349   62.2703926
  22.8315016   62.2702941
  22.8314238   62.2701975
  22.8314715   62.2700447
  22.8297437   62.270045
  22.8288827   62.2682822
  22.8265449   62.2633792
  22.8271489   62.2633105
  22.8304551   62.2600894
  22.8321995   62.2584057
  22.8344504   62.2562549
  22.829866    62.2553357
  22.8305729   62.2538646
  22.8312055   62.252548
  22.8243615   62.2375493
  22.8263287   62.2366033
  22.8399484   62.239078
  22.8422755   62.2368437
  22.8412825   62.230108
  22.8405792   62.2253116
  22.8428838   62.2176735
  22.8442689   62.2144702
  22.8493871   62.2097588
  22.8442158   62.2086583
  22.8551222   62.1981978
  22.8477686   62.1968062
  22.8442088   62.1911898
  22.8418989   62.187741
  22.8415084   62.18686
  22.8528015   62.1806329
  22.8585136   62.1760436
  22.8616829   62.17255
  22.8589689   62.1716202
  22.8337729   62.162924
  22.8316292   62.1634195
  22.8312806   62.1621996
  22.8305617   62.1620012
  22.8231041   62.1612932
  22.8194456   62.1656733
  22.7783026   62.1554628
  22.7745475   62.1545959
  22.7708965   62.1543864
  22.7643734   62.1416529
  22.7650257   62.1376148
  22.7688741   62.1185426
  22.7719737   62.1027752
  22.7729107   62.0977787
  22.7761697   62.0813082
  22.7802403   62.0607136
  22.7455452   62.0567727
  22.7417806   62.056345
  22.7208261   62.0539648
  22.7188509   62.0525731
  22.7170431   62.0523232
  22.7164252   62.0534495
  22.6958891   62.050865
  22.6908474   62.0520511
  22.6837494   62.0536943
  22.6706688   62.0413058
  22.6686869   62.0417561
  22.6624076   62.0431825
  22.6704993   62.0509831
  22.6021673   62.0370909
  22.5922711   62.0308395
  22.587133    62.0275903
  22.571602    62.017749
  22.5640167   62.0106951
  22.5390238   61.9990971
  22.5390045   62.002038
  22.5374649   62.002309
  22.5306189   62.0006273
  22.52276     62.0018064
  22.5207526   62.0015102
  22.5226098   61.9980937
  22.5282339   61.997396
  22.5726535   61.9827269
  22.5829729   61.9846116
  22.6004531   61.9809971
  22.6048826   61.9770162
  22.5946813   61.9742411
  22.5986695   61.9655973
  22.6077022   61.9659359
  22.6105699   61.9713887
  22.6097495   61.9742849
  22.6148992   61.9777452
  22.6149036   61.9821381
  22.6082604   61.9842036
  22.6116631   61.9858028
  22.6257407   61.9810441
  22.6227696   61.981062
  22.6208423   61.9684791
  22.6547717   61.9654709
  22.656553    61.9548963
  22.6466814   61.9521188
  22.6509534   61.9472275
  22.652436    61.9474983
  22.6659982   61.930682
  22.683723    61.9216204
  22.710664    61.9180861
  22.7103239   61.9187272
  22.7191793   61.9207293
  22.72107     61.9189481
  22.7198757   61.9169154
  22.7307683   61.9155134
  22.7387295   61.9106411
  22.7377003   61.9051874
  22.7364277   61.904297
  22.7329904   61.9066374
  22.7317259   61.90698
  22.728043    61.9071188
  22.7248688   61.906342
  22.7259572   61.9055538
  22.7269851   61.9053131
  22.7281512   61.9043936
  22.7372504   61.9029374
  22.7348291   61.8897997
  22.7820446   61.8806635
  22.7882071   61.8706332
  22.7367196   61.8599947
  22.7473712   61.8485366
  22.7668719   61.8546191
  22.780367    61.8424546
  22.787627    61.8421625
  22.7925381   61.8340275
  22.8157866   61.8215947
  22.8165531   61.8213411
  22.8284056   61.8152271
  22.8235434   61.8000801
  22.8092542   61.7955537
  22.8086261   61.795272
  22.8108165   61.7952877
  22.8119349   61.7949991
  22.8120562   61.7947868
  22.8110415   61.7942829
  22.8115248   61.7940432
  22.8126958   61.7935583
  22.8139364   61.791164
  22.8147261   61.7907327
  22.8165187   61.7905036
  22.8022016   61.7678759
  22.7865038   61.7555661
  22.7767397   61.7524211
  22.7688519   61.7552814
  22.7647527   61.7563056
  22.7615853   61.7563482
  22.7590672   61.7568891
  22.7285403   61.7497542
  22.7334031   61.7427404
  22.7189929   61.7363936
  22.6992586   61.7394018
  22.7000928   61.7387503
  22.6998031   61.7381432
  22.6977593   61.7383845
  22.6959085   61.7381051
  22.6955464   61.7378194
  22.6945782   61.7375298
  22.6937064   61.7377581
  22.6941078   61.7375015
  22.6941519   61.7373911
  22.6939093   61.7369957
  22.6934682   61.7367853
  22.6933799   61.7366704
  22.6935154   61.7363988
  22.6931625   61.7361571
  22.692819    61.7361168
  22.6927938   61.736081
  22.6929608   61.7360109
  22.6931656   61.7357333
  22.6932066   61.7352663
  22.6929577   61.7351066
  22.6926709   61.7350186
  22.6926678   61.7349216
  22.6931184   61.7347261
  22.6936735   61.7346208
  22.692248    61.7337149
  22.6951393   61.7301195
  22.6843358   61.728353
  22.6794455   61.7257314
  22.6909742   61.702582
  22.6874649   61.6992748
  22.6872961   61.6990802
  22.6766141   61.6983045
  22.6671123   61.6977234
  22.6666075   61.6977001
  22.6656703   61.6976254
  22.64718     61.6965005
  22.653921    61.6820657
  22.6787981   61.671092
  22.6484293   61.6677314
  22.6550144   61.654073
  22.685443    61.6606465
  22.6894416   61.6749299
  22.6998353   61.6757648
  22.7033114   61.6707147
  22.7163337   61.6719499
  22.7166581   61.6708267
  22.7168727   61.6706027
  22.7160787   61.6703278
  22.7156281   61.6704092
  22.715671    61.6706842
  22.714684    61.6711118
  22.7140617   61.6710304
  22.7115726   61.6702972
  22.7118301   61.6699612
  22.7117872   61.6695844
  22.7122807   61.668892
  22.7126662   61.6687082
  22.7124738   61.6671914
  22.7127528   61.6665294
  22.712903    61.6659184
  22.7124953   61.6652666
  22.7130103   61.6649814
  22.7130532   61.6647268
  22.7126884   61.664238
  22.7126455   61.6637491
  22.7132678   61.6637287
  22.7123022   61.6628936
  22.7119159   61.6627612
  22.7119803   61.6622519
  22.7130532   61.6611519
  22.7127528   61.6610908
  22.7127099   61.6604898
  22.7124524   61.6600314
  22.712903    61.659787
  22.7139805   61.6596923
  22.7135467   61.6593286
  22.713139    61.6583711
  22.7127313   61.6580349
  22.7127099   61.6576478
  22.7138257   61.656568
  22.7136969   61.656242
  22.7138901   61.6560485
  22.7138471   61.6556817
  22.7145465   61.6543594
  22.7142763   61.6535372
  22.7155852   61.6531246
  22.7160039   61.6530974
  22.7162933   61.6529157
  22.7164543   61.6525438
  22.7163792   61.6522942
  22.7163899   61.6520802
  22.7166903   61.6518917
  22.7166259   61.6517033
  22.7171087   61.6511531
  22.7173233   61.651204
  22.7173662   61.6509748
  22.7194905   61.6508525
  22.7202523   61.6503838
  22.7200699   61.6501596
  22.7203596   61.6499813
  22.7209067   61.6491458
  22.7217543   61.6489165
  22.7216363   61.6484783
  22.7231491   61.6476428
  22.7237069   61.6473982
  22.7236855   61.6471944
  22.7233958   61.6469244
  22.7236855   61.6465218
  22.7235353   61.6461142
  22.7238035   61.6458136
  22.7238786   61.64562
  22.7242327   61.6452072
  22.7249099   61.6449367
  22.7245337   61.6443756
  22.7239215   61.6441678
  22.7239215   61.6440557
  22.7237606   61.6438009
  22.7238006   61.6435507
  22.7203267   61.6401166
  22.7042839   61.623876
  22.6609159   61.641651
  22.6884636   61.6090193
  22.6960427   61.5997655
  22.6825753   61.5958095
  22.666887    61.5910463
  22.6458321   61.5841351
  22.6459564   61.5819425
  22.6460832   61.5811075
  22.64647     61.5785023
  22.6445818   61.5727876
  22.6474069   61.5721885
  22.6452814   61.5651469
  22.6422329   61.5652822
  22.6408189   61.5611721
  22.6293642   61.5557982
  22.6285362   61.5560837
  22.6283455   61.5558687
  22.6278543   61.5557999
  22.6274362   61.5558525
  22.6265978   61.5556806
  22.6261397   61.5554578
  22.6258741   61.5553287
  22.6242739   61.5554719
  22.6233467   61.5554434
  22.6231503   61.5552408
  22.6255588   61.5550581
  22.6267625   61.5547699
  22.6271398   61.5547545
  22.6183605   61.5507057
  22.6128888   61.5480683
  22.6027822   61.5424817
  22.5824813   61.5483052
  22.5764297   61.5459418
  22.5670725   61.5422144
  22.5591956   61.5390476
  22.4341638   61.4889232
END
END
