polygon
1
  21.5234883   62.3795379
  21.527268    62.3818098
  21.531036    62.3840744
  21.534723    62.3862818
  21.5513907   62.3962584
  21.5514905   62.3963852
  21.5512266   62.3969171
  21.5488169   62.402857
  21.5507738   62.4042968
  21.5514935   62.4047809
  21.5518178   62.404999
  21.5524871   62.4046953
  21.5532625   62.4043435
  21.553781    62.4041082
  21.5538503   62.4041579
  21.5541595   62.4043797
  21.5547845   62.404744
  21.5555295   62.405229
  21.556031    62.4056242
  21.5561793   62.4057812
  21.5563945   62.4061167
  21.5567256   62.4067513
  21.5568581   62.4070868
  21.5569202   62.4075047
  21.5534099   62.4092753
  21.5515988   62.4093053
  21.5529313   62.411909
  21.5549431   62.4118679
  21.5561522   62.4118432
  21.5571457   62.4134058
  21.5531546   62.4138743
  21.5515989   62.4199609
  21.5549688   62.4221921
  21.5541073   62.424292
  21.5458435   62.4432188
  21.5455682   62.4438724
  21.540649    62.4434262
  21.532581    62.445342
  21.5337611   62.4465828
  21.5328224   62.4467808
  21.5316797   62.4455703
  21.527474    62.4464339
  21.5301831   62.4491232
  21.5197922   62.4514162
  21.5197117   62.4511875
  21.5191538   62.4510485
  21.5186978   62.4507414
  21.518376    62.4506124
  21.5180112   62.4506421
  21.5179522   62.4518226
  21.5129525   62.4529043
  21.5120942   62.4525669
  21.5115953   62.4532224
  21.5141162   62.4557761
  21.5144321   62.456048
  21.5152947   62.4568547
  21.5179468   62.456755
  21.5251781   62.452488
  21.5453772   62.4471783
  21.5471164   62.4496373
  21.5538026   62.4596621
  21.5519572   62.4598506
  21.5520072   62.4599262
  21.554559    62.4637886
  21.5564902   62.4636001
  21.5666557   62.4784375
  21.5676482   62.4799837
  21.5722776   62.4867651
  21.578436    62.4956652
  21.5795947   62.4974389
  21.5775562   62.4975182
  21.5794928   62.5003515
  21.5815903   62.5003123
  21.5851308   62.5054739
  21.5848143   62.5054833
  21.5930058   62.5173095
  21.6033323   62.5309018
  21.6147853   62.5543112
  21.6135622   62.5553101
  21.6124679   62.5587416
  21.6040565   62.5586131
  21.5955378   62.5584845
  21.59616     62.5646742
  21.5972544   62.5760317
  21.5968467   62.5784133
  21.5964014   62.5806757
  21.5983916   62.5806762
  21.5983273   62.5811801
  21.5965248   62.5898545
  21.5946365   62.5900718
  21.5934413   62.5962751
  21.5925352   62.60133
  21.591788    62.6054278
  21.5934261   62.6056893
  21.5940423   62.6057876
  21.6070129   62.6078579
  21.6082873   62.6080613
  21.6091687   62.608202
  21.6192485   62.609782
  21.6254197   62.6107321
  21.6265559   62.6114023
  21.6270805   62.6115983
  21.6466768   62.6215954
  21.6508159   62.6309262
  21.6514448   62.6323024
  21.652732    62.635119
  21.6537471   62.6373399
  21.6620876   62.6399966
  21.6622443   62.6400465
  21.6635542   62.6404735
  21.6641105   62.6406258
  21.664545    62.640936
  21.6647505   62.6411667
  21.664913    62.6413644
  21.6652676   62.6416908
  21.6664435   62.6427893
  21.670219    62.6434892
  21.6711604   62.6428581
  21.6804095   62.6457846
  21.6813609   62.646214
  21.6930907   62.6513804
  21.6910592   62.652478
  21.6943674   62.6539972
  21.6968474   62.6530468
  21.6997635   62.6542712
  21.69445     62.6566843
  21.6939935   62.6574048
  21.701927    62.6576135
  21.7057684   62.6594047
  21.7085558   62.6581344
  21.7115266   62.6594858
  21.7132346   62.6601686
  21.715412    62.6611433
  21.7172182   62.6619615
  21.7180111   62.6622825
  21.7272454   62.6663414
  21.7237569   62.6681621
  21.7222737   62.6675645
  21.7217125   62.6682291
  21.732759    62.6729035
  21.7374705   62.6743114
  21.7376915   62.6744126
  21.7378165   62.6744574
  21.7372356   62.6746658
  21.7346837   62.6758519
  21.7379394   62.6772444
  21.7348817   62.6789669
  21.7398566   62.6804048
  21.7412353   62.6898397
  21.7431847   62.6943449
  21.7482069   62.6934688
  21.7484697   62.6877052
  21.7421816   62.6801418
  21.7407568   62.678411
  21.7502217   62.6764106
  21.7909988   62.6942263
  21.7677033   62.7083084
  21.7478078   62.7202184
  21.7422792   62.7314083
  21.7395144   62.736907
  21.7391292   62.737686
  21.7333319   62.7494745
  21.7292066   62.7577323
  21.7291428   62.7616966
  21.7292002   62.7630774
  21.7291503   62.7676571
  21.728984    62.77668
  21.728935    62.797355
  21.728933    62.805588
  21.728863    62.806638
  21.728057    62.806527
  21.728063    62.809235
  21.728854    62.809319
  21.728785    62.818692
  21.727996    62.818923
  21.728456    62.819102
  21.728275    62.819672
  21.72743     62.819559
  21.727639    62.820583
  21.72715     62.821006
  21.728767    62.821094
  21.735831    62.826244
  21.754533    62.839838
  21.75551     62.84054
  21.76521     62.847623
  21.771113    62.861456
  21.769536    62.8619
  21.770177    62.863166
  21.768896    62.864495
  21.768125    62.864845
  21.769582    62.865511
  21.770664    62.864966
  21.771763    62.862892
  21.77208     62.863543
  21.790799    62.857301
  21.789599    62.856519
  21.819391    62.848515
  21.830931    62.845368
  21.832956    62.840459
  21.835827    62.833313
  21.83633     62.832135
  21.83948     62.824504
  21.84239     62.817567
  21.854142    62.817953
  21.854953    62.819611
  21.855802    62.81948
  21.857665    62.813781
  21.859312    62.813581
  21.858248    62.811797
  21.87439     62.809769
  21.87328     62.807569
  21.880925    62.806678
  21.879465    62.804223
  21.902205    62.801632
  21.914723    62.799711
  21.912547    62.79616
  21.911626    62.795011
  21.9148285   62.7944041
  21.9515789   62.7874409
  21.955329    62.786747
  21.958357    62.789942
  21.973038    62.787608
  21.96909     62.782437
  21.9925036   62.778663
  22.011392    62.775618
  22.00691     62.773677
  22.006004    62.773114
  22.063206    62.763455
  22.067088    62.768637
  22.121075    62.760182
  22.124232    62.767316
  22.148306    62.762367
  22.167437    62.758432
  22.170154    62.757896
  22.200692    62.751578
  22.240528    62.773108
  22.24531     62.775708
  22.246936    62.776581
  22.248773    62.775906
  22.250067    62.776642
  22.249196    62.777782
  22.253817    62.780295
  22.273852    62.791133
  22.273266    62.791356
  22.2735254   62.7914916
  22.2737271   62.7916334
  22.2741134   62.7916971
  22.2745211   62.7917069
  22.275036    62.7918198
  22.2755939   62.7918737
  22.2758107   62.7919331
  22.2757463   62.7921244
  22.275918    62.7921833
  22.2765617   62.7922863
  22.2766008   62.7922128
  22.276799    62.792231
  22.277056    62.7922535
  22.2770209   62.7923398
  22.2780208   62.7924236
  22.2785894   62.7925021
  22.2790486   62.7926194
  22.2793812   62.7927273
  22.2794799   62.7928504
  22.2794585   62.7929632
  22.2792761   62.7929976
  22.2790186   62.7930515
  22.2790164   62.7931786
  22.2790701   62.7932963
  22.2791259   62.7933655
  22.2793383   62.7933453
  22.2795314   62.7934042
  22.2795336   62.7935028
  22.2796838   62.7935666
  22.2798447   62.7935077
  22.2799735   62.7933851
  22.2800915   62.7932477
  22.2803254   62.793262
  22.2804648   62.7933846
  22.2804434   62.7935906
  22.2803361   62.7937868
  22.280467    62.7939099
  22.2807277   62.79393
  22.2809165   62.7939269
  22.2810442   62.7938633
  22.2809605   62.7938118
  22.2808103   62.7937432
  22.2808532   62.7936303
  22.2809927   62.7935617
  22.2812159   62.7935661
  22.2813231   62.7936397
  22.2816901   62.7936794
  22.2820098   62.7936789
  22.2821514   62.7936303
  22.2823338   62.7935028
  22.2825806   62.7934881
  22.2827415   62.7934636
  22.2829668   62.7933262
  22.2831106   62.7932575
  22.2833026   62.7932379
  22.2834469   62.7932818
  22.2840571   62.7933341
  22.2877669   62.7959072
  22.2880496   62.7959663
  22.2911765   62.796755
  22.2914833   62.7968377
  22.2916228   62.7968818
  22.2916657   62.7969505
  22.2915155   62.797127
  22.2911829   62.7976273
  22.2905178   62.7985101
  22.2903246   62.7986523
  22.2899599   62.7987798
  22.2852284   62.8005993
  22.2848958   62.8006532
  22.2847473   62.8006693
  22.284495    62.8006965
  22.2843058   62.800717
  22.2831256   62.800717
  22.2821493   62.8007464
  22.2819669   62.8007955
  22.2819025   62.8008935
  22.2819454   62.801124
  22.2820942   62.8018883
  22.2822378   62.803072
  22.2822512   62.803533
  22.282366    62.8039978
  22.2831041   62.8050322
  22.2829883   62.8056944
  22.2824497   62.8065522
  22.2819794   62.8071458
  22.2818396   62.8073222
  22.2818128   62.8074006
  22.2817275   62.8074206
  22.2813407   62.807484
  22.281212    62.8075428
  22.2810463   62.8075477
  22.2808002   62.8074723
  22.2804856   62.8074912
  22.2801874   62.8075662
  22.2801344   62.8077291
  22.2802202   62.8078615
  22.280657    62.80791
  22.2808751   62.8079956
  22.2809798   62.8081309
  22.2807867   62.8082535
  22.280143    62.8083515
  22.2794585   62.8083811
  22.2786755   62.8085258
  22.2780318   62.808722
  22.2778708   62.8089034
  22.2780532   62.8090995
  22.2782247   62.8091117
  22.2783105   62.8092147
  22.2782461   62.8094255
  22.2780637   62.8096902
  22.2778921   62.8098863
  22.2779135   62.8100628
  22.2780315   62.8101854
  22.2779436   62.8102832
  22.2776775   62.8103079
  22.2770767   62.8103766
  22.2761754   62.8105775
  22.2758858   62.8107001
  22.2756175   62.8108717
  22.2754223   62.8110136
  22.2753493   62.8112198
  22.2751562   62.8113717
  22.27477     62.811509
  22.2745532   62.8116166
  22.2743837   62.8117247
  22.2743408   62.8118374
  22.274609    62.8119551
  22.2753686   62.8121901
  22.275948    62.8123323
  22.2764415   62.8124303
  22.2766046   62.8124943
  22.2765569   62.8125713
  22.276463    62.8126215
  22.2761433   62.8127198
  22.2757892   62.8127835
  22.2753257   62.8127098
  22.2750275   62.81271
  22.27477     62.8127149
  22.2745125   62.8128326
  22.2744138   62.8129892
  22.274446    62.8132931
  22.2743301   62.8134355
  22.2741477   62.8136757
  22.2738902   62.8137786
  22.2735362   62.8138521
  22.2734289   62.8139306
  22.2735898   62.8140433
  22.2738344   62.8142048
  22.2739476   62.8143154
  22.27377     62.8143862
  22.2734589   62.8144352
  22.2732658   62.8145627
  22.2730834   62.8146607
  22.2723216   62.8149793
  22.2720963   62.8150871
  22.2720642   62.8152097
  22.2719461   62.8153126
  22.2716457   62.8153518
  22.2714633   62.8154548
  22.2712595   62.8155332
  22.2709612   62.8155285
  22.2704355   62.8155775
  22.2702746   62.8156511
  22.2702724   62.8157586
  22.2704012   62.8158616
  22.270884    62.8160086
  22.271002    62.8160723
  22.2708754   62.8161755
  22.2707574   62.8163226
  22.2705964   62.8163471
  22.2699956   62.8163667
  22.2698025   62.81645
  22.2697381   62.8165627
  22.2698669   62.8167294
  22.2697167   62.816847
  22.2695021   62.8169842
  22.2695536   62.8170869
  22.2697167   62.8171509
  22.2695021   62.8172636
  22.2693734   62.8174303
  22.2692532   62.8176408
  22.2686331   62.8178665
  22.2686417   62.8180133
  22.2688026   62.8182387
  22.268867    62.8184985
  22.2687833   62.8187095
  22.2688047   62.8188222
  22.268985    62.8188611
  22.269457    62.8188415
  22.2697918   62.818832
  22.2700493   62.8189496
  22.2702832   62.8191013
  22.2703819   62.8192633
  22.2704033   62.8193564
  22.2702424   62.819425
  22.269869    62.8194637
  22.2696679   62.8195463
  22.2696394   62.8196894
  22.2697575   62.8197825
  22.2698454   62.8198661
  22.2698669   62.8200376
  22.269824    62.8202091
  22.2698347   62.8203856
  22.2698036   62.8204801
  22.2696899   62.8205211
  22.2694055   62.8205571
  22.2686116   62.8206306
  22.2683649   62.8207139
  22.2679786   62.8207335
  22.26741     62.8207384
  22.2670881   62.8207384
  22.2668092   62.8208413
  22.2666375   62.8210618
  22.2664444   62.8212187
  22.2659938   62.821302
  22.2657041   62.8214441
  22.2654788   62.8215127
  22.2652857   62.8215568
  22.2651762   62.8216742
  22.2652513   62.8217967
  22.2651462   62.8218459
  22.2649424   62.8219243
  22.264878    62.8220125
  22.2650175   62.8220665
  22.265659    62.8221201
  22.2658414   62.8221544
  22.2659401   62.8222625
  22.2658972   62.8223948
  22.2659079   62.8225712
  22.2659509   62.8227378
  22.2658436   62.8229387
  22.2657363   62.82312
  22.2657148   62.8232768
  22.2657985   62.8233942
  22.2659916   62.8234579
  22.2661011   62.8236591
  22.2661333   62.8237522
  22.265938    62.8240018
  22.2658114   62.8241687
  22.2658543   62.8242765
  22.2660667   62.8244134
  22.2660882   62.8244918
  22.2659487   62.82458
  22.2659294   62.8246587
  22.2659702   62.8248397
  22.2661225   62.825085
  22.2662942   62.825281
  22.2665517   62.8254084
  22.266777    62.8254672
  22.267086    62.8254767
  22.2673864   62.8254424
  22.2675151   62.8254669
  22.2675387   62.8255407
  22.2674636   62.8256289
  22.2672383   62.8257073
  22.2670624   62.8257849
  22.2669465   62.8258883
  22.2667663   62.8261433
  22.2665731   62.8262217
  22.2662727   62.8262364
  22.2659401   62.8263001
  22.2657363   62.8263932
  22.2656183   62.8264961
  22.2656075   62.8265892
  22.2658307   62.826687
  22.2661869   62.8269518
  22.2666997   62.8273925
  22.2669808   62.8274957
  22.2673671   62.8275838
  22.2676675   62.8276573
  22.267764    62.8277455
  22.2677426   62.8278435
  22.2677319   62.8279415
  22.2678177   62.8279905
  22.2678284   62.8280885
  22.2676117   62.8283038
  22.2675065   62.8284853
  22.2675688   62.8286223
  22.2674239   62.8287879
  22.2671444   62.828999
  22.2669808   62.8292888
  22.2667019   62.8295093
  22.2666139   62.8296217
  22.2666676   62.8297589
  22.2666697   62.8298522
  22.2664658   62.8299404
  22.2660903   62.8300433
  22.2659401   62.8301119
  22.2658414   62.8302488
  22.2658092   62.8304546
  22.265865    62.8307243
  22.2658007   62.8308125
  22.265629    62.8308419
  22.2653608   62.8308664
  22.2650496   62.8309447
  22.2648436   62.8310768
  22.2647278   62.8312191
  22.2645883   62.8314444
  22.2646956   62.8315669
  22.2647921   62.8316502
  22.2646312   62.831758
  22.2644596   62.8318608
  22.2645003   62.8320173
  22.264672    62.8320467
  22.2647793   62.8321839
  22.2649209   62.8323213
  22.2648973   62.8325415
  22.2647814   62.8327034
  22.2648887   62.83287
  22.2651247   62.8330071
  22.2654445   62.8330902
  22.2656075   62.8331688
  22.2656505   62.833257
  22.2656483   62.8333988
  22.2657577   62.8334627
  22.2660152   62.8334774
  22.2663457   62.8335408
  22.2667105   62.8336192
  22.2668735   62.833688
  22.2670559   62.8337811
  22.2671096   62.8338546
  22.2670323   62.8339327
  22.2668628   62.8340113
  22.2666482   62.8341142
  22.2665603   62.8342315
  22.2666783   62.8342658
  22.2668199   62.8343346
  22.2667663   62.8344277
  22.2665302   62.8344865
  22.2662835   62.8345453
  22.2660796   62.8345747
  22.2658865   62.8347216
  22.2656483   62.8349761
  22.2654874   62.8351671
  22.2655303   62.8353092
  22.265702    62.8355002
  22.2656269   62.835701
  22.2655732   62.8358724
  22.265659    62.8359557
  22.2658736   62.8360047
  22.2659487   62.8360635
  22.2658736   62.8361565
  22.2658092   62.8362643
  22.2656054   62.8363231
  22.2650797   62.8364406
  22.2647578   62.8365533
  22.2644789   62.8365827
  22.2641677   62.8366121
  22.2639317   62.8367296
  22.2632451   62.8370823
  22.2630412   62.8371557
  22.262773    62.8371753
  22.2625262   62.8372292
  22.2622365   62.8372488
  22.2619576   62.8372292
  22.2617645   62.837239
  22.2616679   62.8373223
  22.2615714   62.8375182
  22.2614533   62.8375965
  22.2612495   62.8376455
  22.2609384   62.8377092
  22.2606916   62.8377778
  22.2604234   62.8379296
  22.2601766   62.8379982
  22.2599191   62.838052
  22.2593934   62.8381745
  22.259344    62.8382396
  22.2592346   62.8384679
  22.2589149   62.8386476
  22.2585383   62.8388494
  22.2579219   62.8389603
  22.2570974   62.838916
  22.2566039   62.8389238
  22.256282    62.8389581
  22.2560567   62.839061
  22.2559816   62.8392814
  22.2558958   62.8395213
  22.2557671   62.8396683
  22.2552306   62.8399033
  22.2544689   62.8401874
  22.2535784   62.8405253
  22.2526986   62.8407849
  22.2523446   62.8408926
  22.2521085   62.8408926
  22.2515184   62.8408437
  22.2513575   62.8408632
  22.2512824   62.8409612
  22.2511322   62.8411032
  22.2508768   62.8411524
  22.2505657   62.8411671
  22.2499381   62.8411904
  22.2495143   62.8412504
  22.2524433   62.8423816
  22.2580759   62.8447468
  22.2574408   62.8471018
  22.2567756   62.8499268
  22.2555847   62.8540635
  22.2551577   62.855914
  22.2547371   62.8574703
  22.2542006   62.8596776
  22.2538144   62.8611654
  22.2534947   62.8625604
  22.2489789   62.8800133
  22.2394232   62.8788728
  22.2390837   62.8784047
  22.2371654   62.8757607
  22.2295264   62.8769591
  22.2239195   62.8786691
  22.2220313   62.8792609
  22.2224347   62.88006
  22.2258894   62.8796883
  22.2271655   62.8796184
  22.228858    62.8795257
  22.2325101   62.8793311
  22.2359208   62.8801285
  22.2435812   62.879747
  22.2438923   62.8807103
  22.2310864   62.8816671
  22.2306637   62.8821041
  22.2252118   62.8883035
  22.2240054   62.8895691
  22.2228359   62.8909136
  22.2216665   62.8922287
  22.21795     62.896454
  22.2173599   62.898331
  22.215654    62.9040442
  22.2105364   62.9131273
  22.2097961   62.9144463
  22.2095171   62.9149935
  22.2066096   62.9183102
  22.2006916   62.9251214
  22.1968679   62.927594
  22.1944903   62.9291303
  22.1920442   62.9293598
  22.1899038   62.9320712
  22.1868986   62.9333239
  22.1871261   62.9339215
  22.1736013   62.9426276
  22.1709084   62.9443747
  22.1666168   62.9462584
  22.1627974   62.9479809
  22.1568493   62.950593
  22.157508    62.951006
  22.1577505   62.9514224
  22.1609735   62.9517964
  22.161864    62.9525819
  22.1651427   62.9515298
  22.1658293   62.9513102
  22.1670202   62.9503295
  22.1669129   62.9502271
  22.1675245   62.9502271
  22.1681897   62.950432
  22.1685695   62.9506742
  22.1691553   62.95132
  22.1695351   62.9516159
  22.1695737   62.9517298
  22.1694492   62.9517671
  22.1694922   62.9519818
  22.169696    62.9529234
  22.1659688   62.9536715
  22.1619026   62.9537398
  22.1614563   62.9539771
  22.1613018   62.9541545
  22.160776    62.9545301
  22.1593598   62.9543691
  22.1568321   62.9555187
  22.1564244   62.9557577
  22.1555296   62.9554228
  22.1521007   62.9546845
  22.1513819   62.9546016
  22.1510278   62.9552894
  22.1501862   62.9567468
  22.1515965   62.9579401
  22.1522295   62.958543
  22.152465    62.9588996
  22.1526329   62.9591837
  22.1468221   62.958343
  22.1467328   62.9586972
  22.1460067   62.9615768
  22.14576     62.9618889
  22.1450304   62.962084
  22.1445154   62.9620596
  22.1441721   62.9630204
  22.1440096   62.963098
  22.1432172   62.9634837
  22.1417152   62.9636788
  22.141683    62.9641519
  22.1406852   62.9646785
  22.1408354   62.9647419
  22.1379065   62.9658343
  22.138797    62.9667657
  22.1393613   62.966665
  22.140181    62.9666584
  22.1408311   62.967021
  22.143861    62.9662537
  22.1437      62.9656295
  22.1454059   62.9656441
  22.1457922   62.9643616
  22.1476869   62.9645242
  22.1498434   62.9660018
  22.1506952   62.9665999
  22.152708    62.9679767
  22.1522788   62.9685033
  22.1636771   62.976234
  22.1647779   62.9762698
  22.1645032   62.9771846
  22.1637479   62.979058
  22.1600722   62.9797826
  22.1588663   62.9806226
  22.1586517   62.9808956
  22.1582483   62.9814203
  22.1582226   62.9815779
  22.1586303   62.981846
  22.1592633   62.9820702
  22.162085    62.9832399
  22.1596602   62.9896723
  22.16054     62.9897308
  22.159263    62.9929753
  22.1584211   62.9951141
  22.1545874   62.9961962
  22.154056    62.9963462
  22.1491916   62.9977496
  22.1524778   63.0009524
  22.1528426   63.0009183
  22.1531108   63.0007973
  22.153474    63.0006612
  22.1537074   63.0006234
  22.154696    63.0006624
  22.1548099   63.0003804
  22.1549937   63.0001225
  22.1552657   62.9999607
  22.1555237   62.99997
  22.1554572   63.0001551
  22.1552437   63.0006638
  22.1554288   63.0006694
  22.1556176   63.000979
  22.1557727   63.0010844
  22.1553249   63.0014373
  22.1551211   63.0016224
  22.1551595   63.0020108
  22.1553998   63.0023028
  22.155518    63.0025868
  22.1557219   63.0028644
  22.1564927   63.0034269
  22.1533431   63.0037748
  22.1534617   63.0042302
  22.152941    63.0048528
  22.1526105   63.0052992
  22.1535893   63.0054528
  22.1535436   63.0055047
  22.153486    63.0055697
  22.1543424   63.005707
  22.1543823   63.0057145
  22.1539141   63.006281
  22.1535325   63.0067712
  22.1534475   63.0068738
  22.151484    63.0091542
  22.1550578   63.0100068
  22.1560448   63.0101918
  22.1572786   63.010372
  22.1587592   63.0105278
  22.1602612   63.0106008
  22.1604007   63.0111157
  22.1608771   63.0128108
  22.1651552   63.0186733
  22.1661514   63.0187991
  22.1686941   63.0190035
  22.1722288   63.0192729
  22.1728462   63.0193199
  22.1729953   63.0193601
  22.1832099   63.0250733
  22.1949129   63.0315722
  22.1979937   63.0340547
  22.198219    63.0342883
  22.1974465   63.0347959
  22.1972319   63.0353926
  22.197307    63.0357203
  22.1979937   63.0357251
  22.1997103   63.0357397
  22.2010192   63.0373013
  22.2018131   63.0372526
  22.2037551   63.0388708
  22.2073385   63.0413191
  22.2080895   63.0417065
  22.2126278   63.0446604
  22.2423226   63.0637265
  22.2444027   63.0633834
  22.2564162   63.0617116
  22.2635316   63.0606362
  22.2655031   63.0604606
  22.2658231   63.0618016
  22.267105    63.0616905
  22.266862    63.0603404
  22.287006    63.05852
  22.2976546   63.0574668
  22.3111995   63.0561135
  22.3235775   63.059564
  22.3364732   63.0605251
  22.3809824   63.0722496
  22.397046    63.076559
  22.4127626   63.0808369
  22.4227648   63.0834495
  22.4246167   63.0839989
  22.4285669   63.0850709
  22.4855477   63.1000665
  22.4898441   63.1001303
  22.4958783   63.1002944
  22.4966681   63.1002693
  22.4995804   63.1015597
  22.5073157   63.1009651
  22.5078293   63.1003352
  22.5128887   63.1006675
  22.5131859   63.1004319
  22.5217682   63.1005495
  22.5219428   63.1005534
  22.5253306   63.1006395
  22.5340901   63.1006963
  22.537593    63.100739
  22.5455114   63.100863
  22.5525995   63.1009236
  22.5552036   63.1015227
  22.558535    63.1012404
  22.5605848   63.1018239
  22.565942    63.1011257
  22.5707239   63.1011635
  22.5744539   63.102367
  22.5783221   63.1028064
  22.5795334   63.1029834
  22.5805084   63.1013025
  22.5833917   63.1012955
  22.6056531   63.1015866
  22.6059264   63.1022661
  22.6068246   63.1021974
  22.6094773   63.1017207
  22.6132713   63.101758
  22.6167179   63.1017368
  22.6316466   63.1019073
  22.6326081   63.1019206
  22.6486193   63.1053861
  22.6450469   63.1185001
  22.6444208   63.1209392
  22.6436227   63.124048
  22.6302993   63.1234004
  22.6291791   63.1285037
  22.6341592   63.1286819
  22.6373859   63.1288819
  22.6493866   63.129983
  22.6520973   63.1303147
  22.6522797   63.1302769
  22.6548366   63.1305075
  22.654282    63.1316877
  22.6520031   63.1314462
  22.6515848   63.1324293
  22.6582021   63.1331399
  22.6572089   63.1356241
  22.6471813   63.1344691
  22.6470804   63.1345911
  22.6464093   63.1386521
  22.6536049   63.1395935
  22.651804    63.1421042
  22.6503411   63.1425891
  22.6476785   63.1464043
  22.6386524   63.1450555
  22.6372778   63.147086
  22.643336    63.1480238
  22.6414288   63.1505395
  22.645644    63.1512493
  22.6454467   63.151632
  22.6442934   63.1519667
  22.6435084   63.1518341
  22.64293     63.1520577
  22.6505391   63.1533222
  22.6478538   63.1547795
  22.6398074   63.1534208
  22.6370605   63.1546376
  22.6358854   63.1552887
  22.6399282   63.1560165
  22.6393967   63.1566028
  22.6363115   63.1588702
  22.6224456   63.1561784
  22.6202788   63.159324
  22.6291356   63.1616375
  22.6255809   63.163229
  22.6344893   63.1651625
  22.6288155   63.1680201
  22.6280957   63.1697211
  22.6290407   63.1698155
  22.6313703   63.1698374
  22.6324493   63.1699075
  22.6333649   63.1699157
  22.6342934   63.1698252
  22.6348801   63.1696456
  22.6358583   63.1691481
  22.6369939   63.1683424
  22.6438184   63.1700115
  22.6437614   63.1701139
  22.6445189   63.1716171
  22.6452756   63.1727938
  22.6452261   63.1731434
  22.6369133   63.1711968
  22.632889    63.1748585
  22.625225    63.1730367
  22.6287466   63.1698406
  22.6286051   63.1698232
  22.6240862   63.1739453
  22.6218206   63.1734029
  22.6172718   63.177314
  22.6215664   63.1785035
  22.6204189   63.179545
  22.6198508   63.1817502
  22.6188339   63.1822281
  22.6182476   63.1826991
  22.6182568   63.1828602
  22.617728    63.1832111
  22.6172091   63.1841265
  22.6171927   63.1843651
  22.6173075   63.1845282
  22.6172536   63.184712
  22.6175182   63.1849137
  22.6175133   63.1851284
  22.6178599   63.1854111
  22.6178114   63.1858754
  22.617696    63.1859917
  22.6170371   63.1862287
  22.6152602   63.1864581
  22.6149179   63.186442
  22.6144879   63.1863362
  22.6138761   63.1860059
  22.6132393   63.1855267
  22.61293     63.1855468
  22.6122114   63.1859089
  22.6101124   63.1853035
  22.6099803   63.1854225
  22.607891    63.1855401
  22.6077048   63.1855981
  22.6074481   63.1858622
  22.6073773   63.1860673
  22.607008    63.1862828
  22.6058198   63.1865169
  22.6049541   63.1867936
  22.6044232   63.1870215
  22.603298    63.1880633
  22.5721867   63.1793399
  22.5892061   63.1970311
  22.5933297   63.2013159
  22.5973464   63.2020142
  22.6285384   63.2099107
  22.6196477   63.2182951
  22.6093083   63.2279009
  22.6097472   63.2279154
  22.6094875   63.2279763
  22.6092447   63.228028
  22.6092329   63.2280534
  22.6080862   63.2280188
  22.5995175   63.2277603
  22.5993427   63.2277236
  22.5966503   63.2284786
  22.5959895   63.2287509
  22.5958807   63.2294841
  22.600981    63.2305805
  22.6059473   63.2310654
  22.6014598   63.235244
  22.6100039   63.2376903
  22.6106117   63.2378222
  22.6052446   63.2386715
  22.587939    63.2413391
  22.5904207   63.2446003
  22.5619862   63.2492387
  22.5602617   63.2517642
  22.5528421   63.2529557
  22.5550483   63.2556075
  22.5569342   63.2552865
  22.5594017   63.2657031
  22.5906957   63.2814156
  22.5958604   63.2840079
  22.6078126   63.2786536
  22.6087767   63.2790758
  22.6076846   63.2795721
  22.6158332   63.281848
  22.6165598   63.282048
  22.6726427   63.2977072
  22.6680625   63.3012437
  22.6501045   63.3133628
  22.6489495   63.313997
  22.6452645   63.3167947
  22.6822158   63.3247321
  22.7165966   63.3376657
  22.7234953   63.3325845
  22.7486391   63.3394528
  22.7492547   63.3396209
  22.7553347   63.3413208
  22.752353    63.3446406
  22.7466101   63.3441057
  22.7394982   63.3433674
  22.7389883   63.3442476
  22.7392443   63.3453319
  22.7457438   63.3453147
  22.7462706   63.3453876
  22.7463474   63.3459176
  22.7454933   63.3457621
  22.7380321   63.3543924
  22.7237138   63.3501137
  22.7045587   63.3443886
  22.6366502   63.3238406
  22.6340337   63.3259439
  22.6571383   63.3325074
  22.7100279   63.3477607
  22.709777    63.3475206
  22.7137926   63.3472402
  22.7131553   63.3486464
  22.7127939   63.3489359
  22.7105608   63.3488862
  22.7104489   63.3500022
  22.7148105   63.3503458
  22.7147077   63.3507244
  22.7161115   63.3527367
  22.7175286   63.3547961
  22.7196975   63.354371
  22.7218756   63.3544568
  22.7217928   63.3556
  22.7265172   63.3562639
  22.7284208   63.3566518
  22.7295638   63.3570272
  22.7311116   63.3579281
  22.7319726   63.3581988
  22.7329023   63.3582918
  22.7352843   63.3583259
  22.7353252   63.3587479
  22.7356084   63.3589593
  22.7365944   63.3592886
  22.737975    63.3594475
  22.7406947   63.3593847
  22.7413253   63.3592505
  22.7410392   63.3589732
  22.7423174   63.3586949
  22.7433848   63.3582341
  22.744431    63.3575659
  22.7449626   63.3576319
  22.7454177   63.3578518
  22.7449395   63.3580477
  22.7458076   63.3584421
  22.7460143   63.3586344
  22.7461519   63.3587624
  22.75063     63.3576023
  22.7453718   63.3542633
  22.7459558   63.3539451
  22.7468811   63.3537069
  22.7569878   63.3558984
  22.7587778   63.3554238
  22.7606853   63.3554101
  22.7560043   63.3590526
  22.7626291   63.3585306
  22.7637627   63.3576354
  22.7655798   63.3575639
  22.7666345   63.3576698
  22.7730105   63.3559438
  22.774649    63.355314
  22.7794514   63.3490302
  22.78901     63.3497872
  22.7928308   63.350118
  22.7932778   63.3502047
  22.7934135   63.3501135
  22.7938331   63.3502552
  22.7866209   63.3533954
  22.7918577   63.3531976
  22.7915028   63.3536549
  22.7907698   63.3549335
  22.795092    63.3547296
  22.7958074   63.3542018
  22.7961179   63.3523686
  22.7941458   63.3524477
  22.7948395   63.3516267
  22.8081232   63.3512753
  22.8082454   63.3513848
  22.8090919   63.3512537
  22.8110445   63.3508465
  22.8117045   63.3497654
  22.8178281   63.3496458
  22.8178415   63.3490287
  22.8302637   63.3488484
  22.830124    63.3482708
  22.8295411   63.34697
  22.8296876   63.346415
  22.8294491   63.3464146
  22.8295222   63.3459367
  22.8540236   63.3460669
  22.8743212   63.3462537
  22.8730537   63.3467955
  22.8739687   63.3477592
  22.8739645   63.3481216
  22.8742545   63.348114
  22.8742764   63.3485242
  22.8732699   63.3490268
  22.8730605   63.3492235
  22.8731728   63.3495186
  22.8685404   63.3496695
  22.8685822   63.3499282
  22.8672466   63.3501114
  22.8645157   63.3502162
  22.8626512   63.3505369
  22.8614682   63.3508487
  22.8600772   63.3522274
  22.8597449   63.3527691
  22.8592895   63.3527962
  22.8589699   63.353498
  22.8594609   63.3536625
  22.8594375   63.3538295
  22.8613724   63.3536962
  22.861478    63.3537409
  22.8622464   63.3537444
  22.862882    63.353593
  22.8675291   63.3532784
  22.8680022   63.3525866
  22.8677101   63.3524434
  22.8681449   63.3522611
  22.8734987   63.3519599
  22.8741661   63.3528247
  22.874855    63.3527826
  22.8740852   63.3537027
  22.8740641   63.3539776
  22.8732818   63.3540298
  22.873375    63.3543406
  22.8740747   63.3542788
  22.8737562   63.3550498
  22.8737676   63.3552988
  22.8734869   63.3553244
  22.8727395   63.3559384
  22.8720924   63.3561854
  22.8716891   63.3565367
  22.871789    63.356637
  22.8697343   63.357824
  22.8697985   63.3582767
  22.8701154   63.3582451
  22.8701708   63.3595313
  22.8686749   63.3597123
  22.8685788   63.3607846
  22.8678191   63.3608441
  22.8672734   63.3610515
  22.8655366   63.3608529
  22.8647256   63.360946
  22.8648241   63.3613353
  22.865795    63.3621039
  22.8670198   63.3622132
  22.8672796   63.3624144
  22.8681099   63.3635085
  22.8744894   63.362484
  22.8758337   63.3613454
  22.8767764   63.3611979
  22.8791369   63.3617409
  22.8830117   63.3611271
  22.8824638   63.3601601
  22.8971985   63.3579411
  22.897807    63.3584339
  22.8983331   63.3587331
  22.8984343   63.3586478
  22.8987582   63.3585911
  22.8985346   63.3583083
  22.898324    63.3577602
  22.8977092   63.3570254
  22.8976115   63.3566029
  22.8977704   63.3561564
  22.8818439   63.3581141
  22.8819705   63.3575301
  22.8815821   63.356696
  22.8811938   63.3564016
  22.8809357   63.3560394
  22.8806272   63.3558053
  22.8789838   63.3549531
  22.8788222   63.3547922
  22.8785516   63.3541494
  22.8787865   63.354119
  22.8787497   63.3540397
  22.8791426   63.354006
  22.8792382   63.3535501
  22.8846098   63.3530983
  22.8847904   63.3530831
  22.8874983   63.3529044
  22.9062422   63.3513201
  22.90624     63.3511129
  22.9806989   63.3303974
  22.9775413   63.3445789
  22.9762095   63.3510813
  22.9715997   63.3722656
  22.9795454   63.3717539
  22.9983241   63.370537
  22.9951583   63.3780477
  23.0235543   63.3804339
  23.0283871   63.3689555
  23.0304119   63.364145
  23.0308534   63.3628396
  23.0314128   63.3617644
  23.0293609   63.3596198
  23.0329632   63.3592479
  23.0325181   63.3600193
  23.0333579   63.3602484
  23.0343193   63.3611992
  23.0352006   63.3616
  23.0380879   63.3592429
  23.0388524   63.3590306
  23.0389422   63.3592065
  23.0382915   63.3598073
  23.0382418   63.3600655
  23.0383647   63.360489
  23.0385931   63.3607655
  23.0387355   63.3611439
  23.0389849   63.3611289
  23.0395619   63.3611902
  23.0390719   63.3615544
  23.0405625   63.3620778
  23.058155    63.3642068
  23.0606315   63.3644812
  23.0615524   63.3645833
  23.0603188   63.3669506
  23.0771994   63.3692025
  23.080663    63.3678841
  23.08194     63.3684651
  23.0844824   63.366185
  23.0837913   63.3659358
  23.080865    63.3655059
  23.0814007   63.3651059
  23.0818884   63.3642121
  23.0828611   63.3634557
  23.0830327   63.3629665
  23.084375    63.3619551
  23.0869337   63.3604848
  23.0872003   63.3587485
  23.0876631   63.3585479
  23.0901875   63.35805
  23.0913353   63.3577463
  23.0913992   63.3581768
  23.0910961   63.3586304
  23.090206    63.3590843
  23.0889795   63.3611809
  23.094527    63.3623416
  23.1110839   63.3532139
  23.1061491   63.3513999
  23.1129656   63.3473025
  23.1279901   63.3556425
  23.1243614   63.3574909
  23.126504    63.3583481
  23.1297612   63.356642
  23.1485713   63.3671365
  23.1444383   63.3681454
  23.1454415   63.3685016
  23.1493871   63.3675973
  23.1759641   63.382389
  23.1747713   63.3830868
  23.1757442   63.3834321
  23.1767915   63.3828466
  23.1870817   63.3885198
  23.18829     63.3890426
  23.1890516   63.3895497
  23.189839    63.3899689
  23.1935929   63.3919067
  23.196655    63.3934873
  23.2070396   63.3989614
  23.2113524   63.4042101
  23.2198063   63.4146524
  23.2184841   63.4149173
  23.219714    63.4165352
  23.2211544   63.4163042
  23.222607    63.418112
  23.219432    63.4200427
  23.2250436   63.4211221
  23.2310379   63.4284908
  23.2280411   63.4341827
  23.2217085   63.4383287
  23.2270401   63.4415403
  23.2327904   63.438271
  23.2322378   63.4372996
  23.2307734   63.4350883
  23.2335695   63.4316032
  23.2380579   63.4372064
  23.2371706   63.4373496
  23.2368723   63.4376661
  23.2367655   63.4377794
  23.2373649   63.4379243
  23.2384818   63.4377419
  23.2423042   63.4424581
  23.2373387   63.4472245
  23.2437908   63.4515173
  23.2445918   63.4515666
  23.248995    63.4507221
  23.2647466   63.469966
  23.2646372   63.4700556
  23.2781629   63.4730194
  23.2838897   63.4742346
  23.2915477   63.4760147
  23.2971877   63.4772697
  23.2984346   63.4774768
  23.2986355   63.4783758
  23.2987385   63.4785037
  23.3002487   63.4788646
  23.3003301   63.4788893
  23.3004688   63.4789313
  23.3010171   63.4794813
  23.301748    63.4798648
  23.3030166   63.479975
  23.3026242   63.4795728
  23.3024085   63.4791719
  23.3027658   63.4790132
  23.3036196   63.4793305
  23.3042603   63.4795082
  23.3052346   63.4796919
  23.30659     63.4794176
  23.3075061   63.4794147
  23.3078091   63.4795242
  23.3078793   63.479659
  23.3082724   63.4796042
  23.3220139   63.482591
  23.3295229   63.4792227
  23.3336275   63.4797825
  23.3338634   63.4807853
  23.331694    63.4809671
  23.3314353   63.4800413
  23.3302149   63.4797128
  23.3242176   63.4830707
  23.3436972   63.4873333
  23.348814    63.4884529
  23.3552726   63.4898618
  23.3807184   63.4954075
  23.3809478   63.4964025
  23.3852871   63.49662
  23.3861299   63.4965735
  23.3928886   63.4980467
  23.3940765   63.4973205
  23.4196574   63.4816528
  23.4277103   63.4850197
  23.4291694   63.4848699
  23.433884    63.4828146
  23.4342792   63.4824124
  23.4350313   63.4821292
  23.4357934   63.4816433
  23.4370908   63.4810769
  23.4376879   63.4803032
  23.438981    63.4797449
  23.4484239   63.4795224
  23.4538828   63.4777697
  23.4537857   63.4773925
  23.4546434   63.4769786
  23.4568946   63.4764866
  23.4562071   63.4759701
  23.4594646   63.4748535
  23.4650053   63.4751327
  23.4660495   63.4750713
  23.4663187   63.4754787
  23.4666349   63.4755256
  23.4716042   63.4785665
  23.4916077   63.4735048
  23.5113347   63.4685945
  23.5123112   63.4680228
  23.5135559   63.4686613
  23.5155075   63.4672388
  23.5162742   63.4674396
  23.5174382   63.4662548
  23.5158759   63.4659019
  23.5207159   63.4630524
  23.5309049   63.4696594
  23.5357064   63.4675776
  23.5439622   63.4675342
  23.5456928   63.463513
  23.5457862   63.4634429
  23.5600188   63.4527566
  23.5647286   63.4492178
  23.5643874   63.4484369
  23.564249    63.4477335
  23.5638743   63.4472801
  23.5618689   63.4467076
  23.563166    63.445163
  23.5635097   63.443686
  23.5550064   63.4428073
  23.5757446   63.4306401
  23.5761255   63.4310186
  23.576815    63.4311769
  23.5771718   63.431293
  23.5773427   63.4314127
  23.577744    63.4315284
  23.5781354   63.4316031
  23.5783147   63.4315789
  23.579454    63.4322301
  23.5834614   63.4302798
  23.5986827   63.422871
  23.5980564   63.4222988
  23.5947849   63.4193094
  23.5979033   63.4173955
  23.6036968   63.4139872
  23.6077995   63.4114605
  23.6151368   63.4071855
  23.620852    63.4036724
  23.6217963   63.4031282
  23.6223045   63.4029126
  23.6233174   63.402247
  23.6253914   63.4010321
  23.6706414   63.3879132
  23.6799619   63.3852724
  23.680854    63.385895
  23.6865046   63.3844347
  23.6866397   63.3833284
  23.6969889   63.3803207
  23.6983709   63.3789388
  23.7041408   63.3730822
  23.7118055   63.3653607
  23.7185389   63.3585282
  23.7195249   63.3575395
  23.7296315   63.3472324
  23.732657    63.3446719
  23.7476355   63.3323451
  23.7569396   63.3246103
  23.7707455   63.3130872
  23.77988     63.3093276
  23.7999923   63.3009903
  23.7991769   63.3004408
  23.79937     63.3001805
  23.8001639   63.3000648
  23.8008935   63.2998044
  23.800636    63.2993995
  23.8014299   63.2967383
  23.8007862   63.2966708
  23.8004643   63.2969794
  23.7982757   63.2969119
  23.7982746   63.2965575
  23.8006789   63.2961983
  23.8034244   63.2970011
  23.8037474   63.2982039
  23.8043482   63.299197
  23.8106353   63.2965455
  23.8154407   63.2945325
  23.8156349   63.2937876
  23.8163849   63.2937032
  23.8172217   63.2925845
  23.8184888   63.2922446
  23.8186175   63.2924182
  23.8166434   63.294048
  23.8325006   63.2874801
  23.8328429   63.2873668
  23.8267918   63.2877719
  23.8257844   63.2882131
  23.8238103   63.2890041
  23.8225647   63.2894019
  23.8201839   63.2910294
  23.8197966   63.2908197
  23.8216216   63.2891005
  23.8233597   63.2888787
  23.824218    63.2882421
  23.8258273   63.2875573
  23.8254625   63.2869399
  23.8271148   63.2853676
  23.8271148   63.2847985
  23.8285943   63.2827944
  23.8295395   63.2824929
  23.829282    63.2824061
  23.831814    63.280274
  23.8322217   63.2799845
  23.8349897   63.2786145
  23.8356978   63.2791548
  23.8354618   63.2792706
  23.832801    63.2803029
  23.8309771   63.2824929
  23.8287241   63.2839882
  23.8282306   63.2843934
  23.8270075   63.286911
  23.8278443   63.2871618
  23.8313848   63.2871811
  23.8371044   63.2853599
  23.8383961   63.2849967
  23.846181    63.2817467
  23.8531075   63.2788128
  23.8515036   63.2782599
  23.8541235   63.2769202
  23.8567296   63.2777249
  23.8620056   63.2775805
  23.8805761   63.2772408
  23.8998644   63.2769369
  23.9104077   63.2767796
  23.9261597   63.2765471
  23.9559666   63.276014
  23.991743    63.2714972
  24.0072901   63.2695998
  24.0165888   63.2683808
  24.0520197   63.2581494
  24.0806378   63.2498137
  24.0970057   63.2450132
  24.1018101   63.2428242
  24.1067035   63.2406486
  24.1064761   63.2405047
  24.1064289   63.2402071
  24.1064932   63.2400815
  24.1067078   63.2399656
  24.1066896   63.2398042
  24.1092023   63.2393033
  24.1263716   63.2318024
  24.1537935   63.2195351
  24.1723007   63.2112844
  24.1862267   63.2021729
  24.1967946   63.1953505
  24.203292    63.1911042
  24.2192533   63.1806184
  24.22786     63.1750443
  24.2344432   63.1706929
  24.2144886   63.1630808
  24.1950737   63.1557249
  24.1851656   63.1620651
  24.1781597   63.1609205
  24.1795834   63.1579676
  24.1808044   63.1556072
  24.1749421   63.1539836
  24.177884    63.1518614
  24.1694554   63.1493286
  24.1707847   63.1479882
  24.1805125   63.1500613
  24.1837838   63.1507455
  24.1974497   63.1536408
  24.2031933   63.1548591
  24.2047878   63.1540284
  24.2358894   63.1374174
  24.2643144   63.1222266
  24.2568868   63.1329896
  24.2596914   63.1335054
  24.2765292   63.1363543
  24.3043652   63.1411171
  24.305074    63.1408562
  24.3134074   63.1377888
  24.3203366   63.1345402
  24.3219002   63.1338071
  24.3262525   63.1317664
  24.3317839   63.1291726
  24.336934    63.1267574
  24.3373026   63.1265845
  24.3548446   63.1183565
  24.352892    63.1173771
  24.3537031   63.1166446
  24.3542824   63.1162598
  24.3573509   63.1144308
  24.3409142   63.094529
  24.3330747   63.0849845
  24.331549    63.085321
  24.3307572   63.0842725
  24.3320908   63.0837105
  24.3296747   63.0808483
  24.3285728   63.0794979
  24.3207204   63.0700004
  24.3179663   63.0666314
  24.3087417   63.0661153
  24.2779622   63.0644121
  24.282489    63.049303
  24.282526    63.0491796
  24.2825606   63.049064
  24.2720201   63.0482463
  24.2761088   63.0380672
  24.2781354   63.0330266
  24.2758956   63.0328548
  24.2750967   63.0327936
  24.2633569   63.0318934
  24.262219    63.0318061
  24.2634372   63.0283346
  24.2489024   63.0269426
  24.2468373   63.0326912
  24.2306688   63.0314017
  24.2270353   63.0311119
  24.2267446   63.0310887
  24.2155734   63.0301978
  24.2187289   63.0216773
  24.2364996   63.0202776
  24.2358828   63.023617
  24.2472358   63.0245737
  24.2490367   63.0197276
  24.2652107   63.025738
  24.2664849   63.0262114
  24.2673819   63.0265447
  24.2750614   63.029398
  24.275675    63.029626
  24.2765754   63.0299605
  24.2776976   63.0303774
  24.2778646   63.0304394
  24.2785872   63.0307084
  24.2792468   63.0309539
  24.2936011   63.0362961
  24.2975493   63.0353363
  24.2968595   63.0346065
  24.2998968   63.0304077
  24.3086118   63.0184862
  24.2957437   63.0171096
  24.2963119   63.0158643
  24.2976759   63.0128747
  24.2977178   63.0126649
  24.2975579   63.0080631
  24.3050584   63.0019284
  24.2895375   62.9990494
  24.3034045   62.9916227
  24.3009208   62.9883523
  24.3036555   62.9853866
  24.3110895   62.9772915
  24.3343636   62.9829611
  24.3482329   62.9639589
  24.3482037   62.9636962
  24.3477606   62.9595999
  24.3474547   62.9571335
  24.3465965   62.950213
  24.3451642   62.9375437
  24.3440012   62.9268651
  24.3429862   62.9177129
  24.3685123   62.9171351
  24.393253    62.9161513
  24.4183231   62.9110394
  24.434       62.9078553
  24.4405714   62.901744
  24.4467749   62.8960074
  24.4472199   62.8895111
  24.4473714   62.8870627
  24.4484443   62.8709973
  24.4266733   62.868556
  24.4160791   62.8673734
  24.3892994   62.864415
  24.363481    62.8615407
  24.3573307   62.8724669
  24.3588783   62.8744917
  24.357114    62.8751721
  24.3512619   62.8673164
  24.3454383   62.859563
  24.3359186   62.8467592
  24.3361117   62.8467151
  24.3363156   62.8467004
  24.3365302   62.8467298
  24.3369271   62.8467396
  24.337367    62.84672
  24.3377103   62.8467347
  24.3379893   62.8467298
  24.3383433   62.8464605
  24.3387939   62.8463969
  24.3389951   62.8464346
  24.3388771   62.8465031
  24.3385472   62.8465633
  24.338515    62.8466417
  24.3385579   62.8467543
  24.3387403   62.8468473
  24.3391051   62.8468816
  24.3396201   62.8469012
  24.3400465   62.8468948
  24.3404033   62.8470138
  24.34073     62.8470514
  24.3409907   62.8470858
  24.3411731   62.8471543
  24.3414735   62.8473159
  24.3417873   62.847381
  24.3422486   62.8473076
  24.342828    62.8472488
  24.3432357   62.847146
  24.3433939   62.8470466
  24.3433081   62.8469781
  24.3433362   62.8468727
  24.3434395   62.8468424
  24.3434282   62.8469081
  24.3435576   62.8469893
  24.3437399   62.8470677
  24.3439223   62.8471852
  24.3441906   62.8472684
  24.3444588   62.8473174
  24.3449308   62.8472929
  24.3454244   62.8472341
  24.3456175   62.8471558
  24.3458492   62.8471458
  24.3459823   62.8472341
  24.3461754   62.8473419
  24.3464329   62.8474202
  24.3467011   62.8474936
  24.3471195   62.8475965
  24.3474307   62.8477336
  24.3476452   62.8479049
  24.3477203   62.8480714
  24.3478384   62.8482134
  24.3479242   62.8484092
  24.3480529   62.8485904
  24.348289    62.8486638
  24.3486323   62.8486883
  24.3489005   62.8486491
  24.3492358   62.8484797
  24.3623014   62.8528232
  24.3676304   62.8490153
  24.3847944   62.8364697
  24.3977559   62.8268675
  24.3807808   62.821494
  24.3808082   62.8212333
  24.3808554   62.8210513
  24.3808296   62.8208364
  24.3810871   62.82066
  24.3812743   62.8205874
  24.3815426   62.8205776
  24.3818596   62.8205864
  24.3822351   62.8206306
  24.3826643   62.8207139
  24.3830398   62.8208364
  24.3832651   62.8209442
  24.3834845   62.8210873
  24.3836669   62.8211804
  24.3838337   62.8212186
  24.3840375   62.8212284
  24.3842414   62.8212039
  24.3845037   62.8211363
  24.3848208   62.8210324
  24.3855289   62.8207825
  24.3861511   62.8205129
  24.3864564   62.8204061
  24.3867627   62.8203757
  24.3870464   62.8203865
  24.3873147   62.82046
  24.3876639   62.8205766
  24.3879477   62.8205972
  24.3882588   62.8205923
  24.3885163   62.8205139
  24.3886987   62.8203522
  24.388769    62.8201503
  24.3888274   62.8199454
  24.3889835   62.8197778
  24.3890265   62.8196651
  24.389278    62.8193769
  24.3897024   62.8190231
  24.3900242   62.8190574
  24.3906358   62.8191211
  24.3912366   62.8191211
  24.391655    62.8190868
  24.3920305   62.8190035
  24.3925503   62.8188329
  24.3928078   62.8186908
  24.3930868   62.8185683
  24.3933979   62.8184849
  24.3940905   62.8183075
  24.3944016   62.8182095
  24.3946484   62.8181115
  24.3948844   62.8180086
  24.395099    62.8178174
  24.3953565   62.8177096
  24.3955544   62.8176175
  24.39585     62.8174645
  24.3961552   62.8173577
  24.3965522   62.8172597
  24.3969121   62.8171754
  24.3970945   62.817043
  24.3973413   62.8169646
  24.3976144   62.8168529
  24.3980494   62.8167489
  24.398419    62.8166274
  24.398618    62.8165186
  24.3988541   62.8163862
  24.3991437   62.8163078
  24.3994597   62.8161863
  24.3997875   62.815999
  24.4000283   62.815853
  24.4002381   62.8157834
  24.4005921   62.8157295
  24.4010749   62.815651
  24.4013539   62.8155628
  24.4016328   62.8154746
  24.4018045   62.8153667
  24.4022707   62.8152746
  24.4026628   62.8151462
  24.4028822   62.8150295
  24.4031284   62.8149343
  24.4033242   62.8148347
  24.4035493   62.8147154
  24.4036976   62.8146619
  24.4040039   62.8145727
  24.4041804   62.8144462
  24.4042507   62.8142639
  24.4044331   62.8140727
  24.4047168   62.8139364
  24.4050146   62.8137972
  24.4053391   62.8137453
  24.4056824   62.8136619
  24.4060853   62.8135041
  24.4064394   62.8134257
  24.4065939   62.8133948
  24.4067446   62.8133384
  24.4071416   62.8131864
  24.407281    62.8131374
  24.4074849   62.8131668
  24.4078019   62.8131609
  24.4081345   62.8130727
  24.4083201   62.8130752
  24.4218411   62.8012537
  24.4303727   62.8020153
  24.4287977   62.7969654
  24.4302461   62.7957363
  24.4330324   62.7925597
  24.4339164   62.7917101
  24.4386157   62.786996
  24.4601377   62.7654417
  24.4771687   62.7485404
  24.485593    62.7401921
  24.4895401   62.7338591
  24.4961136   62.7234057
  24.5042407   62.7104366
  24.5101104   62.7010948
  24.5074003   62.7007494
  24.5118678   62.6982742
  24.5132899   62.6960622
  24.5133505   62.6959821
  24.5156052   62.6957368
  24.5156744   62.6956492
  24.515927    62.6954809
  24.5160558   62.6953431
  24.5160665   62.6952003
  24.5156851   62.6950586
  24.5154813   62.6949749
  24.5153262   62.6948017
  24.5152404   62.694659
  24.5151653   62.6944276
  24.5151487   62.6942268
  24.5144642   62.6941486
  24.5181307   62.6882444
  24.5196001   62.6859695
  24.5462301   62.676915
  24.5699316   62.6688325
  24.5821751   62.6647765
  24.5771135   62.6626259
  24.5710965   62.6600692
  24.5684732   62.6589604
  24.53629     62.6452582
  24.5116513   62.6347842
  24.5036476   62.6212542
  24.5410086   62.6162341
  24.5786979   62.62138
  24.5824228   62.6149684
  24.5842994   62.6117086
  24.5837462   62.6116407
  24.5537834   62.6079658
  24.5601724   62.5948403
  24.565919    62.5830001
  24.5670389   62.5808237
  24.5486887   62.5789015
  24.5354446   62.577493
  24.5362561   62.5762472
  24.5455029   62.5613884
  24.5249379   62.5586811
  24.5344393   62.5428646
  24.5382223   62.5366373
  24.5378436   62.5365833
  24.5320307   62.5357545
  24.5310023   62.5367455
  24.5257307   62.5417189
  24.5184287   62.5400338
  24.5221573   62.5364727
  24.5305743   62.5284062
  24.5170667   62.5250945
  24.5113782   62.5296747
  24.5072777   62.5285443
  24.5037629   62.5189382
  24.5029872   62.5192535
  24.5008382   62.5182188
  24.5050632   62.5159913
  24.5074203   62.510319
  24.5079632   62.5089833
  24.5074429   62.506599
  24.5136227   62.5031526
  24.5060921   62.4998239
  24.5058845   62.4997572
  24.5056163   62.4996928
  24.5053625   62.4996717
  24.5050799   62.4996483
  24.5046631   62.4995581
  24.5040714   62.4993906
  24.5037189   62.4992856
  24.5034936   62.4991816
  24.5032882   62.4990637
  24.5029679   62.4988843
  24.5026659   62.4987615
  24.5022276   62.4987109
  24.5019701   62.4986614
  24.5017647   62.4985534
  24.5013355   62.4984345
  24.5008972   62.4983592
  24.5004788   62.4982056
  24.4999316   62.4979678
  24.4994687   62.4978548
  24.4990733   62.4977448
  24.4989215   62.4976418
  24.4988262   62.4974566
  24.4987729   62.4973435
  24.4987407   62.4971751
  24.4986855   62.4971166
  24.4985353   62.4971067
  24.4981598   62.4970819
  24.4977644   62.4970264
  24.497398    62.4969135
  24.4968905   62.4967757
  24.4965397   62.4966955
  24.4963037   62.4966905
  24.4960247   62.4967004
  24.4957613   62.4967606
  24.4953536   62.4968362
  24.4949518   62.4968788
  24.4944798   62.4969036
  24.4939111   62.4968887
  24.4936537   62.4969432
  24.4933854   62.4970126
  24.4928613   62.4970017
  24.4923769   62.4969729
  24.4916061   62.4968729
  24.4911646   62.4968342
  24.4907891   62.4968342
  24.4905208   62.4967946
  24.4902955   62.4968342
  24.4899737   62.4969184
  24.4897591   62.4970076
  24.4897054   62.4971364
  24.4896089   62.4972652
  24.4896196   62.4973247
  24.4893208   62.4974624
  24.4889544   62.4977161
  24.4886755   62.4978598
  24.4883751   62.4979688
  24.4878021   62.4980694
  24.4872915   62.4981719
  24.487057    62.4982452
  24.4866477   62.498375
  24.4863044   62.4985138
  24.4858626   62.4985954
  24.4858739   62.4986747
  24.4865313   62.4989933
  24.4771532   62.5025309
  24.4739441   62.5022704
  24.4670252   62.5017086
  24.4525198   62.5108518
  24.4505039   62.5102966
  24.4601598   62.5011632
  24.4592361   62.5010943
  24.4589357   62.5012231
  24.4585494   62.5012429
  24.4581632   62.5011439
  24.4579272   62.5011042
  24.4576053   62.5010349
  24.4573478   62.5008664
  24.4571547   62.5007575
  24.4568328   62.5007773
  24.4563608   62.5008763
  24.4559101   62.5009952
  24.4554821   62.5010542
  24.4550304   62.5010745
  24.4545808   62.5011136
  24.454215    62.5010547
  24.4540862   62.5008863
  24.4539371   62.5007272
  24.4644085   62.4968035
  24.4657163   62.4974188
  24.4659598   62.4972509
  24.4666523   62.4975451
  24.4669662   62.4976784
  24.4671944   62.4977498
  24.4673052   62.4977845
  24.4675627   62.4979232
  24.4679136   62.4980535
  24.4682376   62.4981734
  24.4683771   62.4983404
  24.4684082   62.4984915
  24.4682923   62.4986069
  24.4680133   62.4988348
  24.4677805   62.4990146
  24.467669    62.4992618
  24.4677655   62.4994055
  24.4680133   62.4995284
  24.4682483   62.4996136
  24.468421    62.4997117
  24.4686678   62.4997513
  24.4690433   62.4997018
  24.4693105   62.4996483
  24.4694188   62.4995531
  24.4694832   62.4994095
  24.4695787   62.4993461
  24.4697289   62.499356
  24.4699231   62.4994095
  24.4702235   62.4995284
  24.4704917   62.4996374
  24.4709949   62.4998217
  24.4713715   62.4998652
  24.4718221   62.4998553
  24.4720796   62.499781
  24.4722083   62.4997117
  24.4723253   62.4996383
  24.4724647   62.4996235
  24.4726482   62.4996423
  24.4728402   62.4997919
  24.4731836   62.5001486
  24.4732158   62.5003071
  24.4732168   62.500435
  24.4730774   62.5006083
  24.4730656   62.5007877
  24.4732479   62.5009162
  24.4736567   62.5010641
  24.4738176   62.5011087
  24.4747189   62.5015397
  24.4748315   62.5016041
  24.4752124   62.501822
  24.4754699   62.501931
  24.4757274   62.5019706
  24.4760374   62.5019367
  24.4762627   62.5017633
  24.4764559   62.5016296
  24.4768314   62.5015652
  24.4770138   62.5015206
  24.477046    62.5014265
  24.4770674   62.5012432
  24.4771962   62.5010995
  24.4774751   62.5009066
  24.477679    62.5008174
  24.4779472   62.500748
  24.478195    62.5006529
  24.4783238   62.5006331
  24.4784836   62.5006936
  24.47871     62.5007272
  24.4789031   62.5006678
  24.4790737   62.5005053
  24.4792346   62.5003666
  24.4794814   62.5002378
  24.4798033   62.5000793
  24.4799535   62.4999604
  24.4801359   62.4998563
  24.4803499   62.4997721
  24.4805323   62.4996433
  24.4807576   62.4994947
  24.4810151   62.4993461
  24.4812726   62.4992371
  24.481521    62.4991816
  24.4818519   62.4991925
  24.4821416   62.4992024
  24.4822918   62.4992172
  24.4824528   62.4993312
  24.4826153   62.4993748
  24.4827961   62.4993758
  24.4831716   62.4992569
  24.4834827   62.4991182
  24.4840621   62.498925
  24.4842445   62.498816
  24.4843196   62.4987714
  24.4845358   62.4987307
  24.4846736   62.4986327
  24.4848882   62.4985732
  24.4851242   62.4985881
  24.4854461   62.4986029
  24.4856301   62.4986118
  24.4857807   62.4986056
  24.4844695   62.495883
  24.4698068   62.4947241
  24.459574    62.4939153
  24.4563225   62.4936921
  24.455143    62.4936111
  24.4518517   62.4847502
  24.4246316   62.4734183
  24.4070631   62.4958835
  24.3959953   62.4941805
  24.3950206   62.4955401
  24.394342    62.4964741
  24.405353    62.4981809
  24.4030312   62.5016086
  24.3919441   62.4999352
  24.3923614   62.4994358
  24.3797046   62.4935012
  24.3746803   62.501896
  24.3480698   62.4953891
  24.3351113   62.4921712
  24.3318647   62.4951428
  24.3281128   62.4942405
  24.3358076   62.4858342
  24.3211734   62.482313
  24.3332198   62.469855
  24.3378214   62.4707997
  24.3423339   62.466197
  24.3440334   62.4644313
  24.3394221   62.4633585
  24.3308058   62.4558013
  24.3216991   62.447727
  24.3155258   62.4494436
  24.3102933   62.4508598
  24.303113    62.4528257
  24.2899267   62.4564356
  24.2729269   62.4610291
  24.264729    62.463286
  24.2013886   62.4826926
  24.1800506   62.4691052
  24.1776806   62.4676154
  24.157033    62.4544408
  24.1474371   62.448198
  24.1281374   62.4354362
  24.1263442   62.434286
  24.109236    62.4229171
  24.0954655   62.4137952
  24.0971729   62.4123523
  24.100978    62.4091365
  24.080134    62.3997528
  24.079658    62.3995344
  24.0638069   62.3924142
  24.0634315   62.3922449
  24.0376393   62.3806052
  24.0337855   62.3779729
  24.0130258   62.3633325
  23.9952586   62.3735743
  23.9954467   62.3769186
  23.9591239   62.3856671
  23.954217    62.3868562
  23.9482653   62.3870357
  23.9557275   62.3899617
  23.9514412   62.3913259
  23.9452055   62.3871315
  23.9242337   62.3906258
  23.9226184   62.3970522
  23.9118429   62.4052366
  23.9099929   62.4113623
  23.9096734   62.4115547
  23.9073896   62.4140686
  23.9100905   62.4192516
  23.9105044   62.4241419
  23.9093747   62.4245737
  23.9089358   62.4249607
  23.9090197   62.4256031
  23.9079317   62.4269193
  23.9072881   62.4269912
  23.9072188   62.427045
  23.9065806   62.4275405
  23.9066035   62.4277286
  23.9062885   62.4276588
  23.9062018   62.4278997
  23.9058001   62.4278912
  23.9054988   62.4281574
  23.9059162   62.4283688
  23.9050383   62.4293667
  23.9051803   62.4299463
  23.9037343   62.4322049
  23.9039925   62.4327785
  23.9028435   62.433603
  23.9024338   62.4343032
  23.90234     62.4344634
  23.9025466   62.4348517
  23.9017332   62.4355507
  23.9048678   62.4416032
  23.9058043   62.4434112
  23.9111829   62.4537931
  23.9017982   62.4548401
  23.9036605   62.4583693
  23.9120958   62.4575419
  23.8991461   62.4844827
  23.8746032   62.485598
  23.8673034   62.485437
  23.8681555   62.4602091
  23.8390811   62.4595764
  23.8379279   62.4701768
  23.8357439   62.4902427
  23.8355488   62.491823
  23.8355213   62.4920114
  23.8352467   62.4943278
  23.8163339   62.4844309
  23.8038353   62.4779695
  23.8174164   62.4668099
  23.8075083   62.4629432
  23.8117355   62.4559979
  23.8087014   62.4553105
  23.8106835   62.4540428
  23.8092673   62.4534893
  23.8033369   62.4558897
  23.799297    62.4574694
  23.7982214   62.4593344
  23.796301    62.462157
  23.7945763   62.4641892
  23.7913931   62.4636021
  23.7892945   62.4658738
  23.7764044   62.4593091
  23.7790415   62.4573347
  23.7796718   62.4570921
  23.779498    62.4570606
  23.7712813   62.455727
  23.7657656   62.4548267
  23.7619215   62.4547605
  23.7597484   62.4556903
  23.7554024   62.4535519
  23.7399982   62.4459711
  23.7333013   62.4426616
  23.7254747   62.4387907
  23.7248711   62.4384922
  23.705262    62.4287281
  23.6998504   62.4260725
  23.6973679   62.4248561
  23.6953662   62.4238679
  23.6878442   62.4201837
  23.6826397   62.4176944
  23.6637521   62.4086365
  23.6482405   62.4091855
  23.647102    62.4092223
  23.6364188   62.4096032
  23.6318859   62.4097709
  23.6311804   62.4097873
  23.5750509   62.4117873
  23.5745681   62.4124481
  23.5739088   62.4124638
  23.5735489   62.4123289
  23.5732699   62.4121848
  23.5730446   62.4120804
  23.5726798   62.4120059
  23.5727764   62.4118867
  23.5700513   62.4119965
  23.5632803   62.4122295
  23.535668    62.4133675
  23.5034349   62.4146317
  23.5048521   62.409278
  23.5069292   62.4027936
  23.5155059   62.3760213
  23.5174473   62.3699467
  23.5180063   62.3682075
  23.5180604   62.3680392
  23.5178399   62.3677449
  23.5155381   62.3685635
  23.5149909   62.3678917
  23.5099322   62.369688
  23.5109472   62.3701427
  23.5052089   62.3721143
  23.4902695   62.3773657
  23.4824246   62.3801422
  23.475049    62.382686
  23.4686799   62.3811315
  23.4588796   62.378743
  23.4552206   62.377832
  23.4512831   62.3768769
  23.4451837   62.3753719
  23.4227583   62.3783222
  23.4224547   62.3785483
  23.4222674   62.3786593
  23.4214607   62.3794703
  23.4170618   62.3804452
  23.4154986   62.381137
  23.4122124   62.3821959
  23.4060986   62.3839983
  23.3901013   62.3891981
  23.3890955   62.3950193
  23.3880259   62.3968179
  23.3802798   62.4005858
  23.3800758   62.4006802
  23.3762815   62.4025106
  23.3662297   62.39689
  23.3596196   62.3994299
  23.3633114   62.4009007
  23.3695782   62.4019619
  23.3687247   62.4029069
  23.373146    62.4040242
  23.3633311   62.4087645
  23.356283    62.4121681
  23.3455649   62.4072756
  23.3356407   62.4118119
  23.3346465   62.4198515
  23.3377908   62.4251001
  23.3135214   62.4184482
  23.2954015   62.4134932
  23.280062    62.4092593
  23.2750682   62.4078808
  23.2764257   62.4073405
  23.2779821   62.406721
  23.2785862   62.4061316
  23.2792084   62.4053295
  23.2783201   62.4045636
  23.2771002   62.4040811
  23.2768937   62.4040274
  23.2751669   62.4035781
  23.2727851   62.4049602
  23.2710588   62.4026949
  23.2713376   62.4024238
  23.2714879   62.4021676
  23.2716982   62.4016815
  23.2717562   62.4014379
  23.2719783   62.4012336
  23.2724675   62.4008464
  23.2703883   62.400322
  23.2709708   62.4016785
  23.2704816   62.4019876
  23.2664559   62.3968299
  23.2605364   62.3891594
  23.2501107   62.3756449
  23.2555428   62.3701847
  23.260742    62.3699792
  23.2643704   62.3715191
  23.2671438   62.3721838
  23.2649444   62.3674495
  23.2648264   62.3672137
  23.2647492   62.366926
  23.2629221   62.3628991
  23.2639395   62.3618743
  23.2642      62.3616119
  23.2659701   62.3598288
  23.2631463   62.3592375
  23.260389    62.3596989
  23.260715    62.3604971
  23.2610821   62.3613961
  23.2604576   62.3613956
  23.2590436   62.3585003
  23.2600285   62.3584804
  23.2553269   62.3573833
  23.2505946   62.3562713
  23.2474049   62.3593246
  23.2450135   62.3587059
  23.2387393   62.3578666
  23.235924    62.3581549
  23.2361633   62.3576178
  23.2373552   62.3560831
  23.2370945   62.3555724
  23.2317998   62.3536707
  23.2320595   62.3516758
  23.229418    62.3517421
  23.2271886   62.3543274
  23.2239474   62.353494
  23.2211247   62.3555316
  23.2226911   62.3568522
  23.2204402   62.3598765
  23.2191916   62.3597387
  23.2190972   62.3598937
  23.2190529   62.3599705
  23.2189239   62.3600703
  23.2187552   62.3601225
  23.2171818   62.3602732
  23.2165563   62.3603653
  23.2162323   62.360331
  23.2159625   62.3602026
  23.2157205   62.3601784
  23.2154668   62.3601869
  23.2152721   62.3602469
  23.2151278   62.3603265
  23.2149051   62.3607105
  23.2145962   62.3607227
  23.2138087   62.36077
  23.2132443   62.3608118
  23.2129866   62.3608523
  23.2127476   62.3608899
  23.2122401   62.3611661
  23.2117262   62.3613757
  23.2111222   62.3616081
  23.210487    62.3615807
  23.2095976   62.3617231
  23.2092543   62.3616798
  23.2090815   62.3616141
  23.2090633   62.3613856
  23.2088208   62.361192
  23.208072    62.360867
  23.2075656   62.3607814
  23.2067255   62.3606132
  23.2069497   62.3602717
  23.2118163   62.361088
  23.2153532   62.360106
  23.2183701   62.3592684
  23.2198029   62.3588706
  23.2198629   62.3570278
  23.2199209   62.3552488
  23.2227683   62.352693
  23.223971    62.3512875
  23.2240311   62.3492029
  23.2239952   62.347974
  23.2239933   62.3479081
  23.2239807   62.3474781
  23.2280812   62.3471728
  23.2263582   62.3448857
  23.220909    62.3461475
  23.2191031   62.3445228
  23.2186109   62.34408
  23.2092296   62.3361624
  23.2093948   62.333589
  23.2097532   62.3335132
  23.2104698   62.3346022
  23.217597    62.3347521
  23.2178094   62.3341678
  23.2077722   62.3321161
  23.14451     62.3191816
  23.1210958   62.3144485
  23.0988426   62.3099943
  23.0779713   62.3058353
  23.0756614   62.3054082
  23.0721777   62.3046637
  23.0716413   62.3045949
  23.060155    62.3022475
  23.0391822   62.2980183
  23.0305472   62.2962542
  23.0264686   62.2954209
  23.0133617   62.292771
  23.0082462   62.2917259
  22.9943545   62.288904
  22.9761385   62.2851909
  22.9139784   62.2725015
  22.9009675   62.2698374
  22.896851    62.2690048
  22.8312934   62.2708806
  22.761423    62.2728839
  22.7496588   62.2732001
  22.7457685   62.2732845
  22.7423846   62.2741188
  22.7396847   62.2748169
  22.736789    62.2755201
  22.7309456   62.2770074
  22.719713    62.2798228
  22.7087181   62.2825695
  22.7016312   62.2843482
  22.6919673   62.2867734
  22.6855814   62.2883759
  22.6789772   62.290048
  22.6737045   62.2913308
  22.6685976   62.2926074
  22.6673235   62.292912
  22.655274    62.2957921
  22.6405599   62.2993622
  22.6343348   62.3008485
  22.6342506   62.3008686
  22.5917691   62.3111269
  22.58575     62.3016814
  22.5645071   62.2679228
  22.5630565   62.2654045
  22.5350618   62.2216463
  22.5238073   62.218531
  22.5296582   62.2162866
  22.5283606   62.2145962
  22.5248243   62.2101851
  22.5113232   62.212482
  22.5084827   62.211674
  22.5071309   62.2119001
  22.5025813   62.2100993
  22.5011726   62.2101991
  22.5011909   62.2092732
  22.5005632   62.2088618
  22.5008508   62.2083648
  22.5005337   62.2079931
  22.5003733   62.2068485
  22.5020787   62.2060021
  22.5015556   62.2044855
  22.5002027   62.2037643
  22.4998219   62.2031614
  22.5030925   62.2021637
  22.5033098   62.2017044
  22.5027288   62.2015648
  22.5026232   62.2018783
  22.4989877   62.2030323
  22.4985376   62.2039866
  22.4975613   62.2038586
  22.4974433   62.2044119
  22.4979475   62.2044835
  22.4993986   62.2043556
  22.5005525   62.2048457
  22.5003529   62.205802
  22.5001105   62.2059393
  22.5003089   62.2063693
  22.4995762   62.2067165
  22.4991068   62.207677
  22.4993804   62.2080539
  22.4995418   62.2091852
  22.5002988   62.2095974
  22.5004361   62.2101384
  22.5000917   62.2105665
  22.5037432   62.2112133
  22.5054609   62.2122904
  22.5075724   62.2122859
  22.5087434   62.2124047
  22.5088893   62.2122462
  22.5097712   62.2127421
  22.5053579   62.2134686
  22.4971585   62.2112407
  22.4959791   62.2109202
  22.4941216   62.2104117
  22.4927674   62.2100409
  22.4898965   62.2092519
  22.4874342   62.2085712
  22.4868111   62.2084023
  22.4861881   62.2082191
  22.4851937   62.2079645
  22.4824952   62.2072332
  22.4823587   62.207196
  22.4765143   62.2056018
  22.4761372   62.2054989
  22.4747627   62.205124
  22.4711874   62.2041487
  22.4707425   62.2040273
  22.4705403   62.2039722
  22.4679992   62.203279
  22.4504059   62.1984792
  22.4031296   62.1639866
  22.3851606   62.1508133
  22.3781822   62.1457119
  22.373706    62.142448
  22.3732115   62.1420739
  22.3723887   62.1414515
  22.3612296   62.133312
  22.319412    62.102919
  22.2506135   62.1032544
  22.2501576   62.1029313
  22.2503507   62.1026175
  22.2505921   62.1026226
  22.2507316   62.102989
  22.2509408   62.1030016
  22.2512573   62.102728
  22.2509944   62.1023791
  22.2501093   62.1022134
  22.2500986   62.1020628
  22.2499376   62.1021231
  22.2493422   62.1032606
  22.1986928   62.1033422
  22.1900117   62.09589
  22.1522863   62.0637171
  22.1506518   62.0624224
  22.1353023   62.0525788
  22.1330286   62.0510622
  22.1218325   62.0437829
  22.1081936   62.0316737
  22.1085799   62.0304761
  22.108891    62.0302749
  22.1096527   62.030144
  22.1139121   62.0301943
  22.114588    62.0301692
  22.1155214   62.029354
  22.1148991   62.0290672
  22.1086228   62.0294999
  22.106874    62.0311554
  22.0954171   62.0267507
  21.974675    61.9797632
  21.8087788   62.006356
  21.8055655   62.0044193
  21.8031695   62.004397
  21.8020618   62.0046604
  21.8079865   62.006483
  21.7494405   62.0158622
  21.7269662   62.0183138
  21.715337    62.019554
  21.7025748   62.0209263
  21.6909658   62.0205838
  21.6735358   62.0199382
  21.6479243   62.019573
  21.62796     62.039723
  21.638939    62.0526862
  21.650963    62.059677
  21.6259      62.099224
  21.6367704   62.107257
  21.6424725   62.1114744
  21.643066    62.111913
  21.6417128   62.1494387
  21.6689858   62.1406313
  21.6704871   62.1443016
  21.675099    62.1439245
  21.676019    62.1456008
  21.6746766   62.14677
  21.6842167   62.1478185
  21.6878953   62.143965
  21.6852169   62.1424958
  21.6837214   62.1420017
  21.6828707   62.1418691
  21.6831899   62.1413585
  21.6801042   62.1394963
  21.679829    62.1383393
  21.6956226   62.1437653
  21.704521    62.166464
  21.667099    62.186655
  21.7107239   62.2127922
  21.710767    62.2175526
  21.749859    62.2194081
  21.7630165   62.2181256
  21.7662335   62.2210874
  21.764411    62.2215918
  21.7637125   62.2222642
  21.7579734   62.2239632
  21.7587523   62.2239592
  21.7593797   62.2240807
  21.7585137   62.2243828
  21.7576465   62.2248543
  21.7574466   62.2250717
  21.757381    62.2252936
  21.7573655   62.2255323
  21.7577225   62.225648
  21.7581805   62.2258036
  21.7580865   62.2258943
  21.7565813   62.2274379
  21.7559988   62.2280393
  21.7557582   62.2280277
  21.7554865   62.2280668
  21.7553513   62.2282338
  21.7555784   62.2285401
  21.7558403   62.2287244
  21.7560154   62.2288476
  21.756537    62.2291091
  21.7567932   62.2292376
  21.7571602   62.2295045
  21.7571863   62.2297412
  21.7569756   62.2300399
  21.7566455   62.2301812
  21.7563193   62.2302255
  21.7559231   62.2302793
  21.7557217   62.2303566
  21.7554865   62.2304468
  21.7551914   62.2306602
  21.7551221   62.230798
  21.755009    62.2310231
  21.7551399   62.2312861
  21.7554757   62.2314605
  21.7560149   62.2317309
  21.7560411   62.2321463
  21.7559585   62.2323802
  21.7555712   62.2325797
  21.7548567   62.2328876
  21.7544318   62.233016
  21.7539394   62.232989
  21.7534308   62.2328511
  21.7527731   62.2327071
  21.7522583   62.2326422
  21.7519052   62.2326751
  21.7514739   62.2327471
  21.751122    62.2329491
  21.7510158   62.2331045
  21.7512648   62.2336329
  21.7511112   62.2338243
  21.7509761   62.2339447
  21.750961    62.2341341
  21.7507829   62.2343346
  21.7500155   62.2349648
  21.749635    62.2352524
  21.7492015   62.2354836
  21.748429    62.2357035
  21.7467489   62.2360539
  21.7457897   62.2362433
  21.7445173   62.2368135
  21.7437942   62.2374827
  21.744174    62.2375032
  21.7441311   62.237893
  21.7440452   62.2380829
  21.7442598   62.2384727
  21.7446954   62.2387121
  21.7453327   62.2392923
  21.7454679   62.2394817
  21.7453821   62.2396116
  21.7452469   62.2395022
  21.7450173   62.2394917
  21.744925    62.2395821
  21.7450323   62.2399419
  21.7448027   62.240641
  21.7443092   62.2410308
  21.7438092   62.2411312
  21.7432084   62.2411512
  21.7427363   62.2412411
  21.7420068   62.2412711
  21.7408759   62.2413306
  21.7396464   62.2416409
  21.7392602   62.2418508
  21.7391314   62.2421206
  21.739095    62.24231
  21.7395177   62.2424804
  21.7399254   62.2425303
  21.7406399   62.2424299
  21.7412557   62.2422505
  21.7417278   62.2422605
  21.7425003   62.2425803
  21.7439229   62.2429496
  21.7445388   62.2431899
  21.7450602   62.2433992
  21.7455473   62.2436995
  21.7459121   62.2439793
  21.7460258   62.2441987
  21.7457189   62.244409
  21.7451396   62.2446389
  21.7444594   62.2447783
  21.7440023   62.2449886
  21.7436011   62.245178
  21.7432298   62.2452185
  21.7427857   62.245118
  21.7419424   62.2448287
  21.7409553   62.2442392
  21.7404403   62.2441292
  21.7398824   62.2441692
  21.7392666   62.2443586
  21.7388954   62.2445989
  21.7388739   62.2448887
  21.7390885   62.2450985
  21.740318    62.2458974
  21.7412987   62.2460878
  21.7419488   62.2461473
  21.742629    62.2463176
  21.7427428   62.246517
  21.7426355   62.2466868
  21.7424359   62.2468872
  21.742099    62.2470066
  21.7418136   62.2469671
  21.7410197   62.2467373
  21.7405476   62.2467073
  21.7393954   62.2469466
  21.7388589   62.2471764
  21.7386164   62.2474567
  21.7386594   62.2476765
  21.7392387   62.2481262
  21.7433801   62.2484259
  21.7430002   62.2506434
  21.7454679   62.2528613
  21.7412987   62.2560984
  21.7363913   62.2577161
  21.7276151   62.2587549
  21.7262365   62.2594951
  21.7233021   62.2593042
  21.7243106   62.2575163
  21.7164507   62.2587254
  21.7150136   62.2589472
  21.7066215   62.2602424
  21.7002716   62.2612223
  21.7054214   62.264508
  21.7021019   62.2651765
  21.7023101   62.2654067
  21.6970475   62.266574
  21.6955144   62.266914
  21.6926327   62.2652569
  21.6905513   62.2640386
  21.6864164   62.261102
  21.6880922   62.2592043
  21.6801196   62.259071
  21.6799308   62.2590765
  21.6804662   62.2602635
  21.6730513   62.2601227
  21.6728903   62.2601196
  21.6729373   62.2608297
  21.6729407   62.260881
  21.6734291   62.2653064
  21.6741582   62.2718768
  21.6678276   62.276479
  21.6743293   62.2777967
  21.6728701   62.2800724
  21.6720547   62.2819089
  21.6753324   62.2821294
  21.6761124   62.2890989
  21.6768184   62.2955291
  21.6768453   62.2956295
  21.6789074   62.303227
  21.6797666   62.3063919
  21.6811313   62.3116259
  21.682797    62.3177164
  21.6831484   62.319073
  21.6783633   62.3201396
  21.6775265   62.3207875
  21.6768398   62.3213755
  21.6764321   62.3218639
  21.675945    62.3224515
  21.6757455   62.3226513
  21.674164    62.3237372
  21.6736855   62.323931
  21.6782989   62.327455
  21.672677    62.3289697
  21.6777904   62.333184
  21.6756875   62.3341704
  21.6679134   62.3274849
  21.6655102   62.3283718
  21.6630618   62.3289901
  21.6696794   62.3352663
  21.6863305   62.3395898
  21.6846354   62.3424386
  21.6882617   62.34458
  21.6868884   62.3451079
  21.6864593   62.3452075
  21.6855795   62.345307
  21.6850216   62.3454664
  21.6849572   62.3457851
  21.6846568   62.3462831
  21.6860087   62.3466814
  21.6869099   62.3471893
  21.6877467   62.3472391
  21.6883261   62.3474184
  21.6886909   62.3475777
  21.6890557   62.3479362
  21.68912     62.3482648
  21.6890771   62.3486034
  21.6889269   62.3490217
  21.6886694   62.3495295
  21.6884978   62.3503063
  21.6889913   62.350824
  21.6889269   62.3516903
  21.6859443   62.3527159
  21.6865666   62.355225
  21.6853156   62.3556409
  21.6713531   62.3602823
  21.6723616   62.3605212
  21.6721256   62.3606307
  21.6718681   62.3607103
  21.6713316   62.3608297
  21.6709883   62.360989
  21.6706235   62.360989
  21.6700871   62.3609492
  21.6692288   62.3611085
  21.6687138   62.3611383
  21.6683705   62.3610686
  21.6685421   62.36077
  21.6684348   62.360561
  21.6681344   62.3604017
  21.6677847   62.3602827
  21.6675916   62.3602728
  21.6673834   62.3603221
  21.6672268   62.3604321
  21.6672332   62.3606506
  21.6671474   62.3607501
  21.6668684   62.3609392
  21.6666324   62.3609392
  21.6662891   62.3611383
  21.6654951   62.3614369
  21.664787    62.3611483
  21.6597016   62.3605311
  21.6553886   62.3654482
  21.6556675   62.3658562
  21.652757    62.3658568
  21.650788    62.3658572
  21.6501744   62.3673292
  21.6266568   62.3644131
  21.6296125   62.3594864
  21.6192914   62.3582022
  21.6193611   62.3598542
  21.6219522   62.3602827
  21.6220648   62.3638159
  21.5947224   62.3603226
  21.5987832   62.3586198
  21.5968896   62.3567686
  21.5897496   62.356131
  21.5862788   62.3592619
  21.5834429   62.3588655
  21.5659841   62.3566397
  21.561081    62.3570802
  21.558784    62.3577846
  21.5586191   62.3580963
  21.5573206   62.3605512
  21.554103    62.366633
  21.5515031   62.3668921
  21.5512116   62.3669211
  21.546227    62.3686373
  21.5462549   62.3734491
  21.5297513   62.377863
  21.5234883   62.3795379
END
END
