polygon
1
  22.287872    64.0093865
  22.3648102   63.9991894
  22.4498642   63.987901
  22.5284035   63.9774402
  22.6269286   63.9642368
  22.7490957   63.9476101
  22.7707529   63.9284332
  22.7754736   63.9245287
  22.7756185   63.9243903
  22.7762027   63.9238327
  22.7774217   63.9226689
  22.7779093   63.9222034
  22.7779207   63.9221926
  22.7780171   63.9221005
  22.7791978   63.9209734
  22.7797222   63.9204727
  22.7834988   63.9171897
  22.7872515   63.9139252
  22.7876104   63.9136129
  22.7896044   63.9118781
  22.7901595   63.9113951
  22.7919454   63.9098414
  22.7924821   63.9093743
  22.7924967   63.9093616
  22.7927967   63.9091006
  22.7929291   63.9089854
  22.792952    63.9089655
  22.7934072   63.9085693
  22.7937365   63.9082829
  22.7940245   63.9080322
  22.7941986   63.9078807
  22.7974463   63.9050546
  22.8149064   63.8896999
  22.8162528   63.8885298
  22.8160483   63.8884594
  22.8158598   63.8884359
  22.8157746   63.8884363
  22.8156451   63.888441
  22.8155422   63.8884459
  22.8154376   63.8884142
  22.8153175   63.8884307
  22.8152294   63.8884709
  22.8151083   63.8885107
  22.8150199   63.8885664
  22.8149248   63.8886459
  22.8148367   63.8886924
  22.8147205   63.8887132
  22.814657    63.888714
  22.8146272   63.8886986
  22.8145833   63.8886347
  22.8145349   63.8885817
  22.8144364   63.8885617
  22.8143583   63.8885303
  22.8142388   63.8885336
  22.8141358   63.88854
  22.81409     63.8885875
  22.8141095   63.8886494
  22.8141077   63.8887027
  22.8141044   63.8887975
  22.8140546   63.8888595
  22.8138945   63.8889855
  22.813892    63.8890587
  22.8138704   63.8891393
  22.8138498   63.8891938
  22.8136889   63.8892563
  22.8135018   63.889285
  22.8133948   63.8892919
  22.8132838   63.8893306
  22.8131949   63.889398
  22.813104    63.8895652
  22.8129244   63.8898788
  22.812901    63.8900141
  22.8128844   63.8902454
  22.8127964   63.8903688
  22.812759    63.8904487
  22.8127643   63.8905466
  22.8127622   63.8906083
  22.8127386   63.8906635
  22.8125965   63.8907267
  22.8123027   63.8908361
  22.8119436   63.8909564
  22.8118428   63.8909783
  22.8116215   63.8910064
  22.811364    63.8910231
  22.8112981   63.8910512
  22.8112296   63.891115
  22.8111454   63.8911291
  22.8110631   63.8911298
  22.8109608   63.8911679
  22.8108544   63.8911977
  22.8108067   63.8911993
  22.8107552   63.8911875
  22.8107222   63.8911809
  22.8106645   63.8911812
  22.8106352   63.8911943
  22.8106018   63.8911992
  22.8105914   63.8911673
  22.8105452   63.891167
  22.8104581   63.8911823
  22.8104191   63.8911821
  22.8103866   63.8911202
  22.8103497   63.8910627
  22.8103175   63.8910332
  22.8102253   63.8910288
  22.810187    63.8909656
  22.8100939   63.8909046
  22.8099995   63.8908823
  22.8099331   63.8908431
  22.8099217   63.8908347
  22.8098112   63.8907361
  22.809768    63.8906493
  22.8097565   63.8905233
  22.8097353   63.8904855
  22.8097667   63.8904522
  22.8097755   63.8904054
  22.8096911   63.8903681
  22.8096328   63.8903383
  22.8096145   63.8903045
  22.8096544   63.8903019
  22.8097673   63.8902985
  22.8098602   63.890295
  22.8098777   63.8902761
  22.8098564   63.8902364
  22.8097781   63.8902079
  22.8097587   63.890166
  22.8096255   63.8900958
  22.8095567   63.8900522
  22.8094884   63.8900238
  22.8094274   63.8899826
  22.8094767   63.889932
  22.8096013   63.8898775
  22.8096713   63.8898001
  22.8097705   63.8896981
  22.809843    63.8896012
  22.8099458   63.889529
  22.8099518   63.889472
  22.8099869   63.8894298
  22.8099587   63.8893945
  22.8099992   63.8893802
  22.8100497   63.8893631
  22.8100946   63.889324
  22.8100091   63.8893086
  22.8099335   63.8892962
  22.809948    63.88927
  22.8100118   63.8892515
  22.8100294   63.8892198
  22.8101323   63.8891244
  22.810158    63.8890909
  22.8102575   63.8890922
  22.8103094   63.8890538
  22.8103493   63.8889822
  22.8103504   63.8889504
  22.8102285   63.8889292
  22.8101775   63.8889009
  22.8101785   63.8888729
  22.8102315   63.888876
  22.8102972   63.8888898
  22.8104268   63.8889115
  22.8104707   63.8888501
  22.8105347   63.8887952
  22.8104943   63.8887862
  22.810426    63.8887578
  22.8103666   63.8887324
  22.8102919   63.88872
  22.8102448   63.8887068
  22.8102704   63.8886765
  22.8103166   63.8886865
  22.8103863   63.8887052
  22.8104473   63.8887272
  22.810503    63.8887409
  22.8105137   63.8887249
  22.8105003   63.8886627
  22.8105214   63.8885955
  22.8105953   63.8885012
  22.810557    63.8883986
  22.8106287   63.8883285
  22.8107115   63.8882706
  22.8107896   63.8882522
  22.8109183   63.8882636
  22.8110345   63.8882753
  22.8110517   63.8882458
  22.8110646   63.8881985
  22.8111193   63.8881588
  22.8111208   63.8881169
  22.8109856   63.8881064
  22.8109164   63.8880924
  22.8108337   63.8880736
  22.810714    63.8880734
  22.8106856   63.8880586
  22.8106832   63.8880465
  22.8107412   63.8880387
  22.8108448   63.8880464
  22.810974    63.8880651
  22.8110995   63.888075
  22.8112214   63.888087
  22.8112423   63.8880668
  22.8112049   63.8880628
  22.8112142   63.8880322
  22.8112336   63.8879709
  22.8112417   63.8879174
  22.8111482   63.8879085
  22.8111549   63.8878824
  22.8111549   63.8878386
  22.8110805   63.8878216
  22.8110927   63.8877955
  22.8111389   63.887759
  22.8112007   63.8877525
  22.8113007   63.8877531
  22.8112798   63.8876918
  22.8112287   63.8876489
  22.8112304   63.8876166
  22.8113473   63.8875722
  22.8113894   63.8874815
  22.8114103   63.8874484
  22.8112957   63.8874181
  22.81115     63.8874153
  22.8110589   63.8874511
  22.8108668   63.8874901
  22.8107539   63.8875015
  22.8105027   63.8875049
  22.8103751   63.8875224
  22.8102524   63.8875235
  22.810179    63.8874855
  22.8101679   63.8873805
  22.8102001   63.8872428
  22.8101952   63.8871753
  22.8101207   63.8870763
  22.8100695   63.8869297
  22.8100747   63.8868623
  22.8101255   63.8868194
  22.8101307   63.8868163
  22.8102885   63.8867724
  22.8104991   63.886773
  22.8106528   63.8867786
  22.8108281   63.8868152
  22.8111395   63.8868625
  22.8112333   63.8869044
  22.8112192   63.8869272
  22.811198    63.8869563
  22.8112131   63.8869857
  22.8112123   63.8870047
  22.8111783   63.8870234
  22.8111377   63.8870406
  22.8111431   63.887067
  22.8112617   63.8870827
  22.8113704   63.8870954
  22.8113873   63.8870897
  22.8114122   63.8870533
  22.811427    63.8870198
  22.8113608   63.8870178
  22.8112981   63.8870113
  22.8112927   63.8869849
  22.8113202   63.8869647
  22.8113839   63.8869671
  22.8115286   63.8869598
  22.8117289   63.88696
  22.8117878   63.8869767
  22.811833    63.8870034
  22.8119177   63.8870349
  22.8120254   63.8870695
  22.8120679   63.8870816
  22.8121404   63.8870925
  22.8121964   63.8870989
  22.8122818   63.8871143
  22.8123736   63.8871371
  22.8124254   63.8871624
  22.8124948   63.8871675
  22.8125616   63.8871564
  22.812612    63.8871422
  22.812583    63.8871229
  22.8125078   63.8871017
  22.8124028   63.8870788
  22.8122912   63.8870559
  22.81213     63.8870295
  22.8120118   63.8870065
  22.81192     63.8869852
  22.8118584   63.8869353
  22.8118577   63.8868997
  22.8118107   63.8868542
  22.8117165   63.8868019
  22.8116144   63.8867728
  22.8114339   63.8868206
  22.8114021   63.8868216
  22.8114025   63.8868089
  22.8114053   63.8867701
  22.8115028   63.8867473
  22.8116089   63.8867238
  22.8115646   63.8866682
  22.8116977   63.8866163
  22.8118428   63.8865518
  22.8119489   63.8865084
  22.8121192   63.8864856
  22.8122323   63.8864686
  22.812227    63.8864119
  22.8123265   63.8863738
  22.8125009   63.8863782
  22.8125319   63.8864407
  22.8125628   63.8865083
  22.8125999   63.886548
  22.8125879   63.8865918
  22.8126336   63.8866068
  22.8126969   63.8866001
  22.8127343   63.8865799
  22.8128803   63.8865768
  22.8130122   63.8865898
  22.8131582   63.886607
  22.8132398   63.8865401
  22.8131942   63.886482
  22.8130084   63.8864318
  22.8128531   63.8864161
  22.812687    63.8863788
  22.8127567   63.8863245
  22.8128421   63.886259
  22.8129103   63.8862186
  22.8130117   63.8861756
  22.8131303   63.8861573
  22.8131221   63.8861032
  22.8130248   63.8860809
  22.8128548   63.8860715
  22.8129026   63.8860248
  22.8130047   63.8859924
  22.8131302   63.8859939
  22.8132779   63.8860203
  22.8133468   63.8860245
  22.8135459   63.8860195
  22.8136914   63.8860267
  22.8138073   63.8860238
  22.813839    63.8859885
  22.813904    63.8859452
  22.814027    63.8859361
  22.8142464   63.8859244
  22.8144642   63.8859258
  22.81475     63.8859659
  22.8149289   63.8860052
  22.81498     63.8860398
  22.8150932   63.8860277
  22.8152497   63.8860115
  22.8152743   63.885981
  22.8152308   63.8859206
  22.8153246   63.8858686
  22.815327    63.8858
  22.8153014   63.8857559
  22.815294    63.8857017
  22.8152994   63.8856564
  22.8153644   63.8856131
  22.8154933   63.8856205
  22.8155575   63.88564
  22.8156604   63.8856693
  22.8157272   63.88565
  22.815719    63.8856119
  22.8157842   63.8855642
  22.8159084   63.8855495
  22.8160519   63.8855282
  22.8160581   63.8854748
  22.816089    63.8854236
  22.8162879   63.8853352
  22.8163444   63.8852781
  22.8164921   63.8851871
  22.8167012   63.8851485
  22.8168521   63.8851217
  22.8170538   63.8851309
  22.8172077   63.8851487
  22.8173968   63.8851661
  22.8175504   63.8851412
  22.8176216   63.8851053
  22.8176639   63.8850515
  22.8176499   63.8849972
  22.8175588   63.8849613
  22.8173944   63.884932
  22.8172591   63.8849205
  22.81724     63.8849028
  22.8172877   63.8848754
  22.8173847   63.8848573
  22.8173969   63.8848076
  22.8173522   63.8847004
  22.8173895   63.8845979
  22.8173957   63.8845486
  22.8174316   63.8845041
  22.817524    63.8844971
  22.8176535   63.8845132
  22.8178375   63.8845749
  22.8179609   63.884638
  22.8180097   63.8847351
  22.8179897   63.8847634
  22.8178933   63.8848397
  22.8179055   63.884864
  22.8180811   63.8848751
  22.8184651   63.8848837
  22.8186507   63.8849277
  22.8189308   63.8849581
  22.8189723   63.8849626
  22.8191056   63.8849805
  22.8190726   63.8850404
  22.8190274   63.8851381
  22.8190083   63.8852378
  22.819051    63.8852847
  22.8191855   63.8853126
  22.8193534   63.8853116
  22.8255699   63.8787252
  22.8256202   63.8786719
  22.8300405   63.8781995
  22.8317164   63.8778937
  22.8320376   63.8756009
  22.8325178   63.8722702
  22.8327012   63.8712359
  22.8330135   63.8709048
  22.8346361   63.8691848
  22.8347697   63.8691829
  22.8350753   63.8692121
  22.8352127   63.869226
  22.8353545   63.8692204
  22.8356281   63.8691948
  22.8358614   63.8691374
  22.8361558   63.8690354
  22.8364244   63.8689329
  22.8366956   63.8687649
  22.8368404   63.8686123
  22.8369058   63.8684389
  22.8370966   63.8683191
  22.8371577   63.868298
  22.837254    63.868209
  22.8373645   63.8681658
  22.8374179   63.8681515
  22.8374475   63.8680336
  22.8374      63.8679488
  22.8375257   63.8678733
  22.8376396   63.8677838
  22.8377357   63.8676575
  22.8378319   63.8673888
  22.8378995   63.867271
  22.8380206   63.8671583
  22.8382112   63.8670691
  22.838395    63.8669996
  22.8384364   63.8668752
  22.8385867   63.8667831
  22.8387209   63.8666747
  22.8389456   63.8666141
  22.8391246   63.8665923
  22.8391903   63.8665721
  22.839189    63.8665382
  22.8392044   63.8664987
  22.8392818   63.8664568
  22.8393688   63.8664252
  22.8395347   63.8664187
  22.8396512   63.8663989
  22.8397871   63.8663967
  22.839884    63.8663787
  22.8399604   63.8663596
  22.8400015   63.8663428
  22.8400448   63.8663018
  22.8401161   63.8662336
  22.8401863   63.8662136
  22.8402941   63.8661456
  22.8403827   63.8660513
  22.84052     63.8658697
  22.8405791   63.8657622
  22.8406409   63.8656267
  22.8407797   63.8654381
  22.8407545   63.8653869
  22.8406893   63.8653458
  22.8405742   63.8653194
  22.8404918   63.8652727
  22.8403678   63.8652573
  22.840244    63.8652202
  22.8403473   63.8650956
  22.8403198   63.8650695
  22.8402155   63.8650658
  22.8401296   63.8651805
  22.8401008   63.8652074
  22.8399966   63.8651895
  22.8400122   63.8651057
  22.8400568   63.8650037
  22.840003    63.864951
  22.8399116   63.864899
  22.839826    63.8648743
  22.8397609   63.8648303
  22.8396102   63.8648106
  22.8394747   63.8647472
  22.8394186   63.8647367
  22.8393552   63.8647553
  22.8391242   63.8648445
  22.8390364   63.8649068
  22.8389241   63.8649583
  22.838848    63.8649724
  22.84113     63.8626681
  22.8418103   63.8619811
  22.8431586   63.8606195
  22.8464469   63.8573021
  22.8472146   63.8565275
  22.8483009   63.8554315
  22.8617334   63.8423711
  22.8647238   63.8394582
  22.8650731   63.8391179
  22.8660019   63.8382131
  22.8671622   63.8370827
  22.8704959   63.8345778
  22.8707886   63.8343578
  22.8712557   63.834053
  22.8712049   63.8340583
  22.8711825   63.8340232
  22.8712515   63.8339652
  22.8712915   63.8338827
  22.8712848   63.8338073
  22.8712278   63.8337361
  22.871143    63.833662
  22.8711443   63.8335963
  22.8711783   63.8335331
  22.8712486   63.8334763
  22.8711863   63.8334222
  22.871292    63.8333771
  22.8713418   63.8333378
  22.8714041   63.8333079
  22.8715066   63.8333133
  22.8715969   63.8332767
  22.8716378   63.8332243
  22.8716341   63.8331906
  22.8716322   63.8331791
  22.8716736   63.8331093
  22.8716943   63.8330729
  22.8715982   63.8330504
  22.8715701   63.8329994
  22.8715385   63.8329307
  22.871553    63.8328787
  22.8715463   63.8328237
  22.8715628   63.8327695
  22.8715655   63.8327636
  22.8715864   63.8327186
  22.8715587   63.8326768
  22.8715065   63.8326387
  22.8714597   63.8326254
  22.8714007   63.8326264
  22.8713458   63.8326328
  22.8712933   63.8326582
  22.8712356   63.83269
  22.8711501   63.8327364
  22.871047    63.8327703
  22.8709012   63.8327595
  22.8707436   63.8327223
  22.8706411   63.8326943
  22.8706091   63.8326858
  22.8704645   63.832654
  22.8702475   63.832604
  22.8702001   63.8325203
  22.8702051   63.8324751
  22.8702936   63.832419
  22.8704082   63.8323761
  22.870512    63.8323315
  22.8706444   63.8322969
  22.8707438   63.8321744
  22.870785    63.8320959
  22.8707214   63.8320645
  22.8707979   63.8320286
  22.8707773   63.831967
  22.8707392   63.8319298
  22.8707351   63.8318825
  22.8707171   63.8317993
  22.8707486   63.831728
  22.8707759   63.8316916
  22.8707887   63.8316878
  22.870869    63.8316716
  22.8709657   63.831637
  22.871037    63.8315834
  22.871038    63.8315226
  22.8710019   63.8314705
  22.8709164   63.8314523
  22.8708457   63.831451
  22.8706923   63.8314692
  22.8706633   63.8314426
  22.8709495   63.8313843
  22.8709459   63.8312965
  22.8710302   63.8312931
  22.871026    63.8312597
  22.8709346   63.8312587
  22.8708982   63.8308878
  22.8709592   63.8308874
  22.8709669   63.8308595
  22.8709149   63.8308288
  22.8708657   63.8307948
  22.8709051   63.8307651
  22.8709937   63.8307295
  22.8710294   63.8306798
  22.8710687   63.8306318
  22.8711526   63.8305708
  22.8711421   63.830477
  22.8711928   63.830421
  22.8713085   63.8303577
  22.8713945   63.8303021
  22.8712975   63.8302714
  22.8711937   63.8302535
  22.8711124   63.8302338
  22.8711692   63.8302092
  22.8712717   63.8302184
  22.8713278   63.8302103
  22.8714472   63.8302116
  22.8715516   63.8301993
  22.8715691   63.8301467
  22.8715626   63.8300943
  22.8714969   63.8300706
  22.8714287   63.8300105
  22.8714682   63.8299259
  22.8714355   63.8298588
  22.8714334   63.8298063
  22.8714946   63.8297322
  22.8715935   63.829753
  22.8717163   63.8296941
  22.8716213   63.829653
  22.8716831   63.8296304
  22.8717985   63.8295806
  22.8718205   63.829558
  22.8717982   63.8295186
  22.8717556   63.8294994
  22.8716487   63.8294482
  22.8715454   63.8293991
  22.8714453   63.8293797
  22.8713695   63.8294268
  22.8712457   63.8294604
  22.8711164   63.8294612
  22.8709726   63.829438
  22.8708491   63.8294017
  22.8707156   63.8293708
  22.8708959   63.8291436
  22.8712562   63.828733
  22.8802697   63.8194741
  22.8798426   63.8193326
  22.8806162   63.8186178
  22.8809102   63.8188218
  22.8811312   63.8186084
  22.8810453   63.8185137
  22.8808308   63.8184474
  22.8816247   63.8180687
  22.8867992   63.8125481
  22.8840419   63.8107185
  22.883778    63.8106181
  22.8804875   63.8085143
  22.8788073   63.807525
  22.8778052   63.8043373
  22.8719688   63.8024996
  22.8639007   63.7907888
  22.8598881   63.7847135
  22.8830195   63.7823247
  22.8833199   63.7820972
  22.8832984   63.7820024
  22.8830409   63.7819929
  22.8831053   63.7818697
  22.8833413   63.7818697
  22.8834057   63.7816517
  22.8833842   63.781519
  22.8835344   63.7814052
  22.8840065   63.7813294
  22.884264    63.7812156
  22.8843284   63.7811587
  22.884543    63.7811777
  22.8849013   63.7814009
  22.8848798   63.7815336
  22.8851223   63.7815284
  22.885309    63.7814199
  22.8856373   63.7813104
  22.8859377   63.7812535
  22.8860664   63.7811682
  22.8862166   63.7811872
  22.8862531   63.7812682
  22.8864312   63.7812914
  22.8863454   63.781519
  22.8865964   63.7816569
  22.8867037   63.7817706
  22.886796    63.7819455
  22.9121375   63.7794238
  22.9190254   63.7787412
  22.9192615   63.778618
  22.9195554   63.7785094
  22.9198408   63.7782766
  22.9201198   63.7781913
  22.9203279   63.778225
  22.9204137   63.7783008
  22.9206133   63.7782766
  22.9239618   63.7789258
  22.9241045   63.778955
  22.9273403   63.77721
  22.9271901   63.7771479
  22.9255051   63.7765688
  22.9215378   63.7751098
  22.9221674   63.7747637
  22.9236987   63.7739515
  22.9279685   63.7727811
  22.9260844   63.7714088
  22.9268986   63.7703096
  22.9272504   63.7687861
  22.9304537   63.7673296
  22.9358959   63.7711621
  22.9345762   63.7723999
  22.9328221   63.7734792
  22.9313562   63.7738678
  22.9313686   63.7743836
  22.9336162   63.7749475
  22.9333103   63.7753148
  22.9321806   63.7755397
  22.9313636   63.7754817
  22.9311655   63.7760553
  22.9305584   63.7767201
  22.9315232   63.7771049
  22.9320134   63.7782973
  22.9335299   63.7785562
  22.9386011   63.7794221
  22.94134     63.7798898
  22.9487589   63.7811565
  22.950529    63.7814587
  22.9539766   63.7820473
  22.9629223   63.7835746
  22.9662527   63.7796941
  22.9829933   63.7825089
  22.9894197   63.783592
  22.9904403   63.7847755
  22.9868364   63.7855021
  22.9868472   63.7856538
  22.9886188   63.7879503
  23.0037979   63.7904328
  23.004692    63.790579
  23.0050585   63.7906418
  23.0112948   63.7917103
  23.0297604   63.788309
  23.0382596   63.7856486
  23.0386679   63.7855208
  23.0388619   63.785461
  23.0468756   63.7829514
  23.0537882   63.7807873
  23.0551318   63.7803591
  23.0551711   63.7803466
  23.0573415   63.7796767
  23.0614549   63.7783881
  23.0737483   63.7738614
  23.0744151   63.7737264
  23.0860348   63.7694552
  23.0902782   63.7678618
  23.0901486   63.7677937
  23.1204608   63.7566477
  23.1247546   63.7550685
  23.1580335   63.743724
  23.1663052   63.7409284
  23.1698911   63.743114
  23.1740052   63.742552
  23.1811283   63.74407
  23.1809891   63.7443665
  23.1831309   63.7446444
  23.1858197   63.7412367
  23.1864084   63.7404906
  23.189095    63.7387451
  23.1806678   63.7380314
  23.1760941   63.7406828
  23.1704915   63.7418075
  23.1690938   63.7399603
  23.1738716   63.7383362
  23.1861576   63.7325963
  23.1904478   63.7328671
  23.1950298   63.7284323
  23.1998956   63.7293018
  23.2014433   63.7284716
  23.2025981   63.7280179
  23.2057394   63.7267836
  23.2134817   63.7221099
  23.2149029   63.7230363
  23.2241087   63.7187647
  23.2300789   63.718655
  23.2355873   63.7170999
  23.2344155   63.7166056
  23.2371617   63.7154002
  23.2357725   63.7140212
  23.2399769   63.7135805
  23.2409871   63.7154196
  23.2375794   63.7155926
  23.2390097   63.7160461
  23.2418164   63.7167849
  23.2483967   63.7169216
  23.2482998   63.7185135
  23.2472888   63.7198539
  23.2457093   63.7203552
  23.2456453   63.7204769
  23.2489941   63.7218571
  23.2499258   63.7214457
  23.2599698   63.7302428
  23.2609481   63.7300684
  23.2620871   63.7318765
  23.2633192   63.7324516
  23.262993    63.7329263
  23.2650192   63.7369127
  23.265585    63.7414783
  23.2751541   63.7459585
  23.2783094   63.7442994
  23.2784071   63.744304
  23.2799795   63.7443774
  23.2807441   63.744413
  23.2808502   63.744418
  23.2829334   63.7456088
  23.2838188   63.7461149
  23.2832849   63.7469533
  23.281916    63.7491027
  23.2854039   63.7507133
  23.2917805   63.7508628
  23.2934966   63.7509577
  23.2944401   63.7512548
  23.2944154   63.7512749
  23.2944003   63.751287
  23.2943623   63.7513183
  23.292656    63.7527121
  23.2916184   63.753611
  23.297486    63.7545631
  23.2978912   63.7545635
  23.2981076   63.7545637
  23.3000254   63.7545654
  23.301508    63.7539249
  23.3034099   63.7544374
  23.3036279   63.7549668
  23.3029415   63.7556068
  23.3182966   63.7582298
  23.3234635   63.7622086
  23.3263061   63.762238
  23.3276583   63.7598293
  23.3363559   63.7612772
  23.336934    63.7612532
  23.3366316   63.75996
  23.3369702   63.759962
  23.3377902   63.7599148
  23.347424    63.7587066
  23.3515691   63.7581902
  23.3610319   63.7570442
  23.3732147   63.7581076
  23.3725424   63.7596432
  23.364912    63.7589728
  23.3636073   63.7612143
  23.3689128   63.7623832
  23.374465    63.7600274
  23.3770058   63.760591
  23.3803092   63.758724
  23.3918587   63.7593007
  23.404825    63.7503614
  23.4211533   63.7532591
  23.4382079   63.7415002
  23.4270649   63.7379684
  23.430054    63.7361313
  23.4393555   63.7407134
  23.4443406   63.7372217
  23.4481867   63.7375879
  23.452938    63.7399277
  23.4578612   63.7416012
  23.4578607   63.7417902
  23.4578088   63.7422302
  23.4557583   63.743319
  23.4563685   63.7435363
  23.4577303   63.7428025
  23.4560374   63.7559634
  23.4587797   63.7565452
  23.455681    63.7586874
  23.4553326   63.7614142
  23.4776343   63.7791327
  23.4842819   63.7768226
  23.4875072   63.7755609
  23.5209563   63.7618159
  23.5310226   63.7577358
  23.5494606   63.7505049
  23.5663233   63.7442276
  23.5803573   63.7390822
  23.5978326   63.7296158
  23.6011892   63.7282848
  23.6186818   63.7214776
  23.6225572   63.7202444
  23.6778509   63.7021062
  23.6830443   63.7004428
  23.6863432   63.6992614
  23.7440812   63.675437
  23.7404736   63.6736991
  23.7048522   63.656542
  23.6498714   63.6710868
  23.6421151   63.6657793
  23.6414191   63.6660386
  23.6359037   63.6634837
  23.610713    63.6502919
  23.5995824   63.6480752
  23.5739731   63.6429749
  23.5721465   63.6424288
  23.5608536   63.6391012
  23.5636678   63.6381984
  23.5631      63.6377472
  23.5614407   63.6375376
  23.5611293   63.6381018
  23.5588903   63.6374296
  23.5581407   63.6376163
  23.5578887   63.639249
  23.5573978   63.6397114
  23.556341    63.6400715
  23.5549664   63.6403588
  23.5535022   63.6435219
  23.5528952   63.6435764
  23.5529376   63.6437591
  23.5528604   63.6438674
  23.5522641   63.644092
  23.5517141   63.6444623
  23.55011     63.6449432
  23.5498111   63.645148
  23.5492063   63.6452036
  23.5487228   63.6450988
  23.5482852   63.6446172
  23.5475956   63.6443877
  23.5477395   63.6442744
  23.5497816   63.6440294
  23.5510822   63.6437275
  23.5513978   63.6435904
  23.5516716   63.6426424
  23.5550322   63.637316
  23.5558281   63.6364797
  23.5555597   63.635588
  23.5538761   63.6360349
  23.5495179   63.6347178
  23.5464881   63.6337255
  23.54646     63.633977
  23.5467237   63.634289
  23.5466593   63.6344157
  23.5475964   63.6350514
  23.5476682   63.6352124
  23.5427314   63.6334923
  23.5321178   63.6340654
  23.5246007   63.6367082
  23.5188753   63.640403
  23.5165804   63.6419856
  23.503832    63.6483049
  23.5034216   63.648355
  23.5025633   63.6483547
  23.5011539   63.6484524
  23.499865    63.6487664
  23.4984654   63.6493665
  23.4966796   63.6504767
  23.4952264   63.6512813
  23.494567    63.6515777
  23.4932065   63.6520679
  23.4916998   63.6525568
  23.490556    63.6527739
  23.4900892   63.6527993
  23.4894283   63.6526093
  23.4883081   63.6520457
  23.4874482   63.6514485
  23.483631    63.6501411
  23.4833349   63.6499395
  23.4830756   63.649535
  23.483049    63.6492631
  23.483156    63.6489479
  23.483599    63.6483791
  23.4847198   63.6477206
  23.486802    63.6469167
  23.4872672   63.6464564
  23.4872554   63.6455757
  23.4856629   63.6446015
  23.4852087   63.6440821
  23.4853925   63.643384
  23.4865604   63.6418519
  23.4870828   63.6407177
  23.4869968   63.6406883
  23.4866988   63.6405866
  23.4863851   63.6407201
  23.486183    63.6409464
  23.4857639   63.6419773
  23.4849605   63.6430194
  23.4844908   63.6434637
  23.4843598   63.6438486
  23.4844442   63.6441777
  23.4849478   63.6447194
  23.4866279   63.645619
  23.4867079   63.6460882
  23.4865938   63.646521
  23.4863463   63.6467567
  23.4859578   63.6469634
  23.484213    63.6475908
  23.4836436   63.6478764
  23.4829318   63.6484131
  23.4825288   63.6491009
  23.4825002   63.6494554
  23.4829934   63.6501876
  23.4834409   63.6504541
  23.4838459   63.6506059
  23.485371    63.6510541
  23.487182    63.6516591
  23.4882344   63.6524343
  23.4890684   63.6528297
  23.48992     63.6530269
  23.4907046   63.6530569
  23.4922112   63.6526968
  23.4936645   63.6521747
  23.4948744   63.65174
  23.4950732   63.6516686
  23.4964396   63.651007
  23.4968118   63.6507168
  23.4969297   63.6506248
  23.4975882   63.6502421
  23.4980044   63.6498931
  23.4982462   63.6498546
  23.4983223   63.6497616
  23.4986249   63.6496683
  23.4995682   63.6491739
  23.4999569   63.6490367
  23.5007298   63.6488049
  23.5015845   63.648664
  23.5025632   63.6487053
  23.5029723   63.6487676
  23.5031181   63.6488398
  23.5032176   63.6490058
  23.5031735   63.6498147
  23.5028862   63.6505018
  23.501866    63.6523725
  23.5016825   63.6542165
  23.501551    63.654695
  23.5013784   63.6549452
  23.5003551   63.6557739
  23.4994446   63.6562286
  23.4984386   63.6565114
  23.4975879   63.656622
  23.4954959   63.6567971
  23.4946287   63.6567959
  23.4934028   63.6569377
  23.4923074   63.6570644
  23.4917532   63.6571285
  23.4907684   63.657324
  23.4879547   63.6580651
  23.486315    63.6584338
  23.4847782   63.6586758
  23.4817049   63.6589593
  23.4805528   63.6591276
  23.4747512   63.6603994
  23.4733948   63.6606062
  23.4708616   63.6610831
  23.4689036   63.6615974
  23.4687332   63.6616157
  23.4680567   63.6615296
  23.4679498   63.6615055
  23.4676792   63.6607545
  23.4734364   63.6595119
  23.4730875   63.6577254
  23.4736713   63.6575871
  23.4750741   63.657422
  23.4754857   63.6574202
  23.4757515   63.6572441
  23.4766937   63.6569503
  23.4772599   63.6569267
  23.4773775   63.6568351
  23.4774113   63.6566062
  23.4777029   63.6564607
  23.4779103   63.6562383
  23.4783062   63.6560721
  23.4784008   63.6558989
  23.4788454   63.655815
  23.4788782   63.6556133
  23.4792499   63.6554882
  23.4794707   63.6553394
  23.4794733   63.6552541
  23.4793264   63.6551672
  23.4782903   63.6551596
  23.478674    63.6546057
  23.4793546   63.6532982
  23.479671    63.6529036
  23.4806278   63.6495755
  23.4815141   63.6478805
  23.4840502   63.6460461
  23.483217    63.6454752
  23.4829132   63.6445402
  23.4847295   63.6428719
  23.4840318   63.6427294
  23.4849131   63.6399767
  23.4532301   63.6290629
  23.4563304   63.62691
  23.4531454   63.6240307
  23.4582346   63.6229124
  23.4605761   63.6243871
  23.4671588   63.6202722
  23.4654029   63.6176573
  23.464588    63.6184883
  23.4636274   63.6183711
  23.4643054   63.6170643
  23.464797    63.6167548
  23.464468    63.6162649
  23.4609035   63.6151014
  23.4540319   63.6148341
  23.4562993   63.6128619
  23.4572355   63.6130021
  23.4578444   63.6128435
  23.4600546   63.6125603
  23.4577162   63.6102334
  23.4536591   63.6110496
  23.452969    63.6116086
  23.4493778   63.6139605
  23.4397152   63.616218
  23.4336193   63.6175918
  23.4301488   63.6170907
  23.4224072   63.6160135
  23.4231364   63.6156833
  23.4417363   63.6076441
  23.4453613   63.605313
  23.4484106   63.604791
  23.4571672   63.60099
  23.4666215   63.5968954
  23.4728367   63.5942054
  23.4816827   63.5903931
  23.4794782   63.5893807
  23.48221     63.5881723
  23.4837076   63.5875264
  23.4860651   63.5884927
  23.4909645   63.5863753
  23.4941409   63.5890525
  23.4958548   63.5905668
  23.4960039   63.5905175
  23.4968935   63.5902233
  23.4972044   63.5905617
  23.4982451   63.5903707
  23.5031313   63.5904726
  23.5054685   63.5905214
  23.5075893   63.5945612
  23.527611    63.5903738
  23.5283631   63.5906515
  23.5269516   63.5928729
  23.5327681   63.5961436
  23.5330969   63.5963285
  23.5363947   63.5969618
  23.5360111   63.598669
  23.538703    63.6001961
  23.5407001   63.5982738
  23.5449805   63.601042
  23.5478593   63.6001284
  23.5483086   63.6003344
  23.5493858   63.5992388
  23.5565933   63.6041334
  23.5636478   63.600456
  23.5660474   63.5978432
  23.5677235   63.5933878
  23.5695263   63.5889223
  23.5706019   63.5884145
  23.5751734   63.5864817
  23.5770103   63.5868678
  23.5776884   63.5864388
  23.5778922   63.5863641
  23.5783806   63.5860682
  23.5786727   63.5859124
  23.5788322   63.5854294
  23.5795637   63.5852674
  23.5771298   63.5840792
  23.5726349   63.5844918
  23.571671    63.5824729
  23.5739901   63.582255
  23.5727896   63.5801397
  23.5755529   63.5800748
  23.5752961   63.5799507
  23.5633168   63.574162
  23.563638    63.5745324
  23.5636874   63.5746766
  23.5638588   63.5748733
  23.5641373   63.5750608
  23.5646101   63.5751979
  23.5646841   63.5753634
  23.5644856   63.5757036
  23.5644137   63.5762493
  23.5642792   63.5766811
  23.5640415   63.5769034
  23.5638817   63.5771416
  23.5633806   63.5773899
  23.5630329   63.5773975
  23.5627197   63.5774405
  23.5625728   63.577558
  23.5622176   63.5776157
  23.5618104   63.5777338
  23.5612552   63.5777489
  23.560884    63.5778358
  23.560356    63.577833
  23.5600921   63.5778195
  23.5597594   63.577697
  23.5594964   63.5776589
  23.5594256   63.5775588
  23.5592575   63.5774448
  23.5589571   63.5774161
  23.5588158   63.5773499
  23.555505    63.577442
  23.5559991   63.5675932
  23.5608013   63.5681436
  23.5627497   63.5684191
  23.5663696   63.5688394
  23.5714111   63.569391
  23.5780092   63.5701735
  23.5779739   63.5700051
  23.5780007   63.569805
  23.5779658   63.5696117
  23.5785606   63.569282
  23.5785956   63.5688303
  23.5789288   63.5682546
  23.5800332   63.5674228
  23.5803604   63.567019
  23.5809607   63.5666834
  23.5812797   63.5666148
  23.5815598   63.5664713
  23.5815819   63.5662953
  23.5818874   63.5660536
  23.5819668   63.5658882
  23.5748744   63.5630594
  23.5785371   63.5625173
  23.5806212   63.5625611
  23.5820562   63.5616927
  23.5824575   63.5615508
  23.5842406   63.5604856
  23.587035    63.5589043
  23.5872409   63.5583056
  23.5842523   63.5575702
  23.578849    63.5550406
  23.5787295   63.553411
  23.5786215   63.553411
  23.5801387   63.5529637
  23.5932604   63.5488955
  23.6077557   63.5443812
  23.6111325   63.5433294
  23.6207843   63.5403395
  23.6295174   63.5376536
  23.6312469   63.5370967
  23.6415455   63.5338722
  23.65103     63.5309349
  23.6578351   63.4876349
  23.657755    63.4829701
  23.6577292   63.4804217
  23.6575082   63.4675219
  23.6574124   63.4612519
  23.6608621   63.4613499
  23.667651    63.4513908
  23.6601518   63.4497458
  23.6626832   63.4427776
  23.6639704   63.4394827
  23.6642913   63.4382553
  23.6651548   63.43602
  23.6600283   63.4348273
  23.6668855   63.4276878
  23.6714675   63.4229162
  23.6758814   63.4183745
  23.6857149   63.4081
  23.7064017   63.3865569
  23.7099299   63.3828769
  23.6969889   63.3803207
  23.6983709   63.3789388
  23.7041408   63.3730822
  23.7118055   63.3653607
  23.7185389   63.3585282
  23.7195249   63.3575395
  23.7296315   63.3472324
  23.732657    63.3446719
  23.7476355   63.3323451
  23.7569396   63.3246103
  23.7707455   63.3130872
  23.77988     63.3093276
  23.7999923   63.3009903
  23.7991769   63.3004408
  23.79937     63.3001805
  23.8001639   63.3000648
  23.8008935   63.2998044
  23.800636    63.2993995
  23.8014299   63.2967383
  23.8007862   63.2966708
  23.8004643   63.2969794
  23.7982757   63.2969119
  23.7982746   63.2965575
  23.8006789   63.2961983
  23.8034244   63.2970011
  23.8037474   63.2982039
  23.8043482   63.299197
  23.8106353   63.2965455
  23.8154407   63.2945325
  23.8156349   63.2937876
  23.8163849   63.2937032
  23.8172217   63.2925845
  23.8184888   63.2922446
  23.8186175   63.2924182
  23.8166434   63.294048
  23.8325006   63.2874801
  23.8328429   63.2873668
  23.8267918   63.2877719
  23.8257844   63.2882131
  23.8238103   63.2890041
  23.8225647   63.2894019
  23.8201839   63.2910294
  23.8197966   63.2908197
  23.8216216   63.2891005
  23.8233597   63.2888787
  23.824218    63.2882421
  23.8258273   63.2875573
  23.8254625   63.2869399
  23.8271148   63.2853676
  23.8271148   63.2847985
  23.8285943   63.2827944
  23.8295395   63.2824929
  23.829282    63.2824061
  23.831814    63.280274
  23.8322217   63.2799845
  23.8349897   63.2786145
  23.8356978   63.2791548
  23.8354618   63.2792706
  23.832801    63.2803029
  23.8309771   63.2824929
  23.8287241   63.2839882
  23.8282306   63.2843934
  23.8270075   63.286911
  23.8278443   63.2871618
  23.8313848   63.2871811
  23.8371044   63.2853599
  23.8383961   63.2849967
  23.846181    63.2817467
  23.8531075   63.2788128
  23.8515036   63.2782599
  23.8541235   63.2769202
  23.8567296   63.2777249
  23.8620056   63.2775805
  23.8805761   63.2772408
  23.8998644   63.2769369
  23.9104077   63.2767796
  23.9261597   63.2765471
  23.9559666   63.276014
  23.991743    63.2714972
  24.0072901   63.2695998
  24.0165888   63.2683808
  24.0520197   63.2581494
  24.0806378   63.2498137
  24.0970057   63.2450132
  24.1018101   63.2428242
  24.1067035   63.2406486
  24.1064761   63.2405047
  24.1064289   63.2402071
  24.1064932   63.2400815
  24.1067078   63.2399656
  24.1066896   63.2398042
  24.1092023   63.2393033
  24.1263716   63.2318024
  24.1537935   63.2195351
  24.1723007   63.2112844
  24.1862267   63.2021729
  24.1967946   63.1953505
  24.203292    63.1911042
  24.2192533   63.1806184
  24.22786     63.1750443
  24.2344432   63.1706929
  24.2144886   63.1630808
  24.1950737   63.1557249
  24.1851656   63.1620651
  24.1781597   63.1609205
  24.1795834   63.1579676
  24.1808044   63.1556072
  24.1749421   63.1539836
  24.177884    63.1518614
  24.1694554   63.1493286
  24.1707847   63.1479882
  24.1805125   63.1500613
  24.1837838   63.1507455
  24.1974497   63.1536408
  24.2031933   63.1548591
  24.2047878   63.1540284
  24.2358894   63.1374174
  24.2643144   63.1222266
  24.2568868   63.1329896
  24.2596914   63.1335054
  24.2765292   63.1363543
  24.3043652   63.1411171
  24.305074    63.1408562
  24.3134074   63.1377888
  24.3203366   63.1345402
  24.3219002   63.1338071
  24.3262525   63.1317664
  24.3317839   63.1291726
  24.336934    63.1267574
  24.3373026   63.1265845
  24.3548446   63.1183565
  24.3590031   63.1164238
  24.3641792   63.117695
  24.3699856   63.1190799
  24.399168    63.1260469
  24.4170916   63.1303091
  24.443035    63.1364909
  24.4587989   63.1402241
  24.4838904   63.1461756
  24.4930024   63.1483472
  24.5032592   63.150741
  24.5142745   63.1533571
  24.5284484   63.156686
  24.5297884   63.1570101
  24.5307755   63.1574946
  24.5322807   63.1566196
  24.5465039   63.1552369
  24.5676537   63.1531444
  24.5865869   63.1512736
  24.6091743   63.1490935
  24.6266913   63.1473969
  24.6476339   63.1453614
  24.6848684   63.1417428
  24.6943054   63.1408422
  24.6966787   63.1406119
  24.7006269   63.1402241
  24.7184872   63.1384979
  24.7381209   63.1366364
  24.7728062   63.133374
  24.739388    63.1445554
  24.7316021   63.1470373
  24.7321589   63.1490252
  24.7333573   63.1533668
  24.7348089   63.1585996
  24.7359891   63.1629494
  24.7378956   63.1697103
  24.7391005   63.1740585
  24.741404    63.1822394
  24.7432922   63.188957
  24.7451998   63.1956229
  24.7458242   63.1978753
  24.7498958   63.2028928
  24.7583941   63.2134642
  24.7601159   63.2157135
  24.7602653   63.2159087
  24.7605896   63.2163222
  24.7621761   63.218345
  24.7626546   63.2187983
  24.7612877   63.2228607
  24.7600078   63.2268331
  24.7577976   63.2337433
  24.7564673   63.2378017
  24.755051    63.2423522
  24.7549502   63.242942
  24.7549357   63.2429913
  24.7518238   63.2519755
  24.7666092   63.2553047
  24.7541498   63.2659145
  24.7844481   63.2720627
  24.8036092   63.2759222
  24.8021794   63.2788048
  24.7982966   63.2894648
  24.79262     63.3047074
  24.7896845   63.3127705
  24.7896195   63.3130397
  24.7894581   63.3134795
  24.7892657   63.3139397
  24.7883193   63.3165817
  24.7865711   63.3214102
  24.7825606   63.3322779
  24.7807928   63.3371225
  24.7763379   63.3492612
  24.7745129   63.3541766
  24.7729256   63.35868
  24.7774966   63.361256
  24.780252    63.3628086
  24.7835232   63.3646519
  24.785051    63.365509
  24.7931073   63.3700514
  24.8013031   63.3746095
  24.8137807   63.3815536
  24.820189    63.3851514
  24.825606    63.388198
  24.8406025   63.3965732
  24.8436847   63.3982905
  24.8452458   63.3991696
  24.8466861   63.3999843
  24.8563527   63.4053865
  24.8595285   63.4071636
  24.8606868   63.4078066
  24.8641955   63.4097545
  24.8662362   63.4108987
  24.8729502   63.4146721
  24.87486     63.415738
  24.8805677   63.4189355
  24.883722    63.4206733
  24.9012874   63.430542
  24.9026155   63.4312728
  24.9151468   63.4337776
  24.9253177   63.435812
  24.9369048   63.4381437
  24.9543714   63.4416361
  24.9714839   63.4450686
  24.9886393   63.4484853
  25.020697    63.4549302
  25.0363247   63.4580701
  24.9169928   63.5232392
  24.8202507   63.5865905
  24.7537843   63.6112098
  24.6374446   63.6448689
  24.6345947   63.6449841
  24.6191162   63.6494555
  24.6183222   63.6500537
  24.6187514   63.6508722
  24.6156541   63.6528349
  24.6150692   63.6532055
  24.6147259   63.6534669
  24.6119193   63.6552562
  24.6087392   63.6576224
  24.607529    63.6584207
  24.5983451   63.6645803
  24.598431    63.6658939
  24.5956415   63.666427
  24.5708879   63.6829844
  24.56191     63.6888628
  24.5550006   63.6959761
  24.5516189   63.6994561
  24.5307578   63.7208151
  24.5185655   63.7331685
  24.5172351   63.7347828
  24.5099395   63.7434414
  24.4986614   63.7566711
  24.4876321   63.7696291
  24.4825595   63.7758688
  24.4813579   63.7769687
  24.4753498   63.7839841
  24.4654792   63.7954514
  24.4593385   63.8025797
  24.458999    63.8029737
  24.444073    63.8203981
  24.44076     63.8242414
  24.4295033   63.8373102
  24.4293745   63.8357113
  24.4286664   63.8340176
  24.4300826   63.8317749
  24.4333142   63.8310368
  24.4323915   63.8294659
  24.4296664   63.8302419
  24.4277996   63.8320304
  24.4279927   63.8337715
  24.4266194   63.8348692
  24.4273275   63.8364303
  24.4278425   63.8366763
  24.4281      63.8373292
  24.4275206   63.8383699
  24.4255207   63.8400728
  24.4038551   63.843584
  24.356427    63.8510407
  24.314164    63.8576453
  24.2838969   63.8623844
  24.2834098   63.862538
  24.2710877   63.8674954
  24.2505825   63.875688
  24.2474703   63.8769312
  24.2456228   63.8801862
  24.2432078   63.8843023
  24.2439223   63.8843226
  24.2421263   63.8877119
  24.2414794   63.8876845
  24.2404194   63.8897277
  24.2330068   63.9032905
  24.2299439   63.9091503
  24.2289728   63.9108407
  24.2270201   63.910935
  24.2262991   63.9108312
  24.2204112   63.9147942
  24.2205056   63.9153132
  24.2217415   63.9156906
  24.2215999   63.9160963
  24.2224368   63.9163227
  24.2255063   63.9173171
  24.2235933   63.9207384
  24.2170423   63.9329226
  24.1828635   63.9378642
  24.1797918   63.9383532
  24.1521972   63.9616287
  24.1479057   63.9587273
  24.1366275   63.9571258
  24.1355117   63.9586708
  24.1478628   63.9605737
  24.147734    63.9614214
  24.1517895   63.9620346
  24.1270467   63.9828141
  24.0988893   64.0063035
  24.0988541   64.0067388
  24.09953     64.0066048
  24.0995514   64.0059395
  24.1011661   64.0055586
  24.1036498   64.0051025
  24.1063589   64.0049661
  24.1075015   64.005079
  24.1109562   64.0059489
  24.1113317   64.0071761
  24.1105592   64.0073478
  24.1104788   64.0083939
  24.1097385   64.0086055
  24.1075981   64.0103851
  24.1059458   64.0105238
  24.103902    64.0105426
  24.1032207   64.0108623
  24.1041595   64.0112337
  24.102062    64.0112454
  24.1005707   64.0114264
  24.0994549   64.0117485
  24.0986127   64.0113512
  24.0980065   64.0113606
  24.0926501   64.0407022
  24.0920094   64.0442099
  24.0870872   64.0711429
  24.0054703   64.0919255
  24.0105557   64.0856268
  23.9861896   64.0568759
  23.9639872   64.0658519
  23.9689547   64.0743222
  23.9701939   64.0750141
  23.9612675   64.0769887
  23.9478671   64.0723825
  23.9450133   64.0735318
  23.9150047   64.0669263
  23.9232981   64.0639046
  23.9313716   64.0615629
  23.9323103   64.0616462
  23.9322594   64.0615688
  23.932085    64.0614562
  23.9321494   64.0613471
  23.9320287   64.0612696
  23.932144    64.061225
  23.9322084   64.0611734
  23.9319724   64.0611136
  23.9319456   64.0610268
  23.9318597   64.0609939
  23.9315727   64.0609845
  23.9313984   64.060954
  23.9313501   64.0608848
  23.9313984   64.0607816
  23.9312509   64.0606959
  23.9311221   64.0606677
  23.9309612   64.0606936
  23.9307466   64.0606701
  23.9305186   64.0605727
  23.9303389   64.0605234
  23.9301753   64.0605481
  23.9301109   64.0605551
  23.9300707   64.0605141
  23.9301163   64.06048
  23.9301941   64.0604624
  23.9308137   64.0595966
  23.9116305   64.0626775
  23.9128072   64.0561459
  23.9142537   64.0481147
  23.9146507   64.0481381
  23.9149243   64.04809
  23.9153588   64.0479879
  23.9155009   64.047901
  23.9156243   64.0478447
  23.9158174   64.0478118
  23.9160669   64.0478165
  23.9165309   64.0479057
  23.916657    64.0479151
  23.9168501   64.0480114
  23.9176494   64.0480478
  23.9179739   64.0482074
  23.9182019   64.0482438
  23.9185318   64.0482391
  23.9188322   64.0482215
  23.9194438   64.0482227
  23.9198193   64.0481839
  23.9201304   64.0481663
  23.9206427   64.0481792
  23.9209807   64.0482051
  23.9214581   64.0482602
  23.9215761   64.0482555
  23.9216459   64.0482074
  23.9217263   64.0480912
  23.921847    64.0480572
  23.9217612   64.0480184
  23.9215064   64.0477109
  23.9244112   64.0460147
  23.9167884   64.043391
  23.9282173   64.0357614
  23.9272517   64.0350639
  23.9292473   64.0344838
  23.9276111   64.0333963
  23.9256746   64.0338942
  23.9223003   64.0313857
  23.9179712   64.0322642
  23.9121133   64.0279771
  23.9075804   64.0299575
  23.885023    64.0235566
  23.8933325   64.0204068
  23.8923508   64.0194433
  23.8918573   64.0197829
  23.8914898   64.0199638
  23.8912913   64.0199756
  23.8907844   64.0200285
  23.8905323   64.0199944
  23.8903365   64.0200238
  23.8905135   64.0202129
  23.8905215   64.0203093
  23.8904706   64.020341
  23.8904008   64.0203492
  23.8903016   64.0202975
  23.8900334   64.0202399
  23.88991     64.0202223
  23.8897088   64.0202082
  23.8896498   64.0201765
  23.8896283   64.0200778
  23.8897705   64.0199768
  23.8896123   64.0199568
  23.8893735   64.0199509
  23.8890302   64.0200073
  23.8887593   64.0200849
  23.8886869   64.0201765
  23.8885179   64.0201671
  23.8881478   64.0202258
  23.8879466   64.0202071
  23.8878259   64.0203198
  23.8878527   64.0204491
  23.8879064   64.0205302
  23.8878393   64.0206124
  23.8870159   64.0210554
  23.886922    64.0211587
  23.8868093   64.021154
  23.8866484   64.021107
  23.886458    64.0211117
  23.8862649   64.0211658
  23.8861576   64.0212539
  23.88623     64.0213268
  23.886407    64.0213632
  23.8864177   64.0213914
  23.8860878   64.0214995
  23.8855407   64.0218249
  23.8854226   64.0219448
  23.8854012   64.0220904
  23.8847601   64.021886
  23.8818097   64.0203645
  23.8802594   64.0149956
  23.8740528   64.0156667
  23.872937    64.0149204
  23.8785642   64.0121269
  23.879621    64.012409
  23.8985628   63.998937
  23.8964331   63.9981774
  23.903085    63.9947648
  23.9039755   63.9950847
  23.9282763   63.9777331
  23.9446431   63.9711638
  23.9378411   63.966526
  23.9241457   63.9738284
  23.923341    63.9734942
  23.9247197   63.9711897
  23.910622    63.9649767
  23.9064324   63.9670781
  23.908719    63.9680145
  23.9028543   63.9712839
  23.8935363   63.9675313
  23.8873404   63.9701327
  23.8873458   63.9701851
  23.8872841   63.9702822
  23.8870105   63.9704994
  23.8867275   63.9705988
  23.8864499   63.9706577
  23.8902694   63.9721925
  23.8889122   63.9728163
  23.8809836   63.9707813
  23.8789263   63.9738579
  23.8582438   63.9709084
  23.8571374   63.9710997
  23.8567297   63.9710502
  23.8567002   63.9708289
  23.8558835   63.9706777
  23.8503098   63.9723526
  23.8435399   63.9698526
  23.823925    63.9767011
  23.8283801   63.9797112
  23.8274279   63.9800547
  23.8229647   63.9770424
  23.7969071   63.986115
  23.7936884   63.9879783
  23.7939835   63.988103
  23.7783247   63.9969568
  23.7700581   63.9934617
  23.7597585   63.9910554
  23.7538254   63.9945978
  23.7516421   63.9937628
  23.7518513   63.9936052
  23.7512237   63.9931301
  23.7498665   63.9930548
  23.7484074   63.9926432
  23.7507838   63.9883877
  23.7433326   63.9833692
  23.7551665   63.9776461
  23.7461243   63.9737271
  23.7358326   63.9798183
  23.7353364   63.9801101
  23.7344964   63.9805881
  23.7340844   63.9808436
  23.732048    63.9820369
  23.7260968   63.985536
  23.7115645   63.9776365
  23.7027605   63.9853977
  23.6929972   63.9939983
  23.6870599   63.999252
  23.6782408   64.0070208
  23.6746788   64.0101522
  23.6688573   64.0151123
  23.6610961   64.0216591
  23.6567831   64.0252869
  23.654573    64.0271571
  23.6496098   64.0313249
  23.6465263   64.0340068
  23.6406255   64.039136
  23.6381096   64.0401317
  23.6311412   64.0428931
  23.6212921   64.0467999
  23.617197    64.0485222
  23.6163354   64.0488845
  23.6017013   64.0549779
  23.5845351   64.0621212
  23.561124    64.0718787
  23.5608823   64.0719794
  23.5605176   64.072092
  23.5574645   64.0733844
  23.5515976   64.0758676
  23.5459907   64.0782273
  23.5457137   64.0783449
  23.5422356   64.0798218
  23.5403259   64.0814538
  23.538738    64.0812756
  23.5379188   64.0816091
  23.5363434   64.0822506
  23.5357533   64.0824908
  23.5292602   64.0851344
  23.5239816   64.0870567
  23.5186386   64.0890352
  23.5071116   64.0943442
  23.5063434   64.094698
  23.503539    64.0971617
  23.5004854   64.0998442
  23.4922028   64.107154
  23.4695864   64.1094965
  23.4504247   64.1114828
  23.4120798   64.115408
  23.3842063   64.1182837
  23.356719    64.1210936
  23.3325791   64.123566
  23.3052206   64.1263566
  23.2775831   64.1291749
  23.238337    64.1331633
  23.1975181   64.1372966
  23.1583858   64.1412505
  23.1236029   64.1447505
  23.0905151   64.1480723
  23.0514987   64.1519788
  22.981596    64.1589518
  22.9326725   64.1638055
  22.8800798   64.169023
  22.7788929   64.1789752
  22.6877648   64.1581728
  22.5966375   64.1375005
  22.579417    64.1333313
  22.5635398   64.1291344
  22.5489042   64.1249122
  22.5316697   64.1194313
  22.4999998   64.1088395
  22.4550357   64.0937947
  22.4234856   64.0823767
  22.4115021   64.0778352
  22.3967908   64.0718931
  22.3857658   64.067059
  22.3746336   64.0617923
  22.3652261   64.0569797
  22.3558581   64.0519168
  22.3478158   64.0472802
  22.3399034   64.0424227
  22.287872    64.0093865
END
END
