polygon
1
  22.7788929   64.1789752
  22.8694475   64.1994198
  22.9611467   64.2200974
  22.965913    64.2461008
  22.9706794   64.2720798
  22.9754457   64.2980344
  22.9802121   64.3239646
  22.9849784   64.3498704
  23.0017803   64.3878964
  23.0151648   64.4040067
  23.0276623   64.4190409
  23.0625723   64.4456638
  23.0981799   64.4654203
  23.1409657   64.4837507
  23.2060016   64.5042666
  23.3109678   64.5312008
  23.4159341   64.5581085
  23.5209003   64.5849897
  23.6258665   64.6118443
  23.6907038   64.6287489
  23.835799    64.6654741
  23.8626586   64.7222273
  23.868524    64.733028
  23.8882983   64.7652798
  23.9082548   64.7977531
  23.928487    64.8306193
  23.943401    64.85478
  23.968583    64.8954549
  23.9888695   64.9281475
  24.0089643   64.9604749
  24.0385953   65.0079495
  24.0496998   65.0253865
  24.0697221   65.0575011
  24.0838675   65.0801661
  24.0943866   65.1118905
  24.099536    65.1274068
  24.105079    65.1440987
  24.1184654   65.1845537
  24.1203024   65.1900741
  24.126288    65.2080135
  24.1284767   65.2145896
  24.1332264   65.2288625
  24.1374975   65.2416396
  24.1478654   65.2725921
  24.1545056   65.2924777
  24.6180288   65.3687539
  25.0840225   65.5886878
  25.08533     65.5892915
  25.0893997   65.5894925
  25.0925287   65.5900068
  25.0933674   65.5911862
  25.0941016   65.5917898
  25.0940355   65.5924166
  25.1046111   65.5968752
  25.1144567   65.6010079
  25.115936    65.6027414
  25.1181838   65.6025308
  25.1294802   65.6073327
  25.1274411   65.6070849
  25.1257755   65.6072537
  25.1250782   65.608154
  25.1295423   65.6101185
  25.1328761   65.6103242
  25.1478166   65.6231301
  25.1625897   65.6359229
  25.1646243   65.6368186
  25.1873762   65.6477392
  25.1791552   65.6506693
  25.1890794   65.6554411
  25.1973261   65.6524957
  25.2266223   65.6664506
  25.225661    65.666848
  25.2258069   65.6683002
  25.2270809   65.6682787
  25.2275744   65.6700608
  25.2282933   65.6700862
  25.2290336   65.6685577
  25.2281297   65.6673957
  25.2271587   65.6671632
  25.2272338   65.666751
  25.230689    65.6683302
  25.3075515   65.6849888
  25.3599922   65.7273661
  25.3941313   65.7354006
  25.3915135   65.7372259
  25.3895608   65.7409289
  25.392801    65.7412287
  25.3941099   65.7379489
  25.394303    65.7375609
  25.3943674   65.7368732
  25.3991109   65.7376038
  25.4000778   65.7367826
  25.4246709   65.7425642
  25.7901626   65.7407153
  25.8286929   65.7493182
  25.8891222   65.7628118
  25.9391479   65.7739986
  25.9913807   65.7855564
  26.0598779   65.8005167
  26.160104    65.8223189
  26.1597196   65.798751
  26.1590767   65.7679164
  26.1582184   65.7255554
  26.2570516   65.7203085
  26.3425915   65.7157203
  26.3685701   65.7140885
  26.3687822   65.7134489
  26.5573888   65.7114636
  26.562648    65.7114057
  26.5635266   65.711396
  26.5674013   65.7113534
  26.5729725   65.711292
  26.5960119   65.7110383
  26.5967462   65.7110302
  26.597634    65.7109978
  26.6150736   65.7107865
  26.6598979   65.7102435
  26.6706791   65.7024897
  26.6723511   65.7012871
  26.6732217   65.7006608
  26.6743349   65.7016934
  26.6747766   65.7022041
  26.6754127   65.7056926
  26.675943    65.7092153
  26.6758919   65.7096323
  26.7505299   65.7054051
  26.7416261   65.7044765
  26.7434458   65.7028055
  26.7511375   65.703676
  26.7590014   65.7030942
  26.7584526   65.7049581
  26.8246041   65.7011416
  26.8397807   65.7037752
  26.8427692   65.7029349
  26.8481726   65.7044526
  26.8470123   65.7051027
  26.9591453   65.7249582
  26.9812918   65.7288412
  26.9833517   65.712988
  27.0226709   65.7139105
  27.0215079   65.7223809
  27.006791    65.7220495
  27.0055142   65.7331487
  27.0356526   65.7384041
  27.0493211   65.7328519
  27.0719989   65.7297822
  27.1010878   65.7419048
  27.0882231   65.7471316
  27.1102697   65.7510244
  27.1567871   65.7803725
  27.163501    65.7753407
  27.1792305   65.7792458
  27.1624199   65.7844021
  27.2263723   65.8248652
  27.2232116   65.8259197
  27.2264994   65.8291841
  27.2251878   65.8295625
  27.2264133   65.8306873
  27.2318788   65.8292311
  27.2316321   65.8281299
  27.2448211   65.8365012
  27.2374795   65.8370842
  27.2357028   65.8412984
  27.2470181   65.8433128
  27.2518357   65.8424203
  27.2523858   65.8413638
  27.2465775   65.8390844
  27.247146    65.8379744
  27.3306864   65.8905444
  27.3463075   65.8899133
  27.3466509   65.8929984
  27.3330896   65.8921571
  27.4067187   65.9382719
  27.4098886   65.9358072
  27.4082298   65.9352684
  27.4142908   65.9339095
  27.446999    65.9286214
  27.4494666   65.9286352
  27.449852    65.9305814
  27.4780697   65.9321298
  27.4815791   65.933385
  27.4971211   65.9316116
  27.5260798   65.921608
  27.5284158   65.9226993
  27.5269191   65.9231064
  27.5293021   65.9238182
  27.5302363   65.9238639
  27.5309793   65.9236947
  27.5318618   65.9238398
  27.5324056   65.9242763
  27.5329035   65.9244532
  27.5331908   65.9246355
  27.5349007   65.9249535
  27.5352336   65.9250782
  27.53667     65.925241
  27.5378026   65.9253151
  27.538649    65.9253191
  27.5394949   65.9254558
  27.5400694   65.9253321
  27.5405286   65.9253394
  27.5409312   65.9251368
  27.5420175   65.9249226
  27.5425371   65.9249535
  27.5435071   65.9251573
  27.5442265   65.925566
  27.5461501   65.9259571
  27.5470119   65.9259832
  27.5469321   65.9261134
  27.5475386   65.9262436
  27.5482089   65.9266798
  27.5487035   65.9267606
  27.5494831   65.9267925
  27.5507652   65.9267892
  27.5518869   65.9264657
  27.5526083   65.9260918
  27.5531755   65.9259489
  27.5556192   65.925819
  27.557451    65.9256681
  27.5591831   65.9257313
  27.5604797   65.9259831
  27.5626477   65.9264933
  27.5637366   65.9260189
  27.5678539   65.9270377
  27.5664848   65.9274058
  27.566813    65.9274971
  27.5672009   65.9280599
  27.5670641   65.9283814
  27.5658624   65.9300618
  27.5650041   65.9320921
  27.5648325   65.9332822
  27.5663774   65.9345422
  27.568094    65.9352422
  27.5674074   65.9359421
  27.5687807   65.9367821
  27.5703256   65.9370621
  27.5713556   65.937902
  27.5730722   65.9381819
  27.5741022   65.9388118
  27.5746172   65.9393717
  27.5732439   65.9391618
  27.5723856   65.9386019
  27.5713556   65.9383919
  27.5720423   65.9392318
  27.5746172   65.9397217
  27.5756471   65.9403515
  27.5768488   65.9407714
  27.5778787   65.9413313
  27.5778787   65.9419611
  27.5789087   65.942521
  27.580797    65.9431507
  27.5821703   65.9440604
  27.5837152   65.9448301
  27.5844019   65.9454599
  27.5857752   65.9459497
  27.5856035   65.9463695
  27.5859468   65.9470691
  27.5868051   65.9474889
  27.5886934   65.9483285
  27.589895    65.9490281
  27.5902384   65.9497977
  27.5912683   65.9500775
  27.5912683   65.9507071
  27.5941866   65.9513367
  27.5959032   65.9514766
  27.5965898   65.9522461
  27.5965898   65.9528057
  27.5959032   65.9528057
  27.5952165   65.9533653
  27.5962465   65.9539249
  27.5964182   65.9545544
  27.5981348   65.9545544
  27.6000231   65.9546943
  27.6012247   65.9546243
  27.6024263   65.9545544
  27.6046579   65.9546243
  27.6062029   65.954974
  27.6089495   65.9549041
  27.6091211   65.9544844
  27.6091211   65.9538549
  27.6089495   65.9533653
  27.6108377   65.9528756
  27.6123827   65.9527357
  27.6135843   65.952316
  27.6154726   65.9525958
  27.6163309   65.9524559
  27.6182192   65.9525958
  27.6185625   65.9530155
  27.6192491   65.9539249
  27.620749    65.9547529
  27.620731    65.9549328
  27.6207911   65.9552503
  27.6205923   65.9554366
  27.6202321   65.9555531
  27.6201251   65.9556593
  27.6198368   65.955793
  27.620135    65.956036
  27.6199164   65.9561332
  27.6206221   65.9563114
  27.6220951   65.9561973
  27.6224411   65.9560603
  27.6229083   65.9560157
  27.6233954   65.9557646
  27.6240204   65.9555914
  27.6251361   65.955735
  27.6253436   65.9559347
  27.625771    65.9560765
  27.6260441   65.9564112
  27.6271527   65.9566678
  27.6275205   65.9566678
  27.6280517   65.9565521
  27.6283852   65.9566475
  27.6290413   65.956603
  27.6297073   65.9566475
  27.6303754   65.9565434
  27.6308404   65.9567164
  27.6311784   65.956684
  27.6315959   65.9567893
  27.6323612   65.9567731
  27.6327931   65.9568876
  27.6342002   65.9569836
  27.6352695   65.957302
  27.6361285   65.9572671
  27.6366653   65.9570768
  27.6370231   65.9571456
  27.6373909   65.9570565
  27.6381364   65.9572793
  27.6390111   65.957417
  27.6393751   65.9576227
  27.6397279   65.9576752
  27.6397001   65.957899
  27.6398759   65.9581224
  27.6397985   65.9584775
  27.6402343   65.9585891
  27.6406416   65.9587185
  27.642234    65.9586716
  27.6435343   65.9584654
  27.6437873   65.9585513
  27.6440474   65.9584683
  27.6442196   65.958529
  27.6443901   65.9585006
  27.6454812   65.9586716
  27.6457764   65.9586143
  27.6460794   65.9584342
  27.6470139   65.9585258
  27.6477336   65.9588969
  27.6484528   65.9590402
  27.6486089   65.9591183
  27.6489182   65.9592099
  27.6489463   65.9594017
  27.6492767   65.9595907
  27.6497124   65.959585
  27.6502014   65.9597229
  27.6506121   65.9596709
  27.6508527   65.959536
  27.6530862   65.959439
  27.6535371   65.9595564
  27.6548955   65.9604014
  27.69486     65.9009764
  27.7672954   65.8410778
  27.7855951   65.8381532
  27.7840636   65.8355594
  27.7676534   65.8376525
  27.7683725   65.8366878
  27.7610815   65.8273114
  27.8996347   65.8229291
  27.9048661   65.8256634
  27.9092789   65.8260149
  27.9087371   65.8226167
  27.9487846   65.8213498
  27.9500131   65.8233175
  27.9539849   65.8229454
  27.9527575   65.8211802
  28.00782     65.8194136
  28.0565559   65.8177845
  28.065774    65.8174764
  28.1435044   65.8149148
  28.1537354   65.8107458
  28.1536056   65.809911
  28.1613593   65.8092595
  28.1621554   65.8080007
  28.2235083   65.8005883
  28.281754    65.8113674
  28.3830128   65.8300461
  28.4671515   65.8454082
  28.4777508   65.8456201
  28.5131989   65.8462095
  28.5087679   65.8897702
  28.4832316   65.9043903
  28.4581518   65.9187299
  28.4553168   65.9216914
  28.4517372   65.9257468
  28.4329498   65.9464666
  28.3768874   65.9603687
  28.372156    65.9602139
  28.3708272   65.9659447
  28.3682416   65.9676259
  28.3728105   65.9712594
  28.3859747   65.9711834
  28.3895598   65.9689205
  28.3925193   65.9685598
  28.3928428   65.9777562
  28.3983038   65.9777059
  28.3984218   65.9800827
  28.3896563   65.9801384
  28.3902572   65.9962899
  28.388959    65.9962969
  28.3806441   65.998543
  28.3708165   65.9984544
  28.3706663   66.0011454
  28.3726603   66.00206
  28.377971    66.0019352
  28.3888088   66.0038871
  28.3989137   66.0031065
  28.408346    66.0051567
  28.4121762   66.0050821
  28.4124659   66.0051231
  28.4129057   66.005115
  28.4129728   66.0051138
  28.4140215   66.0048943
  28.4152151   66.0050743
  28.423184    66.0093042
  28.4355972   66.0076023
  28.4290848   66.0037963
  28.4282496   66.0036657
  28.4274755   66.0034831
  28.4267781   66.0034362
  28.4264119   66.0034664
  28.4249848   66.0037113
  28.4149979   66.0014246
  28.4132315   66.0003244
  28.4124551   65.9998408
  28.4115952   65.9985166
  28.4116746   65.9863004
  28.4826217   65.9896918
  28.4832467   66.003883
  28.5438601   66.0034605
  28.5441123   66.0089548
  28.5606938   66.0060261
  28.5982047   65.999219
  28.597719    65.9873595
  28.6519747   65.9868836
  28.6697095   65.9997297
  28.699085    66.0021777
  28.7472825   66.0018105
  28.7479649   66.0168953
  28.7482767   66.0237059
  28.7478403   66.0239269
  28.7473326   66.0239709
  28.7463961   66.0243019
  28.7456753   66.0242987
  28.7451349   66.0244862
  28.7442706   66.0244359
  28.7433341   66.0247229
  28.7419243   66.0244622
  28.7413093   66.0247427
  28.7409116   66.0247216
  28.74055     66.0247738
  28.7401794   66.0250426
  28.7401697   66.025326
  28.7401141   66.0256142
  28.7389768   66.0258654
  28.73885     66.0255448
  28.7377664   66.0254167
  28.7361702   66.0260078
  28.735448    66.0274531
  28.7363911   66.0280164
  28.7361073   66.0285064
  28.7372792   66.028713
  28.7373254   66.0288771
  28.7366498   66.0291292
  28.7361287   66.0289737
  28.7357721   66.0291904
  28.7360693   66.0297411
  28.7369719   66.0298192
  28.7371877   66.0301549
  28.7364292   66.0307912
  28.7366638   66.0310722
  28.7358789   66.0311541
  28.7340655   66.0318077
  28.7329329   66.0316075
  28.7316559   66.0314219
  28.7310826   66.0315954
  28.7312651   66.0319168
  28.7308702   66.0320182
  28.7313654   66.0323228
  28.731572    66.0331699
  28.7321023   66.0333233
  28.7328131   66.0337845
  28.7322239   66.0339291
  28.7320317   66.0341177
  28.7316834   66.0340991
  28.7316002   66.0344578
  28.7323113   66.0348542
  28.7321514   66.0351109
  28.7331825   66.0356462
  28.7340898   66.0355734
  28.7343495   66.036014
  28.7350379   66.0362615
  28.7346075   66.0365529
  28.7340715   66.036359
  28.7339378   66.036484
  28.7345079   66.036675
  28.7344283   66.0367634
  28.7338526   66.0367493
  28.7332768   66.0371455
  28.7329539   66.0370225
  28.7327749   66.0370585
  28.7329078   66.0371923
  28.7325503   66.037254
  28.7326437   66.0374287
  28.7642294   66.0433297
  28.7445312   66.0513999
  28.7298971   66.0455235
  28.7262922   66.0452569
  28.723721    66.0445862
  28.7184666   66.0432156
  28.7141901   66.0459931
  28.7244898   66.0486074
  28.7180096   66.0526402
  28.7100702   66.0526942
  28.7101029   66.0528989
  28.7106102   66.0528412
  28.7107927   66.0531204
  28.7104359   66.0532687
  28.7102276   66.0535359
  28.7096304   66.0536456
  28.7093711   66.0538501
  28.7084916   66.0538342
  28.7078152   66.054315
  28.7059933   66.0540024
  28.7028175   66.0531881
  28.6947065   66.0583148
  28.6983114   66.0606901
  28.6967665   66.0617541
  28.6247781   66.0709116
  28.6457401   66.0858874
  28.6261686   66.0904353
  28.624202    66.0938233
  28.6190858   66.1026351
  28.6042388   66.1281891
  28.6874979   66.1275008
  28.7171953   66.1358361
  28.7170236   66.1608948
  28.7684209   66.1845792
  28.7676989   66.1846665
  28.7673412   66.1847198
  28.7677242   66.1851444
  28.7675736   66.1855673
  28.7681143   66.1857489
  28.7357321   66.204739
  28.7501085   66.2151244
  28.7483485   66.2164201
  28.7479935   66.2161303
  28.7440299   66.2181999
  28.7443363   66.2187043
  28.7394013   66.2192676
  28.739124    66.2188051
  28.7386099   66.2185981
  28.7381468   66.2185726
  28.7375262   66.2186575
  28.7365666   66.2189514
  28.7361247   66.2192155
  28.7359135   66.2197476
  28.7355488   66.2203058
  28.7355538   66.2204864
  28.7360587   66.2210606
  28.7374157   66.2213449
  28.737947    66.2217534
  28.7392578   66.2221811
  28.7396689   66.2225045
  28.7392243   66.2232203
  28.7394048   66.2236701
  28.7401464   66.2240991
  28.7421452   66.2243493
  28.7439679   66.2243889
  28.745544    66.2243788
  28.7549478   66.2251176
  28.7557193   66.2251753
  28.7558019   66.2253085
  28.7551204   66.2256592
  28.7549601   66.2259623
  28.7564883   66.2266379
  28.7565623   66.2269857
  28.7576445   66.2280512
  28.7586944   66.2291616
  28.7600624   66.229559
  28.7614303   66.2296236
  28.7621575   66.2301303
  28.764117    66.2303389
  28.7643142   66.2305376
  28.7641663   66.2306618
  28.7627614   66.2309847
  28.7611962   66.2316999
  28.7602965   66.2317447
  28.7597666   66.2319384
  28.7572031   66.2322314
  28.7567471   66.2325443
  28.756893    66.232726
  28.7585596   66.2331119
  28.7587252   66.2335083
  28.7580878   66.2338666
  28.7582224   66.2340545
  28.7586017   66.2344327
  28.7580136   66.2353394
  28.7583537   66.2354704
  28.7586203   66.2359125
  28.7595578   66.2362485
  28.7601343   66.2365673
  28.7608426   66.2366376
  28.7617347   66.2365376
  28.7623014   66.2366605
  28.7622617   66.236939
  28.7624027   66.2373328
  28.762207    66.2374541
  28.7613063   66.2374311
  28.7607732   66.2374822
  28.759854    66.2374956
  28.7584568   66.2384258
  28.7588238   66.2388939
  28.7586333   66.2390964
  28.7575101   66.2394619
  28.7571799   66.2394556
  28.7568567   66.2393559
  28.7562032   66.2394275
  28.7551515   66.2398698
  28.7547642   66.2402527
  28.7532421   66.2406118
  28.7530032   66.2410413
  28.7533494   66.2413956
  28.7525575   66.2418706
  28.7525253   66.2420632
  28.7532421   66.2423446
  28.7532012   66.2425525
  28.7522128   66.243048
  28.7509941   66.2434277
  28.7511468   66.2437884
  28.7496764   66.2444992
  28.7485737   66.2448102
  28.7476179   66.2449657
  28.7465519   66.2448842
  28.7458809   66.2449597
  28.745541    66.2451434
  28.7445485   66.2453137
  28.7441074   66.2455876
  28.742637    66.2457505
  28.7415159   66.246365
  28.7403396   66.2466167
  28.7496554   66.254483
  28.7316662   66.2580507
  28.7111815   66.261187
  28.7036801   66.2588873
  28.7029596   66.2593025
  28.6998652   66.2602376
  28.6987354   66.2601222
  28.6980808   66.2605622
  28.696988    66.2607867
  28.6955268   66.261555
  28.694524    66.261639
  28.6934086   66.261922
  28.6920169   66.2620073
  28.6911682   66.2623061
  28.6899318   66.262494
  28.6892788   66.2624595
  28.6881364   66.2623041
  28.6875314   66.2617966
  28.6872285   66.2616847
  28.6867016   66.2616665
  28.6851923   66.2614258
  28.6841742   66.2616177
  28.6834325   66.2615994
  28.6751967   66.2560423
  28.6621578   66.2473092
  28.6437249   66.251791
  28.6412568   66.2654557
  28.6389633   66.2666949
  28.6270235   66.2666227
  28.6183626   66.2656982
  28.6165137   66.2657218
  28.6155596   66.265667
  28.6143641   66.2657205
  28.6140099   66.2656626
  28.6140982   66.265398
  28.6127561   66.2649814
  28.6117738   66.2652081
  28.6105398   66.2649409
  28.6098588   66.2651012
  28.6083809   66.2648436
  28.6076324   66.2647716
  28.6070018   66.2647272
  28.6068013   66.2645767
  28.6062777   66.2645476
  28.6046929   66.2647687
  28.6039611   66.2646507
  28.6036046   66.2648784
  28.6037817   66.2655378
  28.6031286   66.2658452
  28.6027776   66.2662564
  28.6024469   66.2667022
  28.5929784   66.2678753
  28.5867327   66.2726963
  28.5517137   66.3159684
  28.5380925   66.3326057
  28.5460104   66.3325476
  28.5463832   66.3402074
  28.5532282   66.3435311
  28.5533231   66.3486272
  28.5468874   66.3516864
  28.5478412   66.3702754
  28.5480097   66.3713339
  28.5487248   66.3828812
  28.553432    66.3836026
  28.5622388   66.3827995
  28.5622082   66.3812875
  28.5675834   66.3805488
  28.5676719   66.3825096
  28.5746521   66.3821808
  28.5836289   66.3997065
  28.5846315   66.4009284
  28.5886012   66.3998613
  28.5992012   66.4000754
  28.5961644   66.4029505
  28.5873199   66.4122507
  28.5896185   66.4119722
  28.5896661   66.4120043
  28.5897693   66.4120739
  28.5939162   66.4108352
  28.5996104   66.4094362
  28.6006019   66.4090593
  28.6162279   66.4134095
  28.6648199   66.412944
  28.6897455   66.4729202
  28.6953598   66.4858555
  28.7070623   66.4842593
  28.8366542   66.4665768
  28.8942733   66.4586952
  29.0066706   66.4432354
  29.0077024   66.4430934
  29.1190417   66.4276572
  29.1501518   66.4233486
  29.2085753   66.4151685
  29.2585337   66.4081399
  29.2577687   66.4328932
  29.3438665   66.4329239
  29.3751863   66.4329329
  29.3783722   66.4329367
  29.3807146   66.4329317
  29.3896703   66.4329242
  29.5427956   66.4327933
  29.5498566   66.4328323
  29.5728959   66.4328518
  29.5779037   66.4268773
  29.5891645   66.4134755
  29.5942818   66.4073887
  29.5981275   66.4031213
  29.6047535   66.395754
  29.6137329   66.3858342
  29.6213868   66.3773475
  29.6231239   66.375421
  29.6313563   66.3662889
  29.633021    66.3638009
  29.6409374   66.3518721
  29.6412245   66.3514342
  29.6447087   66.346206
  29.6506933   66.3371479
  29.6570964   66.3274937
  29.66217     66.3197844
  29.6710636   66.3089121
  29.6832031   66.2941213
  29.6836505   66.2935761
  29.6899005   66.2859266
  29.6919419   66.2833701
  29.6945494   66.2802541
  29.6972266   66.2779002
  29.6974753   66.2778822
  29.6968396   66.2777268
  29.6970112   66.277511
  29.6969469   66.277347
  29.6970246   66.2772456
  29.6971614   66.2771916
  29.6975691   66.277088
  29.697862    66.2771286
  29.698127    66.2772261
  29.6985562   66.2772261
  29.6987708   66.2771657
  29.6991141   66.277183
  29.6994499   66.2772149
  29.7000582   66.2772347
  29.7005303   66.2771743
  29.7009594   66.2770189
  29.7011096   66.2768463
  29.7014959   66.2767945
  29.701689    66.2766736
  29.7019626   66.2765204
  29.7020946   66.2763935
  29.7025033   66.2763671
  29.7026267   66.2762791
  29.7029443   66.275784
  29.7046759   66.275446
  29.7056179   66.2750933
  29.7066093   66.2746478
  29.7069397   66.2741946
  29.7070155   66.2737161
  29.7069461   66.27337
  29.7066404   66.2730264
  29.7052488   66.2725338
  29.7041513   66.2722204
  29.7029926   66.2720015
  29.7015216   66.2718962
  29.6996859   66.2719139
  29.6969855   66.2719471
  29.6959941   66.2717498
  29.6952506   66.2714692
  29.6946477   66.2711096
  29.6944588   66.2708993
  29.6944803   66.270582
  29.6955907   66.2697301
  29.6966445   66.2684902
  29.6970509   66.2681839
  29.6975799   66.2678419
  29.698597    66.2673696
  29.7003275   66.2669537
  29.7022029   66.2667577
  29.7038648   66.2667352
  29.7053239   66.2668868
  29.7065974   66.2672098
  29.7072412   66.2675341
  29.7094932   66.2682003
  29.7100933   66.2678402
  29.7212918   66.2604454
  29.7391426   66.2486532
  29.7469425   66.2434413
  29.7656965   66.2310597
  29.7685234   66.2291675
  29.7761785   66.224101
  29.7902655   66.2151112
  29.7963299   66.2112382
  29.8013162   66.2081827
  29.8085689   66.2034307
  29.818142    66.1972935
  29.8228428   66.1940922
  29.8293829   66.1900931
  29.8403235   66.1830943
  29.8519751   66.1756037
  29.8604893   66.1701838
  29.866901    66.1657537
  29.8811413   66.1560199
  29.8933143   66.1477015
  29.9079049   66.137698
  29.9186897   66.1304332
  29.9233062   66.1271455
  29.9248356   66.1245953
  29.9305793   66.1150151
  29.9351498   66.1074205
  29.9415023   66.0968112
  29.9467995   66.0879608
  29.9561645   66.0723068
  29.9601185   66.0656945
  29.9655729   66.0565704
  29.9709639   66.0462094
  29.9718073   66.0457455
  29.9811147   66.0440039
  29.977476    66.0421888
  29.973588    66.0407746
  29.9746835   66.039111
  29.9771267   66.0355427
  29.9802682   66.0307025
  29.9841424   66.0247481
  29.9926263   66.0223573
  29.9925471   66.0207286
  29.9891248   66.019814
  29.9905174   66.0129583
  29.9925899   66.0023147
  29.9944353   65.9932721
  29.9962806   65.9839119
  29.9971232   65.9788379
  30.0020098   65.9766449
  30.0076961   65.9741027
  30.0242236   65.9666987
  30.0242937   65.9632934
  30.024207    65.9616191
  30.024398    65.9587363
  30.0261927   65.9562522
  30.0348608   65.9442419
  30.0381231   65.9396841
  30.0477525   65.9264084
  30.0517917   65.9208114
  30.0544202   65.9171572
  30.059374    65.910312
  30.0649487   65.9008705
  30.0684527   65.8949786
  30.0723803   65.8856065
  30.0750595   65.8792616
  30.0808668   65.8655491
  30.083825    65.8584937
  30.0849108   65.8559924
  30.0871145   65.8506494
  30.0901271   65.8410183
  30.0945088   65.8270546
  30.095973    65.8225049
  30.0982896   65.814868
  30.1017293   65.8036563
  30.1034328   65.7982784
  30.1037527   65.7972362
  30.1050681   65.7930415
  30.1073201   65.7884096
  30.1084434   65.7849871
  30.1120161   65.7747097
  30.1127521   65.7721474
  30.1142391   65.7680068
  30.1171037   65.7593314
  30.1193675   65.7521935
  30.1204275   65.7484154
  30.1226752   65.7404101
  30.1231384   65.7389333
  30.1241254   65.7353005
  30.1281008   65.7210902
  30.1296615   65.7153816
  30.1301764   65.7140402
  30.1320863   65.706873
  30.1322365   65.7061315
  30.1330259   65.7034448
  30.1340677   65.6997234
  30.1384664   65.6686764
  30.059366    65.6835748
  30.0396972   65.6872796
  30.0171184   65.6964797
  30.0158071   65.6962422
  30.0079965   65.6945288
  30.0013446   65.6931863
  29.9751385   65.6876672
  29.940859    65.6807105
  29.9307181   65.6787257
  29.9096264   65.6747448
  29.900922    65.6730621
  29.8511487   65.6631477
  29.788664    65.6507119
  29.7505594   65.6430935
  29.7218642   65.6370848
  29.7539876   65.6093614
  29.7871112   65.5952792
  29.8154632   65.5835943
  29.8308628   65.5767936
  29.8435449   65.5707446
  29.8639091   65.5604413
  29.8133017   65.5340118
  29.8006503   65.5273627
  29.7984695   65.5263163
  29.7922667   65.5222626
  29.7901576   65.5208128
  29.7816881   65.5152379
  29.7638933   65.5033949
  29.7596489   65.5006304
  29.7547067   65.4973644
  29.7407084   65.4963871
  29.7284319   65.494217
  29.7264789   65.4942657
  29.7201313   65.4945408
  29.7125281   65.4942359
  29.6933324   65.4970025
  29.6529434   65.4971451
  29.5475444   65.505646
  29.5276269   65.5008339
  29.5241092   65.500261
  29.5234935   65.4997862
  29.5236399   65.4993356
  29.5245668   65.4988857
  29.5258749   65.49846
  29.5286961   65.4980828
  29.5300003   65.497693
  29.5306449   65.4971445
  29.5306004   65.4969227
  29.5304093   65.4966766
  29.5295987   65.4963728
  29.5285925   65.4962939
  29.527806    65.4963835
  29.5266238   65.4966009
  29.5257176   65.4966244
  29.5251485   65.4965568
  29.524594    65.4964527
  29.5242154   65.4963121
  29.523495    65.4958654
  29.5232448   65.4950797
  29.5232295   65.4937902
  29.5230091   65.4932789
  29.5225672   65.4930146
  29.5218615   65.4927746
  29.5187224   65.4924393
  29.5162575   65.4922256
  29.5134089   65.4914821
  29.5113424   65.4906702
  29.510482    65.490534
  29.507327    65.4900346
  29.5053014   65.4896353
  29.504373    65.489304
  29.5048879   65.4880389
  29.5045357   65.488042
  29.499613    65.4889196
  29.4853179   65.4914768
  29.4121103   65.5045399
  29.3667396   65.5126379
  29.3468806   65.5161376
  29.320315    65.5208639
  29.311647    65.5206637
  29.27909     65.5199553
  29.265826    65.5196628
  29.213283    65.5184696
  29.2149118   65.5116607
  29.2192574   65.4934856
  29.1941079   65.4823403
  29.1986891   65.4805312
  29.1946572   65.4783966
  29.1904719   65.4728571
  29.1878605   65.4731876
  29.1880429   65.4760574
  29.1862199   65.478791
  29.1520699   65.4636206
  29.1640878   65.4637621
  29.166373    65.464161
  29.1680253   65.4637133
  29.1677248   65.4626574
  29.1730249   65.4610508
  29.1787326   65.4611502
  29.1772199   65.4591257
  29.1718919   65.459612
  29.1690874   65.4603615
  29.1685939   65.4604507
  29.1684169   65.4606722
  29.1679721   65.4608195
  29.1674995   65.4608432
  29.1648066   65.4607048
  29.164061    65.4607015
  29.163664    65.4607681
  29.1633958   65.4608793
  29.1627574   65.460147
  29.1494032   65.4624451
  29.1217375   65.4500651
  29.12493     65.4494678
  29.1379575   65.449435
  29.145297    65.4500109
  29.1449932   65.4494326
  29.128796    65.4475555
  29.1199957   65.449285
  29.1161273   65.4475719
  29.0447859   65.4374785
  28.9555462   65.4473789
  28.8098207   65.4201884
  28.8036624   65.4292614
  28.7918606   65.428031
  28.7928692   65.4232813
  28.7759884   65.423276
  28.7760678   65.4207163
  28.8016303   65.4188486
  28.8017698   65.4186665
  28.6662238   65.3931765
  28.6468926   65.3893168
  28.6570947   65.3719161
  28.6328743   65.3574176
  28.6288639   65.3537348
  28.6267019   65.3501089
  28.6112568   65.3241911
  28.6087409   65.3198549
  28.6148499   65.3193348
  28.6137233   65.3163053
  28.6071766   65.3171992
  28.6043678   65.3124447
  28.6120239   65.3084867
  28.6045674   65.3002514
  28.6138467   65.2924836
  28.6125468   65.2914043
  28.6120507   65.2899426
  28.6086014   65.2866733
  28.5983725   65.2869249
  28.5936872   65.2882383
  28.5903592   65.2844251
  28.4871016   65.2770273
  28.4886884   65.2723899
  28.5049018   65.2678113
  28.5054136   65.2671331
  28.4952512   65.2673661
  28.4854601   65.2704075
  28.483103    65.276767
  28.3948549   65.2704198
  28.3641728   65.2681875
  28.3044925   65.2632343
  28.2854861   65.2615539
  28.2889432   65.260443
  28.2853008   65.2580938
  28.2771437   65.2562302
  28.2740023   65.2568957
  28.2699049   65.2551879
  28.2683836   65.2557964
  28.2659846   65.2597816
  28.2506172   65.2583817
  28.2448315   65.2578546
  28.1623827   65.2503423
  28.0338804   65.2385528
  28.0299359   65.2367604
  28.0317992   65.2366715
  28.032763    65.2346856
  28.0264741   65.2351805
  28.0257859   65.2348679
  27.9955986   65.2211521
  27.9925954   65.2213844
  27.9918155   65.2196401
  27.9921543   65.2195748
  27.9857548   65.2166644
  27.9508607   65.2074537
  27.9508759   65.2067969
  27.9480371   65.2055461
  27.9415536   65.1798687
  27.9370505   65.1714625
  27.946166    65.1696647
  27.945228    65.1687139
  27.9363859   65.1702697
  27.9005914   65.1028108
  27.8944953   65.0913864
  27.7401987   65.1117359
  27.7401167   65.1128812
  27.7356854   65.1137199
  27.7322947   65.1143617
  27.714627    65.1177054
  27.7029773   65.1166049
  27.6670098   65.1213117
  27.6164614   65.1070505
  27.6147549   65.1089566
  27.6038047   65.1071844
  27.6067612   65.1042938
  27.5720983   65.0944404
  27.5611548   65.0937519
  27.4510886   65.0869899
  27.4403614   65.0873082
  27.3303304   65.0905733
  27.2840767   65.0480793
  27.2623432   65.02722
  27.3173922   64.996888
  27.3225254   64.9879669
  27.3357703   64.9868281
  27.3860859   64.9588859
  27.3938584   64.9454165
  27.3768525   64.9413883
  27.3923381   64.93649
  27.3996312   64.9355456
  27.4045559   64.9269407
  27.4040534   64.9268148
  27.4035281   64.9267543
  27.4029686   64.9265583
  27.402021    64.926421
  27.4016927   64.9263908
  27.4012473   64.926398
  27.4009162   64.9264694
  27.4005022   64.9266388
  27.4003851   64.9268082
  27.4003309   64.9270804
  27.4001624   64.9272341
  27.3995515   64.9274264
  27.399029    64.9274736
  27.3979812   64.9274591
  27.3973931   64.9274071
  27.3961341   64.9272752
  27.3948522   64.9271966
  27.3933419   64.9270453
  27.39        64.9263374
  27.3893944   64.9261834
  27.3879893   64.9258515
  27.3884173   64.9255743
  27.389782    64.9258789
  27.3901534   64.9261013
  27.3928182   64.9266283
  27.3943605   64.9269089
  27.3946028   64.9269534
  27.3994155   64.927104
  27.3995851   64.9270424
  27.4003522   64.9254887
  27.4002158   64.92539
  27.3999731   64.9253561
  27.3999731   64.9253017
  27.4002329   64.9252363
  27.4010152   64.9251565
  27.4012065   64.925096
  27.4012579   64.9249447
  27.4014434   64.9248443
  27.4015177   64.9246979
  27.4015719   64.9246567
  27.4019231   64.9246434
  27.4021486   64.9246483
  27.402457    64.924595
  27.4053675   64.9233153
  27.4051495   64.9230655
  27.4047215   64.922559
  27.4046165   64.9223605
  27.4043985   64.922227
  27.4037606   64.9218847
  27.3697068   64.8899406
  27.4026616   64.8551608
  27.3932288   64.8466677
  27.3864911   64.8475026
  27.3607964   64.8429202
  27.3697952   64.8313444
  27.3750484   64.8308101
  27.3541271   64.8118821
  27.213426    64.8282483
  27.211228    64.8265548
  27.2110988   64.8255587
  27.2097987   64.8250056
  27.2079252   64.8254178
  27.2005123   64.8257888
  27.1896472   64.8290275
  27.1894453   64.8288592
  27.1836882   64.8305215
  27.1846132   64.8315511
  27.155851    64.8349768
  27.1480792   64.8352818
  27.1234136   64.8182224
  27.1184238   64.81477
  27.1982598   64.7770816
  27.2490366   64.7396876
  27.2794878   64.7172227
  27.2795358   64.7168093
  27.2687304   64.7123731
  27.2302477   64.7165001
  27.2253519   64.713397
  27.2252797   64.7127573
  27.2261819   64.7125415
  27.2271923   64.7126109
  27.2285456   64.7119403
  27.2296643   64.7097821
  27.2288524   64.7080939
  27.2274991   64.7064133
  27.2279682   64.7051336
  27.229192    64.7041137
  27.2305255   64.7043777
  27.2312248   64.7042735
  27.2313549   64.703669
  27.2303954   64.7028282
  27.2292083   64.7020916
  27.2291595   64.700938
  27.2303379   64.7008952
  27.2308345   64.7007017
  27.2307857   64.7004237
  27.2301352   64.7000623
  27.2293709   64.6994299
  27.2295173   64.6989365
  27.2302003   64.6989365
  27.232542    64.6991519
  27.2343709   64.6991698
  27.2324632   64.706415
  27.2457545   64.7113625
  27.2595223   64.7077505
  27.2371118   64.699465
  27.2396322   64.6994299
  27.2405204   64.6991499
  27.2411283   64.6987349
  27.2413559   64.6979496
  27.2426406   64.6974353
  27.2434049   64.6973658
  27.2441204   64.696914
  27.2442505   64.6960799
  27.2458117   64.6953153
  27.2476168   64.695364
  27.2499259   64.6949052
  27.2508854   64.694377
  27.2496657   64.6937861
  27.2502187   64.6930145
  27.2487226   64.6928546
  27.2485112   64.6920084
  27.2669331   64.6610325
  27.2670493   64.6447037
  27.2691084   64.637653
  27.2665444   64.6378546
  27.2626977   64.6332219
  27.2584143   64.6331145
  27.2593486   64.6266801
  27.2595644   64.6248867
  27.2604017   64.6249421
  27.2611989   64.6247501
  27.2621723   64.6246948
  27.2623202   64.6244369
  27.2621354   64.6240617
  27.2625621   64.623935
  27.2665235   64.6246026
  27.2695943   64.6251246
  27.2709928   64.6250485
  27.2718954   64.6252168
  27.272739    64.6257303
  27.2737003   64.6254303
  27.2744798   64.6255188
  27.2754602   64.625891
  27.27575     64.6258631
  27.2759768   64.6257354
  27.2757855   64.6254249
  27.2758576   64.6252852
  27.2762463   64.6252471
  27.2773335   64.6254532
  27.2782697   64.6256306
  27.2788472   64.6258325
  27.2790435   64.6257872
  27.2789096   64.6253512
  27.2790734   64.625175
  27.2796957   64.6251348
  27.2803853   64.6254713
  27.2806948   64.625476
  27.2808336   64.6252872
  27.2801985   64.6248789
  27.280703    64.6245293
  27.2827453   64.6240418
  27.2847966   64.6239846
  27.2859877   64.6238795
  27.2866224   64.623962
  27.2872596   64.6243345
  27.2876801   64.6243955
  27.2879134   64.6243906
  27.2883689   64.6241264
  27.2889955   64.623913
  27.2890238   64.6237482
  27.2880788   64.6232838
  27.2874062   64.6230269
  27.287405    64.6228361
  27.2873903   64.6226774
  27.2880398   64.6219982
  27.2882035   64.6215871
  27.288399    64.6214445
  27.2890326   64.6213115
  27.290414    64.6209771
  27.2926586   64.6214799
  27.293637    64.6215209
  27.2938723   64.6213884
  27.29348     64.6210762
  27.293495    64.6209508
  27.2940359   64.6209229
  27.2946226   64.6210257
  27.2948443   64.621005
  27.2949744   64.620812
  27.2946568   64.6206118
  27.2945448   64.6203476
  27.295257    64.6198465
  27.2957619   64.6197055
  27.2961699   64.619659
  27.2969918   64.6197631
  27.2975516   64.6197439
  27.2982395   64.6199548
  27.2993668   64.6194665
  27.3006008   64.6193701
  27.3010127   64.6192177
  27.301107    64.6188796
  27.3027018   64.6183465
  27.3030729   64.6181751
  27.3035306   64.6177314
  27.3082908   64.6159427
  27.3112915   64.6157238
  27.3144836   64.6147332
  27.3168139   64.6143008
  27.3204849   64.6132281
  27.3233791   64.612988
  27.3270395   64.61283
  27.3286153   64.6124724
  27.3296166   64.612049
  27.3313127   64.6118427
  27.3325109   64.611382
  27.3335504   64.6105439
  27.3348581   64.6101164
  27.3359308   64.6100239
  27.3371949   64.6096358
  27.3391869   64.6093359
  27.3413707   64.6088017
  27.34338     64.6088297
  27.3455146   64.6084332
  27.3472662   64.6077409
  27.3483071   64.6077366
  27.349463    64.6076665
  27.3509252   64.6072598
  27.3522726   64.6070501
  27.3548715   64.6064254
  27.3568576   64.6056037
  27.3610359   64.6050235
  27.3633166   64.6049798
  27.3671294   64.6046075
  27.3684245   64.6037981
  27.349636    64.5969175
  27.3888548   64.5833557
  27.3827483   64.5785073
  27.3779728   64.5773076
  27.3969819   64.5718839
  27.3965157   64.5716757
  27.3478838   64.5499515
  27.339069    64.5415998
  27.3367369   64.5394554
  27.3282948   64.531557
  27.3126392   64.51688
  27.3104415   64.5148115
  27.2991508   64.5042161
  27.2965823   64.5018298
  27.2722984   64.4897296
  27.2489978   64.4845957
  27.2133099   64.4768349
  27.2055164   64.4740494
  27.2010282   64.4701343
  27.1988943   64.4681907
  27.1850723   64.4558515
  27.179993    64.4409928
  27.1946733   64.4335078
  27.1955806   64.4322909
  27.1995693   64.4271432
  27.2022983   64.4262116
  27.2048646   64.4287418
  27.2156971   64.4214935
  27.2216524   64.4233467
  27.2270505   64.420176
  27.2204149   64.4183277
  27.2453381   64.4016028
  27.2489871   64.3991298
  27.2512555   64.3990463
  27.2532272   64.3925862
  27.2405388   64.3766614
  27.1913999   64.3497779
  27.1877796   64.3103244
  27.042346    64.2845095
  26.9994059   64.2904802
  26.9642357   64.2956981
  26.9416666   64.3270691
  26.9217184   64.3216805
  26.9260722   64.311882
  26.9058687   64.3110225
  26.895304    64.3123796
  26.8948352   64.3118494
  26.8938911   64.3119661
  26.893066    64.3058741
  26.8913397   64.3048963
  26.8902722   64.3031257
  26.8883249   64.3015221
  26.8812202   64.3015001
  26.8775436   64.3028129
  26.87675     64.304716
  26.8656265   64.3047563
  26.8652301   64.3060265
  26.862191    64.305873
  26.8453688   64.3019355
  26.8448061   64.302328
  26.8374772   64.3043385
  26.8389173   64.3064358
  26.8244359   64.3063446
  26.8138426   64.3061635
  26.7861646   64.2920711
  26.7483823   64.2785576
  26.7674013   64.2680012
  26.767441    64.265168
  26.7708538   64.2160225
  26.7741294   64.1629669
  26.7727389   64.1609436
  26.7716049   64.1602071
  26.7711693   64.1577847
  26.7733247   64.156717
  26.7747205   64.156818
  26.7767601   64.1236444
  26.7655356   64.1191714
  26.7685042   64.1168391
  26.7746872   64.1210123
  26.7768684   64.1215498
  26.7779335   64.1054271
  26.7788249   64.0919284
  26.7811235   64.0570861
  26.8703971   64.0369676
  26.5980247   63.9795278
  26.559438    63.9636759
  26.5462328   63.9582546
  26.5390253   63.9654707
  26.5164405   63.9630924
  26.5259496   63.949948
  26.462624    63.9239058
  26.426734    63.9091004
  26.3736311   63.8893484
  26.3725013   63.8894679
  26.3724188   63.8896265
  26.3721249   63.8897688
  26.3716233   63.8898124
  26.3710792   63.8896609
  26.3699494   63.8897161
  26.3685274   63.8896795
  26.3681033   63.8899735
  26.3681802   63.8904512
  26.3686261   63.8908187
  26.3681917   63.8909703
  26.3677572   63.8911954
  26.3670135   63.8913516
  26.3564701   63.886886
  26.3392298   63.8859536
  26.3500804   63.8805778
  26.2881585   63.857589
  26.2434595   63.8410421
  26.2181722   63.8315549
  26.2428327   63.8065584
  26.2464145   63.7919295
  26.2480276   63.7851828
  26.2537482   63.7623074
  26.2567188   63.7499518
  26.2602827   63.747759
  26.2595654   63.7471715
  26.2573009   63.7478298
  26.2602294   63.7359219
  26.2673925   63.7050902
  26.2521369   63.7045204
  26.2529819   63.7010395
  26.2683589   63.7009949
  26.2732764   63.6798202
  26.2734018   63.6792908
  26.2741298   63.6762158
  26.2746337   63.6740873
  26.2914822   63.6028266
  26.29149     63.602735
  26.291499    63.6025039
  26.2915109   63.602416
  26.291543    63.6022703
  26.2915628   63.6021606
  26.2919688   63.6007653
  26.2917736   63.5900068
  26.2359209   63.579253
  26.222225    63.5766499
  26.2038502   63.5722667
  26.1951025   63.5693098
  26.1913124   63.509233
  26.1882251   63.5047582
  26.1895429   63.5021878
  26.1654186   63.480857
  26.1606165   63.4768567
  26.1417094   63.4602796
  26.139878    63.4586386
  26.1386459   63.4575875
  26.1369672   63.4572276
  26.1342904   63.4566734
  26.1135871   63.4526474
  26.1087783   63.4516973
  26.0698251   63.444032
  26.0323085   63.4365997
  26.0061473   63.4314335
  25.9946031   63.4291108
  25.9730767   63.4314167
  25.9640935   63.4323394
  25.9302955   63.4358042
  25.8928497   63.4396418
  25.860763    63.4605878
  25.8390146   63.474783
  25.8312029   63.4799237
  25.8173391   63.4890076
  25.809079    63.4944866
  25.8019743   63.4967954
  25.7786885   63.5043834
  25.7743701   63.5057082
  25.7533967   63.5110207
  25.7529843   63.5111252
  25.738215    63.5148843
  25.7342583   63.5153809
  25.7314709   63.5157307
  25.6982447   63.5199571
  25.5890978   63.5224752
  25.5822998   63.5226622
  25.5794474   63.5227407
  25.5509518   63.5235247
  25.5415093   63.5237509
  25.4825844   63.5325607
  25.4811746   63.532827
  25.4666505   63.5380932
  25.4336289   63.5500627
  25.4243118   63.553439
  25.4231021   63.5538773
  25.4217846   63.5543436
  25.4214429   63.5544619
  25.4180326   63.5557123
  25.4158746   63.5565035
  25.4157717   63.5565391
  25.4144343   63.5570324
  25.4094448   63.5588725
  25.4090511   63.5590177
  25.4025885   63.5613913
  25.3983652   63.5629424
  25.3917358   63.5654056
  25.3868757   63.5672449
  25.3754999   63.5714135
  25.359235    63.5773728
  25.3480341   63.5814759
  25.3233375   63.5894337
  25.2884645   63.6005918
  25.2851664   63.6016327
  25.2792623   63.6035326
  25.2767239   63.6044264
  25.2740621   63.6052291
  25.268408    63.6071049
  25.2611113   63.6093302
  25.2603624   63.6095109
  25.251126    63.6122891
  25.2452155   63.6102644
  25.234934    63.6067892
  25.2268949   63.6040215
  25.2091387   63.5979666
  25.1919725   63.5920755
  25.1592185   63.5808697
  25.140141    63.5743088
  25.1400627   63.574177
  25.1362437   63.5640592
  25.1344338   63.5590373
  25.1336259   63.5567016
  25.129903    63.5466643
  25.1292429   63.5448975
  25.1287411   63.543559
  25.1268378   63.5382007
  25.1267885   63.5380646
  25.1262177   63.5364897
  25.1251212   63.533464
  25.1231728   63.5286944
  25.1198887   63.5199571
  25.1177419   63.5129929
  25.1140946   63.5033643
  25.112547    63.5016445
  25.1088316   63.4973896
  25.10729     63.4956354
  25.1067958   63.4950731
  25.1061622   63.4943521
  25.1037171   63.491039
  25.1030267   63.4902913
  25.1001562   63.4871821
  25.0975695   63.4843801
  25.0936846   63.4802538
  25.0875522   63.473352
  25.087051    63.4727878
  25.0863787   63.4720529
  25.0819033   63.4671603
  25.0660667   63.4640107
  25.0546933   63.4617485
  25.0363247   63.4580701
  24.9169928   63.5232392
  24.8202507   63.5865905
  24.7537843   63.6112098
  24.6374446   63.6448689
  24.6345947   63.6449841
  24.6191162   63.6494555
  24.6183222   63.6500537
  24.6187514   63.6508722
  24.6156541   63.6528349
  24.6150692   63.6532055
  24.6147259   63.6534669
  24.6119193   63.6552562
  24.6087392   63.6576224
  24.607529    63.6584207
  24.5983451   63.6645803
  24.598431    63.6658939
  24.5956415   63.666427
  24.5708879   63.6829844
  24.56191     63.6888628
  24.5550006   63.6959761
  24.5516189   63.6994561
  24.5307578   63.7208151
  24.5185655   63.7331685
  24.5172351   63.7347828
  24.5099395   63.7434414
  24.4986614   63.7566711
  24.4876321   63.7696291
  24.4825595   63.7758688
  24.4813579   63.7769687
  24.4753498   63.7839841
  24.4654792   63.7954514
  24.4593385   63.8025797
  24.458999    63.8029737
  24.444073    63.8203981
  24.44076     63.8242414
  24.4295033   63.8373102
  24.4293745   63.8357113
  24.4286664   63.8340176
  24.4300826   63.8317749
  24.4333142   63.8310368
  24.4323915   63.8294659
  24.4296664   63.8302419
  24.4277996   63.8320304
  24.4279927   63.8337715
  24.4266194   63.8348692
  24.4273275   63.8364303
  24.4278425   63.8366763
  24.4281      63.8373292
  24.4275206   63.8383699
  24.4255207   63.8400728
  24.4038551   63.843584
  24.356427    63.8510407
  24.314164    63.8576453
  24.2838969   63.8623844
  24.2834098   63.862538
  24.2710877   63.8674954
  24.2505825   63.875688
  24.2474703   63.8769312
  24.2456228   63.8801862
  24.2432078   63.8843023
  24.2439223   63.8843226
  24.2421263   63.8877119
  24.2414794   63.8876845
  24.2404194   63.8897277
  24.2330068   63.9032905
  24.2299439   63.9091503
  24.2289728   63.9108407
  24.2270201   63.910935
  24.2262991   63.9108312
  24.2204112   63.9147942
  24.2205056   63.9153132
  24.2217415   63.9156906
  24.2215999   63.9160963
  24.2224368   63.9163227
  24.2255063   63.9173171
  24.2235933   63.9207384
  24.2170423   63.9329226
  24.1828635   63.9378642
  24.1797918   63.9383532
  24.1521972   63.9616287
  24.1479057   63.9587273
  24.1366275   63.9571258
  24.1355117   63.9586708
  24.1478628   63.9605737
  24.147734    63.9614214
  24.1517895   63.9620346
  24.1270467   63.9828141
  24.0988893   64.0063035
  24.0988541   64.0067388
  24.09953     64.0066048
  24.0995514   64.0059395
  24.1011661   64.0055586
  24.1036498   64.0051025
  24.1063589   64.0049661
  24.1075015   64.005079
  24.1109562   64.0059489
  24.1113317   64.0071761
  24.1105592   64.0073478
  24.1104788   64.0083939
  24.1097385   64.0086055
  24.1075981   64.0103851
  24.1059458   64.0105238
  24.103902    64.0105426
  24.1032207   64.0108623
  24.1041595   64.0112337
  24.102062    64.0112454
  24.1005707   64.0114264
  24.0994549   64.0117485
  24.0986127   64.0113512
  24.0980065   64.0113606
  24.0926501   64.0407022
  24.0920094   64.0442099
  24.0870872   64.0711429
  24.0054703   64.0919255
  24.0105557   64.0856268
  23.9861896   64.0568759
  23.9639872   64.0658519
  23.9689547   64.0743222
  23.9701939   64.0750141
  23.9612675   64.0769887
  23.9478671   64.0723825
  23.9450133   64.0735318
  23.9150047   64.0669263
  23.9232981   64.0639046
  23.9313716   64.0615629
  23.9323103   64.0616462
  23.9322594   64.0615688
  23.932085    64.0614562
  23.9321494   64.0613471
  23.9320287   64.0612696
  23.932144    64.061225
  23.9322084   64.0611734
  23.9319724   64.0611136
  23.9319456   64.0610268
  23.9318597   64.0609939
  23.9315727   64.0609845
  23.9313984   64.060954
  23.9313501   64.0608848
  23.9313984   64.0607816
  23.9312509   64.0606959
  23.9311221   64.0606677
  23.9309612   64.0606936
  23.9307466   64.0606701
  23.9305186   64.0605727
  23.9303389   64.0605234
  23.9301753   64.0605481
  23.9301109   64.0605551
  23.9300707   64.0605141
  23.9301163   64.06048
  23.9301941   64.0604624
  23.9308137   64.0595966
  23.9116305   64.0626775
  23.9128072   64.0561459
  23.9142537   64.0481147
  23.9146507   64.0481381
  23.9149243   64.04809
  23.9153588   64.0479879
  23.9155009   64.047901
  23.9156243   64.0478447
  23.9158174   64.0478118
  23.9160669   64.0478165
  23.9165309   64.0479057
  23.916657    64.0479151
  23.9168501   64.0480114
  23.9176494   64.0480478
  23.9179739   64.0482074
  23.9182019   64.0482438
  23.9185318   64.0482391
  23.9188322   64.0482215
  23.9194438   64.0482227
  23.9198193   64.0481839
  23.9201304   64.0481663
  23.9206427   64.0481792
  23.9209807   64.0482051
  23.9214581   64.0482602
  23.9215761   64.0482555
  23.9216459   64.0482074
  23.9217263   64.0480912
  23.921847    64.0480572
  23.9217612   64.0480184
  23.9215064   64.0477109
  23.9244112   64.0460147
  23.9167884   64.043391
  23.9282173   64.0357614
  23.9272517   64.0350639
  23.9292473   64.0344838
  23.9276111   64.0333963
  23.9256746   64.0338942
  23.9223003   64.0313857
  23.9179712   64.0322642
  23.9121133   64.0279771
  23.9075804   64.0299575
  23.885023    64.0235566
  23.8933325   64.0204068
  23.8923508   64.0194433
  23.8918573   64.0197829
  23.8914898   64.0199638
  23.8912913   64.0199756
  23.8907844   64.0200285
  23.8905323   64.0199944
  23.8903365   64.0200238
  23.8905135   64.0202129
  23.8905215   64.0203093
  23.8904706   64.020341
  23.8904008   64.0203492
  23.8903016   64.0202975
  23.8900334   64.0202399
  23.88991     64.0202223
  23.8897088   64.0202082
  23.8896498   64.0201765
  23.8896283   64.0200778
  23.8897705   64.0199768
  23.8896123   64.0199568
  23.8893735   64.0199509
  23.8890302   64.0200073
  23.8887593   64.0200849
  23.8886869   64.0201765
  23.8885179   64.0201671
  23.8881478   64.0202258
  23.8879466   64.0202071
  23.8878259   64.0203198
  23.8878527   64.0204491
  23.8879064   64.0205302
  23.8878393   64.0206124
  23.8870159   64.0210554
  23.886922    64.0211587
  23.8868093   64.021154
  23.8866484   64.021107
  23.886458    64.0211117
  23.8862649   64.0211658
  23.8861576   64.0212539
  23.88623     64.0213268
  23.886407    64.0213632
  23.8864177   64.0213914
  23.8860878   64.0214995
  23.8855407   64.0218249
  23.8854226   64.0219448
  23.8854012   64.0220904
  23.8847601   64.021886
  23.8818097   64.0203645
  23.8802594   64.0149956
  23.8740528   64.0156667
  23.872937    64.0149204
  23.8785642   64.0121269
  23.879621    64.012409
  23.8985628   63.998937
  23.8964331   63.9981774
  23.903085    63.9947648
  23.9039755   63.9950847
  23.9282763   63.9777331
  23.9446431   63.9711638
  23.9378411   63.966526
  23.9241457   63.9738284
  23.923341    63.9734942
  23.9247197   63.9711897
  23.910622    63.9649767
  23.9064324   63.9670781
  23.908719    63.9680145
  23.9028543   63.9712839
  23.8935363   63.9675313
  23.8873404   63.9701327
  23.8873458   63.9701851
  23.8872841   63.9702822
  23.8870105   63.9704994
  23.8867275   63.9705988
  23.8864499   63.9706577
  23.8902694   63.9721925
  23.8889122   63.9728163
  23.8809836   63.9707813
  23.8789263   63.9738579
  23.8582438   63.9709084
  23.8571374   63.9710997
  23.8567297   63.9710502
  23.8567002   63.9708289
  23.8558835   63.9706777
  23.8503098   63.9723526
  23.8435399   63.9698526
  23.823925    63.9767011
  23.8283801   63.9797112
  23.8274279   63.9800547
  23.8229647   63.9770424
  23.7969071   63.986115
  23.7936884   63.9879783
  23.7939835   63.988103
  23.7783247   63.9969568
  23.7700581   63.9934617
  23.7597585   63.9910554
  23.7538254   63.9945978
  23.7516421   63.9937628
  23.7518513   63.9936052
  23.7512237   63.9931301
  23.7498665   63.9930548
  23.7484074   63.9926432
  23.7507838   63.9883877
  23.7433326   63.9833692
  23.7551665   63.9776461
  23.7461243   63.9737271
  23.7358326   63.9798183
  23.7353364   63.9801101
  23.7344964   63.9805881
  23.7340844   63.9808436
  23.732048    63.9820369
  23.7260968   63.985536
  23.7115645   63.9776365
  23.7027605   63.9853977
  23.6929972   63.9939983
  23.6870599   63.999252
  23.6782408   64.0070208
  23.6746788   64.0101522
  23.6688573   64.0151123
  23.6610961   64.0216591
  23.6567831   64.0252869
  23.654573    64.0271571
  23.6496098   64.0313249
  23.6465263   64.0340068
  23.6406255   64.039136
  23.6381096   64.0401317
  23.6311412   64.0428931
  23.6212921   64.0467999
  23.617197    64.0485222
  23.6163354   64.0488845
  23.6017013   64.0549779
  23.5845351   64.0621212
  23.561124    64.0718787
  23.5608823   64.0719794
  23.5605176   64.072092
  23.5574645   64.0733844
  23.5515976   64.0758676
  23.5459907   64.0782273
  23.5457137   64.0783449
  23.5422356   64.0798218
  23.5403259   64.0814538
  23.538738    64.0812756
  23.5379188   64.0816091
  23.5363434   64.0822506
  23.5357533   64.0824908
  23.5292602   64.0851344
  23.5239816   64.0870567
  23.5186386   64.0890352
  23.5071116   64.0943442
  23.5063434   64.094698
  23.503539    64.0971617
  23.5004854   64.0998442
  23.4922028   64.107154
  23.4695864   64.1094965
  23.4504247   64.1114828
  23.4120798   64.115408
  23.3842063   64.1182837
  23.356719    64.1210936
  23.3325791   64.123566
  23.3052206   64.1263566
  23.2775831   64.1291749
  23.238337    64.1331633
  23.1975181   64.1372966
  23.1583858   64.1412505
  23.1236029   64.1447505
  23.0905151   64.1480723
  23.0514987   64.1519788
  22.981596    64.1589518
  22.9326725   64.1638055
  22.8800798   64.169023
  22.7788929   64.1789752
END
END
