polygon
1
  26.767441    64.265168
  26.7708538   64.2160225
  26.7741294   64.1629669
  26.7727389   64.1609436
  26.7716049   64.1602071
  26.7711693   64.1577847
  26.7733247   64.156717
  26.7747205   64.156818
  26.7767601   64.1236444
  26.7655356   64.1191714
  26.7685042   64.1168391
  26.7746872   64.1210123
  26.7768684   64.1215498
  26.7779335   64.1054271
  26.7788249   64.0919284
  26.7811235   64.0570861
  26.8703971   64.0369676
  26.8725757   64.0352067
  26.973287    64.009041
  27.0126024   63.9989408
  27.0185655   63.9985829
  27.1102037   63.9937859
  27.1119225   63.9944214
  27.1193114   63.9907806
  27.1219615   63.9918308
  27.1312382   63.997633
  27.2504501   63.9900199
  27.261143    63.989333
  27.3771834   63.9710581
  27.3794284   63.9707044
  27.3815318   63.9703298
  27.3864123   63.9691612
  27.4186433   63.966454
  27.4189547   63.9652776
  27.4224946   63.9647619
  27.4239623   63.9623268
  27.422895    63.9619149
  27.4233747   63.9590367
  27.4174541   63.956747
  27.4159039   63.9557518
  27.4226449   63.9562782
  27.4274925   63.9516677
  27.427516    63.9514815
  27.4285382   63.951076
  27.4286236   63.9504842
  27.4289097   63.9497224
  27.4282143   63.9488398
  27.4283738   63.9486057
  27.4285718   63.9478656
  27.4492452   63.9443534
  27.4970053   63.949704
  27.4777655   63.9614706
  27.4955401   63.959949
  27.5404207   63.9565025
  27.5717085   63.9457038
  27.5757211   63.9443979
  27.5800547   63.9428188
  27.6012904   63.9354769
  27.6180931   63.9298806
  27.6502902   63.9187415
  27.6638598   63.9230122
  27.7404336   63.9092236
  27.8159915   63.8787787
  27.8911624   63.8509944
  27.8928104   63.8491032
  27.9098887   63.8521182
  27.925918    63.8447118
  28.0611125   63.7815591
  28.1251327   63.7379855
  28.1444522   63.7247583
  28.1587763   63.7195921
  28.1680549   63.7158916
  28.1998359   63.7107554
  28.2146532   63.7030713
  28.215595    63.702409
  28.2203231   63.6991418
  28.2361747   63.6882947
  28.2562938   63.6744498
  28.2739236   63.6688119
  28.2866031   63.6811007
  28.2943566   63.6888856
  28.2962054   63.6908107
  28.3012374   63.6960496
  28.3017347   63.6965673
  28.3027109   63.6975835
  28.3597294   63.755004
  28.3644614   63.7595002
  28.369223    63.7640242
  28.3825289   63.7767997
  28.3878883   63.7817284
  28.394648    63.7878886
  28.4357791   63.8245642
  28.466149    63.8515867
  28.4737569   63.858405
  28.4598912   63.8686226
  28.4593937   63.8689883
  28.4587583   63.8694554
  28.459979    63.8711303
  28.4754504   63.8741831
  28.477248    63.8745378
  28.4823632   63.8755471
  28.4860948   63.8762833
  28.4960283   63.8782431
  28.5007668   63.8824251
  28.5218028   63.8789921
  28.5350858   63.8766694
  28.5584511   63.8739103
  28.6731464   63.8615524
  28.8143299   63.8446606
  28.8852453   63.8358245
  28.9388478   63.8398361
  29.0034662   63.8426643
  29.0805679   63.8455147
  29.1118997   63.8463482
  29.1427861   63.8470133
  29.1583156   63.8473191
  29.2213376   63.8486293
  29.2266368   63.8487273
  29.2364001   63.8490204
  29.2451334   63.8493892
  29.2652215   63.8502067
  29.2887783   63.8514792
  29.3049145   63.8523964
  29.3112976   63.8527897
  29.3418088   63.8552203
  29.3467641   63.855615
  29.352208    63.8560486
  29.3576099   63.8564789
  29.3601637   63.8566823
  29.4159794   63.8611278
  29.5211855   63.8698641
  29.5441165   63.8715145
  29.645324    63.8772372
  29.6825192   63.8789383
  29.7226991   63.7480138
  29.775697    63.7033596
  29.8736622   63.7487499
  29.877593    63.7494022
  29.9433882   63.7538127
  29.9681706   63.7554706
  29.9718903   63.7571676
  29.9833277   63.7600229
  30.0993119   63.7884698
  30.1332431   63.7970758
  30.1440627   63.7995912
  30.1503088   63.8010432
  30.260416    63.8220032
  30.3140678   63.8996422
  30.3200157   63.9082361
  30.320834    63.909417
  30.3209081   63.9095328
  30.3535553   63.9320929
  30.3646448   63.9381095
  30.4470402   63.9827725
  30.4668473   63.9978738
  30.491885    64.0169515
  30.492694    64.0175916
  30.5225516   64.0440386
  30.5280169   64.0488769
  30.5535801   64.1016818
  30.5534271   64.1322443
  30.515893    64.1549652
  30.4930374   64.1778196
  30.4663999   64.2044319
  30.5095991   64.221691
  30.4824397   64.2623385
  30.3882846   64.2690569
  30.3607757   64.281319
  30.3669276   64.2996785
  30.3021492   64.3198533
  30.2854947   64.3298262
  30.2626466   64.3360948
  30.2101519   64.3504661
  30.1371507   64.3579592
  30.1203976   64.3623165
  30.1099028   64.3650457
  30.0523221   64.3977904
  30.0448933   64.4020122
  30.0572218   64.4342462
  30.0500368   64.4416262
  30.0583348   64.4508749
  30.0573679   64.4525319
  30.0459327   64.4721205
  30.0243759   64.482994
  30.0297001   64.5006267
  30.0145963   64.5043418
  29.993718    64.5267811
  29.9869582   64.5338992
  29.9878117   64.537453
  29.9886345   64.5408782
  29.9893853   64.5440036
  29.989431    64.5441939
  29.9896897   64.5452708
  29.9919675   64.5547501
  29.9928989   64.558625
  29.997439    64.5773106
  29.9898082   64.5870845
  29.9894012   64.5876215
  30.0005093   64.5923533
  30.054335    64.6152701
  30.118974    64.6259097
  30.1301155   64.6347333
  30.135839    64.6490009
  30.1335371   64.6507674
  30.128239    64.6549656
  30.1259542   64.6567758
  30.1198153   64.6615399
  30.1044403   64.6734682
  30.053701    64.7130519
  30.0413979   64.7411862
  30.0856041   64.7643249
  30.0910618   64.764951
  30.0865096   64.7739862
  30.0575505   64.7865512
  30.0429363   64.7928899
  30.0071854   64.7915047
  29.9957858   64.7947824
  29.8976127   64.7935425
  29.8791609   64.7922453
  29.8688383   64.7897843
  29.7701723   64.7897831
  29.7396308   64.7897827
  29.7174912   64.8020571
  29.708051    64.807319
  29.7048204   64.809121
  29.6877615   64.8186633
  29.6875011   64.8188134
  29.6996968   64.8372244
  29.6883508   64.8445991
  29.6862688   64.8459521
  29.6814802   64.8490638
  29.6449324   64.8664807
  29.635444    64.8827767
  29.6152439   64.9174367
  29.6110374   64.9273269
  29.6126725   64.9344477
  29.6153203   64.943894
  29.6173932   64.9527073
  29.6191892   64.9596633
  29.6162216   64.9644682
  29.6116747   64.9729698
  29.5993322   64.9950618
  29.6043683   65.0008243
  29.6144299   65.0127934
  29.6163889   65.0202639
  29.6183995   65.0286943
  29.6210045   65.0374562
  29.6235773   65.0475831
  29.6269697   65.0605988
  29.6545235   65.0681934
  29.6559204   65.0688492
  29.6834291   65.0763627
  29.7111921   65.083899
  29.7326874   65.0912976
  29.8309549   65.0919272
  29.8718578   65.1037532
  29.8968651   65.1051404
  29.8681602   65.1194803
  29.85282     65.1272277
  29.8565686   65.1285684
  29.8590159   65.1289501
  29.8598989   65.1292466
  29.8602862   65.1296793
  29.8610994   65.1299933
  29.8619116   65.1302762
  29.8627774   65.1305885
  29.8649114   65.1309557
  29.8647762   65.1314124
  29.8642687   65.1317751
  29.8625875   65.1317237
  29.8607636   65.1316926
  29.8594303   65.1313592
  29.857597    65.1301926
  29.8559303   65.1300259
  29.8537636   65.1296926
  29.8517636   65.1291926
  29.8512636   65.1288592
  29.8501578   65.1285696
  29.8193446   65.1442772
  29.8279237   65.1499386
  29.8935921   65.1929709
  29.8856679   65.2062967
  29.8594516   65.2151507
  29.816662    65.2228756
  29.7641025   65.2288942
  29.7441619   65.2257998
  29.7280013   65.2276045
  29.7006618   65.230841
  29.6677696   65.2312347
  29.6675719   65.2312303
  29.6339347   65.2315656
  29.6229131   65.2413473
  29.6199531   65.2440022
  29.6017894   65.259934
  29.6092623   65.2757947
  29.6460627   65.2890764
  29.7111675   65.3267721
  29.724017    65.3343516
  29.7465771   65.3474169
  29.7429277   65.3537864
  29.7349705   65.3677612
  29.7313348   65.3740213
  29.7305406   65.3792867
  29.7286619   65.3932527
  29.7273647   65.4003356
  29.7279526   65.4072122
  29.7288658   65.4174455
  29.7300309   65.4333755
  29.7306061   65.4399134
  29.731269    65.4474464
  29.7328988   65.4696184
  29.7330511   65.4724989
  29.7410795   65.4776391
  29.7489604   65.4825943
  29.7511045   65.4879857
  29.7531408   65.4932038
  29.7547067   65.4973644
  29.7407084   65.4963871
  29.7284319   65.494217
  29.7264789   65.4942657
  29.7201313   65.4945408
  29.7125281   65.4942359
  29.6933324   65.4970025
  29.6529434   65.4971451
  29.5475444   65.505646
  29.5276269   65.5008339
  29.5241092   65.500261
  29.5234935   65.4997862
  29.5236399   65.4993356
  29.5245668   65.4988857
  29.5258749   65.49846
  29.5286961   65.4980828
  29.5300003   65.497693
  29.5306449   65.4971445
  29.5306004   65.4969227
  29.5304093   65.4966766
  29.5295987   65.4963728
  29.5285925   65.4962939
  29.527806    65.4963835
  29.5266238   65.4966009
  29.5257176   65.4966244
  29.5251485   65.4965568
  29.524594    65.4964527
  29.5242154   65.4963121
  29.523495    65.4958654
  29.5232448   65.4950797
  29.5232295   65.4937902
  29.5230091   65.4932789
  29.5225672   65.4930146
  29.5218615   65.4927746
  29.5187224   65.4924393
  29.5162575   65.4922256
  29.5134089   65.4914821
  29.5113424   65.4906702
  29.510482    65.490534
  29.507327    65.4900346
  29.5053014   65.4896353
  29.504373    65.489304
  29.5048879   65.4880389
  29.5045357   65.488042
  29.499613    65.4889196
  29.4853179   65.4914768
  29.4121103   65.5045399
  29.3667396   65.5126379
  29.3468806   65.5161376
  29.320315    65.5208639
  29.311647    65.5206637
  29.27909     65.5199553
  29.265826    65.5196628
  29.213283    65.5184696
  29.2149118   65.5116607
  29.2192574   65.4934856
  29.1941079   65.4823403
  29.1986891   65.4805312
  29.1946572   65.4783966
  29.1904719   65.4728571
  29.1878605   65.4731876
  29.1880429   65.4760574
  29.1862199   65.478791
  29.1520699   65.4636206
  29.1640878   65.4637621
  29.166373    65.464161
  29.1680253   65.4637133
  29.1677248   65.4626574
  29.1730249   65.4610508
  29.1787326   65.4611502
  29.1772199   65.4591257
  29.1718919   65.459612
  29.1690874   65.4603615
  29.1685939   65.4604507
  29.1684169   65.4606722
  29.1679721   65.4608195
  29.1674995   65.4608432
  29.1648066   65.4607048
  29.164061    65.4607015
  29.163664    65.4607681
  29.1633958   65.4608793
  29.1627574   65.460147
  29.1494032   65.4624451
  29.1217375   65.4500651
  29.12493     65.4494678
  29.1379575   65.449435
  29.145297    65.4500109
  29.1449932   65.4494326
  29.128796    65.4475555
  29.1199957   65.449285
  29.1161273   65.4475719
  29.0447859   65.4374785
  28.9555462   65.4473789
  28.8098207   65.4201884
  28.8036624   65.4292614
  28.7918606   65.428031
  28.7928692   65.4232813
  28.7759884   65.423276
  28.7760678   65.4207163
  28.8016303   65.4188486
  28.8017698   65.4186665
  28.6662238   65.3931765
  28.6468926   65.3893168
  28.6570947   65.3719161
  28.6328743   65.3574176
  28.6288639   65.3537348
  28.6267019   65.3501089
  28.6112568   65.3241911
  28.6087409   65.3198549
  28.6148499   65.3193348
  28.6137233   65.3163053
  28.6071766   65.3171992
  28.6043678   65.3124447
  28.6120239   65.3084867
  28.6045674   65.3002514
  28.6138467   65.2924836
  28.6125468   65.2914043
  28.6120507   65.2899426
  28.6086014   65.2866733
  28.5983725   65.2869249
  28.5936872   65.2882383
  28.5903592   65.2844251
  28.4871016   65.2770273
  28.4886884   65.2723899
  28.5049018   65.2678113
  28.5054136   65.2671331
  28.4952512   65.2673661
  28.4854601   65.2704075
  28.483103    65.276767
  28.3948549   65.2704198
  28.3641728   65.2681875
  28.3044925   65.2632343
  28.2854861   65.2615539
  28.2889432   65.260443
  28.2853008   65.2580938
  28.2771437   65.2562302
  28.2740023   65.2568957
  28.2699049   65.2551879
  28.2683836   65.2557964
  28.2659846   65.2597816
  28.2506172   65.2583817
  28.2448315   65.2578546
  28.1623827   65.2503423
  28.0338804   65.2385528
  28.0299359   65.2367604
  28.0317992   65.2366715
  28.032763    65.2346856
  28.0264741   65.2351805
  28.0257859   65.2348679
  27.9955986   65.2211521
  27.9925954   65.2213844
  27.9918155   65.2196401
  27.9921543   65.2195748
  27.9857548   65.2166644
  27.9508607   65.2074537
  27.9508759   65.2067969
  27.9480371   65.2055461
  27.9415536   65.1798687
  27.9370505   65.1714625
  27.946166    65.1696647
  27.945228    65.1687139
  27.9363859   65.1702697
  27.9005914   65.1028108
  27.8944953   65.0913864
  27.7401987   65.1117359
  27.7401167   65.1128812
  27.7356854   65.1137199
  27.7322947   65.1143617
  27.714627    65.1177054
  27.7029773   65.1166049
  27.6670098   65.1213117
  27.6164614   65.1070505
  27.6147549   65.1089566
  27.6038047   65.1071844
  27.6067612   65.1042938
  27.5720983   65.0944404
  27.5611548   65.0937519
  27.4510886   65.0869899
  27.4403614   65.0873082
  27.3303304   65.0905733
  27.2840767   65.0480793
  27.2623432   65.02722
  27.3173922   64.996888
  27.3225254   64.9879669
  27.3357703   64.9868281
  27.3860859   64.9588859
  27.3938584   64.9454165
  27.3768525   64.9413883
  27.3923381   64.93649
  27.3996312   64.9355456
  27.4045559   64.9269407
  27.4040534   64.9268148
  27.4035281   64.9267543
  27.4029686   64.9265583
  27.402021    64.926421
  27.4016927   64.9263908
  27.4012473   64.926398
  27.4009162   64.9264694
  27.4005022   64.9266388
  27.4003851   64.9268082
  27.4003309   64.9270804
  27.4001624   64.9272341
  27.3995515   64.9274264
  27.399029    64.9274736
  27.3979812   64.9274591
  27.3973931   64.9274071
  27.3961341   64.9272752
  27.3948522   64.9271966
  27.3933419   64.9270453
  27.39        64.9263374
  27.3893944   64.9261834
  27.3879893   64.9258515
  27.3884173   64.9255743
  27.389782    64.9258789
  27.3901534   64.9261013
  27.3928182   64.9266283
  27.3943605   64.9269089
  27.3946028   64.9269534
  27.3994155   64.927104
  27.3995851   64.9270424
  27.4003522   64.9254887
  27.4002158   64.92539
  27.3999731   64.9253561
  27.3999731   64.9253017
  27.4002329   64.9252363
  27.4010152   64.9251565
  27.4012065   64.925096
  27.4012579   64.9249447
  27.4014434   64.9248443
  27.4015177   64.9246979
  27.4015719   64.9246567
  27.4019231   64.9246434
  27.4021486   64.9246483
  27.402457    64.924595
  27.4053675   64.9233153
  27.4051495   64.9230655
  27.4047215   64.922559
  27.4046165   64.9223605
  27.4043985   64.922227
  27.4037606   64.9218847
  27.3697068   64.8899406
  27.4026616   64.8551608
  27.3932288   64.8466677
  27.3864911   64.8475026
  27.3607964   64.8429202
  27.3697952   64.8313444
  27.3750484   64.8308101
  27.3541271   64.8118821
  27.213426    64.8282483
  27.211228    64.8265548
  27.2110988   64.8255587
  27.2097987   64.8250056
  27.2079252   64.8254178
  27.2005123   64.8257888
  27.1896472   64.8290275
  27.1894453   64.8288592
  27.1836882   64.8305215
  27.1846132   64.8315511
  27.155851    64.8349768
  27.1480792   64.8352818
  27.1234136   64.8182224
  27.1184238   64.81477
  27.1982598   64.7770816
  27.2490366   64.7396876
  27.2794878   64.7172227
  27.2795358   64.7168093
  27.2687304   64.7123731
  27.2302477   64.7165001
  27.2253519   64.713397
  27.2252797   64.7127573
  27.2261819   64.7125415
  27.2271923   64.7126109
  27.2285456   64.7119403
  27.2296643   64.7097821
  27.2288524   64.7080939
  27.2274991   64.7064133
  27.2279682   64.7051336
  27.229192    64.7041137
  27.2305255   64.7043777
  27.2312248   64.7042735
  27.2313549   64.703669
  27.2303954   64.7028282
  27.2292083   64.7020916
  27.2291595   64.700938
  27.2303379   64.7008952
  27.2308345   64.7007017
  27.2307857   64.7004237
  27.2301352   64.7000623
  27.2293709   64.6994299
  27.2295173   64.6989365
  27.2302003   64.6989365
  27.232542    64.6991519
  27.2343709   64.6991698
  27.2324632   64.706415
  27.2457545   64.7113625
  27.2595223   64.7077505
  27.2371118   64.699465
  27.2396322   64.6994299
  27.2405204   64.6991499
  27.2411283   64.6987349
  27.2413559   64.6979496
  27.2426406   64.6974353
  27.2434049   64.6973658
  27.2441204   64.696914
  27.2442505   64.6960799
  27.2458117   64.6953153
  27.2476168   64.695364
  27.2499259   64.6949052
  27.2508854   64.694377
  27.2496657   64.6937861
  27.2502187   64.6930145
  27.2487226   64.6928546
  27.2485112   64.6920084
  27.2669331   64.6610325
  27.2670493   64.6447037
  27.2691084   64.637653
  27.2665444   64.6378546
  27.2626977   64.6332219
  27.2584143   64.6331145
  27.2593486   64.6266801
  27.2595644   64.6248867
  27.2604017   64.6249421
  27.2611989   64.6247501
  27.2621723   64.6246948
  27.2623202   64.6244369
  27.2621354   64.6240617
  27.2625621   64.623935
  27.2665235   64.6246026
  27.2695943   64.6251246
  27.2709928   64.6250485
  27.2718954   64.6252168
  27.272739    64.6257303
  27.2737003   64.6254303
  27.2744798   64.6255188
  27.2754602   64.625891
  27.27575     64.6258631
  27.2759768   64.6257354
  27.2757855   64.6254249
  27.2758576   64.6252852
  27.2762463   64.6252471
  27.2773335   64.6254532
  27.2782697   64.6256306
  27.2788472   64.6258325
  27.2790435   64.6257872
  27.2789096   64.6253512
  27.2790734   64.625175
  27.2796957   64.6251348
  27.2803853   64.6254713
  27.2806948   64.625476
  27.2808336   64.6252872
  27.2801985   64.6248789
  27.280703    64.6245293
  27.2827453   64.6240418
  27.2847966   64.6239846
  27.2859877   64.6238795
  27.2866224   64.623962
  27.2872596   64.6243345
  27.2876801   64.6243955
  27.2879134   64.6243906
  27.2883689   64.6241264
  27.2889955   64.623913
  27.2890238   64.6237482
  27.2880788   64.6232838
  27.2874062   64.6230269
  27.287405    64.6228361
  27.2873903   64.6226774
  27.2880398   64.6219982
  27.2882035   64.6215871
  27.288399    64.6214445
  27.2890326   64.6213115
  27.290414    64.6209771
  27.2926586   64.6214799
  27.293637    64.6215209
  27.2938723   64.6213884
  27.29348     64.6210762
  27.293495    64.6209508
  27.2940359   64.6209229
  27.2946226   64.6210257
  27.2948443   64.621005
  27.2949744   64.620812
  27.2946568   64.6206118
  27.2945448   64.6203476
  27.295257    64.6198465
  27.2957619   64.6197055
  27.2961699   64.619659
  27.2969918   64.6197631
  27.2975516   64.6197439
  27.2982395   64.6199548
  27.2993668   64.6194665
  27.3006008   64.6193701
  27.3010127   64.6192177
  27.301107    64.6188796
  27.3027018   64.6183465
  27.3030729   64.6181751
  27.3035306   64.6177314
  27.3082908   64.6159427
  27.3112915   64.6157238
  27.3144836   64.6147332
  27.3168139   64.6143008
  27.3204849   64.6132281
  27.3233791   64.612988
  27.3270395   64.61283
  27.3286153   64.6124724
  27.3296166   64.612049
  27.3313127   64.6118427
  27.3325109   64.611382
  27.3335504   64.6105439
  27.3348581   64.6101164
  27.3359308   64.6100239
  27.3371949   64.6096358
  27.3391869   64.6093359
  27.3413707   64.6088017
  27.34338     64.6088297
  27.3455146   64.6084332
  27.3472662   64.6077409
  27.3483071   64.6077366
  27.349463    64.6076665
  27.3509252   64.6072598
  27.3522726   64.6070501
  27.3548715   64.6064254
  27.3568576   64.6056037
  27.3610359   64.6050235
  27.3633166   64.6049798
  27.3671294   64.6046075
  27.3684245   64.6037981
  27.349636    64.5969175
  27.3888548   64.5833557
  27.3827483   64.5785073
  27.3779728   64.5773076
  27.3969819   64.5718839
  27.3965157   64.5716757
  27.3478838   64.5499515
  27.339069    64.5415998
  27.3367369   64.5394554
  27.3282948   64.531557
  27.3126392   64.51688
  27.3104415   64.5148115
  27.2991508   64.5042161
  27.2965823   64.5018298
  27.2722984   64.4897296
  27.2489978   64.4845957
  27.2133099   64.4768349
  27.2055164   64.4740494
  27.2010282   64.4701343
  27.1988943   64.4681907
  27.1850723   64.4558515
  27.179993    64.4409928
  27.1946733   64.4335078
  27.1955806   64.4322909
  27.1995693   64.4271432
  27.2022983   64.4262116
  27.2048646   64.4287418
  27.2156971   64.4214935
  27.2216524   64.4233467
  27.2270505   64.420176
  27.2204149   64.4183277
  27.2453381   64.4016028
  27.2489871   64.3991298
  27.2512555   64.3990463
  27.2532272   64.3925862
  27.2405388   64.3766614
  27.1913999   64.3497779
  27.1877796   64.3103244
  27.042346    64.2845095
  26.9994059   64.2904802
  26.9642357   64.2956981
  26.9416666   64.3270691
  26.9217184   64.3216805
  26.9260722   64.311882
  26.9058687   64.3110225
  26.895304    64.3123796
  26.8948352   64.3118494
  26.8938911   64.3119661
  26.893066    64.3058741
  26.8913397   64.3048963
  26.8902722   64.3031257
  26.8883249   64.3015221
  26.8812202   64.3015001
  26.8775436   64.3028129
  26.87675     64.304716
  26.8656265   64.3047563
  26.8652301   64.3060265
  26.862191    64.305873
  26.8453688   64.3019355
  26.8448061   64.302328
  26.8374772   64.3043385
  26.8389173   64.3064358
  26.8244359   64.3063446
  26.8138426   64.3061635
  26.7861646   64.2920711
  26.7483823   64.2785576
  26.7674013   64.2680012
  26.767441    64.265168
END
END
