polygon
1
  28.3150261   62.3545325
  28.3328916   62.3533879
  28.3632218   62.3525137
  28.3634551   62.352598
  28.364452    62.3526131
  28.3654587   62.3524877
  28.3738497   62.3571988
  28.3743482   62.3573664
  28.3835541   62.3553907
  28.3846635   62.3557
  28.3858888   62.3555608
  28.3864829   62.3556208
  28.3873749   62.3554907
  28.3878924   62.3557404
  28.3886045   62.3565938
  28.3889687   62.3567853
  28.3907487   62.3570082
  28.3933027   62.3568922
  28.3960328   62.3573873
  28.3972725   62.3574676
  28.3985562   62.3571291
  28.3995046   62.3567561
  28.4007231   62.3566395
  28.40205     62.3563128
  28.4036158   62.3559243
  28.4044366   62.3558642
  28.4057799   62.3554329
  28.4069019   62.3552963
  28.4337868   62.3485744
  28.4377559   62.3463712
  28.4321239   62.344299
  28.429199    62.3418261
  28.4305184   62.3356449
  28.4284103   62.3319892
  28.4263084   62.3303001
  28.4229857   62.3288852
  28.4272274   62.324498
  28.4378004   62.3168761
  28.4823078   62.3114385
  28.4829681   62.311633
  28.4817814   62.311867
  28.4812077   62.3131552
  28.481658    62.3136931
  28.4813494   62.313894
  28.4803713   62.3139119
  28.4806731   62.3141402
  28.4799117   62.314826
  28.4788787   62.3146296
  28.4778896   62.3150711
  28.4769028   62.3151638
  28.4763098   62.3154943
  28.4759204   62.3162858
  28.4749227   62.3166292
  28.4742007   62.3165153
  28.4734262   62.3168181
  28.4739249   62.3175334
  28.4750405   62.3175735
  28.4744535   62.318367
  28.4991951   62.3164133
  28.5011041   62.3150763
  28.5010833   62.3130256
  28.5055302   62.3122479
  28.5082387   62.3106715
  28.5120216   62.3106718
  28.5184222   62.3092628
  28.5211997   62.3094276
  28.5223587   62.3086683
  28.5285954   62.3035929
  28.5391747   62.301122
  28.5409835   62.2987607
  28.5399175   62.2968388
  28.5415925   62.2951979
  28.5442126   62.2948751
  28.5485077   62.2930946
  28.5514569   62.2923181
  28.5538153   62.2936657
  28.5582566   62.2936875
  28.5613731   62.2934741
  28.5623631   62.2943775
  28.5661151   62.2922845
  28.5670534   62.2912043
  28.5686646   62.2909938
  28.5692519   62.2896113
  28.5689056   62.288399
  28.5666847   62.2876921
  28.5664209   62.2868808
  28.5658027   62.2864907
  28.5664881   62.2859142
  28.56648     62.2852653
  28.5657539   62.2851411
  28.565259    62.2847495
  28.5640657   62.2844551
  28.5640759   62.283978
  28.5649408   62.2835327
  28.5651663   62.2828488
  28.5668276   62.2825191
  28.5800062   62.2781279
  28.5830679   62.2694727
  28.6014952   62.261957
  28.6082237   62.2521467
  28.6376977   62.2402078
  28.6528224   62.231333
  28.6599825   62.2392155
  28.7018327   62.2237608
  28.710418    62.2281088
  28.7072001   62.2301697
  28.7079455   62.2330929
  28.7158475   62.2354892
  28.7332616   62.2233215
  28.7380332   62.2170202
  28.7797032   62.2049249
  28.7940707   62.2105836
  28.7808163   62.2225973
  28.7672893   62.2337861
  28.7646537   62.2349648
  28.7555919   62.2444673
  28.7467215   62.2532654
  28.7462569   62.2621917
  28.7486961   62.2638072
  28.7491652   62.264382
  28.7480081   62.2650442
  28.7476954   62.2659683
  28.7477423   62.2668706
  28.7488681   62.26762
  28.7507131   62.2683694
  28.750588    62.2745313
  28.7514613   62.2782409
  28.7592223   62.2802168
  28.759324    62.2841943
  28.7526362   62.284457
  28.7528396   62.2867635
  28.7793092   62.2933703
  28.7853723   62.2863252
  28.7902648   62.2778195
  28.807694    62.2706979
  28.8143472   62.2677867
  28.8367539   62.2673828
  28.8476697   62.2643559
  28.8597492   62.2529089
  28.866848    62.2544357
  28.8884888   62.2637265
  28.9093187   62.2600723
  28.9188534   62.2583769
  28.9234205   62.2533414
  28.9278462   62.2537627
  28.9285108   62.2543486
  28.9288643   62.2545
  28.9297551   62.2556585
  28.9301085   62.256659
  28.9302217   62.2596011
  28.9308014   62.2605883
  28.9320174   62.261207
  28.9397094   62.2700639
  28.9453794   62.2729323
  28.9461571   62.2742283
  28.9473165   62.2752413
  28.9508797   62.2768266
  28.939737    62.2851684
  28.9350581   62.2860141
  28.9477499   62.2922853
  28.9547644   62.2890605
  28.9550188   62.2890705
  28.955248    62.2888897
  28.9576313   62.2886075
  28.9570361   62.2884045
  28.956635    62.2883959
  28.9562882   62.2881977
  28.9614752   62.2857282
  28.9630517   62.2863611
  28.9644075   62.286462
  28.9662376   62.2875154
  28.9680565   62.2883486
  28.9691334   62.28844
  28.9696906   62.2887221
  28.9704875   62.2887316
  28.9719177   62.2883611
  28.9725962   62.288269
  28.9733822   62.288478
  28.9732054   62.2886344
  28.9734865   62.2887511
  28.9734495   62.2889618
  28.9724815   62.2893649
  28.9726405   62.2899628
  28.9718643   62.2903978
  28.972051    62.2906059
  28.9498593   62.2999559
  28.9351574   62.2954251
  28.9334743   62.296352
  28.9600568   62.3094901
  28.9852891   62.3106359
  29.0090878   62.3303486
  29.0112096   62.3298426
  29.0141916   62.3298692
  29.0161987   62.3296296
  29.040928    62.3211768
  29.0619948   62.3299026
  29.0582993   62.330698
  29.059702    62.3329275
  29.0894544   62.3429897
  29.0983828   62.3392645
  29.1076215   62.3368664
  29.1139096   62.3288889
  29.1181696   62.3283494
  29.1225184   62.3262739
  29.1361193   62.3291295
  29.1407301   62.3292096
  29.1446215   62.3308293
  29.157872    62.3312444
  29.1688541   62.3320262
  29.1569261   62.3407325
  29.1694404   62.3525897
  29.1594775   62.3558409
  29.1617036   62.3595658
  29.1642947   62.3594473
  29.1677252   62.3599552
  29.1725059   62.3622915
  29.1814834   62.3617836
  29.1836731   62.3628671
  29.1816891   62.3695921
  29.1796855   62.3710942
  29.1788031   62.3718019
  29.1781147   62.3722615
  29.1775989   62.3726058
  29.1777857   62.3730439
  29.1762518   62.3735912
  29.1659977   62.3847054
  29.1664472   62.3863364
  29.1695531   62.3903789
  29.1662769   62.3930939
  29.1607866   62.3979575
  29.1624445   62.3990127
  29.1633136   62.4002101
  29.1634101   62.4002802
  29.1635711   62.4004144
  29.1637105   62.4005735
  29.1638285   62.4006928
  29.1640646   62.4008121
  29.1643113   62.4009761
  29.1643757   62.4010904
  29.1645152   62.4012395
  29.1645366   62.4013936
  29.1643757   62.4015229
  29.1643757   62.4016372
  29.1644508   62.4017366
  29.1646332   62.4018211
  29.1648263   62.4018509
  29.1652769   62.4019404
  29.1654915   62.4020348
  29.1656739   62.4020596
  29.1658885   62.4021392
  29.1662962   62.4023181
  29.1665429   62.4023628
  29.1668112   62.4023728
  29.1669877   62.402459
  29.1683084   62.4030592
  29.1693131   62.4045516
  29.1692595   62.404651
  29.1692895   62.4047733
  29.1695062   62.4048449
  29.1696672   62.4049791
  29.1699032   62.4050685
  29.1701392   62.4052474
  29.17015     62.4053418
  29.1702251   62.4053816
  29.1704504   62.4053766
  29.1706328   62.4054263
  29.170901    62.4054611
  29.1712229   62.4055705
  29.1714052   62.4056947
  29.1717164   62.4058338
  29.1716949   62.405978
  29.1717915   62.4060277
  29.171931    62.4060128
  29.1721134   62.4060774
  29.1723279   62.4061966
  29.1724996   62.4062911
  29.1726047   62.4062891
  29.1727678   62.4062513
  29.1728751   62.4063109
  29.1729395   62.4064153
  29.1729395   62.4065346
  29.1730253   62.4066389
  29.1730146   62.406793
  29.1730897   62.406947
  29.1733021   62.4070941
  29.1734952   62.4071388
  29.1734845   62.4072432
  29.1735918   62.4072879
  29.1739673   62.4073525
  29.1741819   62.4074122
  29.1743771   62.4073625
  29.1744646   62.4073366
  29.174611    62.4073277
  29.1747505   62.4073525
  29.1749758   62.4073525
  29.1750724   62.4072382
  29.1752354   62.4070514
  29.1755144   62.4068725
  29.1757504   62.4067333
  29.1759543   62.4065843
  29.1761581   62.4063855
  29.1762525   62.4063238
  29.1764156   62.4062761
  29.1764907   62.4061917
  29.1766302   62.406137
  29.1767268   62.4060575
  29.1768555   62.4058686
  29.177025    62.4057871
  29.1770915   62.4057295
  29.1774542   62.4055585
  29.1775958   62.4055406
  29.1777975   62.405479
  29.1779498   62.4052872
  29.1780893   62.4052424
  29.1784648   62.4052424
  29.178776    62.4052872
  29.1791708   62.40532
  29.1795999   62.4053001
  29.1797931   62.4052554
  29.180351    62.4052206
  29.1806084   62.4052703
  29.1808799   62.4052591
  29.1811497   62.4051691
  29.1815419   62.4050914
  29.1818374   62.4050218
  29.1821496   62.4050014
  29.1823351   62.4049996
  29.1825005   62.4049917
  29.1832156   62.404987
  29.1837413   62.4049224
  29.1842777   62.4048826
  29.1850416   62.4047703
  29.1855244   62.4047753
  29.1859884   62.4048146
  29.1863484   62.4048429
  29.1865544   62.4047753
  29.1867153   62.4047653
  29.1869084   62.4046113
  29.1871874   62.404492
  29.1875736   62.4044373
  29.1878526   62.4044672
  29.1882688   62.4042912
  29.1883976   62.4042863
  29.1889018   62.4043111
  29.1892398   62.404295
  29.1895563   62.4042515
  29.1897923   62.4041819
  29.1899962   62.404003
  29.1902966   62.403839
  29.190597    62.4037743
  29.1908438   62.4037545
  29.1911442   62.4036749
  29.1914553   62.4036153
  29.1917772   62.403506
  29.192099    62.4034513
  29.1923029   62.4033867
  29.1927857   62.4031432
  29.1929037   62.4030835
  29.1930754   62.4030785
  29.1935903   62.4031382
  29.1938264   62.4031382
  29.1940731   62.4030984
  29.1943735   62.4030636
  29.1947383   62.4030388
  29.1951353   62.4030189
  29.1952855   62.4029593
  29.1954464   62.4029145
  29.1959721   62.4028847
  29.1961009   62.4028151
  29.1963798   62.4026511
  29.1966373   62.4025964
  29.1968841   62.4025567
  29.1970987   62.4024871
  29.1974742   62.4024324
  29.1977531   62.4023728
  29.1981394   62.4023678
  29.1983325   62.402333
  29.1984612   62.4022535
  29.1986114   62.4022038
  29.1989762   62.4021591
  29.1993195   62.4020944
  29.1995341   62.4020994
  29.199738    62.4021591
  29.2000169   62.402164
  29.2001349   62.4022237
  29.2003817   62.4022783
  29.2005963   62.4023082
  29.2008001   62.4023181
  29.2009825   62.4023678
  29.2011971   62.4024175
  29.2013366   62.4025219
  29.2014117   62.4026511
  29.2015082   62.4026958
  29.2017121   62.4027257
  29.2018837   62.4027356
  29.2020876   62.4027008
  29.2022378   62.402671
  29.2023558   62.4026909
  29.2024738   62.4027455
  29.2028279   62.4029195
  29.2029244   62.4029742
  29.2030746   62.4030139
  29.2031605   62.4031034
  29.2033107   62.4032028
  29.203536    62.4032972
  29.2035574   62.4033469
  29.2037205   62.4034732
  29.2040102   62.4036223
  29.2041904   62.4036998
  29.2043943   62.4037197
  29.2046625   62.4037843
  29.2049414   62.4038887
  29.2050916   62.4039582
  29.2051131   62.4040378
  29.2050595   62.4040974
  29.2050809   62.4041769
  29.2051882   62.4041968
  29.2053599   62.4042167
  29.2053921   62.4042664
  29.2053921   62.4043161
  29.205274    62.4043658
  29.2053599   62.4044254
  29.2053599   62.4045646
  29.2054242   62.404659
  29.2055423   62.4047286
  29.2056817   62.4047485
  29.2057783   62.4048727
  29.2059178   62.4050466
  29.2060894   62.4052007
  29.2061323   62.4053249
  29.2062718   62.4054691
  29.2063362   62.4055386
  29.2063898   62.4056778
  29.2065186   62.4057325
  29.2065937   62.405802
  29.2066581   62.4058965
  29.2067868   62.4059611
  29.2069048   62.4060406
  29.2069907   62.406135
  29.2070872   62.4062145
  29.2071945   62.4062692
  29.2072052   62.4063238
  29.2071409   62.4064282
  29.2072374   62.4066071
  29.2073125   62.4066419
  29.2073876   62.4067015
  29.2075271   62.4067562
  29.2076451   62.4068407
  29.2078704   62.40695
  29.2078704   62.4069798
  29.2079562   62.4070146
  29.2080743   62.4070395
  29.2082567   62.4070246
  29.2083639   62.4070395
  29.2084069   62.4070892
  29.2085141   62.4071637
  29.2087073   62.4072084
  29.2088146   62.4072631
  29.2088575   62.4073227
  29.2090291   62.4073873
  29.2090353   62.4074133
  29.2090506   62.4074768
  29.2090184   62.4075513
  29.2089433   62.4076109
  29.2089648   62.4077551
  29.2090613   62.4077749
  29.2092008   62.4077948
  29.2093832   62.4078346
  29.209469    62.4077948
  29.2096407   62.4078047
  29.2097909   62.4078346
  29.209984    62.4079091
  29.2100698   62.4079836
  29.210102    62.408083
  29.2100484   62.4081427
  29.2100055   62.4082197
  29.2099894   62.4083066
  29.2100001   62.408411
  29.2099947   62.4084607
  29.2099625   62.4085377
  29.2099679   62.4086222
  29.2100055   62.4087166
  29.2100376   62.4087713
  29.2101557   62.4088234
  29.2102195   62.4088451
  29.2102737   62.4088682
  29.2104491   62.4088895
  29.2105263   62.4089425
  29.2105741   62.4090868
  29.2106921   62.4091812
  29.2109174   62.409221
  29.2110998   62.4092806
  29.2113573   62.4093204
  29.2116255   62.4094048
  29.2117864   62.4094843
  29.2118079   62.4095638
  29.2118294   62.4096334
  29.211883    62.4096781
  29.2119581   62.4097576
  29.212001    62.409857
  29.2120976   62.4100061
  29.212162    62.4101005
  29.2123658   62.4101551
  29.2126018   62.4102247
  29.2127628   62.4102297
  29.2129559   62.4102247
  29.2132348   62.4102148
  29.2134387   62.4102893
  29.2136103   62.4103788
  29.2137069   62.4104781
  29.2137605   62.4106024
  29.2138464   62.4106719
  29.2139751   62.4107067
  29.214179    62.4107862
  29.2145008   62.4108259
  29.2147047   62.4108259
  29.214812    62.4108905
  29.2147905   62.41098
  29.2146832   62.4110545
  29.214415    62.4111539
  29.2143184   62.4112384
  29.214297    62.4113377
  29.2143828   62.4113974
  29.2145652   62.4114172
  29.2148383   62.4114182
  29.2308085   62.4177573
  29.2677127   62.4076837
  29.2959491   62.3867846
  29.2959619   62.3867282
  29.3075177   62.3343426
  29.320564    62.3221085
  29.3512785   62.292753
  29.3693437   62.2758575
  29.3746609   62.2687232
  29.3801991   62.2636465
  29.3940071   62.2503436
  29.430086    62.2365203
  29.4249061   62.2286853
  29.4154969   62.2144202
  29.4072786   62.201774
  29.4088021   62.1984715
  29.4122568   62.1909946
  29.4201157   62.174051
  29.4271499   62.1583739
  29.4300989   62.1518926
  29.4371477   62.1363126
  29.4448725   62.1192139
  29.449679    62.1084251
  29.4527045   62.1018392
  29.4531444   62.1008854
  29.4532624   62.1006798
  29.4570282   62.0921593
  29.4593671   62.086906
  29.4595822   62.082089
  29.4595088   62.0811695
  29.4600645   62.0808686
  29.4622746   62.0797382
  29.463251    62.0791856
  29.4648388   62.0782763
  29.4687871   62.076121
  29.4702998   62.0737695
  29.4726494   62.0704329
  29.473497    62.0691666
  29.4753638   62.066513
  29.4787327   62.0617481
  29.4823268   62.0567059
  29.4883312   62.0523362
  29.4883296   62.0521456
  29.4884155   62.0520803
  29.4885657   62.0520174
  29.4887105   62.0519973
  29.4889251   62.0520124
  29.4890699   62.0520325
  29.4895259   62.05203
  29.4897297   62.0520149
  29.489837    62.0519696
  29.4900462   62.0519143
  29.4901696   62.0518892
  29.4902984   62.0518515
  29.4904164   62.0518439
  29.4905398   62.0518238
  29.4906874   62.0517646
  29.4911513   62.051673
  29.4914061   62.0515998
  29.4916878   62.0515221
  29.491736    62.0514417
  29.491854    62.0513788
  29.4920847   62.0513612
  29.4923191   62.0513641
  29.4924691   62.0513293
  29.4926212   62.0512254
  29.4927982   62.0512129
  29.492943    62.0512104
  29.4931396   62.0511356
  29.493252    62.0511378
  29.4933741   62.051111
  29.4934151   62.0509588
  29.4934958   62.0509163
  29.493488    62.0508581
  29.4933732   62.0508228
  29.4935061   62.0508112
  29.4935034   62.050789
  29.4933646   62.0507913
  29.4933103   62.0507459
  29.4933164   62.0507022
  29.4935222   62.0506846
  29.4935195   62.0506595
  29.4933291   62.0506746
  29.4934095   62.0506155
  29.4934658   62.0504382
  29.4937877   62.050227
  29.4940452   62.0500359
  29.4942169   62.0497543
  29.4943885   62.0495733
  29.4949464   62.0492716
  29.4969613   62.0477001
  29.5004471   62.0450944
  29.5093231   62.0382969
  29.5140416   62.0397432
  29.5177323   62.0390188
  29.526766    62.0371575
  29.5316063   62.036181
  29.5359885   62.035292
  29.5367492   62.0360097
  29.5386883   62.035652
  29.5445973   62.0345514
  29.5484833   62.0342219
  29.557238    62.0333766
  29.5592122   62.0332156
  29.5619802   62.0326219
  29.5655851   62.0317364
  29.5723442   62.0301363
  29.5696041   62.0278014
  29.5675706   62.025841
  29.5664514   62.0248241
  29.5710568   62.022896
  29.5720127   62.0224692
  29.573798    62.0217109
  29.5742131   62.0215336
  29.5778589   62.0200003
  29.5789103   62.019658
  29.5948909   62.0131796
  29.6053461   62.0052166
  29.6143026   61.9983976
  29.6300793   61.9910213
  29.6603776   61.9768895
  29.6527461   61.9699355
  29.6409605   61.9591617
  29.6347281   61.9534462
  29.6248887   61.9440371
  29.6162413   61.9357195
  29.6158089   61.9287723
  29.6148567   61.9133297
  29.6151558   61.9131654
  29.6300879   61.9077398
  29.6312954   61.9028669
  29.6780184   61.8754586
  29.6968164   61.8644033
  29.6654131   61.8550827
  29.6738776   61.8495605
  29.6883707   61.8376776
  29.6916478   61.8308074
  29.691011    61.8258903
  29.6901019   61.822281
  29.6895621   61.8202859
  29.6880864   61.8172561
  29.6879388   61.8169269
  29.687455    61.8159256
  29.6848506   61.8105193
  29.6818336   61.8043898
  29.6800387   61.8005823
  29.6787759   61.7979416
  29.6777953   61.7959225
  29.6774938   61.7953105
  29.6769391   61.7941485
  29.6758362   61.791702
  29.6729195   61.7894114
  29.6686629   61.7860254
  29.6650902   61.7830124
  29.6626478   61.7809662
  29.6599993   61.7788626
  29.6573343   61.7766614
  29.653362    61.7733826
  29.6432372   61.7647619
  29.6383652   61.7606236
  29.6270903   61.7584016
  29.6246339   61.7579414
  29.6207211   61.7571245
  29.6203483   61.7570577
  29.6173147   61.756445
  29.614633    61.7559118
  29.6059389   61.7519209
  29.6035759   61.7507918
  29.6003186   61.7494735
  29.5978477   61.7483362
  29.5926164   61.7461372
  29.5906219   61.7451829
  29.5892462   61.7444931
  29.5878501   61.7438626
  29.5858245   61.742978
  29.5833499   61.7418443
  29.5811386   61.7408233
  29.5808441   61.7407141
  29.5801006   61.7403943
  29.5707108   61.7360495
  29.570022    61.7352105
  29.5665877   61.7311546
  29.5661065   61.7304349
  29.5631217   61.7267857
  29.5592517   61.7220668
  29.5675859   61.7240145
  29.5775079   61.7263046
  29.5920991   61.7296677
  29.6055713   61.7327495
  29.6058181   61.7328171
  29.6156672   61.7353915
  29.6194652   61.7363141
  29.6219017   61.7369908
  29.6275      61.7384361
  29.6315293   61.7394403
  29.6425461   61.7422937
  29.6492886   61.7439779
  29.661534    61.7471315
  29.6655462   61.7480965
  29.6673447   61.7485449
  29.6694165   61.7489288
  29.6760995   61.7506168
  29.6890105   61.7539026
  29.695803    61.7556
  29.6998713   61.7566296
  29.7308133   61.764425
  29.7342905   61.7652838
  29.7428468   61.7674368
  29.7495094   61.7690873
  29.7627252   61.7724234
  29.7775256   61.7761428
  29.7795598   61.7766466
  29.7816154   61.7771646
  29.7832816   61.7775939
  29.7914473   61.7796324
  29.792694    61.7799079
  29.793744    61.7802094
  29.8015442   61.7821654
  29.8356737   61.7906486
  29.8427891   61.7923819
  29.8556739   61.795534
  29.8850779   61.8027888
  29.9191439   61.8111995
  29.9502727   61.8188433
  29.9621431   61.8217741
  29.9629632   61.8216478
  29.9635244   61.8216181
  29.9638908   61.8215497
  29.9641977   61.8215347
  29.9646692   61.8213984
  29.9654095   61.8213726
  29.9658236   61.8212933
  29.9662297   61.8212621
  29.9670837   61.8211383
  29.9676465   61.8210792
  29.9689012   61.8208963
  29.9693841   61.8209054
  29.9709568   61.8208406
  29.9712347   61.8208252
  29.9714171   61.8208657
  29.9715603   61.8209267
  29.9717765   61.8211289
  29.9719707   61.8213333
  29.9720887   61.821573
  29.9721467   61.8218395
  29.9722974   61.8219854
  29.9727566   61.8223843
  29.9730275   61.8226227
  29.973403    61.8227797
  29.9740845   61.8230264
  29.9746143   61.8232182
  29.9757451   61.8234158
  29.9761432   61.8234366
  29.9764452   61.8235126
  29.9774161   61.8236377
  29.9781795   61.8236253
  29.9783941   61.8236068
  29.9784676   61.8235337
  29.9786526   61.8235478
  29.9788586   61.8236587
  29.9788694   61.8237461
  29.97879     61.8238102
  29.9785094   61.8239574
  29.9786628   61.8243127
  29.9788951   61.8245217
  29.9794342   61.8248783
  29.9799895   61.8251954
  29.9803167   61.8253525
  29.9804368   61.825472
  29.981154    61.8259136
  29.9813456   61.8260903
  29.9814497   61.8262478
  29.9814995   61.8264588
  29.9816098   61.8265921
  29.9821352   61.8269489
  29.982162    61.8270444
  29.9821197   61.8271736
  29.9906105   61.829458
  29.9920251   61.8287547
  29.992701    61.8285546
  29.9934381   61.8282928
  29.99407     61.8279883
  29.9944584   61.827961
  29.9948312   61.8279086
  29.9958285   61.8275358
  29.99594     61.8276497
  29.9958381   61.8278366
  29.9957013   61.8279483
  29.9955785   61.828039
  29.9954138   61.8280306
  29.9953934   61.8279341
  29.9951777   61.8279764
  29.9949437   61.82807
  29.9948564   61.8281973
  29.9948741   61.8283439
  29.9950243   61.828567
  29.9956117   61.8290434
  29.996393    61.8294798
  29.9969083   61.8297133
  29.9975338   61.829908
  29.9981528   61.8300425
  29.9984409   61.8301035
  29.9987308   61.8301345
  29.9990197   61.8302547
  29.9994601   61.8303375
  30.0000363   61.8303664
  30.0005811   61.8303529
  30.0011157   61.8302509
  30.0013262   61.830357
  30.0012916   61.8304376
  30.0010271   61.8305573
  30.0008088   61.8306366
  30.0004547   61.830704
  30.0000154   61.8308676
  29.9997498   61.8309347
  29.999546    61.8309927
  29.9994666   61.8311297
  29.9994698   61.8312836
  29.9993604   61.8314748
  29.999193    61.8317939
  30.0221431   61.8382519
  30.0417436   61.8431425
  30.0604418   61.8477979
  30.0697705   61.8501248
  30.0824108   61.8532043
  30.0923793   61.8556546
  30.0947794   61.8561784
  30.100501    61.8574713
  30.1073654   61.858915
  30.1335846   61.8643136
  30.1439682   61.8522341
  30.1474834   61.8540168
  30.1556605   61.8579888
  30.1654671   61.8638663
  30.1774347   61.8709992
  30.1962134   61.8822077
  30.1951755   61.8866127
  30.1940933   61.8912835
  30.2012578   61.8918842
  30.2114279   61.8927059
  30.220894    61.8985818
  30.2290929   61.9036664
  30.242136    61.911719
  30.2422519   61.9117985
  30.2541701   61.9199779
  30.2635497   61.9263667
  30.2741662   61.9336443
  30.2845701   61.9341653
  30.3007412   61.9349716
  30.31063     61.9419517
  30.3127883   61.9449802
  30.3085078   61.9555046
  30.3064755   61.9604852
  30.3063931   61.9606871
  30.306155    61.9610215
  30.306178    61.9612918
  30.3062118   61.9615218
  30.305994    61.9617482
  30.3047253   61.9624182
  30.3043949   61.9626643
  30.3043788   61.9628067
  30.3044711   61.9629984
  30.3051513   61.9637089
  30.3052344   61.9638965
  30.3061104   61.964546
  30.3063615   61.9646434
  30.3065455   61.9646837
  30.3069162   61.9647029
  30.3071608   61.9647682
  30.3073029   61.964869
  30.3072273   61.9652028
  30.307672    61.9654184
  30.3078603   61.9655838
  30.308047    61.9657059
  30.3084622   61.9658949
  30.3088741   61.9660581
  30.3092362   61.9662459
  30.309593    61.9665835
  30.3098333   61.9667497
  30.3101211   61.9668763
  30.3101444   61.9668866
  30.3104776   61.9669679
  30.3104996   61.9669733
  30.3109164   61.9670635
  30.3113139   61.9670842
  30.3116256   61.9670638
  30.3119088   61.9670068
  30.3122521   61.9669519
  30.3125397   61.9669753
  30.3129913   61.9671379
  30.3134039   61.9672191
  30.3139473   61.9673066
  30.3141104   61.9674357
  30.3141871   61.9676638
  30.3145197   61.9679053
  30.3151645   61.9681927
  30.3161789   61.9685747
  30.3167931   61.9687012
  30.3173059   61.9688729
  30.3175339   61.9690905
  30.3177909   61.9692158
  30.3182522   61.9693466
  30.3186444   61.9693507
  30.3191025   61.9693272
  30.3196502   61.9694694
  30.3199645   61.9695977
  30.3202569   61.9696534
  30.3206346   61.9696587
  30.3215229   61.9698906
  30.3222176   61.970025
  30.3230351   61.9702985
  30.3236204   61.9704783
  30.3240774   61.9705829
  30.3243709   61.9706739
  30.3244739   61.9708433
  30.3245382   61.971083
  30.3246514   61.9714319
  30.3250618   61.9717498
  30.3256519   61.9719882
  30.3262136   61.9721118
  30.3265263   61.9722506
  30.3266594   61.9723876
  30.3271893   61.972654
  30.3275005   61.9728763
  30.3277108   61.973116
  30.328062    61.9731351
  30.3375865   61.9732455
  30.3442436   61.9764542
  30.351667    61.9800075
  30.3770249   61.9995348
  30.4081489   62.016112
  30.4234723   62.0227797
  30.4389302   62.0334292
  30.4438017   62.0325486
  30.4470881   62.0347139
  30.4437083   62.0367096
  30.4498071   62.0409015
  30.4821087   62.063176
  30.4830864   62.0638271
  30.4954104   62.072033
  30.5347629   62.0990307
  30.5403077   62.1028236
  30.5656463   62.1194233
  30.5891405   62.1335135
  30.6028572   62.1417799
  30.6277706   62.1659316
  30.6302976   62.1683659
  30.6321695   62.170153
  30.632357    62.170332
  30.6328003   62.1707754
  30.6354435   62.1733334
  30.6358233   62.1736719
  30.6356096   62.1738012
  30.6352247   62.1741483
  30.6345977   62.1748232
  30.6342985   62.1752641
  30.6341636   62.1755599
  30.634146    62.1759515
  30.6342164   62.1765348
  30.634322    62.1775507
  30.6341499   62.1781153
  30.633941    62.1786677
  30.6333231   62.1792445
  30.6323658   62.1798944
  30.6315912   62.1807473
  30.6309124   62.1814459
  30.6302161   62.1822744
  30.6295729   62.1835511
  30.6293415   62.1840689
  30.6292172   62.1845278
  30.6289356   62.1855687
  30.6288707   62.1860841
  30.6286834   62.1866722
  30.6283585   62.1870638
  30.6283585   62.1877837
  30.6287104   62.1884911
  30.6291165   62.18911
  30.6297662   62.1896783
  30.6308836   62.1904188
  30.6315333   62.1907775
  30.6327894   62.1911614
  30.6340023   62.1913534
  30.6355183   62.1917171
  30.6364458   62.1921661
  30.6514048   62.2038704
  30.6570498   62.2089129
  30.6738348   62.2098112
  30.6846618   62.2104406
  30.688736    62.210425
  30.7203074   62.2088758
  30.7432174   62.2255504
  30.7447496   62.226682
  30.746428    62.2267575
  30.7651379   62.2351173
  30.7735824   62.2406033
  30.7815083   62.2457797
  30.7891931   62.2508037
  30.8086955   62.2610155
  30.8093379   62.2695726
  30.810811    62.2706707
  30.8341149   62.2755062
  30.8409863   62.2789137
  30.8464528   62.2816351
  30.8472038   62.282009
  30.8602311   62.2885747
  30.8866252   62.3017272
  30.8867162   62.3017728
  30.9041949   62.3105377
  30.9202129   62.3090645
  30.9304166   62.3069487
  30.9432079   62.3058473
  30.9548848   62.3125879
  30.9619952   62.327245
  30.961715    62.3273873
  30.961764    62.3275494
  30.9620824   62.3277074
  30.9620476   62.3278584
  30.9615082   62.3280792
  30.9606167   62.3283615
  30.9591696   62.3284411
  30.9578173   62.3286583
  30.9576177   62.3287265
  30.9570812   62.3290062
  30.9565464   62.3291312
  30.9560904   62.3290913
  30.9558222   62.329105
  30.9554521   62.3292926
  30.9555537   62.3295866
  30.9553111   62.3297989
  30.9538547   62.3299953
  30.953821    62.3301864
  30.9528091   62.3306641
  30.9518396   62.3308177
  30.9507026   62.3308468
  30.9504014   62.331002
  30.9504229   62.3311826
  30.9508335   62.3314014
  30.9512129   62.3317326
  30.9504282   62.3318539
  30.9496475   62.332034
  30.9495423   62.3321455
  30.9486789   62.332437
  30.9480977   62.3324073
  30.9477138   62.3325663
  30.9476575   62.3326735
  30.9473355   62.3327519
  30.9470573   62.332627
  30.9470299   62.3323359
  30.9469499   62.3322433
  30.9465139   62.332164
  30.9456806   62.3322487
  30.9452569   62.3326311
  30.9450169   62.3326514
  30.9447069   62.3325461
  30.9446803   62.3324224
  30.9441307   62.3323651
  30.9436058   62.3326607
  30.9430414   62.3328478
  30.9427429   62.333223
  30.9430154   62.3333692
  30.9772449   62.3525194
  31.0715865   62.405038
  31.0771124   62.4072124
  31.0935058   62.4166071
  31.138138    62.4421701
  31.1483885   62.4449821
  31.1628141   62.4460757
  31.1626389   62.4550367
  31.1650962   62.4627103
  31.1733328   62.4819017
  31.1861984   62.4875752
  31.1848893   62.4937624
  31.1981427   62.4957986
  31.2216468   62.4985754
  31.2340449   62.511486
  31.2356376   62.5132628
  31.2453035   62.523201
  31.2455069   62.5243861
  31.2441654   62.5256895
  31.2541371   62.5333638
  31.273396    62.5561558
  31.2844538   62.5692074
  31.3123604   62.6019015
  31.3156047   62.6057042
  31.3318373   62.6247487
  31.3451849   62.6400817
  31.3453959   62.6403287
  31.3468917   62.6402241
  31.3475291   62.6401205
  31.3486198   62.6400945
  31.3491995   62.6402913
  31.3496046   62.6405703
  31.3493621   62.6408786
  31.3489975   62.6411905
  31.3485538   62.6415041
  31.3479024   62.6418634
  31.3467872   62.6423466
  31.3458136   62.6430749
  31.3459582   62.6435184
  31.3465744   62.6437668
  31.3473613   62.6438658
  31.3480422   62.6438744
  31.3491234   62.6437863
  31.3505219   62.6436012
  31.3517595   62.643437
  31.3525861   62.6433312
  31.3533385   62.6432755
  31.3546635   62.6437197
  31.3559262   62.6443361
  31.3570452   62.6450336
  31.3578044   62.6451296
  31.3585578   62.645056
  31.3609522   62.6446678
  31.3616981   62.6447056
  31.3629415   62.6450482
  31.3639913   62.6454537
  31.3661295   62.6467794
  31.3679542   62.6480817
  31.3700221   62.648433
  31.3710357   62.648424
  31.3721157   62.6489969
  31.3730252   62.6497073
  31.3736049   62.6506263
  31.3746508   62.6533957
  31.3763782   62.6557778
  31.3765423   62.6575002
  31.3763425   62.6579913
  31.3766149   62.6592003
  31.3772239   62.6600072
  31.3770272   62.6607079
  31.3766165   62.6610363
  31.3757875   62.6630044
  31.3761818   62.6636884
  31.3767171   62.66406
  31.3768566   62.6645773
  31.3767171   62.6650503
  31.3764703   62.6657991
  31.3763845   62.6664149
  31.3764274   62.667144
  31.376363    62.6677499
  31.3759982   62.6683164
  31.375848    62.6689125
  31.377275    62.6701094
  31.3782084   62.6706513
  31.3775      62.67075
  31.3769075   62.6709613
  31.376366    62.6712409
  31.3766367   62.6714429
  31.3771443   62.6716759
  31.3786671   62.6718157
  31.379384    62.67193
  31.3811459   62.6750102
  31.3833219   62.6747826
  31.3852576   62.675045
  31.3851009   62.682398
  31.3803248   62.6899322
  31.3966154   62.7169425
  31.4003924   62.7231969
  31.4029813   62.7274634
  31.404837    62.7305178
  31.4138603   62.7454709
  31.4194822   62.7546891
  31.420877    62.757054
  31.4242887   62.76278
  31.4248495   62.7637758
  31.4300402   62.771395
  31.4344597   62.7779097
  31.4392135   62.784884
  31.4497865   62.7845224
  31.4550758   62.7843506
  31.4562513   62.7843043
  31.4666768   62.7839436
  31.4641822   62.786815
  31.4586639   62.7935223
  31.4556541   62.7967854
  31.4918386   62.8267095
  31.5400392   62.8672256
  31.541361    62.8684535
  31.5699005   62.8938684
  31.5848283   62.9070414
  31.5867071   62.9087094
  31.5828179   62.9115096
  31.5826088   62.9116155
  31.5824693   62.9119087
  31.5822279   62.912065
  31.5809745   62.9128065
  31.580683    62.9130714
  31.5805274   62.9133596
  31.5805542   62.9135526
  31.5807044   62.9137016
  31.5812194   62.9140802
  31.581316    62.9142341
  31.5813205   62.9143083
  31.5765687   62.9167252
  31.5761648   62.9169586
  31.5760374   62.9170156
  31.5757424   62.9170954
  31.5755573   62.9171784
  31.5755372   62.9172785
  31.5755139   62.9174203
  31.57497     62.9174158
  31.5743774   62.9174892
  31.5741711   62.9174809
  31.5740372   62.9174111
  31.5739184   62.917375
  31.5736347   62.9173557
  31.5734057   62.9173836
  31.5733238   62.9174912
  31.5734563   62.9175434
  31.5736474   62.9175434
  31.5737602   62.9175936
  31.5737914   62.9176622
  31.5736727   62.9177317
  31.5733517   62.9177941
  31.573281    62.9177891
  31.5728352   62.917893
  31.5721213   62.9178269
  31.5719939   62.9178817
  31.5719967   62.9180045
  31.5720019   62.918158
  31.5717539   62.9182432
  31.5716985   62.9182849
  31.5717888   62.9184703
  31.5718428   62.9186863
  31.5721781   62.9189672
  31.5724352   62.9190943
  31.5724559   62.9192358
  31.5637485   62.9273288
  31.5418231   62.9518764
  31.5204656   62.9757481
  31.5021325   62.9962486
  31.4487587   63.0060578
  31.4630002   63.0242509
  31.4390222   63.0362137
  31.4250108   63.0432659
  31.4108722   63.0419726
  31.4041341   63.0449357
  31.3991056   63.0466259
  31.3927605   63.0479954
  31.3897528   63.0484268
  31.3873481   63.0493372
  31.3877125   63.0513844
  31.3855233   63.0517146
  31.385481    63.0520213
  31.3851003   63.0524814
  31.383209    63.0533334
  31.3818131   63.0541002
  31.3814324   63.0550586
  31.3820669   63.0559403
  31.3824899   63.0567261
  31.3821975   63.0571652
  31.3816221   63.0572958
  31.3813901   63.0580486
  31.3817285   63.058336
  31.3807979   63.0600226
  31.3797827   63.0608466
  31.3785983   63.061479
  31.3777946   63.0625713
  31.3766525   63.0631462
  31.3755104   63.063721
  31.3733108   63.0640851
  31.3719149   63.0647174
  31.3708207   63.0658319
  31.3694374   63.0665909
  31.3683085   63.0672739
  31.3672689   63.0676173
  31.3665184   63.0680327
  31.3638547   63.0706577
  31.3608759   63.072241
  31.2939812   63.0939188
  31.2918903   63.0957847
  31.2918005   63.0969151
  31.2888221   63.0983751
  31.2868856   63.0997471
  31.2827038   63.1007625
  31.2781948   63.1030078
  31.2772495   63.1048821
  31.2721187   63.1076263
  31.2653504   63.1152148
  31.2581134   63.1345775
  31.2554327   63.1418537
  31.2553911   63.1439593
  31.2553376   63.146202
  31.2548045   63.1786474
  31.2524361   63.1800077
  31.2500429   63.1804311
  31.2477356   63.1809126
  31.2455808   63.1818707
  31.2427729   63.1876014
  31.2425948   63.1879979
  31.2431034   63.1881718
  31.2431846   63.188587
  31.2439156   63.1889778
  31.2434824   63.1894418
  31.2430956   63.1899634
  31.242622    63.1901463
  31.2418851   63.1905896
  31.2399564   63.1910295
  31.2382449   63.1951359
  31.2408597   63.2136678
  31.2401444   63.2172126
  31.2398526   63.2177548
  31.2375315   63.2192195
  31.2360682   63.2194346
  31.2344381   63.2193355
  31.2339207   63.2194227
  31.2313011   63.2206458
  31.2305649   63.2211245
  31.2298761   63.2213198
  31.2280894   63.2216272
  31.2269615   63.2219036
  31.2266145   63.2223154
  31.2263338   63.2226498
  31.225752    63.222769
  31.2244756   63.2232557
  31.2230259   63.2236642
  31.2217806   63.2237862
  31.2208331   63.2243716
  31.2198044   63.2248472
  31.2190193   63.2254326
  31.2170159   63.2261643
  31.2145794   63.2272253
  31.2137944   63.227774
  31.2136667   63.2285
  31.2129822   63.2286398
  31.2126844   63.2289691
  31.2124408   63.2293349
  31.2109247   63.2295178
  31.2091109   63.229847
  31.2070534   63.2298836
  31.2064308   63.2301762
  31.2059976   63.2303152
  31.2055536   63.2307152
  31.204644    63.2310078
  31.2036044   63.2314565
  31.2027598   63.231515
  31.2018935   63.231515
  31.2011788   63.2317296
  31.2000093   63.232032
  31.1985365   63.2323539
  31.1974103   63.2322954
  31.1966523   63.2325197
  31.1957427   63.232705
  31.1953312   63.2331537
  31.1947672   63.2336565
  31.1939212   63.2339003
  31.1923645   63.2340527
  31.1914508   63.2341441
  31.1903003   63.234266
  31.1890143   63.2344946
  31.1878976   63.2346928
  31.1870651   63.2349086
  31.1855627   63.2353328
  31.184449    63.2357382
  31.1841414   63.2359728
  31.1839383   63.2362624
  31.183803    63.2369481
  31.1835323   63.2374205
  31.1827066   63.2376216
  31.181759    63.2377466
  31.1809739   63.2377222
  31.1803784   63.2378929
  31.180243    63.2381367
  31.1805408   63.2385267
  31.1797286   63.2389534
  31.1789706   63.2393313
  31.1786728   63.2395385
  31.1788353   63.2397091
  31.1786728   63.2399407
  31.1780772   63.2401358
  31.1772109   63.2401723
  31.1762634   63.2403796
  31.1758032   63.2406721
  31.1740928   63.2410333
  31.172365    63.2413669
  31.1711468   63.2420738
  31.1699556   63.242866
  31.1685479   63.2432317
  31.1680064   63.2436339
  31.1673296   63.2438654
  31.1664362   63.2439873
  31.1653263   63.2442311
  31.1635125   63.2454376
  31.1624025   63.2467538
  31.1620235   63.2473631
  31.1616986   63.2478018
  31.1612926   63.2479602
  31.1606699   63.2484355
  31.1605616   63.2487401
  31.1605345   63.2492153
  31.1606158   63.2497271
  31.1596412   63.2505191
  31.1581667   63.2513333
  31.1578544   63.2515427
  31.1574213   63.2515792
  31.1570152   63.2517498
  31.1568751   63.2522813
  31.1565766   63.2525783
  31.1562084   63.2527343
  31.1551039   63.2532411
  31.1543242   63.2539916
  31.1544758   63.2546349
  31.1551689   63.255093
  31.1553421   63.2554731
  31.1553638   63.2558337
  31.1546486   63.2565459
  31.1538449   63.2572692
  31.152026    63.2583922
  31.1505878   63.2591155
  31.1496572   63.2599339
  31.1491073   63.2605429
  31.1487441   63.2611523
  31.1483116   63.2615189
  31.147602    63.2617856
  31.1467305   63.2619144
  31.146125    63.2618901
  31.1450421   63.2618292
  31.1444465   63.2623407
  31.1439322   63.262694
  31.1432012   63.2627792
  31.1424973   63.2631568
  31.1411167   63.2636805
  31.1405752   63.2639972
  31.1399526   63.2642773
  31.139357    63.2647157
  31.1387885   63.2649837
  31.1383437   63.2651054
  31.1377543   63.2651761
  31.1371641   63.2651493
  31.1365449   63.264956
  31.1362708   63.2647401
  31.1360542   63.2643747
  31.1362708   63.2637901
  31.1362978   63.2633638
  31.1359301   63.2630436
  31.1352962   63.2628401
  31.1335257   63.2627427
  31.1330372   63.262783
  31.1325077   63.2628888
  31.1310188   63.2634856
  31.1303149   63.2637414
  31.129611    63.2642773
  31.129205    63.2645939
  31.1290962   63.264684
  31.1285282   63.2651542
  31.1283657   63.2655682
  31.1286987   63.2657853
  31.1292862   63.2657582
  31.1303691   63.2655073
  31.131479    63.2653368
  31.1315127   63.2655404
  31.1301641   63.2664017
  31.1295296   63.2669345
  31.1291489   63.2676766
  31.1278799   63.2684377
  31.1263994   63.2688562
  31.125638    63.268666
  31.1237768   63.2685328
  31.1231      63.2687231
  31.1229308   63.2691607
  31.1223386   63.2696744
  31.1207312   63.2701691
  31.1184047   63.2704164
  31.1169665   63.2707018
  31.1156129   63.270854
  31.1020651   63.2708747
  31.1013333   63.2716667
  31.1013154   63.2719384
  31.1008924   63.2721667
  31.1000464   63.2721857
  31.0995388   63.272357
  31.0982275   63.2726804
  31.0976776   63.2730418
  31.0974086   63.2736466
  31.0960973   63.2743886
  31.0949129   63.2750734
  31.0939823   63.2752065
  31.0932632   63.2754348
  31.0927556   63.2759865
  31.0918673   63.2764049
  31.0908521   63.2766903
  31.0908098   63.2772609
  31.0905137   63.2777554
  31.0890332   63.2779647
  31.0885679   63.2787065
  31.0875128   63.2794551
  31.085687    63.2813165
  31.0562634   63.2912255
  31.0206661   63.3032361
  31.0004032   63.3041864
  30.9992766   63.3041238
  30.9962583   63.3042695
  30.9926291   63.3039562
  30.9863023   63.307159
  30.9861235   63.3071739
  30.9859093   63.3069551
  30.9860599   63.3069051
  30.9860743   63.3064252
  30.9852468   63.3064262
  30.9847177   63.3069281
  30.9835731   63.3070915
  30.9833433   63.3073593
  30.982147    63.3075253
  30.9810901   63.3077153
  30.9791898   63.3078375
  30.9790156   63.3079189
  30.9543062   63.3282296
  30.9440687   63.336628
  30.9344176   63.3554397
  30.9303375   63.3565734
  30.928933    63.3567957
  30.9276938   63.3567586
  30.9257936   63.357055
  30.9243891   63.3577219
  30.9205887   63.3579442
  30.918358    63.3585369
  30.9173666   63.358611
  30.9153838   63.3587221
  30.9124096   63.359426
  30.9102615   63.3592408
  30.9081961   63.3593149
  30.907122    63.3595371
  30.9065437   63.3599817
  30.9041478   63.3601299
  30.9031564   63.3604632
  30.9012562   63.3605003
  30.8995212   63.3605373
  30.8973732   63.3610559
  30.896547    63.3614264
  30.8942337   63.3615745
  30.8924161   63.3615745
  30.8905159   63.3615375
  30.8878722   63.3623895
  30.8858068   63.3626784
  30.8844849   63.3630932
  30.8835596   63.3627673
  30.8839561   63.362382
  30.8811019   63.3627395
  30.8804251   63.3627395
  30.8786654   63.3625423
  30.8774472   63.3627699
  30.8773457   63.3630885
  30.8770411   63.3633161
  30.8752138   63.3638015
  30.8743678   63.3638774
  30.8735556   63.3641657
  30.8732849   63.364636
  30.8719805   63.3651197
  30.8713221   63.3651669
  30.869867    63.3651063
  30.8689533   63.3647573
  30.8677436   63.364434
  30.8667284   63.3644719
  30.8659416   63.3648664
  30.8659754   63.3651214
  30.8653663   63.3655007
  30.8643418   63.3656634
  30.8637251   63.3657614
  30.8627522   63.3658562
  30.8619146   63.3661227
  30.8615254   63.3664441
  30.8599857   63.3667598
  30.859072    63.3671694
  30.8584291   63.367048
  30.8580484   63.3667892
  30.8566186   63.3669371
  30.8540502   63.367801
  30.8534817   63.3678131
  30.8520739   63.3680194
  30.851722    63.3683714
  30.8506932   63.3684563
  30.8499894   63.3685655
  30.8496645   63.3690509
  30.8487441   63.3692936
  30.8484733   63.3698275
  30.8485353   63.3701239
  30.8481214   63.3704464
  30.8472822   63.370325
  30.8464971   63.3702522
  30.8461441   63.3704728
  30.8460409   63.3707901
  30.8466263   63.3712977
  30.8474698   63.3717133
  30.8473111   63.3723294
  30.8466766   63.3728034
  30.8456191   63.3731588
  30.8446674   63.3732062
  30.8447203   63.3734432
  30.8454152   63.3734588
  30.8459838   63.3735558
  30.8459838   63.3737985
  30.8454423   63.374029
  30.8445489   63.3739926
  30.8434293   63.3740497
  30.8431465   63.374328
  30.843327    63.3746155
  30.8431842   63.3749888
  30.8425794   63.3753086
  30.8423594   63.3754977
  30.8424426   63.3757846
  30.8424398   63.3759536
  30.8424584   63.3762164
  30.8425106   63.376611
  30.842434    63.3768902
  30.7877047   63.4052709
  30.7605501   63.4102321
  30.6692675   63.4269208
  30.5070277   63.460961
  30.483994    63.4666957
  30.4833827   63.4671261
  30.4584905   63.4854273
  30.4203969   63.5164928
  30.3845259   63.545493
  30.2763899   63.578959
  30.2762027   63.5789117
  30.276052    63.5788737
  30.2760761   63.5787546
  30.2758521   63.5787238
  30.2757187   63.5788515
  30.2754267   63.5788868
  30.2753772   63.5789665
  30.2753814   63.5790509
  30.275199    63.5790587
  30.2749254   63.5789814
  30.2747591   63.5789805
  30.274448    63.5788814
  30.2739759   63.5788731
  30.2735582   63.5787343
  30.2733708   63.5787269
  30.2734381   63.5789238
  30.2733215   63.5790079
  30.2730594   63.5789688
  30.2728317   63.5790113
  30.2726965   63.5791232
  30.2727361   63.579437
  30.2727989   63.5794984
  30.2726908   63.5795721
  30.2722076   63.5795325
  30.2719338   63.5795175
  30.2717458   63.5795407
  30.2692736   63.5801681
  30.2689601   63.5803338
  30.2683743   63.5803069
  30.2675127   63.5805178
  30.2672383   63.5806397
  30.2669639   63.5807999
  30.2664151   63.5809674
  30.2642214   63.5818199
  30.2636824   63.5819598
  30.263252    63.5822016
  30.2627787   63.5826629
  30.2620432   63.5830102
  30.2613429   63.5831074
  30.2608961   63.5832706
  30.2602973   63.5833331
  30.2593863   63.5836842
  30.2588342   63.5838835
  30.2584617   63.5838926
  30.2582539   63.58394
  30.2581608   63.5840115
  30.2581356   63.5841856
  30.2580032   63.584293
  30.2550073   63.5867394
  30.2470692   63.6016925
  30.2441711   63.607264
  30.2065773   63.6268014
  30.184589    63.6377491
  30.1239653   63.667892
  30.1236971   63.6681489
  30.1239492   63.6688485
  30.1236461   63.669322
  30.120811    63.6708043
  30.1180645   63.6735643
  30.1170184   63.6742327
  30.1144917   63.6753579
  30.1141296   63.6756873
  30.1137984   63.6763564
  30.1134671   63.676759
  30.1100393   63.6782363
  30.1096259   63.6786759
  30.1093763   63.6795522
  30.1087151   63.6801236
  30.1066464   63.6808184
  30.1026509   63.6817461
  30.1008012   63.6823314
  30.1002887   63.6827725
  30.0995604   63.6837969
  30.0987457   63.6842663
  30.0976302   63.68452
  30.096536    63.6847039
  30.0953452   63.6850718
  30.0948839   63.6853254
  30.0944424   63.6859703
  30.0930778   63.6867454
  30.0910223   63.6873994
  30.0899945   63.6875646
  30.0875923   63.6883035
  30.0861772   63.6890425
  30.085695    63.6896513
  30.0850247   63.6899842
  30.0821352   63.6909826
  30.0813995   63.6912681
  30.0794192   63.6923144
  30.0770589   63.6935839
  30.0763293   63.6938763
  30.0748058   63.6941747
  30.0736149   63.6942002
  30.0728049   63.6944888
  30.0727029   63.6948819
  30.0736256   63.6956616
  30.0738724   63.696175
  30.0738188   63.6965934
  30.0734433   63.6969975
  30.0708952   63.6980838
  30.0693422   63.6992925
  30.0687333   63.7005963
  30.0681352   63.7011833
  30.0673654   63.7017323
  30.064364    63.7026901
  30.0614055   63.7034577
  30.0606272   63.7036183
  30.0604926   63.704121
  30.0608243   63.704328
  30.0617997   63.7046824
  30.0624317   63.7049987
  30.0633721   63.7050092
  30.0633928   63.7053414
  30.0630061   63.7057214
  30.0628984   63.7060158
  30.0634662   63.7068327
  30.0641257   63.7072982
  30.0648924   63.7077827
  30.0648175   63.7079609
  30.0640109   63.7082837
  30.0621558   63.7092427
  30.0585413   63.7114942
  30.0191231   63.732598
  29.9792123   63.7533602
  29.9718903   63.7571676
  29.9681706   63.7554706
  29.9433882   63.7538127
  29.877593    63.7494022
  29.8736622   63.7487499
  29.775697    63.7033596
  29.7226991   63.7480138
  29.6825192   63.8789383
  29.645324    63.8772372
  29.5441165   63.8715145
  29.5211855   63.8698641
  29.4159794   63.8611278
  29.3601637   63.8566823
  29.3576099   63.8564789
  29.352208    63.8560486
  29.3467641   63.855615
  29.3418088   63.8552203
  29.3112976   63.8527897
  29.3049145   63.8523964
  29.2887783   63.8514792
  29.2652215   63.8502067
  29.2451334   63.8493892
  29.2364001   63.8490204
  29.2266368   63.8487273
  29.2213376   63.8486293
  29.1583156   63.8473191
  29.1427861   63.8470133
  29.1118997   63.8463482
  29.0805679   63.8455147
  29.0034662   63.8426643
  28.9388478   63.8398361
  28.8852453   63.8358245
  28.8143299   63.8446606
  28.6731464   63.8615524
  28.5584511   63.8739103
  28.5350858   63.8766694
  28.5218028   63.8789921
  28.5007668   63.8824251
  28.4960283   63.8782431
  28.4860948   63.8762833
  28.4823632   63.8755471
  28.477248    63.8745378
  28.4754504   63.8741831
  28.459979    63.8711303
  28.4587583   63.8694554
  28.4593937   63.8689883
  28.4598912   63.8686226
  28.4737569   63.858405
  28.466149    63.8515867
  28.4357791   63.8245642
  28.394648    63.7878886
  28.3878883   63.7817284
  28.3825289   63.7767997
  28.369223    63.7640242
  28.3644614   63.7595002
  28.3597294   63.755004
  28.3854625   63.743631
  28.4241944   63.7264934
  28.4565458   63.7021364
  28.4612286   63.6986071
  28.4808338   63.6950607
  28.4908266   63.693253
  28.4911019   63.6933424
  28.4912577   63.6934755
  28.491221    63.6935362
  28.4911417   63.6935884
  28.4908915   63.69372
  28.4908344   63.693856
  28.4908836   63.6938821
  28.4909871   63.6938772
  28.4911668   63.6938555
  28.491286    63.6938859
  28.4913208   63.6939318
  28.4912687   63.6940249
  28.4911739   63.6942503
  28.4909997   63.6945103
  28.4936898   63.6975197
  28.499183    63.6973064
  28.5066643   63.6971599
  28.5123365   63.6969717
  28.5167297   63.6968543
  28.5173563   63.6968401
  28.5260167   63.6971264
  28.5262078   63.6971498
  28.5305809   63.6977712
  28.5477858   63.7001532
  28.5510317   63.7005991
  28.5570957   63.6979743
  28.5582299   63.6974871
  28.5684506   63.6931084
  28.5838383   63.6886439
  28.5847614   63.6883462
  28.5992215   63.6792706
  28.6064627   63.6746626
  28.5937082   63.6697823
  28.5858704   63.6590943
  28.5949366   63.6363479
  28.5933867   63.6326343
  28.5954282   63.6325418
  28.5949921   63.6316536
  28.5947519   63.6316096
  28.6067738   63.5754547
  28.6130116   63.5776464
  28.6179932   63.5761688
  28.620097    63.5729553
  28.613458    63.570221
  28.6184643   63.5672351
  28.6344448   63.5628596
  28.6387279   63.5630991
  28.6438201   63.5618929
  28.6535976   63.5596616
  28.6598844   63.5580873
  28.6618515   63.5587884
  28.6619439   63.558822
  28.668494    63.561206
  28.677293    63.5566451
  28.6849631   63.5526688
  28.6825025   63.5517878
  28.6823458   63.5517317
  28.6822175   63.5516858
  28.6675885   63.5464477
  28.6673157   63.54635
  28.6654046   63.5456656
  28.6651446   63.5455725
  28.664849    63.5454667
  28.6617132   63.5443437
  28.6585432   63.5432084
  28.6575741   63.5428613
  28.6538489   63.5415271
  28.6525615   63.5410661
  28.6505006   63.5403279
  28.6431098   63.5445021
  28.6367454   63.5480962
  28.636099    63.5478674
  28.6357631   63.5477485
  28.6311806   63.5461263
  28.6308343   63.5460037
  28.6223564   63.5430023
  28.6201209   63.5422109
  28.6135697   63.5398913
  28.6148441   63.5389163
  28.6083585   63.5351725
  28.6079939   63.534962
  28.6052992   63.5334063
  28.6050723   63.5332753
  28.6068105   63.5303096
  28.6049008   63.5292862
  28.6033131   63.5273921
  28.6045146   63.526101
  28.6077513   63.5238299
  28.6106086   63.5218249
  28.6109297   63.5194571
  28.6112094   63.517395
  28.6179754   63.5128634
  28.6203402   63.5092496
  28.620513    63.5089854
  28.6267069   63.499518
  28.6406304   63.4782239
  28.6435617   63.4769544
  28.6411707   63.4763343
  28.6496828   63.4721671
  28.6660716   63.4232056
  28.6905198   63.4124714
  28.6955391   63.4102373
  28.6957396   63.4101481
  28.6962897   63.4102183
  28.7050351   63.4113345
  28.7145381   63.4061897
  28.7501637   63.3871781
  28.755798    63.3880809
  28.7559883   63.3881131
  28.7567896   63.3882486
  28.7585334   63.3877984
  28.7594577   63.3877905
  28.7520082   63.3656834
  28.7508965   63.3616248
  28.7478206   63.3503642
  28.746533    63.3477137
  28.7367887   63.3113115
  28.7067207   63.2981114
  28.7172316   63.2941543
  28.6834556   63.2839578
  28.7029531   63.2842688
  28.7053883   63.2772388
  28.7060404   63.2753562
  28.7068337   63.2730655
  28.7071344   63.2721971
  28.6796423   63.2654328
  28.6767216   63.2563674
  28.6479572   63.2501068
  28.648382    63.2493117
  28.6463568   63.2484001
  28.6614946   63.2416743
  28.6107996   63.2038343
  28.653959    63.196834
  28.671491    63.191395
  28.673       63.190933
  28.691423    63.185225
  28.694032    63.184389
  28.698009    63.183113
  28.707487    63.170414
  28.7624182   63.1366925
  28.8130995   63.1053469
  28.8205197   63.100698
  28.8253876   63.0976478
  28.8265777   63.096902
  28.8313301   63.0939236
  28.8310593   63.0935932
  28.831054    63.0933384
  28.8310915   63.0931975
  28.8311559   63.0930155
  28.831687    63.0928116
  28.8317996   63.0926732
  28.8315207   63.0923139
  28.8314456   63.0919352
  28.8313007   63.0916487
  28.8313007   63.0914399
  28.8320142   63.0908864
  28.8321966   63.090697
  28.8324594   63.0903158
  28.8327169   63.0895753
  28.8326311   63.0894139
  28.8324326   63.0893568
  28.8322529   63.089335
  28.8320196   63.0893289
  28.8317353   63.0892925
  28.8315073   63.0891978
  28.8313919   63.0890375
  28.8315743   63.0886223
  28.8316709   63.0884682
  28.8318211   63.0883589
  28.8326767   63.0880299
  28.8329986   63.0878114
  28.8332373   63.0875552
  28.8335565   63.0871364
  28.8337415   63.0868001
  28.8339615   63.0859636
  28.834337    63.0853176
  28.834455    63.0849413
  28.8347554   63.0846256
  28.8354515   63.084367
  28.8356996   63.0842601
  28.8388807   63.0824995
  28.8397068   63.0826306
  28.839875    63.0822254
  28.8399428   63.0820697
  28.8404524   63.0811832
  28.8406241   63.0810326
  28.8409286   63.0808558
  28.8414878   63.0806926
  28.8420564   63.0804279
  28.8423407   63.080349
  28.8425633   63.0803344
  28.8431293   63.0803526
  28.8434619   63.0802822
  28.8436711   63.080168
  28.8441324   63.0797527
  28.8445401   63.0792135
  28.8451356   63.0789998
  28.8455325   63.0788517
  28.8461816   63.0785116
  28.8472223   63.0775061
  28.8479492   63.0769207
  28.8481101   63.0767009
  28.8483328   63.0763219
  28.8484669   63.0760268
  28.8486895   63.0757001
  28.8493171   63.075139
  28.8497597   63.0746179
  28.8499126   63.074245
  28.8500708   63.0737386
  28.8503994   63.0716518
  28.8503766   63.071263
  28.8501459   63.0708452
  28.8498509   63.070663
  28.84958     63.0705816
  28.8492259   63.0705646
  28.8485125   63.0706192
  28.8480967   63.0705609
  28.8479438   63.0703775
  28.8482121   63.069962
  28.8484722   63.069498
  28.8488987   63.0688894
  28.8490623   63.0685298
  28.8492876   63.0682662
  28.8500494   63.0675421
  28.8503149   63.0671995
  28.850567    63.0668496
  28.8508004   63.066654
  28.8521549   63.0658582
  28.8525116   63.065676
  28.8527209   63.0655278
  28.852922    63.0653054
  28.8530311   63.0651036
  28.8538635   63.0634124
  28.8547486   63.0625303
  28.8549095   63.0621779
  28.8550073   63.0617778
  28.8553025   63.0616828
  28.8554808   63.0615284
  28.8555238   63.061379
  28.8555372   63.0612508
  28.8556015   63.0612022
  28.8557705   63.0612089
  28.8559395   63.0612532
  28.8560535   63.0612496
  28.8561138   63.0612064
  28.8560629   63.0610977
  28.8559516   63.06093
  28.8559449   63.0607356
  28.85602     63.0606207
  28.8561219   63.0605411
  28.8565953   63.0602343
  28.8570392   63.0598752
  28.8575166   63.0595325
  28.8577527   63.0593733
  28.8578787   63.0591825
  28.8581376   63.0587499
  28.8583092   63.0587068
  28.8585949   63.058711
  28.8588859   63.0587177
  28.8590334   63.0586758
  28.8592038   63.0584953
  28.8592359   63.0583446
  28.8592654   63.0581909
  28.8593647   63.0581605
  28.8595042   63.0581672
  28.8598448   63.0581872
  28.8599534   63.0581593
  28.8600084   63.0581265
  28.8600849   63.0579904
  28.8600822   63.0576841
  28.8601761   63.0576629
  28.8607863   63.0576498
  28.8608627   63.0575626
  28.8607071   63.0574186
  28.8603638   63.0573232
  28.8603652   63.0572016
  28.86062     63.0571263
  28.8609552   63.0570746
  28.8612127   63.0571087
  28.8613884   63.0571555
  28.8618028   63.0571591
  28.8620831   63.0571567
  28.8620912   63.0569835
  28.8618819   63.0568784
  28.862       63.0566548
  28.8621837   63.0565891
  28.8624841   63.0566049
  28.8629776   63.0568273
  28.8631761   63.0569701
  28.863266    63.0571804
  28.8634591   63.0572454
  28.8636977   63.0572451
  28.8639191   63.0572332
  28.8641658   63.0571786
  28.8644421   63.0570716
  28.8648927   63.0568067
  28.8653305   63.0566076
  28.8664538   63.0560969
  28.8679558   63.0554187
  28.872199    63.0554358
  28.8767266   63.0533695
  28.8842958   63.0523607
  28.8847116   63.0523327
  28.8850871   63.052295
  28.8853767   63.0522318
  28.8855135   63.0521723
  28.8855645   63.0520969
  28.8856316   63.05203
  28.886227    63.0519741
  28.8864738   63.0518817
  28.8866508   63.0518453
  28.8870263   63.0518477
  28.8873213   63.0518696
  28.8877827   63.0518574
  28.8880938   63.0517991
  28.8883387   63.0517123
  28.8898855   63.0508826
  28.8903952   63.0506905
  28.8907841   63.0506054
  28.8915512   63.0505252
  28.8918596   63.0504255
  28.8927689   63.0500207
  28.8929996   63.0498931
  28.8931122   63.0497034
  28.893528    63.0494664
  28.8937023   63.0493351
  28.8939571   63.0491929
  28.8942441   63.0490543
  28.8945445   63.0488695
  28.894228    63.0487637
  28.8943273   63.0486288
  28.8946143   63.0485315
  28.8952392   63.0484975
  28.8954297   63.0483747
  28.895604    63.0483164
  28.8956952   63.0482519
  28.8957462   63.0480076
  28.8957462   63.0477511
  28.8959205   63.047593
  28.8959473   63.0474253
  28.8960278   63.0473864
  28.8964328   63.0473572
  28.8969558   63.047114
  28.8969585   63.0470143
  28.896811    63.0469219
  28.8969398   63.0468514
  28.897157    63.0468733
  28.8974011   63.0469499
  28.8974816   63.0469122
  28.8975996   63.0463141
  28.8977793   63.046218
  28.8976988   63.0461086
  28.8973716   63.0459129
  28.897377    63.0458545
  28.8974199   63.0457974
  28.8975728   63.0458095
  28.8976935   63.0458521
  28.8978446   63.0459588
  28.8985115   63.0459749
  28.898879    63.0460527
  28.8992465   63.04606
  28.8995951   63.0460053
  28.8999894   63.0460138
  28.9003998   63.0460709
  28.9006117   63.0460855
  28.9008021   63.0461718
  28.9009336   63.0461828
  28.9010221   63.0461426
  28.9012125   63.0460247
  28.90147     63.0460296
  28.9015692   63.0461949
  28.9017168   63.0461767
  28.9018643   63.0459992
  28.902154    63.0459895
  28.9019582   63.0461354
  28.9019555   63.0462448
  28.9021084   63.046308
  28.9022881   63.0463092
  28.902398    63.0462217
  28.9024436   63.0459822
  28.9025778   63.0459895
  28.9026582   63.0460138
  28.9027333   63.0462727
  28.9028594   63.0463797
  28.9030927   63.046404
  28.9031652   63.0464247
  28.9031276   63.0464879
  28.9029586   63.0464952
  28.9028916   63.0465499
  28.9027119   63.0466095
  28.9026663   63.0467457
  28.9027977   63.0468636
  28.903141    63.0470277
  28.9036667   63.0470557
  28.9039806   63.0472842
  28.9043078   63.0473377
  28.9044955   63.0474216
  28.9049435   63.0475347
  28.9050856   63.0475043
  28.905091    63.0473912
  28.9049649   63.0472733
  28.9050829   63.0471943
  28.905378    63.0472089
  28.9057884   63.0472855
  28.9060217   63.0475067
  28.9064831   63.04748
  28.906239    63.0472186
  28.9062403   63.0471256
  28.9066386   63.0473086
  28.9070034   63.0473693
  28.9078349   63.0473523
  28.9081169   63.0472525
  28.9083472   63.0471554
  28.9084464   63.0470156
  28.9089775   63.0469207
  28.909231    63.0468733
  28.9098385   63.0465961
  28.9102194   63.0462156
  28.9110723   63.0458229
  28.9112896   63.0457609
  28.9118019   63.0455834
  28.9120325   63.04548
  28.9122015   63.0454022
  28.9122659   63.0452867
  28.9122766   63.0450557
  28.9123437   63.0449244
  28.9125019   63.0448867
  28.9126682   63.0448843
  28.9131607   63.0447016
  28.914351    63.04426
  28.9256927   63.0360487
  28.9372399   63.0335944
  28.9392654   63.0331571
  28.9572074   63.0292673
  29.0380133   63.0108552
  29.0648234   62.986576
  29.0675124   62.9841623
  29.0292263   62.9740983
  28.9907912   62.9638632
  28.9970881   62.957045
  28.9938855   62.9564499
  28.9881179   62.9631421
  28.9717898   62.9587575
  28.9773496   62.9551221
  28.9627859   62.9458066
  28.981963    62.942897
  28.9807397   62.9410959
  28.9909052   62.9421611
  28.9928739   62.9373123
  28.989175    62.9373033
  28.9845343   62.9394848
  28.9828289   62.9386091
  28.9957345   62.9276377
  28.9796047   62.9239776
  28.9632575   62.9248993
  28.9608359   62.9261552
  28.9345164   62.9392982
  28.9309099   62.9366223
  28.9385204   62.9159248
  28.9421801   62.9151838
  28.9431444   62.9158708
  28.9437467   62.9163479
  28.9497874   62.9152925
  28.9556485   62.913419
  28.9557439   62.9114799
  28.9672144   62.9100221
  28.9628395   62.9073043
  28.9683285   62.904667
  28.9687184   62.903656
  28.9687344   62.9034507
  28.9688632   62.9032833
  28.9688551   62.9031367
  28.9688417   62.9030121
  28.9690107   62.9028239
  28.9689485   62.9026518
  28.9690885   62.9025698
  28.9692172   62.9024146
  28.9695847   62.9022949
  28.9696491   62.9021886
  28.9697893   62.9021653
  28.9699709   62.9021813
  28.9700836   62.9022314
  28.9704618   62.9022301
  28.9706227   62.9021862
  28.9709446   62.9021923
  28.9719792   62.9022455
  28.9719686   62.9011104
  28.9728737   62.9008675
  28.9759044   62.9014082
  28.9773468   62.8997152
  28.9854336   62.8980362
  28.9843302   62.8969506
  28.9856837   62.8964228
  28.9895113   62.8963678
  29.0004051   62.8802112
  29.0041675   62.8809974
  29.0046921   62.8796234
  29.007592    62.8800002
  29.007112    62.8816476
  29.0125963   62.8827544
  29.0133256   62.8800215
  29.0051401   62.8781039
  29.0113091   62.8753547
  29.010258    62.8735256
  29.0312111   62.8702475
  29.0471649   62.860182
  29.0486348   62.8606959
  29.0448958   62.8640041
  29.0471542   62.8645325
  29.0518319   62.8617921
  29.0551686   62.8628981
  29.0682578   62.8563644
  29.0722395   62.8569407
  29.0723348   62.8568134
  29.0723871   62.8566972
  29.0726204   62.8565889
  29.072898    62.8563521
  29.0730429   62.8563252
  29.0733808   62.8563521
  29.073523    62.8563356
  29.0736517   62.8562634
  29.0737295   62.8560437
  29.0737617   62.8559752
  29.073869    62.8559752
  29.0740943   62.8561759
  29.0742834   62.8561857
  29.0745288   62.8560437
  29.0752636   62.8562615
  29.0847647   62.8504472
  29.0846224   62.8503033
  29.0847575   62.8502328
  29.0848899   62.8501772
  29.0850589   62.8500661
  29.0851676   62.849976
  29.0852509   62.849842
  29.0853032   62.8497006
  29.0854199   62.8495617
  29.085542    62.8493965
  29.0855956   62.8491908
  29.0857753   62.8489901
  29.0858839   62.8489436
  29.0860564   62.8489368
  29.0861548   62.8489565
  29.0862004   62.8489993
  29.086187    62.8491786
  29.0862836   62.849268
  29.0864843   62.8493426
  29.0870105   62.8494277
  29.0871283   62.8494919
  29.0871258   62.8495825
  29.0869704   62.8497506
  29.0870413   62.8498769
  29.0872546   62.8500238
  29.0876675   62.8503118
  29.0878768   62.8503714
  29.0880645   62.8503735
  29.088145    62.8502863
  29.0882      62.8501205
  29.0883467   62.8500152
  29.0885393   62.8499632
  29.0888634   62.8499647
  29.0893542   62.8501735
  29.0897503   62.8501908
  29.0899423   62.8501562
  29.0901477   62.850044
  29.0904378   62.8500267
  29.090964    62.8501472
  29.0912122   62.85014
  29.0913593   62.8500669
  29.0914428   62.8499528
  29.0915992   62.849908
  29.0918447   62.8499319
  29.097603    62.8455882
  29.0940376   62.8444618
  29.0855275   62.8417768
  29.0566814   62.8325859
  29.0279087   62.8232547
  28.966325    62.8030286
  28.9662256   62.8029959
  28.9428722   62.7748975
  28.9426957   62.7737669
  28.9316106   62.7730599
  28.9296812   62.7729368
  28.9305215   62.7746266
  28.8986624   62.789697
  28.9008342   62.7953761
  28.8860125   62.7985097
  28.8858381   62.7985103
  28.8855547   62.7985251
  28.8854513   62.798557
  28.8848534   62.7988822
  28.8845633   62.7989112
  28.8843092   62.7990265
  28.85927     62.8066838
  28.8481566   62.8084489
  28.830862    62.8196106
  28.8361505   62.8233985
  28.833329    62.8249218
  28.823237    62.8239396
  28.809513    62.8301205
  28.7900885   62.8337975
  28.7858548   62.8311011
  28.7746696   62.8282884
  28.7739179   62.8278929
  28.7739344   62.827781
  28.7739223   62.8277246
  28.7738754   62.8276749
  28.7737134   62.827598
  28.7731163   62.8274716
  28.7444122   62.8123732
  28.7476874   62.799108
  28.7170176   62.7733352
  28.7108793   62.7752541
  28.7002055   62.7726429
  28.6951595   62.7741405
  28.6950764   62.7741925
  28.69239     62.7760662
  28.6901095   62.7753988
  28.6875131   62.775986
  28.6805607   62.776315
  28.6425684   62.7607894
  28.6327043   62.7439792
  28.6440199   62.7282008
  28.7028821   62.6942572
  28.6550245   62.6682705
  28.6551462   62.6570223
  28.6428463   62.6489127
  28.6424327   62.6377298
  28.6383123   62.6276213
  28.6377202   62.6261618
  28.6363663   62.6256741
  28.6353567   62.6244442
  28.6336783   62.6211597
  28.6144746   62.6157945
  28.5987573   62.6104379
  28.6036805   62.6104184
  28.6217874   62.6059755
  28.6260179   62.6061002
  28.6242434   62.5997117
  28.6144696   62.5964897
  28.6037809   62.5882949
  28.5979026   62.5886562
  28.577663    62.5800724
  28.5706167   62.5872713
  28.5607996   62.5969859
  28.5575616   62.5946745
  28.5408708   62.5872029
  28.53675     62.5841727
  28.5241073   62.5857427
  28.5115418   62.5851538
  28.4996279   62.5872706
  28.4868301   62.5884841
  28.4773037   62.5873632
  28.4770222   62.5873301
  28.4745413   62.5870382
  28.4669757   62.5831553
  28.4757672   62.5816047
  28.4947622   62.5776678
  28.5021679   62.5768372
  28.5056198   62.5767094
  28.5094246   62.5780602
  28.5148694   62.5762543
  28.5155628   62.5746381
  28.518823    62.5742925
  28.5245895   62.5725836
  28.5266464   62.5726654
  28.5355456   62.5701178
  28.5386173   62.5703251
  28.545454    62.5683905
  28.5207886   62.5484634
  28.5165167   62.5500479
  28.512547    62.5524712
  28.5072255   62.5541427
  28.4985566   62.5585039
  28.486433    62.562647
  28.4774101   62.565786
  28.4754784   62.5670008
  28.4621179   62.5628541
  28.416577    62.5773657
  28.4028273   62.5709623
  28.4122808   62.5663841
  28.396298    62.5547287
  28.4080726   62.534281
  28.3907704   62.5131038
  28.3885725   62.5104126
  28.3876606   62.5087623
  28.3807055   62.5090056
  28.3783621   62.5098687
  28.3751511   62.510229
  28.3714465   62.5088277
  28.3701092   62.507677
  28.3706357   62.5057249
  28.3686476   62.5046434
  28.3677324   62.5033207
  28.3683086   62.5018849
  28.3704607   62.5011082
  28.3690158   62.5001226
  28.3724565   62.4963303
  28.3784292   62.4940273
  28.378617    62.4939538
  28.3903515   62.4893626
  28.3878619   62.4882708
  28.3933581   62.484891
  28.3817028   62.4617171
  28.369942    62.462826
  28.3545445   62.4613264
  28.3464841   62.4648132
  28.3454124   62.4660082
  28.3424187   62.4665835
  28.3402114   62.4679619
  28.33412     62.4695951
  28.3322787   62.4699008
  28.3297258   62.4704756
  28.3249378   62.4722097
  28.3232947   62.4726575
  28.3165585   62.4708243
  28.31086     62.4699621
  28.3073981   62.4696892
  28.3040672   62.4703354
  28.3022309   62.4706284
  28.3007901   62.4707302
  28.2997449   62.4712119
  28.2985359   62.471436
  28.2940377   62.4728699
  28.2938287   62.4746965
  28.2902089   62.4754319
  28.2849371   62.4749171
  28.2863311   62.4731601
  28.2765295   62.4639265
  28.2766986   62.4624409
  28.2809015   62.4623199
  28.2918861   62.4592115
  28.2923233   62.4576725
  28.2946954   62.4569979
  28.2951521   62.4561926
  28.295255    62.4560884
  28.3003849   62.4505604
  28.2973441   62.441876
  28.286396    62.4430396
  28.2732505   62.4388246
  28.2507989   62.431502
  28.2447178   62.4240743
  28.2484877   62.4229957
  28.2490889   62.4216432
  28.2630864   62.4171588
  28.2634508   62.4192425
  28.2849904   62.4123686
  28.2878338   62.3951299
  28.2842114   62.3948008
  28.2842621   62.3932408
  28.2934806   62.3893
  28.3030862   62.3863519
  28.3094029   62.384929
  28.3234361   62.3826375
  28.323146    62.3812233
  28.3247314   62.3803373
  28.3259417   62.3799365
  28.3272176   62.3786233
  28.3297037   62.3777621
  28.3299152   62.3770529
  28.3291755   62.3763437
  28.3294672   62.3754728
  28.3290386   62.3750583
  28.3271676   62.3741888
  28.3266189   62.3727337
  28.3252255   62.3717554
  28.3207282   62.3695356
  28.3187747   62.3680455
  28.3196744   62.3650496
  28.3179722   62.3630511
  28.3183179   62.3611457
  28.3188073   62.3608117
  28.3192639   62.3603713
  28.3189191   62.3599303
  28.320007    62.3596126
  28.3206029   62.3596144
  28.3213684   62.3590855
  28.3226751   62.3587619
  28.3234242   62.3580124
  28.3189244   62.3564175
  28.316926    62.3549576
  28.3150261   62.3545325
END
END
