polygon
1
  20.1635668   63.1664345
  20.1866531   63.1287022
  20.2074713   63.092501
  20.228223    63.0563557
  20.2346429   63.0450797
  20.2488331   63.0201402
  20.269057    62.9848231
  20.2882981   62.9509993
  20.3001809   62.9300185
  20.3107306   62.9114001
  20.3177977   62.8991739
  20.3307506   62.8766706
  20.342724    62.8559102
  20.3505635   62.8421707
  20.356164    62.8325022
  20.3622741   62.8218005
  20.3704945   62.8075493
  20.376272    62.7974531
  20.3817362   62.787945
  20.3870158   62.7786185
  20.394555    62.7654521
  20.3986223   62.7583079
  20.4031252   62.7504191
  20.4076442   62.7424851
  20.4120566   62.7347963
  20.4150385   62.7298364
  20.4185252   62.7245627
  20.4433626   62.6888775
  20.4480811   62.6820742
  20.4660224   62.6561726
  20.468069    62.6532345
  20.4928005   62.6175034
  20.5174983   62.5817463
  20.5421543   62.5458995
  20.5667458   62.5100547
  20.5913385   62.4741562
  20.6158828   62.4381878
  20.6404325   62.4021715
  20.6648902   62.366138
  20.6796336   62.328445
  20.6917124   62.2974869
  20.6943685   62.2906878
  20.7087023   62.2538553
  20.7110576   62.2477955
  20.7237573   62.2150618
  20.7281379   62.2037853
  20.7334393   62.1900629
  20.7384413   62.1771098
  20.7464351   62.1563941
  20.7531398   62.1390082
  20.7602466   62.1205449
  20.7677149   62.1011302
  20.7823426   62.0629862
  20.7968544   62.025131
  20.8113847   61.9869932
  20.8218612   61.9486201
  20.8291525   61.9216727
  21.282578    61.944603
  21.3293717   61.9541313
  21.3296435   61.9541866
  21.3367331   61.95563
  21.3371976   61.9557246
  21.3390934   61.9561106
  21.339389    61.9561708
  21.3507635   61.9581361
  21.355819    61.9591233
  21.3541194   61.9598438
  21.3549895   61.9602404
  21.3565221   61.9600054
  21.3580126   61.9600658
  21.3581701   61.9599803
  21.3574184   61.959609
  21.3575828   61.9594678
  21.3602433   61.9600078
  21.3603444   61.9600634
  21.3605239   61.960162
  21.3605207   61.960747
  21.3612735   61.9613608
  21.3624557   61.9616387
  21.363649    61.9625453
  21.3618771   61.9628901
  21.3623651   61.9645414
  21.3649398   61.964285
  21.3656465   61.9640345
  21.3709883   61.9687439
  21.427116    62.01009
  21.523933    62.02491
  21.5498653   62.0234183
  21.5774583   62.0222768
  21.6391921   62.0194322
  21.6479243   62.019573
  21.62796     62.039723
  21.638939    62.0526862
  21.650963    62.059677
  21.6259      62.099224
  21.6367704   62.107257
  21.6424725   62.1114744
  21.643066    62.111913
  21.6417128   62.1494387
  21.6689858   62.1406313
  21.6704871   62.1443016
  21.675099    62.1439245
  21.676019    62.1456008
  21.6746766   62.14677
  21.6842167   62.1478185
  21.6878953   62.143965
  21.6852169   62.1424958
  21.6837214   62.1420017
  21.6828707   62.1418691
  21.6831899   62.1413585
  21.6801042   62.1394963
  21.679829    62.1383393
  21.6956226   62.1437653
  21.704521    62.166464
  21.667099    62.186655
  21.7107239   62.2127922
  21.710767    62.2175526
  21.749859    62.2194081
  21.7630165   62.2181256
  21.7662335   62.2210874
  21.764411    62.2215918
  21.7637125   62.2222642
  21.7579734   62.2239632
  21.7587523   62.2239592
  21.7593797   62.2240807
  21.7585137   62.2243828
  21.7576465   62.2248543
  21.7574466   62.2250717
  21.757381    62.2252936
  21.7573655   62.2255323
  21.7577225   62.225648
  21.7581805   62.2258036
  21.7580865   62.2258943
  21.7565813   62.2274379
  21.7559988   62.2280393
  21.7557582   62.2280277
  21.7554865   62.2280668
  21.7553513   62.2282338
  21.7555784   62.2285401
  21.7558403   62.2287244
  21.7560154   62.2288476
  21.756537    62.2291091
  21.7567932   62.2292376
  21.7571602   62.2295045
  21.7571863   62.2297412
  21.7569756   62.2300399
  21.7566455   62.2301812
  21.7563193   62.2302255
  21.7559231   62.2302793
  21.7557217   62.2303566
  21.7554865   62.2304468
  21.7551914   62.2306602
  21.7551221   62.230798
  21.755009    62.2310231
  21.7551399   62.2312861
  21.7554757   62.2314605
  21.7560149   62.2317309
  21.7560411   62.2321463
  21.7559585   62.2323802
  21.7555712   62.2325797
  21.7548567   62.2328876
  21.7544318   62.233016
  21.7539394   62.232989
  21.7534308   62.2328511
  21.7527731   62.2327071
  21.7522583   62.2326422
  21.7519052   62.2326751
  21.7514739   62.2327471
  21.751122    62.2329491
  21.7510158   62.2331045
  21.7512648   62.2336329
  21.7511112   62.2338243
  21.7509761   62.2339447
  21.750961    62.2341341
  21.7507829   62.2343346
  21.7500155   62.2349648
  21.749635    62.2352524
  21.7492015   62.2354836
  21.748429    62.2357035
  21.7467489   62.2360539
  21.7457897   62.2362433
  21.7445173   62.2368135
  21.7437942   62.2374827
  21.744174    62.2375032
  21.7441311   62.237893
  21.7440452   62.2380829
  21.7442598   62.2384727
  21.7446954   62.2387121
  21.7453327   62.2392923
  21.7454679   62.2394817
  21.7453821   62.2396116
  21.7452469   62.2395022
  21.7450173   62.2394917
  21.744925    62.2395821
  21.7450323   62.2399419
  21.7448027   62.240641
  21.7443092   62.2410308
  21.7438092   62.2411312
  21.7432084   62.2411512
  21.7427363   62.2412411
  21.7420068   62.2412711
  21.7408759   62.2413306
  21.7396464   62.2416409
  21.7392602   62.2418508
  21.7391314   62.2421206
  21.739095    62.24231
  21.7395177   62.2424804
  21.7399254   62.2425303
  21.7406399   62.2424299
  21.7412557   62.2422505
  21.7417278   62.2422605
  21.7425003   62.2425803
  21.7439229   62.2429496
  21.7445388   62.2431899
  21.7450602   62.2433992
  21.7455473   62.2436995
  21.7459121   62.2439793
  21.7460258   62.2441987
  21.7457189   62.244409
  21.7451396   62.2446389
  21.7444594   62.2447783
  21.7440023   62.2449886
  21.7436011   62.245178
  21.7432298   62.2452185
  21.7427857   62.245118
  21.7419424   62.2448287
  21.7409553   62.2442392
  21.7404403   62.2441292
  21.7398824   62.2441692
  21.7392666   62.2443586
  21.7388954   62.2445989
  21.7388739   62.2448887
  21.7390885   62.2450985
  21.740318    62.2458974
  21.7412987   62.2460878
  21.7419488   62.2461473
  21.742629    62.2463176
  21.7427428   62.246517
  21.7426355   62.2466868
  21.7424359   62.2468872
  21.742099    62.2470066
  21.7418136   62.2469671
  21.7410197   62.2467373
  21.7405476   62.2467073
  21.7393954   62.2469466
  21.7388589   62.2471764
  21.7386164   62.2474567
  21.7386594   62.2476765
  21.7392387   62.2481262
  21.7433801   62.2484259
  21.7430002   62.2506434
  21.7454679   62.2528613
  21.7412987   62.2560984
  21.7363913   62.2577161
  21.7276151   62.2587549
  21.7262365   62.2594951
  21.7233021   62.2593042
  21.7243106   62.2575163
  21.7164507   62.2587254
  21.7150136   62.2589472
  21.7066215   62.2602424
  21.7002716   62.2612223
  21.7054214   62.264508
  21.7021019   62.2651765
  21.7023101   62.2654067
  21.6970475   62.266574
  21.6955144   62.266914
  21.6926327   62.2652569
  21.6905513   62.2640386
  21.6864164   62.261102
  21.6880922   62.2592043
  21.6801196   62.259071
  21.6799308   62.2590765
  21.6804662   62.2602635
  21.6730513   62.2601227
  21.6728903   62.2601196
  21.6729373   62.2608297
  21.6729407   62.260881
  21.6734291   62.2653064
  21.6741582   62.2718768
  21.6678276   62.276479
  21.6743293   62.2777967
  21.6728701   62.2800724
  21.6720547   62.2819089
  21.6753324   62.2821294
  21.6761124   62.2890989
  21.6768184   62.2955291
  21.6768453   62.2956295
  21.6789074   62.303227
  21.6797666   62.3063919
  21.6811313   62.3116259
  21.682797    62.3177164
  21.6831484   62.319073
  21.6783633   62.3201396
  21.6775265   62.3207875
  21.6768398   62.3213755
  21.6764321   62.3218639
  21.675945    62.3224515
  21.6757455   62.3226513
  21.674164    62.3237372
  21.6736855   62.323931
  21.6782989   62.327455
  21.672677    62.3289697
  21.6777904   62.333184
  21.6756875   62.3341704
  21.6679134   62.3274849
  21.6655102   62.3283718
  21.6630618   62.3289901
  21.6696794   62.3352663
  21.6863305   62.3395898
  21.6846354   62.3424386
  21.6882617   62.34458
  21.6868884   62.3451079
  21.6864593   62.3452075
  21.6855795   62.345307
  21.6850216   62.3454664
  21.6849572   62.3457851
  21.6846568   62.3462831
  21.6860087   62.3466814
  21.6869099   62.3471893
  21.6877467   62.3472391
  21.6883261   62.3474184
  21.6886909   62.3475777
  21.6890557   62.3479362
  21.68912     62.3482648
  21.6890771   62.3486034
  21.6889269   62.3490217
  21.6886694   62.3495295
  21.6884978   62.3503063
  21.6889913   62.350824
  21.6889269   62.3516903
  21.6859443   62.3527159
  21.6865666   62.355225
  21.6853156   62.3556409
  21.6713531   62.3602823
  21.6723616   62.3605212
  21.6721256   62.3606307
  21.6718681   62.3607103
  21.6713316   62.3608297
  21.6709883   62.360989
  21.6706235   62.360989
  21.6700871   62.3609492
  21.6692288   62.3611085
  21.6687138   62.3611383
  21.6683705   62.3610686
  21.6685421   62.36077
  21.6684348   62.360561
  21.6681344   62.3604017
  21.6677847   62.3602827
  21.6675916   62.3602728
  21.6673834   62.3603221
  21.6672268   62.3604321
  21.6672332   62.3606506
  21.6671474   62.3607501
  21.6668684   62.3609392
  21.6666324   62.3609392
  21.6662891   62.3611383
  21.6654951   62.3614369
  21.664787    62.3611483
  21.6597016   62.3605311
  21.6553886   62.3654482
  21.6556675   62.3658562
  21.652757    62.3658568
  21.650788    62.3658572
  21.6501744   62.3673292
  21.6266568   62.3644131
  21.6296125   62.3594864
  21.6192914   62.3582022
  21.6193611   62.3598542
  21.6219522   62.3602827
  21.6220648   62.3638159
  21.5947224   62.3603226
  21.5987832   62.3586198
  21.5968896   62.3567686
  21.5897496   62.356131
  21.5862788   62.3592619
  21.5834429   62.3588655
  21.5659841   62.3566397
  21.561081    62.3570802
  21.558784    62.3577846
  21.5586191   62.3580963
  21.5573206   62.3605512
  21.554103    62.366633
  21.5515031   62.3668921
  21.5512116   62.3669211
  21.546227    62.3686373
  21.5462549   62.3734491
  21.5297513   62.377863
  21.5234883   62.3795379
  21.527268    62.3818098
  21.531036    62.3840744
  21.534723    62.3862818
  21.5513907   62.3962584
  21.5514905   62.3963852
  21.5512266   62.3969171
  21.5488169   62.402857
  21.5507738   62.4042968
  21.5514935   62.4047809
  21.5518178   62.404999
  21.5524871   62.4046953
  21.5532625   62.4043435
  21.553781    62.4041082
  21.5538503   62.4041579
  21.5541595   62.4043797
  21.5547845   62.404744
  21.5555295   62.405229
  21.556031    62.4056242
  21.5561793   62.4057812
  21.5563945   62.4061167
  21.5567256   62.4067513
  21.5568581   62.4070868
  21.5569202   62.4075047
  21.5534099   62.4092753
  21.5515988   62.4093053
  21.5529313   62.411909
  21.5549431   62.4118679
  21.5561522   62.4118432
  21.5571457   62.4134058
  21.5531546   62.4138743
  21.5515989   62.4199609
  21.5549688   62.4221921
  21.5541073   62.424292
  21.5458435   62.4432188
  21.5455682   62.4438724
  21.540649    62.4434262
  21.532581    62.445342
  21.5337611   62.4465828
  21.5328224   62.4467808
  21.5316797   62.4455703
  21.527474    62.4464339
  21.5301831   62.4491232
  21.5197922   62.4514162
  21.5197117   62.4511875
  21.5191538   62.4510485
  21.5186978   62.4507414
  21.518376    62.4506124
  21.5180112   62.4506421
  21.5179522   62.4518226
  21.5129525   62.4529043
  21.5120942   62.4525669
  21.5115953   62.4532224
  21.5141162   62.4557761
  21.5144321   62.456048
  21.5152947   62.4568547
  21.5179468   62.456755
  21.5251781   62.452488
  21.5453772   62.4471783
  21.5471164   62.4496373
  21.5538026   62.4596621
  21.5519572   62.4598506
  21.5520072   62.4599262
  21.554559    62.4637886
  21.5564902   62.4636001
  21.5666557   62.4784375
  21.5676482   62.4799837
  21.5722776   62.4867651
  21.578436    62.4956652
  21.5795947   62.4974389
  21.5775562   62.4975182
  21.5794928   62.5003515
  21.5815903   62.5003123
  21.5851308   62.5054739
  21.5848143   62.5054833
  21.5930058   62.5173095
  21.6033323   62.5309018
  21.6147853   62.5543112
  21.6135622   62.5553101
  21.6124679   62.5587416
  21.6040565   62.5586131
  21.5955378   62.5584845
  21.59616     62.5646742
  21.5972544   62.5760317
  21.5968467   62.5784133
  21.5964014   62.5806757
  21.5983916   62.5806762
  21.5983273   62.5811801
  21.5965248   62.5898545
  21.5946365   62.5900718
  21.5934413   62.5962751
  21.5925352   62.60133
  21.591788    62.6054278
  21.5934261   62.6056893
  21.5940423   62.6057876
  21.6070129   62.6078579
  21.6082873   62.6080613
  21.6091687   62.608202
  21.6192485   62.609782
  21.6254197   62.6107321
  21.6265559   62.6114023
  21.6270805   62.6115983
  21.6466768   62.6215954
  21.6508159   62.6309262
  21.6514448   62.6323024
  21.652732    62.635119
  21.6537471   62.6373399
  21.6620876   62.6399966
  21.6622443   62.6400465
  21.6635542   62.6404735
  21.6641105   62.6406258
  21.664545    62.640936
  21.6647505   62.6411667
  21.664913    62.6413644
  21.6652676   62.6416908
  21.6664435   62.6427893
  21.670219    62.6434892
  21.6711604   62.6428581
  21.6804095   62.6457846
  21.6813609   62.646214
  21.6930907   62.6513804
  21.6910592   62.652478
  21.6943674   62.6539972
  21.6968474   62.6530468
  21.6997635   62.6542712
  21.69445     62.6566843
  21.6939935   62.6574048
  21.701927    62.6576135
  21.7057684   62.6594047
  21.7085558   62.6581344
  21.7115266   62.6594858
  21.7132346   62.6601686
  21.715412    62.6611433
  21.7172182   62.6619615
  21.7180111   62.6622825
  21.7272454   62.6663414
  21.7237569   62.6681621
  21.7222737   62.6675645
  21.7217125   62.6682291
  21.732759    62.6729035
  21.7374705   62.6743114
  21.7376915   62.6744126
  21.7378165   62.6744574
  21.7372356   62.6746658
  21.7346837   62.6758519
  21.7379394   62.6772444
  21.7348817   62.6789669
  21.7398566   62.6804048
  21.7412353   62.6898397
  21.7431847   62.6943449
  21.7482069   62.6934688
  21.7484697   62.6877052
  21.7421816   62.6801418
  21.7407568   62.678411
  21.7502217   62.6764106
  21.7909988   62.6942263
  21.7677033   62.7083084
  21.7478078   62.7202184
  21.7422792   62.7314083
  21.7395144   62.736907
  21.7391292   62.737686
  21.7333319   62.7494745
  21.7292066   62.7577323
  21.7291428   62.7616966
  21.7292002   62.7630774
  21.7291503   62.7676571
  21.728984    62.77668
  21.728935    62.797355
  21.728933    62.805588
  21.728863    62.806638
  21.728057    62.806527
  21.728063    62.809235
  21.728854    62.809319
  21.728785    62.818692
  21.727996    62.818923
  21.728456    62.819102
  21.728275    62.819672
  21.72743     62.819559
  21.727639    62.820583
  21.72715     62.821006
  21.728767    62.821094
  21.735831    62.826244
  21.754533    62.839838
  21.75551     62.84054
  21.76521     62.847623
  21.771113    62.861456
  21.769536    62.8619
  21.770177    62.863166
  21.768896    62.864495
  21.768125    62.864845
  21.769582    62.865511
  21.770664    62.864966
  21.771763    62.862892
  21.77208     62.863543
  21.790799    62.857301
  21.789599    62.856519
  21.819391    62.848515
  21.830931    62.845368
  21.832956    62.840459
  21.835827    62.833313
  21.83633     62.832135
  21.83948     62.824504
  21.84239     62.817567
  21.854142    62.817953
  21.854953    62.819611
  21.855802    62.81948
  21.857665    62.813781
  21.859312    62.813581
  21.858248    62.811797
  21.87439     62.809769
  21.87328     62.807569
  21.880925    62.806678
  21.879465    62.804223
  21.902205    62.801632
  21.914723    62.799711
  21.912547    62.79616
  21.911626    62.795011
  21.9148285   62.7944041
  21.9515789   62.7874409
  21.955329    62.786747
  21.958357    62.789942
  21.973038    62.787608
  21.96909     62.782437
  21.9925036   62.778663
  22.011392    62.775618
  22.00691     62.773677
  22.006004    62.773114
  22.063206    62.763455
  22.067088    62.768637
  22.121075    62.760182
  22.124232    62.767316
  22.148306    62.762367
  22.167437    62.758432
  22.170154    62.757896
  22.200692    62.751578
  22.240528    62.773108
  22.24531     62.775708
  22.246936    62.776581
  22.248773    62.775906
  22.250067    62.776642
  22.249196    62.777782
  22.253817    62.780295
  22.273852    62.791133
  22.273266    62.791356
  22.2735254   62.7914916
  22.2737271   62.7916334
  22.2741134   62.7916971
  22.2745211   62.7917069
  22.275036    62.7918198
  22.2755939   62.7918737
  22.2758107   62.7919331
  22.2757463   62.7921244
  22.275918    62.7921833
  22.2765617   62.7922863
  22.2766008   62.7922128
  22.276799    62.792231
  22.277056    62.7922535
  22.2770209   62.7923398
  22.2780208   62.7924236
  22.2785894   62.7925021
  22.2790486   62.7926194
  22.2793812   62.7927273
  22.2794799   62.7928504
  22.2794585   62.7929632
  22.2792761   62.7929976
  22.2790186   62.7930515
  22.2790164   62.7931786
  22.2790701   62.7932963
  22.2791259   62.7933655
  22.2793383   62.7933453
  22.2795314   62.7934042
  22.2795336   62.7935028
  22.2796838   62.7935666
  22.2798447   62.7935077
  22.2799735   62.7933851
  22.2800915   62.7932477
  22.2803254   62.793262
  22.2804648   62.7933846
  22.2804434   62.7935906
  22.2803361   62.7937868
  22.280467    62.7939099
  22.2807277   62.79393
  22.2809165   62.7939269
  22.2810442   62.7938633
  22.2809605   62.7938118
  22.2808103   62.7937432
  22.2808532   62.7936303
  22.2809927   62.7935617
  22.2812159   62.7935661
  22.2813231   62.7936397
  22.2816901   62.7936794
  22.2820098   62.7936789
  22.2821514   62.7936303
  22.2823338   62.7935028
  22.2825806   62.7934881
  22.2827415   62.7934636
  22.2829668   62.7933262
  22.2831106   62.7932575
  22.2833026   62.7932379
  22.2834469   62.7932818
  22.2840571   62.7933341
  22.2877669   62.7959072
  22.2880496   62.7959663
  22.2911765   62.796755
  22.2914833   62.7968377
  22.2916228   62.7968818
  22.2916657   62.7969505
  22.2915155   62.797127
  22.2911829   62.7976273
  22.2905178   62.7985101
  22.2903246   62.7986523
  22.2899599   62.7987798
  22.2852284   62.8005993
  22.2848958   62.8006532
  22.2847473   62.8006693
  22.284495    62.8006965
  22.2843058   62.800717
  22.2831256   62.800717
  22.2821493   62.8007464
  22.2819669   62.8007955
  22.2819025   62.8008935
  22.2819454   62.801124
  22.2820942   62.8018883
  22.2822378   62.803072
  22.2822512   62.803533
  22.282366    62.8039978
  22.2831041   62.8050322
  22.2829883   62.8056944
  22.2824497   62.8065522
  22.2819794   62.8071458
  22.2818396   62.8073222
  22.2818128   62.8074006
  22.2817275   62.8074206
  22.2813407   62.807484
  22.281212    62.8075428
  22.2810463   62.8075477
  22.2808002   62.8074723
  22.2804856   62.8074912
  22.2801874   62.8075662
  22.2801344   62.8077291
  22.2802202   62.8078615
  22.280657    62.80791
  22.2808751   62.8079956
  22.2809798   62.8081309
  22.2807867   62.8082535
  22.280143    62.8083515
  22.2794585   62.8083811
  22.2786755   62.8085258
  22.2780318   62.808722
  22.2778708   62.8089034
  22.2780532   62.8090995
  22.2782247   62.8091117
  22.2783105   62.8092147
  22.2782461   62.8094255
  22.2780637   62.8096902
  22.2778921   62.8098863
  22.2779135   62.8100628
  22.2780315   62.8101854
  22.2779436   62.8102832
  22.2776775   62.8103079
  22.2770767   62.8103766
  22.2761754   62.8105775
  22.2758858   62.8107001
  22.2756175   62.8108717
  22.2754223   62.8110136
  22.2753493   62.8112198
  22.2751562   62.8113717
  22.27477     62.811509
  22.2745532   62.8116166
  22.2743837   62.8117247
  22.2743408   62.8118374
  22.274609    62.8119551
  22.2753686   62.8121901
  22.275948    62.8123323
  22.2764415   62.8124303
  22.2766046   62.8124943
  22.2765569   62.8125713
  22.276463    62.8126215
  22.2761433   62.8127198
  22.2757892   62.8127835
  22.2753257   62.8127098
  22.2750275   62.81271
  22.27477     62.8127149
  22.2745125   62.8128326
  22.2744138   62.8129892
  22.274446    62.8132931
  22.2743301   62.8134355
  22.2741477   62.8136757
  22.2738902   62.8137786
  22.2735362   62.8138521
  22.2734289   62.8139306
  22.2735898   62.8140433
  22.2738344   62.8142048
  22.2739476   62.8143154
  22.27377     62.8143862
  22.2734589   62.8144352
  22.2732658   62.8145627
  22.2730834   62.8146607
  22.2723216   62.8149793
  22.2720963   62.8150871
  22.2720642   62.8152097
  22.2719461   62.8153126
  22.2716457   62.8153518
  22.2714633   62.8154548
  22.2712595   62.8155332
  22.2709612   62.8155285
  22.2704355   62.8155775
  22.2702746   62.8156511
  22.2702724   62.8157586
  22.2704012   62.8158616
  22.270884    62.8160086
  22.271002    62.8160723
  22.2708754   62.8161755
  22.2707574   62.8163226
  22.2705964   62.8163471
  22.2699956   62.8163667
  22.2698025   62.81645
  22.2697381   62.8165627
  22.2698669   62.8167294
  22.2697167   62.816847
  22.2695021   62.8169842
  22.2695536   62.8170869
  22.2697167   62.8171509
  22.2695021   62.8172636
  22.2693734   62.8174303
  22.2692532   62.8176408
  22.2686331   62.8178665
  22.2686417   62.8180133
  22.2688026   62.8182387
  22.268867    62.8184985
  22.2687833   62.8187095
  22.2688047   62.8188222
  22.268985    62.8188611
  22.269457    62.8188415
  22.2697918   62.818832
  22.2700493   62.8189496
  22.2702832   62.8191013
  22.2703819   62.8192633
  22.2704033   62.8193564
  22.2702424   62.819425
  22.269869    62.8194637
  22.2696679   62.8195463
  22.2696394   62.8196894
  22.2697575   62.8197825
  22.2698454   62.8198661
  22.2698669   62.8200376
  22.269824    62.8202091
  22.2698347   62.8203856
  22.2698036   62.8204801
  22.2696899   62.8205211
  22.2694055   62.8205571
  22.2686116   62.8206306
  22.2683649   62.8207139
  22.2679786   62.8207335
  22.26741     62.8207384
  22.2670881   62.8207384
  22.2668092   62.8208413
  22.2666375   62.8210618
  22.2664444   62.8212187
  22.2659938   62.821302
  22.2657041   62.8214441
  22.2654788   62.8215127
  22.2652857   62.8215568
  22.2651762   62.8216742
  22.2652513   62.8217967
  22.2651462   62.8218459
  22.2649424   62.8219243
  22.264878    62.8220125
  22.2650175   62.8220665
  22.265659    62.8221201
  22.2658414   62.8221544
  22.2659401   62.8222625
  22.2658972   62.8223948
  22.2659079   62.8225712
  22.2659509   62.8227378
  22.2658436   62.8229387
  22.2657363   62.82312
  22.2657148   62.8232768
  22.2657985   62.8233942
  22.2659916   62.8234579
  22.2661011   62.8236591
  22.2661333   62.8237522
  22.265938    62.8240018
  22.2658114   62.8241687
  22.2658543   62.8242765
  22.2660667   62.8244134
  22.2660882   62.8244918
  22.2659487   62.82458
  22.2659294   62.8246587
  22.2659702   62.8248397
  22.2661225   62.825085
  22.2662942   62.825281
  22.2665517   62.8254084
  22.266777    62.8254672
  22.267086    62.8254767
  22.2673864   62.8254424
  22.2675151   62.8254669
  22.2675387   62.8255407
  22.2674636   62.8256289
  22.2672383   62.8257073
  22.2670624   62.8257849
  22.2669465   62.8258883
  22.2667663   62.8261433
  22.2665731   62.8262217
  22.2662727   62.8262364
  22.2659401   62.8263001
  22.2657363   62.8263932
  22.2656183   62.8264961
  22.2656075   62.8265892
  22.2658307   62.826687
  22.2661869   62.8269518
  22.2666997   62.8273925
  22.2669808   62.8274957
  22.2673671   62.8275838
  22.2676675   62.8276573
  22.267764    62.8277455
  22.2677426   62.8278435
  22.2677319   62.8279415
  22.2678177   62.8279905
  22.2678284   62.8280885
  22.2676117   62.8283038
  22.2675065   62.8284853
  22.2675688   62.8286223
  22.2674239   62.8287879
  22.2671444   62.828999
  22.2669808   62.8292888
  22.2667019   62.8295093
  22.2666139   62.8296217
  22.2666676   62.8297589
  22.2666697   62.8298522
  22.2664658   62.8299404
  22.2660903   62.8300433
  22.2659401   62.8301119
  22.2658414   62.8302488
  22.2658092   62.8304546
  22.265865    62.8307243
  22.2658007   62.8308125
  22.265629    62.8308419
  22.2653608   62.8308664
  22.2650496   62.8309447
  22.2648436   62.8310768
  22.2647278   62.8312191
  22.2645883   62.8314444
  22.2646956   62.8315669
  22.2647921   62.8316502
  22.2646312   62.831758
  22.2644596   62.8318608
  22.2645003   62.8320173
  22.264672    62.8320467
  22.2647793   62.8321839
  22.2649209   62.8323213
  22.2648973   62.8325415
  22.2647814   62.8327034
  22.2648887   62.83287
  22.2651247   62.8330071
  22.2654445   62.8330902
  22.2656075   62.8331688
  22.2656505   62.833257
  22.2656483   62.8333988
  22.2657577   62.8334627
  22.2660152   62.8334774
  22.2663457   62.8335408
  22.2667105   62.8336192
  22.2668735   62.833688
  22.2670559   62.8337811
  22.2671096   62.8338546
  22.2670323   62.8339327
  22.2668628   62.8340113
  22.2666482   62.8341142
  22.2665603   62.8342315
  22.2666783   62.8342658
  22.2668199   62.8343346
  22.2667663   62.8344277
  22.2665302   62.8344865
  22.2662835   62.8345453
  22.2660796   62.8345747
  22.2658865   62.8347216
  22.2656483   62.8349761
  22.2654874   62.8351671
  22.2655303   62.8353092
  22.265702    62.8355002
  22.2656269   62.835701
  22.2655732   62.8358724
  22.265659    62.8359557
  22.2658736   62.8360047
  22.2659487   62.8360635
  22.2658736   62.8361565
  22.2658092   62.8362643
  22.2656054   62.8363231
  22.2650797   62.8364406
  22.2647578   62.8365533
  22.2644789   62.8365827
  22.2641677   62.8366121
  22.2639317   62.8367296
  22.2632451   62.8370823
  22.2630412   62.8371557
  22.262773    62.8371753
  22.2625262   62.8372292
  22.2622365   62.8372488
  22.2619576   62.8372292
  22.2617645   62.837239
  22.2616679   62.8373223
  22.2615714   62.8375182
  22.2614533   62.8375965
  22.2612495   62.8376455
  22.2609384   62.8377092
  22.2606916   62.8377778
  22.2604234   62.8379296
  22.2601766   62.8379982
  22.2599191   62.838052
  22.2593934   62.8381745
  22.259344    62.8382396
  22.2592346   62.8384679
  22.2589149   62.8386476
  22.2585383   62.8388494
  22.2579219   62.8389603
  22.2570974   62.838916
  22.2566039   62.8389238
  22.256282    62.8389581
  22.2560567   62.839061
  22.2559816   62.8392814
  22.2558958   62.8395213
  22.2557671   62.8396683
  22.2552306   62.8399033
  22.2544689   62.8401874
  22.2535784   62.8405253
  22.2526986   62.8407849
  22.2523446   62.8408926
  22.2521085   62.8408926
  22.2515184   62.8408437
  22.2513575   62.8408632
  22.2512824   62.8409612
  22.2511322   62.8411032
  22.2508768   62.8411524
  22.2505657   62.8411671
  22.2499381   62.8411904
  22.2495143   62.8412504
  22.2524433   62.8423816
  22.2580759   62.8447468
  22.2574408   62.8471018
  22.2567756   62.8499268
  22.2555847   62.8540635
  22.2551577   62.855914
  22.2547371   62.8574703
  22.2542006   62.8596776
  22.2538144   62.8611654
  22.2534947   62.8625604
  22.2489789   62.8800133
  22.2394232   62.8788728
  22.2390837   62.8784047
  22.2371654   62.8757607
  22.2295264   62.8769591
  22.2239195   62.8786691
  22.2220313   62.8792609
  22.2224347   62.88006
  22.2258894   62.8796883
  22.2271655   62.8796184
  22.228858    62.8795257
  22.2325101   62.8793311
  22.2359208   62.8801285
  22.2435812   62.879747
  22.2438923   62.8807103
  22.2310864   62.8816671
  22.2306637   62.8821041
  22.2252118   62.8883035
  22.2240054   62.8895691
  22.2228359   62.8909136
  22.2216665   62.8922287
  22.21795     62.896454
  22.2173599   62.898331
  22.215654    62.9040442
  22.2105364   62.9131273
  22.2097961   62.9144463
  22.2095171   62.9149935
  22.2066096   62.9183102
  22.2006916   62.9251214
  22.1968679   62.927594
  22.1944903   62.9291303
  22.1920442   62.9293598
  22.1899038   62.9320712
  22.1868986   62.9333239
  22.1871261   62.9339215
  22.1736013   62.9426276
  22.1709084   62.9443747
  22.1666168   62.9462584
  22.1627974   62.9479809
  22.1568493   62.950593
  22.157508    62.951006
  22.1577505   62.9514224
  22.1609735   62.9517964
  22.161864    62.9525819
  22.1651427   62.9515298
  22.1658293   62.9513102
  22.1670202   62.9503295
  22.1669129   62.9502271
  22.1675245   62.9502271
  22.1681897   62.950432
  22.1685695   62.9506742
  22.1691553   62.95132
  22.1695351   62.9516159
  22.1695737   62.9517298
  22.1694492   62.9517671
  22.1694922   62.9519818
  22.169696    62.9529234
  22.1659688   62.9536715
  22.1619026   62.9537398
  22.1614563   62.9539771
  22.1613018   62.9541545
  22.160776    62.9545301
  22.1593598   62.9543691
  22.1568321   62.9555187
  22.1564244   62.9557577
  22.1555296   62.9554228
  22.1521007   62.9546845
  22.1513819   62.9546016
  22.1510278   62.9552894
  22.1501862   62.9567468
  22.1515965   62.9579401
  22.1522295   62.958543
  22.152465    62.9588996
  22.1526329   62.9591837
  22.1468221   62.958343
  22.1467328   62.9586972
  22.1460067   62.9615768
  22.14576     62.9618889
  22.1450304   62.962084
  22.1445154   62.9620596
  22.1441721   62.9630204
  22.1440096   62.963098
  22.1432172   62.9634837
  22.1417152   62.9636788
  22.141683    62.9641519
  22.1406852   62.9646785
  22.1408354   62.9647419
  22.1379065   62.9658343
  22.138797    62.9667657
  22.1393613   62.966665
  22.140181    62.9666584
  22.1408311   62.967021
  22.143861    62.9662537
  22.1437      62.9656295
  22.1454059   62.9656441
  22.1457922   62.9643616
  22.1476869   62.9645242
  22.1498434   62.9660018
  22.1506952   62.9665999
  22.152708    62.9679767
  22.1522788   62.9685033
  22.1636771   62.976234
  22.1647779   62.9762698
  22.1645032   62.9771846
  22.1637479   62.979058
  22.1600722   62.9797826
  22.1588663   62.9806226
  22.1586517   62.9808956
  22.1582483   62.9814203
  22.1582226   62.9815779
  22.1586303   62.981846
  22.1592633   62.9820702
  22.162085    62.9832399
  22.1596602   62.9896723
  22.16054     62.9897308
  22.159263    62.9929753
  22.1584211   62.9951141
  22.1545874   62.9961962
  22.154056    62.9963462
  22.1491916   62.9977496
  22.1524778   63.0009524
  22.1528426   63.0009183
  22.1531108   63.0007973
  22.153474    63.0006612
  22.1537074   63.0006234
  22.154696    63.0006624
  22.1548099   63.0003804
  22.1549937   63.0001225
  22.1552657   62.9999607
  22.1555237   62.99997
  22.1554572   63.0001551
  22.1552437   63.0006638
  22.1554288   63.0006694
  22.1556176   63.000979
  22.1557727   63.0010844
  22.1553249   63.0014373
  22.1551211   63.0016224
  22.1551595   63.0020108
  22.1553998   63.0023028
  22.155518    63.0025868
  22.1557219   63.0028644
  22.1564927   63.0034269
  22.1533431   63.0037748
  22.1534617   63.0042302
  22.152941    63.0048528
  22.1526105   63.0052992
  22.1535893   63.0054528
  22.1535436   63.0055047
  22.153486    63.0055697
  22.1543424   63.005707
  22.1543823   63.0057145
  22.1539141   63.006281
  22.1535325   63.0067712
  22.1534475   63.0068738
  22.151484    63.0091542
  22.1550578   63.0100068
  22.1560448   63.0101918
  22.1572786   63.010372
  22.1587592   63.0105278
  22.1602612   63.0106008
  22.1604007   63.0111157
  22.1608771   63.0128108
  22.1651552   63.0186733
  22.1661514   63.0187991
  22.1686941   63.0190035
  22.1722288   63.0192729
  22.1728462   63.0193199
  22.1729953   63.0193601
  22.1832099   63.0250733
  22.1949129   63.0315722
  22.1979937   63.0340547
  22.198219    63.0342883
  22.1974465   63.0347959
  22.1972319   63.0353926
  22.197307    63.0357203
  22.1979937   63.0357251
  22.1997103   63.0357397
  22.2010192   63.0373013
  22.2018131   63.0372526
  22.2037551   63.0388708
  22.2073385   63.0413191
  22.2080895   63.0417065
  22.2126278   63.0446604
  22.2423226   63.0637265
  22.2444027   63.0633834
  22.2564162   63.0617116
  22.2635316   63.0606362
  22.2655031   63.0604606
  22.2658231   63.0618016
  22.267105    63.0616905
  22.266862    63.0603404
  22.287006    63.05852
  22.2976546   63.0574668
  22.3111995   63.0561135
  22.3235775   63.059564
  22.3364732   63.0605251
  22.3809824   63.0722496
  22.397046    63.076559
  22.4127626   63.0808369
  22.4227648   63.0834495
  22.4246167   63.0839989
  22.4285669   63.0850709
  22.4855477   63.1000665
  22.4898441   63.1001303
  22.4958783   63.1002944
  22.4966681   63.1002693
  22.4995804   63.1015597
  22.5073157   63.1009651
  22.5078293   63.1003352
  22.5128887   63.1006675
  22.5131859   63.1004319
  22.5217682   63.1005495
  22.5219428   63.1005534
  22.5253306   63.1006395
  22.5340901   63.1006963
  22.537593    63.100739
  22.5455114   63.100863
  22.5525995   63.1009236
  22.5552036   63.1015227
  22.558535    63.1012404
  22.5605848   63.1018239
  22.565942    63.1011257
  22.5707239   63.1011635
  22.5744539   63.102367
  22.5783221   63.1028064
  22.5795334   63.1029834
  22.5805084   63.1013025
  22.5833917   63.1012955
  22.6056531   63.1015866
  22.6059264   63.1022661
  22.6068246   63.1021974
  22.6094773   63.1017207
  22.6132713   63.101758
  22.6167179   63.1017368
  22.6316466   63.1019073
  22.6326081   63.1019206
  22.6486193   63.1053861
  22.6450469   63.1185001
  22.6444208   63.1209392
  22.6436227   63.124048
  22.6302993   63.1234004
  22.6291791   63.1285037
  22.6341592   63.1286819
  22.6373859   63.1288819
  22.6493866   63.129983
  22.6520973   63.1303147
  22.6522797   63.1302769
  22.6548366   63.1305075
  22.654282    63.1316877
  22.6520031   63.1314462
  22.6515848   63.1324293
  22.6582021   63.1331399
  22.6572089   63.1356241
  22.6471813   63.1344691
  22.6470804   63.1345911
  22.6464093   63.1386521
  22.6536049   63.1395935
  22.651804    63.1421042
  22.6503411   63.1425891
  22.6476785   63.1464043
  22.6386524   63.1450555
  22.6372778   63.147086
  22.643336    63.1480238
  22.6414288   63.1505395
  22.645644    63.1512493
  22.6454467   63.151632
  22.6442934   63.1519667
  22.6435084   63.1518341
  22.64293     63.1520577
  22.6505391   63.1533222
  22.6478538   63.1547795
  22.6398074   63.1534208
  22.6370605   63.1546376
  22.6358854   63.1552887
  22.6399282   63.1560165
  22.6393967   63.1566028
  22.6363115   63.1588702
  22.6224456   63.1561784
  22.6202788   63.159324
  22.6291356   63.1616375
  22.6255809   63.163229
  22.6344893   63.1651625
  22.6288155   63.1680201
  22.6280957   63.1697211
  22.6290407   63.1698155
  22.6313703   63.1698374
  22.6324493   63.1699075
  22.6333649   63.1699157
  22.6342934   63.1698252
  22.6348801   63.1696456
  22.6358583   63.1691481
  22.6369939   63.1683424
  22.6438184   63.1700115
  22.6437614   63.1701139
  22.6445189   63.1716171
  22.6452756   63.1727938
  22.6452261   63.1731434
  22.6369133   63.1711968
  22.632889    63.1748585
  22.625225    63.1730367
  22.6287466   63.1698406
  22.6286051   63.1698232
  22.6240862   63.1739453
  22.6218206   63.1734029
  22.6172718   63.177314
  22.6215664   63.1785035
  22.6204189   63.179545
  22.6198508   63.1817502
  22.6188339   63.1822281
  22.6182476   63.1826991
  22.6182568   63.1828602
  22.617728    63.1832111
  22.6172091   63.1841265
  22.6171927   63.1843651
  22.6173075   63.1845282
  22.6172536   63.184712
  22.6175182   63.1849137
  22.6175133   63.1851284
  22.6178599   63.1854111
  22.6178114   63.1858754
  22.617696    63.1859917
  22.6170371   63.1862287
  22.6152602   63.1864581
  22.6149179   63.186442
  22.6144879   63.1863362
  22.6138761   63.1860059
  22.6132393   63.1855267
  22.61293     63.1855468
  22.6122114   63.1859089
  22.6101124   63.1853035
  22.6099803   63.1854225
  22.607891    63.1855401
  22.6077048   63.1855981
  22.6074481   63.1858622
  22.6073773   63.1860673
  22.607008    63.1862828
  22.6058198   63.1865169
  22.6049541   63.1867936
  22.6044232   63.1870215
  22.603298    63.1880633
  22.5721867   63.1793399
  22.5892061   63.1970311
  22.5933297   63.2013159
  22.5973464   63.2020142
  22.6285384   63.2099107
  22.6196477   63.2182951
  22.6093083   63.2279009
  22.6097472   63.2279154
  22.6094875   63.2279763
  22.6092447   63.228028
  22.6092329   63.2280534
  22.6080862   63.2280188
  22.5995175   63.2277603
  22.5993427   63.2277236
  22.5966503   63.2284786
  22.5959895   63.2287509
  22.5958807   63.2294841
  22.600981    63.2305805
  22.6059473   63.2310654
  22.6014598   63.235244
  22.6100039   63.2376903
  22.6106117   63.2378222
  22.6052446   63.2386715
  22.587939    63.2413391
  22.5904207   63.2446003
  22.5619862   63.2492387
  22.5602617   63.2517642
  22.5528421   63.2529557
  22.5550483   63.2556075
  22.5569342   63.2552865
  22.5594017   63.2657031
  22.5906957   63.2814156
  22.5958604   63.2840079
  22.6078126   63.2786536
  22.6087767   63.2790758
  22.6076846   63.2795721
  22.6158332   63.281848
  22.6165598   63.282048
  22.6726427   63.2977072
  22.6680625   63.3012437
  22.6501045   63.3133628
  22.6489495   63.313997
  22.6452645   63.3167947
  22.6822158   63.3247321
  22.7165966   63.3376657
  22.7234953   63.3325845
  22.7486391   63.3394528
  22.7492547   63.3396209
  22.7553347   63.3413208
  22.752353    63.3446406
  22.7466101   63.3441057
  22.7394982   63.3433674
  22.7389883   63.3442476
  22.7392443   63.3453319
  22.7457438   63.3453147
  22.7462706   63.3453876
  22.7463474   63.3459176
  22.7454933   63.3457621
  22.7380321   63.3543924
  22.7237138   63.3501137
  22.7045587   63.3443886
  22.6366502   63.3238406
  22.6340337   63.3259439
  22.6571383   63.3325074
  22.7100279   63.3477607
  22.709777    63.3475206
  22.7137926   63.3472402
  22.7131553   63.3486464
  22.7127939   63.3489359
  22.7105608   63.3488862
  22.7104489   63.3500022
  22.7148105   63.3503458
  22.7147077   63.3507244
  22.7161115   63.3527367
  22.7175286   63.3547961
  22.7196975   63.354371
  22.7218756   63.3544568
  22.7217928   63.3556
  22.7265172   63.3562639
  22.7284208   63.3566518
  22.7295638   63.3570272
  22.7311116   63.3579281
  22.7319726   63.3581988
  22.7329023   63.3582918
  22.7352843   63.3583259
  22.7353252   63.3587479
  22.7356084   63.3589593
  22.7365944   63.3592886
  22.737975    63.3594475
  22.7406947   63.3593847
  22.7413253   63.3592505
  22.7410392   63.3589732
  22.7423174   63.3586949
  22.7433848   63.3582341
  22.744431    63.3575659
  22.7449626   63.3576319
  22.7454177   63.3578518
  22.7449395   63.3580477
  22.7458076   63.3584421
  22.7460143   63.3586344
  22.7461519   63.3587624
  22.75063     63.3576023
  22.7453718   63.3542633
  22.7459558   63.3539451
  22.7468811   63.3537069
  22.7569878   63.3558984
  22.7587778   63.3554238
  22.7606853   63.3554101
  22.7560043   63.3590526
  22.7626291   63.3585306
  22.7637627   63.3576354
  22.7655798   63.3575639
  22.7666345   63.3576698
  22.7730105   63.3559438
  22.774649    63.355314
  22.7794514   63.3490302
  22.78901     63.3497872
  22.7928308   63.350118
  22.7932778   63.3502047
  22.7934135   63.3501135
  22.7938331   63.3502552
  22.7866209   63.3533954
  22.7918577   63.3531976
  22.7915028   63.3536549
  22.7907698   63.3549335
  22.795092    63.3547296
  22.7958074   63.3542018
  22.7961179   63.3523686
  22.7941458   63.3524477
  22.7948395   63.3516267
  22.8081232   63.3512753
  22.8082454   63.3513848
  22.8090919   63.3512537
  22.8110445   63.3508465
  22.8117045   63.3497654
  22.8178281   63.3496458
  22.8178415   63.3490287
  22.8302637   63.3488484
  22.830124    63.3482708
  22.8295411   63.34697
  22.8296876   63.346415
  22.8294491   63.3464146
  22.8295222   63.3459367
  22.8540236   63.3460669
  22.8743212   63.3462537
  22.8730537   63.3467955
  22.8739687   63.3477592
  22.8739645   63.3481216
  22.8742545   63.348114
  22.8742764   63.3485242
  22.8732699   63.3490268
  22.8730605   63.3492235
  22.8731728   63.3495186
  22.8685404   63.3496695
  22.8685822   63.3499282
  22.8672466   63.3501114
  22.8645157   63.3502162
  22.8626512   63.3505369
  22.8614682   63.3508487
  22.8600772   63.3522274
  22.8597449   63.3527691
  22.8592895   63.3527962
  22.8589699   63.353498
  22.8594609   63.3536625
  22.8594375   63.3538295
  22.8613724   63.3536962
  22.861478    63.3537409
  22.8622464   63.3537444
  22.862882    63.353593
  22.8675291   63.3532784
  22.8680022   63.3525866
  22.8677101   63.3524434
  22.8681449   63.3522611
  22.8734987   63.3519599
  22.8741661   63.3528247
  22.874855    63.3527826
  22.8740852   63.3537027
  22.8740641   63.3539776
  22.8732818   63.3540298
  22.873375    63.3543406
  22.8740747   63.3542788
  22.8737562   63.3550498
  22.8737676   63.3552988
  22.8734869   63.3553244
  22.8727395   63.3559384
  22.8720924   63.3561854
  22.8716891   63.3565367
  22.871789    63.356637
  22.8697343   63.357824
  22.8697985   63.3582767
  22.8701154   63.3582451
  22.8701708   63.3595313
  22.8686749   63.3597123
  22.8685788   63.3607846
  22.8678191   63.3608441
  22.8672734   63.3610515
  22.8655366   63.3608529
  22.8647256   63.360946
  22.8648241   63.3613353
  22.865795    63.3621039
  22.8670198   63.3622132
  22.8672796   63.3624144
  22.8681099   63.3635085
  22.8744894   63.362484
  22.8758337   63.3613454
  22.8767764   63.3611979
  22.8791369   63.3617409
  22.8830117   63.3611271
  22.8824638   63.3601601
  22.8971985   63.3579411
  22.897807    63.3584339
  22.8983331   63.3587331
  22.8984343   63.3586478
  22.8987582   63.3585911
  22.8985346   63.3583083
  22.898324    63.3577602
  22.8977092   63.3570254
  22.8976115   63.3566029
  22.8977704   63.3561564
  22.8818439   63.3581141
  22.8819705   63.3575301
  22.8815821   63.356696
  22.8811938   63.3564016
  22.8809357   63.3560394
  22.8806272   63.3558053
  22.8789838   63.3549531
  22.8788222   63.3547922
  22.8785516   63.3541494
  22.8787865   63.354119
  22.8787497   63.3540397
  22.8791426   63.354006
  22.8792382   63.3535501
  22.8846098   63.3530983
  22.8847904   63.3530831
  22.8874983   63.3529044
  22.9062422   63.3513201
  22.90624     63.3511129
  22.9806989   63.3303974
  22.9775413   63.3445789
  22.9762095   63.3510813
  22.9715997   63.3722656
  22.9795454   63.3717539
  22.9983241   63.370537
  22.9951583   63.3780477
  23.0235543   63.3804339
  23.0283871   63.3689555
  23.0304119   63.364145
  23.0308534   63.3628396
  23.0314128   63.3617644
  23.0293609   63.3596198
  23.0329632   63.3592479
  23.0325181   63.3600193
  23.0333579   63.3602484
  23.0343193   63.3611992
  23.0352006   63.3616
  23.0380879   63.3592429
  23.0388524   63.3590306
  23.0389422   63.3592065
  23.0382915   63.3598073
  23.0382418   63.3600655
  23.0383647   63.360489
  23.0385931   63.3607655
  23.0387355   63.3611439
  23.0389849   63.3611289
  23.0395619   63.3611902
  23.0390719   63.3615544
  23.0405625   63.3620778
  23.058155    63.3642068
  23.0606315   63.3644812
  23.0615524   63.3645833
  23.0603188   63.3669506
  23.0771994   63.3692025
  23.080663    63.3678841
  23.08194     63.3684651
  23.0844824   63.366185
  23.0837913   63.3659358
  23.080865    63.3655059
  23.0814007   63.3651059
  23.0818884   63.3642121
  23.0828611   63.3634557
  23.0830327   63.3629665
  23.084375    63.3619551
  23.0869337   63.3604848
  23.0872003   63.3587485
  23.0876631   63.3585479
  23.0901875   63.35805
  23.0913353   63.3577463
  23.0913992   63.3581768
  23.0910961   63.3586304
  23.090206    63.3590843
  23.0889795   63.3611809
  23.094527    63.3623416
  23.1110839   63.3532139
  23.1061491   63.3513999
  23.1129656   63.3473025
  23.1279901   63.3556425
  23.1243614   63.3574909
  23.126504    63.3583481
  23.1297612   63.356642
  23.1485713   63.3671365
  23.1444383   63.3681454
  23.1454415   63.3685016
  23.1493871   63.3675973
  23.1759641   63.382389
  23.1747713   63.3830868
  23.1757442   63.3834321
  23.1767915   63.3828466
  23.1870817   63.3885198
  23.18829     63.3890426
  23.1890516   63.3895497
  23.189839    63.3899689
  23.1935929   63.3919067
  23.196655    63.3934873
  23.2070396   63.3989614
  23.2113524   63.4042101
  23.2198063   63.4146524
  23.2184841   63.4149173
  23.219714    63.4165352
  23.2211544   63.4163042
  23.222607    63.418112
  23.219432    63.4200427
  23.2250436   63.4211221
  23.2310379   63.4284908
  23.2280411   63.4341827
  23.2217085   63.4383287
  23.2270401   63.4415403
  23.2327904   63.438271
  23.2322378   63.4372996
  23.2307734   63.4350883
  23.2335695   63.4316032
  23.2380579   63.4372064
  23.2371706   63.4373496
  23.2368723   63.4376661
  23.2367655   63.4377794
  23.2373649   63.4379243
  23.2384818   63.4377419
  23.2423042   63.4424581
  23.2373387   63.4472245
  23.2437908   63.4515173
  23.2445918   63.4515666
  23.248995    63.4507221
  23.2647466   63.469966
  23.2646372   63.4700556
  23.2781629   63.4730194
  23.2838897   63.4742346
  23.2915477   63.4760147
  23.2971877   63.4772697
  23.2984346   63.4774768
  23.2986355   63.4783758
  23.2987385   63.4785037
  23.3002487   63.4788646
  23.3003301   63.4788893
  23.3004688   63.4789313
  23.3010171   63.4794813
  23.301748    63.4798648
  23.3030166   63.479975
  23.3026242   63.4795728
  23.3024085   63.4791719
  23.3027658   63.4790132
  23.3036196   63.4793305
  23.3042603   63.4795082
  23.3052346   63.4796919
  23.30659     63.4794176
  23.3075061   63.4794147
  23.3078091   63.4795242
  23.3078793   63.479659
  23.3082724   63.4796042
  23.3220139   63.482591
  23.3295229   63.4792227
  23.3336275   63.4797825
  23.3338634   63.4807853
  23.331694    63.4809671
  23.3314353   63.4800413
  23.3302149   63.4797128
  23.3242176   63.4830707
  23.3436972   63.4873333
  23.348814    63.4884529
  23.3552726   63.4898618
  23.3807184   63.4954075
  23.3809478   63.4964025
  23.3852871   63.49662
  23.3861299   63.4965735
  23.3928886   63.4980467
  23.3940765   63.4973205
  23.4196574   63.4816528
  23.4277103   63.4850197
  23.4291694   63.4848699
  23.433884    63.4828146
  23.4342792   63.4824124
  23.4350313   63.4821292
  23.4357934   63.4816433
  23.4370908   63.4810769
  23.4376879   63.4803032
  23.438981    63.4797449
  23.4484239   63.4795224
  23.4538828   63.4777697
  23.4537857   63.4773925
  23.4546434   63.4769786
  23.4568946   63.4764866
  23.4562071   63.4759701
  23.4594646   63.4748535
  23.4650053   63.4751327
  23.4660495   63.4750713
  23.4663187   63.4754787
  23.4666349   63.4755256
  23.4716042   63.4785665
  23.4916077   63.4735048
  23.5113347   63.4685945
  23.5123112   63.4680228
  23.5135559   63.4686613
  23.5155075   63.4672388
  23.5162742   63.4674396
  23.5174382   63.4662548
  23.5158759   63.4659019
  23.5207159   63.4630524
  23.5309049   63.4696594
  23.5357064   63.4675776
  23.5439622   63.4675342
  23.5456928   63.463513
  23.5457862   63.4634429
  23.5600188   63.4527566
  23.5647286   63.4492178
  23.5643874   63.4484369
  23.564249    63.4477335
  23.5638743   63.4472801
  23.5618689   63.4467076
  23.563166    63.445163
  23.5635097   63.443686
  23.5550064   63.4428073
  23.5757446   63.4306401
  23.5761255   63.4310186
  23.576815    63.4311769
  23.5771718   63.431293
  23.5773427   63.4314127
  23.577744    63.4315284
  23.5781354   63.4316031
  23.5783147   63.4315789
  23.579454    63.4322301
  23.5834614   63.4302798
  23.5986827   63.422871
  23.5980564   63.4222988
  23.5947849   63.4193094
  23.5979033   63.4173955
  23.6036968   63.4139872
  23.6077995   63.4114605
  23.6151368   63.4071855
  23.620852    63.4036724
  23.6217963   63.4031282
  23.6223045   63.4029126
  23.6233174   63.402247
  23.6253914   63.4010321
  23.6706414   63.3879132
  23.6799619   63.3852724
  23.680854    63.385895
  23.6865046   63.3844347
  23.6866397   63.3833284
  23.6969889   63.3803207
  23.7099299   63.3828769
  23.7064017   63.3865569
  23.6857149   63.4081
  23.6758814   63.4183745
  23.6714675   63.4229162
  23.6668855   63.4276878
  23.6600283   63.4348273
  23.6651548   63.43602
  23.6642913   63.4382553
  23.6639704   63.4394827
  23.6626832   63.4427776
  23.6601518   63.4497458
  23.667651    63.4513908
  23.6608621   63.4613499
  23.6574124   63.4612519
  23.6575082   63.4675219
  23.6577292   63.4804217
  23.657755    63.4829701
  23.6578351   63.4876349
  23.65103     63.5309349
  23.6415455   63.5338722
  23.6312469   63.5370967
  23.6295174   63.5376536
  23.6207843   63.5403395
  23.6111325   63.5433294
  23.6077557   63.5443812
  23.5932604   63.5488955
  23.5801387   63.5529637
  23.5786215   63.553411
  23.5787295   63.553411
  23.578849    63.5550406
  23.5842523   63.5575702
  23.5872409   63.5583056
  23.587035    63.5589043
  23.5842406   63.5604856
  23.5824575   63.5615508
  23.5820562   63.5616927
  23.5806212   63.5625611
  23.5785371   63.5625173
  23.5748744   63.5630594
  23.5819668   63.5658882
  23.5818874   63.5660536
  23.5815819   63.5662953
  23.5815598   63.5664713
  23.5812797   63.5666148
  23.5809607   63.5666834
  23.5803604   63.567019
  23.5800332   63.5674228
  23.5789288   63.5682546
  23.5785956   63.5688303
  23.5785606   63.569282
  23.5779658   63.5696117
  23.5780007   63.569805
  23.5779739   63.5700051
  23.5780092   63.5701735
  23.5714111   63.569391
  23.5663696   63.5688394
  23.5627497   63.5684191
  23.5608013   63.5681436
  23.5559991   63.5675932
  23.555505    63.577442
  23.5588158   63.5773499
  23.5589571   63.5774161
  23.5592575   63.5774448
  23.5594256   63.5775588
  23.5594964   63.5776589
  23.5597594   63.577697
  23.5600921   63.5778195
  23.560356    63.577833
  23.560884    63.5778358
  23.5612552   63.5777489
  23.5618104   63.5777338
  23.5622176   63.5776157
  23.5625728   63.577558
  23.5627197   63.5774405
  23.5630329   63.5773975
  23.5633806   63.5773899
  23.5638817   63.5771416
  23.5640415   63.5769034
  23.5642792   63.5766811
  23.5644137   63.5762493
  23.5644856   63.5757036
  23.5646841   63.5753634
  23.5646101   63.5751979
  23.5641373   63.5750608
  23.5638588   63.5748733
  23.5636874   63.5746766
  23.563638    63.5745324
  23.5633168   63.574162
  23.5752961   63.5799507
  23.5755529   63.5800748
  23.5727896   63.5801397
  23.5739901   63.582255
  23.571671    63.5824729
  23.5726349   63.5844918
  23.5771298   63.5840792
  23.5795637   63.5852674
  23.5788322   63.5854294
  23.5786727   63.5859124
  23.5783806   63.5860682
  23.5778922   63.5863641
  23.5776884   63.5864388
  23.5770103   63.5868678
  23.5751734   63.5864817
  23.5706019   63.5884145
  23.5695263   63.5889223
  23.5677235   63.5933878
  23.5660474   63.5978432
  23.5636478   63.600456
  23.5565933   63.6041334
  23.5493858   63.5992388
  23.5483086   63.6003344
  23.5478593   63.6001284
  23.5449805   63.601042
  23.5407001   63.5982738
  23.538703    63.6001961
  23.5360111   63.598669
  23.5363947   63.5969618
  23.5330969   63.5963285
  23.5327681   63.5961436
  23.5269516   63.5928729
  23.5283631   63.5906515
  23.527611    63.5903738
  23.5075893   63.5945612
  23.5054685   63.5905214
  23.5031313   63.5904726
  23.4982451   63.5903707
  23.4972044   63.5905617
  23.4968935   63.5902233
  23.4960039   63.5905175
  23.4958548   63.5905668
  23.4941409   63.5890525
  23.4909645   63.5863753
  23.4860651   63.5884927
  23.4837076   63.5875264
  23.48221     63.5881723
  23.4794782   63.5893807
  23.4816827   63.5903931
  23.4728367   63.5942054
  23.4666215   63.5968954
  23.4571672   63.60099
  23.4484106   63.604791
  23.4453613   63.605313
  23.4417363   63.6076441
  23.4231364   63.6156833
  23.4224072   63.6160135
  23.4301488   63.6170907
  23.4336193   63.6175918
  23.4397152   63.616218
  23.4493778   63.6139605
  23.452969    63.6116086
  23.4536591   63.6110496
  23.4577162   63.6102334
  23.4600546   63.6125603
  23.4578444   63.6128435
  23.4572355   63.6130021
  23.4562993   63.6128619
  23.4540319   63.6148341
  23.4609035   63.6151014
  23.464468    63.6162649
  23.464797    63.6167548
  23.4643054   63.6170643
  23.4636274   63.6183711
  23.464588    63.6184883
  23.4654029   63.6176573
  23.4671588   63.6202722
  23.4605761   63.6243871
  23.4582346   63.6229124
  23.4531454   63.6240307
  23.4563304   63.62691
  23.4532301   63.6290629
  23.4849131   63.6399767
  23.4840318   63.6427294
  23.4847295   63.6428719
  23.4829132   63.6445402
  23.483217    63.6454752
  23.4840502   63.6460461
  23.4815141   63.6478805
  23.4806278   63.6495755
  23.479671    63.6529036
  23.4793546   63.6532982
  23.478674    63.6546057
  23.4782903   63.6551596
  23.4793264   63.6551672
  23.4794733   63.6552541
  23.4794707   63.6553394
  23.4792499   63.6554882
  23.4788782   63.6556133
  23.4788454   63.655815
  23.4784008   63.6558989
  23.4783062   63.6560721
  23.4779103   63.6562383
  23.4777029   63.6564607
  23.4774113   63.6566062
  23.4773775   63.6568351
  23.4772599   63.6569267
  23.4766937   63.6569503
  23.4757515   63.6572441
  23.4754857   63.6574202
  23.4750741   63.657422
  23.4736713   63.6575871
  23.4730875   63.6577254
  23.4734364   63.6595119
  23.4676792   63.6607545
  23.4679498   63.6615055
  23.4680567   63.6615296
  23.4687332   63.6616157
  23.4689036   63.6615974
  23.4708616   63.6610831
  23.4733948   63.6606062
  23.4747512   63.6603994
  23.4805528   63.6591276
  23.4817049   63.6589593
  23.4847782   63.6586758
  23.486315    63.6584338
  23.4879547   63.6580651
  23.4907684   63.657324
  23.4917532   63.6571285
  23.4923074   63.6570644
  23.4934028   63.6569377
  23.4946287   63.6567959
  23.4954959   63.6567971
  23.4975879   63.656622
  23.4984386   63.6565114
  23.4994446   63.6562286
  23.5003551   63.6557739
  23.5013784   63.6549452
  23.501551    63.654695
  23.5016825   63.6542165
  23.501866    63.6523725
  23.5028862   63.6505018
  23.5031735   63.6498147
  23.5032176   63.6490058
  23.5031181   63.6488398
  23.5029723   63.6487676
  23.5025632   63.6487053
  23.5015845   63.648664
  23.5007298   63.6488049
  23.4999569   63.6490367
  23.4995682   63.6491739
  23.4986249   63.6496683
  23.4983223   63.6497616
  23.4982462   63.6498546
  23.4980044   63.6498931
  23.4975882   63.6502421
  23.4969297   63.6506248
  23.4968118   63.6507168
  23.4964396   63.651007
  23.4950732   63.6516686
  23.4948744   63.65174
  23.4936645   63.6521747
  23.4922112   63.6526968
  23.4907046   63.6530569
  23.48992     63.6530269
  23.4890684   63.6528297
  23.4882344   63.6524343
  23.487182    63.6516591
  23.485371    63.6510541
  23.4838459   63.6506059
  23.4834409   63.6504541
  23.4829934   63.6501876
  23.4825002   63.6494554
  23.4825288   63.6491009
  23.4829318   63.6484131
  23.4836436   63.6478764
  23.484213    63.6475908
  23.4859578   63.6469634
  23.4863463   63.6467567
  23.4865938   63.646521
  23.4867079   63.6460882
  23.4866279   63.645619
  23.4849478   63.6447194
  23.4844442   63.6441777
  23.4843598   63.6438486
  23.4844908   63.6434637
  23.4849605   63.6430194
  23.4857639   63.6419773
  23.486183    63.6409464
  23.4863851   63.6407201
  23.4866988   63.6405866
  23.4869968   63.6406883
  23.4870828   63.6407177
  23.4865604   63.6418519
  23.4853925   63.643384
  23.4852087   63.6440821
  23.4856629   63.6446015
  23.4872554   63.6455757
  23.4872672   63.6464564
  23.486802    63.6469167
  23.4847198   63.6477206
  23.483599    63.6483791
  23.483156    63.6489479
  23.483049    63.6492631
  23.4830756   63.649535
  23.4833349   63.6499395
  23.483631    63.6501411
  23.4874482   63.6514485
  23.4883081   63.6520457
  23.4894283   63.6526093
  23.4900892   63.6527993
  23.490556    63.6527739
  23.4916998   63.6525568
  23.4932065   63.6520679
  23.494567    63.6515777
  23.4952264   63.6512813
  23.4966796   63.6504767
  23.4984654   63.6493665
  23.499865    63.6487664
  23.5011539   63.6484524
  23.5025633   63.6483547
  23.5034216   63.648355
  23.503832    63.6483049
  23.5165804   63.6419856
  23.5188753   63.640403
  23.5246007   63.6367082
  23.5321178   63.6340654
  23.5427314   63.6334923
  23.5476682   63.6352124
  23.5475964   63.6350514
  23.5466593   63.6344157
  23.5467237   63.634289
  23.54646     63.633977
  23.5464881   63.6337255
  23.5495179   63.6347178
  23.5538761   63.6360349
  23.5555597   63.635588
  23.5558281   63.6364797
  23.5550322   63.637316
  23.5516716   63.6426424
  23.5513978   63.6435904
  23.5510822   63.6437275
  23.5497816   63.6440294
  23.5477395   63.6442744
  23.5475956   63.6443877
  23.5482852   63.6446172
  23.5487228   63.6450988
  23.5492063   63.6452036
  23.5498111   63.645148
  23.55011     63.6449432
  23.5517141   63.6444623
  23.5522641   63.644092
  23.5528604   63.6438674
  23.5529376   63.6437591
  23.5528952   63.6435764
  23.5535022   63.6435219
  23.5549664   63.6403588
  23.556341    63.6400715
  23.5573978   63.6397114
  23.5578887   63.639249
  23.5581407   63.6376163
  23.5588903   63.6374296
  23.5611293   63.6381018
  23.5614407   63.6375376
  23.5631      63.6377472
  23.5636678   63.6381984
  23.5608536   63.6391012
  23.5721465   63.6424288
  23.5739731   63.6429749
  23.5995824   63.6480752
  23.610713    63.6502919
  23.6359037   63.6634837
  23.6414191   63.6660386
  23.6421151   63.6657793
  23.6498714   63.6710868
  23.7048522   63.656542
  23.7404736   63.6736991
  23.7440812   63.675437
  23.6863432   63.6992614
  23.6830443   63.7004428
  23.6778509   63.7021062
  23.6225572   63.7202444
  23.6186818   63.7214776
  23.6011892   63.7282848
  23.5978326   63.7296158
  23.5803573   63.7390822
  23.5663233   63.7442276
  23.5494606   63.7505049
  23.5310226   63.7577358
  23.5209563   63.7618159
  23.4875072   63.7755609
  23.4842819   63.7768226
  23.4776343   63.7791327
  23.4553326   63.7614142
  23.455681    63.7586874
  23.4587797   63.7565452
  23.4560374   63.7559634
  23.4577303   63.7428025
  23.4563685   63.7435363
  23.4557583   63.743319
  23.4578088   63.7422302
  23.4578607   63.7417902
  23.4578612   63.7416012
  23.452938    63.7399277
  23.4481867   63.7375879
  23.4443406   63.7372217
  23.4393555   63.7407134
  23.430054    63.7361313
  23.4270649   63.7379684
  23.4382079   63.7415002
  23.4211533   63.7532591
  23.404825    63.7503614
  23.3918587   63.7593007
  23.3803092   63.758724
  23.3770058   63.760591
  23.374465    63.7600274
  23.3689128   63.7623832
  23.3636073   63.7612143
  23.364912    63.7589728
  23.3725424   63.7596432
  23.3732147   63.7581076
  23.3610319   63.7570442
  23.3515691   63.7581902
  23.347424    63.7587066
  23.3377902   63.7599148
  23.3369702   63.759962
  23.3366316   63.75996
  23.336934    63.7612532
  23.3363559   63.7612772
  23.3276583   63.7598293
  23.3263061   63.762238
  23.3234635   63.7622086
  23.3182966   63.7582298
  23.3029415   63.7556068
  23.3036279   63.7549668
  23.3034099   63.7544374
  23.301508    63.7539249
  23.3000254   63.7545654
  23.2981076   63.7545637
  23.2978912   63.7545635
  23.297486    63.7545631
  23.2916184   63.753611
  23.292656    63.7527121
  23.2943623   63.7513183
  23.2944003   63.751287
  23.2944154   63.7512749
  23.2944401   63.7512548
  23.2934966   63.7509577
  23.2917805   63.7508628
  23.2854039   63.7507133
  23.281916    63.7491027
  23.2832849   63.7469533
  23.2838188   63.7461149
  23.2829334   63.7456088
  23.2808502   63.744418
  23.2807441   63.744413
  23.2799795   63.7443774
  23.2784071   63.744304
  23.2783094   63.7442994
  23.2751541   63.7459585
  23.265585    63.7414783
  23.2650192   63.7369127
  23.262993    63.7329263
  23.2633192   63.7324516
  23.2620871   63.7318765
  23.2609481   63.7300684
  23.2599698   63.7302428
  23.2499258   63.7214457
  23.2489941   63.7218571
  23.2456453   63.7204769
  23.2457093   63.7203552
  23.2472888   63.7198539
  23.2482998   63.7185135
  23.2483967   63.7169216
  23.2418164   63.7167849
  23.2390097   63.7160461
  23.2375794   63.7155926
  23.2409871   63.7154196
  23.2399769   63.7135805
  23.2357725   63.7140212
  23.2371617   63.7154002
  23.2344155   63.7166056
  23.2355873   63.7170999
  23.2300789   63.718655
  23.2241087   63.7187647
  23.2149029   63.7230363
  23.2134817   63.7221099
  23.2057394   63.7267836
  23.2025981   63.7280179
  23.2014433   63.7284716
  23.1998956   63.7293018
  23.1950298   63.7284323
  23.1904478   63.7328671
  23.1861576   63.7325963
  23.1738716   63.7383362
  23.1690938   63.7399603
  23.1704915   63.7418075
  23.1760941   63.7406828
  23.1806678   63.7380314
  23.189095    63.7387451
  23.1864084   63.7404906
  23.1858197   63.7412367
  23.1831309   63.7446444
  23.1809891   63.7443665
  23.1811283   63.74407
  23.1740052   63.742552
  23.1698911   63.743114
  23.1663052   63.7409284
  23.1580335   63.743724
  23.1247546   63.7550685
  23.1204608   63.7566477
  23.0901486   63.7677937
  23.0902782   63.7678618
  23.0860348   63.7694552
  23.0744151   63.7737264
  23.0737483   63.7738614
  23.0614549   63.7783881
  23.0573415   63.7796767
  23.0551711   63.7803466
  23.0551318   63.7803591
  23.0537882   63.7807873
  23.0468756   63.7829514
  23.0388619   63.785461
  23.0386679   63.7855208
  23.0382596   63.7856486
  23.0297604   63.788309
  23.0112948   63.7917103
  23.0050585   63.7906418
  23.004692    63.790579
  23.0037979   63.7904328
  22.9886188   63.7879503
  22.9868472   63.7856538
  22.9868364   63.7855021
  22.9904403   63.7847755
  22.9894197   63.783592
  22.9829933   63.7825089
  22.9662527   63.7796941
  22.9629223   63.7835746
  22.9539766   63.7820473
  22.950529    63.7814587
  22.9487589   63.7811565
  22.94134     63.7798898
  22.9386011   63.7794221
  22.9335299   63.7785562
  22.9320134   63.7782973
  22.9315232   63.7771049
  22.9305584   63.7767201
  22.9311655   63.7760553
  22.9313636   63.7754817
  22.9321806   63.7755397
  22.9333103   63.7753148
  22.9336162   63.7749475
  22.9313686   63.7743836
  22.9313562   63.7738678
  22.9328221   63.7734792
  22.9345762   63.7723999
  22.9358959   63.7711621
  22.9304537   63.7673296
  22.9272504   63.7687861
  22.9268986   63.7703096
  22.9260844   63.7714088
  22.9279685   63.7727811
  22.9236987   63.7739515
  22.9221674   63.7747637
  22.9215378   63.7751098
  22.9255051   63.7765688
  22.9271901   63.7771479
  22.9273403   63.77721
  22.9241045   63.778955
  22.9239618   63.7789258
  22.9206133   63.7782766
  22.9204137   63.7783008
  22.9203279   63.778225
  22.9201198   63.7781913
  22.9198408   63.7782766
  22.9195554   63.7785094
  22.9192615   63.778618
  22.9190254   63.7787412
  22.9121375   63.7794238
  22.886796    63.7819455
  22.8867037   63.7817706
  22.8865964   63.7816569
  22.8863454   63.781519
  22.8864312   63.7812914
  22.8862531   63.7812682
  22.8862166   63.7811872
  22.8860664   63.7811682
  22.8859377   63.7812535
  22.8856373   63.7813104
  22.885309    63.7814199
  22.8851223   63.7815284
  22.8848798   63.7815336
  22.8849013   63.7814009
  22.884543    63.7811777
  22.8843284   63.7811587
  22.884264    63.7812156
  22.8840065   63.7813294
  22.8835344   63.7814052
  22.8833842   63.781519
  22.8834057   63.7816517
  22.8833413   63.7818697
  22.8831053   63.7818697
  22.8830409   63.7819929
  22.8832984   63.7820024
  22.8833199   63.7820972
  22.8830195   63.7823247
  22.8598881   63.7847135
  22.8639007   63.7907888
  22.8719688   63.8024996
  22.8778052   63.8043373
  22.8788073   63.807525
  22.8804875   63.8085143
  22.883778    63.8106181
  22.8840419   63.8107185
  22.8867992   63.8125481
  22.8816247   63.8180687
  22.8808308   63.8184474
  22.8810453   63.8185137
  22.8811312   63.8186084
  22.8809102   63.8188218
  22.8806162   63.8186178
  22.8798426   63.8193326
  22.8802697   63.8194741
  22.8712562   63.828733
  22.8708959   63.8291436
  22.8707156   63.8293708
  22.8708491   63.8294017
  22.8709726   63.829438
  22.8711164   63.8294612
  22.8712457   63.8294604
  22.8713695   63.8294268
  22.8714453   63.8293797
  22.8715454   63.8293991
  22.8716487   63.8294482
  22.8717556   63.8294994
  22.8717982   63.8295186
  22.8718205   63.829558
  22.8717985   63.8295806
  22.8716831   63.8296304
  22.8716213   63.829653
  22.8717163   63.8296941
  22.8715935   63.829753
  22.8714946   63.8297322
  22.8714334   63.8298063
  22.8714355   63.8298588
  22.8714682   63.8299259
  22.8714287   63.8300105
  22.8714969   63.8300706
  22.8715626   63.8300943
  22.8715691   63.8301467
  22.8715516   63.8301993
  22.8714472   63.8302116
  22.8713278   63.8302103
  22.8712717   63.8302184
  22.8711692   63.8302092
  22.8711124   63.8302338
  22.8711937   63.8302535
  22.8712975   63.8302714
  22.8713945   63.8303021
  22.8713085   63.8303577
  22.8711928   63.830421
  22.8711421   63.830477
  22.8711526   63.8305708
  22.8710687   63.8306318
  22.8710294   63.8306798
  22.8709937   63.8307295
  22.8709051   63.8307651
  22.8708657   63.8307948
  22.8709149   63.8308288
  22.8709669   63.8308595
  22.8709592   63.8308874
  22.8708982   63.8308878
  22.8709346   63.8312587
  22.871026    63.8312597
  22.8710302   63.8312931
  22.8709459   63.8312965
  22.8709495   63.8313843
  22.8706633   63.8314426
  22.8706923   63.8314692
  22.8708457   63.831451
  22.8709164   63.8314523
  22.8710019   63.8314705
  22.871038    63.8315226
  22.871037    63.8315834
  22.8709657   63.831637
  22.870869    63.8316716
  22.8707887   63.8316878
  22.8707759   63.8316916
  22.8707486   63.831728
  22.8707171   63.8317993
  22.8707351   63.8318825
  22.8707392   63.8319298
  22.8707773   63.831967
  22.8707979   63.8320286
  22.8707214   63.8320645
  22.870785    63.8320959
  22.8707438   63.8321744
  22.8706444   63.8322969
  22.870512    63.8323315
  22.8704082   63.8323761
  22.8702936   63.832419
  22.8702051   63.8324751
  22.8702001   63.8325203
  22.8702475   63.832604
  22.8704645   63.832654
  22.8706091   63.8326858
  22.8706411   63.8326943
  22.8707436   63.8327223
  22.8709012   63.8327595
  22.871047    63.8327703
  22.8711501   63.8327364
  22.8712356   63.83269
  22.8712933   63.8326582
  22.8713458   63.8326328
  22.8714007   63.8326264
  22.8714597   63.8326254
  22.8715065   63.8326387
  22.8715587   63.8326768
  22.8715864   63.8327186
  22.8715655   63.8327636
  22.8715628   63.8327695
  22.8715463   63.8328237
  22.871553    63.8328787
  22.8715385   63.8329307
  22.8715701   63.8329994
  22.8715982   63.8330504
  22.8716943   63.8330729
  22.8716736   63.8331093
  22.8716322   63.8331791
  22.8716341   63.8331906
  22.8716378   63.8332243
  22.8715969   63.8332767
  22.8715066   63.8333133
  22.8714041   63.8333079
  22.8713418   63.8333378
  22.871292    63.8333771
  22.8711863   63.8334222
  22.8712486   63.8334763
  22.8711783   63.8335331
  22.8711443   63.8335963
  22.871143    63.833662
  22.8712278   63.8337361
  22.8712848   63.8338073
  22.8712915   63.8338827
  22.8712515   63.8339652
  22.8711825   63.8340232
  22.8712049   63.8340583
  22.8712557   63.834053
  22.8707886   63.8343578
  22.8704959   63.8345778
  22.8671622   63.8370827
  22.8660019   63.8382131
  22.8650731   63.8391179
  22.8647238   63.8394582
  22.8617334   63.8423711
  22.8483009   63.8554315
  22.8472146   63.8565275
  22.8464469   63.8573021
  22.8431586   63.8606195
  22.8418103   63.8619811
  22.84113     63.8626681
  22.838848    63.8649724
  22.8389241   63.8649583
  22.8390364   63.8649068
  22.8391242   63.8648445
  22.8393552   63.8647553
  22.8394186   63.8647367
  22.8394747   63.8647472
  22.8396102   63.8648106
  22.8397609   63.8648303
  22.839826    63.8648743
  22.8399116   63.864899
  22.840003    63.864951
  22.8400568   63.8650037
  22.8400122   63.8651057
  22.8399966   63.8651895
  22.8401008   63.8652074
  22.8401296   63.8651805
  22.8402155   63.8650658
  22.8403198   63.8650695
  22.8403473   63.8650956
  22.840244    63.8652202
  22.8403678   63.8652573
  22.8404918   63.8652727
  22.8405742   63.8653194
  22.8406893   63.8653458
  22.8407545   63.8653869
  22.8407797   63.8654381
  22.8406409   63.8656267
  22.8405791   63.8657622
  22.84052     63.8658697
  22.8403827   63.8660513
  22.8402941   63.8661456
  22.8401863   63.8662136
  22.8401161   63.8662336
  22.8400448   63.8663018
  22.8400015   63.8663428
  22.8399604   63.8663596
  22.839884    63.8663787
  22.8397871   63.8663967
  22.8396512   63.8663989
  22.8395347   63.8664187
  22.8393688   63.8664252
  22.8392818   63.8664568
  22.8392044   63.8664987
  22.839189    63.8665382
  22.8391903   63.8665721
  22.8391246   63.8665923
  22.8389456   63.8666141
  22.8387209   63.8666747
  22.8385867   63.8667831
  22.8384364   63.8668752
  22.838395    63.8669996
  22.8382112   63.8670691
  22.8380206   63.8671583
  22.8378995   63.867271
  22.8378319   63.8673888
  22.8377357   63.8676575
  22.8376396   63.8677838
  22.8375257   63.8678733
  22.8374      63.8679488
  22.8374475   63.8680336
  22.8374179   63.8681515
  22.8373645   63.8681658
  22.837254    63.868209
  22.8371577   63.868298
  22.8370966   63.8683191
  22.8369058   63.8684389
  22.8368404   63.8686123
  22.8366956   63.8687649
  22.8364244   63.8689329
  22.8361558   63.8690354
  22.8358614   63.8691374
  22.8356281   63.8691948
  22.8353545   63.8692204
  22.8352127   63.869226
  22.8350753   63.8692121
  22.8347697   63.8691829
  22.8346361   63.8691848
  22.8330135   63.8709048
  22.8327012   63.8712359
  22.8325178   63.8722702
  22.8320376   63.8756009
  22.8317164   63.8778937
  22.8300405   63.8781995
  22.8256202   63.8786719
  22.8255699   63.8787252
  22.8193534   63.8853116
  22.8191855   63.8853126
  22.819051    63.8852847
  22.8190083   63.8852378
  22.8190274   63.8851381
  22.8190726   63.8850404
  22.8191056   63.8849805
  22.8189723   63.8849626
  22.8189308   63.8849581
  22.8186507   63.8849277
  22.8184651   63.8848837
  22.8180811   63.8848751
  22.8179055   63.884864
  22.8178933   63.8848397
  22.8179897   63.8847634
  22.8180097   63.8847351
  22.8179609   63.884638
  22.8178375   63.8845749
  22.8176535   63.8845132
  22.817524    63.8844971
  22.8174316   63.8845041
  22.8173957   63.8845486
  22.8173895   63.8845979
  22.8173522   63.8847004
  22.8173969   63.8848076
  22.8173847   63.8848573
  22.8172877   63.8848754
  22.81724     63.8849028
  22.8172591   63.8849205
  22.8173944   63.884932
  22.8175588   63.8849613
  22.8176499   63.8849972
  22.8176639   63.8850515
  22.8176216   63.8851053
  22.8175504   63.8851412
  22.8173968   63.8851661
  22.8172077   63.8851487
  22.8170538   63.8851309
  22.8168521   63.8851217
  22.8167012   63.8851485
  22.8164921   63.8851871
  22.8163444   63.8852781
  22.8162879   63.8853352
  22.816089    63.8854236
  22.8160581   63.8854748
  22.8160519   63.8855282
  22.8159084   63.8855495
  22.8157842   63.8855642
  22.815719    63.8856119
  22.8157272   63.88565
  22.8156604   63.8856693
  22.8155575   63.88564
  22.8154933   63.8856205
  22.8153644   63.8856131
  22.8152994   63.8856564
  22.815294    63.8857017
  22.8153014   63.8857559
  22.815327    63.8858
  22.8153246   63.8858686
  22.8152308   63.8859206
  22.8152743   63.885981
  22.8152497   63.8860115
  22.8150932   63.8860277
  22.81498     63.8860398
  22.8149289   63.8860052
  22.81475     63.8859659
  22.8144642   63.8859258
  22.8142464   63.8859244
  22.814027    63.8859361
  22.813904    63.8859452
  22.813839    63.8859885
  22.8138073   63.8860238
  22.8136914   63.8860267
  22.8135459   63.8860195
  22.8133468   63.8860245
  22.8132779   63.8860203
  22.8131302   63.8859939
  22.8130047   63.8859924
  22.8129026   63.8860248
  22.8128548   63.8860715
  22.8130248   63.8860809
  22.8131221   63.8861032
  22.8131303   63.8861573
  22.8130117   63.8861756
  22.8129103   63.8862186
  22.8128421   63.886259
  22.8127567   63.8863245
  22.812687    63.8863788
  22.8128531   63.8864161
  22.8130084   63.8864318
  22.8131942   63.886482
  22.8132398   63.8865401
  22.8131582   63.886607
  22.8130122   63.8865898
  22.8128803   63.8865768
  22.8127343   63.8865799
  22.8126969   63.8866001
  22.8126336   63.8866068
  22.8125879   63.8865918
  22.8125999   63.886548
  22.8125628   63.8865083
  22.8125319   63.8864407
  22.8125009   63.8863782
  22.8123265   63.8863738
  22.812227    63.8864119
  22.8122323   63.8864686
  22.8121192   63.8864856
  22.8119489   63.8865084
  22.8118428   63.8865518
  22.8116977   63.8866163
  22.8115646   63.8866682
  22.8116089   63.8867238
  22.8115028   63.8867473
  22.8114053   63.8867701
  22.8114025   63.8868089
  22.8114021   63.8868216
  22.8114339   63.8868206
  22.8116144   63.8867728
  22.8117165   63.8868019
  22.8118107   63.8868542
  22.8118577   63.8868997
  22.8118584   63.8869353
  22.81192     63.8869852
  22.8120118   63.8870065
  22.81213     63.8870295
  22.8122912   63.8870559
  22.8124028   63.8870788
  22.8125078   63.8871017
  22.812583    63.8871229
  22.812612    63.8871422
  22.8125616   63.8871564
  22.8124948   63.8871675
  22.8124254   63.8871624
  22.8123736   63.8871371
  22.8122818   63.8871143
  22.8121964   63.8870989
  22.8121404   63.8870925
  22.8120679   63.8870816
  22.8120254   63.8870695
  22.8119177   63.8870349
  22.811833    63.8870034
  22.8117878   63.8869767
  22.8117289   63.88696
  22.8115286   63.8869598
  22.8113839   63.8869671
  22.8113202   63.8869647
  22.8112927   63.8869849
  22.8112981   63.8870113
  22.8113608   63.8870178
  22.811427    63.8870198
  22.8114122   63.8870533
  22.8113873   63.8870897
  22.8113704   63.8870954
  22.8112617   63.8870827
  22.8111431   63.887067
  22.8111377   63.8870406
  22.8111783   63.8870234
  22.8112123   63.8870047
  22.8112131   63.8869857
  22.811198    63.8869563
  22.8112192   63.8869272
  22.8112333   63.8869044
  22.8111395   63.8868625
  22.8108281   63.8868152
  22.8106528   63.8867786
  22.8104991   63.886773
  22.8102885   63.8867724
  22.8101307   63.8868163
  22.8101255   63.8868194
  22.8100747   63.8868623
  22.8100695   63.8869297
  22.8101207   63.8870763
  22.8101952   63.8871753
  22.8102001   63.8872428
  22.8101679   63.8873805
  22.810179    63.8874855
  22.8102524   63.8875235
  22.8103751   63.8875224
  22.8105027   63.8875049
  22.8107539   63.8875015
  22.8108668   63.8874901
  22.8110589   63.8874511
  22.81115     63.8874153
  22.8112957   63.8874181
  22.8114103   63.8874484
  22.8113894   63.8874815
  22.8113473   63.8875722
  22.8112304   63.8876166
  22.8112287   63.8876489
  22.8112798   63.8876918
  22.8113007   63.8877531
  22.8112007   63.8877525
  22.8111389   63.887759
  22.8110927   63.8877955
  22.8110805   63.8878216
  22.8111549   63.8878386
  22.8111549   63.8878824
  22.8111482   63.8879085
  22.8112417   63.8879174
  22.8112336   63.8879709
  22.8112142   63.8880322
  22.8112049   63.8880628
  22.8112423   63.8880668
  22.8112214   63.888087
  22.8110995   63.888075
  22.810974    63.8880651
  22.8108448   63.8880464
  22.8107412   63.8880387
  22.8106832   63.8880465
  22.8106856   63.8880586
  22.810714    63.8880734
  22.8108337   63.8880736
  22.8109164   63.8880924
  22.8109856   63.8881064
  22.8111208   63.8881169
  22.8111193   63.8881588
  22.8110646   63.8881985
  22.8110517   63.8882458
  22.8110345   63.8882753
  22.8109183   63.8882636
  22.8107896   63.8882522
  22.8107115   63.8882706
  22.8106287   63.8883285
  22.810557    63.8883986
  22.8105953   63.8885012
  22.8105214   63.8885955
  22.8105003   63.8886627
  22.8105137   63.8887249
  22.810503    63.8887409
  22.8104473   63.8887272
  22.8103863   63.8887052
  22.8103166   63.8886865
  22.8102704   63.8886765
  22.8102448   63.8887068
  22.8102919   63.88872
  22.8103666   63.8887324
  22.810426    63.8887578
  22.8104943   63.8887862
  22.8105347   63.8887952
  22.8104707   63.8888501
  22.8104268   63.8889115
  22.8102972   63.8888898
  22.8102315   63.888876
  22.8101785   63.8888729
  22.8101775   63.8889009
  22.8102285   63.8889292
  22.8103504   63.8889504
  22.8103493   63.8889822
  22.8103094   63.8890538
  22.8102575   63.8890922
  22.810158    63.8890909
  22.8101323   63.8891244
  22.8100294   63.8892198
  22.8100118   63.8892515
  22.809948    63.88927
  22.8099335   63.8892962
  22.8100091   63.8893086
  22.8100946   63.889324
  22.8100497   63.8893631
  22.8099992   63.8893802
  22.8099587   63.8893945
  22.8099869   63.8894298
  22.8099518   63.889472
  22.8099458   63.889529
  22.809843    63.8896012
  22.8097705   63.8896981
  22.8096713   63.8898001
  22.8096013   63.8898775
  22.8094767   63.889932
  22.8094274   63.8899826
  22.8094884   63.8900238
  22.8095567   63.8900522
  22.8096255   63.8900958
  22.8097587   63.890166
  22.8097781   63.8902079
  22.8098564   63.8902364
  22.8098777   63.8902761
  22.8098602   63.890295
  22.8097673   63.8902985
  22.8096544   63.8903019
  22.8096145   63.8903045
  22.8096328   63.8903383
  22.8096911   63.8903681
  22.8097755   63.8904054
  22.8097667   63.8904522
  22.8097353   63.8904855
  22.8097565   63.8905233
  22.809768    63.8906493
  22.8098112   63.8907361
  22.8099217   63.8908347
  22.8099331   63.8908431
  22.8099995   63.8908823
  22.8100939   63.8909046
  22.810187    63.8909656
  22.8102253   63.8910288
  22.8103175   63.8910332
  22.8103497   63.8910627
  22.8103866   63.8911202
  22.8104191   63.8911821
  22.8104581   63.8911823
  22.8105452   63.891167
  22.8105914   63.8911673
  22.8106018   63.8911992
  22.8106352   63.8911943
  22.8106645   63.8911812
  22.8107222   63.8911809
  22.8107552   63.8911875
  22.8108067   63.8911993
  22.8108544   63.8911977
  22.8109608   63.8911679
  22.8110631   63.8911298
  22.8111454   63.8911291
  22.8112296   63.891115
  22.8112981   63.8910512
  22.811364    63.8910231
  22.8116215   63.8910064
  22.8118428   63.8909783
  22.8119436   63.8909564
  22.8123027   63.8908361
  22.8125965   63.8907267
  22.8127386   63.8906635
  22.8127622   63.8906083
  22.8127643   63.8905466
  22.812759    63.8904487
  22.8127964   63.8903688
  22.8128844   63.8902454
  22.812901    63.8900141
  22.8129244   63.8898788
  22.813104    63.8895652
  22.8131949   63.889398
  22.8132838   63.8893306
  22.8133948   63.8892919
  22.8135018   63.889285
  22.8136889   63.8892563
  22.8138498   63.8891938
  22.8138704   63.8891393
  22.813892    63.8890587
  22.8138945   63.8889855
  22.8140546   63.8888595
  22.8141044   63.8887975
  22.8141077   63.8887027
  22.8141095   63.8886494
  22.81409     63.8885875
  22.8141358   63.88854
  22.8142388   63.8885336
  22.8143583   63.8885303
  22.8144364   63.8885617
  22.8145349   63.8885817
  22.8145833   63.8886347
  22.8146272   63.8886986
  22.814657    63.888714
  22.8147205   63.8887132
  22.8148367   63.8886924
  22.8149248   63.8886459
  22.8150199   63.8885664
  22.8151083   63.8885107
  22.8152294   63.8884709
  22.8153175   63.8884307
  22.8154376   63.8884142
  22.8155422   63.8884459
  22.8156451   63.888441
  22.8157746   63.8884363
  22.8158598   63.8884359
  22.8160483   63.8884594
  22.8162528   63.8885298
  22.8149064   63.8896999
  22.7974463   63.9050546
  22.7941986   63.9078807
  22.7940245   63.9080322
  22.7937365   63.9082829
  22.7934072   63.9085693
  22.792952    63.9089655
  22.7929291   63.9089854
  22.7927967   63.9091006
  22.7924967   63.9093616
  22.7924821   63.9093743
  22.7919454   63.9098414
  22.7901595   63.9113951
  22.7896044   63.9118781
  22.7876104   63.9136129
  22.7872515   63.9139252
  22.7834988   63.9171897
  22.7797222   63.9204727
  22.7791978   63.9209734
  22.7780171   63.9221005
  22.7779207   63.9221926
  22.7779093   63.9222034
  22.7774217   63.9226689
  22.7762027   63.9238327
  22.7756185   63.9243903
  22.7754736   63.9245287
  22.7707529   63.9284332
  22.7490957   63.9476101
  22.6269286   63.9642368
  22.5284035   63.9774402
  22.4498642   63.987901
  22.3648102   63.9991894
  22.287872    64.0093865
  22.2778973   64.002781
  22.2692395   63.9964854
  22.2549736   63.9857179
  22.2240089   63.9610826
  22.2185239   63.9565609
  22.2131144   63.951849
  22.2085246   63.9475463
  22.203216    63.9422118
  22.1981277   63.9366975
  22.1721251   63.9070269
  22.1461226   63.8773249
  22.12012     63.8475914
  22.0965521   63.8329791
  22.0612346   63.8110677
  22.0021179   63.7744577
  21.9787569   63.7599523
  21.9396332   63.7355536
  21.8849967   63.7014731
  21.8845783   63.7012119
  21.7722407   63.6867619
  21.6599031   63.6723045
  21.5994992   63.6702189
  21.4962196   63.6668783
  21.4939246   63.6662855
  21.4784325   63.6622836
  21.4629404   63.658281
  21.4474483   63.6542779
  21.4319562   63.6502742
  21.4164641   63.64627
  21.4009721   63.6422652
  21.38548     63.6382598
  21.3699879   63.6342539
  21.3673823   63.6335802
  21.3571417   63.6309317
  21.3544958   63.6302473
  21.3390037   63.6262403
  21.3235116   63.6222326
  21.3080195   63.6182244
  21.2925274   63.6142156
  21.2770353   63.6102063
  21.2615433   63.6061964
  21.2460512   63.6021859
  21.2305591   63.5981749
  21.215067    63.5941632
  21.1995749   63.5901511
  21.1840828   63.5861383
  21.1685907   63.582125
  21.1530986   63.5781111
  21.1376065   63.5740967
  21.1221145   63.5700817
  21.1066224   63.5660661
  21.0911303   63.5620499
  21.0756382   63.5580332
  21.0601461   63.5540159
  21.044654    63.5499981
  21.0291619   63.5459796
  21.0136699   63.5419606
  20.9981777   63.5379411
  20.9826857   63.533921
  20.9671936   63.5299002
  20.9517015   63.525879
  20.9362094   63.5218571
  20.9136182   63.5184543
  20.8966374   63.5158962
  20.8796565   63.5133379
  20.8626757   63.5107794
  20.8456949   63.5082207
  20.8287141   63.5056617
  20.8117332   63.5031025
  20.7947524   63.5005431
  20.7777716   63.4979834
  20.7607908   63.4954235
  20.7438099   63.4928634
  20.7268291   63.490303
  20.7098483   63.4877424
  20.6928675   63.4851816
  20.6797315   63.4784822
  20.6561044   63.4664284
  20.6442909   63.4603995
  20.6206638   63.448338
  20.5970367   63.4362714
  20.5852232   63.4302362
  20.5734096   63.4241997
  20.5497825   63.4121229
  20.5379689   63.4060826
  20.4843819   63.3786673
  20.4789012   63.3758619
  20.4552741   63.3637646
  20.431647    63.3516623
  20.4080199   63.3395549
  20.3962064   63.3334992
  20.3786627   63.3209344
  20.3596091   63.307282
  20.3500824   63.3004533
  20.3310288   63.2867911
  20.3119752   63.2731224
  20.3057175   63.2686318
  20.2929217   63.2594472
  20.2738681   63.2457655
  20.2578863   63.2342848
  20.235761    63.2183827
  20.2262342   63.2115329
  20.2071807   63.1978284
  20.1881271   63.1841175
  20.1786003   63.1772596
  20.1635668   63.1664345
END
END
