polygon
1
  20.7731388   61.1334796
  20.7817884   61.167101
  20.7921273   61.2072429
  20.8024663   61.2473337
  20.8121335   61.2848724
  20.8295563   61.3526486
  20.8334831   61.3673
  20.843822    61.4071868
  20.8541609   61.4470228
  20.8639693   61.4869703
  20.8747853   61.5303891
  20.8835862   61.5667118
  20.8933946   61.6065058
  20.903203    61.6462488
  20.893001    61.6842962
  20.8889533   61.6999218
  20.8725969   61.7602507
  20.8623949   61.7981577
  20.8521928   61.8360181
  20.8419908   61.8738318
  20.8291525   61.9216727
  21.282578    61.944603
  21.3293717   61.9541313
  21.3296435   61.9541866
  21.3367331   61.95563
  21.3371976   61.9557246
  21.3390934   61.9561106
  21.339389    61.9561708
  21.3507635   61.9581361
  21.355819    61.9591233
  21.3541194   61.9598438
  21.3549895   61.9602404
  21.3565221   61.9600054
  21.3580126   61.9600658
  21.3581701   61.9599803
  21.3574184   61.959609
  21.3575828   61.9594678
  21.3602433   61.9600078
  21.3603444   61.9600634
  21.3605239   61.960162
  21.3605207   61.960747
  21.3612735   61.9613608
  21.3624557   61.9616387
  21.363649    61.9625453
  21.3618771   61.9628901
  21.3623651   61.9645414
  21.3649398   61.964285
  21.3656465   61.9640345
  21.3709883   61.9687439
  21.427116    62.01009
  21.523933    62.02491
  21.5498653   62.0234183
  21.5774583   62.0222768
  21.6391921   62.0194322
  21.6479243   62.019573
  21.6735358   62.0199382
  21.6909658   62.0205838
  21.7025748   62.0209263
  21.715337    62.019554
  21.7269662   62.0183138
  21.7494405   62.0158622
  21.8079865   62.006483
  21.8020618   62.0046604
  21.8031695   62.004397
  21.8055655   62.0044193
  21.8087788   62.006356
  21.974675    61.9797632
  22.0954171   62.0267507
  22.106874    62.0311554
  22.1086228   62.0294999
  22.1148991   62.0290672
  22.1155214   62.029354
  22.114588    62.0301692
  22.1139121   62.0301943
  22.1096527   62.030144
  22.108891    62.0302749
  22.1085799   62.0304761
  22.1081936   62.0316737
  22.1218325   62.0437829
  22.1330286   62.0510622
  22.1353023   62.0525788
  22.1506518   62.0624224
  22.1522863   62.0637171
  22.1900117   62.09589
  22.1986928   62.1033422
  22.2493422   62.1032606
  22.2499376   62.1021231
  22.2500986   62.1020628
  22.2501093   62.1022134
  22.2509944   62.1023791
  22.2512573   62.102728
  22.2509408   62.1030016
  22.2507316   62.102989
  22.2505921   62.1026226
  22.2503507   62.1026175
  22.2501576   62.1029313
  22.2506135   62.1032544
  22.319412    62.102919
  22.3612296   62.133312
  22.3723887   62.1414515
  22.3732115   62.1420739
  22.373706    62.142448
  22.3781822   62.1457119
  22.3851606   62.1508133
  22.4031296   62.1639866
  22.4504059   62.1984792
  22.4679992   62.203279
  22.4705403   62.2039722
  22.4707425   62.2040273
  22.4711874   62.2041487
  22.4747627   62.205124
  22.4761372   62.2054989
  22.4765143   62.2056018
  22.4823587   62.207196
  22.4824952   62.2072332
  22.4851937   62.2079645
  22.4861881   62.2082191
  22.4868111   62.2084023
  22.4874342   62.2085712
  22.4898965   62.2092519
  22.4927674   62.2100409
  22.4941216   62.2104117
  22.4959791   62.2109202
  22.4971585   62.2112407
  22.5053579   62.2134686
  22.5097712   62.2127421
  22.5088893   62.2122462
  22.5087434   62.2124047
  22.5075724   62.2122859
  22.5054609   62.2122904
  22.5037432   62.2112133
  22.5000917   62.2105665
  22.5004361   62.2101384
  22.5002988   62.2095974
  22.4995418   62.2091852
  22.4993804   62.2080539
  22.4991068   62.207677
  22.4995762   62.2067165
  22.5003089   62.2063693
  22.5001105   62.2059393
  22.5003529   62.205802
  22.5005525   62.2048457
  22.4993986   62.2043556
  22.4979475   62.2044835
  22.4974433   62.2044119
  22.4975613   62.2038586
  22.4985376   62.2039866
  22.4989877   62.2030323
  22.5026232   62.2018783
  22.5027288   62.2015648
  22.5033098   62.2017044
  22.5030925   62.2021637
  22.4998219   62.2031614
  22.5002027   62.2037643
  22.5015556   62.2044855
  22.5020787   62.2060021
  22.5003733   62.2068485
  22.5005337   62.2079931
  22.5008508   62.2083648
  22.5005632   62.2088618
  22.5011909   62.2092732
  22.5011726   62.2101991
  22.5025813   62.2100993
  22.5071309   62.2119001
  22.5084827   62.211674
  22.5113232   62.212482
  22.5248243   62.2101851
  22.5283606   62.2145962
  22.5296582   62.2162866
  22.5238073   62.218531
  22.5350618   62.2216463
  22.5630565   62.2654045
  22.5645071   62.2679228
  22.58575     62.3016814
  22.5917691   62.3111269
  22.6342506   62.3008686
  22.6343348   62.3008485
  22.6405599   62.2993622
  22.655274    62.2957921
  22.6673235   62.292912
  22.6685976   62.2926074
  22.6737045   62.2913308
  22.6789772   62.290048
  22.6855814   62.2883759
  22.6919673   62.2867734
  22.7016312   62.2843482
  22.7087181   62.2825695
  22.719713    62.2798228
  22.7309456   62.2770074
  22.736789    62.2755201
  22.7396847   62.2748169
  22.7423846   62.2741188
  22.7457685   62.2732845
  22.7496588   62.2732001
  22.761423    62.2728839
  22.8312934   62.2708806
  22.8312993   62.2707888
  22.8309635   62.2707733
  22.8309646   62.2707211
  22.8312097   62.2705864
  22.8313932   62.2704541
  22.8314349   62.2703926
  22.8315016   62.2702941
  22.8314238   62.2701975
  22.8314715   62.2700447
  22.8297437   62.270045
  22.8288827   62.2682822
  22.8265449   62.2633792
  22.8271489   62.2633105
  22.8304551   62.2600894
  22.8321995   62.2584057
  22.8344504   62.2562549
  22.829866    62.2553357
  22.8305729   62.2538646
  22.8312055   62.252548
  22.8243615   62.2375493
  22.8263287   62.2366033
  22.8399484   62.239078
  22.8422755   62.2368437
  22.8412825   62.230108
  22.8405792   62.2253116
  22.8428838   62.2176735
  22.8442689   62.2144702
  22.8493871   62.2097588
  22.8442158   62.2086583
  22.8551222   62.1981978
  22.8477686   62.1968062
  22.8442088   62.1911898
  22.8418989   62.187741
  22.8415084   62.18686
  22.8528015   62.1806329
  22.8585136   62.1760436
  22.8616829   62.17255
  22.8589689   62.1716202
  22.8337729   62.162924
  22.8316292   62.1634195
  22.8312806   62.1621996
  22.8305617   62.1620012
  22.8231041   62.1612932
  22.8194456   62.1656733
  22.7783026   62.1554628
  22.7745475   62.1545959
  22.7708965   62.1543864
  22.7643734   62.1416529
  22.7650257   62.1376148
  22.7688741   62.1185426
  22.7719737   62.1027752
  22.7729107   62.0977787
  22.7761697   62.0813082
  22.7802403   62.0607136
  22.7455452   62.0567727
  22.7417806   62.056345
  22.7208261   62.0539648
  22.7188509   62.0525731
  22.7170431   62.0523232
  22.7164252   62.0534495
  22.6958891   62.050865
  22.6908474   62.0520511
  22.6837494   62.0536943
  22.6706688   62.0413058
  22.6686869   62.0417561
  22.6624076   62.0431825
  22.6704993   62.0509831
  22.6021673   62.0370909
  22.5922711   62.0308395
  22.587133    62.0275903
  22.571602    62.017749
  22.5640167   62.0106951
  22.5390238   61.9990971
  22.5390045   62.002038
  22.5374649   62.002309
  22.5306189   62.0006273
  22.52276     62.0018064
  22.5207526   62.0015102
  22.5226098   61.9980937
  22.5282339   61.997396
  22.5726535   61.9827269
  22.5829729   61.9846116
  22.6004531   61.9809971
  22.6048826   61.9770162
  22.5946813   61.9742411
  22.5986695   61.9655973
  22.6077022   61.9659359
  22.6105699   61.9713887
  22.6097495   61.9742849
  22.6148992   61.9777452
  22.6149036   61.9821381
  22.6082604   61.9842036
  22.6116631   61.9858028
  22.6257407   61.9810441
  22.6227696   61.981062
  22.6208423   61.9684791
  22.6547717   61.9654709
  22.656553    61.9548963
  22.6466814   61.9521188
  22.6509534   61.9472275
  22.652436    61.9474983
  22.6659982   61.930682
  22.683723    61.9216204
  22.710664    61.9180861
  22.7103239   61.9187272
  22.7191793   61.9207293
  22.72107     61.9189481
  22.7198757   61.9169154
  22.7307683   61.9155134
  22.7387295   61.9106411
  22.7377003   61.9051874
  22.7364277   61.904297
  22.7329904   61.9066374
  22.7317259   61.90698
  22.728043    61.9071188
  22.7248688   61.906342
  22.7259572   61.9055538
  22.7269851   61.9053131
  22.7281512   61.9043936
  22.7372504   61.9029374
  22.7348291   61.8897997
  22.7820446   61.8806635
  22.7882071   61.8706332
  22.7367196   61.8599947
  22.7473712   61.8485366
  22.7668719   61.8546191
  22.780367    61.8424546
  22.787627    61.8421625
  22.7925381   61.8340275
  22.8157866   61.8215947
  22.8165531   61.8213411
  22.8284056   61.8152271
  22.8235434   61.8000801
  22.8092542   61.7955537
  22.8086261   61.795272
  22.8108165   61.7952877
  22.8119349   61.7949991
  22.8120562   61.7947868
  22.8110415   61.7942829
  22.8115248   61.7940432
  22.8126958   61.7935583
  22.8139364   61.791164
  22.8147261   61.7907327
  22.8165187   61.7905036
  22.8022016   61.7678759
  22.7865038   61.7555661
  22.7767397   61.7524211
  22.7688519   61.7552814
  22.7647527   61.7563056
  22.7615853   61.7563482
  22.7590672   61.7568891
  22.7285403   61.7497542
  22.7334031   61.7427404
  22.7189929   61.7363936
  22.6992586   61.7394018
  22.7000928   61.7387503
  22.6998031   61.7381432
  22.6977593   61.7383845
  22.6959085   61.7381051
  22.6955464   61.7378194
  22.6945782   61.7375298
  22.6937064   61.7377581
  22.6941078   61.7375015
  22.6941519   61.7373911
  22.6939093   61.7369957
  22.6934682   61.7367853
  22.6933799   61.7366704
  22.6935154   61.7363988
  22.6931625   61.7361571
  22.692819    61.7361168
  22.6927938   61.736081
  22.6929608   61.7360109
  22.6931656   61.7357333
  22.6932066   61.7352663
  22.6929577   61.7351066
  22.6926709   61.7350186
  22.6926678   61.7349216
  22.6931184   61.7347261
  22.6936735   61.7346208
  22.692248    61.7337149
  22.6951393   61.7301195
  22.6843358   61.728353
  22.6794455   61.7257314
  22.6909742   61.702582
  22.6874649   61.6992748
  22.6872961   61.6990802
  22.6766141   61.6983045
  22.6671123   61.6977234
  22.6666075   61.6977001
  22.6656703   61.6976254
  22.64718     61.6965005
  22.653921    61.6820657
  22.6787981   61.671092
  22.6484293   61.6677314
  22.6550144   61.654073
  22.685443    61.6606465
  22.6894416   61.6749299
  22.6998353   61.6757648
  22.7033114   61.6707147
  22.7163337   61.6719499
  22.7166581   61.6708267
  22.7168727   61.6706027
  22.7160787   61.6703278
  22.7156281   61.6704092
  22.715671    61.6706842
  22.714684    61.6711118
  22.7140617   61.6710304
  22.7115726   61.6702972
  22.7118301   61.6699612
  22.7117872   61.6695844
  22.7122807   61.668892
  22.7126662   61.6687082
  22.7124738   61.6671914
  22.7127528   61.6665294
  22.712903    61.6659184
  22.7124953   61.6652666
  22.7130103   61.6649814
  22.7130532   61.6647268
  22.7126884   61.664238
  22.7126455   61.6637491
  22.7132678   61.6637287
  22.7123022   61.6628936
  22.7119159   61.6627612
  22.7119803   61.6622519
  22.7130532   61.6611519
  22.7127528   61.6610908
  22.7127099   61.6604898
  22.7124524   61.6600314
  22.712903    61.659787
  22.7139805   61.6596923
  22.7135467   61.6593286
  22.713139    61.6583711
  22.7127313   61.6580349
  22.7127099   61.6576478
  22.7138257   61.656568
  22.7136969   61.656242
  22.7138901   61.6560485
  22.7138471   61.6556817
  22.7145465   61.6543594
  22.7142763   61.6535372
  22.7155852   61.6531246
  22.7160039   61.6530974
  22.7162933   61.6529157
  22.7164543   61.6525438
  22.7163792   61.6522942
  22.7163899   61.6520802
  22.7166903   61.6518917
  22.7166259   61.6517033
  22.7171087   61.6511531
  22.7173233   61.651204
  22.7173662   61.6509748
  22.7194905   61.6508525
  22.7202523   61.6503838
  22.7200699   61.6501596
  22.7203596   61.6499813
  22.7209067   61.6491458
  22.7217543   61.6489165
  22.7216363   61.6484783
  22.7231491   61.6476428
  22.7237069   61.6473982
  22.7236855   61.6471944
  22.7233958   61.6469244
  22.7236855   61.6465218
  22.7235353   61.6461142
  22.7238035   61.6458136
  22.7238786   61.64562
  22.7242327   61.6452072
  22.7249099   61.6449367
  22.7245337   61.6443756
  22.7239215   61.6441678
  22.7239215   61.6440557
  22.7237606   61.6438009
  22.7238006   61.6435507
  22.7203267   61.6401166
  22.7042839   61.623876
  22.6609159   61.641651
  22.6884636   61.6090193
  22.6960427   61.5997655
  22.6825753   61.5958095
  22.666887    61.5910463
  22.6458321   61.5841351
  22.6459564   61.5819425
  22.6460832   61.5811075
  22.64647     61.5785023
  22.6445818   61.5727876
  22.6474069   61.5721885
  22.6452814   61.5651469
  22.6422329   61.5652822
  22.6408189   61.5611721
  22.6293642   61.5557982
  22.6285362   61.5560837
  22.6283455   61.5558687
  22.6278543   61.5557999
  22.6274362   61.5558525
  22.6265978   61.5556806
  22.6261397   61.5554578
  22.6258741   61.5553287
  22.6242739   61.5554719
  22.6233467   61.5554434
  22.6231503   61.5552408
  22.6255588   61.5550581
  22.6267625   61.5547699
  22.6271398   61.5547545
  22.6183605   61.5507057
  22.6128888   61.5480683
  22.6027822   61.5424817
  22.5824813   61.5483052
  22.5764297   61.5459418
  22.5670725   61.5422144
  22.5591956   61.5390476
  22.4341638   61.4889232
  22.4508766   61.4761102
  22.4515316   61.4755982
  22.4528671   61.4745542
  22.4554052   61.47257
  22.464485    61.4654707
  22.4668981   61.4635836
  22.4879119   61.4463194
  22.4946301   61.4405881
  22.5092497   61.4281126
  22.5201378   61.4263293
  22.5402813   61.4230298
  22.5614593   61.4195605
  22.5611973   61.4194851
  22.5596598   61.4193866
  22.5619054   61.4189039
  22.5742564   61.3968634
  22.5603774   61.3946241
  22.5584153   61.3943075
  22.5586456   61.3939463
  22.5614658   61.3896675
  22.562876    61.3875277
  22.5764524   61.3669197
  22.5914158   61.3421402
  22.5594896   61.3309056
  22.5810852   61.318061
  22.5869394   61.3145814
  22.5874676   61.3142674
  22.6016705   61.305824
  22.6025066   61.3038481
  22.5995004   61.3021592
  22.5991657   61.3019712
  22.6042412   61.3019812
  22.6055523   61.3017686
  22.6106545   61.301543
  22.6101458   61.3013904
  22.6101609   61.3012019
  22.6084553   61.3011699
  22.6187572   61.2916301
  22.6251334   61.2827677
  22.6260291   61.2815225
  22.6273961   61.2796221
  22.627204    61.279463
  22.6268864   61.2791999
  22.6259468   61.2784217
  22.626448    61.2783112
  22.6268154   61.2780248
  22.6291488   61.2772533
  22.6339896   61.2703469
  22.634899    61.2690492
  22.6405048   61.2668985
  22.6410145   61.2652197
  22.6316106   61.2631719
  22.6323195   61.2624041
  22.631189    61.2622989
  22.6295903   61.2629616
  22.6256076   61.2618642
  22.6274478   61.2609692
  22.6356554   61.2583279
  22.6412987   61.2523531
  22.6475204   61.2536621
  22.6476502   61.2532329
  22.6456225   61.2490969
  22.6453328   61.2477603
  22.6455045   61.2466559
  22.6512658   61.2458404
  22.6512551   61.2451024
  22.6531327   61.2449837
  22.6532024   61.2445385
  22.6695585   61.2451127
  22.6830125   61.2469552
  22.6850247   61.2461
  22.6909947   61.245234
  22.6913166   61.2456649
  22.6929081   61.2451982
  22.6932769   61.2452043
  22.6942377   61.2458135
  22.6938194   61.2460309
  22.7018117   61.2461298
  22.7033683   61.2425324
  22.7055429   61.2413521
  22.7056495   61.2412942
  22.7066479   61.2407523
  22.7070527   61.2405326
  22.710703    61.2415715
  22.710203    61.2427642
  22.7108331   61.2429306
  22.710878    61.243215
  22.7101403   61.2434523
  22.7102539   61.2435786
  22.7093314   61.2436021
  22.7086527   61.243524
  22.7072698   61.2442033
  22.7066778   61.2446314
  22.7092551   61.2451104
  22.7089371   61.2457605
  22.7131254   61.2446049
  22.7138811   61.2442807
  22.7145526   61.2441925
  22.7147765   61.2441631
  22.7151898   61.2443212
  22.71501     61.2443763
  22.7136293   61.2447989
  22.7091855   61.2461589
  22.7161771   61.2461864
  22.7170885   61.2458024
  22.7233471   61.245516
  22.723638    61.2460755
  22.7233692   61.2462023
  22.7276492   61.2462371
  22.7285681   61.2462445
  22.7357282   61.2462205
  22.7426081   61.2441921
  22.745434    61.2448904
  22.7460286   61.2454266
  22.7457987   61.2456396
  22.7414909   61.2462576
  22.7678379   61.246351
  22.7887657   61.2431518
  22.789634    61.2429368
  22.7903357   61.2429741
  22.791464    61.242478
  22.79156     61.2421978
  22.7921764   61.2422789
  22.7929361   61.2420137
  22.7945447   61.2418168
  22.7963857   61.2414891
  22.7983436   61.2414188
  22.8163735   61.2368231
  22.8164112   61.2363799
  22.8152912   61.235888
  22.8159095   61.2357335
  22.8168672   61.2359226
  22.8166818   61.2361617
  22.8174769   61.2362411
  22.8175365   61.2365267
  22.8203874   61.2357999
  22.8195189   61.2353524
  22.8179775   61.2348356
  22.8168343   61.2346587
  22.8163734   61.2343
  22.8164593   61.2338428
  22.8195233   61.2329558
  22.8196871   61.2312486
  22.8192351   61.2301893
  22.8217533   61.229435
  22.8253059   61.2302873
  22.8263309   61.2309951
  22.8263719   61.2310506
  22.8268671   61.231722
  22.8263685   61.2316887
  22.8256959   61.2319066
  22.824319    61.2318324
  22.8223551   61.2330175
  22.8220021   61.2336749
  22.8217718   61.2345998
  22.8214062   61.2351328
  22.8214501   61.235529
  22.8454625   61.2294072
  22.8560798   61.2358363
  22.8820777   61.2260792
  22.8720982   61.2226327
  22.9325652   61.2071533
  22.9342375   61.2049854
  22.9560513   61.176607
  22.9150574   61.1787807
  22.9228667   61.1477448
  22.9246732   61.1472316
  22.9232862   61.1455544
  22.9241687   61.1419889
  22.9251982   61.1419669
  22.9269324   61.1417983
  22.928465    61.1415139
  22.9294863   61.141175
  22.9308707   61.1403798
  22.9323119   61.1399127
  22.9328697   61.1396681
  22.9343711   61.1388611
  22.9370039   61.1376696
  22.9378594   61.1370739
  22.938364    61.1368131
  22.9391828   61.1364926
  22.9398323   61.1363788
  22.9404721   61.1363622
  22.9412937   61.136559
  22.942031    61.1367269
  22.9426268   61.1366929
  22.9435714   61.1366177
  22.9452632   61.1365894
  22.9459266   61.1365289
  22.9471418   61.1364152
  22.9462514   61.1354034
  22.9439398   61.1358658
  22.9417227   61.1359163
  22.9414925   61.1341001
  22.9424606   61.1244493
  22.9659138   61.1204227
  22.9633206   61.1188308
  22.9651581   61.1175238
  22.9681795   61.1166892
  22.9699313   61.1182255
  22.971884    61.1158416
  22.9290686   61.0943164
  22.9156803   61.0865194
  22.9216158   61.0824569
  22.9293556   61.0770935
  22.9300224   61.0766314
  22.9362501   61.0729004
  22.9477129   61.0765027
  22.9955131   61.0876961
  23.0062873   61.0749295
  22.9985677   61.0729232
  23.0012909   61.0706879
  22.987306    61.0667113
  22.9865068   61.0678213
  22.9834293   61.0681936
  22.9821498   61.0674202
  22.9810467   61.0675684
  22.9801422   61.0672294
  22.9803779   61.0669454
  22.9765038   61.0657504
  22.9762943   61.065667
  22.9760786   61.0655298
  22.9754513   61.065036
  22.9787744   61.0642447
  22.9664744   61.0607167
  22.9663326   61.0603989
  22.9667386   61.0596147
  22.9688863   61.0601482
  22.9717448   61.0580624
  22.967733    61.0569485
  22.9671424   61.0572202
  22.9666497   61.0568354
  22.9668327   61.0567078
  22.964494    61.056074
  22.963758    61.0567771
  22.9641167   61.0568725
  22.9635266   61.0578859
  22.9643263   61.0579421
  22.9634523   61.0598132
  22.9599379   61.0588055
  22.9667719   61.044209
  22.9687031   61.043621
  22.96851     61.0432574
  22.9681667   61.0432158
  22.9679307   61.0430808
  22.9676517   61.0428626
  22.9675444   61.0426133
  22.9673266   61.0425084
  22.9670048   61.0426226
  22.9669007   61.0428315
  22.9666185   61.043059
  22.9665756   61.0432564
  22.96664     61.0434849
  22.9666003   61.043621
  22.9662967   61.0437238
  22.965889    61.043807
  22.9656315   61.0439108
  22.965374    61.0440147
  22.9649877   61.0440043
  22.9646659   61.0439732
  22.9643687   61.0440677
  22.9639792   61.0442641
  22.963593    61.0444718
  22.9634213   61.0447211
  22.9633387   61.0449299
  22.963078    61.0449912
  22.9627132   61.0449081
  22.9624557   61.0449185
  22.9623484   61.0450328
  22.9623517   61.0451896
  22.9626059   61.0453133
  22.9626703   61.0454587
  22.9625416   61.0455626
  22.9622412   61.0456041
  22.9617691   61.0456145
  22.9611039   61.0456457
  22.9607852   61.045709
  22.9604816   61.0458846
  22.9600557   61.0461869
  22.9597124   61.0462804
  22.9594517   61.0462793
  22.9590472   61.0462492
  22.958382    61.0461038
  22.9577565   61.0459158
  22.9572018   61.0458545
  22.9568767   61.0457807
  22.956601    61.0455844
  22.956365    61.045387
  22.9562545   61.0452198
  22.9559541   61.0449289
  22.9557212   61.0447637
  22.9553747   61.0446796
  22.955099    61.0447014
  22.9548168   61.0448042
  22.9546451   61.044877
  22.9541731   61.0448873
  22.9537654   61.0448873
  22.9535755   61.0448157
  22.9532933   61.0447627
  22.9530777   61.0445362
  22.9532075   61.0443783
  22.9535723   61.0442121
  22.9538544   61.0441404
  22.9541334   61.0441508
  22.9544123   61.0440885
  22.9545411   61.0439534
  22.9544552   61.0437768
  22.9542374   61.0436304
  22.9539799   61.0434641
  22.9536828   61.0433925
  22.9532289   61.0433602
  22.9527354   61.0433914
  22.9522419   61.0434953
  22.9520917   61.0435784
  22.9520702   61.0437238
  22.9522204   61.0439732
  22.9523062   61.0442121
  22.9523062   61.0444199
  22.952052    61.0445248
  22.9516196   61.0446173
  22.9510005   61.0446495
  22.9506969   61.0444926
  22.9506111   61.0442537
  22.9503568   61.0438288
  22.9501819   61.0436823
  22.9498418   61.0436522
  22.9493269   61.0437664
  22.9487872   61.043942
  22.9487074   61.0440763
  22.9487904   61.0442339
  22.9492163   61.0445445
  22.9492593   61.0447004
  22.9491091   61.0447939
  22.9487904   61.0448468
  22.9481467   61.0448364
  22.9474815   61.0447326
  22.9466017   61.044556
  22.9460438   61.0445456
  22.9455256   61.0446588
  22.9450782   61.0447845
  22.9444527   61.0446173
  22.9439993   61.0444334
  22.9436406   61.0444105
  22.943295    61.0444868
  22.9429754   61.0447014
  22.9426964   61.0449715
  22.9424143   61.0450328
  22.9420742   61.045013
  22.9417705   61.0448354
  22.9413843   61.0447731
  22.9402041   61.04469
  22.9395389   61.04469
  22.9391742   61.0447107
  22.9387879   61.0448666
  22.9381903   61.0448676
  22.9376292   61.0447315
  22.9371389   61.0447014
  22.9367924   61.0447835
  22.9365166   61.0448157
  22.9360628   61.0447627
  22.9356583   61.0448053
  22.935462    61.045012
  22.9354405   61.0452405
  22.9353976   61.0455314
  22.9351616   61.0456872
  22.9345608   61.0457496
  22.9339632   61.0458233
  22.933534    61.045761
  22.9332518   61.0458223
  22.9329729   61.0459158
  22.9328656   61.0461339
  22.9326972   61.0464258
  22.9327369   61.0466429
  22.9331692   61.0469452
  22.9334879   61.0471934
  22.9336381   61.0473493
  22.9334879   61.0474531
  22.9331016   61.0474739
  22.9328044   61.0474126
  22.9323077   61.0472765
  22.9320073   61.0472558
  22.9316243   61.0473191
  22.9312992   61.0474116
  22.9310417   61.0475258
  22.9308486   61.0477544
  22.9306769   61.0480244
  22.9305482   61.0482529
  22.9303765   61.0483776
  22.9302048   61.0483776
  22.9299044   61.0483256
  22.9297113   61.0481075
  22.9295214   61.0478489
  22.9292178   61.047744
  22.9289603   61.047744
  22.9287243   61.0479102
  22.9285955   61.0481387
  22.9287489   61.0483267
  22.9291781   61.0485344
  22.9294141   61.0488253
  22.9296931   61.0490538
  22.9301651   61.0492615
  22.9306672   61.0493823
  22.931149    61.0494786
  22.9320717   61.0496655
  22.932268    61.049812
  22.9323292   61.0499356
  22.932136    61.0500706
  22.9316211   61.0504861
  22.9311093   61.050456
  22.9304838   61.0504238
  22.9301222   61.0504767
  22.9299259   61.0505899
  22.9298433   61.0507364
  22.9300761   61.0508081
  22.9304838   61.0507873
  22.9309162   61.0507883
  22.9311737   61.050861
  22.9314526   61.0509753
  22.9319429   61.0511716
  22.9322219   61.0513481
  22.9322036   61.0514946
  22.9319676   61.0516296
  22.9317316   61.0517646
  22.9317927   61.0518986
  22.9320749   61.0520658
  22.9323109   61.0521385
  22.9326939   61.0523244
  22.9330802   61.0525944
  22.9331875   61.0527502
  22.93293     61.0528645
  22.9321393   61.0528759
  22.9317283   61.0526879
  22.9313882   61.0525643
  22.9311275   61.0524906
  22.9308303   61.0525228
  22.9305911   61.0526048
  22.9305482   61.0527502
  22.9306125   61.0529995
  22.9306801   61.0532705
  22.9305482   61.0534045
  22.9302263   61.0535291
  22.9297113   61.0535499
  22.9289818   61.053498
  22.9285311   61.0535291
  22.9283595   61.0536018
  22.9283842   61.0537587
  22.9285558   61.0539248
  22.9289421   61.0541533
  22.9290032   61.05436
  22.9290032   61.0545053
  22.9285955   61.0546507
  22.9280805   61.0547027
  22.9275259   61.0548179
  22.9270291   61.0549311
  22.9266032   61.0549633
  22.9262781   61.0549
  22.9260882   61.0546725
  22.9257663   61.0544441
  22.9247117   61.0541315
  22.9243254   61.0539861
  22.923789    61.0535707
  22.9230412   61.0536548
  22.9227161   61.0533526
  22.9219007   61.0533422
  22.9201663   61.0521734
  22.9198408   61.0522206
  22.9194546   61.0522309
  22.9191756   61.0521582
  22.9190481   61.0519644
  22.9189213   61.0518269
  22.9186821   61.0517324
  22.9183388   61.0517636
  22.9178238   61.051909
  22.917459    61.0520336
  22.9169869   61.0521894
  22.9164782   61.0522526
  22.9161395   61.0523921
  22.9157027   61.0526474
  22.915295    61.0528136
  22.9146826   61.0529921
  22.9139431   61.0531875
  22.9135966   61.0533318
  22.9134067   61.0536133
  22.913146    61.0538511
  22.9126954   61.0539653
  22.9120302   61.0540276
  22.9114079   61.0540796
  22.9106569   61.0542146
  22.9100776   61.0542873
  22.9092622   61.0543184
  22.9084897   61.0544742
  22.9079103   61.054578
  22.9072881   61.054578
  22.9067302   61.0545053
  22.9063471   61.0545375
  22.9059824   61.0546829
  22.9058075   61.0548896
  22.9057216   61.0550454
  22.9053998   61.0550661
  22.9051208   61.0549727
  22.9046702   61.0548792
  22.9040265   61.0548792
  22.9030823   61.0548896
  22.9025062   61.0549529
  22.9021414   61.0550256
  22.9016694   61.0552852
  22.9013657   61.0553984
  22.9010042   61.0554203
  22.9008078   61.0553257
  22.9005321   61.0551295
  22.9002102   61.0549841
  22.8998669   61.0549114
  22.8994592   61.0549945
  22.8992843   61.0550973
  22.8990268   61.0552946
  22.8986653   61.0553476
  22.8982973   61.0553154
  22.897807    61.0551606
  22.8974819   61.0550661
  22.8970957   61.0550869
  22.8967738   61.0551596
  22.8965378   61.0553257
  22.8962803   61.0557619
  22.8961333   61.0559706
  22.8958082   61.0561254
  22.8952074   61.05625
  22.8947139   61.0563538
  22.8943094   61.0564172
  22.8939199   61.056385
  22.8935369   61.0562199
  22.8931721   61.0560849
  22.8928041   61.0560631
  22.8924393   61.0560631
  22.8921636   61.0561368
  22.8918847   61.0562614
  22.8916025   61.0565304
  22.8914952   61.0567277
  22.8914523   61.0569457
  22.8912163   61.05706
  22.8908118   61.0570921
  22.8903579   61.0570496
  22.8899749   61.0568948
  22.8895211   61.0568107
  22.889181    61.0568118
  22.8887915   61.0569353
  22.8884482   61.0571015
  22.8880405   61.0572261
  22.8873142   61.0573518
  22.8869247   61.0574857
  22.8866704   61.0576529
  22.8862842   61.0578502
  22.8860482   61.0580475
  22.8857445   61.0581607
  22.8853798   61.0582437
  22.8847575   61.0583476
  22.8841814   61.0585044
  22.8829121   61.0588045
  22.8823113   61.0590225
  22.8820324   61.0592198
  22.8819895   61.0593652
  22.8822223   61.0595822
  22.8823328   61.0598324
  22.8822583   61.0601496
  22.8821826   61.0605592
  22.8803372   61.0637882
  22.8760285   61.0721005
  22.8728997   61.078009
  22.8698444   61.0837776
  22.8686428   61.0841719
  22.8685816   61.0850444
  22.867763    61.0855414
  22.8659853   61.0875758
  22.8646302   61.0872635
  22.8647589   61.0857904
  22.8532394   61.0902419
  22.8478932   61.09228
  22.8238821   61.1014317
  22.8235817   61.1006747
  22.8208598   61.092275
  22.8193974   61.088052
  22.8198051   61.0880001
  22.8195509   61.0874513
  22.8201699   61.087388
  22.8196978   61.0869523
  22.8191002   61.0870882
  22.8163107   61.0788084
  22.8256416   61.0748016
  22.8267574   61.0742619
  22.8271032   61.0740862
  22.8368886   61.0691147
  22.8362664   61.0601449
  22.8242898   61.0520752
  22.8270396   61.0455324
  22.823689    61.0420409
  22.8076172   61.0419993
  22.8074487   61.0417718
  22.8072341   61.0415848
  22.8074058   61.0411588
  22.8074273   61.0409718
  22.8072341   61.0408575
  22.8068265   61.0407744
  22.8065872   61.0406175
  22.8063329   61.0404108
  22.8058823   61.040203
  22.8058394   61.0398497
  22.8058576   61.0394227
  22.8061183   61.0393926
  22.806526    61.0392887
  22.8067159   61.0393396
  22.8063082   61.039485
  22.8065657   61.0397136
  22.8062868   61.0402331
  22.8066301   61.0403474
  22.8078103   61.0403266
  22.8112253   61.0375743
  22.810603    61.0373353
  22.8134354   61.0349973
  22.8148484   61.0346741
  22.8154063   61.0342169
  22.815903    61.0326176
  22.8179168   61.0322008
  22.8248938   61.0265064
  22.8253015   61.0239181
  22.8252983   61.0233661
  22.8266319   61.0233776
  22.8259452   61.0222549
  22.8254732   61.0221093
  22.8255161   61.0210905
  22.8259238   61.0182107
  22.8264388   61.0136253
  22.8246578   61.0104849
  22.8238821   61.0088615
  22.8233242   61.0089031
  22.8223586   61.0070518
  22.8228435   61.0068932
  22.8208165   61.0031837
  22.8186496   60.9990746
  22.818257    60.9983334
  22.8182634   60.9981903
  22.8172431   60.9965174
  22.8160854   60.9939319
  22.8159663   60.9934174
  22.8150201   60.9934658
  22.814312    60.9935282
  22.8123593   60.9937571
  22.8111148   60.9939028
  22.8098305   60.9941327
  22.8086933   60.994372
  22.8075957   60.9946623
  22.8064155   60.9950681
  22.8053244   60.9954645
  22.804037    60.9959639
  22.8026637   60.9964945
  22.8013977   60.9969627
  22.79996     60.9974101
  22.7988442   60.9977326
  22.7979644   60.9979406
  22.7969795   60.9981659
  22.7959163   60.9985409
  22.7951867   60.9989779
  22.7944625   60.9994476
  22.7927899   61.0003547
  22.7883235   60.9976056
  22.7881282   60.9974792
  22.7879323   60.9977555
  22.7878793   60.9978153
  22.7870607   60.9981789
  22.78627     60.998336
  22.7861614   60.9982323
  22.7840813   60.9962448
  22.7797683   60.9942055
  22.7726873   60.9930402
  22.770946    60.9927374
  22.7556252   60.9902088
  22.7567872   60.9862137
  22.7543624   60.9854019
  22.7504829   60.9894023
  22.7093965   60.9825919
  22.7015521   60.9869359
  22.7013552   60.9869474
  22.6841898   60.9874184
  22.6767284   60.9876232
  22.6741672   60.9876935
  22.6721178   60.9877497
  22.6715831   60.9877644
  22.6696805   60.9877968
  22.6671916   60.9878733
  22.6664216   60.987897
  22.6593186   60.9880794
  22.649315    60.9883911
  22.6490623   60.9883726
  22.6478505   60.988415
  22.6386862   60.9886555
  22.626557    60.9889738
  22.6246991   60.9890324
  22.6231858   60.9890801
  22.6208965   60.9891523
  22.6148156   60.9893222
  22.6112716   60.9893891
  22.6109506   60.9893974
  22.6036155   60.9895869
  22.5989198   60.9897083
  22.5896819   60.9899464
  22.5791358   60.9902182
  22.5718402   60.988574
  22.5690346   60.9879283
  22.5493662   60.9835439
  22.5454902   60.9825064
  22.5415699   60.9814874
  22.5404047   60.9811845
  22.5396322   60.9807681
  22.5388168   60.9809867
  22.5381731   60.9805599
  22.5385808   60.9803829
  22.5369929   60.9796855
  22.5357269   60.9799353
  22.5345682   60.9795606
  22.5334696   60.9792795
  22.5308215   60.978602
  22.5294827   60.9782594
  22.5278734   60.9778222
  22.5253414   60.9771663
  22.5224242   60.9764282
  22.5225744   60.9763345
  22.5234542   60.9764594
  22.5240765   60.9761783
  22.5251923   60.975231
  22.5254498   60.9753767
  22.5256858   60.9753143
  22.5253854   60.9748458
  22.5248489   60.9749707
  22.5262896   60.9741335
  22.5285945   60.9727703
  22.5287689   60.9726672
  22.5295204   60.9722228
  22.5306462   60.9715569
  22.5307384   60.9715023
  22.5390743   60.9665668
  22.5404476   60.9657337
  22.5521512   60.9588344
  22.5526366   60.9585482
  22.5524693   60.9580329
  22.5523063   60.9575309
  22.5520144   60.9566315
  22.5536022   60.9560585
  22.5549755   60.9571315
  22.5573788   60.9557148
  22.5575364   60.9577917
  22.556955    60.9588458
  22.5559148   60.959591
  22.5557377   60.9595117
  22.5554742   60.9618312
  22.5555105   60.9624
  22.5538526   60.963326
  22.5536618   60.9633811
  22.5534938   60.9634539
  22.5532076   60.963628
  22.5506003   60.9645518
  22.5502324   60.9643776
  22.549442    60.9646576
  22.5488243   60.9645827
  22.5481611   60.9657555
  22.5457401   60.9669547
  22.5451586   60.9673471
  22.5446136   60.968079
  22.541979    60.9690334
  22.541334    60.9691988
  22.5403029   60.9696837
  22.5395671   60.9699901
  22.5394808   60.9704552
  22.5386677   60.9709864
  22.5381135   60.9711671
  22.537534    60.9712881
  22.537431    60.9713262
  22.5373179   60.9713812
  22.5372658   60.971447
  22.5371295   60.9714742
  22.5367963   60.9715749
  22.5367279   60.9716334
  22.5359674   60.9718263
  22.53534     60.971965
  22.5352583   60.9719139
  22.5351595   60.9718784
  22.5350563   60.971868
  22.5349253   60.9718774
  22.5348135   60.9719128
  22.5347856   60.9719545
  22.5347899   60.9720108
  22.5348221   60.9720619
  22.5348716   60.972112
  22.5349532   60.9721662
  22.5346116   60.972283
  22.5337513   60.9722513
  22.53295     60.972431
  22.5329196   60.9726123
  22.5325089   60.9726859
  22.5320342   60.972431
  22.5316133   60.9725437
  22.5313776   60.9726368
  22.5311842   60.9726595
  22.5310138   60.9726912
  22.5308976   60.972719
  22.5308179   60.9727438
  22.5307542   60.9727793
  22.5307064   60.9728326
  22.5306794   60.9728775
  22.5306634   60.9729393
  22.5306619   60.9729988
  22.5306666   60.9731054
  22.5306889   60.9732159
  22.530708    60.9732515
  22.5307686   60.9732986
  22.5308259   60.9733357
  22.5298719   60.9736966
  22.5287604   60.9738679
  22.5273179   60.9741864
  22.5264969   60.9741682
  22.5263322   60.9743074
  22.5264245   60.9743256
  22.5265143   60.9743644
  22.5265717   60.9744007
  22.5266042   60.9744394
  22.5269511   60.9744273
  22.5272031   60.9745835
  22.5286955   60.9743232
  22.5295915   60.9743123
  22.530148    60.9742336
  22.5302853   60.9740701
  22.5300856   60.9739066
  22.5303577   60.9738255
  22.5307794   60.9740096
  22.5312885   60.9738025
  22.5309416   60.9734102
  22.5319324   60.9730662
  22.5323093   60.97326
  22.5324989   60.9731837
  22.5322369   60.9729851
  22.5328458   60.9730735
  22.53335     60.9729185
  22.5334099   60.9730505
  22.5337642   60.9729246
  22.5335496   60.9727296
  22.5336045   60.9726703
  22.5340987   60.9725262
  22.5343283   60.9726243
  22.5344381   60.9726509
  22.5345354   60.972663
  22.5346727   60.9726727
  22.5348673   60.9726691
  22.5350794   60.9726594
  22.5352092   60.9726303
  22.5352766   60.9725928
  22.5352941   60.9725564
  22.5352966   60.9724995
  22.5359155   60.9724995
  22.5364296   60.9723409
  22.5367116   60.9721762
  22.5370211   60.9717996
  22.5385185   60.9714593
  22.5388254   60.9713636
  22.5392622   60.9711238
  22.5401182   60.9707424
  22.5403453   60.970201
  22.541089    60.9701925
  22.541089    60.9699382
  22.5414059   60.9696851
  22.5419026   60.9693678
  22.5428434   60.9690008
  22.5434374   60.9691365
  22.5439241   60.9694853
  22.5441537   60.9693508
  22.5438667   60.9689803
  22.5448774   60.9684982
  22.5453316   60.9681858
  22.545963    60.9676093
  22.5461851   60.9675802
  22.5467916   60.9676226
  22.5475927   60.96747
  22.5488455   60.9671115
  22.5489428   60.9670957
  22.5509107   60.9669914
  22.5510891   60.9669819
  22.5511715   60.9669988
  22.5521448   60.9665519
  22.5536447   60.9665265
  22.5541014   60.966581
  22.5542661   60.9667348
  22.5546429   60.9673501
  22.5548334   60.9673383
  22.5551011   60.9673217
  22.555484    60.967298
  22.5559706   60.9672072
  22.5565796   60.9671987
  22.5567942   60.9669286
  22.5565596   60.9668135
  22.5587658   60.9656665
  22.5592674   60.9655708
  22.5601758   60.9646273
  22.5613288   60.964511
  22.5620575   60.964511
  22.5623171   60.9641864
  22.5645108   60.9641609
  22.5656538   60.9649422
  22.5658784   60.9650136
  22.5665822   60.9648949
  22.5670638   60.9650003
  22.5675081   60.9646285
  22.5683216   60.9645098
  22.5699563   60.9643402
  22.5708722   60.9641464
  22.5716758   60.964041
  22.5722853   60.9636596
  22.5720863   60.9634352
  22.5715586   60.9628401
  22.5711646   60.9623661
  22.5702926   60.9623032
  22.5695428   60.9622627
  22.5693594   60.9619922
  22.5682455   60.9621755
  22.5693557   60.9637928
  22.5672865   60.964095
  22.5668524   60.9640799
  22.5668094   60.964245
  22.5642714   60.9638673
  22.5640602   60.9639868
  22.5638159   60.9638927
  22.5634228   60.963668
  22.5632703   60.9633301
  22.5628898   60.9632532
  22.5630204   60.9630035
  22.562369    60.9632207
  22.5615169   60.9633243
  22.561614    60.9635292
  22.5614118   60.9638028
  22.56188     60.9640123
  22.5616793   60.9641808
  22.5607285   60.9640339
  22.559679    60.9642465
  22.5590626   60.9649352
  22.558846    60.9652236
  22.5585291   60.9654122
  22.5563601   60.9664707
  22.5553601   60.966873
  22.5544557   60.9665227
  22.554473    60.9661668
  22.5541861   60.9660036
  22.5532788   60.9661499
  22.553157    60.9663469
  22.55247     60.9662934
  22.5518062   60.9662793
  22.5511076   60.9663736
  22.5510033   60.9666184
  22.5505134   60.9667506
  22.5497945   60.9667703
  22.5495162   60.9667168
  22.5490031   60.9668772
  22.5484814   60.9669138
  22.5480351   60.9669851
  22.5473538   60.9670939
  22.5472407   60.9668322
  22.5474726   60.9664735
  22.5479393   60.966171
  22.5484785   60.9658967
  22.5490089   60.9654873
  22.5496322   60.9649428
  22.5501945   60.9646882
  22.550438    60.9646108
  22.5507134   60.9646572
  22.5522352   60.9641156
  22.5532817   60.9638426
  22.5542035   60.9632714
  22.5545571   60.9632433
  22.5548238   60.9630111
  22.5552992   60.9628479
  22.5561514   60.9624933
  22.5566877   60.9621289
  22.5578687   60.9615267
  22.5589777   60.9609611
  22.5601893   60.960221
  22.5656419   60.9587139
  22.5652013   60.9582285
  22.5595748   60.9593654
  22.55874     60.9590896
  22.5587574   60.958652
  22.5586965   60.9582749
  22.5586298   60.9579963
  22.558482    60.9578204
  22.558711    60.9574235
  22.5583718   60.9566242
  22.5583573   60.9563287
  22.5583429   60.955915
  22.5582186   60.9551001
  22.558617    60.9550664
  22.5589112   60.9548957
  22.5589154   60.9548228
  22.5609061   60.9542559
  22.5618347   60.9541259
  22.5623626   60.9541367
  22.5623205   60.9539858
  22.5632955   60.9533676
  22.5634942   60.9531207
  22.562593    60.9526936
  22.5665515   60.9502542
  22.5667118   60.9502441
  22.570939    60.9478059
  22.5714969   60.9479831
  22.5721406   60.9476288
  22.5717543   60.9472849
  22.5777282   60.9437997
  22.5833265   60.9405403
  22.5862308   60.9387909
  22.5728209   60.9413093
  22.5524512   60.9451074
  22.519652    60.9511066
  22.516369    60.9507107
  22.5169269   60.9504085
  22.5169019   60.9502264
  22.5168625   60.9499397
  22.5167123   60.949773
  22.5163637   60.949562
  22.517723    60.9483486
  22.5178947   60.947911
  22.5171801   60.9481569
  22.5170127   60.9478037
  22.516918    60.9477809
  22.5155129   60.9474421
  22.5162107   60.9469853
  22.516648    60.9466991
  22.5164119   60.9461677
  22.5144185   60.9463271
  22.5138821   60.9470253
  22.5140516   60.9476057
  22.5142683   60.9477859
  22.5147189   60.9477026
  22.5143388   60.9481839
  22.5135173   60.9492239
  22.5115217   60.9497923
  22.5112857   60.9498595
  22.5110261   60.9500647
  22.5099276   60.949928
  22.5097853   60.9499102
  22.5090868   60.9498233
  22.5068821   60.9495488
  22.4967138   60.948283
  22.4921648   60.9478766
  22.481157    60.946324
  22.4652354   60.9443024
  22.4526848   60.9426693
  22.4521462   60.9430935
  22.4499382   60.9436073
  22.4495927   60.9437083
  22.4488224   60.94417
  22.4482216   60.9441492
  22.4474706   60.9444514
  22.447256    60.9450871
  22.4451532   60.9458373
  22.4452175   60.9461812
  22.4444862   60.9465127
  22.4436082   60.9469107
  22.443164    60.9466449
  22.4437584   60.946275
  22.443179    60.9458165
  22.4439944   60.9454518
  22.4440135   60.9454543
  22.4451746   60.9456081
  22.446505    60.9450766
  22.4466101   60.9447921
  22.446696    60.9445316
  22.446932    60.9442815
  22.4494232   60.9432529
  22.4502008   60.9425633
  22.4504103   60.9423775
  22.4313001   60.9398366
  22.4278003   60.9390122
  22.4213437   60.9374445
  22.4214188   60.937554
  22.4216549   60.9378041
  22.4218909   60.9381794
  22.4212901   60.9380751
  22.4202911   60.93788
  22.4200804   60.9378388
  22.420177    60.9373072
  22.4203379   60.9372759
  22.4203631   60.9371996
  22.4198653   60.9370776
  22.4146811   60.935808
  22.3645345   60.931805
  22.3528637   60.9278254
  22.3297516   60.9199597
  22.3199884   60.9167474
  22.3159343   60.9163167
  22.3151132   60.9162294
  22.3131016   60.9160157
  22.3004833   60.9178261
  22.2981002   60.9181615
  22.2900979   60.9193235
  22.2885958   60.9195217
  22.2710864   60.9220663
  22.2697448   60.9229293
  22.2689216   60.9234589
  22.2636223   60.9268677
  22.2412602   60.9238078
  22.2401659   60.9241415
  22.2394599   60.9233626
  22.2376553   60.9225356
  22.2339861   60.9220768
  22.2311107   60.920794
  22.228922    60.9202309
  22.2288362   60.9196051
  22.228171    60.9189794
  22.2218196   60.9161112
  22.2079579   60.9097897
  22.2028661   60.907468
  22.1957056   60.9042079
  22.1887533   60.9010149
  22.2000829   60.8975397
  22.2115199   60.8941164
  22.2166483   60.895682
  22.2181524   60.8952468
  22.2150196   60.8929087
  22.2139253   60.8915622
  22.1992697   60.8950276
  22.1888533   60.8974704
  22.186159    60.8944431
  22.1709649   60.8771717
  22.1668471   60.8756293
  22.1678954   60.874952
  22.1603116   60.8720007
  22.1475872   60.8849256
  22.1414718   60.891074
  22.1336913   60.8990955
  22.130708    60.9020265
  22.1284673   60.9042054
  22.1198599   60.9039487
  22.1139749   60.903773
  22.1050335   60.9035127
  22.1033743   60.9034654
  22.1007402   60.9033869
  22.1001873   60.9033692
  22.096774    60.9032671
  22.0866471   60.9029584
  22.0832856   60.9028496
  22.0743093   60.9025787
  22.0705506   60.9024827
  22.0670193   60.9023799
  22.0616675   60.9021982
  22.0613959   60.9021828
  22.0608878   60.9021692
  22.0564363   60.9020837
  22.052819    60.9019666
  22.0432298   60.9017388
  22.0323382   60.9014583
  22.0288083   60.9013878
  22.0198723   60.9011586
  22.0179062   60.9011045
  22.0117754   60.9009507
  22.0098806   60.8991282
  22.0093498   60.8986116
  22.0087443   60.8980279
  22.0084365   60.8977362
  22.0081489   60.8974401
  22.0081004   60.8974508
  22.0065776   60.8978644
  22.0008683   60.8996331
  22.0006891   60.8993787
  22.0005955   60.899273
  22.0005394   60.8992267
  22.0005175   60.8992122
  22.0004221   60.8991576
  22.0003938   60.8991375
  22.0003628   60.899105
  22.0003158   60.8990469
  22.0002787   60.8990159
  22.0002009   60.8989576
  22.0001082   60.89886
  22.0000213   60.898796
  21.9999849   60.8987648
  21.9999004   60.8986852
  21.999867    60.8986572
  21.9998111   60.898619
  21.9997115   60.8985662
  21.9996633   60.8985367
  21.9995357   60.8984393
  21.9994276   60.8983635
  21.9993629   60.8982991
  21.9993273   60.8982678
  21.9993125   60.8982574
  21.9992378   60.8982139
  21.9992179   60.8981988
  21.9991391   60.8981256
  21.9990947   60.8980971
  21.9989724   60.8980304
  21.9989281   60.8980017
  21.9988728   60.8979606
  21.9987388   60.8978433
  21.9987185   60.8978284
  21.998673    60.8978006
  21.9985942   60.8977575
  21.9985724   60.897743
  21.9984748   60.8976682
  21.9983674   60.8976002
  21.9983262   60.8975704
  21.9982853   60.8975343
  21.9982262   60.8974685
  21.9981461   60.8973855
  21.9981236   60.8973514
  21.9980802   60.8972532
  21.9852143   60.9010018
  21.9897795   60.9055283
  21.9933001   60.909081
  21.9939365   60.9096902
  21.9949282   60.9107112
  21.9965131   60.9122318
  21.9967571   60.9125495
  21.9853577   60.9196825
  21.9795112   60.9233572
  21.9745866   60.9264407
  21.9723467   60.927846
  21.9695237   60.9295999
  21.9696392   60.9299014
  21.9689554   60.9308008
  21.9680953   60.9305359
  21.9677161   60.930771
  21.954277    60.9391812
  21.9538463   60.9395043
  21.9441714   60.946519
  21.9466495   60.9569602
  21.9473689   60.9599627
  21.9474157   60.9601631
  21.9476662   60.9612362
  21.9482504   60.9636846
  21.9489602   60.9666872
  21.9492863   60.9682782
  21.9502325   60.9720192
  21.9509072   60.9749961
  21.9513652   60.9769361
  21.9476559   60.9768351
  21.926154    60.9761536
  21.9206876   60.9785326
  21.9201104   60.9787657
  21.9203573   60.9790058
  21.9206147   60.9792309
  21.921446    60.9791797
  21.9217713   60.9792131
  21.9219841   60.9794849
  21.9220204   60.9795268
  21.9215713   60.9796457
  21.9207068   60.9800276
  21.9200896   60.9800824
  21.9200874   60.9800633
  21.9199656   60.9800624
  21.9175675   60.9798606
  21.9112051   60.9826148
  21.9057323   60.9849665
  21.9029692   60.9861598
  21.8949719   60.9832846
  21.8896886   60.9813648
  21.8896665   60.9814106
  21.8896237   60.9815234
  21.8895582   60.9816262
  21.8895129   60.9817098
  21.8894701   60.9817784
  21.88945     60.9818023
  21.8893376   60.9819153
  21.8892941   60.9819626
  21.8892756   60.9819781
  21.8892533   60.9819924
  21.8892268   60.9820048
  21.8891936   60.9820156
  21.8891602   60.9820232
  21.8890042   60.9820461
  21.8886874   60.9820993
  21.8885791   60.9821104
  21.8885039   60.9821141
  21.8884301   60.9821152
  21.8882285   60.9821126
  21.887928    60.9821111
  21.8877808   60.9821064
  21.8876709   60.9820999
  21.8875959   60.9820938
  21.8874876   60.9820828
  21.8871705   60.982043
  21.8871338   60.9820412
  21.887097    60.9820421
  21.8870578   60.9820461
  21.8869766   60.9820609
  21.8867377   60.9821086
  21.8863256   60.9822053
  21.8859531   60.9822836
  21.8856909   60.9823346
  21.8855572   60.982365
  21.8855004   60.9823797
  21.8851828   60.9824709
  21.8850673   60.9825014
  21.8848011   60.9825635
  21.8844943   60.9826294
  21.8838352   60.9825656
  21.8805927   60.9810843
  21.8784697   60.9822206
  21.8770446   60.982775
  21.8776898   60.9832881
  21.8764481   60.9843252
  21.8740331   60.9863261
  21.8720969   60.9861888
  21.8717991   60.9863109
  21.873308    60.9877757
  21.8729489   60.988155
  21.8728623   60.9882501
  21.8735449   60.9889716
  21.8722967   60.989571
  21.8719617   60.9898864
  21.8730298   60.9910247
  21.8726254   60.9914509
  21.8724012   60.9917
  21.8716288   60.9919016
  21.8701061   60.992641
  21.8672371   60.9923938
  21.8653821   60.994715
  21.8648748   60.9953572
  21.8646187   60.9956595
  21.864008    60.9964304
  21.8620752   60.9976953
  21.8569894   61.0010311
  21.8551054   61.0022754
  21.8544431   61.0027085
  21.8527913   61.0037941
  21.850824    61.0050897
  21.8490595   61.0062447
  21.8478345   61.0070215
  21.8472621   61.0068346
  21.8470707   61.0069363
  21.8475094   61.0072105
  21.8465331   61.0078427
  21.8451449   61.0087204
  21.8446087   61.008692
  21.8443432   61.0089279
  21.8445891   61.0090699
  21.8440946   61.0094061
  21.8397164   61.0105712
  21.835525    61.0116864
  21.8345945   61.0119317
  21.8347614   61.0114552
  21.8355229   61.011004
  21.8347706   61.0107373
  21.8334465   61.0109843
  21.8330512   61.0110491
  21.8322079   61.0110513
  21.8331371   61.0117976
  21.833668    61.0117986
  21.8339384   61.0121252
  21.8311852   61.012884
  21.8286058   61.0135917
  21.826655    61.0141296
  21.8260969   61.0142721
  21.8229217   61.0151576
  21.8200003   61.0159579
  21.818829    61.0162863
  21.8153214   61.0172373
  21.8127284   61.0179654
  21.8120799   61.017825
  21.811228    61.0181866
  21.8107484   61.0184783
  21.8089041   61.0190056
  21.8065664   61.0191656
  21.8056531   61.0194899
  21.8049756   61.0201
  21.8099291   61.0234814
  21.8152809   61.0271828
  21.8190262   61.0298891
  21.819299    61.0300812
  21.8250103   61.0340392
  21.8252136   61.0341737
  21.8250082   61.0341745
  21.8229643   61.0341646
  21.8179575   61.0341809
  21.8161021   61.0341823
  21.7992066   61.0341664
  21.7958974   61.0341543
  21.79209     61.0341242
  21.7757539   61.0341078
  21.7698782   61.0321192
  21.7697028   61.0320515
  21.7659155   61.0308139
  21.7571035   61.027853
  21.7532484   61.02656
  21.7587726   61.0210341
  21.7589623   61.0208264
  21.7651469   61.0144509
  21.7658261   61.0138712
  21.7660291   61.0136953
  21.7638701   61.0127999
  21.7600797   61.0112432
  21.7562039   61.009663
  21.7535042   61.0085545
  21.749723    61.0070418
  21.7422917   61.0040386
  21.7343852   61.0008914
  21.7327577   61.0007465
  21.7324662   61.0010974
  21.7319068   61.0010536
  21.7312166   61.0006223
  21.7304444   61.0005592
  21.7277627   61.0010475
  21.7237085   61.0002514
  21.7232138   60.999899
  21.7222782   60.9997898
  21.7136368   60.9990342
  21.7137961   60.9991307
  21.714043    60.9992736
  21.7141474   60.9993488
  21.7142211   60.9994477
  21.7142986   60.9995822
  21.7140482   60.9997572
  21.7139567   60.9998135
  21.7138783   60.9998542
  21.7137446   60.999916
  21.7135783   60.9999963
  21.7134981   61.0000333
  21.7134184   61.0000676
  21.7133023   61.0001119
  21.7131859   61.0001495
  21.7130564   61.0001728
  21.7129132   61.0002227
  21.7122018   61.0004222
  21.7115932   61.0005794
  21.7111992   61.0006778
  21.7106666   61.0008062
  21.7105802   61.000829
  21.7102942   61.0009111
  21.7102177   61.0009347
  21.7095001   61.0011745
  21.708672    61.0014442
  21.7077304   61.0017313
  21.7067343   61.0020143
  21.706609    61.0020523
  21.7061981   61.0021878
  21.7055285   61.0024415
  21.7053696   61.0024986
  21.7052765   61.0025278
  21.70519     61.0025513
  21.7050238   61.0025903
  21.7047342   61.0026517
  21.7046185   61.002673
  21.7045135   61.0026902
  21.7043009   61.0027204
  21.7038593   61.0027759
  21.7035654   61.0028211
  21.7030505   61.0029202
  21.7027303   61.0029849
  21.7025347   61.0030309
  21.7024063   61.0030663
  21.7023097   61.0030968
  21.7022203   61.0031285
  21.7021351   61.0031629
  21.702045    61.0032035
  21.7019795   61.0032376
  21.7018214   61.0031819
  21.6939909   61.0035175
  21.6933146   61.0035538
  21.691625    61.0030935
  21.691576    61.0025917
  21.6920811   61.0014569
  21.6918286   61.0014116
  21.6915762   61.001195
  21.6911387   61.0012421
  21.6910214   61.0011519
  21.6905739   61.0010796
  21.6899657   61.0009351
  21.6775579   60.998312
  21.6762766   60.9980888
  21.6760141   60.9982733
  21.6764386   60.9986511
  21.6737549   60.9990907
  21.6730938   60.9989214
  21.6728514   60.9987732
  21.6720706   60.9976363
  21.6728414   60.9973779
  21.6687573   60.9965503
  21.6680882   60.9964108
  21.6676707   60.9967129
  21.6658331   60.9965918
  21.6655924   60.9963322
  21.6546434   60.9999165
  21.6534191   61.0064581
  21.6528955   61.0064373
  21.6526791   61.0076877
  21.6531782   61.0078015
  21.6531779   61.0078242
  21.6531728   61.0078509
  21.6531497   61.0079734
  21.6526692   61.0105454
  21.6522091   61.0131602
  21.6514043   61.017362
  21.6494968   61.0195843
  21.6410179   61.0292983
  21.6362513   61.0347853
  21.6358324   61.0352821
  21.635391    61.0357885
  21.6347888   61.0364833
  21.6364748   61.0371484
  21.6378173   61.0372884
  21.6385293   61.0373622
  21.6377236   61.0385246
  21.6368274   61.0379401
  21.6366818   61.0374131
  21.6345424   61.0367832
  21.6338749   61.0376085
  21.628172    61.0440734
  21.6276476   61.0446763
  21.6266958   61.0457792
  21.6265491   61.0459474
  21.6255338   61.047109
  21.6248331   61.0479487
  21.6215731   61.0516448
  21.6212164   61.051787
  21.6202398   61.0506826
  21.6151684   61.0461749
  21.6145376   61.0456214
  21.6113964   61.0428168
  21.6114511   61.0427752
  21.6087205   61.0412843
  21.6084702   61.041158
  21.6080991   61.0387334
  21.6079308   61.0377277
  21.607706    61.0367119
  21.6071872   61.0337697
  21.5916538   61.0300263
  21.591385    61.0297876
  21.5914097   61.0296796
  21.5914689   61.0295574
  21.5914853   61.0295067
  21.5914997   61.0294218
  21.5915025   61.0293479
  21.5914982   61.0293121
  21.5914889   61.0292765
  21.5914774   61.029248
  21.5914589   61.0292133
  21.5914268   61.0291652
  21.5913498   61.0290704
  21.5912649   61.028971
  21.5911411   61.0288256
  21.5911756   61.0288134
  21.5918361   61.0279945
  21.5920872   61.0277186
  21.5931791   61.0264757
  21.594501    61.0249719
  21.5954321   61.0239376
  21.6013375   61.0171631
  21.6060607   61.011805
  21.6070125   61.0107048
  21.6055584   61.0104352
  21.6055626   61.0102486
  21.6060455   61.0096051
  21.6034558   61.0095785
  21.6038626   61.0078629
  21.6034459   61.0069255
  21.6029294   61.0069269
  21.6009615   61.0089139
  21.5996487   61.0090903
  21.5992799   61.0095371
  21.5663571   61.0092224
  21.5663182   61.0092181
  21.5661571   61.0092071
  21.565845    61.0091231
  21.5658301   61.0091142
  21.5583541   61.0070481
  21.5568164   61.0065933
  21.5524838   61.0053751
  21.550661    61.0048018
  21.5325316   61.0050513
  21.5325036   61.0047771
  21.5308209   61.0048095
  21.5306664   61.0050758
  21.5276537   61.0051137
  21.4802069   60.9994788
  21.4801477   61.0003044
  21.4799564   61.0033339
  21.4811483   61.0033896
  21.4819254   61.0037123
  21.4798578   61.0054292
  21.4798382   61.0058392
  21.4798106   61.0061291
  21.4783245   61.0070043
  21.4768708   61.0078959
  21.4776063   61.0090207
  21.474707    61.0091961
  21.4698115   61.0108313
  21.4683211   61.01132
  21.467163    61.0116903
  21.4656921   61.0122069
  21.4668248   61.0134479
  21.4652037   61.014377
  21.4632478   61.0154754
  21.4615365   61.0143701
  21.4606004   61.0150648
  21.4604491   61.0151383
  21.4597672   61.0153871
  21.4588623   61.0155778
  21.457677    61.0158842
  21.4547695   61.016568
  21.4545302   61.0166771
  21.4533051   61.0164797
  21.4535262   61.0162194
  21.4503638   61.017132
  21.4491754   61.0175126
  21.4489754   61.0175775
  21.4464159   61.0187167
  21.4457243   61.0190392
  21.4271613   61.0273994
  21.4214344   61.0433037
  21.4233025   61.0434583
  21.4222659   61.0462929
  21.4204102   61.0461349
  21.4203583   61.0462794
  21.4203092   61.0464083
  21.4199612   61.0473506
  21.417079    61.0551975
  21.3956425   61.0634402
  21.3889099   61.0660605
  21.3893833   61.0701875
  21.3782751   61.0750026
  21.374058    61.0737995
  21.3708429   61.0745096
  21.3702033   61.0748367
  21.3630191   61.0781192
  21.3488771   61.0814732
  21.3452554   61.0859768
  21.3397533   61.0873656
  21.3334382   61.0916799
  21.3274344   61.0957796
  21.3160315   61.1035621
  21.2746753   61.1027223
  21.2718137   61.1026239
  21.2497218   61.1040578
  21.0736635   61.1151297
  20.7731388   61.1334796
END
END
