polygon
1
  27.1411518   61.0105467
  27.1495884   61.0080954
  27.1616047   61.0046673
  27.1667808   60.9997595
  27.1719908   60.9980019
  27.1733329   60.9980024
  27.186612    61.0031442
  27.1906734   61.0041602
  27.1929828   61.007657
  27.1946458   61.0073814
  27.1950642   61.0071994
  27.1952573   61.0070174
  27.1956328   61.0069394
  27.1958367   61.0069602
  27.1960512   61.0070174
  27.1966842   61.0068874
  27.1968559   61.006799
  27.1973065   61.0062477
  27.1975962   61.0060293
  27.1980361   61.0058473
  27.1980683   61.0056809
  27.1983043   61.0056237
  27.1984652   61.0055093
  27.1987764   61.0054052
  27.1990446   61.005218
  27.1990339   61.0050672
  27.1992592   61.0047656
  27.1992377   61.00462
  27.199109    61.0044067
  27.1993235   61.0040583
  27.1997098   61.0038554
  27.2000853   61.0037462
  27.2002462   61.0035954
  27.2003213   61.0034082
  27.2005252   61.003351
  27.2009329   61.003351
  27.2011689   61.0032209
  27.2014049   61.0032105
  27.201523    61.0031533
  27.2016946   61.0031845
  27.2018877   61.0031325
  27.2020809   61.0031481
  27.2022847   61.0032677
  27.2024778   61.0032157
  27.2027031   61.0031845
  27.2029928   61.0032157
  27.2030894   61.0031065
  27.2032503   61.0031897
  27.2033469   61.0031377
  27.2033361   61.0029921
  27.2036258   61.0029921
  27.2036902   61.0029297
  27.2036902   61.0027529
  27.2037438   61.0027373
  27.2038404   61.0028465
  27.2038833   61.0027685
  27.2039369   61.0026384
  27.2042266   61.002654
  27.2042159   61.0025708
  27.2042803   61.0025448
  27.2044519   61.002576
  27.2045163   61.0025292
  27.204527    61.0023472
  27.2043983   61.0022536
  27.2045807   61.0020663
  27.2048703   61.0018687
  27.2049025   61.001697
  27.2046343   61.0016398
  27.2047523   61.0015514
  27.2046558   61.0014318
  27.2044519   61.0013434
  27.2044519   61.0012549
  27.2043124   61.0011769
  27.2043339   61.0009273
  27.2042481   61.0008388
  27.2043446   61.0005996
  27.2045485   61.0005476
  27.2047523   61.0005892
  27.2056965   61.0006152
  27.2059432   61.0005632
  27.2062866   61.0004539
  27.2064797   61.0004279
  27.2067372   61.0002355
  27.2066835   61.0001002
  27.2071019   60.9998454
  27.2071127   60.9997413
  27.2072951   60.9997309
  27.2072843   60.9996061
  27.2070912   60.9995749
  27.2068766   60.9992888
  27.2071019   60.9991328
  27.2073058   60.9989351
  27.2071663   60.9988883
  27.2072414   60.9987947
  27.2072414   60.9987166
  27.2071663   60.9986438
  27.2073809   60.9984617
  27.2074667   60.9982433
  27.2074667   60.9981652
  27.2071985   60.9980768
  27.2071663   60.99803
  27.2074453   60.9980092
  27.2073165   60.9978063
  27.2074131   60.9977699
  27.2077135   60.9977959
  27.2081212   60.9977023
  27.2082607   60.9975514
  27.2079603   60.997463
  27.207971    60.997333
  27.2082821   60.9971925
  27.2082177   60.9970104
  27.2084431   60.9968232
  27.2083218   60.9965607
  27.2085396   60.9962666
  27.2088722   60.9961365
  27.2088186   60.9959804
  27.2089688   60.9958348
  27.2093228   60.9957567
  27.2093979   60.9956319
  27.2091619   60.9954914
  27.2093228   60.9953094
  27.2093105   60.9948208
  27.2091689   60.9943612
  27.2092917   60.9937916
  27.2094145   60.9936579
  27.2093775   60.993327
  27.2089591   60.993301
  27.2085482   60.9928445
  27.2086324   60.9922253
  27.2088756   60.991991
  27.2093282   60.9918614
  27.2091549   60.9914717
  27.2096281   60.9912657
  27.2098383   60.991095
  27.2098249   60.9909436
  27.2101328   60.9908867
  27.2100545   60.9907407
  27.2103163   60.9906879
  27.2103308   60.9905885
  27.2106462   60.9906299
  27.2108195   60.9905693
  27.2107664   60.9902618
  27.210952    60.9901996
  27.2111902   60.9902069
  27.2117427   60.9900466
  27.2116064   60.9898585
  27.2116311   60.9895581
  27.2118173   60.9894959
  27.2121123   60.9895984
  27.2127067   60.9894035
  27.2124846   60.9891683
  27.213285    60.9884516
  27.2141663   60.988233
  27.2146406   60.98822
  27.2148348   60.9882749
  27.2155879   60.9882559
  27.2158717   60.9883743
  27.2168647   60.9885065
  27.2176178   60.988814
  27.2180883   60.988302
  27.2180807   60.988282
  27.2175545   60.9869038
  27.2146384   60.9859659
  27.2133821   60.9847366
  27.2133815   60.983851
  27.2127909   60.9825819
  27.2125806   60.9786249
  27.2160847   60.9741413
  27.2165838   60.9739663
  27.2175414   60.9736306
  27.2185135   60.9729492
  27.2198412   60.9723213
  27.2210514   60.9717874
  27.2212021   60.9715662
  27.2212144   60.9712989
  27.2209403   60.9710154
  27.2204548   60.9704055
  27.2195638   60.9700806
  27.2192425   60.969789
  27.2287519   60.9712294
  27.241635    60.9731807
  27.2483459   60.9703111
  27.2483104   60.9691526
  27.2482988   60.9687743
  27.2482858   60.9683472
  27.2481425   60.9677794
  27.2474489   60.9675228
  27.2457646   60.9674207
  27.2453182   60.9672132
  27.2453911   60.966918
  27.2458578   60.9667136
  27.2457522   60.9663843
  27.2444191   60.9651262
  27.2442158   60.9646766
  27.2416527   60.9634763
  27.2346049   60.9632415
  27.2266462   60.9605876
  27.222064    60.9602658
  27.2200426   60.9585804
  27.2170676   60.9571683
  27.2160827   60.9570586
  27.2147293   60.9563013
  27.2136391   60.9562087
  27.2123383   60.9556559
  27.2051081   60.9544396
  27.2022306   60.9543474
  27.1998993   60.9534192
  27.1976891   60.9533541
  27.1969832   60.9524065
  27.1952397   60.9519523
  27.1938042   60.9520148
  27.1912422   60.9527024
  27.1890031   60.9529259
  27.1876501   60.9526243
  27.1863627   60.9519799
  27.1849465   60.9508557
  27.1800616   60.9504593
  27.1743314   60.9507369
  27.1721674   60.9524482
  27.1709872   60.9526711
  27.1696311   60.9530764
  27.1684498   60.9541427
  27.1658116   60.9530139
  27.1643632   60.9529243
  27.1615394   60.9529509
  27.160621    60.9535468
  27.1602734   60.9545271
  27.1597144   60.9547204
  27.1591458   60.9545089
  27.1584988   60.9532369
  27.1570247   60.9524545
  27.1541944   60.9524331
  27.152295    60.9532134
  27.1509217   60.9532134
  27.1493768   60.9542136
  27.1457229   60.9552803
  27.1456221   60.9567799
  27.1420816   60.9580883
  27.1407079   60.9594221
  27.1389241   60.9634826
  27.1350198   60.9648615
  27.1329831   60.966296
  27.1318817   60.9661487
  27.1294183   60.9669089
  27.1260226   60.9654613
  27.1243597   60.9651765
  27.1228201   60.9644787
  27.1211303   60.9640085
  27.1238468   60.9613001
  27.1278809   60.9588148
  27.1324675   60.9548006
  27.1361399   60.9512422
  27.1607317   60.936643
  27.1843867   60.9247535
  27.2063741   60.9089677
  27.2076983   60.9080505
  27.2124469   60.9046824
  27.2132829   60.9040894
  27.2553464   60.8985358
  27.2587495   60.8983835
  27.2772289   60.8967408
  27.3054178   60.8935073
  27.3090678   60.8921452
  27.3162175   60.8902725
  27.3202129   60.890093
  27.3276799   60.8888821
  27.3346822   60.8878633
  27.3390962   60.887701
  27.3436364   60.8866358
  27.3509094   60.8851572
  27.3603885   60.8830404
  27.3726056   60.8789931
  27.3860396   60.8711847
  27.3872777   60.8687457
  27.3887282   60.866951
  27.3915563   60.8643518
  27.4055424   60.8565823
  27.4081817   60.8541861
  27.4098934   60.8530774
  27.4177766   60.8480462
  27.4283735   60.842625
  27.4306168   60.840653
  27.4528201   60.8205976
  27.4863726   60.807002
  27.4920962   60.8045245
  27.5047307   60.7992157
  27.5103489   60.7990632
  27.5496183   60.7978481
  27.5631037   60.8001821
  27.5782802   60.8026057
  27.5882309   60.8039202
  27.6008949   60.8044574
  27.6060965   60.8058553
  27.6164004   60.8054903
  27.6272318   60.8047788
  27.6407467   60.803601
  27.6528707   60.8026483
  27.6625501   60.8014085
  27.6642313   60.80121
  27.6782519   60.8016487
  27.685752    60.8003481
  27.6898474   60.7990631
  27.7032577   60.7959837
  27.7138414   60.7953333
  27.7136375   60.7948824
  27.7143678   60.7947466
  27.7152814   60.7943089
  27.7155164   60.7939097
  27.7160621   60.7934409
  27.7160163   60.7934172
  27.7153873   60.7934327
  27.7146507   60.7937367
  27.7135691   60.7947743
  27.7104527   60.789918
  27.7275408   60.7627883
  27.7513902   60.7575558
  27.7732803   60.7588817
  27.7920066   60.7687729
  27.7925044   60.7688122
  27.7927927   60.7691319
  27.7929577   60.769221
  27.7932004   60.7692996
  27.7934351   60.7692793
  27.793643    60.7689499
  27.7937538   60.7689065
  27.7938626   60.7689021
  27.7939511   60.7689217
  27.7941777   60.7690566
  27.7943306   60.7690841
  27.7944607   60.7690606
  27.794505    60.7690167
  27.7944701   60.7689237
  27.7943105   60.7687868
  27.7940745   60.7686087
  27.7940106   60.7685104
  27.7940019   60.7683533
  27.7942919   60.7677835
  27.7944327   60.7676784
  27.79465     60.7676182
  27.7952897   60.7676431
  27.796152    60.7675926
  27.7966133   60.7675258
  27.7968024   60.7675082
  27.7970183   60.7675514
  27.797186    60.7676732
  27.7971685   60.7679332
  27.7972302   60.7680328
  27.7973335   60.7681199
  27.797477    60.7681664
  27.7976728   60.768184
  27.7979437   60.7681716
  27.798961    60.7679037
  27.7991058   60.7678232
  27.7992265   60.7671689
  27.7993519   60.7671388
  27.7995504   60.7671624
  27.7997314   60.7672206
  27.8001123   60.7673412
  27.8003845   60.7673228
  27.8004797   60.7672403
  27.8003671   60.7671486
  27.8000868   60.7670314
  27.8000868   60.7669233
  27.8001565   60.7668427
  27.8003295   60.7667858
  27.8010556   60.7668087
  27.8012911   60.7669272
  27.8013743   60.7670418
  27.8013662   60.7671741
  27.8014024   60.7672658
  27.8016036   60.7673641
  27.8018222   60.7673824
  27.8020716   60.7672894
  27.8023063   60.7671322
  27.8024921   60.767091
  27.8026537   60.7671375
  27.8026456   60.7673529
  27.8026242   60.7674905
  27.8028354   60.7675468
  27.803052    60.7675239
  27.8033899   60.7672757
  27.8036233   60.7671591
  27.803811    60.7671067
  27.8039539   60.7670923
  27.804094    60.767127
  27.8041168   60.7672292
  27.8041007   60.7674348
  27.804149    60.7675029
  27.8043596   60.7675429
  27.8045916   60.7674748
  27.8046841   60.7673195
  27.8047927   60.7670707
  27.8049537   60.766979
  27.8052876   60.7669017
  27.8059944   60.7668539
  27.8064825   60.7667609
  27.8066508   60.7666096
  27.8066508   60.7664544
  27.8065757   60.7662814
  27.8065905   60.7661858
  27.8067662   60.7661171
  27.8071926   60.7661177
  27.8076218   60.7661603
  27.8087282   60.7662245
  27.8090823   60.7661786
  27.8092968   60.7660306
  27.8094819   60.7656651
  27.8098038   60.7655839
  27.8104562   60.7656664
  27.8108156   60.7656402
  27.8110718   60.7655033
  27.8113252   60.7652826
  27.8116216   60.7651903
  27.8119006   60.7651628
  27.8123096   60.7652112
  27.8127656   60.7654221
  27.8132135   60.7653383
  27.8136507   60.7649702
  27.8141799   60.7649952
  27.8146861   60.7651117
  27.8149594   60.7652945
  27.8150931   60.7656499
  27.814356    60.7658123
  27.8142311   60.7660043
  27.814291    60.7661283
  27.8145274   60.7662739
  27.8144597   60.7666405
  27.8162353   60.7665743
  27.8164142   60.7669982
  27.8169287   60.7672375
  27.8182261   60.7671496
  27.8191879   60.7673129
  27.8196008   60.7672158
  27.8198739   60.7669511
  27.8204075   60.7669006
  27.8213603   60.7670734
  27.821863    60.7669145
  27.8215525   60.7666068
  27.8216684   60.7664814
  27.8223957   60.7664231
  27.8229642   60.7669791
  27.8238885   60.7670697
  27.8252936   60.7665119
  27.8278843   60.7667973
  27.8320938   60.767644
  27.8333938   60.7675453
  27.8335262   60.767057
  27.8338139   60.7669385
  27.8394885   60.7668043
  27.8420228   60.7661027
  27.8441179   60.7660656
  27.8451499   60.7658732
  27.8459683   60.7659368
  27.8493755   60.7649726
  27.8492906   60.7660439
  27.8511294   60.7652472
  27.8501695   60.7644453
  27.8515359   60.7641568
  27.8512298   60.763684
  27.8516491   60.7629078
  27.8530973   60.7624704
  27.8528356   60.7613597
  27.8539396   60.7601735
  27.8528386   60.7568398
  27.8540321   60.7567018
  27.8549163   60.7571177
  27.8558088   60.7569424
  27.8557441   60.7556182
  27.8547775   60.7543695
  27.8552741   60.7537404
  27.8553515   60.7529054
  27.8548364   60.7519067
  27.8558459   60.7506431
  27.8580407   60.7490395
  27.8578373   60.7486892
  27.8570155   60.7485529
  27.8578026   60.7472926
  27.8579489   60.7455984
  27.8596647   60.7443501
  27.8592449   60.7438956
  27.8599074   60.7428491
  27.8599439   60.7413355
  27.8592878   60.7410536
  27.8623086   60.7375746
  27.8665148   60.7334784
  27.8805393   60.7134424
  27.8854662   60.7097579
  27.8892857   60.7083301
  27.8934873   60.7045846
  27.8953798   60.7022237
  27.9020592   60.6962605
  27.9245437   60.69116
  27.9305172   60.6898012
  27.9385532   60.6884235
  27.9526668   60.686003
  27.9525315   60.6857145
  27.9527926   60.6854676
  27.9525786   60.6849114
  27.9530708   60.6842703
  27.9524471   60.684045
  27.9524604   60.6836118
  27.9528977   60.6832514
  27.9530643   60.6828079
  27.9546235   60.6827574
  27.9571777   60.6774188
  27.9527483   60.6710846
  27.9515      60.6671862
  27.9576624   60.6669824
  27.9669152   60.666669
  27.9720917   60.667129
  27.9772468   60.6676414
  27.9863404   60.6685549
  27.9905376   60.6690367
  27.9912938   60.6689908
  27.9925492   60.6696766
  27.9953655   60.671215
  27.9980779   60.6704129
  28.0050087   60.6741921
  28.0178274   60.68118
  28.0151664   60.6824395
  28.0157417   60.6827283
  28.0251331   60.6874878
  28.0380412   60.6940284
  28.0420091   60.6960973
  28.0452855   60.6977896
  28.0504109   60.7004557
  28.0562374   60.7034794
  28.0602886   60.7055792
  28.0629601   60.7069668
  28.0674077   60.7093124
  28.0785245   60.7151776
  28.0868998   60.7195149
  28.0889885   60.7205952
  28.0943524   60.7229336
  28.1025495   60.7265088
  28.1110131   60.7302092
  28.1133337   60.7312156
  28.1203663   60.734281
  28.1326501   60.7396382
  28.1354613   60.7408695
  28.1368874   60.7422572
  28.1438179   60.7490038
  28.1466551   60.7517674
  28.150022    60.7550408
  28.1535784   60.758502
  28.1581625   60.762952
  28.1633835   60.7680309
  28.1714444   60.7758676
  28.1742827   60.7786193
  28.1852627   60.7796109
  28.1917025   60.7801949
  28.2013835   60.7810702
  28.2069682   60.7815711
  28.2111166   60.7819437
  28.2204938   60.782793
  28.2276254   60.7882861
  28.2313752   60.7911647
  28.2356131   60.794418
  28.245797    60.8022408
  28.2499528   60.8054275
  28.2532858   60.8079951
  28.2558445   60.8099522
  28.2588078   60.81161
  28.2611843   60.8129369
  28.2684622   60.8169924
  28.2731052   60.8195882
  28.2764091   60.8214282
  28.2789306   60.8228371
  28.2804741   60.8236999
  28.2935276   60.8309744
  28.3053338   60.8375851
  28.3119069   60.8412693
  28.3160464   60.8468449
  28.3180803   60.8495662
  28.3192487   60.8511324
  28.3199594   60.8520867
  28.3223988   60.855355
  28.3237781   60.8572223
  28.3240142   60.8575181
  28.3242268   60.8579147
  28.3250921   60.8576919
  28.326372    60.85691
  28.326968    60.8564472
  28.3277126   60.8561027
  28.3287812   60.8561009
  28.3298251   60.8563232
  28.3307166   60.8562307
  28.3321613   60.8555316
  28.3336939   60.8552552
  28.3348247   60.8549762
  28.3356509   60.8541446
  28.3362539   60.8544691
  28.3376651   60.855226
  28.3377802   60.8552884
  28.3426873   60.8579171
  28.3927528   60.8846819
  28.3935851   60.8843599
  28.3974588   60.8835537
  28.4001375   60.8856615
  28.3979857   60.8874902
  28.4638088   60.9224912
  28.4654024   60.9233269
  28.4739332   60.924204
  28.484122    60.9256902
  28.4836226   60.9268125
  28.4824115   60.9277585
  28.4835935   60.9288179
  28.4836071   60.9292671
  28.4922828   60.9351268
  28.4930266   60.9370808
  28.49538     60.9372288
  28.5056055   60.9441855
  28.5114161   60.9480759
  28.5151085   60.9505821
  28.5175049   60.9522335
  28.5199899   60.9539458
  28.5212715   60.9548288
  28.5214213   60.9549294
  28.524607    60.9571057
  28.527467    60.954915
  28.5299573   60.9547609
  28.5373565   60.956476
  28.5392465   60.956306
  28.5419575   60.9560622
  28.5424661   60.9560337
  28.5453243   60.9552721
  28.5524215   60.9549344
  28.5562594   60.9543299
  28.5728672   60.9516868
  28.5752629   60.9519156
  28.6087184   60.9548218
  28.6148217   60.9553598
  28.6217367   60.9538984
  28.6363152   60.9508348
  28.6492316   60.9481425
  28.6550021   60.9494999
  28.657789    60.9511465
  28.6651566   60.9589748
  28.6683493   60.9624396
  28.6725998   60.9668848
  28.6769191   60.9715329
  28.6815644   60.9763139
  28.684067    60.9789468
  28.6851721   60.981024
  28.6872372   60.9847712
  28.690158    60.9901657
  28.6909581   60.9906252
  28.6906904   60.9910879
  28.6920327   60.9935425
  28.6940795   60.9973259
  28.6964013   61.0016168
  28.6984772   61.005453
  28.7001583   61.0085592
  28.7019213   61.0118165
  28.7037055   61.0151124
  28.7071457   61.0214668
  28.7101878   61.0269848
  28.7109512   61.0311166
  28.7111841   61.0322392
  28.7119961   61.0356447
  28.7127042   61.0388514
  28.7133537   61.0418255
  28.7138343   61.0444583
  28.7771684   61.0795492
  28.7838457   61.0832169
  28.7905934   61.0869443
  28.8007991   61.092566
  28.8042998   61.0933928
  28.8080046   61.0965326
  28.8085799   61.0979691
  28.8106296   61.1025082
  28.8107056   61.1026672
  28.8109327   61.1032097
  28.8119555   61.1056522
  28.8134153   61.1087112
  28.8159262   61.1144604
  28.8178089   61.1186696
  28.8191007   61.1215752
  28.8216697   61.1222484
  28.8317109   61.1248653
  28.8318785   61.1249061
  28.8364267   61.1261133
  28.8366749   61.1261769
  28.8368179   61.1262204
  28.8370039   61.126239
  28.841097    61.1273066
  28.8493626   61.1294465
  28.8558021   61.1311075
  28.8727941   61.1355485
  28.8834746   61.1423758
  28.9024657   61.1445729
  28.9149631   61.1433276
  28.9262283   61.1457857
  28.9360195   61.1470434
  28.9421886   61.1478407
  28.9441825   61.1480948
  28.949393    61.1505897
  28.9504391   61.1511013
  28.9516302   61.1516839
  28.9568736   61.1515475
  28.9592743   61.1533824
  28.9651003   61.1578685
  28.9708102   61.1622601
  28.9791655   61.1687213
  28.9856715   61.173812
  28.987062    61.1743757
  28.9944917   61.1773836
  29.0065164   61.1822476
  29.0084948   61.1832419
  29.0091006   61.1833896
  29.010871    61.184118
  29.0111016   61.1843339
  29.0115361   61.1844891
  29.0125366   61.1846843
  29.0160298   61.1860978
  29.0196508   61.1875638
  29.0219797   61.1885086
  29.0243071   61.1894394
  29.0263343   61.1902515
  29.0306175   61.191984
  29.0842603   61.2104366
  29.0846592   61.2105669
  29.1397391   61.2291753
  29.1618105   61.2366194
  29.1637176   61.2376228
  29.1722029   61.2418877
  29.1727353   61.2421552
  29.1740285   61.2413599
  29.1750302   61.2410473
  29.1759235   61.2411124
  29.1766545   61.2413078
  29.1773313   61.2418288
  29.1776832   61.242467
  29.1775479   61.2430531
  29.1777103   61.2434829
  29.1778727   61.2439518
  29.17741     61.2445001
  29.1825826   61.2471554
  29.18708     61.2494267
  29.1937534   61.2528557
  29.1978217   61.25486
  29.199824    61.2563844
  29.2042313   61.2567729
  29.2071814   61.2575678
  29.208751    61.2575815
  29.2099539   61.2577496
  29.2105307   61.2581041
  29.2116411   61.2592736
  29.2125399   61.2602143
  29.2147259   61.2610107
  29.2178935   61.2614347
  29.2182901   61.262388
  29.2208017   61.2629918
  29.2221235   61.2641357
  29.2254643   61.2648456
  29.2277532   61.2654314
  29.2333908   61.2684335
  29.2389336   61.2681974
  29.244829    61.2706901
  29.2454367   61.2732813
  29.2432777   61.2747986
  29.2413461   61.2760584
  29.2547227   61.2846754
  29.2623374   61.2896725
  29.2645342   61.2910821
  29.265518    61.2916431
  29.2691878   61.2951468
  29.2722471   61.2978697
  29.2733516   61.2988863
  29.2758115   61.3011727
  29.277728    61.3029785
  29.2829475   61.3077331
  29.2917335   61.3158571
  29.3055783   61.3286319
  29.306154    61.329254
  29.310067    61.3327451
  29.3147508   61.3370443
  29.322299    61.3439766
  29.3222414   61.345236
  29.3217788   61.3467889
  29.3236294   61.3480883
  29.3248852   61.3487221
  29.3257444   61.3500848
  29.3281238   61.3519861
  29.3304371   61.3526198
  29.3326182   61.3530317
  29.3340723   61.3542991
  29.3344419   61.3550468
  29.4140391   61.4052495
  29.44446     61.4244231
  29.5031006   61.4612777
  29.4962413   61.491902
  29.5580632   61.4923345
  29.5790545   61.4958802
  29.5917921   61.4955884
  29.5928021   61.4958028
  29.5942488   61.4962731
  29.594585    61.4967325
  29.594947    61.4973036
  29.5965348   61.4976744
  29.5971608   61.4979249
  29.5982397   61.4980221
  29.5996345   61.4987472
  29.6001517   61.4993352
  29.6005747   61.5000417
  29.6008205   61.5002135
  29.6046381   61.5007473
  29.6054277   61.5007865
  29.6073299   61.5004653
  29.6066809   61.5013246
  29.6070799   61.5018231
  29.6090711   61.5029317
  29.6094903   61.5032278
  29.6097665   61.503356
  29.645237    61.5201517
  29.6452329   61.5203508
  29.6429501   61.5257931
  29.6432067   61.5260963
  29.6752639   61.5443966
  29.6848916   61.5499193
  29.6887284   61.552089
  29.6931576   61.5537341
  29.6945126   61.5542843
  29.7109916   61.5603177
  29.7299051   61.5701726
  29.7405996   61.5757677
  29.7481238   61.5832202
  29.7480677   61.5893631
  29.7484892   61.5900448
  29.7495692   61.5915368
  29.7546387   61.6031006
  29.761917    61.6074859
  29.7662055   61.6102078
  29.7693563   61.6121287
  29.7712656   61.6132633
  29.7733773   61.61439
  29.7762156   61.6162267
  29.7847672   61.6223503
  29.7894262   61.6254909
  29.7936731   61.6269073
  29.8029888   61.6348119
  29.8032072   61.6349879
  29.8038036   61.6349902
  29.8043931   61.6353728
  29.805149    61.6357483
  29.805533    61.6357793
  29.8058233   61.6357537
  29.8061284   61.6359156
  29.8063564   61.635943
  29.8068164   61.6358767
  29.8071128   61.6359729
  29.8074561   61.6358831
  29.8078142   61.6359717
  29.8082272   61.6359379
  29.8084029   61.6360023
  29.80871     61.6359704
  29.8087784   61.6358309
  29.8093551   61.6358417
  29.8096434   61.6357984
  29.8098821   61.635726
  29.8100376   61.6357187
  29.8101879   61.6357648
  29.8102299   61.6358812
  29.8105326   61.6362966
  29.8105502   61.6364012
  29.8107333   61.6366573
  29.8107287   61.6367665
  29.8106336   61.6368937
  29.8105783   61.6370615
  29.8107364   61.6371638
  29.8110643   61.6372821
  29.8112874   61.6373891
  29.8112678   61.6375463
  29.8110827   61.637898
  29.8111498   61.6379847
  29.8110854   61.6380879
  29.8111337   61.6382357
  29.8111981   61.6385427
  29.8113297   61.6387764
  29.8113751   61.6390154
  29.8121476   61.6394767
  29.8121744   61.6398054
  29.8120618   61.6402717
  29.8119914   61.6411957
  29.8130729   61.6420897
  29.8135504   61.6430248
  29.8135504   61.6432872
  29.8131745   61.6439044
  29.8130729   61.6444491
  29.8132661   61.6452134
  29.813086    61.6459901
  29.8139377   61.6470508
  29.8142902   61.6475801
  29.815209    61.6489318
  29.8161129   61.6497607
  29.8170852   61.6508249
  29.8172368   61.6510544
  29.8172447   61.6512655
  29.8178983   61.6536145
  29.8185867   61.6553277
  29.819412    61.6554028
  29.8196964   61.6558689
  29.8201202   61.6560803
  29.8204849   61.6562688
  29.8212735   61.6567266
  29.823548    61.658033
  29.8290888   61.6610361
  29.8388264   61.6666875
  29.845478    61.6705525
  29.8615924   61.6705742
  29.8615648   61.6770867
  29.8633299   61.677121
  29.8640277   61.6770362
  29.8645601   61.6781444
  29.8650722   61.6791486
  29.8656538   61.680045
  29.8665242   61.6802556
  29.8666425   61.680378
  29.868143    61.6820577
  29.8693853   61.682655
  29.8716412   61.6839871
  29.8725404   61.6845726
  29.8743471   61.6853067
  29.877049    61.6865386
  29.8786898   61.6872774
  29.8922148   61.6939907
  29.9377738   61.7167756
  29.9476427   61.7213171
  29.948485    61.7214333
  29.9494665   61.7216401
  29.950297    61.722017
  29.9506184   61.7224729
  29.9507828   61.7228355
  29.9560334   61.7255438
  29.9860884   61.7400084
  29.9913334   61.7424538
  30.0138696   61.7529283
  30.0199956   61.7557658
  30.0256804   61.7587814
  30.0262293   61.7587946
  30.0270956   61.758938
  30.0276587   61.7591942
  30.0278871   61.7595846
  30.027821    61.7598019
  30.0381487   61.7654072
  30.0473435   61.7732648
  30.0706766   61.8174971
  30.0709225   61.817965
  30.0710016   61.8184866
  30.0718954   61.818864
  30.0728683   61.8189239
  30.0740527   61.8185044
  30.0749689   61.8188308
  30.1439682   61.8522341
  30.1335846   61.8643136
  30.1073654   61.858915
  30.100501    61.8574713
  30.0947794   61.8561784
  30.0923793   61.8556546
  30.0824108   61.8532043
  30.0697705   61.8501248
  30.0604418   61.8477979
  30.0417436   61.8431425
  30.0221431   61.8382519
  29.999193    61.8317939
  29.9993604   61.8314748
  29.9994698   61.8312836
  29.9994666   61.8311297
  29.999546    61.8309927
  29.9997498   61.8309347
  30.0000154   61.8308676
  30.0004547   61.830704
  30.0008088   61.8306366
  30.0010271   61.8305573
  30.0012916   61.8304376
  30.0013262   61.830357
  30.0011157   61.8302509
  30.0005811   61.8303529
  30.0000363   61.8303664
  29.9994601   61.8303375
  29.9990197   61.8302547
  29.9987308   61.8301345
  29.9984409   61.8301035
  29.9981528   61.8300425
  29.9975338   61.829908
  29.9969083   61.8297133
  29.996393    61.8294798
  29.9956117   61.8290434
  29.9950243   61.828567
  29.9948741   61.8283439
  29.9948564   61.8281973
  29.9949437   61.82807
  29.9951777   61.8279764
  29.9953934   61.8279341
  29.9954138   61.8280306
  29.9955785   61.828039
  29.9957013   61.8279483
  29.9958381   61.8278366
  29.99594     61.8276497
  29.9958285   61.8275358
  29.9948312   61.8279086
  29.9944584   61.827961
  29.99407     61.8279883
  29.9934381   61.8282928
  29.992701    61.8285546
  29.9920251   61.8287547
  29.9906105   61.829458
  29.9821197   61.8271736
  29.982162    61.8270444
  29.9821352   61.8269489
  29.9816098   61.8265921
  29.9814995   61.8264588
  29.9814497   61.8262478
  29.9813456   61.8260903
  29.981154    61.8259136
  29.9804368   61.825472
  29.9803167   61.8253525
  29.9799895   61.8251954
  29.9794342   61.8248783
  29.9788951   61.8245217
  29.9786628   61.8243127
  29.9785094   61.8239574
  29.97879     61.8238102
  29.9788694   61.8237461
  29.9788586   61.8236587
  29.9786526   61.8235478
  29.9784676   61.8235337
  29.9783941   61.8236068
  29.9781795   61.8236253
  29.9774161   61.8236377
  29.9764452   61.8235126
  29.9761432   61.8234366
  29.9757451   61.8234158
  29.9746143   61.8232182
  29.9740845   61.8230264
  29.973403    61.8227797
  29.9730275   61.8226227
  29.9727566   61.8223843
  29.9722974   61.8219854
  29.9721467   61.8218395
  29.9720887   61.821573
  29.9719707   61.8213333
  29.9717765   61.8211289
  29.9715603   61.8209267
  29.9714171   61.8208657
  29.9712347   61.8208252
  29.9709568   61.8208406
  29.9693841   61.8209054
  29.9689012   61.8208963
  29.9676465   61.8210792
  29.9670837   61.8211383
  29.9662297   61.8212621
  29.9658236   61.8212933
  29.9654095   61.8213726
  29.9646692   61.8213984
  29.9641977   61.8215347
  29.9638908   61.8215497
  29.9635244   61.8216181
  29.9629632   61.8216478
  29.9621431   61.8217741
  29.9502727   61.8188433
  29.9191439   61.8111995
  29.8850779   61.8027888
  29.8556739   61.795534
  29.8427891   61.7923819
  29.8356737   61.7906486
  29.8015442   61.7821654
  29.793744    61.7802094
  29.792694    61.7799079
  29.7914473   61.7796324
  29.7832816   61.7775939
  29.7816154   61.7771646
  29.7795598   61.7766466
  29.7775256   61.7761428
  29.7627252   61.7724234
  29.7495094   61.7690873
  29.7428468   61.7674368
  29.7342905   61.7652838
  29.7308133   61.764425
  29.6998713   61.7566296
  29.695803    61.7556
  29.6890105   61.7539026
  29.6760995   61.7506168
  29.6694165   61.7489288
  29.6673447   61.7485449
  29.6655462   61.7480965
  29.661534    61.7471315
  29.6492886   61.7439779
  29.6425461   61.7422937
  29.6315293   61.7394403
  29.6275      61.7384361
  29.6219017   61.7369908
  29.6194652   61.7363141
  29.6156672   61.7353915
  29.6058181   61.7328171
  29.6055713   61.7327495
  29.5920991   61.7296677
  29.5775079   61.7263046
  29.5675859   61.7240145
  29.5592517   61.7220668
  29.5490044   61.6900641
  29.5384047   61.6839132
  29.5044251   61.6757412
  29.4587141   61.6690849
  29.4042944   61.6538957
  29.3923227   61.6475191
  29.3813399   61.6417945
  29.3581847   61.6297345
  29.3424427   61.6215283
  29.3266593   61.6133225
  29.2952356   61.5970093
  29.2952548   61.5962348
  29.2880892   61.5920904
  29.2857477   61.5890648
  29.2808758   61.5827683
  29.2732228   61.5729655
  29.273001    61.5726812
  29.272938    61.5726004
  29.2701241   61.5689928
  29.2678181   61.5655205
  29.2631977   61.5602061
  29.2615862   61.5577772
  29.2484745   61.5585207
  29.2309833   61.5594905
  29.2203016   61.5600648
  29.2173221   61.5595769
  29.1999329   61.5567282
  29.1750099   61.5526583
  29.1579489   61.5499832
  29.1565777   61.5497757
  29.1497113   61.5490295
  29.138682    61.5474347
  29.1208507   61.5448891
  29.1045429   61.5426397
  29.0823181   61.5394745
  29.0721025   61.5377437
  29.0681743   61.537057
  29.0490362   61.533701
  29.0454103   61.5338334
  29.0426804   61.5339373
  29.0286685   61.534418
  29.0226175   61.5345918
  29.0220993   61.5346977
  29.0215017   61.5347453
  29.0210318   61.5348214
  29.0202325   61.5349943
  29.0198248   61.5351068
  29.0194847   61.5352259
  29.0185834   61.5353691
  29.0179397   61.5354509
  29.0169923   61.535567
  29.0166995   61.5356268
  29.0163304   61.5356248
  29.0158583   61.5356861
  29.015147    61.5357102
  29.0146964   61.5357613
  29.0092493   61.5368725
  29.0051295   61.5366372
  29.0017392   61.5363918
  28.984043    61.5362701
  28.972575    61.5361806
  28.9560375   61.5406719
  28.8867246   61.5273015
  28.8782154   61.5296559
  28.873514    61.5290805
  28.8664058   61.5296957
  28.8448922   61.5342588
  28.8345436   61.5344417
  28.8334811   61.5349299
  28.8291187   61.5351865
  28.8279011   61.5348575
  28.8269591   61.5357828
  28.8235464   61.5369525
  28.8169781   61.5364801
  28.8125015   61.5352248
  28.8117741   61.5357533
  28.8178696   61.5143011
  28.8121277   61.5074363
  28.8141786   61.5015967
  28.8098446   61.5000987
  28.8070943   61.5003332
  28.8032862   61.4981867
  28.7991475   61.4979528
  28.7986231   61.4975852
  28.7927074   61.4952623
  28.7914463   61.4777609
  28.7876935   61.4781601
  28.7850549   61.4786326
  28.7812937   61.4790438
  28.7771173   61.4798895
  28.7750043   61.4801862
  28.7734099   61.4801646
  28.7723357   61.4803851
  28.769415    61.4807136
  28.7671165   61.4815092
  28.7628202   61.4823251
  28.7586266   61.482535
  28.7549769   61.4834177
  28.750022    61.4834247
  28.7464855   61.4831323
  28.7362453   61.4815556
  28.7358783   61.4814024
  28.7346767   61.4813527
  28.733842    61.4814634
  28.733091    61.4815351
  28.732812    61.4813302
  28.7324022   61.4813425
  28.731973    61.4816293
  28.7314816   61.4817195
  28.7306427   61.4817712
  28.7301706   61.4820494
  28.72972     61.482203
  28.7290977   61.482244
  28.7289475   61.4822952
  28.7289282   61.4825595
  28.7287565   61.4828259
  28.7282415   61.4830923
  28.7274261   61.4833279
  28.7272094   61.4834529
  28.7269305   61.4834733
  28.7264369   61.4833402
  28.7260314   61.4832357
  28.7260099   61.4830103
  28.7260314   61.4827644
  28.7255808   61.4826005
  28.7251946   61.4826415
  28.7247418   61.482746
  28.7242054   61.4829714
  28.7239049   61.4832275
  28.7230488   61.4833279
  28.7218472   61.4833776
  28.7205554   61.4833422
  28.7192775   61.4831159
  28.698936    61.479768
  28.695131    61.479906
  28.692709    61.477143
  28.686188    61.477026
  28.684163    61.476737
  28.682484    61.473804
  28.678079    61.468354
  28.67108     61.468736
  28.648635    61.464933
  28.649823    61.467522
  28.649265    61.470798
  28.649093    61.472164
  28.649572    61.474116
  28.647935    61.474046
  28.640139    61.471815
  28.633314    61.469822
  28.588532    61.468466
  28.5850488   61.4733118
  28.5850405   61.4733233
  28.5842858   61.4736471
  28.5840149   61.4738534
  28.5835905   61.4740086
  28.5834575   61.4741956
  28.5830782   61.4743913
  28.5829602   61.4746731
  28.5826469   61.4748184
  28.5821126   61.4750062
  28.5815118   61.4750984
  28.5810076   61.4751957
  28.5804797   61.475341
  28.5803526   61.4754101
  28.577411    61.475707
  28.5771559   61.4755595
  28.5768019   61.4753853
  28.5764886   61.4753154
  28.5761345   61.4753
  28.5757075   61.4753289
  28.575405    61.4754025
  28.5750509   61.4754844
  28.5747098   61.4756466
  28.5744072   61.4757611
  28.5741712   61.4758175
  28.5739459   61.4758226
  28.5736261   61.4759437
  28.5732614   61.4760052
  28.5730661   61.475966
  28.5728515   61.475925
  28.5725297   61.4759968
  28.5723043   61.4759968
  28.5721777   61.4759079
  28.5719739   61.4758823
  28.5717808   61.4759181
  28.5715319   61.4760019
  28.571298    61.4759796
  28.5711156   61.475872
  28.5706543   61.4756568
  28.5705684   61.4754878
  28.570562    61.4754
  28.56094     61.47446
  28.544849    61.476313
  28.53907     61.475247
  28.5374378   61.4770536
  28.5361482   61.4787504
  28.535937    61.478721
  28.534909    61.4785455
  28.5337497   61.4783457
  28.5337052   61.4783118
  28.5336078   61.4782835
  28.5334177   61.478258
  28.5333823   61.4782034
  28.5332616   61.478174
  28.5331972   61.4782047
  28.5331551   61.4782638
  28.5330542   61.4782764
  28.5328619   61.4782211
  28.5327385   61.4781648
  28.5325937   61.4781776
  28.532524    61.4781904
  28.532524    61.478216
  28.5325937   61.4782365
  28.5326098   61.4782749
  28.5325307   61.4783351
  28.5323714   61.4783259
  28.531785    61.478292
  28.5317863   61.4782929
  28.531572    61.478151
  28.531291    61.478154
  28.5308      61.478115
  28.527734    61.47876
  28.5234244   61.4777708
  28.524277    61.488693
  28.525979    61.494304
  28.525467    61.495351
  28.525395    61.4981
  28.510738    61.504261
  28.5084282   61.5045074
  28.500681    61.508071
  28.497646    61.509451
  28.496903    61.510402
  28.490828    61.513459
  28.481665    61.509302
  28.479921    61.507813
  28.473004    61.50461
  28.469006    61.502732
  28.465571    61.502401
  28.464892    61.500738
  28.46284     61.499054
  28.458194    61.500945
  28.454523    61.50603
  28.449953    61.510792
  28.446673    61.510585
  28.440045    61.511544
  28.436645    61.507512
  28.43257     61.50268
  28.4304427   61.500137
  28.422087    61.490363
  28.419458    61.484608
  28.4212553   61.4774168
  28.4228419   61.4718341
  28.4266476   61.4568534
  28.4168795   61.4551808
  28.4165958   61.4550928
  28.4160692   61.4549342
  28.410129    61.453988
  28.4040793   61.451151
  28.4013707   61.4498802
  28.391677    61.445324
  28.3697      61.440708
  28.361899    61.440293
  28.354003    61.4381
  28.355474    61.436568
  28.3558715   61.4360042
  28.3562256   61.4355733
  28.3564723   61.4351731
  28.3565904   61.43505
  28.3568586   61.4349115
  28.356931    61.4348087
  28.3568291   61.434684
  28.356842    61.4345462
  28.3568908   61.4344293
  28.35688     61.4341882
  28.356764    61.433888
  28.3547021   61.4339191
  28.3529104   61.4339727
  28.3526314   61.4339624
  28.3517087   61.433747
  28.3508719   61.4335469
  28.3500887   61.4332647
  28.3493484   61.4330852
  28.3487047   61.4330133
  28.3477391   61.4330236
  28.3471136   61.4330236
  28.3464623   61.4329877
  28.3459795   61.4329158
  28.345647    61.4327978
  28.3453406   61.4326616
  28.3447779   61.4324952
  28.3444561   61.4323361
  28.3442844   61.4322284
  28.3440269   61.4321052
  28.343587    61.4320231
  28.3432759   61.4320488
  28.3429862   61.4320488
  28.3428575   61.4319821
  28.3427073   61.4319103
  28.3426      61.4318179
  28.3424819   61.4317769
  28.3422996   61.4317358
  28.3422674   61.4316589
  28.342321    61.4315665
  28.3424267   61.4315255
  28.3424819   61.4314639
  28.3424927   61.4313818
  28.3426214   61.431233
  28.3429925   61.4309383
  28.34348     61.430599
  28.343168    61.429004
  28.341399    61.428833
  28.340065    61.427885
  28.340389    61.427595
  28.340988    61.427131
  28.339829    61.416278
  28.316762    61.414456
  28.307656    61.416905
  28.298127    61.400215
  28.286433    61.394553
  28.285526    61.391168
  28.273728    61.384195
  28.262578    61.386193
  28.260014    61.383909
  28.265784    61.376125
  28.258493    61.376785
  28.257077    61.377867
  28.256323    61.379598
  28.254433    61.380064
  28.252209    61.37969
  28.133548    61.3644068
  28.1005972   61.3625664
  28.0783173   61.358693
  28.0751118   61.3584259
  28.0599168   61.3555521
  27.9578932   61.3533822
  27.9329061   61.3505757
  27.9325482   61.3507112
  27.9318375   61.3506788
  27.9311783   61.3505169
  27.9311648   61.3503915
  27.8559465   61.3512001
  27.7926081   61.3620782
  27.7544515   61.3290499
  27.7369676   61.3295085
  27.6962683   61.3297848
  27.6826553   61.3336209
  27.6501522   61.3431587
  27.6467796   61.3438906
  27.5958445   61.343142
  27.5964903   61.3267804
  27.5888059   61.3201322
  27.5891515   61.3200985
  27.5891458   61.3199693
  27.5886269   61.3198351
  27.5887275   61.3196531
  27.6034382   61.3198487
  27.6134679   61.3175266
  27.613724    61.3174661
  27.6098177   61.30917
  27.6098924   61.308024
  27.6020322   61.307668
  27.592096    61.310831
  27.5889323   61.3063159
  27.5885273   61.3059679
  27.5884163   61.3055981
  27.584305    61.2998202
  27.5915716   61.2973254
  27.5848067   61.2931796
  27.5573425   61.303564
  27.5428027   61.2892239
  27.5589217   61.2856759
  27.5698844   61.2808917
  27.5892413   61.283864
  27.5964421   61.2808405
  27.5770541   61.2631963
  27.5723602   61.2626744
  27.5438958   61.2566939
  27.5075222   61.269802
  27.4627788   61.2680572
  27.4303054   61.2716375
  27.4356917   61.2598568
  27.438867    61.255893
  27.4364893   61.2533189
  27.4372323   61.2502895
  27.4332915   61.2476933
  27.4209719   61.2462568
  27.4192159   61.2462324
  27.4160777   61.2467292
  27.4112208   61.2468241
  27.4081258   61.2471511
  27.4058154   61.2466334
  27.4054608   61.2465968
  27.3893514   61.2449331
  27.3746086   61.2481515
  27.3697433   61.2438322
  27.3681703   61.2434505
  27.3671016   61.241559
  27.3679971   61.2406406
  27.3668587   61.239522
  27.3643628   61.2393482
  27.3643405   61.2386649
  27.3649101   61.2377624
  27.3650115   61.2373239
  27.3652244   61.2371676
  27.3654769   61.2370876
  27.3664619   61.2370495
  27.3668778   61.2369498
  27.3676697   61.2362867
  27.3673205   61.2357428
  27.3673021   61.2348718
  27.3671346   61.2346373
  27.3665067   61.2343812
  27.3662279   61.2339748
  27.3667414   61.232639
  27.3675044   61.2319663
  27.3681736   61.2312835
  27.369625    61.2304756
  27.3709774   61.2297916
  27.3721786   61.228993
  27.3721217   61.2284092
  27.372339    61.2280509
  27.3729989   61.2276325
  27.3730389   61.2275077
  27.3729      61.2269603
  27.3729968   61.2266704
  27.3735456   61.2262806
  27.3742085   61.2260696
  27.3755118   61.2259926
  27.3761385   61.2258207
  27.3763773   61.2256068
  27.3764154   61.2251359
  27.3765511   61.2248293
  27.3768411   61.2245185
  27.3767575   61.2240099
  27.3762473   61.2234514
  27.3759924   61.2231725
  27.3795876   61.219745
  27.3785349   61.2142478
  27.3797641   61.2142327
  27.3803058   61.2142866
  27.3807569   61.2143841
  27.3814266   61.2143676
  27.3820431   61.2141967
  27.3830095   61.2136983
  27.3833727   61.21325
  27.383928    61.2129539
  27.3841282   61.2127119
  27.3878283   61.2022406
  27.3849872   61.2004028
  27.3843351   61.200324
  27.3837203   61.2005332
  27.3824995   61.2004512
  27.3820573   61.2006173
  27.381092    61.2005673
  27.3587805   61.1949464
  27.3586446   61.187627
  27.3621919   61.179486
  27.3604991   61.1767612
  27.3562655   61.174029
  27.3555022   61.173542
  27.332397    61.170009
  27.3314334   61.1686282
  27.3257358   61.1676827
  27.3250126   61.1687776
  27.3210588   61.1684676
  27.32091     61.1682931
  27.3207527   61.168214
  27.3200592   61.1679136
  27.3190391   61.1679129
  27.3186928   61.1677595
  27.3184952   61.1677886
  27.3182082   61.1680686
  27.3176684   61.1680834
  27.3168447   61.1682678
  27.3164255   61.1681367
  27.3162525   61.1679538
  27.315956    61.1678969
  27.3150744   61.1683561
  27.3092805   61.1718669
  27.3088296   61.1726346
  27.3086278   61.172957
  27.3088526   61.1733367
  27.308801    61.1736576
  27.308508    61.1737707
  27.3080808   61.1738662
  27.3072468   61.1744259
  27.3065299   61.1751541
  27.3063319   61.1752745
  27.3019588   61.1772043
  27.3000565   61.1749957
  27.2859175   61.1698457
  27.2741157   61.1669856
  27.2738065   61.1669942
  27.2734938   61.1669174
  27.2733576   61.1667842
  27.2691307   61.1656207
  27.2396671   61.166278
  27.2291299   61.1670818
  27.2128451   61.1637414
  27.2058144   61.1624775
  27.2094423   61.1610085
  27.2096886   61.1591967
  27.2074292   61.1554692
  27.2079828   61.1553678
  27.2083711   61.1557011
  27.2094977   61.1556193
  27.2107444   61.1552487
  27.2113945   61.1544267
  27.2108903   61.1538594
  27.2111006   61.1531865
  27.2107744   61.1529142
  27.2125919   61.1503166
  27.2134781   61.1460258
  27.2153384   61.1458363
  27.218276    61.1427824
  27.2121127   61.1384406
  27.1867917   61.1210723
  27.1854098   61.1118529
  27.1805938   61.1091858
  27.176683    61.1070198
  27.1780434   61.1069794
  27.1786378   61.1070509
  27.1800733   61.1068031
  27.1810411   61.1063469
  27.1824272   61.1059436
  27.1825047   61.1053521
  27.1825517   61.1049939
  27.1823114   61.1041519
  27.1829143   61.1035059
  27.1836705   61.103224
  27.1844013   61.102805
  27.1866243   61.1023114
  27.1873689   61.1017204
  27.1883023   61.1015275
  27.189347    61.1015481
  27.1899889   61.1015607
  27.2019237   61.1065729
  27.2132619   61.1033649
  27.2222763   61.0978606
  27.2231796   61.0958185
  27.2281228   61.0922055
  27.2284883   61.0919383
  27.2285289   61.0902057
  27.2232752   61.090156
  27.2179692   61.0901058
  27.2123344   61.089695
  27.1850733   61.0860555
  27.1833581   61.0850311
  27.180737    61.083598
  27.1791204   61.0822915
  27.1762352   61.0800977
  27.1735964   61.0781336
  27.1692862   61.0757866
  27.1614073   61.0715472
  27.1529165   61.0708621
  27.1496506   61.067364
  27.1513694   61.0587322
  27.1468998   61.0479044
  27.1507866   61.0440423
  27.159516    61.027726
  27.1540872   61.023061
  27.1479104   61.0212542
  27.1417649   61.0146469
  27.1411518   61.0105467
END
END
