polygon
1
  26.2356112   61.1298416
  26.2353773   61.1305324
  26.2690036   61.1495383
  26.2705765   61.1630048
  26.2841292   61.1648889
  26.3027619   61.1675085
  26.3022394   61.1680901
  26.3043176   61.1684688
  26.3054752   61.1678671
  26.328391    61.1711684
  26.3384492   61.1724571
  26.3389353   61.1723759
  26.3396605   61.1724369
  26.3398504   61.1726237
  26.3476878   61.1737002
  26.3642337   61.1805181
  26.3854802   61.1881371
  26.3964021   61.2136933
  26.431304    61.2372934
  26.429308    61.2468688
  26.4293563   61.2469813
  26.4297039   61.2473472
  26.4298327   61.2475846
  26.4297469   61.2479356
  26.4298541   61.2482143
  26.4296181   61.2482039
  26.4292319   61.2483072
  26.4292104   61.2484001
  26.4293821   61.2485136
  26.4289958   61.2485549
  26.42891     61.2486581
  26.4291246   61.2489574
  26.4288242   61.249009
  26.4287598   61.2491122
  26.4290388   61.2492464
  26.4288886   61.2493703
  26.4286096   61.2494735
  26.4286954   61.2497315
  26.42891     61.2497934
  26.4287383   61.2499482
  26.4283736   61.2498553
  26.42788     61.2499482
  26.4277084   61.2502062
  26.4272149   61.2502269
  26.4268501   61.2504127
  26.4262278   61.2504643
  26.4257772   61.2506088
  26.4254339   61.2508771
  26.4251335   61.2509184
  26.4253051   61.2510525
  26.4250262   61.2511041
  26.4251549   61.2512383
  26.424876    61.2514963
  26.425112    61.2517234
  26.4254768   61.2517131
  26.4256914   61.2518988
  26.4260132   61.2519195
  26.4265282   61.2519091
  26.4268715   61.2520949
  26.4275367   61.2521775
  26.4280517   61.25226
  26.4280946   61.2524458
  26.4283307   61.2524871
  26.4287169   61.2524458
  26.4289958   61.2526728
  26.4292533   61.2529308
  26.4293177   61.2531475
  26.4296396   61.2531579
  26.4298971   61.2531372
  26.430176    61.2533952
  26.430455    61.2534262
  26.4308627   61.253581
  26.4312489   61.2536119
  26.4313347   61.2537564
  26.4312918   61.2539112
  26.4315708   61.2540454
  26.4319355   61.2540247
  26.4323003   61.254066
  26.4325149   61.2542105
  26.4326436   61.2546542
  26.4328582   61.2548503
  26.4330299   61.2550463
  26.4331586   61.2551495
  26.4333517   61.2552424
  26.433738    61.2553456
  26.433974    61.2553869
  26.4342101   61.2555933
  26.4346821   61.2556655
  26.4351113   61.2556552
  26.4353902   61.2557274
  26.4358623   61.2556861
  26.4360983   61.2557068
  26.4362485   61.2558203
  26.4365489   61.2559235
  26.4368923   61.2559441
  26.4370425   61.2557687
  26.4371927   61.2557584
  26.4373858   61.25581
  26.4377506   61.2557996
  26.4379222   61.255748
  26.4381153   61.2557893
  26.4383728   61.2557584
  26.4387805   61.2557996
  26.4391882   61.2558512
  26.4394028   61.2559441
  26.4395316   61.2560989
  26.4398534   61.2560886
  26.4400251   61.2560576
  26.4402182   61.2560886
  26.4404542   61.2560989
  26.4407546   61.2562537
  26.4407117   61.2564188
  26.4408619   61.2565116
  26.4411623   61.2564291
  26.4413555   61.2563672
  26.4416988   61.2563981
  26.4417846   61.2565426
  26.4420206   61.2565942
  26.4424498   61.2566148
  26.4425142   61.2565426
  26.4424069   61.2563775
  26.4425785   61.2563053
  26.4427931   61.2563878
  26.443115    61.2563981
  26.4434369   61.2563878
  26.4434583   61.2565426
  26.4434154   61.2566767
  26.4437587   61.2570379
  26.4437158   61.2572855
  26.4435871   61.257461
  26.4432652   61.2575332
  26.4432437   61.2577189
  26.4430077   61.2579046
  26.4430292   61.2580801
  26.4432301   61.2580902
  26.4432008   61.2582555
  26.443351    61.2586166
  26.4433939   61.2587817
  26.44363     61.2588746
  26.443866    61.2588849
  26.4440377   61.2589365
  26.4444668   61.2589261
  26.444381    61.2591531
  26.4446599   61.2593079
  26.4445956   61.259442
  26.4444239   61.2596484
  26.4445527   61.2597825
  26.4447458   61.2597516
  26.444896    61.2598857
  26.4448745   61.2600817
  26.4449389   61.2603809
  26.4444668   61.2604738
  26.4445741   61.260577
  26.4450247   61.2606698
  26.4448531   61.2609071
  26.4450462   61.2610928
  26.4448101   61.2611547
  26.4447458   61.2612579
  26.4450247   61.2613817
  26.4447458   61.2617325
  26.4447458   61.2618357
  26.4443166   61.2620214
  26.4441879   61.2622793
  26.4440377   61.2624547
  26.4439304   61.2628364
  26.4673326   61.263131
  26.4848635   61.2652665
  26.5051196   61.2697732
  26.5136645   61.2743243
  26.5139769   61.2715918
  26.5142212   61.2715947
  26.5145744   61.2714718
  26.51508     61.2716051
  26.5153813   61.271583
  26.5157031   61.271695
  26.5159597   61.2718594
  26.5164795   61.2719202
  26.5183483   61.272049
  26.5216639   61.2712736
  26.5223394   61.271187
  26.5228781   61.2712961
  26.5231449   61.2713216
  26.5233259   61.2714748
  26.5237462   61.2716854
  26.5239285   61.2717139
  26.5240999   61.2716587
  26.5243012   61.2717836
  26.5246603   61.2717673
  26.5249432   61.271853
  26.5249513   61.2721741
  26.5251906   61.2723182
  26.5252232   61.2724582
  26.525555    61.272502
  26.525593    61.27264
  26.5258867   61.2727474
  26.5261803   61.2730117
  26.5264361   61.2730424
  26.5267707   61.2729714
  26.5270944   61.27289
  26.5275504   61.2729079
  26.5279412   61.2728368
  26.5284407   61.2728677
  26.5291578   61.2728673
  26.5295451   61.2728063
  26.5313902   61.272165
  26.5318864   61.2721786
  26.5321949   61.2722269
  26.5322555   61.2723341
  26.532091    61.2724536
  26.5320275   61.2725662
  26.5321493   61.2726613
  26.5326176   61.2727426
  26.5330338   61.273087
  26.5333191   61.2731858
  26.5341818   61.2733263
  26.5349479   61.274106
  26.5347054   61.2755642
  26.5364055   61.2760296
  26.5395894   61.2767476
  26.5401149   61.2767872
  26.5407331   61.2770942
  26.5422478   61.2774853
  26.5445416   61.2771616
  26.5456681   61.277343
  26.5476315   61.2770646
  26.5485413   61.2771873
  26.5488782   61.2769285
  26.5496483   61.2770088
  26.5502021   61.2768811
  26.5505133   61.2763778
  26.5617936   61.2705529
  26.5730401   61.2740615
  26.5732872   61.274356
  26.5736996   61.2744225
  26.5738517   61.2745501
  26.5743401   61.2746705
  26.5750542   61.2750297
  26.5757931   61.2754908
  26.5760621   61.2755725
  26.5767502   61.2756754
  26.5770937   61.275657
  26.5773537   61.2755656
  26.5774814   61.2754583
  26.577824    61.2754401
  26.5780659   61.2754942
  26.5894353   61.2791677
  26.6171833   61.2870652
  26.6291503   61.2925945
  26.6330298   61.2876546
  26.6331156   61.2874669
  26.6330416   61.2871474
  26.6336199   61.2866577
  26.6341542   61.286625
  26.6342309   61.2865518
  26.6342647   61.2862783
  26.6340855   61.2862106
  26.6346209   61.2859889
  26.634755    61.2858052
  26.6351155   61.2855149
  26.6356493   61.2855119
  26.6358343   61.2853858
  26.6364781   61.2852258
  26.6372028   61.2848369
  26.6381453   61.2845312
  26.6386018   61.2843941
  26.6395551   61.2842477
  26.6398609   61.2841567
  26.639966    61.2839474
  26.6398534   61.2836417
  26.6399349   61.283436
  26.6405539   61.2832164
  26.6418259   61.2824865
  26.6448664   61.2757581
  26.6500297   61.2643883
  26.6503311   61.2642702
  26.651519    61.2639506
  26.6520118   61.2639643
  26.6520252   61.2638542
  26.6517758   61.2637209
  26.6517919   61.2633299
  26.6520976   61.2629969
  26.6670027   61.2523107
  26.6711146   61.2435838
  26.6298701   61.2210325
  26.6613125   61.206878
  26.7454281   61.2296451
  26.7507374   61.2352368
  26.7544115   61.236536
  26.7547495   61.2381555
  26.760537    61.239618
  26.7631178   61.2432478
  26.761251    61.2444504
  26.7633453   61.2463693
  26.7638731   61.2485967
  26.7698675   61.2543953
  26.7700569   61.2549465
  26.7705193   61.256437
  26.7724242   61.2568268
  26.7733908   61.2585811
  26.771943    61.266148
  26.7793712   61.2700585
  26.7809688   61.269845
  26.808956    61.2754009
  26.8288532   61.2794173
  26.8318192   61.2799907
  26.8523989   61.2837023
  26.8811768   61.2852132
  26.8808478   61.284481
  26.8803046   61.281731
  26.8780143   61.2781748
  26.8795075   61.2754561
  26.8967172   61.2441064
  26.8908481   61.2424448
  26.8994119   61.2351639
  26.9028623   61.235136
  26.9054737   61.2340817
  26.9071592   61.2316855
  26.9144945   61.2284855
  26.9190521   61.2275281
  26.9207591   61.2257733
  26.9213234   61.2198853
  26.9267801   61.2183454
  26.926308    61.2153172
  26.9265548   61.2152784
  26.9254798   61.2125532
  26.9294097   61.2122091
  26.9301178   61.2100819
  26.9294387   61.2099372
  26.9272468   61.206456
  26.9121768   61.1831706
  26.9180701   61.1811842
  26.9200024   61.1810053
  26.9210688   61.1802171
  26.9332172   61.1761125
  26.9365226   61.1749956
  26.9502588   61.1728028
  26.954546    61.1713967
  26.9669754   61.1692968
  27.000889    61.1603992
  27.0038356   61.1596589
  27.0229196   61.1563241
  27.0312398   61.1520595
  27.0473459   61.1512995
  27.0561393   61.1516355
  27.0785849   61.155264
  27.0798641   61.1552875
  27.0810205   61.1556683
  27.0839443   61.1559779
  27.0862251   61.1555068
  27.096366    61.1553686
  27.1115387   61.1579244
  27.1139133   61.1594616
  27.1179881   61.1618463
  27.1209053   61.1643824
  27.1241475   61.1641175
  27.1317296   61.1610385
  27.1413201   61.1616719
  27.1449729   61.1626157
  27.1471727   61.163184
  27.1571902   61.1623053
  27.1621362   61.1621966
  27.1667485   61.1609903
  27.1726462   61.1616512
  27.1855455   61.1619146
  27.2058144   61.1624775
  27.2094423   61.1610085
  27.2096886   61.1591967
  27.2074292   61.1554692
  27.2079828   61.1553678
  27.2083711   61.1557011
  27.2094977   61.1556193
  27.2107444   61.1552487
  27.2113945   61.1544267
  27.2108903   61.1538594
  27.2111006   61.1531865
  27.2107744   61.1529142
  27.2125919   61.1503166
  27.2134781   61.1460258
  27.2153384   61.1458363
  27.218276    61.1427824
  27.2121127   61.1384406
  27.1867917   61.1210723
  27.1854098   61.1118529
  27.1805938   61.1091858
  27.176683    61.1070198
  27.1780434   61.1069794
  27.1786378   61.1070509
  27.1800733   61.1068031
  27.1810411   61.1063469
  27.1824272   61.1059436
  27.1825047   61.1053521
  27.1825517   61.1049939
  27.1823114   61.1041519
  27.1829143   61.1035059
  27.1836705   61.103224
  27.1844013   61.102805
  27.1866243   61.1023114
  27.1873689   61.1017204
  27.1883023   61.1015275
  27.189347    61.1015481
  27.1899889   61.1015607
  27.2019237   61.1065729
  27.2132619   61.1033649
  27.2222763   61.0978606
  27.2231796   61.0958185
  27.2281228   61.0922055
  27.2284883   61.0919383
  27.2285289   61.0902057
  27.2232752   61.090156
  27.2179692   61.0901058
  27.2123344   61.089695
  27.1850733   61.0860555
  27.1833581   61.0850311
  27.180737    61.083598
  27.1791204   61.0822915
  27.1762352   61.0800977
  27.1735964   61.0781336
  27.1692862   61.0757866
  27.1614073   61.0715472
  27.1529165   61.0708621
  27.1496506   61.067364
  27.1513694   61.0587322
  27.1468998   61.0479044
  27.1507866   61.0440423
  27.159516    61.027726
  27.1540872   61.023061
  27.1479104   61.0212542
  27.1417649   61.0146469
  27.1411518   61.0105467
  27.1495884   61.0080954
  27.1616047   61.0046673
  27.1667808   60.9997595
  27.1719908   60.9980019
  27.1733329   60.9980024
  27.186612    61.0031442
  27.1906734   61.0041602
  27.1929828   61.007657
  27.1946458   61.0073814
  27.1950642   61.0071994
  27.1952573   61.0070174
  27.1956328   61.0069394
  27.1958367   61.0069602
  27.1960512   61.0070174
  27.1966842   61.0068874
  27.1968559   61.006799
  27.1973065   61.0062477
  27.1975962   61.0060293
  27.1980361   61.0058473
  27.1980683   61.0056809
  27.1983043   61.0056237
  27.1984652   61.0055093
  27.1987764   61.0054052
  27.1990446   61.005218
  27.1990339   61.0050672
  27.1992592   61.0047656
  27.1992377   61.00462
  27.199109    61.0044067
  27.1993235   61.0040583
  27.1997098   61.0038554
  27.2000853   61.0037462
  27.2002462   61.0035954
  27.2003213   61.0034082
  27.2005252   61.003351
  27.2009329   61.003351
  27.2011689   61.0032209
  27.2014049   61.0032105
  27.201523    61.0031533
  27.2016946   61.0031845
  27.2018877   61.0031325
  27.2020809   61.0031481
  27.2022847   61.0032677
  27.2024778   61.0032157
  27.2027031   61.0031845
  27.2029928   61.0032157
  27.2030894   61.0031065
  27.2032503   61.0031897
  27.2033469   61.0031377
  27.2033361   61.0029921
  27.2036258   61.0029921
  27.2036902   61.0029297
  27.2036902   61.0027529
  27.2037438   61.0027373
  27.2038404   61.0028465
  27.2038833   61.0027685
  27.2039369   61.0026384
  27.2042266   61.002654
  27.2042159   61.0025708
  27.2042803   61.0025448
  27.2044519   61.002576
  27.2045163   61.0025292
  27.204527    61.0023472
  27.2043983   61.0022536
  27.2045807   61.0020663
  27.2048703   61.0018687
  27.2049025   61.001697
  27.2046343   61.0016398
  27.2047523   61.0015514
  27.2046558   61.0014318
  27.2044519   61.0013434
  27.2044519   61.0012549
  27.2043124   61.0011769
  27.2043339   61.0009273
  27.2042481   61.0008388
  27.2043446   61.0005996
  27.2045485   61.0005476
  27.2047523   61.0005892
  27.2056965   61.0006152
  27.2059432   61.0005632
  27.2062866   61.0004539
  27.2064797   61.0004279
  27.2067372   61.0002355
  27.2066835   61.0001002
  27.2071019   60.9998454
  27.2071127   60.9997413
  27.2072951   60.9997309
  27.2072843   60.9996061
  27.2070912   60.9995749
  27.2068766   60.9992888
  27.2071019   60.9991328
  27.2073058   60.9989351
  27.2071663   60.9988883
  27.2072414   60.9987947
  27.2072414   60.9987166
  27.2071663   60.9986438
  27.2073809   60.9984617
  27.2074667   60.9982433
  27.2074667   60.9981652
  27.2071985   60.9980768
  27.2071663   60.99803
  27.2074453   60.9980092
  27.2073165   60.9978063
  27.2074131   60.9977699
  27.2077135   60.9977959
  27.2081212   60.9977023
  27.2082607   60.9975514
  27.2079603   60.997463
  27.207971    60.997333
  27.2082821   60.9971925
  27.2082177   60.9970104
  27.2084431   60.9968232
  27.2083218   60.9965607
  27.2085396   60.9962666
  27.2088722   60.9961365
  27.2088186   60.9959804
  27.2089688   60.9958348
  27.2093228   60.9957567
  27.2093979   60.9956319
  27.2091619   60.9954914
  27.2093228   60.9953094
  27.2093105   60.9948208
  27.2091689   60.9943612
  27.2092917   60.9937916
  27.2094145   60.9936579
  27.2093775   60.993327
  27.2089591   60.993301
  27.2085482   60.9928445
  27.2086324   60.9922253
  27.2088756   60.991991
  27.2093282   60.9918614
  27.2091549   60.9914717
  27.2096281   60.9912657
  27.2098383   60.991095
  27.2098249   60.9909436
  27.2101328   60.9908867
  27.2100545   60.9907407
  27.2103163   60.9906879
  27.2103308   60.9905885
  27.2106462   60.9906299
  27.2108195   60.9905693
  27.2107664   60.9902618
  27.210952    60.9901996
  27.2111902   60.9902069
  27.2117427   60.9900466
  27.2116064   60.9898585
  27.2116311   60.9895581
  27.2118173   60.9894959
  27.2121123   60.9895984
  27.2127067   60.9894035
  27.2124846   60.9891683
  27.213285    60.9884516
  27.2141663   60.988233
  27.2146406   60.98822
  27.2148348   60.9882749
  27.2155879   60.9882559
  27.2158717   60.9883743
  27.2168647   60.9885065
  27.2176178   60.988814
  27.2180883   60.988302
  27.2180807   60.988282
  27.2175545   60.9869038
  27.2146384   60.9859659
  27.2133821   60.9847366
  27.2133815   60.983851
  27.2127909   60.9825819
  27.2125806   60.9786249
  27.2160847   60.9741413
  27.2165838   60.9739663
  27.2175414   60.9736306
  27.2185135   60.9729492
  27.2198412   60.9723213
  27.2210514   60.9717874
  27.2212021   60.9715662
  27.2212144   60.9712989
  27.2209403   60.9710154
  27.2204548   60.9704055
  27.2195638   60.9700806
  27.2192425   60.969789
  27.2287519   60.9712294
  27.241635    60.9731807
  27.2483459   60.9703111
  27.2483104   60.9691526
  27.2482988   60.9687743
  27.2482858   60.9683472
  27.2481425   60.9677794
  27.2474489   60.9675228
  27.2457646   60.9674207
  27.2453182   60.9672132
  27.2453911   60.966918
  27.2458578   60.9667136
  27.2457522   60.9663843
  27.2444191   60.9651262
  27.2442158   60.9646766
  27.2416527   60.9634763
  27.2346049   60.9632415
  27.2266462   60.9605876
  27.222064    60.9602658
  27.2200426   60.9585804
  27.2170676   60.9571683
  27.2160827   60.9570586
  27.2147293   60.9563013
  27.2136391   60.9562087
  27.2123383   60.9556559
  27.2051081   60.9544396
  27.2022306   60.9543474
  27.1998993   60.9534192
  27.1976891   60.9533541
  27.1969832   60.9524065
  27.1952397   60.9519523
  27.1938042   60.9520148
  27.1912422   60.9527024
  27.1890031   60.9529259
  27.1876501   60.9526243
  27.1863627   60.9519799
  27.1849465   60.9508557
  27.1800616   60.9504593
  27.1743314   60.9507369
  27.1721674   60.9524482
  27.1709872   60.9526711
  27.1696311   60.9530764
  27.1684498   60.9541427
  27.1658116   60.9530139
  27.1643632   60.9529243
  27.1615394   60.9529509
  27.160621    60.9535468
  27.1602734   60.9545271
  27.1597144   60.9547204
  27.1591458   60.9545089
  27.1584988   60.9532369
  27.1570247   60.9524545
  27.1541944   60.9524331
  27.152295    60.9532134
  27.1509217   60.9532134
  27.1493768   60.9542136
  27.1457229   60.9552803
  27.1456221   60.9567799
  27.1420816   60.9580883
  27.1407079   60.9594221
  27.1389241   60.9634826
  27.1350198   60.9648615
  27.1329831   60.966296
  27.1318817   60.9661487
  27.1294183   60.9669089
  27.1260226   60.9654613
  27.1243597   60.9651765
  27.1228201   60.9644787
  27.1211303   60.9640085
  27.1238468   60.9613001
  27.1278809   60.9588148
  27.1324675   60.9548006
  27.1361399   60.9512422
  27.1607317   60.936643
  27.1843867   60.9247535
  27.2063741   60.9089677
  27.2076983   60.9080505
  27.2124469   60.9046824
  27.2132829   60.9040894
  27.2553464   60.8985358
  27.2587495   60.8983835
  27.2772289   60.8967408
  27.3054178   60.8935073
  27.3090678   60.8921452
  27.3162175   60.8902725
  27.3202129   60.890093
  27.3276799   60.8888821
  27.3346822   60.8878633
  27.3390962   60.887701
  27.3436364   60.8866358
  27.3509094   60.8851572
  27.3603885   60.8830404
  27.3726056   60.8789931
  27.3860396   60.8711847
  27.3872777   60.8687457
  27.3887282   60.866951
  27.3915563   60.8643518
  27.4055424   60.8565823
  27.4081817   60.8541861
  27.4098934   60.8530774
  27.4177766   60.8480462
  27.4283735   60.842625
  27.4306168   60.840653
  27.4528201   60.8205976
  27.4863726   60.807002
  27.4920962   60.8045245
  27.5047307   60.7992157
  27.5103489   60.7990632
  27.5496183   60.7978481
  27.5631037   60.8001821
  27.5782802   60.8026057
  27.5882309   60.8039202
  27.6008949   60.8044574
  27.6060965   60.8058553
  27.6164004   60.8054903
  27.6272318   60.8047788
  27.6407467   60.803601
  27.6528707   60.8026483
  27.6625501   60.8014085
  27.6642313   60.80121
  27.6782519   60.8016487
  27.685752    60.8003481
  27.6898474   60.7990631
  27.7032577   60.7959837
  27.7138414   60.7953333
  27.7136375   60.7948824
  27.7143678   60.7947466
  27.7152814   60.7943089
  27.7155164   60.7939097
  27.7160621   60.7934409
  27.7160163   60.7934172
  27.7153873   60.7934327
  27.7146507   60.7937367
  27.7135691   60.7947743
  27.7104527   60.789918
  27.7275408   60.7627883
  27.7513902   60.7575558
  27.7732803   60.7588817
  27.7920066   60.7687729
  27.7925044   60.7688122
  27.7927927   60.7691319
  27.7929577   60.769221
  27.7932004   60.7692996
  27.7934351   60.7692793
  27.793643    60.7689499
  27.7937538   60.7689065
  27.7938626   60.7689021
  27.7939511   60.7689217
  27.7941777   60.7690566
  27.7943306   60.7690841
  27.7944607   60.7690606
  27.794505    60.7690167
  27.7944701   60.7689237
  27.7943105   60.7687868
  27.7940745   60.7686087
  27.7940106   60.7685104
  27.7940019   60.7683533
  27.7942919   60.7677835
  27.7944327   60.7676784
  27.79465     60.7676182
  27.7952897   60.7676431
  27.796152    60.7675926
  27.7966133   60.7675258
  27.7968024   60.7675082
  27.7970183   60.7675514
  27.797186    60.7676732
  27.7971685   60.7679332
  27.7972302   60.7680328
  27.7973335   60.7681199
  27.797477    60.7681664
  27.7976728   60.768184
  27.7979437   60.7681716
  27.798961    60.7679037
  27.7991058   60.7678232
  27.7992265   60.7671689
  27.7993519   60.7671388
  27.7995504   60.7671624
  27.7997314   60.7672206
  27.8001123   60.7673412
  27.8003845   60.7673228
  27.8004797   60.7672403
  27.8003671   60.7671486
  27.8000868   60.7670314
  27.8000868   60.7669233
  27.8001565   60.7668427
  27.8003295   60.7667858
  27.8010556   60.7668087
  27.8012911   60.7669272
  27.8013743   60.7670418
  27.8013662   60.7671741
  27.8014024   60.7672658
  27.8016036   60.7673641
  27.8018222   60.7673824
  27.8020716   60.7672894
  27.8023063   60.7671322
  27.8024921   60.767091
  27.8026537   60.7671375
  27.8026456   60.7673529
  27.8026242   60.7674905
  27.8028354   60.7675468
  27.803052    60.7675239
  27.8033899   60.7672757
  27.8036233   60.7671591
  27.803811    60.7671067
  27.8039539   60.7670923
  27.804094    60.767127
  27.8041168   60.7672292
  27.8041007   60.7674348
  27.804149    60.7675029
  27.8043596   60.7675429
  27.8045916   60.7674748
  27.8046841   60.7673195
  27.8047927   60.7670707
  27.8049537   60.766979
  27.8052876   60.7669017
  27.8059944   60.7668539
  27.8064825   60.7667609
  27.8066508   60.7666096
  27.8066508   60.7664544
  27.8065757   60.7662814
  27.8065905   60.7661858
  27.8067662   60.7661171
  27.8071926   60.7661177
  27.8076218   60.7661603
  27.8087282   60.7662245
  27.8090823   60.7661786
  27.8092968   60.7660306
  27.8094819   60.7656651
  27.8098038   60.7655839
  27.8104562   60.7656664
  27.8108156   60.7656402
  27.8110718   60.7655033
  27.8113252   60.7652826
  27.8116216   60.7651903
  27.8119006   60.7651628
  27.8123096   60.7652112
  27.8127656   60.7654221
  27.8132135   60.7653383
  27.8136507   60.7649702
  27.8141799   60.7649952
  27.8146861   60.7651117
  27.8149594   60.7652945
  27.8150931   60.7656499
  27.814356    60.7658123
  27.8142311   60.7660043
  27.814291    60.7661283
  27.8145274   60.7662739
  27.8144597   60.7666405
  27.8162353   60.7665743
  27.8164142   60.7669982
  27.8169287   60.7672375
  27.8182261   60.7671496
  27.8191879   60.7673129
  27.8196008   60.7672158
  27.8198739   60.7669511
  27.8204075   60.7669006
  27.8213603   60.7670734
  27.821863    60.7669145
  27.8215525   60.7666068
  27.8216684   60.7664814
  27.8223957   60.7664231
  27.8229642   60.7669791
  27.8238885   60.7670697
  27.8252936   60.7665119
  27.8278843   60.7667973
  27.8320938   60.767644
  27.8333938   60.7675453
  27.8335262   60.767057
  27.8338139   60.7669385
  27.8394885   60.7668043
  27.8420228   60.7661027
  27.8441179   60.7660656
  27.8451499   60.7658732
  27.8459683   60.7659368
  27.8493755   60.7649726
  27.8492906   60.7660439
  27.8511294   60.7652472
  27.8501695   60.7644453
  27.8515359   60.7641568
  27.8512298   60.763684
  27.8516491   60.7629078
  27.8530973   60.7624704
  27.8528356   60.7613597
  27.8539396   60.7601735
  27.8528386   60.7568398
  27.8540321   60.7567018
  27.8549163   60.7571177
  27.8558088   60.7569424
  27.8557441   60.7556182
  27.8547775   60.7543695
  27.8552741   60.7537404
  27.8553515   60.7529054
  27.8548364   60.7519067
  27.8558459   60.7506431
  27.8580407   60.7490395
  27.8578373   60.7486892
  27.8570155   60.7485529
  27.8578026   60.7472926
  27.8579489   60.7455984
  27.8596647   60.7443501
  27.8592449   60.7438956
  27.8599074   60.7428491
  27.8599439   60.7413355
  27.8592878   60.7410536
  27.8623086   60.7375746
  27.8665148   60.7334784
  27.8805393   60.7134424
  27.8854662   60.7097579
  27.8892857   60.7083301
  27.8934873   60.7045846
  27.8953798   60.7022237
  27.9020592   60.6962605
  27.9245437   60.69116
  27.9305172   60.6898012
  27.9385532   60.6884235
  27.9526668   60.686003
  27.9525315   60.6857145
  27.9527926   60.6854676
  27.9525786   60.6849114
  27.9530708   60.6842703
  27.9524471   60.684045
  27.9524604   60.6836118
  27.9528977   60.6832514
  27.9530643   60.6828079
  27.9546235   60.6827574
  27.9571777   60.6774188
  27.9527483   60.6710846
  27.9515      60.6671862
  27.9576624   60.6669824
  27.9669152   60.666669
  27.9720917   60.667129
  27.9772468   60.6676414
  27.9863404   60.6685549
  27.9905376   60.6690367
  27.9912938   60.6689908
  27.9828908   60.6644016
  27.9716187   60.6582788
  27.9563254   60.6499683
  27.9518532   60.6475157
  27.9508997   60.6469928
  27.9223706   60.6312012
  27.9120254   60.6255605
  27.9109404   60.6249787
  27.9040093   60.6212004
  27.9015776   60.6198781
  27.8838725   60.6102491
  27.8831612   60.6098852
  27.8769845   60.6065031
  27.8735175   60.6046046
  27.8734261   60.6045527
  27.8621551   60.5947422
  27.8479463   60.5824022
  27.8480095   60.5820684
  27.8477542   60.5817876
  27.8470765   60.5815349
  27.8468044   60.5813046
  27.8460633   60.5811448
  27.8458259   60.5809767
  27.8446146   60.5807424
  27.8442904   60.5804514
  27.8441685   60.580152
  27.8437277   60.5799046
  27.8424722   60.5799966
  27.8424202   60.5800782
  27.841693    60.5801343
  27.8413636   60.5800493
  27.8413779   60.5798809
  27.8410142   60.5798639
  27.8405156   60.5795577
  27.8405848   60.5795186
  27.8404948   60.5793842
  27.8403043   60.579425
  27.8400722   60.5792858
  27.8401416   60.5791171
  27.8400307   60.5788432
  27.8394524   60.5787751
  27.839208    60.5787324
  27.8392663   60.578623
  27.8390396   60.5785858
  27.8389172   60.5784922
  27.8386279   60.5785164
  27.8384429   60.5784587
  27.8384867   60.5778964
  27.8385737   60.5777344
  27.8395022   60.5776724
  27.8400803   60.5775813
  27.8408688   60.5773263
  27.8417026   60.5768583
  27.8427064   60.5761121
  27.8436661   60.575537
  27.8440898   60.5752941
  27.8446584   60.574867
  27.8446519   60.5745692
  27.8443772   60.5733887
  27.8440457   60.5725046
  27.8436256   60.5717198
  27.8428112   60.5705999
  27.8421973   60.5693641
  27.8417358   60.569088
  27.8421327   60.5684798
  27.842912    60.5670452
  27.8428523   60.5667427
  27.8424486   60.5663805
  27.8420803   60.5661752
  27.8423414   60.5658692
  27.8425649   60.565363
  27.8428066   60.5650419
  27.8432044   60.5642067
  27.8433161   60.5640676
  27.8438974   60.5632084
  27.8453952   60.5622094
  27.8466538   60.5617508
  27.8473921   60.5614379
  27.8470961   60.5612943
  27.8360636   60.5589316
  27.8341796   60.5585218
  27.8292572   60.557466
  27.8260732   60.5567835
  27.8200051   60.5554769
  27.8154925   60.5545074
  27.8144406   60.5542828
  27.814403    60.5542746
  27.8141601   60.5541549
  27.8127508   60.5534696
  27.8060565   60.550223
  27.80321     60.5488298
  27.7989106   60.5467271
  27.7966624   60.5456351
  27.7961072   60.5453396
  27.7954289   60.5449785
  27.7951486   60.5448293
  27.7950909   60.5447986
  27.7784347   60.5357593
  27.7782222   60.5356439
  27.7744141   60.5335769
  27.776632    60.5076802
  27.7730592   60.5060426
  27.7720243   60.5055683
  27.7714165   60.5052896
  27.7683117   60.5038658
  27.7648777   60.4954838
  27.7681878   60.4890601
  27.7565863   60.4719101
  27.756494    60.4717737
  27.7561124   60.4716553
  27.7482549   60.4692183
  27.7479527   60.4511705
  27.7130504   60.4422592
  27.6943923   60.4375733
  27.6869201   60.4335706
  27.7257747   60.3916766
  27.6697877   60.3571169
  27.6175896   60.3248066
  27.6173404   60.3246523
  27.6169676   60.3244211
  27.5859624   60.3051874
  27.5453047   60.2799142
  27.5047098   60.2546468
  27.4566541   60.2232587
  27.4560114   60.223152
  27.2930435   60.2002026
  26.8756332   60.2003421
  26.7646434   60.2001821
  26.741517    60.1892411
  26.6561488   60.1712626
  26.6447447   60.1891919
  26.5804361   60.2797889
  26.5795284   60.2872587
  26.5519952   60.3671476
  26.4713143   60.401038
  26.4886521   60.4242532
  26.4774941   60.4555026
  26.4561017   60.4846987
  26.4558273   60.485073
  26.455009    60.4861893
  26.4518819   60.4904547
  26.4498556   60.4906713
  26.4481605   60.4914745
  26.448044    60.4922907
  26.448021    60.4924522
  26.4482454   60.492986
  26.4490545   60.4935407
  26.4514199   60.4952176
  26.4530592   60.4956192
  26.4557882   60.4956496
  26.4575247   60.496097
  26.4596566   60.496344
  26.4629397   60.4964324
  26.4639384   60.49718
  26.4639784   60.4975326
  26.4628332   60.4979735
  26.4617945   60.4988259
  26.4609956   60.4997833
  26.4617812   60.5010488
  26.4627      60.5018815
  26.4655097   60.5035337
  26.4677335   60.504091
  26.4681463   60.50514
  26.466828    60.5068839
  26.4667156   60.5082875
  26.4668364   60.5090805
  26.4675613   60.5099777
  26.4657289   60.511068
  26.4657188   60.5114744
  26.466484    60.5118115
  26.4670277   60.5117421
  26.4688155   60.5129684
  26.470529    60.5144593
  26.4729522   60.5144338
  26.4757216   60.5146127
  26.4847567   60.5144338
  26.4895686   60.5135222
  26.492511    60.5145871
  26.4938569   60.5156669
  26.4935648   60.5166623
  26.4913625   60.519372
  26.4918007   60.5207322
  26.4945648   60.5218547
  26.494812    60.5230213
  26.4962727   60.5240829
  26.4985986   60.5246247
  26.5035988   60.5246966
  26.5063292   60.5242432
  26.5083629   60.5249454
  26.5112057   60.5273116
  26.5109136   60.530645
  26.5066101   60.534365
  26.5034864   60.5357854
  26.5035426   60.5361944
  26.5023291   60.5382338
  26.5015875   60.538593
  26.4994863   60.5385267
  26.4973514   60.5391622
  26.4908926   60.5393666
  26.4880582   60.540915
  26.4882152   60.5435199
  26.4931898   60.5444749
  26.4973299   60.5462425
  26.5006105   60.545442
  26.5071469   60.5487292
  26.5059721   60.5502881
  26.5089183   60.554186
  26.5148824   60.5531444
  26.5169269   60.5506289
  26.5259419   60.5517539
  26.536889    60.5531218
  26.5391518   60.5534413
  26.5442896   60.554889
  26.5453807   60.5590288
  26.5417866   60.5750065
  26.5391398   60.5949455
  26.5387514   60.5951735
  26.5372892   60.5953702
  26.5300548   60.5964418
  26.5185014   60.5980892
  26.5181683   60.5981297
  26.5123066   60.598978
  26.494582    60.5976776
  26.4834471   60.5968459
  26.4829627   60.6008427
  26.4818812   60.6094094
  26.4818308   60.6117887
  26.4818351   60.6124016
  26.481848    60.6142189
  26.4782649   60.6180441
  26.4779631   60.6183834
  26.4775361   60.6188303
  26.4753635   60.6210789
  26.4744743   60.6220207
  26.464017    60.6330947
  26.461932    60.6353143
  26.4584291   60.6390857
  26.443825    60.6447292
  26.4313956   60.649547
  26.4119121   60.6522278
  26.3862412   60.6558206
  26.3530419   60.6605186
  26.3470895   60.6613555
  26.3584602   60.6665592
  26.3620886   60.6682274
  26.3557597   60.670262
  26.338438    60.6758299
  26.3336539   60.6833102
  26.3297026   60.689487
  26.3250817   60.6966297
  26.3274787   60.7023788
  26.3302868   60.7091125
  26.3304182   60.7094277
  26.3308645   60.7093967
  26.3309128   60.7106606
  26.3310187   60.7109795
  26.3314782   60.7119124
  26.3309374   60.7122404
  26.3288357   60.7135153
  26.3229327   60.7171737
  26.3132317   60.7231015
  26.312928    60.7233916
  26.3067166   60.727125
  26.3064414   60.7273023
  26.3004593   60.7309424
  26.2983575   60.7309187
  26.2980662   60.7309339
  26.2981625   60.7316355
  26.29803     60.7320703
  26.2979304   60.7323794
  26.2979128   60.7324339
  26.2978859   60.7329814
  26.2979817   60.7333307
  26.2980522   60.734397
  26.2981067   60.7347185
  26.2982451   60.7352325
  26.2984283   60.7356876
  26.2985316   60.7360334
  26.2987421   60.736433
  26.2990286   60.7369845
  26.29913     60.7373322
  26.2990956   60.7378276
  26.2991474   60.7380821
  26.2992469   60.7383362
  26.2993998   60.7387426
  26.2994958   60.7390156
  26.2995232   60.7395871
  26.2995698   60.7397815
  26.2995559   60.7400716
  26.2994749   60.7403708
  26.2993818   60.7410687
  26.2994234   60.7412291
  26.2994811   60.7413861
  26.2995559   60.7415436
  26.299712    60.741736
  26.2999067   60.741964
  26.3000156   60.7421859
  26.3000784   60.7424556
  26.3001004   60.7429907
  26.3000277   60.743331
  26.3000159   60.7436796
  26.30008     60.7440545
  26.3002074   60.7444997
  26.3003563   60.7448941
  26.3004649   60.745109
  26.3008474   60.7455478
  26.3010349   60.7458844
  26.3010598   60.746099
  26.3010037   60.7462876
  26.3008906   60.7465429
  26.3008592   60.7467081
  26.300923    60.7468251
  26.301078    60.746923
  26.3013876   60.7470424
  26.301706    60.7471428
  26.3018773   60.7472453
  26.3019428   60.7473763
  26.3019068   60.7474658
  26.3018165   60.7475392
  26.3014919   60.7476899
  26.3010839   60.7477996
  26.3007256   60.7479872
  26.3005319   60.7482095
  26.3004705   60.7483517
  26.3004442   60.7485428
  26.3003946   60.7487032
  26.3000883   60.7492343
  26.3001243   60.7494523
  26.3001918   60.7495433
  26.3005223   60.749929
  26.3005469   60.7500396
  26.3005829   60.7502438
  26.3006258   60.7503591
  26.3007722   60.7504694
  26.3010979   60.7505111
  26.3016987   60.7505583
  26.3020061   60.7506005
  26.302285    60.7506686
  26.3024712   60.750747
  26.302557    60.7508781
  26.3025103   60.7510513
  26.3022888   60.7513391
  26.3021278   60.751596
  26.30216     60.7517165
  26.3023531   60.7518057
  26.3027608   60.7518843
  26.3030543   60.7519729
  26.3032651   60.7521674
  26.3033724   60.7523666
  26.3034974   60.7526554
  26.3037763   60.7528179
  26.3040697   60.753048
  26.3042521   60.7531633
  26.3044104   60.7531995
  26.3046979   60.7532037
  26.3048867   60.7532351
  26.3050085   60.7532784
  26.3050568   60.7533468
  26.3108278   60.7539747
  26.3128277   60.7541923
  26.3169703   60.7546256
  26.3218147   60.7551224
  26.3243472   60.7554172
  26.3246798   60.7554277
  26.3330666   60.7563213
  26.3332632   60.7563422
  26.3334415   60.7563612
  26.339278    60.7570583
  26.344224    60.7576191
  26.3518667   60.7585043
  26.3561223   60.7590132
  26.3638471   60.7599094
  26.3672558   60.7603166
  26.368263    60.7604354
  26.3706006   60.7606872
  26.3744257   60.761099
  26.37429     60.7613639
  26.3741243   60.7615488
  26.3739827   60.7617031
  26.3732563   60.7625925
  26.3726233   60.7633942
  26.3724101   60.7636462
  26.3719882   60.7642138
  26.3711421   60.7652387
  26.369587    60.767256
  26.3683854   60.7687754
  26.3806484   60.7733595
  26.3938556   60.7782676
  26.3968919   60.7794094
  26.3959291   60.7807118
  26.3958259   60.7808141
  26.3952474   60.7816276
  26.394158    60.7832118
  26.3931366   60.7846156
  26.391683    60.7866468
  26.3889418   60.7904063
  26.3858626   60.7947412
  26.3842319   60.7970393
  26.3831268   60.7985364
  26.380509    60.8018129
  26.3795219   60.8040216
  26.3788647   60.8055171
  26.3790206   60.8055012
  26.3791716   60.8054236
  26.3793073   60.8053875
  26.3795578   60.8053608
  26.3797365   60.8053613
  26.379869    60.8054079
  26.3798904   60.8054864
  26.3796759   60.8056696
  26.379354    60.8057114
  26.3792145   60.8057638
  26.3790176   60.8058899
  26.3789141   60.8060254
  26.3788712   60.8061091
  26.3789962   60.8061515
  26.3792574   60.8061458
  26.3794935   60.8060725
  26.3802729   60.8060521
  26.3805985   60.8061039
  26.3808131   60.8061929
  26.3807879   60.806319
  26.3807664   60.8065126
  26.3808453   60.80669
  26.3811135   60.8067633
  26.3812852   60.8068156
  26.3813388   60.8069098
  26.3813496   60.8070302
  26.3812423   60.8071374
  26.3812208   60.8072186
  26.3812852   60.8073389
  26.3812905   60.807441
  26.3812262   60.8075482
  26.3812905   60.8075744
  26.3816003   60.8075212
  26.3816714   60.807509
  26.3818967   60.8075038
  26.3821236   60.8075435
  26.3823956   60.8076032
  26.3826263   60.8076032
  26.3826263   60.8075639
  26.3823688   60.8075221
  26.3823795   60.8073965
  26.3824814   60.8073441
  26.3824991   60.807206
  26.3824401   60.8071458
  26.3823634   60.8071479
  26.3822524   60.8071877
  26.3819842   60.8071013
  26.3818806   60.8070406
  26.3818068   60.8069773
  26.3820292   60.8068507
  26.3822071   60.8067758
  26.3823436   60.8066879
  26.3824922   60.8066665
  26.3827228   60.8066429
  26.3828264   60.8065859
  26.3829213   60.8065173
  26.3830179   60.8065095
  26.3831697   60.8065388
  26.3832217   60.8065932
  26.3831681   60.8066612
  26.3830662   60.8067267
  26.3829803   60.8068392
  26.3830179   60.8069307
  26.3830447   60.8070119
  26.3831359   60.807106
  26.3832394   60.8071275
  26.383388    60.8071191
  26.3834755   60.8070569
  26.3835291   60.8069653
  26.3835865   60.8069124
  26.3837314   60.8069046
  26.3839406   60.8069962
  26.3842088   60.8071139
  26.3842088   60.8072159
  26.3841927   60.807441
  26.3842249   60.8075221
  26.3843284   60.8075435
  26.3844572   60.8075174
  26.3845269   60.8074624
  26.3846111   60.8074462
  26.3847345   60.8074671
  26.3848005   60.8075252
  26.3848793   60.807543
  26.3850135   60.8075404
  26.3850939   60.8075116
  26.3852656   60.8074776
  26.3854158   60.8074881
  26.3854603   60.80752
  26.385353    60.8076037
  26.3853047   60.8076874
  26.3853568   60.807768
  26.3854909   60.8077863
  26.3856947   60.8077994
  26.3858144   60.8078287
  26.3857554   60.8078915
  26.3856786   60.8079852
  26.3856786   60.8081474
  26.3857162   60.8082913
  26.3857806   60.8083201
  26.3858503   60.8083148
  26.3860289   60.8082343
  26.3862365   60.8081814
  26.3864243   60.8081631
  26.3865546   60.8081819
  26.3866244   60.808229
  26.3866174   60.8082782
  26.3864618   60.808375
  26.3864565   60.8084457
  26.3865477   60.8085137
  26.3867209   60.8085665
  26.3868803   60.8085739
  26.3870144   60.8085529
  26.3871056   60.8085791
  26.3872772   60.8086183
  26.3874344   60.8086189
  26.3876152   60.8086262
  26.3877654   60.8086681
  26.3880084   60.8087602
  26.3880068   60.808812
  26.3879102   60.8088669
  26.3875846   60.808993
  26.3875937   60.8090631
  26.3877295   60.8091395
  26.3879639   60.809262
  26.3881355   60.809432
  26.3882267   60.8095288
  26.3883195   60.8095608
  26.3884681   60.8095628
  26.388636    60.8095267
  26.3887149   60.8094451
  26.3888131   60.8093828
  26.3889418   60.8093358
  26.3890545   60.8091997
  26.3891601   60.8091259
  26.3892583   60.8090794
  26.3893533   60.8090736
  26.3894461   60.8091055
  26.3895035   60.8091861
  26.3895464   60.8092803
  26.3896537   60.8093457
  26.38982     60.8093954
  26.3899702   60.8094687
  26.3901274   60.8095137
  26.3902599   60.8095027
  26.3904369   60.8094268
  26.3905458   60.8094038
  26.3908499   60.8093928
  26.3910162   60.8093719
  26.3911343   60.8093562
  26.3912845   60.8093614
  26.3914577   60.8094142
  26.3916455   60.8094509
  26.3918692   60.8094503
  26.3920569   60.8094608
  26.3921766   60.8095084
  26.3922179   60.8095628
  26.3922501   60.8097015
  26.3922983   60.8097565
  26.3923895   60.8097774
  26.3925987   60.8097774
  26.3929421   60.8097669
  26.3932103   60.8097774
  26.3933889   60.809825
  26.3935123   60.8099009
  26.3935697   60.8100207
  26.3936357   60.8100552
  26.3937199   60.8100547
  26.3938449   60.8100291
  26.3939506   60.8099658
  26.3940219   60.8099009
  26.3941507   60.8098799
  26.3943583   60.8098794
  26.3945315   60.8098485
  26.3947928   60.8098035
  26.395002    60.8097826
  26.3951898   60.8097852
  26.3952987   60.8098119
  26.3953239   60.8098533
  26.3952879   60.8099166
  26.3951737   60.8101149
  26.3952112   60.8101934
  26.3953185   60.8102692
  26.3953561   60.810332
  26.3953094   60.8104267
  26.3953721   60.8105047
  26.3955438   60.8105937
  26.395635    60.8107428
  26.3957975   60.8108453
  26.3960175   60.8109631
  26.3961516   60.8110075
  26.3962734   60.8110279
  26.3963324   60.8110201
  26.396393    60.810984
  26.396504    60.810871
  26.3965577   60.8107716
  26.3966344   60.8106517
  26.396783    60.8105832
  26.3969133   60.8105235
  26.3971746   60.8104602
  26.3973677   60.8104471
  26.3975286   60.8104602
  26.3976627   60.8104838
  26.3977325   60.8105361
  26.3977325   60.8106224
  26.3976536   60.8107224
  26.397652    60.810816
  26.3977486   60.8109311
  26.3978827   60.8110253
  26.3978773   60.8111195
  26.3978988   60.8111901
  26.39799     60.8112346
  26.3981257   60.8112456
  26.3983869   60.8112843
  26.398587    60.8113529
  26.3987303   60.8114125
  26.3988537   60.8114178
  26.3990092   60.811368
  26.3992667   60.811232
  26.3994813   60.8111038
  26.3995795   60.8110756
  26.3997388   60.8110672
  26.3999748   60.8111064
  26.4004485   60.8111907
  26.4010976   60.8113084
  26.4014071   60.8113236
  26.4016233   60.8113476
  26.4017735   60.8114078
  26.4019183   60.8114732
  26.4021544   60.8115282
  26.402369    60.8115936
  26.4025567   60.8116982
  26.4027176   60.8117191
  26.4029      60.8116773
  26.4031092   60.811638
  26.4032809   60.811638
  26.4033936   60.8116223
  26.4034633   60.8115517
  26.4035545   60.8114968
  26.4036886   60.8114811
  26.4038334   60.811536
  26.4039568   60.8116328
  26.403989    60.811706
  26.4040051   60.8118473
  26.4041017   60.8119153
  26.4042304   60.8119153
  26.4045469   60.8118369
  26.4046649   60.8118133
  26.4048098   60.8118055
  26.4049761   60.8118447
  26.4052014   60.8119153
  26.4051638   60.8119677
  26.4052067   60.8120174
  26.405296    60.8119907
  26.4053854   60.8119408
  26.405671    60.811936
  26.4059631   60.8119546
  26.406167    60.8120331
  26.4061702   60.8120926
  26.4060007   60.8121639
  26.4059899   60.8122502
  26.4060704   60.8123784
  26.4061348   60.8124464
  26.4062421   60.8124595
  26.4063172   60.8124438
  26.4064405   60.8123496
  26.4065478   60.8123156
  26.406639    60.8123287
  26.406757    60.8123862
  26.4068751   60.8124019
  26.407095    60.812381
  26.4071647   60.812347
  26.4071379   60.8122999
  26.407095    60.8122502
  26.407095    60.8121926
  26.4071916   60.8121246
  26.4073192   60.8120382
  26.4073579   60.8119964
  26.407433    60.8119807
  26.4075456   60.8120069
  26.4076636   60.8121429
  26.4076797   60.8122162
  26.4077924   60.8122737
  26.4079372   60.8122816
  26.4080016   60.8121717
  26.4080713   60.8119807
  26.408184    60.8119729
  26.4083235   60.8120226
  26.4084361   60.8120383
  26.4084468   60.8120645
  26.4084898   60.8121377
  26.4085809   60.8121456
  26.4087827   60.8121272
  26.4088384   60.8120671
  26.4089404   60.8120357
  26.4090852   60.812054
  26.4092515   60.8120932
  26.4093856   60.8121508
  26.409568    60.8121796
  26.4097128   60.812211
  26.4097772   60.8122947
  26.4098416   60.8123522
  26.4099489   60.8123653
  26.4100562   60.8123627
  26.4101581   60.8123104
  26.4102761   60.8122607
  26.4103888   60.8122528
  26.4105014   60.812224
  26.4105711   60.8121456
  26.4106194   60.8120697
  26.4106433   60.8119958
  26.4106945   60.8119703
  26.4107911   60.8119493
  26.4109198   60.811952
  26.411011    60.8119755
  26.4110057   60.8120174
  26.4109467   60.812088
  26.4109252   60.8121717
  26.4109574   60.8122188
  26.4110539   60.8122371
  26.4114775   60.8121959
  26.411636    60.8121788
  26.4118463   60.812148
  26.412159    60.8121456
  26.4122663   60.8122214
  26.4121966   60.8124229
  26.4122073   60.8124752
  26.412497    60.8125694
  26.4126257   60.8126374
  26.4130012   60.8129748
  26.4131514   60.8129984
  26.413307    60.8128571
  26.4134197   60.812797
  26.413543    60.8127734
  26.4136503   60.8127891
  26.4136932   60.8128336
  26.4136568   60.8130681
  26.4139132   60.8132783
  26.4140795   60.8133385
  26.4141492   60.8133882
  26.4143799   60.8133934
  26.4145569   60.8133856
  26.4147876   60.8133123
  26.4149378   60.8132914
  26.4150075   60.8133202
  26.4150451   60.8134039
  26.4149646   60.8134928
  26.4149914   60.8135791
  26.4150558   60.8136158
  26.4151738   60.8136262
  26.4152972   60.8135634
  26.4153562   60.8134693
  26.4154689   60.8134536
  26.4157103   60.8134693
  26.4157639   60.8135242
  26.4156942   60.8135896
  26.4155922   60.8136419
  26.4155976   60.8137518
  26.4157103   60.8138957
  26.4158766   60.813948
  26.4159946   60.8139689
  26.4161394   60.8139349
  26.4163379   60.8139035
  26.416531    60.8138721
  26.4166866   60.8138146
  26.4168422   60.813791
  26.4169602   60.8138093
  26.4170245   60.8138957
  26.4171211   60.8139637
  26.4172606   60.8139663
  26.4174322   60.8139428
  26.4175449   60.8139715
  26.4175771   60.8140265
  26.4173679   60.8141677
  26.4172552   60.8142802
  26.417325    60.8144005
  26.4176415   60.8146464
  26.4178077   60.8147511
  26.4179633   60.8147929
  26.4181028   60.8147903
  26.418253    60.8147275
  26.4182852   60.814636
  26.4183048   60.8145258
  26.4183155   60.8144105
  26.4183013   60.8143535
  26.4184783   60.8143064
  26.4185749   60.8142698
  26.4190577   60.8141834
  26.4191649   60.8142253
  26.419283    60.8143535
  26.4193795   60.8143927
  26.4197228   60.8144607
  26.4199482   60.814547
  26.4201091   60.8145863
  26.4202754   60.8146674
  26.420608    60.8148034
  26.4206884   60.8148766
  26.4207099   60.8149551
  26.4206133   60.8150624
  26.4206133   60.8151618
  26.4206616   60.8152298
  26.420903    60.8153213
  26.4211176   60.8154077
  26.4212839   60.8154469
  26.4214448   60.8154286
  26.4216219   60.8153109
  26.4217828   60.8152141
  26.421933    60.8151775
  26.4220617   60.8152062
  26.4222012   60.8152769
  26.4223139   60.8153318
  26.4224426   60.8153266
  26.4225928   60.8152455
  26.4227806   60.8151356
  26.4229415   60.8150964
  26.4230541   60.8151068
  26.4231722   60.8151644
  26.4231883   60.8152586
  26.4231883   60.8153553
  26.4232044   60.8154626
  26.4231239   60.8155594
  26.4231024   60.8156457
  26.42314     60.8157242
  26.4232473   60.8157372
  26.4233599   60.8157137
  26.4234726   60.8157189
  26.4235852   60.8157634
  26.4236872   60.8157739
  26.4237569   60.8157242
  26.4237569   60.8156745
  26.4237837   60.8156326
  26.4238886   60.8156058
  26.4240774   60.8156218
  26.4243684   60.8156771
  26.4246313   60.8156954
  26.4247547   60.8157503
  26.4247976   60.8158183
  26.4246367   60.8158654
  26.424406    60.8159047
  26.424229    60.8159727
  26.424229    60.8160721
  26.4242933   60.816161
  26.4244918   60.8162107
  26.4246474   60.8162813
  26.4247869   60.8164017
  26.424921    60.8164252
  26.4250497   60.8164095
  26.4251516   60.8163546
  26.4252697   60.8163206
  26.4254199   60.8162499
  26.4256505   60.8162552
  26.4258168   60.8162578
  26.4259295   60.8162342
  26.4259617   60.8161741
  26.4259402   60.8161035
  26.4259295   60.8160145
  26.4259563   60.8159544
  26.4260368   60.8159151
  26.4261816   60.8158785
  26.4264606   60.8158837
  26.4266698   60.8159047
  26.4268897   60.8159047
  26.4270775   60.8159282
  26.427115    60.8159753
  26.4270775   60.8160642
  26.4270453   60.8161427
  26.4271043   60.8162212
  26.4273242   60.8163363
  26.4275603   60.8164723
  26.4276783   60.8165063
  26.4278124   60.8165141
  26.428027    60.8165481
  26.4281343   60.8165691
  26.4283113   60.8165664
  26.4284508   60.8165351
  26.4285473   60.8164357
  26.4286975   60.816352
  26.4288745   60.8163075
  26.4290462   60.8163389
  26.4291642   60.8164043
  26.4292018   60.8164775
  26.429132    60.8166475
  26.4291535   60.816828
  26.4292232   60.8169013
  26.4293412   60.8169274
  26.4294539   60.8169326
  26.4295719   60.816896
  26.4297382   60.8167992
  26.4298455   60.8167443
  26.4299689   60.8167286
  26.4301459   60.8167391
  26.4305      60.8167835
  26.4306931   60.8168359
  26.4308057   60.8169457
  26.4309077   60.8170137
  26.4310096   60.8170216
  26.4311544   60.8169666
  26.4312993   60.8169431
  26.4314226   60.8169745
  26.4314977   60.8170294
  26.431487    60.8170948
  26.4313583   60.8171654
  26.431251    60.817189
  26.4311812   60.8172439
  26.4312027   60.8173538
  26.4312403   60.8173904
  26.4313851   60.8173956
  26.4315246   60.817325
  26.4316694   60.8173093
  26.4317713   60.8173433
  26.4318303   60.8174192
  26.4317821   60.8174976
  26.4317016   60.8175473
  26.4316909   60.817597
  26.431752    60.8176483
  26.4318572   60.817686
  26.4319913   60.8177069
  26.4321522   60.8176729
  26.4322909   60.8176572
  26.4324352   60.8176752
  26.4325291   60.8177579
  26.4326524   60.8178157
  26.4327742   60.8178477
  26.4328442   60.8178664
  26.4330481   60.8179057
  26.4332573   60.8179737
  26.4334558   60.8180757
  26.4336435   60.8181542
  26.4338742   60.8181385
  26.4341049   60.8181542
  26.4342282   60.8181908
  26.4342819   60.8182719
  26.4342175   60.8185465
  26.4342926   60.8186354
  26.4345018   60.818638
  26.4347754   60.8185229
  26.4348934   60.818625
  26.4349202   60.8187374
  26.4350597   60.8188368
  26.4351724   60.8188656
  26.4353065   60.8188577
  26.4354143   60.8188091
  26.4355211   60.8188237
  26.4355908   60.8188865
  26.4356283   60.8189571
  26.4357142   60.8190068
  26.4358912   60.8190277
  26.4362436   60.8190586
  26.436374    60.8190827
  26.4365601   60.8191528
  26.436735    60.8192541
  26.4369622   60.8192758
  26.4369265   60.8193678
  26.4367817   60.8194227
  26.4367747   60.8194849
  26.4368997   60.8195456
  26.4369625   60.8196288
  26.4369196   60.8197308
  26.4367656   60.8197784
  26.4364582   60.8198668
  26.4363418   60.8199484
  26.4362882   60.8200635
  26.4363257   60.8201393
  26.4363938   60.8201597
  26.436528    60.8201597
  26.4366422   60.8201446
  26.436712    60.8201158
  26.43683     60.8200766
  26.4374109   60.8199548
  26.4375987   60.8199551
  26.4402836   60.8193723
  26.4443131   60.8185073
  26.4484742   60.8175863
  26.4527516   60.8166109
  26.4535919   60.8169588
  26.4610289   60.8200373
  26.464741    60.8215647
  26.4689682   60.8221505
  26.4727877   60.8238295
  26.4717577   60.8244624
  26.4691291   60.8262824
  26.4658139   60.8285312
  26.4750622   60.8295404
  26.4754055   60.8295143
  26.4758025   60.8295666
  26.4782916   60.829849
  26.4790211   60.8299013
  26.4798043   60.8299326
  26.4804373   60.8299692
  26.4809823   60.8300619
  26.4817248   60.8302307
  26.4821432   60.8303039
  26.4824329   60.8303562
  26.4827268   60.8304371
  26.4831764   60.8305701
  26.4841173   60.8306595
  26.4849015   60.8306595
  26.4852868   60.8305863
  26.4862738   60.8305497
  26.4868497   60.8304888
  26.4869712   60.8305183
  26.492753    60.8329911
  26.49505     60.8340112
  26.496779    60.8346922
  26.4993415   60.8357523
  26.5011333   60.8364738
  26.5085544   60.8394984
  26.5114115   60.8406143
  26.5090404   60.8422089
  26.5088366   60.8424438
  26.5065883   60.8439809
  26.5022705   60.8469337
  26.4988373   60.8492542
  26.495045    60.8518118
  26.4901775   60.8550648
  26.4859841   60.8578761
  26.4804802   60.8613922
  26.4784565   60.8625952
  26.4739357   60.865263
  26.4700601   60.8675749
  26.4680199   60.8687908
  26.4672506   60.8692493
  26.4655135   60.8702824
  26.4639149   60.8712172
  26.4600124   60.8735322
  26.4613486   60.8748672
  26.4637231   60.8771504
  26.4639706   60.8772722
  26.4640683   60.8773053
  26.464381    60.8774287
  26.4648521   60.8773436
  26.4667041   60.8772553
  26.4684636   60.8772672
  26.4696145   60.8771715
  26.4710526   60.8767663
  26.4717173   60.8765287
  26.4721103   60.8763901
  26.4744649   60.8756138
  26.4755886   60.8753921
  26.4780203   60.8749247
  26.4787868   60.8748756
  26.4795245   60.8748264
  26.4812658   60.8748124
  26.481946    60.8748601
  26.4825645   60.8748384
  26.4832805   60.8748041
  26.4858181   60.8744131
  26.4871249   60.8741755
  26.4894353   60.8736492
  26.4900781   60.8734744
  26.4910518   60.8732432
  26.4911322   60.8734457
  26.4917024   60.8734044
  26.4963561   60.8733013
  26.4971881   60.8731592
  26.4979702   60.8729979
  26.4982122   60.8728248
  26.4984333   60.8726933
  26.498615    60.8726121
  26.49885     60.8725909
  26.4995116   60.8726582
  26.5001417   60.872586
  26.5011991   60.872544
  26.5018256   60.8726136
  26.5024158   60.87277
  26.5030272   60.8729334
  26.5035517   60.8730439
  26.5045265   60.8730932
  26.5055485   60.8730505
  26.5057892   60.8730405
  26.506262    60.8730001
  26.5085837   60.8725286
  26.5097859   60.8724163
  26.5123374   60.8723437
  26.5135506   60.872368
  26.5146349   60.8724581
  26.515573    60.8725082
  26.5164016   60.8724996
  26.5168685   60.8724506
  26.5178841   60.8722657
  26.5186204   60.872066
  26.5193088   60.8719508
  26.5201598   60.8719122
  26.5205228   60.8719586
  26.5208608   60.8720504
  26.521705    60.8721313
  26.5225678   60.8721862
  26.5227711   60.872326
  26.5239179   60.8721573
  26.5243826   60.8720918
  26.5248819   60.8722935
  26.525309    60.8724079
  26.5257605   60.8723758
  26.5264644   60.8721846
  26.5267348   60.8720167
  26.5268233   60.8717685
  26.5272965   60.8717049
  26.5278759   60.8716053
  26.5288349   60.8716233
  26.5297368   60.8714144
  26.5310704   60.8712214
  26.5319883   60.8711648
  26.5324773   60.8713368
  26.5327869   60.8715781
  26.5338431   60.8718598
  26.535088    60.8718847
  26.5364957   60.8719289
  26.5380084   60.871904
  26.5384362   60.8718576
  26.5386339   60.8718789
  26.5399518   60.874485
  26.5439798   60.8819941
  26.5445496   60.8830167
  26.5449765   60.8837827
  26.5435998   60.892485
  26.5415253   60.9052944
  26.5404254   60.9120694
  26.539957    60.9153872
  26.5396798   60.9173299
  26.5393635   60.919547
  26.5386187   60.9245885
  26.538336    60.926258
  26.5383381   60.9264144
  26.5378064   60.9299881
  26.5376159   60.9312213
  26.5354717   60.9312298
  26.5354387   60.9347176
  26.535396    60.9375622
  26.5354854   60.9376693
  26.539472    60.9388653
  26.5411272   60.939386
  26.5370259   60.9417495
  26.5344293   60.9432409
  26.5314846   60.9449324
  26.5287698   60.9465053
  26.5274464   60.94724
  26.5267914   60.9475583
  26.5249471   60.9486194
  26.5236783   60.949377
  26.5224435   60.9500656
  26.5221086   60.9502877
  26.5217975   60.950405
  26.5204618   60.950881
  26.5200413   60.9511516
  26.519109    60.9518669
  26.5190675   60.9519466
  26.5186979   60.9521943
  26.5181436   60.9529855
  26.5173733   60.9539561
  26.5169933   60.9545163
  26.5160323   60.9539979
  26.5159509   60.954027
  26.5169064   60.9545554
  26.5174587   60.9549058
  26.5175339   60.95506
  26.5169745   60.9555567
  26.5165824   60.9556846
  26.5164299   60.9557657
  26.5161757   60.9560529
  26.5158689   60.9561601
  26.515527    60.9561553
  26.5153797   60.9560744
  26.5152803   60.9558176
  26.5150262   60.9557439
  26.5150723   60.9558687
  26.5150643   60.9559632
  26.5149568   60.9562652
  26.5153002   60.9567653
  26.5151637   60.9571954
  26.5152619   60.9573926
  26.5156835   60.9577269
  26.5161328   60.9580812
  26.5161652   60.9583092
  26.5162714   60.9584063
  26.5166752   60.9585801
  26.5168221   60.9588018
  26.516851    60.9592306
  26.516933    60.9594381
  26.5171425   60.9596827
  26.5175884   60.9598698
  26.5176817   60.9599694
  26.5176951   60.960189
  26.5177514   60.9602765
  26.5181589   60.9604613
  26.5185543   60.9604619
  26.5190616   60.9605819
  26.5189909   60.9608464
  26.5158259   60.9732435
  26.5146528   60.9733723
  26.5140344   60.9734368
  26.5132587   60.9733197
  26.5126781   60.9732693
  26.5123345   60.9731266
  26.5118139   60.972995
  26.5111772   60.9729471
  26.5107664   60.973078
  26.5109357   60.9733958
  26.5109872   60.9736864
  26.5104614   60.9739092
  26.5094135   60.9737078
  26.508656    60.9737205
  26.5082376   60.9736476
  26.5079264   60.9736685
  26.5074957   60.9739418
  26.5074866   60.9742619
  26.5070381   60.9744764
  26.5068878   60.9745771
  26.5070379   60.9749163
  26.5069401   60.9751778
  26.5066312   60.9756677
  26.5063244   60.9758112
  26.5062099   60.9759409
  26.5061863   60.9761412
  26.5058656   60.9763174
  26.5057132   60.9765249
  26.5053416   60.9769345
  26.5049093   60.9772039
  26.5044958   60.9779558
  26.4954582   60.9906483
  26.5043698   61.009791
  26.4602121   61.0142231
  26.4526749   61.0173624
  26.423063    61.0120592
  26.4049552   61.0163182
  26.401201    61.0201549
  26.3863619   61.0277437
  26.3753594   61.028055
  26.3736878   61.0257472
  26.3551031   61.022566
  26.353967    61.0198681
  26.3528406   61.0169767
  26.3503604   61.0106535
  26.3492507   61.0079417
  26.3462887   61.0004896
  26.3436805   61.0012344
  26.3420291   61.0006614
  26.3406024   61.0018667
  26.3386723   61.0029939
  26.337003    60.999422
  26.3307488   61.0001432
  26.3267836   61.0020074
  26.3255164   61.0037108
  26.324419    61.0051231
  26.3199075   61.0040117
  26.3205362   61.0033526
  26.3171861   61.0024448
  26.315037    61.0049796
  26.314199    61.0080427
  26.3092743   61.0055532
  26.3051725   61.0034903
  26.2950087   61.0083933
  26.2857261   61.0129024
  26.2819855   61.0126516
  26.2732983   61.0121563
  26.265816    61.0116588
  26.2649519   61.0130032
  26.2620867   61.0174159
  26.2617495   61.0179455
  26.2596683   61.0215252
  26.2580842   61.0242376
  26.2570211   61.0260656
  26.2555488   61.0287186
  26.2530215   61.033122
  26.2490882   61.0399334
  26.2509455   61.0429449
  26.252229    61.0450847
  26.2564531   61.0521132
  26.2598025   61.057632
  26.2647649   61.065703
  26.266349    61.068175
  26.2673067   61.0698221
  26.2684506   61.0707909
  26.2698779   61.0720311
  26.2735927   61.0752585
  26.2741748   61.0757642
  26.2763447   61.0774997
  26.2896058   61.0887663
  26.2934445   61.0919683
  26.2990272   61.0966381
  26.3067335   61.1031049
  26.3109406   61.1066318
  26.3108247   61.1066399
  26.3105243   61.1064222
  26.3103419   61.1063548
  26.3100629   61.1063496
  26.3096874   61.1064015
  26.3094621   61.1065259
  26.3091724   61.1068214
  26.3087111   61.1069821
  26.3078206   61.1068473
  26.3070159   61.1065881
  26.3067584   61.1065518
  26.3057714   61.1068784
  26.3051277   61.1071583
  26.3036685   61.1069147
  26.3016944   61.1071532
  26.3011473   61.1071376
  26.3008898   61.1071946
  26.3003426   61.1071532
  26.3000529   61.1071946
  26.299774    61.1072309
  26.2995058   61.1072724
  26.2989693   61.107262
  26.2984651   61.1073294
  26.2981861   61.1073242
  26.2976497   61.1073605
  26.2972634   61.1074279
  26.2958579   61.1073657
  26.2955575   61.1074279
  26.2948709   61.1073294
  26.2941521   61.107122
  26.2937658   61.1071946
  26.2934654   61.1071894
  26.29265     61.1072568
  26.2920814   61.107262
  26.2918561   61.107205
  26.2912231   61.1070236
  26.2904613   61.1066762
  26.2884121   61.1067333
  26.2877684   61.1068473
  26.2872427   61.1067903
  26.2857728   61.1067747
  26.2855797   61.1068317
  26.2838524   61.1067281
  26.2835091   61.1069043
  26.2830155   61.1069043
  26.2825757   61.1070702
  26.2822001   61.1070547
  26.281535    61.1071065
  26.2805157   61.1069199
  26.280226    61.1067281
  26.279357    61.1065725
  26.2791424   61.1065933
  26.2770932   61.1061164
  26.2763744   61.1060438
  26.2759023   61.1058157
  26.2749367   61.1056031
  26.2748402   61.1054632
  26.2734991   61.1048462
  26.2720912   61.1041391
  26.2718512   61.1040638
  26.270867    61.1039325
  26.2702948   61.1037753
  26.2699535   61.1036729
  26.2692815   61.1036912
  26.2679528   61.103803
  26.2671757   61.1038226
  26.2657329   61.1040162
  26.2656455   61.1040893
  26.2656455   61.1042604
  26.2658494   61.1044678
  26.2658494   61.1048514
  26.2658923   61.1051677
  26.2654846   61.1055202
  26.2628668   61.1057483
  26.2624747   61.1058511
  26.2609141   61.1053128
  26.2590151   61.1052039
  26.257608    61.1052317
  26.2565049   61.1053453
  26.2564402   61.1056861
  26.2557321   61.1056861
  26.2553681   61.1057981
  26.2558179   61.1061008
  26.2555712   61.1062563
  26.2557214   61.1063807
  26.2556677   61.1064896
  26.2555068   61.1066192
  26.255539    61.1066918
  26.2557428   61.1067436
  26.2555283   61.1069251
  26.2556677   61.1071583
  26.2559681   61.1073657
  26.2559252   61.1075679
  26.2561183   61.1077856
  26.2561299   61.107935
  26.2560524   61.1080812
  26.2535653   61.1106042
  26.2537365   61.1107661
  26.2534227   61.1110261
  26.2536421   61.1110857
  26.2536518   61.1112132
  26.2533873   61.1113202
  26.2537478   61.1115488
  26.2537891   61.1118414
  26.2544425   61.1121213
  26.2552037   61.1121985
  26.2382737   61.1273211
  26.2378272   61.1277881
  26.2356112   61.1298416
END
END
