polygon
1
  18.001736    46.4005312
  18.0039599   46.3990269
  18.0101463   46.3922285
  18.0129556   46.3895889
  18.0135238   46.3884474
  18.0124587   46.3865348
  18.0119197   46.3861517
  18.0119417   46.3850052
  18.0141719   46.3831227
  18.0158139   46.3839001
  18.0147052   46.3842743
  18.0190802   46.3854547
  18.0185194   46.386212
  18.0223484   46.3873873
  18.0316546   46.3897585
  18.0339433   46.3852047
  18.0503206   46.3922058
  18.0525098   46.3929875
  18.0525657   46.3899446
  18.0537093   46.3876674
  18.0548876   46.3834877
  18.0577062   46.3797067
  18.0583145   46.3786646
  18.060221    46.3755309
  18.0628352   46.3720181
  18.0644781   46.3702452
  18.065123    46.3652983
  18.0821463   46.3665856
  18.0806351   46.3589611
  18.0812037   46.3582036
  18.0817565   46.357824
  18.0817836   46.3563057
  18.0835118   46.3517461
  18.083566    46.3487032
  18.0830811   46.3452714
  18.0842156   46.3433782
  18.0847818   46.3422364
  18.0853636   46.3407165
  18.0859229   46.3399651
  18.0859702   46.3373003
  18.0865565   46.3350181
  18.0877582   46.3293135
  18.0790872   46.3223841
  18.079094    46.3220061
  18.0758571   46.3189287
  18.0753163   46.3181617
  18.0748049   46.3162544
  18.0748254   46.3151141
  18.0753982   46.3135942
  18.075446    46.3109294
  18.0760346   46.3090316
  18.0755075   46.3075023
  18.0744213   46.3067305
  18.0749757   46.3067353
  18.0744281   46.3063525
  18.0727966   46.305576
  18.0722511   46.3055713
  18.0717105   46.3048042
  18.0717173   46.3044262
  18.0706107   46.3047947
  18.06842     46.3047757
  18.0667727   46.3043833
  18.0645801   46.3039799
  18.0618628   46.3024315
  18.0531924   46.2958844
  18.0548672   46.2947586
  18.05876     46.2921213
  18.0587461   46.2928836
  18.059804    46.29518
  18.0603562   46.2948068
  18.0625693   46.2940637
  18.0631216   46.2936843
  18.0642212   46.2936938
  18.0653345   46.2929412
  18.0658799   46.2929459
  18.0658729   46.2933301
  18.0664341   46.2929507
  18.0664272   46.293335
  18.0669725   46.2933397
  18.0669656   46.2937177
  18.0719093   46.2937606
  18.0719161   46.2933826
  18.0735679   46.2930125
  18.0735747   46.2926345
  18.0741358   46.2922551
  18.0746742   46.292644
  18.0746811   46.2922598
  18.0752353   46.2922645
  18.0752421   46.2918865
  18.0763417   46.291896
  18.0768666   46.293041
  18.0768597   46.2934252
  18.076287    46.2949451
  18.0768188   46.2957058
  18.0773458   46.2972351
  18.0789568   46.2991518
  18.0822491   46.2995643
  18.0849601   46.3014904
  18.0860665   46.3011217
  18.0860598   46.3014998
  18.0877049   46.3015138
  18.0877184   46.3007515
  18.088257    46.3011404
  18.0888182   46.3007608
  18.0904633   46.3007748
  18.0910311   46.3000172
  18.0965005   46.3012101
  18.101425    46.302392
  18.1058812   46.2986236
  18.1092396   46.2952239
  18.110924    46.2929508
  18.111498    46.2918151
  18.1143801   46.283837
  18.1154664   46.2846084
  18.1171175   46.2842439
  18.1193424   46.2827375
  18.1226665   46.28124
  18.1323691   46.291602
  18.1290536   46.2930998
  18.1263609   46.2900283
  18.1258001   46.290408
  18.12472     46.2892587
  18.1214176   46.2899879
  18.121411    46.2903721
  18.1186536   46.2911118
  18.1155145   46.2925197
  18.1153289   46.292603
  18.1147484   46.2941229
  18.116363    46.2964234
  18.1185036   46.2998687
  18.1106015   46.311611
  18.1111297   46.313134
  18.1127226   46.3161967
  18.1127161   46.3165748
  18.1132706   46.3165793
  18.1137964   46.3177304
  18.114342    46.3177349
  18.1143355   46.3181129
  18.1148835   46.3184955
  18.1143289   46.318491
  18.1143223   46.3188752
  18.1154224   46.3188843
  18.116516    46.3192714
  18.1170575   46.3200383
  18.1181641   46.3196693
  18.1176161   46.3192805
  18.1198294   46.3185363
  18.1214751   46.3185498
  18.122036    46.3181763
  18.1225816   46.3181808
  18.1247688   46.3189611
  18.1247623   46.3193391
  18.1253014   46.3197278
  18.1252884   46.3204901
  18.1247428   46.3204856
  18.1263562   46.3224017
  18.1269043   46.3227842
  18.1274564   46.3224106
  18.1313025   46.3224419
  18.131309    46.3220577
  18.1318546   46.3220621
  18.1329483   46.3224553
  18.1329548   46.322071
  18.1346095   46.3220844
  18.1357224   46.3213372
  18.136268    46.3213417
  18.1373746   46.3209663
  18.1390139   46.3213638
  18.1396386   46.3171788
  18.1462428   46.3164694
  18.1473239   46.3176185
  18.1478694   46.3176228
  18.1511759   46.317271
  18.1528215   46.3172841
  18.152809    46.3180464
  18.1538902   46.3191954
  18.1544358   46.3191997
  18.1544296   46.3195778
  18.1521627   46.3241341
  18.153771    46.3264278
  18.1566235   46.3199794
  18.1632305   46.319647
  18.1643217   46.3196556
  18.1654156   46.3200484
  18.1659577   46.320815
  18.1659516   46.3211931
  18.1663466   46.3217867
  18.1664848   46.3219596
  18.1667168   46.3225149
  18.1671164   46.3230431
  18.1677916   46.3234195
  18.1686542   46.3238794
  18.1689366   46.3240467
  18.1701093   46.3248704
  18.1713818   46.3250473
  18.1720317   46.3255715
  18.1724636   46.3261961
  18.1725348   46.3266518
  18.1726307   46.3275313
  18.1727112   46.327834
  18.1730107   46.3281188
  18.1747372   46.3290233
  18.1752229   46.3293881
  18.176353    46.3299267
  18.176887    46.3303172
  18.1785687   46.3315925
  18.1792914   46.3322192
  18.1798129   46.3326004
  18.1804575   46.3328211
  18.1813148   46.3330241
  18.1816928   46.3331225
  18.1838936   46.3331393
  18.1842562   46.333128
  18.184826    46.3330524
  18.1855363   46.3329158
  18.1861005   46.3327719
  18.1888591   46.3320305
  18.1929682   46.3311296
  18.1947343   46.331255
  18.1958784   46.3316695
  18.1976591   46.331719
  18.1993051   46.3317314
  18.2009195   46.3319893
  18.1998479   46.3324979
  18.1998121   46.3347847
  18.200346    46.3355449
  18.1997943   46.3359251
  18.2003281   46.3366914
  18.2003162   46.3374537
  18.2008709   46.3374579
  18.200865    46.3378359
  18.2014107   46.33784
  18.2014047   46.3382243
  18.2024875   46.3393728
  18.2024519   46.3416535
  18.2029948   46.3424199
  18.2029829   46.3431822
  18.2024162   46.3439404
  18.2024043   46.3447027
  18.2029413   46.3458471
  18.2029175   46.3473717
  18.2023389   46.3488921
  18.2022854   46.3523193
  18.202775    46.356513
  18.2023808   46.3561975
  18.201686    46.3557424
  18.1994843   46.3557259
  18.1983715   46.3564799
  18.1978076   46.3576162
  18.1955818   46.3591242
  18.1961219   46.3595063
  18.1961158   46.3598906
  18.193899    46.3613924
  18.19113     46.3621338
  18.1900229   46.3625097
  18.1894709   46.3628836
  18.1889128   46.3636417
  18.1889068   46.3640198
  18.1882792   46.3685893
  18.1856102   46.3978927
  18.2059075   46.4026137
  18.2156469   46.4046916
  18.2207131   46.4057725
  18.229557    46.4039277
  18.2367283   46.4024609
  18.2372837   46.4024648
  18.2394671   46.4032366
  18.2416309   46.4059235
  18.2427159   46.4070717
  18.2438065   46.4078418
  18.2471461   46.4055784
  18.2499188   46.4040732
  18.2510262   46.4037029
  18.252128    46.4037107
  18.2526801   46.4033303
  18.2554358   46.4029715
  18.2570895   46.402605
  18.2598486   46.4026243
  18.2614968   46.4026358
  18.2626042   46.4022592
  18.2659117   46.4015197
  18.2670135   46.4015273
  18.2681098   46.4019192
  18.2686652   46.401923
  18.2692062   46.4023048
  18.2697506   46.4030709
  18.2702916   46.4034527
  18.2724625   46.4057548
  18.2757484   46.4065396
  18.2768449   46.4069252
  18.2774003   46.4069289
  18.2790545   46.4065439
  18.2818044   46.4065808
  18.2834564   46.40697
  18.285094    46.4077435
  18.286737    46.4081388
  18.2894821   46.4085353
  18.2933238   46.4093234
  18.2944152   46.410093
  18.2949654   46.4104748
  18.2966085   46.41087
  18.2977      46.4116396
  18.3004505   46.4116578
  18.3020991   46.4116687
  18.3020938   46.4120467
  18.3037514   46.4120576
  18.3053843   46.4132088
  18.3075623   46.4151321
  18.309663    46.4161881
  18.3113892   46.4170599
  18.3130328   46.4174487
  18.3135883   46.4174523
  18.3141349   46.4174558
  18.3180186   46.4152
  18.3191259   46.4148229
  18.3218868   46.4140783
  18.322994    46.4137073
  18.3241062   46.412952
  18.325765    46.4122003
  18.3268771   46.411445
  18.3302185   46.4088011
  18.3324325   46.4080527
  18.3351878   46.407692
  18.3362848   46.408077
  18.3379232   46.4088497
  18.3412887   46.4043027
  18.3435083   46.4024138
  18.34462     46.4016583
  18.3457367   46.4005186
  18.3474341   46.3967235
  18.3457959   46.395951
  18.3441627   46.3948004
  18.3441924   46.3925135
  18.3425643   46.3909786
  18.3420139   46.3905971
  18.3420338   46.3890725
  18.3415172   46.3867884
  18.3415471   46.3845015
  18.3421033   46.3837426
  18.3410317   46.3814488
  18.3415967   46.3806961
  18.3416663   46.37536
  18.3427972   46.3730862
  18.3433632   46.371565
  18.3444693   46.3711938
  18.3450253   46.3704349
  18.3472474   46.368924
  18.3494595   46.3681753
  18.3505705   46.3674198
  18.3505901   46.3658952
  18.3506439   46.3617118
  18.3512095   46.3601906
  18.3539477   46.3609698
  18.3550487   46.3609765
  18.3578064   46.360231
  18.3611142   46.3598669
  18.3644267   46.3591246
  18.3688359   46.3580107
  18.3716075   46.3561245
  18.376011    46.3561508
  18.3760158   46.3557665
  18.3760441   46.3534858
  18.3782551   46.3527366
  18.3793654   46.3519808
  18.3821176   46.351619
  18.3843149   46.3512476
  18.3843195   46.3508696
  18.3848744   46.3508728
  18.3865304   46.3501202
  18.387659    46.3478397
  18.3888107   46.3436565
  18.3899344   46.3417603
  18.3905079   46.3394827
  18.3905126   46.3390985
  18.3899714   46.3387173
  18.389976    46.338333
  18.3894306   46.3375675
  18.3894444   46.3364271
  18.3856204   46.334502
  18.3834425   46.3333425
  18.3790595   46.3317982
  18.3790643   46.3314139
  18.3757867   46.3294917
  18.3730545   46.3283349
  18.3730829   46.326048
  18.3736565   46.3245267
  18.3736802   46.3226241
  18.3747898   46.3218683
  18.3759047   46.3199722
  18.3759424   46.316923
  18.3765252   46.3146456
  18.3765676   46.3112183
  18.3749457   46.3093059
  18.3727506   46.3089085
  18.3755667   46.3032169
  18.373931    46.3024448
  18.3722911   46.3012883
  18.373405    46.3001546
  18.3734097   46.2997765
  18.3756847   46.2936974
  18.3778793   46.2940885
  18.3789789   46.2940951
  18.3806379   46.2929644
  18.3828371   46.2929774
  18.3828418   46.2925932
  18.3839367   46.2929839
  18.386141    46.2918502
  18.3866906   46.2922377
  18.387804    46.2911038
  18.3894628   46.2899668
  18.3916435   46.2915042
  18.3921934   46.2911294
  18.3955242   46.2884773
  18.3960557   46.289627
  18.3960649   46.2888647
  18.3982867   46.2869747
  18.4147123   46.2912579
  18.4197618   46.282144
  18.4203336   46.2806225
  18.4220177   46.2772044
  18.4165345   46.2760334
  18.4138619   46.2699258
  18.4133213   46.2695385
  18.4122355   46.268392
  18.4116949   46.2680108
  18.4111587   46.2664831
  18.4117172   46.266102
  18.4111632   46.2660989
  18.4111677   46.2657208
  18.410627    46.2653397
  18.4100865   46.26419
  18.4101133   46.2619093
  18.4090143   46.2619031
  18.4101268   46.2607627
  18.4101357   46.2600004
  18.4096776   46.258971
  18.4096041   46.258857
  18.4090726   46.2569512
  18.4079917   46.2554204
  18.4074602   46.2542769
  18.4074692   46.2535146
  18.4063794   46.2527461
  18.4052941   46.2515995
  18.4052986   46.2512152
  18.4047672   46.2500718
  18.4047762   46.2493095
  18.4053256   46.2489345
  18.4053436   46.2474099
  18.4048033   46.2470226
  18.4037091   46.2466383
  18.4037453   46.2435891
  18.399369    46.2420455
  18.3993736   46.2416612
  18.3988333   46.2412801
  18.3982885   46.2412769
  18.3977393   46.2408895
  18.3972127   46.2393679
  18.3961279   46.2382151
  18.3950386   46.2374464
  18.3917524   46.236665
  18.3917569   46.2362869
  18.3912122   46.2362838
  18.3901183   46.2358993
  18.3895735   46.2358961
  18.3868322   46.2351178
  18.3840906   46.2351017
  18.3813817   46.2324205
  18.3802927   46.2316518
  18.3775512   46.2316355
  18.3759129   46.2312415
  18.3742609   46.2312316
  18.3737209   46.2308503
  18.3720737   46.2304562
  18.3660462   46.2304199
  18.3649526   46.2300352
  18.3644037   46.2296538
  18.3627656   46.2292596
  18.361672    46.2288749
  18.360593    46.2273436
  18.3600532   46.226956
  18.3595044   46.2265746
  18.3595188   46.2254342
  18.3600821   46.2246753
  18.3611899   46.2239197
  18.3617346   46.223923
  18.3623074   46.2224018
  18.3628616   46.2216428
  18.3639837   46.2197469
  18.3650866   46.2193755
  18.3667389   46.2186231
  18.3683959   46.2174865
  18.3700522   46.2171184
  18.3722394   46.2171315
  18.3733422   46.21676
  18.3760965   46.2163922
  18.3771857   46.2163987
  18.3788513   46.2152681
  18.3799493   46.2152747
  18.3810427   46.2156592
  18.3815872   46.2156624
  18.3821271   46.2160499
  18.383774    46.2164377
  18.3848628   46.2172064
  18.3870314   46.2187439
  18.3897673   46.2199003
  18.3913871   46.2218125
  18.393016    46.2229686
  18.3935696   46.2229718
  18.3941051   46.2237373
  18.3962924   46.2245061
  18.3968324   46.2248935
  18.3968233   46.2256558
  18.3990107   46.2264307
  18.4017429   46.2272026
  18.4033948   46.227212
  18.4061315   46.2276119
  18.4083057   46.2287647
  18.409404    46.2287709
  18.4110514   46.2291645
  18.4115872   46.2299299
  18.4126722   46.2310764
  18.4143019   46.232226
  18.4159451   46.2329976
  18.4170213   46.234144
  18.4170169   46.2345283
  18.4235943   46.2357053
  18.4257738   46.237242
  18.4263186   46.237245
  18.4268546   46.2380103
  18.4268459   46.2387726
  18.4284981   46.2387817
  18.4290342   46.239547
  18.4306776   46.239556
  18.4323256   46.2399431
  18.4334198   46.2403271
  18.4339646   46.2403301
  18.434514    46.2407174
  18.4350588   46.2407203
  18.4355994   46.2411013
  18.435595    46.2414856
  18.4366936   46.2414915
  18.4377879   46.2418755
  18.4383417   46.2418785
  18.4399723   46.2430339
  18.4399638   46.24379
  18.4405086   46.243793
  18.4405043   46.2441772
  18.4410581   46.2441802
  18.4410624   46.243796
  18.441603    46.2441831
  18.4432554   46.244192
  18.4432512   46.2445701
  18.443796    46.244573
  18.4443451   46.2441978
  18.4443409   46.2445759
  18.4448947   46.2445789
  18.4448904   46.2449631
  18.4443366   46.2449601
  18.4443324   46.2453382
  18.4448819   46.2457254
  18.4448693   46.2468658
  18.4454099   46.2472467
  18.4459638   46.2472497
  18.445393    46.2487713
  18.4442732   46.2506681
  18.4442435   46.2533331
  18.4458962   46.2533419
  18.4546778   46.2533884
  18.4546819   46.2530104
  18.4552269   46.2530132
  18.4579818   46.2518872
  18.4601753   46.2522768
  18.4596221   46.2530362
  18.4596138   46.2537985
  18.4656529   46.2538298
  18.465657    46.2534456
  18.4662019   46.2534484
  18.4667428   46.2538355
  18.4678294   46.2549815
  18.4672804   46.2553629
  18.4650622   46.2572543
  18.4645172   46.2572514
  18.4634061   46.2583861
  18.4617327   46.2602802
  18.4606303   46.2614211
  18.4606262   46.2617992
  18.4617162   46.2618048
  18.4628111   46.2621948
  18.4644395   46.264484
  18.4666205   46.2652576
  18.4682654   46.2660285
  18.4721037   46.2664262
  18.4743019   46.2664374
  18.475942    46.26683
  18.4775822   46.2672163
  18.4781321   46.2676034
  18.4786692   46.2683684
  18.4792153   46.2691335
  18.4792113   46.2695116
  18.4802976   46.2698951
  18.4802657   46.2729444
  18.4802577   46.2737067
  18.4808038   46.2744718
  18.480776    46.2771367
  18.4802059   46.2786586
  18.4807322   46.2813263
  18.4807283   46.2817044
  18.4807044   46.2839913
  18.4806964   46.2847536
  18.4806726   46.2870343
  18.4806686   46.2874186
  18.4801024   46.2885562
  18.4795412   46.2900781
  18.4784216   46.2919752
  18.4778563   46.2938751
  18.4767246   46.2969188
  18.4755888   46.3003405
  18.4777843   46.3007297
  18.4788801   46.3011195
  18.4816648   46.2973217
  18.4849866   46.2942951
  18.4855449   46.2939136
  18.4851125   46.2931719
  18.4882895   46.2939273
  18.4915923   46.2935655
  18.498185    46.2932135
  18.4995581   46.2930088
  18.5031365   46.2924752
  18.5075411   46.2909778
  18.5086407   46.2909831
  18.5092328   46.2871742
  18.5093629   46.2871341
  18.5188514   46.2841408
  18.5189606   46.283558
  18.5191639   46.2826532
  18.5197632   46.2802443
  18.5197425   46.2792285
  18.5181054   46.2784585
  18.5164743   46.2761638
  18.5159291   46.2761612
  18.5159328   46.2757831
  18.5153951   46.2750183
  18.5148522   46.2738753
  18.5170693   46.271983
  18.5187211   46.2712284
  18.5192751   46.271231
  18.5247768   46.2697319
  18.5253182   46.2701125
  18.5253255   46.2693564
  18.5258796   46.2693589
  18.5280852   46.2686068
  18.5302745   46.2686168
  18.5306251   46.2688592
  18.5308249   46.2689974
  18.5313628   46.2697622
  18.5313592   46.2701403
  18.5319132   46.2701428
  18.5314955   46.2707081
  18.5313519   46.2709026
  18.5319023   46.2712894
  18.5318915   46.2724297
  18.5313157   46.2747141
  18.5313121   46.2750922
  18.530725    46.2781893
  18.5307306   46.2789013
  18.5312722   46.2792818
  18.5312794   46.2785195
  18.5340413   46.2766293
  18.5345954   46.2766319
  18.5340485   46.275867
  18.5346098   46.2751072
  18.5346134   46.2747292
  18.5351586   46.2747317
  18.5362614   46.2743524
  18.5368119   46.2747392
  18.5373607   46.2743574
  18.5379112   46.2747441
  18.5390015   46.274749
  18.5417612   46.2739991
  18.5423099   46.2736173
  18.5423206   46.2724769
  18.5423312   46.2713365
  18.5412427   46.2701851
  18.5406976   46.2701826
  18.5396091   46.2690373
  18.5396197   46.2678969
  18.5390729   46.2671321
  18.539634    46.2663723
  18.5397088   46.2583773
  18.5408326   46.2557173
  18.5408575   46.2530523
  18.5403072   46.2526656
  18.5403179   46.2515252
  18.5397979   46.2488578
  18.5392476   46.248471
  18.538717    46.2469501
  18.5387456   46.2439009
  18.5382114   46.2427581
  18.537672    46.241231
  18.5371343   46.2404662
  18.5360465   46.2393208
  18.5349516   46.2389316
  18.533871    46.2370239
  18.5316813   46.2362516
  18.5284166   46.2339558
  18.5289796   46.2320494
  18.5306372   46.2305386
  18.5323073   46.2286372
  18.5328592   46.2278774
  18.5334092   46.2282642
  18.5350594   46.2275094
  18.5361612   46.2271363
  18.5372595   46.2271413
  18.5378078   46.2267595
  18.5383614   46.226762
  18.538365    46.2263839
  18.5394579   46.2260046
  18.5416544   46.2260145
  18.5427598   46.2252571
  18.5449668   46.2241265
  18.5455115   46.224129
  18.5466132   46.2237558
  18.5471633   46.2241363
  18.547715    46.2233764
  18.5477184   46.2229984
  18.5482701   46.2222385
  18.5466343   46.2214689
  18.547736    46.2210957
  18.5482806   46.2210981
  18.5488411   46.2203383
  18.552146    46.2192062
  18.5537888   46.2192134
  18.5548903   46.2188402
  18.5548869   46.2192182
  18.555985    46.219223
  18.5581689   46.2196168
  18.560355    46.2207667
  18.5619909   46.2215361
  18.5630823   46.2223031
  18.5630891   46.2215408
  18.5636427   46.2215432
  18.5647341   46.2223102
  18.5652787   46.2223125
  18.5680164   46.2227023
  18.5685666   46.2230889
  18.5708142   46.2162435
  18.5702696   46.2162412
  18.5680836   46.2150854
  18.5669889   46.2147026
  18.5658909   46.2146979
  18.5653531   46.2139333
  18.5653598   46.213171
  18.5653767   46.2112683
  18.5659381   46.209368
  18.5659449   46.2086057
  18.5665016   46.20823
  18.5676097   46.2070881
  18.567613    46.20671
  18.5687143   46.2063305
  18.5698189   46.2055728
  18.5709111   46.2051994
  18.5720189   46.2040636
  18.5709478   46.2010098
  18.5709512   46.2006317
  18.5698724   46.1994805
  18.5704201   46.1991048
  18.5726189   46.198736
  18.5742676   46.1979806
  18.5775707   46.1968478
  18.5792127   46.1968547
  18.5814146   46.1961015
  18.5825253   46.1945876
  18.5847311   46.1923097
  18.5863851   46.1919384
  18.5874924   46.1907963
  18.5891504   46.1889003
  18.5908018   46.1877666
  18.5913773   46.1851039
  18.5930477   46.1816832
  18.5952393   46.1820701
  18.5957772   46.1828346
  18.5985162   46.1828456
  18.5996105   46.183228
  18.6001637   46.1832302
  18.6017991   46.183999
  18.6034314   46.185152
  18.6050634   46.1874393
  18.6083316   46.189361
  18.6110649   46.1901277
  18.6127126   46.1905184
  18.6132569   46.1905205
  18.6138132   46.1901383
  18.6171572   46.1825402
  18.6210205   46.1791275
  18.6254275   46.1768571
  18.6342258   46.1730843
  18.6364346   46.1711834
  18.6397258   46.170055
  18.6419285   46.1689226
  18.6424872   46.1681623
  18.6435896   46.1662635
  18.6452565   46.1639825
  18.6463592   46.1632241
  18.6496608   46.1605707
  18.6518685   46.1586758
  18.652418    46.1579154
  18.6540871   46.1552562
  18.6551895   46.1544977
  18.6562884   46.1529769
  18.6573933   46.1518403
  18.6573961   46.1514561
  18.6584929   46.1514598
  18.6601506   46.1503252
  18.6623432   46.1491923
  18.6639981   46.1484356
  18.6650976   46.1480551
  18.6672927   46.1465441
  18.6700457   46.1442664
  18.6728049   46.1423729
  18.6744505   46.141616
  18.6760935   46.1412434
  18.677748    46.1404865
  18.6788408   46.1397277
  18.6805029   46.1378305
  18.6816147   46.1355471
  18.6821636   46.1347866
  18.6838165   46.1328892
  18.6843793   46.1313664
  18.6854808   46.1306076
  18.6860296   46.129847
  18.6865897   46.1287084
  18.6865973   46.1275681
  18.6860548   46.1260417
  18.6871561   46.1252829
  18.6874731   46.1248506
  18.6909835   46.1260574
  18.6926185   46.1268249
  18.6931686   46.1272047
  18.6931513   46.1298697
  18.6925962   46.1302522
  18.6915063   46.1306268
  18.6909536   46.1306251
  18.6904074   46.1310076
  18.6898497   46.1317681
  18.6898398   46.1332866
  18.6903899   46.1336726
  18.6914838   46.1340541
  18.6920251   46.1344401
  18.6925688   46.1344418
  18.693119    46.1348216
  18.6936628   46.1348233
  18.6942229   46.1336846
  18.6947666   46.1336864
  18.6947642   46.1340644
  18.6964157   46.1336915
  18.6964182   46.1333073
  18.6969644   46.1329309
  18.7013653   46.1291329
  18.7019203   46.1287565
  18.702464    46.1287582
  18.7041177   46.1280009
  18.7074048   46.1268705
  18.7107008   46.1257338
  18.7123477   46.1245984
  18.7167396   46.123471
  18.718384    46.1227135
  18.7211452   46.1185318
  18.7255228   46.1196848
  18.7271536   46.1212141
  18.7287889   46.1219811
  18.729894    46.1204596
  18.7359358   46.1174334
  18.7386759   46.1166786
  18.7414334   46.1143992
  18.7425226   46.1140241
  18.7441838   46.1117416
  18.7469298   46.1098463
  18.7491196   46.1102301
  18.7512922   46.1121448
  18.7518488   46.1113839
  18.7523944   46.1110011
  18.7551408   46.1106302
  18.7556863   46.1102473
  18.7573278   46.1098735
  18.7578802   46.1098749
  18.7578782   46.110253
  18.7584197   46.1106387
  18.7584156   46.111401
  18.7600491   46.1125455
  18.7611391   46.1136887
  18.7627896   46.1133148
  18.7644252   46.1140812
  18.7677113   46.1144675
  18.7753746   46.1144863
  18.7759219   46.1137253
  18.7770217   46.1129656
  18.7786707   46.1110669
  18.7792325   46.1091655
  18.7797778   46.1087888
  18.7803302   46.1087901
  18.7803284   46.1091681
  18.7885345   46.1091873
  18.7940123   46.109584
  18.8027743   46.1088411
  18.8082449   46.1088528
  18.8126303   46.1084778
  18.8153656   46.1084835
  18.8191952   46.1088755
  18.8197371   46.1092547
  18.8180961   46.1096356
  18.8164534   46.1103884
  18.8109555   46.1145666
  18.8131377   46.1168581
  18.8147644   46.1199046
  18.816405    46.1218168
  18.8169454   46.1225741
  18.8207586   46.1271557
  18.8229386   46.1302032
  18.8251173   46.1336348
  18.826759    46.13326
  18.8272997   46.1340234
  18.8272966   46.1347857
  18.8278432   46.1363052
  18.8278416   46.1366894
  18.8283839   46.1370685
  18.8283824   46.1374528
  18.828932    46.1382162
  18.8289305   46.1385942
  18.8300179   46.1408833
  18.8321901   46.1439305
  18.8358751   46.1427828
  18.83822     46.1431796
  18.8398606   46.1454696
  18.8403987   46.1469952
  18.8403944   46.1481356
  18.8409368   46.1485146
  18.8409195   46.1530885
  18.8403596   46.1572771
  18.8398128   46.1580323
  18.839804    46.1603192
  18.8392467   46.1614586
  18.8397953   46.1626062
  18.839791    46.1637465
  18.8408733   46.1652732
  18.841422    46.1664145
  18.840322    46.1671749
  18.8392234   46.1675571
  18.8430217   46.1774618
  18.8430159   46.1789865
  18.8441033   46.1816535
  18.8440962   46.1835562
  18.8501262   46.1839449
  18.8517652   46.1847101
  18.8517638   46.1850944
  18.8512127   46.1869961
  18.8512044   46.1892831
  18.8517446   46.1904244
  18.8528368   46.1919509
  18.854476    46.1927161
  18.8572232   46.1930988
  18.8659965   46.1927352
  18.8681828   46.1927387
  18.87093     46.193121
  18.8709152   46.1976888
  18.8676145   46.1999705
  18.866513    46.2011092
  18.8665105   46.2018715
  18.8659609   46.2033952
  18.8659559   46.2049199
  18.8659508   46.2064383
  18.865947    46.2075849
  18.8664889   46.2083481
  18.867036    46.2102517
  18.8681226   46.2110157
  18.8692168   46.2121579
  18.8714104   46.2129236
  18.8713968   46.2171133
  18.8719365   46.2186388
  18.8719242   46.2224442
  18.8675403   46.2224373
  18.8669982   46.2216741
  18.8664446   46.2216732
  18.8626132   46.21938
  18.8609756   46.2178589
  18.8565965   46.2140399
  18.8538626   46.2121326
  18.8505796   46.2090838
  18.8494844   46.2083196
  18.8483968   46.2079334
  18.8467483   46.2071681
  18.8423742   46.2048795
  18.8401799   46.2044912
  18.8385406   46.2037259
  18.8368938   46.2025824
  18.8352545   46.201817
  18.8330619   46.2010506
  18.8314197   46.2010474
  18.8303204   46.2014296
  18.8275757   46.2025647
  18.8253755   46.2037008
  18.82373     46.2044598
  18.822083    46.2056031
  18.8220751   46.2075058
  18.8226149   46.2086473
  18.8231562   46.2094107
  18.8247998   46.2113167
  18.8269761   46.213986
  18.8297104   46.2178029
  18.8313486   46.2189465
  18.8324437   46.2197109
  18.8335404   46.220091
  18.8362769   46.2212428
  18.8395685   46.2220112
  18.8412085   46.2227703
  18.8423053   46.2231566
  18.8450365   46.2258266
  18.8477651   46.2292588
  18.849948    46.2330681
  18.8510423   46.2342166
  18.8537772   46.236124
  18.8554205   46.2361268
  18.8620153   46.2349974
  18.8647622   46.2334773
  18.8669641   46.2319561
  18.869147    46.2334843
  18.8729797   46.235771
  18.8751695   46.2380614
  18.8757196   46.2392026
  18.8768032   46.2411132
  18.8767889   46.2456809
  18.8762416   46.2464424
  18.8729345   46.2498647
  18.8696372   46.2529027
  18.8690808   46.2536641
  18.8674332   46.2548019
  18.8652253   46.2578477
  18.8630055   46.2643146
  18.8624591   46.264698
  18.8624552   46.2658383
  18.8629977   46.2666016
  18.864093    46.2677437
  18.8673828   46.270036
  18.8690259   46.2704229
  18.8695799   46.2704238
  18.8739665   46.2708086
  18.8750657   46.2708103
  18.8761661   46.2704339
  18.8772677   46.2696733
  18.8783692   46.2689126
  18.8805745   46.2666289
  18.8844238   46.2643475
  18.8860736   46.2624471
  18.8888211   46.2609264
  18.8893762   46.2605491
  18.8921214   46.2597906
  18.8981633   46.2590364
  18.9003533   46.2586612
  18.9052942   46.2586675
  18.9069451   46.2594319
  18.9085881   46.259812
  18.9091321   46.2601969
  18.9096861   46.2601976
  18.9113282   46.2609557
  18.9107717   46.265529
  18.9113092   46.2685727
  18.9123951   46.2739041
  18.9129308   46.2777164
  18.9140208   46.2815232
  18.9145722   46.2826704
  18.9162077   46.2864778
  18.9178435   46.2902851
  18.9178353   46.2937125
  18.9189359   46.2933357
  18.9216629   46.3009558
  18.9216515   46.3059078
  18.9222006   46.3081893
  18.9210901   46.3127558
  18.9194382   46.3154252
  18.9172325   46.3177035
  18.9155831   46.3192262
  18.9111747   46.3222642
  18.9078682   46.3245471
  18.9051139   46.327593
  18.8996035   46.3340565
  18.8979458   46.338244
  18.8979416   46.3397687
  18.8979384   46.3409091
  18.8973794   46.342433
  18.8973763   46.3435734
  18.8962724   46.3447124
  18.8957244   46.345474
  18.8957085   46.3511883
  18.8945927   46.356517
  18.8945894   46.3576574
  18.8940312   46.3588032
  18.8934788   46.3610833
  18.8940162   46.3641333
  18.8934561   46.3690846
  18.8928959   46.3740298
  18.8917815   46.3786022
  18.8912219   46.3801199
  18.8879054   46.3873544
  18.8867925   46.3911583
  18.8862338   46.3923041
  18.8851219   46.3957299
  18.8856716   46.3976335
  18.8856557   46.4029636
  18.8889369   46.4113477
  18.8933264   46.4147812
  18.9004682   46.4212612
  18.9026615   46.4254538
  18.9070471   46.4311737
  18.9108898   46.4357462
  18.9136342   46.4387926
  18.9163761   46.4429856
  18.920224    46.4498448
  18.9234992   46.4605087
  18.9240465   46.464321
  18.9223628   46.4749795
  18.9173629   46.4913486
  18.9103695   46.4951571
  18.9118391   46.4970566
  18.9101812   46.4997197
  18.9074082   46.5031437
  18.9040933   46.5077074
  18.899113    46.5137936
  18.8963422   46.5191201
  18.895775    46.522931
  18.8952155   46.52712
  18.8957494   46.5320666
  18.8968486   46.5339771
  18.8957302   46.5389215
  18.8962731   46.5438743
  18.8973663   46.5480655
  18.89736     46.5503463
  18.8956714   46.5598702
  18.8934493   46.5640508
  18.8901328   46.5674737
  18.8895702   46.5693818
  18.8879111   46.5712823
  18.8845825   46.5754673
  18.8812659   46.5785057
  18.8779364   46.5826905
  18.8735085   46.5872517
  18.8712922   46.5887729
  18.8668567   46.5925715
  18.8640852   46.5959945
  18.8629716   46.5982797
  18.8613094   46.600564
  18.8596457   46.6032264
  18.8590763   46.6066528
  18.8612622   46.6142736
  18.8623618   46.6161782
  18.8689752   46.6207566
  18.8722819   46.6245672
  18.8755788   46.628762
  18.8761354   46.6291471
  18.8777859   46.6306681
  18.8805359   46.6344838
  18.8827422   46.636774
  18.8833      46.6367748
  18.8855032   46.6371561
  18.8888199   46.6383011
  18.89214     46.6383057
  18.9098302   46.6379504
  18.9114867   46.6375681
  18.917569    46.6375752
  18.9170075   46.6390992
  18.9192209   46.6391018
  18.9208756   46.6394879
  18.9230881   46.6398684
  18.9241931   46.6406319
  18.9241905   46.6417723
  18.9264032   46.642159
  18.9302708   46.6429253
  18.9330309   46.6440685
  18.9346842   46.6452106
  18.942424    46.6494077
  18.9440792   46.6497935
  18.9462923   46.6501736
  18.9473986   46.6505526
  18.9496028   46.6509388
  18.9501601   46.6513173
  18.952363    46.6524658
  18.9556821   46.6536089
  18.9562484   46.6486573
  18.9573457   46.6490424
  18.9595577   46.6501845
  18.9617704   46.6509486
  18.9639819   46.6524749
  18.9661852   46.6536169
  18.9678491   46.6543804
  18.971158    46.6566634
  18.9728205   46.6585735
  18.9739271   46.6589523
  18.9783408   46.6635228
  18.9827633   46.6688618
  18.9849655   46.6719061
  18.9866281   46.6745721
  18.9882827   46.6764757
  18.9893889   46.6776229
  18.9932554   46.6829549
  18.9960174   46.6856213
  18.9993384   46.6879097
  19.002101    46.6905759
  19.0037573   46.691717
  19.0048627   46.6947667
  19.0054205   46.6955231
  19.0059682   46.6978103
  19.0065256   46.6993351
  19.0065213   46.7050433
  19.0059598   46.7088548
  19.0042985   46.713422
  19.0020782   46.717989
  19.0009682   46.7198975
  18.9993092   46.7210372
  18.9981987   46.7233237
  18.9937604   46.7278895
  18.9904405   46.7309311
  18.9865606   46.7347408
  18.9859996   46.7366432
  18.9843379   46.7393074
  18.9837867   46.7404475
  18.9832233   46.7442588
  18.9826702   46.7469236
  18.9826674   46.7492106
  18.9798867   46.7522521
  18.9787837   46.7545385
  18.9782237   46.7553004
  18.9771097   46.7591052
  18.9771087   46.7598676
  18.9776648   46.7621549
  18.9776634   46.7632953
  18.9782111   46.7651984
  18.9710061   46.7644315
  18.9704527   46.7667181
  18.9699009   46.7678581
  18.9693395   46.7693824
  18.9676749   46.7728087
  18.9671133   46.7743329
  18.9660027   46.7750945
  18.9660021   46.7754725
  18.9621149   46.7807998
  18.9615621   46.7823241
  18.9604512   46.7830856
  18.9604506   46.7834637
  18.9587887   46.784609
  18.957679    46.7846081
  18.956568    46.7853634
  18.9554505   46.7899365
  18.9548975   46.7914545
  18.9537817   46.794881
  18.9526704   46.7956424
  18.9498946   46.7986894
  18.9537711   46.8009796
  18.9498877   46.8024948
  18.9471142   46.8040171
  18.9443322   46.805155
  18.9404474   46.8070604
  18.9354522   46.8089583
  18.9321248   46.8116201
  18.9287873   46.8146598
  18.9265598   46.8177068
  18.92489     46.8215105
  18.9243332   46.8241749
  18.9248736   46.8287495
  18.9254175   46.8317932
  18.9248623   46.8336953
  18.9248485   46.8397878
  18.9248337   46.8462644
  18.9242645   46.854259
  18.9250892   46.8571724
  18.9208912   46.8570465
  18.9176495   46.8570804
  18.9173346   46.8594598
  18.9149787   46.8592311
  18.91419     46.8591494
  18.9136402   46.859102
  18.9136541   46.8592136
  18.9059473   46.8583769
  18.9053784   46.858949
  18.9046975   46.859621
  18.9041163   46.8601133
  18.9026057   46.8598716
  18.9035336   46.8579083
  18.9037291   46.8575892
  18.9041359   46.8569053
  18.9024307   46.8562515
  18.901033    46.8566036
  18.889007    46.855006
  18.8881615   46.8562311
  18.8820293   46.855518
  18.8779704   46.8547731
  18.8753847   46.8539699
  18.8725798   46.8530952
  18.8670676   46.851476
  18.8617043   46.8500405
  18.8605953   46.8496769
  18.8639161   46.8466611
  18.8644167   46.8462059
  18.8656761   46.8446548
  18.8661087   46.8438849
  18.8662655   46.8436059
  18.8685166   46.842705
  18.8701277   46.8416322
  18.87286     46.8390546
  18.8729096   46.8390634
  18.8730144   46.8389679
  18.875439    46.838003
  18.8733443   46.8371626
  18.8738712   46.8361829
  18.8728993   46.8353509
  18.871237    46.8363926
  18.8691847   46.8358084
  18.8719223   46.8333917
  18.8701127   46.8328014
  18.8668166   46.8323763
  18.8667385   46.8319688
  18.8666653   46.8315972
  18.8663032   46.8294164
  18.8663267   46.8294106
  18.8651827   46.8251773
  18.864373    46.8244162
  18.8618477   46.8220369
  18.8592064   46.8203236
  18.854781    46.8175721
  18.8522982   46.8159946
  18.8510901   46.8151856
  18.8485456   46.8133953
  18.8482615   46.8131806
  18.8481651   46.8131179
  18.8476904   46.8128383
  18.8443283   46.8104214
  18.8402883   46.8083718
  18.8354184   46.804696
  18.8317683   46.8032289
  18.8275091   46.8003993
  18.8241439   46.798716
  18.8189908   46.7963993
  18.815462    46.7956733
  18.812569    46.7944666
  18.8100766   46.7938944
  18.8084766   46.7930027
  18.8051208   46.7920542
  18.7953231   46.7876529
  18.7948736   46.7874598
  18.7948735   46.7874159
  18.7928255   46.7857131
  18.7927224   46.7855396
  18.7918584   46.7844782
  18.7921246   46.7840066
  18.7925629   46.7829721
  18.7930704   46.7819407
  18.7934965   46.7808305
  18.7940739   46.7789833
  18.7941339   46.7788767
  18.794757    46.7773159
  18.7952898   46.7755206
  18.7958526   46.7735014
  18.7963557   46.7717226
  18.7964736   46.7714159
  18.7966475   46.7711191
  18.7968477   46.7705808
  18.7969148   46.770314
  18.7969949   46.7701263
  18.7972832   46.7697344
  18.7962171   46.7697539
  18.7903462   46.7710222
  18.7892445   46.7710189
  18.7875707   46.7706371
  18.7831405   46.769483
  18.7820463   46.7690906
  18.7765161   46.7687122
  18.7731805   46.7679528
  18.7687582   46.7675431
  18.7676426   46.767533
  18.7637415   46.7671585
  18.7609708   46.7671383
  18.7587764   46.7663791
  18.7565312   46.7663754
  18.7538188   46.7667486
  18.7515431   46.7678771
  18.7504422   46.7682516
  18.7493397   46.7682666
  18.7477011   46.7678822
  18.7455198   46.7674742
  18.7454698   46.7671079
  18.7449157   46.7663336
  18.745492    46.7651999
  18.7449535   46.76448
  18.7438424   46.763274
  18.7432371   46.7621724
  18.7400355   46.7610262
  18.7344397   46.7613453
  18.7315949   46.7613578
  18.7239832   46.7586615
  18.7239268   46.7590863
  18.712842    46.7552244
  18.7156281   46.7518076
  18.7162197   46.7495236
  18.7184565   46.7456871
  18.7212502   46.7445459
  18.7219858   46.7425324
  18.7223643   46.7414962
  18.7223325   46.7407912
  18.7240462   46.7396014
  18.7245922   46.7380977
  18.7251507   46.7369769
  18.726238    46.7358728
  18.7285031   46.7313507
  18.7285144   46.7308774
  18.7296148   46.7286271
  18.7312906   46.7259261
  18.7252338   46.723639
  18.7263859   46.7220983
  18.7274491   46.7213507
  18.7208312   46.7194715
  18.7203041   46.7202177
  18.7164078   46.7206011
  18.7123829   46.7190333
  18.7102748   46.7178928
  18.7070266   46.7164001
  18.7029009   46.7125559
  18.700372    46.7102815
  18.6987612   46.7083356
  18.6959867   46.7067734
  18.6904636   46.7021754
  18.6877579   46.7002827
  18.6838256   46.6979817
  18.6829728   46.6975914
  18.6816551   46.6969884
  18.6738897   46.6941553
  18.6730423   46.6940174
  18.6719295   46.693818
  18.6689801   46.6933793
  18.6661661   46.6933669
  18.6634759   46.6937303
  18.6590049   46.6914368
  18.6584818   46.6918327
  18.6540598   46.6902659
  18.6462911   46.6902843
  18.6457107   46.6898407
  18.6435281   46.6890859
  18.6424639   46.689123
  18.6408043   46.6887147
  18.6369358   46.6875522
  18.6363665   46.6875559
  18.6358081   46.6875539
  18.6346946   46.6883122
  18.6352501   46.6886923
  18.6352471   46.6890765
  18.636352    46.6894586
  18.636349    46.6898429
  18.6346742   46.6909772
  18.6335783   46.6905952
  18.6335754   46.6909732
  18.6333576   46.6909724
  18.633017    46.6909712
  18.6330082   46.6921116
  18.6341102   46.6928779
  18.632453    46.6928719
  18.6296849   46.6920994
  18.6285861   46.6920954
  18.6285831   46.6924796
  18.629679    46.6928618
  18.6296701   46.6940083
  18.6285653   46.6947604
  18.6285624   46.6951447
  18.6279891   46.6970453
  18.6285476   46.6970474
  18.6296494   46.6966734
  18.6302078   46.6966754
  18.6296405   46.6978138
  18.6307366   46.6993425
  18.6307307   46.7001048
  18.631824    46.7020116
  18.6318211   46.7023896
  18.629608    46.7020034
  18.6279476   46.7023754
  18.6273951   46.7027576
  18.6273891   46.70352
  18.6268277   46.703896
  18.6257226   46.7035138
  18.6251731   46.7035118
  18.6251641   46.7046522
  18.6257107   46.7050323
  18.6268158   46.7054206
  18.6279298   46.7046624
  18.629026    46.7061911
  18.6306866   46.7058129
  18.6317799   46.7077197
  18.6317741   46.708482
  18.6309737   46.7082053
  18.6306689   46.7080999
  18.6295578   46.7084739
  18.6284646   46.7077075
  18.6273565   46.7077035
  18.6273238   46.7118931
  18.6258692   46.7132089
  18.6256451   46.7134116
  18.6245458   46.7134075
  18.6234406   46.7130253
  18.6234376   46.7134034
  18.622879    46.7134013
  18.622876    46.7137794
  18.6234316   46.7141657
  18.6234286   46.7145438
  18.6228609   46.7156883
  18.6228549   46.7164506
  18.6222963   46.717589
  18.6228369   46.7187314
  18.6206203   46.7187231
  18.6200585   46.7202457
  18.6200555   46.7206237
  18.6206021   46.7210101
  18.6211608   46.7210122
  18.6222632   46.7217786
  18.6222512   46.7232971
  18.6233566   46.7236855
  18.624465    46.7236896
  18.6266789   46.7229355
  18.6272376   46.7229375
  18.6277814   46.7237019
  18.6283371   46.724082
  18.6288869   46.724084
  18.6294395   46.723708
  18.630548    46.723712
  18.6305421   46.7244744
  18.6294307   46.7248484
  18.6283253   46.7256066
  18.6244501   46.7255923
  18.6238883   46.7259745
  18.6238853   46.7263526
  18.6244411   46.7267327
  18.6238733   46.7278772
  18.6233176   46.7286375
  18.6227588   46.7286354
  18.6216473   46.7290093
  18.6216442   46.7293936
  18.6194331   46.7297634
  18.619427    46.7305257
  18.6194253   46.7308863
  18.6188579   46.7316529
  18.6172179   46.7316586
  18.6177503   46.733553
  18.6171902   46.7339438
  18.6171902   46.7347287
  18.6165958   46.7362073
  18.6160635   46.7366086
  18.6154922   46.737347
  18.6160685   46.7385123
  18.6165715   46.7388873
  18.6171256   46.7385202
  18.6171441   46.7381214
  18.6177259   46.737767
  18.6176797   46.7385075
  18.6187788   46.7389062
  18.6193413   46.7389014
  18.6199138   46.7392747
  18.6182368   46.7400349
  18.6160052   46.7400266
  18.6154817   46.7396341
  18.6155021   46.7392525
  18.6149091   46.7392734
  18.6148976   46.7408131
  18.6143728   46.7415504
  18.6148906   46.7419316
  18.6166084   46.7419379
  18.6170887   46.7411658
  18.6182441   46.7415826
  18.6187788   46.7415645
  18.6187972   46.7419379
  18.6176764   46.742671
  18.6176353   46.7449825
  18.6170517   46.7449948
  18.6154632   46.7453808
  18.6154078   46.7461023
  18.6159527   46.7465073
  18.6159804   46.7468743
  18.6148611   46.7468833
  18.6137522   46.7459693
  18.6137318   46.7463673
  18.6131979   46.746716
  18.6115355   46.747098
  18.610981    46.7471025
  18.6104132   46.7463389
  18.6093411   46.7463262
  18.60875     46.7459364
  18.6082169   46.7459378
  18.608218    46.7451769
  18.6071098   46.7455566
  18.6065387   46.7459493
  18.6054588   46.7463075
  18.6048858   46.7459262
  18.6043391   46.7451719
  18.6032456   46.7455415
  18.6015684   46.7455364
  18.6015729   46.7466789
  18.5999158   46.7466743
  18.5898675   46.7527366
  18.5854546   46.7557635
  18.5842973   46.7557411
  18.5826202   46.7553767
  18.5726902   46.7583787
  18.5692899   46.7652239
  18.5687262   46.766722
  18.56814     46.7667374
  18.5664911   46.7682781
  18.5659303   46.7686372
  18.56364     46.7728368
  18.56311     46.7735684
  18.5625508   46.773939
  18.5614144   46.7758415
  18.5608479   46.7781513
  18.5568954   46.7838124
  18.5558193   46.7839626
  18.5531042   46.7824399
  18.5409289   46.7797186
  18.5366105   46.777914
  18.5325895   46.7762336
  18.5293844   46.7743573
  18.5221511   46.7693414
  18.5182719   46.7677969
  18.5160361   46.7670186
  18.5077511   46.7654634
  18.5039157   46.7639342
  18.5050328   46.7620143
  18.5050508   46.7601361
  18.5067304   46.7582187
  18.5072727   46.7571109
  18.5084065   46.756333
  18.5106605   46.7533167
  18.5129861   46.7457023
  18.5079738   46.7445242
  18.5070317   46.7466813
  18.5064756   46.7471848
  18.5051754   46.7475541
  18.5046293   46.7471734
  18.504637    46.7464111
  18.5051946   46.7456514
  18.5046486   46.7452646
  18.5033303   46.7450104
  18.5029565   46.7452585
  18.5028886   46.7454448
  18.5029769   46.7456408
  18.5032284   46.7456743
  18.5035358   46.7456435
  18.5038935   46.7457908
  18.5040819   46.7460242
  18.5038887   46.7462565
  18.5035281   46.7464058
  18.5033886   46.746877
  18.5030796   46.7472435
  18.50284     46.7472562
  18.5026555   46.747173
  18.5024128   46.7465942
  18.5021894   46.7464112
  18.5017624   46.7463713
  18.5015097   46.7465609
  18.5013362   46.7468325
  18.5013025   46.7471575
  18.5015486   46.7474425
  18.5015801   46.7475589
  18.5015097   46.747682
  18.5012087   46.7478384
  18.5009595   46.7479593
  18.500597    46.7479748
  18.5003313   46.7477857
  18.5002523   46.7475689
  18.50033     46.7472795
  18.5002134   46.7471331
  18.5000387   46.7471331
  18.4996357   46.7473826
  18.4994172   46.7474924
  18.499178    46.7474683
  18.4986307   46.7471564
  18.4982127   46.7467174
  18.4977762   46.7466042
  18.4974509   46.746689
  18.4971628   46.7466847
  18.4968837   46.7463739
  18.4967019   46.74605
  18.4964234   46.7459609
  18.4959034   46.7460755
  18.4954392   46.7461963
  18.4952168   46.7462043
  18.4945897   46.7462268
  18.493968    46.745981
  18.493437    46.7454439
  18.4927167   46.7449195
  18.4920491   46.7448832
  18.4909982   46.7446769
  18.4901284   46.7445772
  18.4894692   46.7448253
  18.4889622   46.7453066
  18.4881229   46.7455188
  18.4874055   46.7453302
  18.4870088   46.7456269
  18.4870108   46.7461625
  18.4865013   46.7464792
  18.486071    46.7467467
  18.4852368   46.7470793
  18.4846829   46.7474546
  18.4844579   46.7482665
  18.484112    46.7485922
  18.483558    46.7489738
  18.483008    46.7489711
  18.4819031   46.7485813
  18.4810298   46.7486619
  18.4802352   46.748573
  18.4786211   46.7483734
  18.4780303   46.7481839
  18.4774753   46.7478031
  18.4774794   46.7474188
  18.4730609   46.7466342
  18.472506    46.7462534
  18.4721557   46.7461614
  18.4717518   46.7459674
  18.4714012   46.7458635
  18.4702964   46.7454798
  18.4692129   46.7439496
  18.4692211   46.7431873
  18.4681123   46.7431817
  18.4670075   46.7427979
  18.4664486   46.7427951
  18.4659028   46.742408
  18.4659069   46.74203
  18.4648064   46.741262
  18.4648105   46.7408839
  18.4649045   46.7407784
  18.4653694   46.7408868
  18.4664691   46.7408924
  18.4668015   46.7407468
  18.4670322   46.740511
  18.4669966   46.7401068
  18.4671732   46.739817
  18.4676316   46.7397314
  18.4681492   46.7397543
  18.4687031   46.7393791
  18.4689534   46.7391228
  18.4692343   46.7389526
  18.4693487   46.7387679
  18.4693678   46.7386705
  18.4692702   46.7386196
  18.4630517   46.7398293
  18.4626054   46.739726
  18.4476113   46.743077
  18.445408    46.7438194
  18.4370582   46.7475907
  18.4342057   46.7487223
  18.4203081   46.7524516
  18.4192576   46.7524663
  18.42306     46.759699
  18.4235615   46.7638899
  18.4241162   46.7646412
  18.4263105   46.7665847
  18.4268375   46.7677257
  18.4268337   46.7680978
  18.4251438   46.7703867
  18.4240136   46.7722684
  18.4223262   46.7760651
  18.4200759   46.7779632
  18.4189351   46.7794771
  18.4183913   46.7798656
  18.4183757   46.7806279
  18.4188967   46.7836681
  18.4199772   46.7871209
  18.4210564   46.788253
  18.4216057   46.7886346
  18.4221477   46.7893906
  18.4209625   46.7917022
  18.4170446   46.7977589
  18.4092557   46.803421
  18.4081243   46.8037933
  18.4076192   46.7992225
  18.4060952   46.7877848
  18.4055994   46.783214
  18.4056085   46.7824517
  18.4035397   46.7698767
  18.3968879   46.7702169
  18.3968603   46.7725038
  18.3962826   46.774019
  18.3962642   46.7755437
  18.3956954   46.7770651
  18.3962272   46.7785929
  18.3962226   46.7789709
  18.3967819   46.7789741
  18.3973275   46.7793615
  18.3973092   46.7808799
  18.3961811   46.7823982
  18.3955938   46.7854443
  18.3922601   46.7858032
  18.391155    46.7854188
  18.3889356   46.785406
  18.3878634   46.7823503
  18.3873177   46.7819691
  18.3856578   46.7819595
  18.3856437   46.7830998
  18.3867346   46.7846309
  18.38673     46.7850089
  18.3822158   46.7910753
  18.3805698   46.7899253
  18.3789101   46.7891532
  18.3750542   46.7872277
  18.3733989   46.7868336
  18.3723035   46.7856867
  18.3717628   46.7849211
  18.3723227   46.7841621
  18.3723274   46.783784
  18.3717819   46.7833965
  18.3706771   46.7830119
  18.3701225   46.7826305
  18.3695818   46.7818649
  18.3695866   46.7814807
  18.370701    46.7811092
  18.3695963   46.7807183
  18.3696059   46.779956
  18.3690556   46.7799528
  18.3673915   46.7795648
  18.3685155   46.778431
  18.3690844   46.7776721
  18.3712993   46.777301
  18.371304    46.7769229
  18.3691036   46.7761474
  18.3668991   46.7749939
  18.366335    46.7753686
  18.3652352   46.7745996
  18.3646801   46.7749806
  18.3613322   46.7764852
  18.3591125   46.7772279
  18.3546401   46.779866
  18.3484974   46.783256
  18.3468225   46.7843923
  18.3384069   46.7870089
  18.3342169   46.7878688
  18.3329009   46.7882317
  18.3305887   46.7885052
  18.3268489   46.788727
  18.3243997   46.7890565
  18.3219082   46.7897629
  18.3200552   46.7905665
  18.318603    46.7914627
  18.3100072   46.7974205
  18.3093431   46.7982686
  18.3092045   46.7987655
  18.309188    46.7995722
  18.3094539   46.801294
  18.3094412   46.8032229
  18.30885     46.8043156
  18.3088349   46.8050861
  18.310599    46.8118435
  18.310291    46.8132471
  18.3099154   46.8139493
  18.3096008   46.8143707
  18.3088856   46.8149945
  18.3083373   46.8153421
  18.3052518   46.8168295
  18.3035231   46.8174234
  18.3031374   46.8168591
  18.301488    46.8157227
  18.3004436   46.8153475
  18.2893504   46.8110571
  18.2827546   46.8083648
  18.2651359   46.7979474
  18.264596    46.7971759
  18.2640634   46.7960351
  18.2635148   46.7956481
  18.2640825   46.7945146
  18.2646441   46.7937716
  18.2640947   46.793374
  18.2608127   46.7907008
  18.2591769   46.7899193
  18.2575316   46.7887522
  18.2563895   46.7883748
  18.2547427   46.7887376
  18.2525032   46.7890947
  18.2514402   46.7871894
  18.2514451   46.7864299
  18.252018    46.7849232
  18.2520187   46.7845373
  18.2487439   46.7841362
  18.2476071   46.7837318
  18.2454338   46.7833349
  18.2420457   46.7829381
  18.2398724   46.7825336
  18.2354779   46.7809878
  18.2321403   46.7802012
  18.2315776   46.7813405
  18.229378    46.7797937
  18.2276867   46.7801827
  18.2266257   46.7805368
  18.2232644   46.7805185
  18.2215614   46.7808909
  18.2182871   46.7804763
  18.2155253   46.7796942
  18.210779    46.778241
  18.2094443   46.7781337
  18.2083408   46.7777413
  18.206681    46.777729
  18.2039057   46.7780928
  18.202231    46.7784585
  18.2000269   46.778064
  18.1989234   46.7776715
  18.1868437   46.7703475
  18.1824153   46.7703139
  18.1812937   46.7710678
  18.1796251   46.7710551
  18.1746189   46.7721573
  18.1674962   46.7675343
  18.1663932   46.7671415
  18.1664369   46.7644766
  18.1675835   46.7622045
  18.1687176   46.7606885
  18.1698488   46.7587944
  18.1709766   46.7576564
  18.1721291   46.7550001
  18.1722903   46.7451028
  18.1700789   46.7447014
  18.1612173   46.7446328
  18.1612235   46.7442547
  18.16068     46.7438662
  18.1612299   46.7438705
  18.1601363   46.7434839
  18.1601427   46.7430996
  18.1590339   46.743091
  18.1562727   46.7426913
  18.155145    46.7438229
  18.1545734   46.7445808
  18.1534519   46.7453344
  18.1523114   46.7472283
  18.1517551   46.7476082
  18.1517424   46.7483705
  18.1511861   46.7487442
  18.1506144   46.7495021
  18.1484094   46.7487223
  18.1412342   46.7475249
  18.1435134   46.743353
  18.1379914   46.7425466
  18.138088    46.7368326
  18.137551    46.7360721
  18.13589     46.7356745
  18.1325732   46.7356479
  18.1314775   46.7348767
  18.1281647   46.7340876
  18.1270626   46.7337006
  18.1237851   46.7313868
  18.1226962   46.7302375
  18.1204923   46.7294572
  18.118834    46.7294436
  18.1182687   46.7298171
  18.1160385   46.7305613
  18.1143802   46.7305477
  18.1144133   46.7286451
  18.1149918   46.7275093
  18.1161044   46.7267561
  18.1177848   46.7260074
  18.1183542   46.7248716
  18.1194824   46.7237341
  18.1211864   46.7210827
  18.1217647   46.719947
  18.1228992   46.7184314
  18.123488    46.7161552
  18.1246354   46.7138774
  18.1257632   46.7127461
  18.12746     46.7104726
  18.1280511   46.7085746
  18.1297671   46.7051608
  18.1303296   46.7044029
  18.1363803   46.7067387
  18.1402284   46.7082881
  18.1413236   46.7090592
  18.1469723   46.7026331
  18.1381499   46.70066
  18.1410306   46.6938277
  18.1316061   46.6945146
  18.1316191   46.6937523
  18.1262234   46.6945782
  18.132811    46.6888095
  18.1311606   46.6884119
  18.1289517   46.688016
  18.1284088   46.6876335
  18.1313485   46.6773743
  18.1296918   46.6773609
  18.1285779   46.67773
  18.127477    46.677343
  18.1252882   46.6758005
  18.1219856   46.6746331
  18.1181473   46.6726927
  18.1159548   46.6719124
  18.1137467   46.6715162
  18.1126527   46.6707448
  18.1137797   46.6696136
  18.1104778   46.6684459
  18.1110624   46.6669259
  18.1094104   46.6661499
  18.1072316   46.6646071
  18.1094568   46.663485
  18.1100216   46.6631054
  18.1067267   46.6615596
  18.1072981   46.6608019
  18.1067468   46.660413
  18.1073114   46.6600396
  18.1056662   46.6588855
  18.1034655   46.6581048
  18.1018162   46.6577068
  18.1023876   46.6569492
  18.1080465   46.6493784
  18.1042036   46.647828
  18.0981744   46.6447282
  18.0937834   46.6431666
  18.0926901   46.6424012
  18.0893835   46.6416109
  18.089424    46.6408583
  18.0894039   46.6404644
  18.089982    46.6393288
  18.0905375   46.6389554
  18.0905579   46.6378089
  18.0905917   46.6359063
  18.0892125   46.6318253
  18.0890176   46.6313248
  18.0884803   46.6301736
  18.0868386   46.6294035
  18.0769514   46.6258918
  18.0752964   46.6258776
  18.0747594   46.6247263
  18.0742451   46.622819
  18.0736943   46.6224362
  18.0720531   46.6216597
  18.0709538   46.6212659
  18.0715253   46.6205085
  18.0715528   46.6189901
  18.0726845   46.6170907
  18.072712    46.6155724
  18.0732971   46.6140526
  18.0738595   46.613295
  18.0749793   46.6125422
  18.0755506   46.6117847
  18.076106    46.6114114
  18.076684    46.6102758
  18.0783523   46.6095277
  18.0794857   46.6080126
  18.081188    46.6053618
  18.0817501   46.6046042
  18.0828901   46.602711
  18.0845874   46.6008225
  18.0845943   46.6004383
  18.0868377   46.5981701
  18.0874222   46.5966565
  18.0874493   46.5951319
  18.0863843   46.5928357
  18.0858699   46.5909285
  18.085333    46.5897834
  18.0848186   46.5878762
  18.0853805   46.5871186
  18.0848458   46.5863516
  18.0854077   46.585594
  18.0843226   46.5844443
  18.0843362   46.583682
  18.084907    46.5829245
  18.0799369   46.5828822
  18.078852    46.5817262
  18.078322    46.5802031
  18.0783905   46.5763917
  18.0773284   46.5744797
  18.0767987   46.5729504
  18.0751658   46.5717959
  18.0740949   46.5698838
  18.0730586   46.566063
  18.0719809   46.5645351
  18.0687278   46.5610794
  18.0659975   46.559531
  18.0643791   46.5576141
  18.0632881   46.5568422
  18.0583203   46.556799
  18.0572224   46.5564051
  18.0533876   46.5548529
  18.0522898   46.554459
  18.0501031   46.5536774
  18.0428479   46.5578034
  18.037816    46.5611864
  18.0389708   46.5585314
  18.0401825   46.5528272
  18.0402465   46.5494001
  18.0397251   46.5474926
  18.0397607   46.54559
  18.0392413   46.5440606
  18.0392555   46.5432983
  18.0386987   46.5432933
  18.0376011   46.5429054
  18.0370604   46.5425225
  18.0381865   46.5413859
  18.0382078   46.5402455
  18.0387698   46.5394882
  18.0327511   46.5371472
  18.0328656   46.5310552
  18.0335063   46.5261146
  18.0340755   46.524973
  18.0347107   46.5207886
  18.0358719   46.5177556
  18.0375878   46.5143432
  18.0376163   46.5128186
  18.0382066   46.5105367
  18.0382634   46.5074938
  18.0373894   46.5041739
  18.0353185   46.5038101
  18.0342574   46.5034151
  18.0319655   46.5023876
  18.0308205   46.5015291
  18.03575     46.4984235
  18.0388889   46.495969
  18.0392094   46.4957966
  18.0401851   46.4945037
  18.0417287   46.4913405
  18.0426043   46.4898178
  18.0436827   46.4874284
  18.0438651   46.4865678
  18.0450238   46.4841891
  18.0451913   46.4833355
  18.0461745   46.4813486
  18.0477954   46.4788703
  18.0485295   46.4764382
  18.048535    46.4755254
  18.0488518   46.4750082
  18.0502674   46.4728509
  18.0504933   46.4720233
  18.0509034   46.4712067
  18.0514612   46.4652478
  18.0515179   46.4619295
  18.0556625   46.4569797
  18.0568873   46.4555165
  18.0585276   46.4522763
  18.0602853   46.4494234
  18.0625741   46.4448689
  18.068252    46.4373165
  18.0676765   46.4369174
  18.0688134   46.4350243
  18.0644106   46.4346019
  18.0668227   46.4231993
  18.0558304   46.4219629
  18.0492263   46.4219048
  18.0492544   46.4203803
  18.0498783   46.4161957
  18.0471346   46.4157933
  18.0449658   46.4138712
  18.0410212   46.4187825
  18.0400089   46.4185403
  18.0393795   46.4183897
  18.0399545   46.4168701
  18.0377948   46.4149479
  18.0372606   46.4138026
  18.0372749   46.4130404
  18.0367426   46.4122732
  18.0361871   46.4122682
  18.0328474   46.4145193
  18.0317524   46.4141314
  18.0312256   46.4126019
  18.0312327   46.4122238
  18.0257534   46.4110277
  18.0268913   46.4091351
  18.0203104   46.407935
  18.0220309   46.4041448
  18.0159972   46.4029432
  18.0148446   46.405598
  18.0082644   46.4043972
  18.0094101   46.4021205
  18.0039379   46.4001672
  18.001736    46.4005312
END
END
