polygon
1
  16.3626409   46.7803976
  16.3626598   46.7800197
  16.3638359   46.7785219
  16.3644137   46.7781572
  16.3646422   46.7735859
  16.365249    46.7724592
  16.3669736   46.7713587
  16.3669928   46.7709747
  16.3686895   46.7702519
  16.3709447   46.7695484
  16.3737312   46.7692294
  16.37484     46.7692555
  16.3753331   46.7704082
  16.3758729   46.7708053
  16.3785646   46.7723941
  16.3796547   46.7727979
  16.3807257   46.7735858
  16.3818068   46.7739894
  16.3823657   46.7740025
  16.3828588   46.7751614
  16.3839111   46.7763271
  16.3861289   46.776379
  16.3867166   46.7756299
  16.3883845   46.7756689
  16.3905369   46.7768603
  16.3910958   46.7768733
  16.3916832   46.7761305
  16.3927921   46.7761564
  16.3933887   46.7754075
  16.3939199   46.7757982
  16.3944789   46.7758112
  16.3955598   46.7762209
  16.3961188   46.7762339
  16.397209    46.7766376
  16.3972277   46.7762598
  16.3983366   46.7762856
  16.3994179   46.7766891
  16.4033597   46.7756397
  16.4044785   46.7752812
  16.4062024   46.7741802
  16.4068084   46.7730532
  16.4063149   46.7718945
  16.4034245   46.7697694
  16.4025697   46.7691409
  16.4009396   46.7683402
  16.4003897   46.7683274
  16.399262    46.7686856
  16.3981157   46.7694217
  16.3969882   46.7697737
  16.3964946   46.7686212
  16.3965136   46.7682371
  16.3944277   46.7655219
  16.3944463   46.765144
  16.3928445   46.7639594
  16.3906272   46.7639076
  16.3873386   46.7630742
  16.3867888   46.7630613
  16.3856992   46.7626513
  16.3868643   46.7615375
  16.3874141   46.7615504
  16.3880106   46.7608016
  16.3869398   46.7600137
  16.3863713   46.7603787
  16.3853002   46.7595971
  16.3842484   46.7584252
  16.3853947   46.7576893
  16.3882557   46.7558524
  16.3894206   46.7547385
  16.389477    46.7535988
  16.3900834   46.7524657
  16.3906798   46.7517168
  16.3913045   46.7502121
  16.3929625   46.7502508
  16.3941462   46.7487529
  16.3919672   46.7479392
  16.3920611   46.7460376
  16.3926574   46.7452887
  16.3938786   46.7430289
  16.3944469   46.7426639
  16.3944658   46.7422799
  16.392883    46.7407236
  16.3907043   46.7399099
  16.3879575   46.7394612
  16.386868    46.7390574
  16.3836569   46.7366939
  16.3825766   46.7362903
  16.3820558   46.7355153
  16.3815063   46.7355024
  16.3810043   46.7343495
  16.3788639   46.7327738
  16.3778218   46.731602
  16.3773009   46.7308332
  16.3768084   46.7296743
  16.3762687   46.7292834
  16.375795    46.7277467
  16.3752744   46.7269717
  16.3747437   46.7265809
  16.3736929   46.7254089
  16.3726226   46.7246271
  16.3715719   46.7234551
  16.3707952   46.7222335
  16.3712031   46.7218312
  16.3713985   46.7216203
  16.3716074   46.7214219
  16.3716726   46.7213515
  16.3717934   46.7209497
  16.3724461   46.7199312
  16.373018    46.7190365
  16.3733021   46.7189284
  16.3747412   46.7187122
  16.3753676   46.7186182
  16.375343    46.7182461
  16.3751953   46.7177228
  16.3750788   46.7172985
  16.3749768   46.7171369
  16.375126    46.7170755
  16.3754753   46.7169644
  16.3758794   46.7168218
  16.3761376   46.7167945
  16.3768047   46.7165226
  16.3772579   46.7162852
  16.3774665   46.7161696
  16.3774852   46.7160884
  16.3774914   46.7159815
  16.37761     46.7158668
  16.3797279   46.715442
  16.3798267   46.7153869
  16.3795464   46.7151203
  16.3795403   46.7150104
  16.3796441   46.7146616
  16.3797136   46.7143633
  16.3796593   46.7140773
  16.379681    46.7138257
  16.3797929   46.7135445
  16.379852    46.7120219
  16.3796933   46.7114674
  16.3794299   46.7110397
  16.3792869   46.710885
  16.3787776   46.7104208
  16.378595    46.7102896
  16.3784084   46.7101614
  16.3778409   46.7098696
  16.3771849   46.7093855
  16.3771074   46.7093756
  16.3764353   46.7091221
  16.3753694   46.7086697
  16.3749659   46.708445
  16.3745564   46.7081153
  16.3736581   46.7074336
  16.3732524   46.7071513
  16.3731325   46.7071811
  16.3728411   46.7069487
  16.3727918   46.7069587
  16.3722365   46.7065374
  16.3715768   46.7060416
  16.3715952   46.7060342
  16.3710418   46.705758
  16.37024     46.7053136
  16.3700413   46.7051977
  16.3697427   46.70499
  16.3690428   46.7045118
  16.3685988   46.7042345
  16.3685547   46.70423
  16.3686003   46.7041885
  16.3689211   46.7040082
  16.3692454   46.7038548
  16.3708514   46.703309
  16.3718634   46.702981
  16.3724067   46.7027909
  16.3727935   46.7026272
  16.3731855   46.7022954
  16.3735281   46.7019503
  16.3744734   46.701409
  16.3753926   46.7009534
  16.3780919   46.700053
  16.3784719   46.6999712
  16.3788119   46.6998494
  16.3788566   46.6999045
  16.3796034   46.6995071
  16.3799351   46.6992361
  16.3801776   46.6990252
  16.380309    46.6988482
  16.3804479   46.6985923
  16.3816879   46.6980527
  16.3822958   46.6981396
  16.3827009   46.6981671
  16.3828032   46.6981721
  16.3834589   46.6980442
  16.38346     46.6980622
  16.3836489   46.6980277
  16.3845334   46.6979694
  16.3848542   46.6980841
  16.385036    46.6980596
  16.3855572   46.698043
  16.3861213   46.6979376
  16.3864884   46.6979256
  16.3875378   46.6978973
  16.3880841   46.6978047
  16.3887057   46.6977844
  16.3891138   46.6978524
  16.3894454   46.6978626
  16.3899953   46.6978078
  16.3903583   46.6977917
  16.3905714   46.6978241
  16.3911773   46.6978196
  16.3917789   46.6977557
  16.3917696   46.6977329
  16.3920748   46.697614
  16.3923684   46.697438
  16.3925778   46.6973927
  16.3927433   46.6974189
  16.3933893   46.6977065
  16.3939639   46.6978705
  16.3940629   46.6978613
  16.3950933   46.6976203
  16.3959746   46.6973661
  16.3962115   46.6973187
  16.3968545   46.6972594
  16.3974769   46.6973851
  16.3974566   46.697406
  16.397673    46.6974331
  16.3978953   46.6974267
  16.3982107   46.697364
  16.3984121   46.6973361
  16.3989666   46.6972963
  16.399126    46.6972958
  16.3993072   46.6973723
  16.400276    46.6973512
  16.4008182   46.6973262
  16.4013104   46.6973475
  16.4017851   46.6974901
  16.4021918   46.6974829
  16.4027188   46.6974527
  16.4037642   46.6973146
  16.404347    46.6972203
  16.4046156   46.6971594
  16.4048509   46.6971002
  16.4054594   46.6970238
  16.4059074   46.6969846
  16.4062802   46.6969528
  16.4070072   46.6968776
  16.4075062   46.6968301
  16.4079033   46.6968205
  16.4082715   46.6967882
  16.4088016   46.6966928
  16.4105656   46.6962038
  16.4115224   46.6960153
  16.4124818   46.6957517
  16.4130467   46.6956305
  16.4132391   46.6956216
  16.4133784   46.6956035
  16.4135526   46.6955723
  16.4137059   46.6955566
  16.4140161   46.6955498
  16.4142811   46.6955915
  16.4147171   46.6957699
  16.414859    46.6958048
  16.4150006   46.6958163
  16.4150604   46.6958264
  16.4150787   46.6958056
  16.4150361   46.6955426
  16.4150487   46.6954431
  16.4151053   46.6954608
  16.4152521   46.6955038
  16.4158186   46.6956563
  16.4161443   46.6957789
  16.4165397   46.6959495
  16.416851    46.6961319
  16.417055    46.6961917
  16.4171754   46.6962042
  16.4177995   46.6961892
  16.418331    46.6961585
  16.4187743   46.6961109
  16.4191815   46.6960365
  16.4204798   46.6958354
  16.4209015   46.6957941
  16.4216807   46.6957478
  16.4224344   46.6957131
  16.4229368   46.6957089
  16.4231468   46.6957444
  16.4235171   46.6958419
  16.4237581   46.6958697
  16.4239971   46.6958558
  16.4250058   46.6956642
  16.425199    46.6956313
  16.4254569   46.6955578
  16.4256465   46.6954751
  16.4261003   46.6951572
  16.4265468   46.6949374
  16.4264447   46.6947474
  16.4271745   46.6943925
  16.42782     46.6942177
  16.4285724   46.6939969
  16.4286336   46.6939738
  16.4280751   46.6935113
  16.4268925   46.6923926
  16.4266036   46.6919343
  16.4262431   46.6912568
  16.4256911   46.6901634
  16.4253565   46.6894561
  16.4251465   46.6894425
  16.4248746   46.6888681
  16.4247981   46.6887166
  16.4246562   46.6884525
  16.4245154   46.6882088
  16.4241221   46.6875782
  16.4238484   46.6871807
  16.4232482   46.6862974
  16.4232033   46.6862267
  16.4230351   46.6853598
  16.4229444   46.6845092
  16.4228721   46.6836484
  16.4226697   46.6828031
  16.4224298   46.6820473
  16.4223854   46.6819545
  16.4219053   46.68117
  16.4214878   46.6806105
  16.4213486   46.6804146
  16.42138     46.6801817
  16.4215342   46.680015
  16.4216551   46.6797203
  16.4216518   46.6795613
  16.421589    46.679488
  16.4218043   46.6793659
  16.4225371   46.6792321
  16.4229981   46.6791067
  16.4235526   46.6791252
  16.42387     46.6791015
  16.4245509   46.6789891
  16.4254447   46.6790273
  16.4255847   46.6789906
  16.4255751   46.6789585
  16.4254634   46.6785937
  16.4254095   46.6784278
  16.4251267   46.6780815
  16.4247432   46.6776605
  16.4244296   46.6774114
  16.4241235   46.6776628
  16.4240505   46.677628
  16.4239082   46.6775232
  16.4236603   46.6773063
  16.4227156   46.6772757
  16.4224874   46.6772498
  16.422313    46.6771952
  16.4221365   46.6771228
  16.4218235   46.6769783
  16.4212441   46.676589
  16.4208825   46.6762805
  16.4205002   46.6759008
  16.4204298   46.6757711
  16.4206431   46.6757138
  16.4209147   46.6756701
  16.4209008   46.6755273
  16.420832    46.6754248
  16.4207333   46.6753257
  16.4205729   46.6750465
  16.420578    46.6744205
  16.420333    46.6741245
  16.4207182   46.673903
  16.4214445   46.6735207
  16.4223513   46.6730063
  16.4228727   46.6728187
  16.4232316   46.6725909
  16.4233824   46.6727284
  16.4238591   46.6724696
  16.4243045   46.6721873
  16.4243592   46.6721499
  16.4247304   46.671896
  16.424982    46.6717529
  16.425263    46.6716485
  16.4252169   46.6715593
  16.4250524   46.6710944
  16.425045    46.6708012
  16.4252564   46.6706105
  16.4253258   46.6705282
  16.4253664   46.6704205
  16.4253555   46.6703097
  16.4249157   46.6696659
  16.4248348   46.66957
  16.4245916   46.6693113
  16.4245112   46.6691889
  16.4244141   46.6689843
  16.4243611   46.6688096
  16.4242752   46.6684013
  16.4240537   46.667874
  16.4238828   46.6677102
  16.4234364   46.6671611
  16.4233181   46.6670095
  16.423253    46.6670383
  16.421707    46.6663007
  16.421117    46.6661264
  16.4206669   46.6658252
  16.4201689   46.6657176
  16.4198728   46.6654468
  16.4197749   46.6653694
  16.4195926   46.66515
  16.4191728   46.6649562
  16.418684    46.6647551
  16.4184442   46.6645985
  16.4183242   46.6645374
  16.4189363   46.6643314
  16.41895     46.6641817
  16.4192563   46.6637298
  16.4196749   46.6633717
  16.4201512   46.6631981
  16.420296    46.6631141
  16.4203895   46.6628948
  16.420462    46.6627637
  16.4206424   46.6624886
  16.4203667   46.6620501
  16.4199005   46.6619141
  16.4201302   46.661052
  16.4200266   46.6608463
  16.4195469   46.6606866
  16.4192985   46.6598323
  16.4198455   46.6584771
  16.4166146   46.6590058
  16.4160706   46.6590767
  16.4155409   46.659218
  16.4148638   46.6592419
  16.4146305   46.6592009
  16.4138695   46.6593282
  16.4128236   46.6592355
  16.412809    46.6591802
  16.4124514   46.6592796
  16.411307    46.6592585
  16.4108103   46.6592432
  16.4107237   46.6592631
  16.4104259   46.6593204
  16.4102016   46.6594164
  16.4096726   46.6594365
  16.4082595   46.6596414
  16.4074729   46.6593622
  16.4071281   46.6592717
  16.4052931   46.6590702
  16.4045124   46.6588904
  16.4031166   46.6588211
  16.4034095   46.6612327
  16.4032872   46.6612737
  16.4027274   46.6614721
  16.4021698   46.6616909
  16.4020055   46.6618675
  16.4018895   46.6618751
  16.4010224   46.6619353
  16.4006383   46.6619072
  16.4001945   46.6619868
  16.3999501   46.662237
  16.3999247   46.6622327
  16.3996758   46.66269
  16.3995514   46.6636406
  16.3995041   46.6637715
  16.3994533   46.6637629
  16.3980693   46.6633893
  16.3965281   46.6639171
  16.3964639   46.6643019
  16.3959215   46.664695
  16.3929303   46.6639822
  16.3915424   46.6637257
  16.3914416   46.6633526
  16.3917864   46.6627306
  16.3927681   46.6623721
  16.3937071   46.6620901
  16.3934161   46.6618113
  16.3931842   46.6611181
  16.3935959   46.6610502
  16.3935452   46.6608029
  16.393453    46.6604041
  16.3931725   46.6592462
  16.3931681   46.6591481
  16.3928283   46.6591215
  16.391943    46.659067
  16.3917794   46.6589854
  16.3915366   46.6586913
  16.391424    46.6584229
  16.3914819   46.6582567
  16.3910367   46.6564872
  16.3907951   46.6558231
  16.3910975   46.6551417
  16.3905581   46.6549133
  16.3900387   46.6551776
  16.3893113   46.6547932
  16.3888274   46.6544377
  16.3881592   46.6540066
  16.3874132   46.6536033
  16.3862617   46.6536616
  16.3852629   46.6538946
  16.3854275   46.6514239
  16.3855937   46.6489149
  16.3857498   46.6468311
  16.3858995   46.644248
  16.3876297   46.6439381
  16.3889777   46.6430002
  16.3904333   46.6419958
  16.392091    46.6408757
  16.392141    46.6408173
  16.3917391   46.6406781
  16.3915853   46.6406408
  16.3913089   46.640575
  16.3902687   46.640391
  16.3899574   46.6402291
  16.389771    46.6400646
  16.3896612   46.6398477
  16.3896621   46.6396239
  16.3896593   46.6394802
  16.3896611   46.6393622
  16.3896634   46.639207
  16.3896659   46.6390616
  16.3896673   46.6389132
  16.3896683   46.6387805
  16.3895825   46.6385419
  16.3895727   46.638287
  16.3901866   46.6382348
  16.3902788   46.6382243
  16.3902827   46.6381843
  16.390452    46.6382449
  16.3904834   46.6379621
  16.3905713   46.6376766
  16.3909419   46.6373563
  16.3911317   46.63677
  16.3910596   46.6364284
  16.3910843   46.6364365
  16.3911449   46.63629
  16.3911782   46.636253
  16.3913299   46.6361732
  16.3915874   46.636079
  16.3916859   46.6360193
  16.3917366   46.6359923
  16.3920275   46.6359317
  16.3920204   46.6358999
  16.3919345   46.6353421
  16.3918858   46.6347264
  16.3917736   46.6337266
  16.3922535   46.6335991
  16.3929731   46.6336314
  16.3930157   46.633646
  16.3934864   46.6338433
  16.3935604   46.6338487
  16.3938188   46.6338398
  16.3943755   46.6339292
  16.3944954   46.6339171
  16.3948267   46.6339162
  16.3949831   46.6339633
  16.3951121   46.6339831
  16.3951284   46.6339931
  16.3952737   46.6340111
  16.3955091   46.6340119
  16.3958601   46.6339881
  16.3960402   46.6340328
  16.39631     46.6341522
  16.3966228   46.6342854
  16.3966517   46.6342865
  16.3968847   46.6343146
  16.3970382   46.6343208
  16.3971782   46.6343159
  16.3972634   46.634303
  16.3973057   46.6343086
  16.3974319   46.6343401
  16.3974912   46.6343475
  16.3980362   46.6343375
  16.3980651   46.6343276
  16.3983348   46.6343139
  16.3988337   46.6342823
  16.399058    46.6342369
  16.3992798   46.634208
  16.3996373   46.6341626
  16.3999478   46.6340323
  16.4000488   46.6339241
  16.400153    46.6337369
  16.4002835   46.6336551
  16.4003807   46.6334733
  16.4005285   46.6332806
  16.4007459   46.6330416
  16.4009145   46.6330215
  16.4011074   46.6329582
  16.4011643   46.6329416
  16.4011634   46.6328867
  16.4014185   46.6327834
  16.4016677   46.6326172
  16.4021136   46.6323276
  16.4025226   46.6321484
  16.4028467   46.6320902
  16.4030068   46.6320798
  16.4034724   46.6320907
  16.4040223   46.6320001
  16.4043128   46.6320486
  16.4044595   46.6323716
  16.4047842   46.6321856
  16.405804    46.6316726
  16.40647     46.6313398
  16.4075614   46.6308943
  16.4077722   46.6306487
  16.4076186   46.6302695
  16.4075435   46.6300589
  16.4075853   46.6298613
  16.4077357   46.6296847
  16.4083188   46.6290953
  16.4085654   46.6287344
  16.4087078   46.6285765
  16.4089894   46.6283946
  16.4091112   46.6283457
  16.4102635   46.6280049
  16.4124936   46.627645
  16.4125152   46.6276038
  16.4127124   46.6272229
  16.4138689   46.6250719
  16.4146893   46.6239964
  16.4149746   46.6238009
  16.4153173   46.6236953
  16.4155907   46.6236657
  16.4173057   46.6203294
  16.4190563   46.6188257
  16.4204675   46.6176099
  16.4211365   46.617038
  16.4212314   46.6169892
  16.4213961   46.6169758
  16.4214232   46.6167934
  16.422803    46.6153747
  16.4245413   46.6135512
  16.4248583   46.6131645
  16.424902    46.6131638
  16.425598    46.6131713
  16.4274399   46.6131319
  16.4275657   46.6131302
  16.4316491   46.6130609
  16.4336337   46.6131889
  16.4377551   46.6123949
  16.4455713   46.610952
  16.4463929   46.609035
  16.4467703   46.6077787
  16.4485247   46.6059735
  16.4496082   46.6044139
  16.4506496   46.6027755
  16.4521949   46.6006881
  16.4536428   46.6007058
  16.4543229   46.6000753
  16.4556192   46.5987998
  16.4556769   46.5978281
  16.4568848   46.597632
  16.4571365   46.5975942
  16.4573172   46.5975468
  16.4577567   46.5975095
  16.4581629   46.5974949
  16.4582008   46.5974405
  16.4588436   46.5973226
  16.4590507   46.5972895
  16.4601366   46.597067
  16.4611555   46.5969901
  16.4612456   46.5969834
  16.4614332   46.5969399
  16.4615427   46.5969265
  16.4615118   46.5968463
  16.4615578   46.5967971
  16.4622526   46.5960541
  16.4633075   46.5949507
  16.4629901   46.5944267
  16.464578    46.5918906
  16.464853    46.5917926
  16.4665464   46.5893547
  16.4681858   46.5868878
  16.4688718   46.585819
  16.469132    46.5856138
  16.4699871   46.5858353
  16.4706183   46.5861661
  16.4718277   46.586792
  16.4723057   46.587024
  16.4725593   46.587127
  16.4734475   46.5875445
  16.4750189   46.5860922
  16.4763029   46.5853635
  16.4772896   46.5846122
  16.4777908   46.5840352
  16.4786918   46.5833002
  16.4788362   46.5831004
  16.4799673   46.5820404
  16.4800402   46.5817694
  16.4813454   46.5795444
  16.4820557   46.5790078
  16.4829026   46.5787107
  16.4833498   46.5785173
  16.4837396   46.5777482
  16.4840335   46.5775554
  16.4828901   46.5767611
  16.482342    46.5760615
  16.4822207   46.5757982
  16.4820033   46.5752106
  16.4819096   46.5748609
  16.4818555   46.5744391
  16.4819812   46.5735812
  16.4822598   46.5733594
  16.4822694   46.5729493
  16.4821507   46.5720787
  16.4821795   46.5718235
  16.4823006   46.5713239
  16.4825108   46.5707581
  16.4827083   46.5697068
  16.4825516   46.5692916
  16.4824296   46.5684794
  16.4823038   46.5682423
  16.4820141   46.5677738
  16.4819077   46.5674268
  16.4819851   46.5668362
  16.482735    46.5661824
  16.4828967   46.5661769
  16.4829704   46.5659846
  16.4845614   46.5658531
  16.4849747   46.5658611
  16.4853139   46.5658129
  16.4862121   46.5656201
  16.4863691   46.5654607
  16.4871624   46.5652521
  16.4873409   46.5652366
  16.4875312   46.5652244
  16.4880216   46.5651414
  16.4883673   46.5650831
  16.4887037   46.5651372
  16.4888702   46.5652278
  16.4892464   46.5654386
  16.4896913   46.5656866
  16.4902022   46.5656005
  16.4911197   46.565216
  16.4917003   46.5649938
  16.4920499   46.5649415
  16.492578    46.5646544
  16.4928075   46.5645566
  16.4930655   46.5644454
  16.493083    46.5639913
  16.4930892   46.5638275
  16.4929735   46.5635498
  16.4929605   46.5631478
  16.4930056   46.5629115
  16.4930869   46.5625053
  16.4936093   46.5625374
  16.4947284   46.5625465
  16.4953761   46.5624362
  16.4958372   46.5626717
  16.4961712   46.5630249
  16.4964381   46.5630638
  16.4966528   46.5632438
  16.4971085   46.5632899
  16.4976256   46.5630204
  16.4980186   46.5629687
  16.4988104   46.5627078
  16.4991724   46.5627238
  16.4995569   46.5624891
  16.4999625   46.5623244
  16.500512    46.5623576
  16.5008657   46.5624155
  16.5011604   46.5624134
  16.5014212   46.562578
  16.5017311   46.5629644
  16.5018849   46.5630901
  16.5022664   46.5632403
  16.5026993   46.5633338
  16.5027658   46.5634177
  16.5029279   46.5636247
  16.5031243   46.5635444
  16.5033158   46.5634624
  16.5038204   46.5635376
  16.5041683   46.5635908
  16.5043843   46.5637807
  16.5044234   46.5639651
  16.504408    46.5641366
  16.5046233   46.5642959
  16.5049037   46.5643324
  16.5052621   46.5642563
  16.5056361   46.5641748
  16.5058697   46.5641591
  16.5060937   46.5641431
  16.5062884   46.564108
  16.5064877   46.5640755
  16.5067458   46.564149
  16.5069333   46.564293
  16.507035    46.5643671
  16.5073895   46.5645085
  16.5074447   46.5645445
  16.5076763   46.5647032
  16.5080175   46.5648549
  16.5083356   46.5652338
  16.5130416   46.5594689
  16.5133625   46.5594643
  16.5136131   46.5591356
  16.5134417   46.5590456
  16.5143502   46.5579464
  16.5148169   46.5572659
  16.5163857   46.5554252
  16.517313    46.5543214
  16.518648    46.5526799
  16.5186845   46.5524011
  16.518623    46.5521512
  16.5188872   46.5515255
  16.5188238   46.5510745
  16.5186916   46.5508763
  16.5183299   46.5503622
  16.5182535   46.5501531
  16.5180913   46.549347
  16.5182218   46.5483292
  16.5182173   46.5474615
  16.5182939   46.5472836
  16.5186429   46.5469683
  16.5192246   46.546653
  16.5192791   46.5465096
  16.5193072   46.5462906
  16.5188082   46.5457319
  16.5183908   46.5447853
  16.5182015   46.5444773
  16.5180658   46.5441854
  16.51755     46.5437653
  16.5171831   46.5433884
  16.5170964   46.5430652
  16.516852    46.5427543
  16.5167509   46.5425333
  16.5163145   46.5420459
  16.5161472   46.5416848
  16.51618     46.5413311
  16.5160472   46.5411319
  16.5166999   46.5410151
  16.5169923   46.5409425
  16.5177589   46.540531
  16.517542    46.5402346
  16.5174222   46.5401464
  16.5171597   46.5399671
  16.5170465   46.5398721
  16.5168985   46.5394077
  16.5173842   46.5391621
  16.5176868   46.5390032
  16.5178939   46.5388184
  16.517708    46.5385671
  16.5171073   46.5388181
  16.5167019   46.5382368
  16.5167467   46.5381318
  16.516949    46.538033
  16.5172284   46.5380308
  16.5175846   46.5379087
  16.5179981   46.5376601
  16.5179872   46.5373707
  16.517585    46.537016
  16.517551    46.5367877
  16.5175898   46.536311
  16.517869    46.5360834
  16.5183464   46.5359292
  16.5185868   46.5357554
  16.5185174   46.5353394
  16.5187778   46.5352821
  16.5189261   46.5352317
  16.5190659   46.5351862
  16.5194812   46.5350764
  16.5197955   46.5350128
  16.5200643   46.534959
  16.5206976   46.5349814
  16.520821    46.5350034
  16.5211159   46.5350594
  16.521442    46.5352045
  16.5219439   46.5351617
  16.5221885   46.5352086
  16.5224451   46.535176
  16.5228246   46.5352009
  16.5230842   46.5351718
  16.5233727   46.535619
  16.5239405   46.5355166
  16.5242742   46.5352146
  16.5256035   46.5352316
  16.5267447   46.535034
  16.526988    46.5350236
  16.5271775   46.535051
  16.5275693   46.534871
  16.5277113   46.5347885
  16.5278429   46.5348799
  16.5281718   46.5343584
  16.5282936   46.5340865
  16.528333    46.5339596
  16.5283706   46.5335487
  16.5286684   46.5331786
  16.5288329   46.5327441
  16.5291336   46.5327983
  16.5298743   46.532303
  16.5304962   46.5320509
  16.5310431   46.5320664
  16.531688    46.5319221
  16.5320804   46.5317539
  16.5321721   46.5316517
  16.5324201   46.5315368
  16.5324346   46.5312975
  16.531907    46.530807
  16.5318905   46.5306405
  16.5319033   46.530413
  16.5317485   46.5302495
  16.5315498   46.5299292
  16.5313436   46.5295502
  16.5310174   46.5296238
  16.53055     46.529736
  16.5300166   46.5286451
  16.5298973   46.5274307
  16.5299526   46.5273226
  16.5299915   46.5272498
  16.5300163   46.5272078
  16.5301993   46.5269167
  16.5304961   46.5265132
  16.5304461   46.5263686
  16.530494    46.525992
  16.5306875   46.5255824
  16.5307838   46.5254476
  16.5308116   46.5252619
  16.5307795   46.5251386
  16.5302757   46.525155
  16.5300923   46.5250904
  16.5298818   46.5250213
  16.5298168   46.5249191
  16.5296743   46.5248705
  16.5293679   46.5248769
  16.5288719   46.5246852
  16.528649    46.5245619
  16.5283848   46.5242186
  16.5279955   46.5237294
  16.5287005   46.5231213
  16.5286243   46.5230658
  16.5281009   46.5233866
  16.5273495   46.5226256
  16.5246581   46.5198995
  16.5245942   46.5198357
  16.5245763   46.5198064
  16.5243832   46.5195055
  16.5244378   46.5194342
  16.5248547   46.5193504
  16.5250082   46.5192822
  16.5251045   46.5190594
  16.525587    46.5184812
  16.5258046   46.5183676
  16.5257879   46.5182049
  16.5257311   46.5180458
  16.5255003   46.5175986
  16.5254412   46.5171893
  16.5256182   46.5170583
  16.5257869   46.5170268
  16.5257245   46.5169196
  16.5253483   46.5164948
  16.5255265   46.5163227
  16.525265    46.5160211
  16.5253619   46.5158657
  16.5255853   46.5156842
  16.5257927   46.5153885
  16.5262588   46.5154389
  16.5271281   46.515364
  16.5278631   46.5151048
  16.5281626   46.5149508
  16.5286521   46.5150362
  16.5295261   46.5151325
  16.5302436   46.5151897
  16.5315993   46.5153198
  16.531865    46.5151861
  16.5319535   46.5150329
  16.53216     46.5148796
  16.5323156   46.5148077
  16.5324521   46.5146314
  16.5327233   46.5144791
  16.5329084   46.5144643
  16.5332297   46.5143477
  16.5316763   46.5111721
  16.529942    46.5075404
  16.5252885   46.5085882
  16.5236253   46.5053038
  16.5253198   46.5043078
  16.5312208   46.5008653
  16.5314788   46.5007279
  16.532048    46.5005265
  16.5322916   46.5004899
  16.5327282   46.5004181
  16.5330162   46.5003742
  16.533671    46.5003199
  16.5345526   46.5002552
  16.535473    46.5001782
  16.5363823   46.5000998
  16.5368436   46.4999554
  16.537208    46.4997729
  16.5383285   46.4991769
  16.5410891   46.4976722
  16.5438043   46.4962182
  16.5451661   46.4954768
  16.5461792   46.4949398
  16.5465005   46.4946979
  16.5469484   46.4945313
  16.5480187   46.4942133
  16.5486162   46.4940354
  16.5493875   46.4938099
  16.550701    46.4933703
  16.5511716   46.4931022
  16.5516786   46.4928321
  16.5523276   46.4924796
  16.552569    46.4923525
  16.5529647   46.492213
  16.5532058   46.4921461
  16.5539892   46.4920007
  16.5550904   46.4917798
  16.5557678   46.4918294
  16.5559374   46.4917812
  16.556134    46.4917092
  16.5566839   46.4914225
  16.557208    46.4911693
  16.5613455   46.4894022
  16.5616009   46.4893436
  16.561974    46.4893057
  16.5622676   46.4893223
  16.5625219   46.489377
  16.5634062   46.4896953
  16.563651    46.4897371
  16.5638757   46.4897561
  16.5640694   46.4897585
  16.5643451   46.4897395
  16.5646209   46.489686
  16.5663739   46.4891999
  16.5667632   46.489062
  16.56935     46.4879805
  16.5696523   46.4878251
  16.569879    46.4876233
  16.5700611   46.4874088
  16.5701505   46.4871596
  16.5701335   46.4868636
  16.5698226   46.4859342
  16.5697729   46.4856409
  16.5697884   46.4854362
  16.5698269   46.4852541
  16.5699802   46.4849785
  16.5701377   46.4847704
  16.5703974   46.4845798
  16.5706955   46.4844039
  16.5731522   46.4835625
  16.5742762   46.4831257
  16.5752938   46.4827856
  16.5756472   46.482642
  16.5761709   46.4823781
  16.5779549   46.4816041
  16.5792879   46.4810456
  16.5795042   46.4808967
  16.5796326   46.4807408
  16.5799217   46.480246
  16.5799758   46.4800226
  16.5799589   46.4798858
  16.5798434   46.4794019
  16.5798392   46.4792084
  16.5798767   46.4790616
  16.5799911   46.4788534
  16.5801457   46.4786798
  16.5803738   46.4784819
  16.5809027   46.478211
  16.5811629   46.4781353
  16.581574    46.47805
  16.5837114   46.4774167
  16.5844054   46.477276
  16.5847801   46.4772554
  16.5849242   46.4772547
  16.5858786   46.4772642
  16.5861426   46.4772232
  16.5863682   46.4772056
  16.5868791   46.477232
  16.5880245   46.4771909
  16.589008    46.4770707
  16.5895147   46.4770531
  16.5911624   46.4768215
  16.5932984   46.4767081
  16.5937654   46.4767202
  16.5941273   46.4767789
  16.5941617   46.4766769
  16.5953318   46.4765999
  16.5960064   46.47606
  16.5967003   46.4759106
  16.5967977   46.475898
  16.5970195   46.4759422
  16.5972836   46.4761131
  16.5975022   46.476407
  16.5976749   46.4766383
  16.5982549   46.4770503
  16.5983061   46.4770653
  16.5989564   46.477103
  16.5990189   46.4770914
  16.5991058   46.4770534
  16.6001168   46.4765447
  16.6002305   46.4764782
  16.6003522   46.4763914
  16.6008947   46.4761257
  16.6009767   46.4761232
  16.6011807   46.4760673
  16.6017547   46.4761359
  16.6023624   46.4762974
  16.6024495   46.4763782
  16.6026538   46.4764621
  16.6027439   46.4764833
  16.6028385   46.4764848
  16.603438    46.4764832
  16.603975    46.4764569
  16.6040958   46.4764285
  16.6045277   46.4763772
  16.6050396   46.476469
  16.6055758   46.4764242
  16.605854    46.4764112
  16.6063403   46.4760329
  16.6064081   46.4759937
  16.606488    46.4758095
  16.6065038   46.4756349
  16.606499    46.4755638
  16.6063591   46.4752157
  16.60634     46.4751672
  16.6061638   46.4749188
  16.6061035   46.4743963
  16.6061103   46.4742486
  16.6063422   46.4735843
  16.6065762   46.4731536
  16.606788    46.4729397
  16.6071398   46.4726608
  16.6072423   46.4725928
  16.6078509   46.4724291
  16.6085577   46.4722391
  16.6091205   46.4720033
  16.6093485   46.4718633
  16.6098051   46.4715653
  16.6100126   46.4714383
  16.610043    46.4711764
  16.6102082   46.4708482
  16.6108464   46.4702891
  16.6109226   46.4701843
  16.6110051   46.4700261
  16.6110837   46.4698423
  16.61097     46.4693283
  16.6108853   46.4687146
  16.611451    46.4687193
  16.6119425   46.4687001
  16.6129233   46.4686618
  16.6137364   46.4684993
  16.6143046   46.4682756
  16.6146879   46.4680346
  16.6150144   46.4676824
  16.6151673   46.4673656
  16.615254    46.4665999
  16.6152801   46.46637
  16.6153732   46.4659701
  16.6154203   46.4657703
  16.6158279   46.4653743
  16.6158827   46.4653355
  16.6160493   46.4652162
  16.6170513   46.4647177
  16.617499    46.4646935
  16.617958    46.4647603
  16.6183176   46.4648631
  16.6187461   46.4650784
  16.6192981   46.4653948
  16.6203293   46.4667594
  16.6216392   46.4677784
  16.6229623   46.4682467
  16.6237488   46.468315
  16.6253197   46.4680494
  16.6257011   46.4679145
  16.6261361   46.4677661
  16.6272627   46.4670651
  16.6277936   46.4663661
  16.6279032   46.4641843
  16.628067    46.463525
  16.6283928   46.4628916
  16.6294651   46.4620841
  16.6303042   46.4616949
  16.6311911   46.461535
  16.6320095   46.4615361
  16.6330047   46.4619604
  16.6336378   46.4625856
  16.634658    46.4640512
  16.6354967   46.4645537
  16.636439    46.4647442
  16.6372903   46.4646906
  16.6373724   46.4646701
  16.6390992   46.464061
  16.6406676   46.4638324
  16.6415032   46.4637517
  16.6423852   46.4637528
  16.6427355   46.4638114
  16.6431187   46.4638782
  16.6437039   46.4640615
  16.6443211   46.4642208
  16.6455776   46.4641925
  16.6467081   46.4641057
  16.6522688   46.4633052
  16.6532281   46.4630927
  16.6543524   46.4622034
  16.6565213   46.4616979
  16.65664     46.4616702
  16.6596149   46.4605762
  16.6620458   46.459787
  16.6632367   46.459695
  16.6637652   46.4594639
  16.6642159   46.4591595
  16.6643532   46.4590031
  16.6644321   46.4588136
  16.6648735   46.457754
  16.6659739   46.456419
  16.6662024   46.4559403
  16.6660024   46.453614
  16.6657068   46.4527202
  16.6652187   46.4520125
  16.663973    46.4508282
  16.6620174   46.4499207
  16.6600616   46.449464
  16.6591055   46.449117
  16.6581874   46.4486794
  16.657393    46.4475705
  16.6571758   46.4469271
  16.6574656   46.4461446
  16.6580368   46.4455435
  16.6589308   46.4451257
  16.659788    46.4449935
  16.6607486   46.44508
  16.661902    46.4455009
  16.6630514   46.4461783
  16.6641945   46.4474096
  16.6651001   46.4480241
  16.6673799   46.4490569
  16.6690979   46.449436
  16.6708961   46.4495521
  16.672094    46.4492942
  16.6732932   46.4488064
  16.6739654   46.4482193
  16.6743513   46.4473156
  16.6744211   46.4460941
  16.6743711   46.4454185
  16.6744074   46.4449084
  16.6745374   46.4445456
  16.6747949   46.4440585
  16.6754742   46.442961
  16.6763832   46.442046
  16.6786234   46.441
  16.6794705   46.4404475
  16.6805765   46.4391455
  16.6809914   46.438383
  16.6814226   46.4372758
  16.6817072   46.4366869
  16.6829513   46.434916
  16.6837735   46.433793
  16.68568     46.4312116
  16.6866049   46.4299105
  16.6880718   46.4280447
  16.6890148   46.4256396
  16.6902718   46.4241046
  16.6910515   46.4230552
  16.6921185   46.4214094
  16.6937814   46.4200831
  16.694902    46.4187541
  16.6966938   46.4167957
  16.699769    46.4137615
  16.7009233   46.4120392
  16.7009922   46.411935
  16.7022539   46.4100508
  16.7031206   46.4075631
  16.7044323   46.4059144
  16.7075632   46.403004
  16.7096022   46.4017128
  16.7126636   46.4004315
  16.7144271   46.3991509
  16.7156058   46.3981428
  16.7161074   46.3972277
  16.7161723   46.3942355
  16.7170771   46.3927548
  16.7175854   46.3922244
  16.7187155   46.3915451
  16.7200085   46.3912659
  16.7214486   46.3916702
  16.7221956   46.3920904
  16.7227239   46.3926239
  16.7236971   46.3955203
  16.7235953   46.3977737
  16.7248142   46.3990824
  16.7260752   46.4000732
  16.7274998   46.4006013
  16.730805    46.4011145
  16.7341851   46.4011369
  16.7359377   46.4008106
  16.7369051   46.4003406
  16.7376351   46.3997982
  16.7396425   46.3987751
  16.7399482   46.3981214
  16.7397843   46.3962887
  16.7392851   46.3927874
  16.7390447   46.3911429
  16.7389827   46.3897129
  16.7399013   46.3884295
  16.7410085   46.3871533
  16.7417601   46.3863852
  16.7416227   46.3857719
  16.7429432   46.3853955
  16.7450717   46.3851526
  16.7470701   46.3851875
  16.7490774   46.3852938
  16.7507464   46.3859698
  16.751505    46.3877888
  16.7515136   46.3884123
  16.7516939   46.3890699
  16.7529611   46.3894462
  16.7544381   46.3889553
  16.7560152   46.3881373
  16.7571073   46.3869295
  16.757769    46.3856731
  16.7577995   46.3841512
  16.7567885   46.3817874
  16.7562022   46.3807143
  16.7567812   46.3792528
  16.7590791   46.3779401
  16.7608196   46.3776376
  16.7626913   46.3780912
  16.7642247   46.3787872
  16.7651716   46.3795013
  16.7667386   46.3813231
  16.767104    46.3830288
  16.7667637   46.3840908
  16.7668641   46.3846049
  16.7669269   46.3850121
  16.7674056   46.3856791
  16.7688051   46.3865015
  16.7710206   46.3869406
  16.771928    46.3869413
  16.7733896   46.3864601
  16.7744778   46.3845015
  16.7739358   46.3820513
  16.7734805   46.3794235
  16.7748247   46.3777011
  16.7764077   46.3769104
  16.7777936   46.3767565
  16.7795395   46.3772931
  16.7802715   46.3781042
  16.7807984   46.3789073
  16.7812494   46.3794872
  16.7812956   46.3796713
  16.7814277   46.3798847
  16.7815711   46.3802475
  16.781803    46.3806976
  16.7822704   46.3813592
  16.7829252   46.3824113
  16.7836895   46.3835047
  16.7854161   46.3846362
  16.7880433   46.3859488
  16.7912646   46.3870042
  16.7931721   46.3871275
  16.7947091   46.386513
  16.7967054   46.3860616
  16.8007902   46.3852947
  16.8023354   46.3841297
  16.8030337   46.3827185
  16.802964    46.3819364
  16.8021726   46.3800356
  16.8023126   46.3792227
  16.8028591   46.3781817
  16.8035427   46.3774168
  16.8053073   46.3770033
  16.8069186   46.3771031
  16.8087932   46.3773959
  16.8092957   46.3774168
  16.8106051   46.377084
  16.8109034   46.3769354
  16.8112769   46.3764762
  16.8117989   46.3757777
  16.8119394   46.3753016
  16.8121153   46.3738185
  16.812508    46.3726505
  16.8129318   46.3718232
  16.814128    46.3711482
  16.8147459   46.3709836
  16.8161122   46.3709692
  16.8169384   46.3710598
  16.8180018   46.3716056
  16.8190826   46.3726482
  16.8197683   46.3732337
  16.8200093   46.3733234
  16.820268    46.3734196
  16.8210297   46.3735431
  16.8222173   46.3734135
  16.8234136   46.3729702
  16.8240994   46.3724784
  16.824521    46.3716406
  16.8247874   46.3701056
  16.824862    46.3689663
  16.8251939   46.3683774
  16.825773    46.3679084
  16.8264702   46.3676099
  16.8278738   46.3674142
  16.8285612   46.3675431
  16.8294959   46.3679133
  16.8308539   46.3688478
  16.8313146   46.3697145
  16.8315185   46.3726297
  16.8316886   46.3730511
  16.8323791   46.3738592
  16.8330801   46.3743921
  16.8340661   46.3748292
  16.834423    46.3748457
  16.8351479   46.3747554
  16.8365181   46.3744505
  16.8373977   46.3740852
  16.8381086   46.3736161
  16.8384341   46.3731425
  16.8386774   46.372251
  16.8384297   46.3711747
  16.8377502   46.3700474
  16.8365802   46.368991
  16.8361822   46.3684289
  16.8356734   46.3659084
  16.8360652   46.3650113
  16.8371417   46.3643281
  16.8390748   46.3638259
  16.8407694   46.3637108
  16.8422845   46.3641198
  16.8428178   46.3641246
  16.8443896   46.363734
  16.8460768   46.3632836
  16.8486179   46.362138
  16.8507237   46.3613005
  16.8510236   46.3604694
  16.8511377   46.3590268
  16.8511179   46.358926
  16.8508615   46.3569077
  16.8506987   46.3546462
  16.8523829   46.3537954
  16.8568038   46.3522301
  16.8578986   46.3525382
  16.8586127   46.3529613
  16.8591694   46.3533188
  16.859928    46.3539401
  16.8605673   46.354256
  16.8614565   46.3546794
  16.8626116   46.3551557
  16.8627811   46.3551843
  16.8634865   46.3552205
  16.8640282   46.3552123
  16.8643892   46.3552069
  16.8653319   46.3549102
  16.8657608   46.3546579
  16.866342    46.3541352
  16.8665908   46.353827
  16.8666543   46.3537479
  16.8668825   46.3528609
  16.8669077   46.3521412
  16.86691     46.3512402
  16.8664884   46.3505793
  16.8660755   46.3501902
  16.8648967   46.3495215
  16.86422     46.3492189
  16.8631227   46.348756
  16.8622611   46.348249
  16.8617748   46.3476974
  16.8614235   46.3475128
  16.861799    46.3464678
  16.8619763   46.3462645
  16.8621815   46.3460289
  16.8627691   46.3455835
  16.8629115   46.345505
  16.8642234   46.344783
  16.8647233   46.3446439
  16.8656374   46.3444447
  16.8658656   46.3443945
  16.8677681   46.3440787
  16.8691111   46.3440796
  16.8707633   46.344078
  16.871601    46.3440772
  16.8727722   46.3435421
  16.8735224   46.343145
  16.8739787   46.3426717
  16.8742388   46.3422736
  16.8744477   46.3419541
  16.8745439   46.3412972
  16.8743444   46.3406513
  16.8740782   46.3403808
  16.8734421   46.3398522
  16.8723928   46.3391081
  16.8720001   46.3388527
  16.8716661   46.3384671
  16.8712119   46.3379425
  16.871191    46.3377461
  16.8713516   46.3372993
  16.8715823   46.3368565
  16.8717412   46.336746
  16.8721637   46.3363893
  16.872453    46.3362607
  16.8734247   46.3359815
  16.8738572   46.3359196
  16.8745421   46.3359735
  16.8757123   46.3361399
  16.8775142   46.3366799
  16.8786959   46.3369227
  16.8793249   46.3366519
  16.8795804   46.3365396
  16.8799078   46.3362604
  16.880115    46.3357131
  16.8800708   46.3355768
  16.8801813   46.3352288
  16.8802125   46.3349056
  16.8801885   46.3344121
  16.8801569   46.3341516
  16.8800791   46.3337413
  16.8799687   46.3334801
  16.879905    46.3331334
  16.8798308   46.3329497
  16.8792165   46.3320501
  16.8781187   46.3311817
  16.8773688   46.3304253
  16.876739    46.3299171
  16.8766347   46.3296848
  16.875587    46.3289211
  16.874378    46.3278166
  16.8740705   46.327367
  16.8737618   46.3269137
  16.8732293   46.3258242
  16.8731673   46.325412
  16.8730576   46.3246862
  16.8733244   46.3236865
  16.8735023   46.3232641
  16.8745569   46.3223849
  16.8754794   46.3216814
  16.8763354   46.3210289
  16.878081    46.3205444
  16.8774963   46.3212896
  16.8774504   46.3224358
  16.8768593   46.3235653
  16.8757594   46.3235441
  16.8757137   46.324684
  16.8762527   46.3250788
  16.8786145   46.3250635
  16.8790129   46.3248166
  16.8795588   46.324758
  16.8801283   46.3243907
  16.8812436   46.3240277
  16.8823345   46.3240487
  16.8828735   46.3244434
  16.8845189   46.324475
  16.8850886   46.3241015
  16.8856341   46.3241119
  16.8862186   46.3233667
  16.886325    46.3207027
  16.8869008   46.3199511
  16.8869161   46.319567
  16.8874766   46.3191995
  16.888031    46.3192101
  16.8880463   46.318826
  16.8885917   46.3188364
  16.8886221   46.3180744
  16.8891764   46.318085
  16.8891915   46.3177071
  16.8903063   46.3173502
  16.8935965   46.317413
  16.8953414   46.3151585
  16.895402    46.3136344
  16.8965077   46.3132773
  16.896523    46.3128931
  16.8970923   46.3125258
  16.8981919   46.3125467
  16.8987223   46.3129351
  16.8998219   46.312956
  16.9009063   46.3133611
  16.9014367   46.3137494
  16.9025364   46.3137703
  16.9031056   46.3134029
  16.903651    46.3134132
  16.9042053   46.3134238
  16.905296    46.3134445
  16.9080347   46.3138747
  16.9123795   46.3150978
  16.9151391   46.3147718
  16.9167782   46.315181
  16.9206076   46.3156377
  16.9249528   46.3168603
  16.9260375   46.3172652
  16.9287526   46.3180788
  16.9304067   46.3181099
  16.9309671   46.317736
  16.9331814   46.3173993
  16.9359413   46.3170666
  16.935956    46.3166886
  16.9354848   46.3147764
  16.9371448   46.314423
  16.9368454   46.3087018
  16.934786    46.3044773
  16.9343062   46.3025587
  16.9370651   46.3022322
  16.939264    46.3022733
  16.9387334   46.3018852
  16.9387781   46.300739
  16.9382536   46.2999666
  16.9382832   46.2992045
  16.9377674   46.2984385
  16.9388668   46.298459
  16.938446    46.2950225
  16.9385054   46.2934984
  16.9380195   46.2919641
  16.9391484   46.2912226
  16.9407631   46.2920154
  16.9418328   46.292798
  16.9434476   46.2935907
  16.943987    46.293979
  16.9456315   46.2940097
  16.9461913   46.2936419
  16.946265    46.2917399
  16.9468191   46.2917502
  16.9517025   46.2933601
  16.9522328   46.2937543
  16.954912    46.2957075
  16.9554572   46.2957176
  16.9558239   46.295676
  16.9565417   46.2961221
  16.9565271   46.2965001
  16.957597    46.2972825
  16.9586524   46.2984429
  16.9586376   46.298827
  16.958623    46.2992049
  16.9591537   46.2995929
  16.9591389   46.2999771
  16.9596696   46.3003651
  16.9596548   46.3007492
  16.9612645   46.3019198
  16.9617658   46.3030699
  16.962836    46.3038523
  16.9633754   46.3042467
  16.9650056   46.304655
  16.9671899   46.3050797
  16.9675508   46.3051591
  16.9682659   46.3054777
  16.9693655   46.305498
  16.971579    46.3051606
  16.9726785   46.3051808
  16.9737927   46.3048169
  16.9748775   46.3052212
  16.976537    46.3048673
  16.9776218   46.3052716
  16.9781671   46.3052816
  16.9787069   46.3056697
  16.9792231   46.3064418
  16.9802354   46.3087482
  16.9807753   46.3091363
  16.981248    46.3110483
  16.9812334   46.3114324
  16.9822896   46.3125926
  16.9839055   46.3133848
  16.9849618   46.3145449
  16.9854725   46.3157012
  16.9865779   46.315337
  16.9876776   46.3153571
  16.9887917   46.3149992
  16.9893461   46.3150093
  16.9893607   46.3146252
  16.9904893   46.3138832
  16.9910636   46.3131311
  16.991609    46.313141
  16.9921776   46.3127732
  16.992723    46.3127831
  16.9932917   46.3124153
  16.9943913   46.3124353
  16.9954677   46.3128331
  16.9971074   46.3132411
  17.0001425   46.3136523
  17.0001801   46.3135467
  17.0002517   46.3132915
  17.0003401   46.312891
  17.0004261   46.312545
  17.0004549   46.3117829
  17.0010092   46.311793
  17.0010237   46.3114088
  17.0037539   46.3118427
  17.006513    46.3115083
  17.0071245   46.3100004
  17.0076698   46.3100102
  17.007713    46.308864
  17.0083389   46.306972
  17.0099838   46.3070017
  17.0105577   46.3062495
  17.0116573   46.3062693
  17.0122402   46.3055172
  17.0127855   46.3055271
  17.0133539   46.3051591
  17.0133683   46.304775
  17.0139136   46.3047848
  17.0171406   46.3067525
  17.0171123   46.3075084
  17.0176432   46.3079024
  17.0203877   46.3079517
  17.0220416   46.3079814
  17.0269195   46.3095941
  17.02636     46.3099623
  17.0263175   46.3111023
  17.0274171   46.311122
  17.0274028   46.3115061
  17.028991    46.3130597
  17.0295454   46.3130697
  17.0295313   46.3134476
  17.030631    46.3134673
  17.0322761   46.3134967
  17.0355469   46.3143176
  17.0366236   46.314715
  17.0388088   46.3151384
  17.0404117   46.3163077
  17.0409518   46.3167017
  17.0403975   46.3166918
  17.0403835   46.3170697
  17.0392644   46.3178124
  17.0398098   46.3178221
  17.0392504   46.3181904
  17.0392361   46.3185745
  17.0386677   46.3189426
  17.0386252   46.3200888
  17.0380798   46.3200791
  17.0380517   46.320835
  17.0374973   46.3208251
  17.037469    46.3215872
  17.0374548   46.3219713
  17.0374407   46.3223492
  17.0374265   46.3227334
  17.0374125   46.3231113
  17.0379526   46.3235053
  17.0379246   46.3242612
  17.0373419   46.3250134
  17.0378115   46.3273096
  17.0371864   46.3292018
  17.0398897   46.3303907
  17.0409755   46.3307944
  17.041516    46.3311822
  17.0426019   46.3315859
  17.0431192   46.3323577
  17.0441489   46.3342793
  17.0440925   46.3358035
  17.0440646   46.3365594
  17.0461804   46.3388847
  17.0472525   46.3396662
  17.0477981   46.3396759
  17.0499847   46.3400928
  17.058237    46.3398604
  17.0589877   46.3493966
  17.0577194   46.3539435
  17.055289    46.3603795
  17.0534232   46.3660567
  17.0550086   46.3679942
  17.0544537   46.3679844
  17.0527789   46.3687174
  17.0522101   46.3690856
  17.0516781   46.368698
  17.0511321   46.3686883
  17.0505914   46.3682944
  17.0489446   46.3682652
  17.0478296   46.3686299
  17.0472747   46.3686201
  17.0472608   46.368998
  17.0467148   46.3689883
  17.0467008   46.3693663
  17.0461267   46.3701187
  17.0461125   46.3705028
  17.0455436   46.3708709
  17.0455154   46.371633
  17.0443863   46.3723756
  17.0443723   46.3727535
  17.0438121   46.373128
  17.0443441   46.3735156
  17.0437981   46.3735059
  17.0443299   46.3738998
  17.0437699   46.374268
  17.0437557   46.3746522
  17.0442877   46.3750398
  17.0442737   46.3754177
  17.0448144   46.3758117
  17.0442455   46.3761798
  17.0448004   46.3761897
  17.0447722   46.3769517
  17.045304    46.3773456
  17.044744    46.3777138
  17.045845    46.3777333
  17.0458028   46.3788734
  17.0463489   46.3788831
  17.0463207   46.3796451
  17.0468667   46.3796548
  17.0439352   46.3845566
  17.0438788   46.3860807
  17.0433327   46.386071
  17.0438648   46.3864587
  17.0433044   46.3868331
  17.0432762   46.3875952
  17.0427211   46.3875854
  17.0426931   46.3883413
  17.042147    46.3883316
  17.0421187   46.3890936
  17.039902    46.3894387
  17.0343339   46.3912429
  17.0308455   46.3961345
  17.02973     46.3964927
  17.0302851   46.3965027
  17.030817    46.3968965
  17.0307889   46.3976524
  17.0307604   46.3984145
  17.0313156   46.3984244
  17.0313013   46.3988086
  17.0307036   46.3999387
  17.0306752   46.4007008
  17.0312304   46.4007107
  17.0306468   46.4014628
  17.031202    46.4014728
  17.0311879   46.4018507
  17.0317198   46.4022446
  17.0311595   46.4026128
  17.0316914   46.4030067
  17.0316773   46.4033846
  17.0321901   46.4045345
  17.0327221   46.4049284
  17.032708    46.4053064
  17.0332543   46.4053161
  17.0332259   46.4060782
  17.0337812   46.4060881
  17.0343132   46.406482
  17.0348403   46.4072477
  17.0353724   46.4076416
  17.0359136   46.4080294
  17.0364316   46.4088013
  17.0369637   46.4091951
  17.0369496   46.4095731
  17.0369353   46.4099572
  17.0369072   46.4107131
  17.0368789   46.4114752
  17.0368362   46.4126214
  17.0373351   46.4141493
  17.0372642   46.4160576
  17.043852    46.4165527
  17.0449678   46.4161943
  17.0460838   46.4158297
  17.0483295   46.4147287
  17.0504539   46.4166696
  17.0509811   46.4174415
  17.0543147   46.4167377
  17.0543709   46.4152136
  17.0538996   46.4129237
  17.0550575   46.4114189
  17.0545954   46.409123
  17.0546235   46.408361
  17.0551837   46.4079926
  17.0590491   46.4076763
  17.0596093   46.407308
  17.0596512   46.406168
  17.060795    46.4050411
  17.0613641   46.4046729
  17.0624657   46.4046923
  17.0630258   46.4043239
  17.0630399   46.4039398
  17.0641415   46.4039591
  17.0641554   46.4035812
  17.0647017   46.4035907
  17.06746     46.4036391
  17.0674879   46.402877
  17.0686224   46.4017499
  17.0702651   46.4021631
  17.0718851   46.402954
  17.072933    46.4033875
  17.0740604   46.4039322
  17.0751481   46.4041518
  17.0756944   46.4044128
  17.0762357   46.4045551
  17.0777026   46.405012
  17.0778283   46.405501
  17.0778364   46.4058547
  17.077865    46.4061743
  17.0777679   46.4066643
  17.0777835   46.4071731
  17.0779865   46.4075801
  17.0783053   46.4080135
  17.0784121   46.4086218
  17.0782589   46.4090664
  17.0782074   46.4094579
  17.0785476   46.4099321
  17.0787774   46.4103095
  17.0788624   46.410515
  17.0788324   46.4107623
  17.0789098   46.4112106
  17.0791803   46.4115774
  17.0794266   46.4119232
  17.0793002   46.4123639
  17.0791146   46.4129442
  17.0792128   46.4133674
  17.0793336   46.4138135
  17.0796203   46.4141248
  17.0799358   46.4147131
  17.0799243   46.4151146
  17.0798867   46.4154209
  17.0798752   46.4159914
  17.0800565   46.4162683
  17.080766    46.4167396
  17.0813315   46.4169511
  17.0818244   46.4172195
  17.0828985   46.4180008
  17.0834402   46.4183884
  17.0839589   46.41916
  17.0850331   46.4199412
  17.0861211   46.4203445
  17.0874542   46.4205603
  17.0877695   46.4203731
  17.0905197   46.4204207
  17.0927374   46.4200747
  17.0944084   46.4197254
  17.0960431   46.4201318
  17.0988208   46.4194172
  17.0999502   46.4186741
  17.1011205   46.4167909
  17.1022359   46.4164319
  17.1061152   46.415736
  17.1066616   46.4157454
  17.1066754   46.4153613
  17.1077908   46.4150022
  17.1088926   46.4150211
  17.109439    46.4150305
  17.1099944   46.41504
  17.1105408   46.4150494
  17.1110962   46.4150589
  17.1116561   46.4146903
  17.1116426   46.4150683
  17.1138597   46.414728
  17.1138735   46.4143439
  17.113887    46.4139659
  17.1134269   46.4112922
  17.1141185   46.4074912
  17.1147056   46.4063604
  17.117997    46.4067949
  17.1185433   46.4068042
  17.1235368   46.4057486
  17.1251936   46.4057768
  17.1262953   46.4057955
  17.1279432   46.4058235
  17.1317674   46.406651
  17.1323137   46.4066602
  17.132869    46.4066697
  17.134517    46.4066976
  17.1355917   46.4074783
  17.136138    46.4074876
  17.1387977   46.4072175
  17.1394296   46.4079214
  17.1393221   46.4109698
  17.1391071   46.4170605
  17.1395685   46.4197341
  17.1404279   46.423148
  17.1413382   46.4273789
  17.1645275   46.4301806
  17.1804203   46.4326048
  17.1804467   46.4318427
  17.1810285   46.4310897
  17.1815882   46.4307208
  17.1826903   46.430739
  17.1843613   46.4303821
  17.1883001   46.4292358
  17.1887608   46.4304546
  17.1881748   46.4315919
  17.1911455   46.4411633
  17.1911325   46.4415412
  17.1916881   46.4415504
  17.1922349   46.4415593
  17.1922219   46.4419373
  17.1927775   46.4419464
  17.1927644   46.4423306
  17.1933111   46.4423395
  17.1938316   46.4431106
  17.1936914   46.443501
  17.1943221   46.4450219
  17.1937402   46.445775
  17.1948371   46.4621723
  17.1952666   46.4656077
  17.1929826   46.4678518
  17.1918231   46.4697422
  17.1900858   46.4719952
  17.1895255   46.4723704
  17.1889433   46.4731233
  17.1888779   46.4750256
  17.1909794   46.4781041
  17.1945567   46.4836339
  17.1907176   46.4857191
  17.1901704   46.4857101
  17.1912475   46.4864904
  17.1923286   46.4868925
  17.1928717   46.4872795
  17.193975    46.4872976
  17.1973021   46.4865895
  17.1962469   46.4854315
  17.2012331   46.4847504
  17.2022884   46.4859084
  17.2027925   46.4874417
  17.2033267   46.4878286
  17.2032616   46.489737
  17.2037788   46.4908861
  17.2047912   46.4935684
  17.2124934   46.4940717
  17.2141311   46.4944826
  17.2146655   46.4948695
  17.2189116   46.4998916
  17.2194717   46.4995225
  17.2220679   46.5045116
  17.2264315   46.5115087
  17.2267858   46.5118287
  17.2262591   46.5274369
  17.2227793   46.5323343
  17.2227537   46.5330903
  17.2207599   46.5593443
  17.2201089   46.5623778
  17.2201118   46.5701333
  17.2201149   46.578379
  17.2200504   46.5802812
  17.2193474   46.584839
  17.2166453   46.5992714
  17.2151427   46.6106868
  17.2169931   46.6172038
  17.2193737   46.6261551
  17.2215736   46.63325
  17.2220705   46.6347831
  17.2218488   46.6356042
  17.2182821   46.6488137
  17.2182691   46.6491979
  17.2211078   46.6549017
  17.2208696   46.6560625
  17.2199535   46.6638809
  17.2200327   46.6642091
  17.2214961   46.6716935
  17.2446044   46.6792982
  17.244882    46.67937
  17.24975     46.6837063
  17.2568178   46.6872639
  17.2584344   46.6906607
  17.2592862   46.7008234
  17.2593409   46.7017594
  17.2619194   46.7058872
  17.2690185   46.7338671
  17.27746     46.7340037
  17.2897373   46.7343914
  17.2985616   46.7350475
  17.3106733   46.7331155
  17.3247968   46.7326013
  17.3345783   46.7323472
  17.3407753   46.7321946
  17.3501574   46.7316119
  17.3614537   46.7316558
  17.3722287   46.734195
  17.3780965   46.7373856
  17.385311    46.7438291
  17.3974458   46.7483692
  17.4089508   46.7500324
  17.4190599   46.7506565
  17.4172439   46.7574499
  17.3805649   46.7818901
  17.378372    46.7830704
  17.3755554   46.7845541
  17.373301    46.7856616
  17.3721559   46.7867854
  17.3710226   46.7875313
  17.3687321   46.789785
  17.36817     46.7901549
  17.3675959   46.7909089
  17.3664863   46.7908925
  17.36366     46.7923758
  17.3614258   46.7931052
  17.3596971   46.7949828
  17.3602445   46.7953691
  17.3601487   46.7984177
  17.3589791   46.8003035
  17.3583689   46.8021976
  17.3577734   46.8033357
  17.3565556   46.8067458
  17.3559452   46.8086399
  17.3548113   46.8093855
  17.3547513   46.8112878
  17.3541317   46.8131818
  17.3507023   46.8165589
  17.3490055   46.8176743
  17.3485772   46.8182094
  17.3484218   46.8184281
  17.3478713   46.8184199
  17.3462015   46.818395
  17.3422358   46.8210013
  17.3394041   46.8228683
  17.3370866   46.8258774
  17.3342667   46.82736
  17.3309113   46.828072
  17.3292259   46.8288091
  17.3275649   46.828784
  17.3258917   46.8291369
  17.3258062   46.8318013
  17.326247    46.8352362
  17.3262225   46.8359983
  17.3278594   46.8367856
  17.3269606   46.8379564
  17.3266626   46.8383447
  17.3255497   46.8397945
  17.3249409   46.8413104
  17.3249041   46.8424567
  17.3254152   46.8439832
  17.3254029   46.8443674
  17.3259048   46.8459
  17.3275298   46.8470652
  17.3280653   46.8478358
  17.3302047   46.8501494
  17.3301605   46.8515311
  17.3301436   46.8520579
  17.3306794   46.8528223
  17.330655    46.8535844
  17.3306306   46.8543466
  17.3317292   46.8547475
  17.332828    46.8551422
  17.3339146   46.855921
  17.3344412   46.8566914
  17.3349678   46.8574619
  17.3355035   46.8582324
  17.3343925   46.8582157
  17.3326576   46.860471
  17.3326453   46.8608551
  17.3320732   46.8612247
  17.3320367   46.8623648
  17.3325968   46.8623732
  17.3336835   46.8631521
  17.3336712   46.8635363
  17.3331112   46.8635278
  17.3325237   46.8646597
  17.3325114   46.8650438
  17.3319392   46.8654134
  17.3319148   46.8661755
  17.3313273   46.8673074
  17.3307672   46.8672989
  17.3296193   46.8684285
  17.328505    46.8687899
  17.3273573   46.8699132
  17.3229124   46.869846
  17.3195141   46.8720821
  17.3194774   46.8732222
  17.3188926   46.8739759
  17.3180238   46.8756398
  17.3177076   46.8762454
  17.3182556   46.8766319
  17.3182432   46.8770161
  17.3187821   46.8774024
  17.3204323   46.8778118
  17.3215315   46.8782066
  17.3231664   46.879372
  17.3253557   46.8801676
  17.3264427   46.8809465
  17.3264304   46.8813307
  17.3264182   46.8817087
  17.326954    46.8824793
  17.3269296   46.8832414
  17.3274442   46.8843898
  17.3268685   46.8851436
  17.326783    46.887808
  17.3262105   46.8881776
  17.3261982   46.8885617
  17.3250621   46.8893071
  17.3250376   46.8900692
  17.3244741   46.8904389
  17.3221651   46.8930696
  17.3221527   46.8934538
  17.3193536   46.8941677
  17.3182295   46.8945351
  17.3165664   46.8945098
  17.3159938   46.8948793
  17.3154425   46.8948709
  17.3154547   46.894493
  17.3104071   46.8959412
  17.3098557   46.8959328
  17.3098554   46.8959426
  17.309831    46.896695
  17.3081218   46.8978096
  17.3081096   46.8981875
  17.3064464   46.8981622
  17.3053221   46.8985294
  17.3047584   46.8988989
  17.3047336   46.899661
  17.3041361   46.9007926
  17.3041113   46.9015547
  17.3046718   46.9015633
  17.3040865   46.9023168
  17.3040617   46.903079
  17.3034855   46.9038327
  17.3040121   46.9046033
  17.305087    46.9057603
  17.3050745   46.9061445
  17.3039131   46.9076456
  17.3027886   46.9080128
  17.301627    46.90952
  17.3005117   46.9098811
  17.2999139   46.9110126
  17.29764     46.9125028
  17.2976151   46.9132649
  17.2964781   46.91401
  17.2936774   46.9147295
  17.2902876   46.9165805
  17.2885774   46.9176948
  17.2874402   46.9184398
  17.286876    46.9188155
  17.2846016   46.9202992
  17.2840373   46.9206748
  17.2823644   46.920649
  17.2812612   46.9206319
  17.2784761   46.9205887
  17.2762481   46.9209323
  17.2751611   46.9201529
  17.2735007   46.919749
  17.2724228   46.9189697
  17.2707625   46.9185657
  17.2691114   46.9181556
  17.2680499   46.916614
  17.2674983   46.9166054
  17.2663734   46.9169722
  17.2652358   46.917717
  17.2618739   46.9184269
  17.2607745   46.9180254
  17.2580366   46.9168418
  17.2563857   46.9164315
  17.2540722   46.9190609
  17.2518222   46.919788
  17.2490462   46.9197443
  17.2485073   46.9193576
  17.2473951   46.9193401
  17.247408    46.9189559
  17.2451836   46.9189208
  17.2446447   46.9185342
  17.2440714   46.9189033
  17.2418724   46.9181122
  17.2401959   46.9184638
  17.2385322   46.9184374
  17.235157    46.9195245
  17.2318164   46.9198558
  17.2312429   46.9202248
  17.2306783   46.9206002
  17.2306525   46.9213623
  17.2300918   46.9213534
  17.2300403   46.9228714
  17.2294756   46.9232468
  17.228915    46.9232379
  17.2283375   46.9239912
  17.2282729   46.9258934
  17.2276734   46.9270245
  17.2276475   46.9277866
  17.227083    46.9281558
  17.2264924   46.9292933
  17.2264795   46.9296712
  17.2258929   46.9304244
  17.2258798   46.9308085
  17.2264277   46.9311955
  17.2269794   46.9312043
  17.228066    46.9319841
  17.2286177   46.9319929
  17.2291397   46.9331419
  17.2290751   46.9350441
  17.2318519   46.9350883
  17.2333485   46.9400654
  17.2333355   46.9404496
  17.2338707   46.9412144
  17.2355352   46.9412409
  17.2355222   46.941625
  17.2366221   46.9420206
  17.2388475   46.9420559
  17.2399344   46.9428357
  17.2398702   46.9447379
  17.2409739   46.9447553
  17.2420737   46.9451571
  17.2408838   46.9474258
  17.2419966   46.9474434
  17.2384229   46.9546216
  17.2500314   46.9567081
  17.2482257   46.9608704
  17.2458202   46.9661639
  17.2452461   46.9665393
  17.2435553   46.9672689
  17.245182    46.9684414
  17.246244    46.9699832
  17.2428363   46.9722108
  17.2410589   46.9752328
  17.2370637   46.9782134
  17.2348755   46.977038
  17.2302886   46.9811559
  17.2313376   46.9830758
  17.2306858   46.9857312
  17.2317994   46.9857489
  17.2323479   46.9861358
  17.2311954   46.9872643
  17.2295036   46.988
  17.2289034   46.9891311
  17.2288647   46.9902712
  17.2282993   46.9906465
  17.2271728   46.9910067
  17.2254717   46.9917421
  17.2254458   46.9925043
  17.2243282   46.9928646
  17.2220227   46.9951154
  17.2214484   46.9954843
  17.2203475   46.9950886
  17.218129    46.9950531
  17.2175415   46.9958062
  17.2164016   46.9965505
  17.2124555   46.9980122
  17.2102109   46.9987325
  17.2073169   47.001736
  17.2089793   47.0021409
  17.2089661   47.0025251
  17.2077867   47.0044093
  17.2066335   47.0055314
  17.2060811   47.0055225
  17.2049931   47.0047487
  17.2050456   47.0032245
  17.2039712   47.0020602
  17.1996339   46.9985619
  17.1968669   46.998139
  17.1946128   46.998865
  17.1912803   46.9988109
  17.189066    46.9983905
  17.1885176   46.9980034
  17.1841376   46.9960289
  17.1835853   46.9960199
  17.1824183   46.9975259
  17.1807299   46.9978765
  17.1807033   46.9986386
  17.1801243   46.9993916
  17.1790371   46.9986113
  17.1790637   46.9978492
  17.1785646   46.996316
  17.176337    46.9962796
  17.1751831   46.9974076
  17.1746216   46.9973984
  17.1745685   46.9989164
  17.1740026   46.9992914
  17.1717749   46.9992549
  17.1662282   46.9987793
  17.1628867   46.9987243
  17.1600797   46.9994405
  17.1567382   46.9993852
  17.1556198   46.9997511
  17.1533921   46.9997142
  17.1528173   47.0000828
  17.1505716   47.0008081
  17.1488828   47.0011582
  17.1455771   47.0003469
  17.1444769   46.9999442
  17.1439154   46.9999349
  17.1433494   47.0003098
  17.1433088   47.0014499
  17.142693    47.0029647
  17.1421134   47.0037176
  17.1426253   47.0048668
  17.1431596   47.0056383
  17.1431056   47.0071562
  17.1425032   47.0082931
  17.1430105   47.0098267
  17.1434681   47.0125001
  17.1434546   47.012878
  17.1428344   47.0147709
  17.1417337   47.0143744
  17.1384184   47.0135565
  17.1378524   47.0139253
  17.1372635   47.014678
  17.1361312   47.0154216
  17.1327749   47.0157498
  17.1288798   47.0156845
  17.1266241   47.0164091
  17.1249163   47.0175211
  17.1220942   47.0186143
  17.1203634   47.0201103
  17.1180753   47.0219749
  17.1174861   47.0227275
  17.1163443   47.0234708
  17.1157641   47.0242235
  17.1146085   47.0253447
  17.1140055   47.0264752
  17.1128587   47.0276028
  17.1060754   47.0301536
  17.1049195   47.0312747
  17.1026581   47.032377
  17.1009401   47.0334946
  17.0981027   47.0349714
  17.091313    47.0378994
  17.086176    47.0412398
  17.0850053   47.0427449
  17.0832817   47.0442404
  17.0798393   47.046847
  17.0792725   47.0472154
  17.075305    47.0490504
  17.0743167   47.0456049
  17.0743869   47.0437029
  17.0738952   47.0417911
  17.072879    47.0391077
  17.0735111   47.0372153
  17.0737642   47.0303629
  17.0743873   47.0284642
  17.0755577   47.0269655
  17.075614    47.0254413
  17.0750894   47.0246697
  17.0728889   47.0238692
  17.0711937   47.0246024
  17.0694755   47.0257135
  17.0666517   47.0268115
  17.0643946   47.0275349
  17.0638279   47.0279033
  17.0615708   47.0286267
  17.0592995   47.0297279
  17.0570229   47.0312134
  17.0548365   47.0300346
  17.0532262   47.0284814
  17.0499684   47.0261368
  17.0461153   47.0249287
  17.0450151   47.0245313
  17.0460582   47.0264528
  17.0432627   47.026782
  17.0426438   47.0282963
  17.0425724   47.0301984
  17.0425011   47.0321004
  17.0430057   47.0336344
  17.0424153   47.0343866
  17.0418054   47.035901
  17.0406194   47.0377835
  17.039462    47.038904
  17.0394189   47.0400501
  17.0377086   47.0411608
  17.0343932   47.04034
  17.0316399   47.0395289
  17.0299867   47.0391216
  17.0288866   47.0387178
  17.0277862   47.0383202
  17.021675    47.0378277
  17.0216604   47.0382118
  17.019359    47.0400743
  17.0159518   47.0419172
  17.0159372   47.0423013
  17.0093653   47.0391341
  17.0017176   47.0351908
  17.0034231   47.0344588
  17.0012377   47.0332789
  17.0035397   47.0314105
  17.006394    47.0295582
  17.0075666   47.028054
  17.0081627   47.0269239
  17.0081771   47.0265459
  17.0112052   47.0201212
  17.0106816   47.0193493
  17.0112632   47.018597
  17.0107397   47.0178251
  17.0102649   47.0155352
  17.010294    47.0147731
  17.0098286   47.0124771
  17.0104389   47.010969
  17.0110585   47.0094549
  17.0122161   47.0083286
  17.0127974   47.0075826
  17.0133879   47.0068305
  17.0139839   47.0056942
  17.0145653   47.0049419
  17.0157369   47.0034438
  17.0163273   47.0026917
  17.0168943   47.0023174
  17.0169086   47.0019395
  17.0174701   47.0019495
  17.0174844   47.0015715
  17.0180514   47.0011972
  17.0205099   46.9951465
  17.0193962   46.9951267
  17.0188007   46.9962569
  17.0187428   46.997781
  17.0181814   46.9977711
  17.0175858   46.9989012
  17.0169665   47.0004154
  17.0169809   47.0000374
  17.0159249   46.9984935
  17.0153726   46.9984837
  17.0148691   46.9969496
  17.0143601   46.9957998
  17.0133187   46.9938779
  17.0122486   46.9927119
  17.0117107   46.9923241
  17.0106117   46.9919202
  17.0078609   46.9911147
  17.0067473   46.9910948
  17.0050961   46.9906809
  17.0039969   46.9902831
  17.0034356   46.990273
  17.0012522   46.989087
  16.99963     46.9879171
  16.9974466   46.9867372
  16.9974613   46.9863531
  16.996415    46.9848153
  16.9958685   46.9844211
  16.995883    46.9840432
  16.9942466   46.9832512
  16.9931624   46.9824692
  16.991526    46.9816771
  16.9898659   46.981269
  16.9887673   46.9808649
  16.9854361   46.9808048
  16.9861055   46.9777727
  16.9868428   46.9732105
  16.9880586   46.9705665
  16.9908223   46.9710007
  16.9926339   46.9672204
  16.9943283   46.9664883
  16.9916669   46.9633963
  16.9882782   46.9648604
  16.9871505   46.9652183
  16.9859936   46.9663382
  16.9838407   46.9643959
  16.982801    46.9624737
  16.9789394   46.9616413
  16.9700296   46.9618639
  16.9694776   46.9618539
  16.9672666   46.9614292
  16.9667055   46.961419
  16.9644737   46.9617627
  16.9633459   46.9621203
  16.9616572   46.9624677
  16.9572142   46.9623864
  16.955564    46.961978
  16.955003    46.9619677
  16.9544658   46.9615797
  16.9539047   46.9615694
  16.9500437   46.9607359
  16.9483489   46.9614674
  16.947221    46.9618248
  16.9455412   46.9621721
  16.9438821   46.9617634
  16.94168     46.9613446
  16.9388782   46.9616711
  16.9372132   46.9616403
  16.9299382   46.9626464
  16.9266233   46.9622067
  16.9244125   46.9617812
  16.9238605   46.9617709
  16.9237848   46.9636791
  16.9237698   46.964057
  16.9220655   46.9647879
  16.9214832   46.9655397
  16.9208769   46.9666692
  16.9208616   46.9670533
  16.9202643   46.968183
  16.9191058   46.9693022
  16.9185234   46.970054
  16.917917    46.9711835
  16.9178714   46.9723296
  16.9167431   46.9726868
  16.9150778   46.9726557
  16.9139797   46.972257
  16.9128665   46.9722362
  16.9117382   46.9725933
  16.9089597   46.9725413
  16.907264    46.9732721
  16.903909    46.9735936
  16.8999715   46.9746604
  16.8994042   46.975028
  16.8971777   46.9749861
  16.8949819   46.9741821
  16.891136    46.9729687
  16.8872751   46.9721332
  16.8861927   46.9713501
  16.8790232   46.9696951
  16.8784712   46.9696846
  16.8784558   46.9700626
  16.8767753   46.9704088
  16.874549    46.9703665
  16.8739723   46.9707399
  16.8733893   46.9714914
  16.8722918   46.9710861
  16.8678482   46.9710014
  16.8678326   46.9713855
  16.8688837   46.9729308
  16.8655441   46.972867
  16.859473    46.9716039
  16.850608    46.970671
  16.8478453   46.9702397
  16.8436402   46.9777786
  16.8424956   46.9785191
  16.8408145   46.9788649
  16.8385094   46.9807238
  16.8352009   46.9798971
  16.832485    46.9783254
  16.8319328   46.9783147
  16.8319487   46.9779306
  16.8314032   46.9775418
  16.8286562   46.9767258
  16.8281423   46.975575
  16.8270698   46.9747915
  16.8259882   46.9740079
  16.8254271   46.973997
  16.8243298   46.9735912
  16.8238251   46.9724405
  16.8237461   46.9743425
  16.8220808   46.97431
  16.8220331   46.9754561
  16.8214563   46.9758231
  16.8203588   46.9754235
  16.8192298   46.9757797
  16.8198227   46.9750286
  16.8181891   46.9742341
  16.8176437   46.9738453
  16.8182366   46.9730942
  16.8176915   46.9726992
  16.8177073   46.9723212
  16.8172187   46.9707865
  16.81785     46.9688953
  16.8173615   46.9673605
  16.8179453   46.9666093
  16.817409    46.9662206
  16.8174725   46.9646966
  16.8169908   46.9627837
  16.8164864   46.961633
  16.8165659   46.9597249
  16.8160207   46.959336
  16.8160842   46.957812
  16.8166769   46.9570609
  16.8166927   46.956683
  16.8167087   46.9562989
  16.8161478   46.956288
  16.8167245   46.955921
  16.8168355   46.9532571
  16.8173873   46.9532679
  16.8175143   46.9502198
  16.8141853   46.9501547
  16.8142328   46.9490148
  16.813672    46.9490038
  16.813656    46.9493879
  16.8119599   46.9501112
  16.8108311   46.9504735
  16.8091508   46.9508188
  16.8080539   46.950419
  16.8069412   46.9503972
  16.7986484   46.9490933
  16.7864756   46.9477057
  16.7866203   46.9442798
  16.7873005   46.9412489
  16.7867809   46.940476
  16.7879256   46.939736
  16.7869256   46.9370501
  16.7871024   46.9328622
  16.7871346   46.9321002
  16.785526    46.930543
  16.7833909   46.9285972
  16.7828462   46.9282081
  16.7801507   46.9262511
  16.7790548   46.9258449
  16.7774071   46.9254339
  16.7756376   46.9276804
  16.7739575   46.9280314
  16.768373    46.9286826
  16.7655969   46.9286271
  16.7633563   46.9289605
  16.7605803   46.9289049
  16.757211    46.9296
  16.7549703   46.9299332
  16.7538581   46.9299109
  16.7510328   46.9310011
  16.7476723   46.9316961
  16.7420946   46.9319618
  16.7376053   46.9330118
  16.736493    46.9329893
  16.7359487   46.9326001
  16.7337497   46.9321711
  16.7337824   46.9314153
  16.7326701   46.9313927
  16.7309972   46.9313588
  16.7287983   46.9309297
  16.7282376   46.9309183
  16.728221    46.9313024
  16.7271087   46.9312798
  16.7243656   46.9304613
  16.7232065   46.9302762
  16.7216062   46.9300207
  16.7177179   46.9299413
  16.7171406   46.930314
  16.7110368   46.9301892
  16.7110203   46.930567
  16.7093639   46.9301549
  16.7065878   46.930098
  16.7010859   46.9288379
  16.7010023   46.9307459
  16.6998401   46.9318629
  16.6981506   46.9322064
  16.6970474   46.9321836
  16.6959182   46.9325448
  16.6941952   46.9336502
  16.693066    46.9340113
  16.691402    46.933977
  16.6902565   46.9347098
  16.6896377   46.9362224
  16.6890601   46.9365949
  16.6890434   46.9369727
  16.6884918   46.9369613
  16.6867941   46.9376889
  16.686267    46.9369153
  16.6846703   46.9353569
  16.6830566   46.9341826
  16.6824959   46.934171
  16.680832    46.9341365
  16.6780557   46.9340789
  16.6736233   46.9336085
  16.6697348   46.9335276
  16.6680879   46.9331088
  16.6675273   46.9330971
  16.6669925   46.9327077
  16.6664657   46.931934
  16.6659987   46.9300207
  16.6660496   46.9288747
  16.6654981   46.9288631
  16.6633415   46.9272928
  16.6616856   46.9268799
  16.6594872   46.9264557
  16.6578485   46.9256587
  16.6567535   46.9252513
  16.6567875   46.9244893
  16.6566318   46.9243173
  16.6557354   46.9233264
  16.6552257   46.9221748
  16.6519499   46.9209589
  16.6513894   46.9209471
  16.6508207   46.9213196
  16.6496917   46.9216741
  16.6463384   46.9219881
  16.6435628   46.9219296
  16.6373486   46.9240803
  16.6362022   46.9248188
  16.6334091   46.9251442
  16.6311679   46.925475
  16.6296589   46.922014
  16.6286157   46.9204665
  16.6259607   46.9177439
  16.6243833   46.9158068
  16.6147996   46.9076218
  16.6040741   46.8979487
  16.6035138   46.8979367
  16.6035658   46.8967969
  16.6003275   46.8948176
  16.5965289   46.8928323
  16.5954348   46.8924306
  16.5921704   46.8908349
  16.5916365   46.8903466
  16.5916541   46.8899625
  16.5905951   46.8887987
  16.5901221   46.8868849
  16.5896235   46.885727
  16.5885646   46.8845632
  16.5881184   46.8822654
  16.586447    46.8822294
  16.5865694   46.8795657
  16.5848895   46.8799138
  16.5833324   46.8775921
  16.5822213   46.877568
  16.5816963   46.876794
  16.5806468   46.8756303
  16.5801044   46.8752341
  16.58307     46.8711065
  16.5819764   46.8707046
  16.5809096   46.8699188
  16.5792561   46.8695047
  16.5792738   46.8691207
  16.5753901   46.8690365
  16.5737105   46.8693845
  16.5714887   46.8693363
  16.5709555   46.8689402
  16.570413    46.8685502
  16.5693198   46.868142
  16.5682089   46.8681178
  16.567658    46.8681058
  16.5688391   46.8666123
  16.5679571   46.8616386
  16.5681156   46.8582129
  16.5681683   46.8570731
  16.5682035   46.8563111
  16.5665598   46.8558909
  16.5665246   46.8566529
  16.5648541   46.8566165
  16.5654667   46.8554888
  16.5632454   46.8554404
  16.5627124   46.8550444
  16.5627652   46.8539045
  16.5622407   46.8531304
  16.5622583   46.8527525
  16.5622761   46.8523684
  16.5617428   46.8519786
  16.5619016   46.8485529
  16.5630474   46.8478152
  16.5630649   46.8474373
  16.5619544   46.8474131
  16.5620957   46.8443653
  16.561536    46.8443531
  16.5604256   46.8443289
  16.5582224   46.8438259
  16.557707    46.8431285
  16.5571742   46.8427324
  16.5572096   46.8419705
  16.5578485   46.8400807
  16.557866    46.8397029
  16.5567557   46.8396786
  16.5567736   46.8392945
  16.556809    46.8385326
  16.5551656   46.8381184
  16.5546326   46.8377284
  16.5535223   46.8377041
  16.5529627   46.8376919
  16.5518524   46.8376676
  16.5512842   46.8380334
  16.550174    46.838009
  16.5496234   46.837997
  16.5490461   46.8383626
  16.54846     46.8391124
  16.5478824   46.8394842
  16.5473142   46.83985
  16.5472963   46.8402341
  16.5472787   46.8406119
  16.5472608   46.840996
  16.5383519   46.8415566
  16.5377743   46.8419284
  16.5372236   46.8419162
  16.536673    46.8419041
  16.5355806   46.8414956
  16.5350209   46.8414832
  16.534488    46.8410932
  16.532827    46.8410565
  16.5322674   46.8410442
  16.5317167   46.841032
  16.5311571   46.8410197
  16.5306064   46.8410075
  16.5294961   46.8409829
  16.527871    46.8401843
  16.5267784   46.8397819
  16.5262368   46.8393854
  16.5256862   46.8393732
  16.5251265   46.8393608
  16.5245937   46.8389708
  16.524034    46.8389584
  16.5234834   46.8389462
  16.5223732   46.8389216
  16.5218225   46.8389093
  16.521281    46.8385129
  16.5207482   46.8381228
  16.5202066   46.8377263
  16.5196738   46.8373362
  16.519141    46.8369461
  16.5185814   46.8369337
  16.5180308   46.8369215
  16.5174712   46.8369091
  16.5169206   46.8368968
  16.5158104   46.8368721
  16.5152508   46.8368597
  16.5152689   46.8364756
  16.5147183   46.8364634
  16.5141677   46.8364512
  16.5141496   46.8368352
  16.5135899   46.8368228
  16.5124797   46.8367981
  16.5119652   46.8360239
  16.5108731   46.8356151
  16.5103135   46.8356026
  16.5092302   46.8352002
  16.5086706   46.8351878
  16.5081382   46.8347914
  16.5075786   46.8347789
  16.5070281   46.8347667
  16.5064685   46.8347542
  16.5059179   46.8347419
  16.5053491   46.8351137
  16.5042389   46.8350889
  16.5025874   46.8346675
  16.5020368   46.8346552
  16.5020909   46.8335154
  16.5026594   46.8331499
  16.5032551   46.8324004
  16.5038779   46.8308889
  16.5042807   46.830634
  16.5044554   46.8305235
  16.5039502   46.829365
  16.5045637   46.8282377
  16.5051324   46.827866
  16.5062425   46.8278907
  16.5063144   46.8263731
  16.5063326   46.825989
  16.5064766   46.8229475
  16.5066028   46.8202838
  16.5051409   46.8160593
  16.5073696   46.8157246
  16.5074057   46.8149626
  16.5068732   46.8145725
  16.5069272   46.8134327
  16.5069454   46.8130486
  16.5064311   46.8122744
  16.506449    46.8118965
  16.5059257   46.8111221
  16.5053933   46.810732
  16.50487     46.8099575
  16.5049061   46.8091956
  16.5055016   46.8084462
  16.5066651   46.8073312
  16.503995    46.8049833
  16.5034626   46.8045932
  16.4985286   46.8033356
  16.4974732   46.8021709
  16.4964      46.8013841
  16.4964179   46.8010063
  16.4899334   46.7974315
  16.4888423   46.7970225
  16.4883101   46.7966323
  16.4855685   46.7958079
  16.4833772   46.795374
  16.48245     46.7952966
  16.4816739   46.7951006
  16.4809064   46.794965
  16.4806945   46.7943996
  16.480135    46.7938326
  16.4795742   46.7936793
  16.4793919   46.7937874
  16.4784988   46.792982
  16.4779945   46.7918234
  16.4763532   46.791408
  16.475262    46.7910051
  16.4752804   46.7906211
  16.4736576   46.7898216
  16.4730985   46.789809
  16.4714757   46.7890095
  16.4682028   46.7877943
  16.4679521   46.7878072
  16.4678155   46.7877957
  16.4676527   46.7877819
  16.4670936   46.7877692
  16.4668351   46.7877229
  16.4665436   46.7877567
  16.4659935   46.7877442
  16.4638118   46.786932
  16.4605392   46.7857166
  16.4551129   46.7833048
  16.4529316   46.7824924
  16.4513094   46.7816926
  16.4480005   46.7812388
  16.443917    46.7803237
  16.4434856   46.7801841
  16.4426331   46.7795312
  16.4420858   46.7789676
  16.4417685   46.7787006
  16.441552    46.7785531
  16.4413596   46.7778191
  16.4411889   46.7772393
  16.4408558   46.7769006
  16.4405305   46.7766251
  16.4404496   46.776874
  16.4393036   46.7776104
  16.4387353   46.7779757
  16.4381577   46.7783469
  16.4375893   46.7787122
  16.4375707   46.7790962
  16.4369933   46.7794613
  16.4364433   46.7794486
  16.4358656   46.7798199
  16.4353156   46.7798072
  16.4347656   46.7797946
  16.4330792   46.7801341
  16.4325105   46.7805056
  16.4319331   46.7808706
  16.4313831   46.7808579
  16.4308147   46.7812231
  16.4302369   46.7815943
  16.4296869   46.7815817
  16.4291095   46.7819467
  16.4285407   46.782318
  16.4281732   46.7827797
  16.4279445   46.7830671
  16.4273945   46.7830544
  16.4267983   46.7838035
  16.4256982   46.7837781
  16.4202462   46.7817423
  16.4196774   46.7821137
  16.4185498   46.7824659
  16.417972    46.7828371
  16.4173661   46.7839641
  16.4167976   46.7843292
  16.4167602   46.7850911
  16.4144673   46.7865636
  16.412249    46.7865123
  16.4122305   46.7868901
  16.4121931   46.787652
  16.4121742   46.7880361
  16.4116056   46.7884012
  16.4088093   46.7887209
  16.4060409   46.7886566
  16.4055097   46.7882598
  16.4021447   46.7889444
  16.3971579   46.7888284
  16.3960298   46.7891866
  16.3960111   46.7895644
  16.3948833   46.7899164
  16.3949019   46.7895386
  16.3916021   46.7890833
  16.3883313   46.7878597
  16.3828703   46.7862064
  16.3812396   46.7854116
  16.3812965   46.7842657
  16.3802343   46.783478
  16.3796753   46.7834649
  16.3796562   46.7838489
  16.3791253   46.783452
  16.3786987   46.7807754
  16.3770206   46.7811205
  16.3759307   46.7807104
  16.3753616   46.7810815
  16.3736936   46.7810423
  16.3725658   46.7813941
  16.3714846   46.7809904
  16.3703568   46.7813422
  16.3681196   46.781674
  16.3670298   46.7812638
  16.3659016   46.7816217
  16.3653708   46.7812247
  16.3637028   46.7811854
  16.3626409   46.7803976
END
END
