polygon
1
  17.6250717   45.9881369
  17.6256237   45.9877657
  17.6299773   45.9885771
  17.630007    45.9874369
  17.6306975   45.9817367
  17.6307274   45.9805904
  17.630757    45.9794502
  17.6313287   45.9783169
  17.6318995   45.9775617
  17.6319293   45.9764153
  17.6325208   45.9745198
  17.63258     45.9722395
  17.6331903   45.9699599
  17.6348845   45.967694
  17.6349141   45.9665539
  17.6354945   45.9654207
  17.6371787   45.9635327
  17.6383305   45.9612661
  17.6388921   45.9605108
  17.6394724   45.9593775
  17.6411464   45.9578737
  17.6417276   45.9563562
  17.6428792   45.9540833
  17.6429085   45.9529432
  17.6429478   45.9514188
  17.6435279   45.9502856
  17.6435868   45.947999
  17.6441775   45.9461035
  17.6442069   45.9449633
  17.6442364   45.943817
  17.6448457   45.9415436
  17.644875    45.9404034
  17.6444125   45.9369698
  17.6450219   45.9346902
  17.6466559   45.9347107
  17.6471683   45.9358576
  17.6596967   45.9367759
  17.6538939   45.9504149
  17.6593189   45.9516228
  17.6627707   45.94481
  17.6687458   45.9460304
  17.6699056   45.9433793
  17.6688229   45.9429817
  17.6694031   45.941464
  17.6704858   45.9418616
  17.6704763   45.9422396
  17.6710269   45.9422463
  17.6769836   45.9438442
  17.6775534   45.9430887
  17.6813724   45.9431354
  17.6851819   45.943566
  17.6874618   45.9397817
  17.6885542   45.9397949
  17.6891053   45.9394235
  17.6874998   45.9382573
  17.685334    45.9374748
  17.6820858   45.9362886
  17.6810024   45.9362754
  17.6777255   45.9362353
  17.6760915   45.9362154
  17.6772132   45.9347043
  17.6789229   45.9320598
  17.680633    45.9290373
  17.6817537   45.9279104
  17.6817918   45.9263861
  17.6818109   45.9256239
  17.6834731   45.9245036
  17.6873004   45.9241659
  17.690016    45.9249612
  17.6949259   45.9250206
  17.6987625   45.9243045
  17.6987719   45.9239265
  17.7058944   45.9224872
  17.7146681   45.920689
  17.7246072   45.9158543
  17.7246349   45.9147142
  17.7246442   45.91433
  17.7242319   45.9089945
  17.7204985   45.9055226
  17.7304159   45.9014497
  17.7343236   45.8976898
  17.7338101   45.896159
  17.731618    45.8965113
  17.7305354   45.8964986
  17.729453    45.8961077
  17.728912    45.8957233
  17.7283799   45.8953327
  17.7262615   45.8926424
  17.7268392   45.8915088
  17.7268485   45.8911246
  17.7280505   45.8861925
  17.7275738   45.8835216
  17.7281518   45.8820036
  17.7298023   45.8816388
  17.7303435   45.8816451
  17.7309026   45.8812736
  17.7314438   45.88128
  17.7331036   45.880159
  17.7336629   45.8797813
  17.734204    45.8797876
  17.7347724   45.8790319
  17.7347907   45.8782697
  17.7347998   45.8778917
  17.734259    45.8775011
  17.7348364   45.8763674
  17.7348455   45.8759894
  17.7343048   45.8755987
  17.7327      45.8744394
  17.7316273   45.8736644
  17.7305454   45.8732736
  17.7278315   45.8728573
  17.7272996   45.872473
  17.7267774   45.8713201
  17.7267956   45.8705641
  17.727364    45.8698084
  17.7290053   45.8694435
  17.7290144   45.8690655
  17.7306832   45.8675604
  17.7312422   45.8671889
  17.7290787   45.866401
  17.7285565   45.8652482
  17.7280247   45.8648638
  17.7274837   45.8648574
  17.7263837   45.8652225
  17.7258338   45.865216
  17.7225237   45.867086
  17.7220016   45.8659331
  17.7181694   45.86665
  17.717619    45.8670278
  17.7159782   45.8670083
  17.7159968   45.8662461
  17.7160062   45.8658619
  17.7165746   45.8651063
  17.716034    45.8647217
  17.7143929   45.8650803
  17.7094884   45.8650218
  17.7083881   45.8653929
  17.7061876   45.8661289
  17.7034087   45.8683766
  17.7012925   45.8656859
  17.7002481   45.8641485
  17.6986449   45.8626106
  17.6975824   45.8614511
  17.6976011   45.8606951
  17.6933035   45.858356
  17.6932657   45.8598803
  17.6932186   45.8617826
  17.6942622   45.8636982
  17.6952776   45.86676
  17.6946995   45.8678935
  17.6891118   45.8735345
  17.6885902   45.8723877
  17.6869961   45.8708435
  17.6859145   45.8704523
  17.6853829   45.8700677
  17.6842919   45.8700544
  17.6831915   45.8704191
  17.6815689   45.8700212
  17.6799377   45.869617
  17.6783248   45.8688349
  17.677253    45.8680594
  17.6761716   45.867668
  17.6740369   45.866117
  17.6707451   45.866839
  17.6701952   45.8668322
  17.6692476   45.8614899
  17.6687843   45.8580565
  17.6688228   45.8565322
  17.6683011   45.8557634
  17.667249    45.8542256
  17.6666992   45.8542188
  17.6672585   45.8538476
  17.6683876   45.8523367
  17.6662738   45.8496454
  17.6651832   45.8496319
  17.6651735   45.8500161
  17.6602995   45.848809
  17.659209    45.8487955
  17.6575679   45.8491594
  17.6553674   45.8498945
  17.6516805   45.8482404
  17.6522965   45.8474711
  17.6529026   45.846601
  17.6535672   45.8458071
  17.6549221   45.8442987
  17.6559002   45.8432954
  17.6568681   45.8423678
  17.657968    45.8414145
  17.658894    45.8406936
  17.6605651   45.8393922
  17.6606249   45.8393457
  17.6620736   45.8383713
  17.6630478   45.8377964
  17.6637615   45.8374176
  17.6656322   45.8365387
  17.666111    45.836374
  17.6673176   45.8358882
  17.6680924   45.8356233
  17.6691821   45.835304
  17.6705348   45.8349963
  17.6713492   45.8348631
  17.672197    45.8347524
  17.6730615   45.8347126
  17.6738116   45.8347495
  17.6745636   45.8348508
  17.6751755   45.8349975
  17.6767114   45.8355356
  17.6783235   45.8360598
  17.6793212   45.8363051
  17.6812168   45.8367276
  17.6817158   45.8368482
  17.6827618   45.8371007
  17.6836294   45.8373475
  17.6852535   45.8379352
  17.6870575   45.8386748
  17.6874328   45.8387737
  17.6878823   45.8388077
  17.6882735   45.8387972
  17.6901451   45.8385503
  17.6910741   45.8383941
  17.692265    45.838194
  17.6926118   45.8381356
  17.6930381   45.838064
  17.6936939   45.8379699
  17.6956771   45.837778
  17.6974655   45.8376049
  17.6981932   45.8375027
  17.6990016   45.8373459
  17.6999633   45.8370974
  17.7004629   45.8369234
  17.7007941   45.8367672
  17.7012312   45.8365198
  17.7016636   45.8361711
  17.7019003   45.8359684
  17.7034902   45.8342906
  17.7047289   45.8329045
  17.7054498   45.8323357
  17.7058341   45.8321127
  17.7060775   45.8319868
  17.7063151   45.8318639
  17.7068107   45.8317116
  17.7074504   45.8315976
  17.708418    45.8314963
  17.7092503   45.8315048
  17.7099907   45.8315814
  17.7110231   45.8317502
  17.7119399   45.8319217
  17.7137022   45.8321543
  17.7141554   45.8321627
  17.7148211   45.8320857
  17.7154257   45.8319357
  17.7161299   45.831708
  17.7165935   45.8315582
  17.7179498   45.8310658
  17.7193275   45.8305588
  17.7196928   45.8304459
  17.7204052   45.8303159
  17.7213413   45.8301957
  17.7215739   45.830192
  17.7219516   45.8301861
  17.7222815   45.8301809
  17.7230403   45.830201
  17.7238375   45.8302221
  17.7243013   45.8302344
  17.7253472   45.8302878
  17.7269796   45.8303716
  17.7274536   45.8304045
  17.7289298   45.8305348
  17.729883    45.8305743
  17.7309908   45.8305486
  17.732273    45.8304702
  17.7345967   45.8301813
  17.7360878   45.8299804
  17.7368877   45.8298453
  17.7378573   45.8296817
  17.7395796   45.8293844
  17.7402968   45.8292607
  17.7412934   45.8289616
  17.7424018   45.8286534
  17.7438864   45.8281834
  17.7443561   45.8280037
  17.7449735   45.8276652
  17.7454389   45.8273476
  17.7460239   45.8268677
  17.7464463   45.8264484
  17.7468599   45.8258438
  17.7473385   45.8250003
  17.7475682   45.8245491
  17.7478128   45.8240333
  17.7481521   45.8234393
  17.7485315   45.8228384
  17.748973    45.8222827
  17.7496495   45.8215341
  17.7515669   45.8197359
  17.7525673   45.8187975
  17.7533638   45.8180503
  17.7540082   45.8174457
  17.7545568   45.8167946
  17.7550471   45.8161623
  17.7554039   45.8155508
  17.7557384   45.8149871
  17.7562234   45.814153
  17.7568213   45.8133192
  17.7570842   45.8131029
  17.7577505   45.8125546
  17.7580991   45.8123568
  17.7584661   45.8121723
  17.7588408   45.8120317
  17.7592087   45.8119359
  17.759942    45.8117768
  17.7607472   45.8116818
  17.7612907   45.8116781
  17.7623931   45.8117424
  17.7628247   45.8118359
  17.7635952   45.8120632
  17.763818    45.8121828
  17.764224    45.8124291
  17.7645185   45.8127462
  17.7651195   45.8136873
  17.765193    45.8138026
  17.7656814   45.8143755
  17.7662157   45.8148312
  17.7664207   45.8149699
  17.766729    45.8152209
  17.7677003   45.8157999
  17.7688793   45.8162632
  17.7698616   45.8165333
  17.770576    45.8167296
  17.7715595   45.8169334
  17.7718266   45.8169768
  17.7731173   45.8171573
  17.7740263   45.8172808
  17.7753802   45.817349
  17.7771379   45.8173567
  17.7802539   45.8171804
  17.781628    45.8170418
  17.7832346   45.8168103
  17.7840456   45.8166379
  17.7846494   45.8164713
  17.7854585   45.816178
  17.7864443   45.8156064
  17.787339    45.8149768
  17.7882123   45.8142523
  17.7887505   45.8136981
  17.7894822   45.8127266
  17.7897872   45.8122552
  17.7901043   45.8117651
  17.7902328   45.8115964
  17.7907091   45.8112048
  17.7916156   45.8105917
  17.7921765   45.8102119
  17.7925005   45.8099887
  17.7942436   45.8089227
  17.7944313   45.8088079
  17.7961079   45.8079392
  17.7971351   45.8074304
  17.7984212   45.8067934
  17.7997824   45.8061415
  17.8001944   45.8059755
  17.8006191   45.8058252
  17.8011679   45.8056491
  17.8016324   45.8055002
  17.802402    45.8053374
  17.8032332   45.8051968
  17.8044834   45.804985
  17.8055581   45.804765
  17.8059008   45.8046853
  17.80676     45.8044203
  17.8081546   45.8039854
  17.8086935   45.8038613
  17.8092797   45.8037937
  17.8096462   45.8037793
  17.8101501   45.8037775
  17.8110376   45.8037858
  17.8123288   45.8039684
  17.8131588   45.8041463
  17.8143357   45.8045099
  17.8150316   45.8048333
  17.8155411   45.8051776
  17.8157781   45.8054329
  17.8159897   45.8057043
  17.8161797   45.8061827
  17.8164174   45.8072336
  17.8167453   45.8077917
  17.8171549   45.8082444
  17.8180097   45.80891
  17.8186101   45.8092635
  17.8190662   45.809469
  17.8202474   45.8099478
  17.8209579   45.8100994
  17.8221727   45.8102082
  17.8232981   45.8101582
  17.8244152   45.8100051
  17.8253326   45.8097964
  17.8256188   45.8097313
  17.8262828   45.8095
  17.8269049   45.8091766
  17.8275314   45.8088218
  17.8283168   45.8082032
  17.8287681   45.8077898
  17.8293691   45.8071069
  17.829418    45.8070317
  17.8301005   45.8059837
  17.8305267   45.8051012
  17.830841    45.8043204
  17.8312296   45.8029985
  17.8316447   45.8015866
  17.8317847   45.8010149
  17.8318646   45.8003862
  17.8319469   45.7988788
  17.8319535   45.7975245
  17.8319635   45.7962713
  17.8320667   45.794159
  17.8321879   45.7933068
  17.8323533   45.7927401
  17.8325516   45.7922743
  17.8328973   45.7916963
  17.8333314   45.7911555
  17.8338172   45.7906416
  17.8344541   45.7900566
  17.8351916   45.7894362
  17.8360381   45.7887241
  17.8371858   45.7877587
  17.8381794   45.7869229
  17.8387447   45.7865445
  17.8396364   45.7860213
  17.8402863   45.7856895
  17.8406124   45.785545
  17.8409491   45.7854115
  17.8412915   45.7852871
  17.8416678   45.7851504
  17.8421688   45.7850205
  17.8431958   45.784821
  17.8442876   45.7846611
  17.8443928   45.7846457
  17.8456011   45.7845146
  17.8473365   45.784362
  17.8482612   45.784274
  17.8494673   45.7841065
  17.8502472   45.783926
  17.8509945   45.7836705
  17.8516258   45.7833371
  17.851861    45.7831382
  17.8521946   45.7827738
  17.8526099   45.7821957
  17.8530544   45.7812175
  17.8532948   45.7806163
  17.8534686   45.7800484
  17.853523    45.7793992
  17.8534125   45.7787829
  17.853367    45.7786438
  17.8533625   45.7786301
  17.8529112   45.7775935
  17.8524727   45.7767406
  17.8524194   45.7764641
  17.8523831   45.7761463
  17.8524818   45.7757551
  17.85254     45.7756443
  17.8525839   45.7755606
  17.852748    45.7753087
  17.8531881   45.7748095
  17.8541096   45.7737634
  17.854488    45.7732174
  17.8548624   45.7722742
  17.8550515   45.7718048
  17.855205    45.7714223
  17.8554614   45.7709319
  17.8557371   45.7704705
  17.8559467   45.7702009
  17.8563413   45.7697995
  17.8568265   45.7694122
  17.8573836   45.7690514
  17.8579862   45.7686976
  17.8588355   45.7682652
  17.8599687   45.7678351
  17.8604222   45.7676857
  17.8613785   45.7673958
  17.8620423   45.7672435
  17.8632734   45.7669801
  17.8640868   45.7668474
  17.8649471   45.766753
  17.8656436   45.7667708
  17.8663832   45.7668763
  17.8670672   45.7670953
  17.8677507   45.7673831
  17.8682747   45.767739
  17.8684808   45.7679245
  17.868881    45.7684704
  17.8693019   45.769305
  17.8695461   45.7700418
  17.869752    45.7707832
  17.869948    45.7715224
  17.8699709   45.7717724
  17.8702559   45.7730614
  17.870498    45.774157
  17.8706917   45.7745441
  17.8710491   45.7751073
  17.8714585   45.7756633
  17.8718446   45.776123
  17.8726409   45.7768267
  17.8738169   45.7777289
  17.873869    45.7777659
  17.8754914   45.7789154
  17.8760141   45.7792285
  17.8761624   45.7793173
  17.8774691   45.7800327
  17.8787894   45.7807325
  17.881491    45.7823209
  17.8840456   45.7836099
  17.8847707   45.7840227
  17.8858327   45.7846274
  17.8872065   45.7853452
  17.8881924   45.7857706
  17.8893731   45.7862343
  17.890421    45.7867263
  17.8911318   45.7870981
  17.8920202   45.7875858
  17.8924271   45.7878093
  17.8930197   45.7881418
  17.8939995   45.7886732
  17.8955425   45.7895526
  17.8964809   45.7900254
  17.8974419   45.7904548
  17.898329    45.790785
  17.8990367   45.7910033
  17.9002073   45.7913074
  17.9015701   45.7915795
  17.9025069   45.791745
  17.9039234   45.7919376
  17.905289    45.7921171
  17.9061943   45.7921906
  17.9077099   45.7918776
  17.9099729   45.7913602
  17.9112044   45.7910443
  17.9120743   45.790741
  17.9159145   45.789189
  17.9174614   45.7885195
  17.921805    45.7869838
  17.9244718   45.7863675
  17.9257388   45.7861679
  17.9273345   45.7858842
  17.9294712   45.7858848
  17.9303114   45.7859115
  17.9320011   45.7862724
  17.9335401   45.7866283
  17.9350916   45.7871411
  17.9367171   45.7878563
  17.9411441   45.7899412
  17.9427297   45.7905328
  17.9440941   45.7909264
  17.945675    45.7913824
  17.9472518   45.7918317
  17.9497935   45.7923769
  17.9529297   45.7926132
  17.9540725   45.7925739
  17.9559112   45.7922277
  17.9640314   45.7896836
  17.9670259   45.7891277
  17.9686758   45.7888039
  17.9699088   45.7886908
  17.9727071   45.7888986
  17.9743292   45.7891406
  17.976939    45.7898369
  17.9808198   45.7912713
  17.9831577   45.7923534
  17.9857229   45.7936825
  17.9869636   45.7941814
  17.988323    45.7948259
  17.9899346   45.795087
  17.9914198   45.7952951
  17.9928093   45.7953463
  17.9945445   45.7953126
  17.9963607   45.7951546
  17.9989175   45.7945732
  18.0008394   45.793934
  18.0022606   45.793411
  18.0037026   45.7923997
  18.0054904   45.7912018
  18.0069188   45.7898494
  18.010076    45.7876888
  18.0108023   45.7869197
  18.0129971   45.7841556
  18.0145452   45.7829706
  18.0176088   45.781213
  18.0206159   45.7796693
  18.0265603   45.7773435
  18.0267797   45.7772616
  18.0279622   45.7771615
  18.0300021   45.776776
  18.0326037   45.7759212
  18.0341629   45.775392
  18.0358281   45.774935
  18.0378874   45.774622
  18.0400069   45.7744735
  18.0457136   45.7741975
  18.047942    45.7739387
  18.0501915   45.7736177
  18.0532714   45.7731162
  18.0560486   45.772472
  18.0589177   45.7717035
  18.0625114   45.7706332
  18.0651326   45.7696089
  18.0669601   45.7688749
  18.0701602   45.7680912
  18.0714906   45.76754
  18.0745311   45.766203
  18.0794407   45.764804
  18.0817101   45.7643572
  18.0826924   45.7643075
  18.0850982   45.76434
  18.0869635   45.7645143
  18.0948891   45.7659023
  18.0953928   45.7659548
  18.0959322   45.7660394
  18.0965475   45.7661579
  18.0975562   45.7663906
  18.0984927   45.7666988
  18.0993296   45.7670116
  18.101282    45.7680388
  18.1029673   45.7688848
  18.1048442   45.7697022
  18.105854    45.7702366
  18.1069218   45.7709222
  18.1079246   45.7716491
  18.10873     45.7723221
  18.1093922   45.7729437
  18.1100194   45.7737577
  18.1108525   45.7749248
  18.1120615   45.7762609
  18.1128717   45.7770622
  18.113577    45.7779216
  18.1146474   45.779484
  18.1159462   45.7815257
  18.1169319   45.783521
  18.1175207   45.7845256
  18.1182354   45.7855641
  18.1190415   45.7864526
  18.1197827   45.7871446
  18.1207737   45.7878373
  18.1218819   45.7885096
  18.1229823   45.7889473
  18.1239087   45.7891408
  18.1248575   45.7892036
  18.125781    45.789142
  18.1273964   45.7888095
  18.1294274   45.7881523
  18.1313037   45.7876912
  18.132529    45.7874985
  18.133832    45.7873248
  18.1348057   45.7873293
  18.1357016   45.7874282
  18.1377658   45.7878596
  18.1396328   45.7882893
  18.1408784   45.7884687
  18.1421583   45.7885163
  18.1432452   45.7884845
  18.1442303   45.7884453
  18.1452877   45.7883305
  18.1463111   45.7881726
  18.1479136   45.7879121
  18.1493115   45.7875936
  18.1504852   45.7872701
  18.152558    45.7865274
  18.153527    45.7860693
  18.1548575   45.7854039
  18.1557417   45.7848463
  18.1562539   45.7844009
  18.156884    45.7835951
  18.1575913   45.7826337
  18.1580032   45.7821488
  18.1586546   45.7815256
  18.1591943   45.7809982
  18.1599274   45.7803899
  18.1610088   45.779526
  18.1618455   45.7789136
  18.162811    45.7782294
  18.1639634   45.777546
  18.1651538   45.7769685
  18.1663134   45.7764822
  18.1674386   45.7761396
  18.1688595   45.7758811
  18.1695489   45.7758412
  18.1703205   45.7758377
  18.1712123   45.77596
  18.1719385   45.776265
  18.1725702   45.7766239
  18.1744517   45.7781477
  18.1752197   45.7787927
  18.1760099   45.7794098
  18.1771836   45.7803053
  18.1788957   45.7814253
  18.1806764   45.7826351
  18.1812901   45.7831424
  18.1823291   45.7842544
  18.1831076   45.7849174
  18.1839177   45.7854674
  18.1850831   45.7860643
  18.1859814   45.7864538
  18.1871317   45.7868783
  18.1883865   45.7872358
  18.1893256   45.7873733
  18.1907376   45.7874275
  18.1924243   45.7873049
  18.1936976   45.7870712
  18.1951553   45.7865349
  18.196622    45.7858564
  18.1981248   45.7850068
  18.200822    45.78344
  18.201722    45.7827635
  18.2024418   45.7823128
  18.2030986   45.7819564
  18.2039936   45.7816184
  18.2049604   45.781358
  18.2058094   45.7811866
  18.2075817   45.7811724
  18.209231    45.7812313
  18.2104142   45.7812614
  18.2115431   45.7812188
  18.2126399   45.7810987
  18.2136594   45.7809486
  18.2152137   45.7806326
  18.2163439   45.7804451
  18.2176029   45.7803712
  18.2203134   45.7802897
  18.2230886   45.7802139
  18.225426    45.7800783
  18.2263919   45.7799455
  18.2280096   45.7795955
  18.2290731   45.7792623
  18.2303105   45.7787814
  18.2309563   45.7784102
  18.2315333   45.7780211
  18.2322479   45.7774244
  18.2330365   45.7766513
  18.2338339   45.7757185
  18.2342817   45.7750523
  18.2346062   45.7742369
  18.2347718   45.7735344
  18.2349218   45.772685
  18.2350521   45.7719171
  18.2355406   45.7703476
  18.2358819   45.7694245
  18.2362404   45.7688247
  18.2368277   45.7680938
  18.237724    45.7671534
  18.2387043   45.7663672
  18.2394613   45.7657606
  18.2401179   45.7648668
  18.2406178   45.7639289
  18.2409965   45.7631366
  18.2413752   45.7625718
  18.241835    45.762018
  18.2426728   45.7614462
  18.2431976   45.7611887
  18.2437187   45.7610245
  18.2443257   45.7609322
  18.2449216   45.7609331
  18.2454442   45.760994
  18.2465907   45.7612283
  18.2478401   45.7615883
  18.2489056   45.7618283
  18.2495917   45.761946
  18.2504659   45.7619718
  18.2518808   45.7619005
  18.2537634   45.761783
  18.2564505   45.7615433
  18.2581289   45.7613707
  18.2595646   45.7611685
  18.260982    45.7609132
  18.2620818   45.7606377
  18.2647308   45.759764
  18.2654104   45.7594935
  18.2668275   45.7589294
  18.2679481   45.7584668
  18.2686428   45.7582055
  18.2694851   45.7579095
  18.2711259   45.7574054
  18.2725093   45.7569972
  18.2732648   45.7567653
  18.2741194   45.7564571
  18.2748802   45.756159
  18.2753976   45.7558748
  18.2759005   45.7554698
  18.2768777   45.755663
  18.2771045   45.7557171
  18.2830764   45.7571337
  18.2872675   45.7590596
  18.2891952   45.7599208
  18.2901099   45.7602691
  18.290938    45.7605369
  18.2919494   45.7607774
  18.2928174   45.7608854
  18.2938441   45.760928
  18.295394    45.7608973
  18.2964138   45.7608096
  18.2973831   45.7606161
  18.2982999   45.760385
  18.2992193   45.7600828
  18.3002776   45.7596678
  18.3011015   45.7593056
  18.3019045   45.758973
  18.3025637   45.7586299
  18.3033224   45.7581709
  18.3042012   45.7575442
  18.3053572   45.7575781
  18.3063426   45.7573881
  18.3074223   45.7570842
  18.3085294   45.7567199
  18.3095105   45.7565116
  18.3117523   45.7562267
  18.3124084   45.7561715
  18.3137231   45.7562369
  18.3155993   45.7564612
  18.3160267   45.7564895
  18.3164541   45.756434
  18.3192312   45.7560977
  18.3198809   45.7559013
  18.3205826   45.7555653
  18.3213959   45.7552174
  18.3220923   45.7549794
  18.3226451   45.7548332
  18.3239761   45.7547043
  18.3284149   45.7544176
  18.3309607   45.7544589
  18.3322933   45.7542324
  18.3333656   45.7538641
  18.3350203   45.7528789
  18.3359542   45.7521377
  18.3366408   45.7514183
  18.3370668   45.7507247
  18.3373793   45.7499434
  18.3376232   45.74921
  18.3378033   45.7470782
  18.3386654   45.7470026
  18.3390932   45.746955
  18.3421426   45.7480641
  18.3442866   45.7497222
  18.3450018   45.7499557
  18.3453268   45.7508168
  18.3457571   45.7519148
  18.3460477   45.7537965
  18.3461211   45.7545587
  18.3463957   45.7550653
  18.3469307   45.7554529
  18.346963    45.7555613
  18.3474747   45.7558344
  18.3485763   45.7567474
  18.3489642   45.7572999
  18.3496232   45.7581347
  18.3495541   45.758731
  18.3501535   45.7589003
  18.3506927   45.759666
  18.351763    45.7604349
  18.3517534   45.761191
  18.3544291   45.7637362
  18.3546835   45.7640042
  18.3550973   45.764297
  18.3555197   45.7641593
  18.3560094   45.7638591
  18.3565234   45.7639181
  18.3566246   45.7640971
  18.3565709   45.7655975
  18.3564332   45.7668788
  18.3571259   45.7669384
  18.357736    45.7671753
  18.3582039   45.7672462
  18.361559    45.7658805
  18.3625717   45.7662096
  18.3637386   45.7661322
  18.3650013   45.7656476
  18.3654236   45.765671
  18.3663741   45.7666171
  18.3666767   45.7667215
  18.3642257   45.7729364
  18.3701005   45.7699024
  18.3704099   45.7691658
  18.3712421   45.7689273
  18.3717911   45.7689306
  18.3723264   45.7693181
  18.3719591   45.7685292
  18.3725337   45.7683766
  18.3743509   45.7676955
  18.3783585   45.7655429
  18.3798369   45.7649082
  18.3803829   45.7641217
  18.3807321   45.7636669
  18.3814061   45.7635665
  18.3818057   45.763828
  18.3820788   45.764087
  18.382445    45.7642104
  18.3829621   45.7641736
  18.3838068   45.7638238
  18.3845319   45.7639372
  18.3856372   45.7647726
  18.386352    45.7646378
  18.3870053   45.7643387
  18.3895993   45.7622651
  18.3906099   45.7620165
  18.3918949   45.7616983
  18.3923182   45.7612504
  18.3924248   45.7609482
  18.3923467   45.759088
  18.3920305   45.757766
  18.3925194   45.7574472
  18.3931424   45.7576357
  18.3936824   45.7576389
  18.3945426   45.7571712
  18.3951747   45.7563603
  18.395617    45.7550206
  18.3971714   45.7531367
  18.3975081   45.7531173
  18.3980829   45.7538593
  18.39839     45.7544774
  18.3985816   45.7549138
  18.3991537   45.7553087
  18.3996937   45.7553871
  18.4000841   45.7553096
  18.4001397   45.7552439
  18.4002707   45.7548428
  18.400041    45.7535311
  18.3995296   45.7523132
  18.3993461   45.7519725
  18.3993059   45.751408
  18.3995209   45.7505743
  18.3988929   45.7501771
  18.3979476   45.7497672
  18.3969073   45.7495972
  18.3968167   45.7495046
  18.3967813   45.7493237
  18.3967639   45.7490305
  18.3967935   45.7482568
  18.3974318   45.7472377
  18.3978023   45.7452075
  18.3979134   45.7446505
  18.3991742   45.7445775
  18.4007417   45.744353
  18.4010854   45.7440113
  18.4010828   45.7435893
  18.4009866   45.7430576
  18.4024915   45.7426228
  18.4040401   45.7420589
  18.4061748   45.7404374
  18.4076301   45.7397119
  18.4092498   45.73921
  18.4105726   45.7389227
  18.4112493   45.7390076
  18.4123828   45.7398486
  18.4129314   45.7398517
  18.414859    45.7405134
  18.4159009   45.7406538
  18.4189021   45.7409864
  18.4208932   45.7409264
  18.4234999   45.7400465
  18.4242024   45.7402566
  18.424597    45.7404557
  18.4247841   45.7405182
  18.4271952   45.7407181
  18.4275001   45.7414873
  18.4285496   45.741156
  18.4298331   45.7406872
  18.4321999   45.7395735
  18.4340461   45.7389961
  18.434613    45.7388477
  18.4355756   45.7386989
  18.4367096   45.738413
  18.4383466   45.7384792
  18.4405978   45.7382807
  18.4439563   45.738121
  18.4449979   45.7379613
  18.4453094   45.7378933
  18.4459592   45.7372049
  18.446853    45.737128
  18.4484106   45.7420928
  18.4480671   45.7423293
  18.4482387   45.7427115
  18.4491147   45.7438448
  18.4498815   45.7450289
  18.4500733   45.7457849
  18.4498922   45.74649
  18.4490622   45.7473826
  18.4479265   45.7487143
  18.4490566   45.7579597
  18.4475195   45.7590813
  18.4450763   45.7605196
  18.4541002   45.767421
  18.4542012   45.7675049
  18.454369    45.7676495
  18.4542819   45.7676977
  18.4544891   45.7678755
  18.4562828   45.7695229
  18.4638006   45.7662352
  18.4711527   45.7663483
  18.4748819   45.7664056
  18.4807206   45.7664954
  18.4821108   45.7654765
  18.4820379   45.7690592
  18.4819528   45.7732398
  18.4824343   45.7732511
  18.4824698   45.7743364
  18.4822293   45.7752972
  18.4823323   45.7756502
  18.4825945   45.7761359
  18.4829336   45.7769886
  18.4837653   45.7779305
  18.4843065   45.7786955
  18.484831    45.7802227
  18.4853595   45.7813657
  18.4853439   45.7828902
  18.4858774   45.7844112
  18.4858578   45.7863199
  18.4863864   45.7874629
  18.4874681   45.7882306
  18.4880094   45.7889956
  18.4881913   45.7899599
  18.4883375   45.7901652
  18.488378    45.7906836
  18.4884086   45.7906808
  18.4886099   45.7913598
  18.4886927   45.7922267
  18.4888444   45.7929307
  18.4889904   45.7933662
  18.4901253   45.794336
  18.4906707   45.7947168
  18.4944836   45.7943576
  18.497741    45.795514
  18.4999151   45.7951467
  18.5021019   45.7943951
  18.5053933   45.7921242
  18.5048819   45.7883165
  18.5101881   45.7848045
  18.5163376   45.7853224
  18.5185165   45.7853327
  18.5218066   45.7830675
  18.5223505   45.7826859
  18.5223286   45.7849726
  18.5212099   45.7880103
  18.5250041   45.7895526
  18.5282545   45.7914704
  18.5318522   45.7933842
  18.5325912   45.7937773
  18.5342283   45.7930225
  18.5369442   45.7934192
  18.5391233   45.7934291
  18.5402094   45.7938121
  18.542378    45.7949623
  18.5440045   45.7953538
  18.5445449   45.7953563
  18.5461872   45.7949794
  18.5478242   45.7942244
  18.5478893   45.7941794
  18.548368    45.7938488
  18.5505437   45.7942366
  18.5543529   45.7942534
  18.555439    45.7946424
  18.5568658   45.7979815
  18.5568234   45.7980019
  18.5583242   45.8010308
  18.5592826   45.8036559
  18.5749232   45.800304
  18.573289    45.8106824
  18.5728156   45.8135942
  18.5748818   45.8140325
  18.574853    45.8143669
  18.5803201   45.8155941
  18.5848181   45.8167156
  18.5853965   45.8169236
  18.5913225   45.819214
  18.5924844   45.8197548
  18.5941363   45.8206974
  18.5951927   45.8213706
  18.5981326   45.8236941
  18.599188    45.8245639
  18.6005493   45.8255853
  18.6019875   45.8268225
  18.6034245   45.8279104
  18.6035631   45.8280161
  18.6033059   45.8281942
  18.6016673   45.8317497
  18.6008788   45.8334246
  18.6009181   45.8336694
  18.6010945   45.8337902
  18.6115696   45.8363918
  18.6160589   45.8375372
  18.6232491   45.8394736
  18.6232062   45.8395418
  18.6147306   45.8530364
  18.6164203   45.8530764
  18.6192051   45.8535449
  18.6235534   45.8543238
  18.6235446   45.8554641
  18.6246148   45.858133
  18.6256969   45.8592775
  18.625688    45.860424
  18.6262291   45.8615663
  18.6262203   45.8627066
  18.6267438   45.8649955
  18.6272702   45.8669001
  18.6277705   45.8733783
  18.6283116   45.8733804
  18.6293999   45.8737625
  18.6295426   45.8738632
  18.6304853   45.8745288
  18.631562    45.8764355
  18.6315591   45.8768197
  18.6376222   45.868085
  18.6479463   45.8719275
  18.6495703   45.8730736
  18.6539322   45.8734733
  18.6549902   45.8741304
  18.6478879   45.8799221
  18.6478872   45.8800197
  18.6478851   45.8803063
  18.6451444   45.8825772
  18.6418562   45.884468
  18.6418533   45.8848522
  18.6412809   45.8890397
  18.6460129   45.8922605
  18.6481932   45.8925193
  18.6483033   45.8920891
  18.6510607   45.8939605
  18.6519067   45.8945027
  18.6520572   45.8944859
  18.6524599   45.894371
  18.6525863   45.89439
  18.6532105   45.8946223
  18.6540105   45.895179
  18.6544825   45.8953992
  18.654843    45.8955115
  18.6551781   45.8955543
  18.6553208   45.8954935
  18.6554759   45.8953586
  18.6558653   45.8949526
  18.656258    45.8950745
  18.6571428   45.8951864
  18.6578558   45.8953592
  18.6580279   45.8953751
  18.6586719   45.8953609
  18.6600369   45.8953219
  18.6604472   45.8953365
  18.6605002   45.895335
  18.6605541   45.8953333
  18.6608155   45.8953262
  18.6608746   45.8953245
  18.661008    45.8953198
  18.6610482   45.8953197
  18.661068    45.895584
  18.6610761   45.8956908
  18.6611345   45.8963397
  18.6616071   45.8963364
  18.6621388   45.8963191
  18.6623418   45.89873
  18.6617686   45.8987481
  18.6619787   45.8993917
  18.6648719   45.8993034
  18.6650062   45.8994347
  18.6643652   45.899746
  18.6635297   45.9001764
  18.6640705   45.9003594
  18.6639282   45.9005961
  18.6631553   45.9003551
  18.662272    45.9007779
  18.6621537   45.9008845
  18.6609174   45.9039405
  18.6605767   45.904764
  18.6600233   45.904698
  18.6599463   45.9053072
  18.6594969   45.9095647
  18.659589    45.9099913
  18.6595758   45.911046
  18.6595488   45.9152061
  18.6595328   45.9168864
  18.6627235   45.9167238
  18.6640939   45.9148879
  18.6648693   45.9141443
  18.6681499   45.9113692
  18.6695203   45.9106871
  18.675949    45.9148219
  18.6885347   45.9162345
  18.6934773   45.916742
  18.7047865   45.9180493
  18.7055573   45.916968
  18.7072468   45.9148402
  18.7080003   45.9141096
  18.7088737   45.9133694
  18.7100407   45.912316
  18.7104668   45.9120072
  18.7125145   45.9105603
  18.7143213   45.9092915
  18.7169995   45.907447
  18.7175181   45.9071737
  18.7188866   45.9065411
  18.7216286   45.9052279
  18.7221312   45.9050326
  18.7256371   45.9040777
  18.735892    45.9012736
  18.7382944   45.9006703
  18.7434352   45.9001616
  18.7487808   45.8999625
  18.7491266   45.8999693
  18.7494262   45.9000208
  18.7497217   45.9001243
  18.7500173   45.9002878
  18.7500633   45.9003452
  18.7502259   45.9002825
  18.7496745   45.8996184
  18.7495595   45.8989191
  18.7504696   45.8980281
  18.751558    45.8975423
  18.752759    45.8972417
  18.7550195   45.8968545
  18.7569043   45.8967929
  18.7575377   45.8953818
  18.7605319   45.8931019
  18.7595988   45.8901099
  18.7602319   45.8886362
  18.7628655   45.88903
  18.7650466   45.8894198
  18.7672207   45.8894253
  18.7688088   45.889153
  18.7711722   45.8885767
  18.7730478   45.8879841
  18.7759017   45.8867865
  18.7763018   45.8864405
  18.7764448   45.8863168
  18.7783614   45.8855631
  18.7805661   45.8840839
  18.7821292   45.8823766
  18.7827045   45.8818517
  18.785266    45.8800675
  18.7883492   45.8788214
  18.7910962   45.8781625
  18.7950878   45.8783069
  18.7972443   45.8784944
  18.7990728   45.878473
  18.8030971   45.8787429
  18.8061145   45.8791398
  18.8083759   45.879572
  18.8087457   45.8795153
  18.8089306   45.879463
  18.8101209   45.8815537
  18.8105177   45.8824585
  18.8126002   45.8908159
  18.8119447   45.8962976
  18.8115167   45.8977626
  18.8072491   45.9031911
  18.814705    45.909182
  18.8149945   45.9094145
  18.8179768   45.9117622
  18.8190436   45.9126011
  18.8192044   45.9127295
  18.8196948   45.9131171
  18.8216375   45.9146492
  18.8178073   45.9180982
  18.8156167   45.9196183
  18.8134364   45.9207541
  18.8145253   45.9215187
  18.8123345   45.9230387
  18.8046812   45.9268277
  18.8041306   45.9268265
  18.8035889   45.9268253
  18.8035872   45.9272033
  18.8046761   45.927968
  18.8046727   45.9287303
  18.8030213   45.9306293
  18.8073739   45.9344502
  18.8106439   45.9340729
  18.8111913   45.9348363
  18.813913    45.9359886
  18.8166397   45.9359942
  18.819917    45.9360009
  18.8204556   45.9367581
  18.8215481   45.9367603
  18.8220972   45.9371456
  18.8237314   45.9371489
  18.8237299   45.937527
  18.8242717   45.937528
  18.8259133   45.9379155
  18.8264551   45.9379166
  18.8275476   45.9379187
  18.8275461   45.9382968
  18.8291788   45.9386842
  18.8286355   45.9390612
  18.8280848   45.9390601
  18.8280833   45.9394382
  18.8280802   45.9402005
  18.8291712   45.9405868
  18.8302623   45.940967
  18.830813    45.9409681
  18.8313533   45.9413534
  18.8329862   45.9417345
  18.8335369   45.9417356
  18.8335384   45.9413575
  18.8340802   45.9413586
  18.8346324   45.9409754
  18.8351743   45.9409764
  18.8351728   45.9413606
  18.8346295   45.9417377
  18.8346235   45.9432622
  18.8346324   45.9436092
  18.8347581   45.943665
  18.8351624   45.9440256
  18.835158    45.9451659
  18.8357073   45.9455512
  18.8362477   45.9459302
  18.8362491   45.9455522
  18.8373418   45.9455542
  18.8378836   45.9455553
  18.8378866   45.944793
  18.837888    45.9444087
  18.837891    45.9436464
  18.8384417   45.9436475
  18.8389792   45.944795
  18.838433    45.9459343
  18.8384286   45.9470747
  18.8406139   45.9470787
  18.8411573   45.9467017
  18.8416991   45.9467026
  18.8422499   45.9467037
  18.8438802   45.947847
  18.844431    45.947848
  18.8455265   45.9470876
  18.8455279   45.9467096
  18.8460726   45.9459483
  18.8466173   45.945187
  18.8466229   45.9436624
  18.8460852   45.9425211
  18.8455476   45.9413798
  18.8460908   45.9409965
  18.8466327   45.9409975
  18.847182    45.9413827
  18.8471806   45.9417607
  18.8493657   45.9417646
  18.8520913   45.9421536
  18.8526331   45.9421546
  18.8531838   45.9421555
  18.8542778   45.9417732
  18.8548209   45.941396
  18.8564487   45.9433015
  18.8548089   45.9448233
  18.8520763   45.9463369
  18.8509823   45.9467193
  18.849345    45.9474787
  18.8482509   45.9478548
  18.8466019   45.9493765
  18.84606     45.9493755
  18.8444253   45.9493725
  18.8438745   45.9493715
  18.8433312   45.9497486
  18.842779    45.9501319
  18.8422328   45.9512712
  18.84114     45.9512692
  18.8405981   45.9512682
  18.8405966   45.9516524
  18.8411343   45.9527938
  18.8411328   45.9531718
  18.8405894   45.9535551
  18.8389429   45.9543143
  18.8378486   45.9546903
  18.8367617   45.9554506
  18.8345761   45.9554465
  18.8334818   45.9558225
  18.8323874   45.9562046
  18.8312946   45.9562025
  18.8302017   45.9562004
  18.8296582   45.9565774
  18.8291089   45.9561983
  18.8280176   45.9558119
  18.8269305   45.9565721
  18.8252852   45.9569531
  18.8252713   45.9603803
  18.8274602   45.9596223
  18.8372422   45.9714474
  18.8405058   45.9756368
  18.8399548   45.9756358
  18.8394126   45.9756348
  18.8394111   45.976019
  18.8394068   45.9771593
  18.8388514   45.9782987
  18.8383077   45.9786819
  18.83721     45.9798202
  18.8372085   45.9802045
  18.8361152   45.9802024
  18.8361167   45.9798182
  18.8355745   45.9798171
  18.8388295   45.9840128
  18.8393792   45.984398
  18.8687464   46.0210019
  18.8682038   46.021001
  18.8671096   46.0209993
  18.8545227   46.0259303
  18.8474034   46.0289609
  18.8463091   46.0289589
  18.8457664   46.028958
  18.8435735   46.0300944
  18.8446636   46.0312429
  18.8473811   46.0350531
  18.8468369   46.0354364
  18.8451926   46.0373361
  18.8446367   46.0384755
  18.8380655   46.0418907
  18.829336    46.0373065
  18.8266105   46.0357766
  18.8233381   46.0331051
  18.8227985   46.0323417
  18.8189701   46.0308094
  18.8184289   46.0304302
  18.8151557   46.0281366
  18.8129825   46.0266075
  18.8124326   46.0262283
  18.8091654   46.0246968
  18.8080728   46.0243164
  18.8058861   46.0239275
  18.8042492   46.023924
  18.8036977   46.0239228
  18.7998672   46.025061
  18.7987712   46.0254366
  18.7982268   46.0258196
  18.797677    46.0254342
  18.7971343   46.025433
  18.7960401   46.0254305
  18.7944032   46.0254268
  18.7927538   46.0261854
  18.7911151   46.0265598
  18.7905688   46.0273208
  18.7894691   46.0284649
  18.7889175   46.0284636
  18.7883748   46.0284624
  18.7872842   46.0276975
  18.7867415   46.0276963
  18.7861899   46.027695
  18.7850975   46.0273082
  18.7845566   46.0269289
  18.7840069   46.0265433
  18.783466    46.026164
  18.7818235   46.0273005
  18.7812719   46.0272992
  18.7807311   46.0269199
  18.779089    46.0261536
  18.7785482   46.0257743
  18.7780055   46.025773
  18.7774577   46.0250094
  18.7774596   46.0246251
  18.776917    46.0246238
  18.7747323   46.0238562
  18.7747304   46.0242405
  18.7730859   46.0257611
  18.7714324   46.0272755
  18.7703361   46.027657
  18.7692469   46.0284167
  18.7681487   46.0291762
  18.7675971   46.0291749
  18.7664969   46.0303125
  18.7643112   46.0314474
  18.7610281   46.0314391
  18.7572043   46.0310512
  18.7555713   46.0302847
  18.7539315   46.02914
  18.7533888   46.0291386
  18.7522966   46.0287515
  18.7512002   46.0291329
  18.7500417   46.0293297
  18.7490095   46.0295051
  18.7473725   46.0295008
  18.7457355   46.0294964
  18.7429995   46.0287267
  18.7429973   46.0291109
  18.7429952   46.029489
  18.7419077   46.0298641
  18.7419034   46.0306264
  18.7424419   46.0313902
  18.7424397   46.0317744
  18.7413304   46.0344364
  18.7396761   46.0374749
  18.7391222   46.0378576
  18.7391201   46.0382357
  18.7380212   46.038995
  18.737472    46.0401338
  18.7347204   46.0435535
  18.733072    46.0454516
  18.7385169   46.048894
  18.7417818   46.0523302
  18.753204    46.0634049
  18.7564577   46.067603
  18.760798    46.0752311
  18.7624125   46.0798029
  18.7662122   46.0855267
  18.7678266   46.0920011
  18.7699953   46.0946715
  18.7803769   46.0992705
  18.7896682   46.1011949
  18.7978698   46.1038783
  18.8027743   46.1088411
  18.7940123   46.109584
  18.7885345   46.1091873
  18.7803284   46.1091681
  18.7803302   46.1087901
  18.7797778   46.1087888
  18.7792325   46.1091655
  18.7786707   46.1110669
  18.7770217   46.1129656
  18.7759219   46.1137253
  18.7753746   46.1144863
  18.7677113   46.1144675
  18.7644252   46.1140812
  18.7627896   46.1133148
  18.7611391   46.1136887
  18.7600491   46.1125455
  18.7584156   46.111401
  18.7584197   46.1106387
  18.7578782   46.110253
  18.7578802   46.1098749
  18.7573278   46.1098735
  18.7556863   46.1102473
  18.7551408   46.1106302
  18.7523944   46.1110011
  18.7518488   46.1113839
  18.7512922   46.1121448
  18.7491196   46.1102301
  18.7469298   46.1098463
  18.7441838   46.1117416
  18.7425226   46.1140241
  18.7414334   46.1143992
  18.7386759   46.1166786
  18.7359358   46.1174334
  18.729894    46.1204596
  18.7287889   46.1219811
  18.7271536   46.1212141
  18.7255228   46.1196848
  18.7211452   46.1185318
  18.718384    46.1227135
  18.7167396   46.123471
  18.7123477   46.1245984
  18.7107008   46.1257338
  18.7074048   46.1268705
  18.7041177   46.1280009
  18.702464    46.1287582
  18.7019203   46.1287565
  18.7013653   46.1291329
  18.6969644   46.1329309
  18.6964182   46.1333073
  18.6964157   46.1336915
  18.6947642   46.1340644
  18.6947666   46.1336864
  18.6942229   46.1336846
  18.6936628   46.1348233
  18.693119    46.1348216
  18.6925688   46.1344418
  18.6920251   46.1344401
  18.6914838   46.1340541
  18.6903899   46.1336726
  18.6898398   46.1332866
  18.6898497   46.1317681
  18.6904074   46.1310076
  18.6909536   46.1306251
  18.6915063   46.1306268
  18.6925962   46.1302522
  18.6931513   46.1298697
  18.6931686   46.1272047
  18.6926185   46.1268249
  18.6909835   46.1260574
  18.6874731   46.1248506
  18.6871561   46.1252829
  18.6860548   46.1260417
  18.6865973   46.1275681
  18.6865897   46.1287084
  18.6860296   46.129847
  18.6854808   46.1306076
  18.6843793   46.1313664
  18.6838165   46.1328892
  18.6821636   46.1347866
  18.6816147   46.1355471
  18.6805029   46.1378305
  18.6788408   46.1397277
  18.677748    46.1404865
  18.6760935   46.1412434
  18.6744505   46.141616
  18.6728049   46.1423729
  18.6700457   46.1442664
  18.6672927   46.1465441
  18.6650976   46.1480551
  18.6639981   46.1484356
  18.6623432   46.1491923
  18.6601506   46.1503252
  18.6584929   46.1514598
  18.6573961   46.1514561
  18.6573933   46.1518403
  18.6562884   46.1529769
  18.6551895   46.1544977
  18.6540871   46.1552562
  18.652418    46.1579154
  18.6518685   46.1586758
  18.6496608   46.1605707
  18.6463592   46.1632241
  18.6452565   46.1639825
  18.6435896   46.1662635
  18.6424872   46.1681623
  18.6419285   46.1689226
  18.6397258   46.170055
  18.6364346   46.1711834
  18.6342258   46.1730843
  18.6254275   46.1768571
  18.6210205   46.1791275
  18.6171572   46.1825402
  18.6138132   46.1901383
  18.6132569   46.1905205
  18.6127126   46.1905184
  18.6110649   46.1901277
  18.6083316   46.189361
  18.6050634   46.1874393
  18.6034314   46.185152
  18.6017991   46.183999
  18.6001637   46.1832302
  18.5996105   46.183228
  18.5985162   46.1828456
  18.5957772   46.1828346
  18.5952393   46.1820701
  18.5930477   46.1816832
  18.5913773   46.1851039
  18.5908018   46.1877666
  18.5891504   46.1889003
  18.5874924   46.1907963
  18.5863851   46.1919384
  18.5847311   46.1923097
  18.5825253   46.1945876
  18.5814146   46.1961015
  18.5792127   46.1968547
  18.5775707   46.1968478
  18.5742676   46.1979806
  18.5726189   46.198736
  18.5704201   46.1991048
  18.5698724   46.1994805
  18.5709512   46.2006317
  18.5709478   46.2010098
  18.5720189   46.2040636
  18.5709111   46.2051994
  18.5698189   46.2055728
  18.5687143   46.2063305
  18.567613    46.20671
  18.5676097   46.2070881
  18.5665016   46.20823
  18.5659449   46.2086057
  18.5659381   46.209368
  18.5653767   46.2112683
  18.5653598   46.213171
  18.5653531   46.2139333
  18.5658909   46.2146979
  18.5669889   46.2147026
  18.5680836   46.2150854
  18.5702696   46.2162412
  18.5708142   46.2162435
  18.5685666   46.2230889
  18.5680164   46.2227023
  18.5652787   46.2223125
  18.5647341   46.2223102
  18.5636427   46.2215432
  18.5630891   46.2215408
  18.5630823   46.2223031
  18.5619909   46.2215361
  18.560355    46.2207667
  18.5581689   46.2196168
  18.555985    46.219223
  18.5548869   46.2192182
  18.5548903   46.2188402
  18.5537888   46.2192134
  18.552146    46.2192062
  18.5488411   46.2203383
  18.5482806   46.2210981
  18.547736    46.2210957
  18.5466343   46.2214689
  18.5482701   46.2222385
  18.5477184   46.2229984
  18.547715    46.2233764
  18.5471633   46.2241363
  18.5466132   46.2237558
  18.5455115   46.224129
  18.5449668   46.2241265
  18.5427598   46.2252571
  18.5416544   46.2260145
  18.5394579   46.2260046
  18.538365    46.2263839
  18.5383614   46.226762
  18.5378078   46.2267595
  18.5372595   46.2271413
  18.5361612   46.2271363
  18.5350594   46.2275094
  18.5334092   46.2282642
  18.5328592   46.2278774
  18.5323073   46.2286372
  18.5306372   46.2305386
  18.5289796   46.2320494
  18.5284166   46.2339558
  18.5316813   46.2362516
  18.533871    46.2370239
  18.5349516   46.2389316
  18.5360465   46.2393208
  18.5371343   46.2404662
  18.537672    46.241231
  18.5382114   46.2427581
  18.5387456   46.2439009
  18.538717    46.2469501
  18.5392476   46.248471
  18.5397979   46.2488578
  18.5403179   46.2515252
  18.5403072   46.2526656
  18.5408575   46.2530523
  18.5408326   46.2557173
  18.5397088   46.2583773
  18.539634    46.2663723
  18.5390729   46.2671321
  18.5396197   46.2678969
  18.5396091   46.2690373
  18.5406976   46.2701826
  18.5412427   46.2701851
  18.5423312   46.2713365
  18.5423206   46.2724769
  18.5423099   46.2736173
  18.5417612   46.2739991
  18.5390015   46.274749
  18.5379112   46.2747441
  18.5373607   46.2743574
  18.5368119   46.2747392
  18.5362614   46.2743524
  18.5351586   46.2747317
  18.5346134   46.2747292
  18.5346098   46.2751072
  18.5340485   46.275867
  18.5345954   46.2766319
  18.5340413   46.2766293
  18.5312794   46.2785195
  18.5312722   46.2792818
  18.5307306   46.2789013
  18.530725    46.2781893
  18.5313121   46.2750922
  18.5313157   46.2747141
  18.5318915   46.2724297
  18.5319023   46.2712894
  18.5313519   46.2709026
  18.5314955   46.2707081
  18.5319132   46.2701428
  18.5313592   46.2701403
  18.5313628   46.2697622
  18.5308249   46.2689974
  18.5306251   46.2688592
  18.5302745   46.2686168
  18.5280852   46.2686068
  18.5258796   46.2693589
  18.5253255   46.2693564
  18.5253182   46.2701125
  18.5247768   46.2697319
  18.5192751   46.271231
  18.5187211   46.2712284
  18.5170693   46.271983
  18.5148522   46.2738753
  18.5153951   46.2750183
  18.5159328   46.2757831
  18.5159291   46.2761612
  18.5164743   46.2761638
  18.5181054   46.2784585
  18.5197425   46.2792285
  18.5197632   46.2802443
  18.5191639   46.2826532
  18.5189606   46.283558
  18.5188514   46.2841408
  18.5093629   46.2871341
  18.5092328   46.2871742
  18.5086407   46.2909831
  18.5075411   46.2909778
  18.5031365   46.2924752
  18.4995581   46.2930088
  18.498185    46.2932135
  18.4915923   46.2935655
  18.4882895   46.2939273
  18.4851125   46.2931719
  18.4855449   46.2939136
  18.4849866   46.2942951
  18.4816648   46.2973217
  18.4788801   46.3011195
  18.4777843   46.3007297
  18.4755888   46.3003405
  18.4767246   46.2969188
  18.4778563   46.2938751
  18.4784216   46.2919752
  18.4795412   46.2900781
  18.4801024   46.2885562
  18.4806686   46.2874186
  18.4806726   46.2870343
  18.4806964   46.2847536
  18.4807044   46.2839913
  18.4807283   46.2817044
  18.4807322   46.2813263
  18.4802059   46.2786586
  18.480776    46.2771367
  18.4808038   46.2744718
  18.4802577   46.2737067
  18.4802657   46.2729444
  18.4802976   46.2698951
  18.4792113   46.2695116
  18.4792153   46.2691335
  18.4786692   46.2683684
  18.4781321   46.2676034
  18.4775822   46.2672163
  18.475942    46.26683
  18.4743019   46.2664374
  18.4721037   46.2664262
  18.4682654   46.2660285
  18.4666205   46.2652576
  18.4644395   46.264484
  18.4628111   46.2621948
  18.4617162   46.2618048
  18.4606262   46.2617992
  18.4606303   46.2614211
  18.4617327   46.2602802
  18.4634061   46.2583861
  18.4645172   46.2572514
  18.4650622   46.2572543
  18.4672804   46.2553629
  18.4678294   46.2549815
  18.4667428   46.2538355
  18.4662019   46.2534484
  18.465657    46.2534456
  18.4656529   46.2538298
  18.4596138   46.2537985
  18.4596221   46.2530362
  18.4601753   46.2522768
  18.4579818   46.2518872
  18.4552269   46.2530132
  18.4546819   46.2530104
  18.4546778   46.2533884
  18.4458962   46.2533419
  18.4442435   46.2533331
  18.4442732   46.2506681
  18.445393    46.2487713
  18.4459638   46.2472497
  18.4454099   46.2472467
  18.4448693   46.2468658
  18.4448819   46.2457254
  18.4443324   46.2453382
  18.4443366   46.2449601
  18.4448904   46.2449631
  18.4448947   46.2445789
  18.4443409   46.2445759
  18.4443451   46.2441978
  18.443796    46.244573
  18.4432512   46.2445701
  18.4432554   46.244192
  18.441603    46.2441831
  18.4410624   46.243796
  18.4410581   46.2441802
  18.4405043   46.2441772
  18.4405086   46.243793
  18.4399638   46.24379
  18.4399723   46.2430339
  18.4383417   46.2418785
  18.4377879   46.2418755
  18.4366936   46.2414915
  18.435595    46.2414856
  18.4355994   46.2411013
  18.4350588   46.2407203
  18.434514    46.2407174
  18.4339646   46.2403301
  18.4334198   46.2403271
  18.4323256   46.2399431
  18.4306776   46.239556
  18.4290342   46.239547
  18.4284981   46.2387817
  18.4268459   46.2387726
  18.4268546   46.2380103
  18.4263186   46.237245
  18.4257738   46.237242
  18.4235943   46.2357053
  18.4170169   46.2345283
  18.4170213   46.234144
  18.4159451   46.2329976
  18.4143019   46.232226
  18.4126722   46.2310764
  18.4115872   46.2299299
  18.4110514   46.2291645
  18.409404    46.2287709
  18.4083057   46.2287647
  18.4061315   46.2276119
  18.4033948   46.227212
  18.4017429   46.2272026
  18.3990107   46.2264307
  18.3968233   46.2256558
  18.3968324   46.2248935
  18.3962924   46.2245061
  18.3941051   46.2237373
  18.3935696   46.2229718
  18.393016    46.2229686
  18.3913871   46.2218125
  18.3897673   46.2199003
  18.3870314   46.2187439
  18.3848628   46.2172064
  18.383774    46.2164377
  18.3821271   46.2160499
  18.3815872   46.2156624
  18.3810427   46.2156592
  18.3799493   46.2152747
  18.3788513   46.2152681
  18.3771857   46.2163987
  18.3760965   46.2163922
  18.3733422   46.21676
  18.3722394   46.2171315
  18.3700522   46.2171184
  18.3683959   46.2174865
  18.3667389   46.2186231
  18.3650866   46.2193755
  18.3639837   46.2197469
  18.3628616   46.2216428
  18.3623074   46.2224018
  18.3617346   46.223923
  18.3611899   46.2239197
  18.3600821   46.2246753
  18.3595188   46.2254342
  18.3595044   46.2265746
  18.3600532   46.226956
  18.360593    46.2273436
  18.361672    46.2288749
  18.3627656   46.2292596
  18.3644037   46.2296538
  18.3649526   46.2300352
  18.3660462   46.2304199
  18.3720737   46.2304562
  18.3737209   46.2308503
  18.3742609   46.2312316
  18.3759129   46.2312415
  18.3775512   46.2316355
  18.3802927   46.2316518
  18.3813817   46.2324205
  18.3840906   46.2351017
  18.3868322   46.2351178
  18.3895735   46.2358961
  18.3901183   46.2358993
  18.3912122   46.2362838
  18.3917569   46.2362869
  18.3917524   46.236665
  18.3950386   46.2374464
  18.3961279   46.2382151
  18.3972127   46.2393679
  18.3977393   46.2408895
  18.3982885   46.2412769
  18.3988333   46.2412801
  18.3993736   46.2416612
  18.399369    46.2420455
  18.4037453   46.2435891
  18.4037091   46.2466383
  18.4048033   46.2470226
  18.4053436   46.2474099
  18.4053256   46.2489345
  18.4047762   46.2493095
  18.4047672   46.2500718
  18.4052986   46.2512152
  18.4052941   46.2515995
  18.4063794   46.2527461
  18.4074692   46.2535146
  18.4074602   46.2542769
  18.4079917   46.2554204
  18.4090726   46.2569512
  18.4096041   46.258857
  18.4096776   46.258971
  18.4101357   46.2600004
  18.4101268   46.2607627
  18.4090143   46.2619031
  18.4101133   46.2619093
  18.4100865   46.26419
  18.410627    46.2653397
  18.4111677   46.2657208
  18.4111632   46.2660989
  18.4117172   46.266102
  18.4111587   46.2664831
  18.4116949   46.2680108
  18.4122355   46.268392
  18.4133213   46.2695385
  18.4138619   46.2699258
  18.4165345   46.2760334
  18.4220177   46.2772044
  18.4203336   46.2806225
  18.4197618   46.282144
  18.4147123   46.2912579
  18.3982867   46.2869747
  18.3960649   46.2888647
  18.3960557   46.289627
  18.3955242   46.2884773
  18.3921934   46.2911294
  18.3916435   46.2915042
  18.3894628   46.2899668
  18.387804    46.2911038
  18.3866906   46.2922377
  18.386141    46.2918502
  18.3839367   46.2929839
  18.3828418   46.2925932
  18.3828371   46.2929774
  18.3806379   46.2929644
  18.3789789   46.2940951
  18.3778793   46.2940885
  18.3756847   46.2936974
  18.3734097   46.2997765
  18.373405    46.3001546
  18.3722911   46.3012883
  18.373931    46.3024448
  18.3755667   46.3032169
  18.3727506   46.3089085
  18.3749457   46.3093059
  18.3765676   46.3112183
  18.3765252   46.3146456
  18.3759424   46.316923
  18.3759047   46.3199722
  18.3747898   46.3218683
  18.3736802   46.3226241
  18.3736565   46.3245267
  18.3730829   46.326048
  18.3730545   46.3283349
  18.3757867   46.3294917
  18.3790643   46.3314139
  18.3790595   46.3317982
  18.3834425   46.3333425
  18.3856204   46.334502
  18.3894444   46.3364271
  18.3894306   46.3375675
  18.389976    46.338333
  18.3899714   46.3387173
  18.3905126   46.3390985
  18.3905079   46.3394827
  18.3899344   46.3417603
  18.3888107   46.3436565
  18.387659    46.3478397
  18.3865304   46.3501202
  18.3848744   46.3508728
  18.3843195   46.3508696
  18.3843149   46.3512476
  18.3821176   46.351619
  18.3793654   46.3519808
  18.3782551   46.3527366
  18.3760441   46.3534858
  18.3760158   46.3557665
  18.376011    46.3561508
  18.3716075   46.3561245
  18.3688359   46.3580107
  18.3644267   46.3591246
  18.3611142   46.3598669
  18.3578064   46.360231
  18.3550487   46.3609765
  18.3539477   46.3609698
  18.3512095   46.3601906
  18.3506439   46.3617118
  18.3505901   46.3658952
  18.3505705   46.3674198
  18.3494595   46.3681753
  18.3472474   46.368924
  18.3450253   46.3704349
  18.3444693   46.3711938
  18.3433632   46.371565
  18.3427972   46.3730862
  18.3416663   46.37536
  18.3415967   46.3806961
  18.3410317   46.3814488
  18.3421033   46.3837426
  18.3415471   46.3845015
  18.3415172   46.3867884
  18.3420338   46.3890725
  18.3420139   46.3905971
  18.3425643   46.3909786
  18.3441924   46.3925135
  18.3441627   46.3948004
  18.3457959   46.395951
  18.3474341   46.3967235
  18.3457367   46.4005186
  18.34462     46.4016583
  18.3435083   46.4024138
  18.3412887   46.4043027
  18.3379232   46.4088497
  18.3362848   46.408077
  18.3351878   46.407692
  18.3324325   46.4080527
  18.3302185   46.4088011
  18.3268771   46.411445
  18.325765    46.4122003
  18.3241062   46.412952
  18.322994    46.4137073
  18.3218868   46.4140783
  18.3191259   46.4148229
  18.3180186   46.4152
  18.3141349   46.4174558
  18.3135883   46.4174523
  18.3130328   46.4174487
  18.3113892   46.4170599
  18.309663    46.4161881
  18.3075623   46.4151321
  18.3053843   46.4132088
  18.3037514   46.4120576
  18.3020938   46.4120467
  18.3020991   46.4116687
  18.3004505   46.4116578
  18.2977      46.4116396
  18.2966085   46.41087
  18.2949654   46.4104748
  18.2944152   46.410093
  18.2933238   46.4093234
  18.2894821   46.4085353
  18.286737    46.4081388
  18.285094    46.4077435
  18.2834564   46.40697
  18.2818044   46.4065808
  18.2790545   46.4065439
  18.2774003   46.4069289
  18.2768449   46.4069252
  18.2757484   46.4065396
  18.2724625   46.4057548
  18.2702916   46.4034527
  18.2697506   46.4030709
  18.2692062   46.4023048
  18.2686652   46.401923
  18.2681098   46.4019192
  18.2670135   46.4015273
  18.2659117   46.4015197
  18.2626042   46.4022592
  18.2614968   46.4026358
  18.2598486   46.4026243
  18.2570895   46.402605
  18.2554358   46.4029715
  18.2526801   46.4033303
  18.252128    46.4037107
  18.2510262   46.4037029
  18.2499188   46.4040732
  18.2471461   46.4055784
  18.2438065   46.4078418
  18.2427159   46.4070717
  18.2416309   46.4059235
  18.2394671   46.4032366
  18.2372837   46.4024648
  18.2367283   46.4024609
  18.229557    46.4039277
  18.2207131   46.4057725
  18.2156469   46.4046916
  18.2059075   46.4026137
  18.1856102   46.3978927
  18.1882792   46.3685893
  18.1889068   46.3640198
  18.1889128   46.3636417
  18.1894709   46.3628836
  18.1900229   46.3625097
  18.19113     46.3621338
  18.193899    46.3613924
  18.1961158   46.3598906
  18.1961219   46.3595063
  18.1955818   46.3591242
  18.1978076   46.3576162
  18.1983715   46.3564799
  18.1994843   46.3557259
  18.201686    46.3557424
  18.2023808   46.3561975
  18.202775    46.356513
  18.2022854   46.3523193
  18.2023389   46.3488921
  18.2029175   46.3473717
  18.2029413   46.3458471
  18.2024043   46.3447027
  18.2024162   46.3439404
  18.2029829   46.3431822
  18.2029948   46.3424199
  18.2024519   46.3416535
  18.2024875   46.3393728
  18.2014047   46.3382243
  18.2014107   46.33784
  18.200865    46.3378359
  18.2008709   46.3374579
  18.2003162   46.3374537
  18.2003281   46.3366914
  18.1997943   46.3359251
  18.200346    46.3355449
  18.1998121   46.3347847
  18.1998479   46.3324979
  18.2009195   46.3319893
  18.1993051   46.3317314
  18.1976591   46.331719
  18.1958784   46.3316695
  18.1947343   46.331255
  18.1929682   46.3311296
  18.1888591   46.3320305
  18.1861005   46.3327719
  18.1855363   46.3329158
  18.184826    46.3330524
  18.1842562   46.333128
  18.1838936   46.3331393
  18.1816928   46.3331225
  18.1813148   46.3330241
  18.1804575   46.3328211
  18.1798129   46.3326004
  18.1792914   46.3322192
  18.1785687   46.3315925
  18.176887    46.3303172
  18.176353    46.3299267
  18.1752229   46.3293881
  18.1747372   46.3290233
  18.1730107   46.3281188
  18.1727112   46.327834
  18.1726307   46.3275313
  18.1725348   46.3266518
  18.1724636   46.3261961
  18.1720317   46.3255715
  18.1713818   46.3250473
  18.1701093   46.3248704
  18.1689366   46.3240467
  18.1686542   46.3238794
  18.1677916   46.3234195
  18.1671164   46.3230431
  18.1667168   46.3225149
  18.1664848   46.3219596
  18.1663466   46.3217867
  18.1659516   46.3211931
  18.1659577   46.320815
  18.1654156   46.3200484
  18.1643217   46.3196556
  18.1632305   46.319647
  18.1566235   46.3199794
  18.153771    46.3264278
  18.1521627   46.3241341
  18.1544296   46.3195778
  18.1544358   46.3191997
  18.1538902   46.3191954
  18.152809    46.3180464
  18.1528215   46.3172841
  18.1511759   46.317271
  18.1478694   46.3176228
  18.1473239   46.3176185
  18.1462428   46.3164694
  18.1396386   46.3171788
  18.1390139   46.3213638
  18.1373746   46.3209663
  18.136268    46.3213417
  18.1357224   46.3213372
  18.1346095   46.3220844
  18.1329548   46.322071
  18.1329483   46.3224553
  18.1318546   46.3220621
  18.131309    46.3220577
  18.1313025   46.3224419
  18.1274564   46.3224106
  18.1269043   46.3227842
  18.1263562   46.3224017
  18.1247428   46.3204856
  18.1252884   46.3204901
  18.1253014   46.3197278
  18.1247623   46.3193391
  18.1247688   46.3189611
  18.1225816   46.3181808
  18.122036    46.3181763
  18.1214751   46.3185498
  18.1198294   46.3185363
  18.1176161   46.3192805
  18.1181641   46.3196693
  18.1170575   46.3200383
  18.116516    46.3192714
  18.1154224   46.3188843
  18.1143223   46.3188752
  18.1143289   46.318491
  18.1148835   46.3184955
  18.1143355   46.3181129
  18.114342    46.3177349
  18.1137964   46.3177304
  18.1132706   46.3165793
  18.1127161   46.3165748
  18.1127226   46.3161967
  18.1111297   46.313134
  18.1106015   46.311611
  18.1185036   46.2998687
  18.116363    46.2964234
  18.1147484   46.2941229
  18.1153289   46.292603
  18.1155145   46.2925197
  18.1186536   46.2911118
  18.121411    46.2903721
  18.1214176   46.2899879
  18.12472     46.2892587
  18.1258001   46.290408
  18.1263609   46.2900283
  18.1290536   46.2930998
  18.1323691   46.291602
  18.1226665   46.28124
  18.1193424   46.2827375
  18.1171175   46.2842439
  18.1154664   46.2846084
  18.1143801   46.283837
  18.111498    46.2918151
  18.110924    46.2929508
  18.1092396   46.2952239
  18.1058812   46.2986236
  18.101425    46.302392
  18.0965005   46.3012101
  18.0910311   46.3000172
  18.0904633   46.3007748
  18.0888182   46.3007608
  18.088257    46.3011404
  18.0877184   46.3007515
  18.0877049   46.3015138
  18.0860598   46.3014998
  18.0860665   46.3011217
  18.0849601   46.3014904
  18.0822491   46.2995643
  18.0789568   46.2991518
  18.0773458   46.2972351
  18.0768188   46.2957058
  18.076287    46.2949451
  18.0768597   46.2934252
  18.0768666   46.293041
  18.0763417   46.291896
  18.0752421   46.2918865
  18.0752353   46.2922645
  18.0746811   46.2922598
  18.0746742   46.292644
  18.0741358   46.2922551
  18.0735747   46.2926345
  18.0735679   46.2930125
  18.0719161   46.2933826
  18.0719093   46.2937606
  18.0669656   46.2937177
  18.0669725   46.2933397
  18.0664272   46.293335
  18.0664341   46.2929507
  18.0658729   46.2933301
  18.0658799   46.2929459
  18.0653345   46.2929412
  18.0642212   46.2936938
  18.0631216   46.2936843
  18.0625693   46.2940637
  18.0603562   46.2948068
  18.059804    46.29518
  18.0587461   46.2928836
  18.05876     46.2921213
  18.0548672   46.2947586
  18.0531924   46.2958844
  18.0515615   46.2951076
  18.0493833   46.2939478
  18.0483048   46.2927916
  18.0439084   46.2931369
  18.0411498   46.2938747
  18.039496    46.2938599
  18.0383894   46.2942281
  18.0367373   46.2945976
  18.0356377   46.2945878
  18.0345311   46.2949559
  18.0334172   46.2957083
  18.0317294   46.2979803
  18.031177    46.2983534
  18.0278709   46.2987017
  18.0273112   46.2994591
  18.0261899   46.3005956
  18.0256284   46.3009686
  18.0245214   46.3013429
  18.0234451   46.3005707
  18.0223598   46.2997985
  18.0207275   46.2986369
  18.0190968   46.2978659
  18.0174591   46.2974666
  18.0163594   46.2974566
  18.0147145   46.2974415
  18.0141456   46.2981987
  18.0130314   46.2989509
  18.0124788   46.299324
  18.01191     46.3000811
  18.0113646   46.3000761
  18.0102649   46.300066
  18.0091798   46.2992936
  18.0086563   46.2981483
  18.0075712   46.2973759
  18.0070096   46.297755
  18.0069951   46.2985111
  18.0058661   46.3000255
  18.0058515   46.3007878
  18.0052914   46.301545
  18.004746    46.3015399
  18.0047387   46.301918
  18.003639    46.3019078
  18.0030847   46.3019027
  18.0025393   46.3018976
  18.0019849   46.3018925
  18.0014321   46.3022717
  18.0019775   46.3022767
  18.0014248   46.3026497
  18.0014174   46.3030339
  18.0014101   46.303412
  18.0013954   46.3041742
  18.0013881   46.3045522
  18.0013807   46.3049365
  18.0019188   46.3053196
  18.0019114   46.3057038
  18.0019041   46.3060818
  18.0018894   46.3068441
  18.001882    46.3072283
  18.0024291   46.3076115
  18.0024218   46.3079895
  18.0024144   46.3083737
  18.0024071   46.3087518
  18.0018527   46.3087466
  18.0018453   46.3091309
  17.9831803   46.308194
  17.981535    46.3081784
  17.9809895   46.3081733
  17.9804427   46.3077838
  17.9798972   46.3077786
  17.9782594   46.307385
  17.9771521   46.3077526
  17.9765977   46.3077474
  17.9760446   46.3081264
  17.9754902   46.3081212
  17.974398    46.3077265
  17.960179    46.3045469
  17.9591174   46.3026338
  17.9558425   46.3018397
  17.9536584   46.3010562
  17.9530965   46.3014288
  17.9530887   46.3018131
  17.9519814   46.3021804
  17.9508906   46.3021698
  17.9503285   46.3025487
  17.9497754   46.3029214
  17.9486602   46.3036729
  17.9422492   46.2948519
  17.9400812   46.2933059
  17.9400889   46.2929278
  17.9379523   46.2898572
  17.935808    46.2871708
  17.9347242   46.2863977
  17.9341946   46.2856301
  17.9342337   46.2837275
  17.9342728   46.281825
  17.9343118   46.2799225
  17.934896    46.2780253
  17.9371257   46.2765225
  17.9377033   46.2753815
  17.9366352   46.2738523
  17.9345072   46.2704036
  17.9339857   46.2692518
  17.9334708   46.2673438
  17.9340638   46.2654467
  17.9335255   46.264679
  17.933004    46.2635333
  17.9324736   46.2623814
  17.9313162   46.2612222
  17.9297857   46.2596894
  17.9287026   46.2589163
  17.9281654   46.2585329
  17.927643    46.2570029
  17.9276587   46.2562406
  17.9276823   46.2551003
  17.929382    46.25283
  17.9304874   46.2520847
  17.9310726   46.2505657
  17.9310805   46.2501815
  17.9311117   46.2486632
  17.9305816   46.2475113
  17.9311667   46.2459922
  17.931735    46.2448574
  17.9328649   46.2433437
  17.9339789   46.2425985
  17.9345483   46.2418418
  17.9345718   46.2406953
  17.9334967   46.2395442
  17.9324061   46.2391553
  17.9313312   46.2379979
  17.9302797   46.2357065
  17.9292207   46.2337869
  17.9286838   46.2334035
  17.9286995   46.2326412
  17.9276327   46.2311058
  17.9270869   46.2307223
  17.9260133   46.2299492
  17.9254597   46.2299437
  17.9249228   46.2295602
  17.9238404   46.228787
  17.9233026   46.2280193
  17.9227817   46.2268674
  17.9222438   46.2261058
  17.9217071   46.2257161
  17.9211625   46.2257107
  17.9211704   46.2253327
  17.9195345   46.2245539
  17.9184285   46.2249209
  17.9156717   46.2256556
  17.9145655   46.2260288
  17.914013    46.2264014
  17.9128909   46.2275306
  17.9123383   46.2279093
  17.9106865   46.2278927
  17.9090436   46.2278761
  17.9084821   46.2282485
  17.9062865   46.2286106
  17.9051883   46.2285995
  17.9046428   46.2282096
  17.9046508   46.2278316
  17.9041142   46.2274419
  17.9030562   46.2255282
  17.9025437   46.2239982
  17.9020063   46.2232303
  17.9003956   46.2216953
  17.8987611   46.2212943
  17.897671    46.2209051
  17.8949214   46.220877
  17.8943768   46.2208714
  17.8927424   46.2204704
  17.8888792   46.2215774
  17.8877648   46.2223284
  17.8866423   46.2234573
  17.8855198   46.2245863
  17.8844134   46.2249592
  17.8822417   46.22379
  17.8800544   46.2237674
  17.8783945   46.2241344
  17.8778499   46.2241288
  17.8767765   46.2229709
  17.8762565   46.221825
  17.8762811   46.2206848
  17.8763057   46.2195445
  17.8757687   46.2187765
  17.8714351   46.2164441
  17.8709063   46.2152981
  17.8692557   46.2156589
  17.8681411   46.2164097
  17.8670184   46.2175384
  17.8659038   46.2182891
  17.8642529   46.2186561
  17.8620402   46.2193953
  17.8609172   46.220524
  17.8587467   46.2197387
  17.8571119   46.218959
  17.8560389   46.2178071
  17.8544382   46.2158872
  17.8539189   46.214735
  17.8522759   46.2143395
  17.8506251   46.2147001
  17.8495019   46.2158348
  17.8483872   46.2165792
  17.8472893   46.2165675
  17.8456973   46.2142695
  17.8451613   46.2138795
  17.8457648   46.2112205
  17.8430246   46.2111913
  17.8408881   46.2085031
  17.8392542   46.2081074
  17.8387094   46.2077173
  17.8370757   46.2073216
  17.8348716   46.207676
  17.8342931   46.2091946
  17.8331698   46.210323
  17.8315104   46.2110675
  17.8271275   46.210642
  17.8249318   46.2106182
  17.8238083   46.2117465
  17.8216042   46.212485
  17.8177834   46.2116809
  17.8150516   46.2108886
  17.815017    46.2124131
  17.8149823   46.2139376
  17.8144032   46.2154561
  17.81436     46.2173585
  17.8142909   46.2204012
  17.8131667   46.2215357
  17.812605    46.2222857
  17.8082127   46.2222375
  17.8065873   46.2214634
  17.804962    46.2202987
  17.802801    46.2191343
  17.801132    46.2198783
  17.7989362   46.2202321
  17.7972583   46.2213602
  17.797232    46.2225005
  17.7955191   46.2255249
  17.7943945   46.2266592
  17.7911353   46.225098
  17.7884298   46.223543
  17.7846175   46.2223597
  17.7840819   46.2219694
  17.7840907   46.2215914
  17.7840995   46.2212134
  17.7841084   46.2208292
  17.7846707   46.2200731
  17.784706    46.2185548
  17.7847415   46.2170304
  17.7847592   46.2162681
  17.784777    46.2155059
  17.7831878   46.2132008
  17.7826432   46.2128166
  17.7793851   46.2116394
  17.7788407   46.211249
  17.7777963   46.2093342
  17.7772608   46.2085658
  17.7762254   46.2058887
  17.7762699   46.2039862
  17.7768501   46.2028461
  17.7746636   46.2024432
  17.7730483   46.2012844
  17.770862    46.2008754
  17.7692111   46.2008566
  17.7664624   46.2012097
  17.7642671   46.2015628
  17.7615095   46.2019157
  17.7582345   46.2014939
  17.7581933   46.2032308
  17.7581894   46.2033964
  17.7576179   46.2041522
  17.7559667   46.2045176
  17.7543246   46.2044988
  17.7537713   46.2044924
  17.7532179   46.2048642
  17.7526646   46.2048578
  17.7521202   46.2048516
  17.752111    46.2052358
  17.7515577   46.2052294
  17.7510043   46.2056011
  17.7504508   46.2059729
  17.7498975   46.2059665
  17.7498883   46.2063507
  17.7470755   46.2093618
  17.7464856   46.2108798
  17.7447519   46.2146719
  17.7402042   46.2214687
  17.7367537   46.2279062
  17.7361722   46.2294243
  17.7356002   46.2301801
  17.7344744   46.2313075
  17.7316963   46.2328
  17.7283829   46.2335237
  17.7278661   46.2323709
  17.7267864   46.2315958
  17.7208343   46.228098
  17.7202897   46.2280916
  17.71921     46.2273226
  17.7181306   46.2265474
  17.7165346   46.2246194
  17.7154645   46.2234662
  17.7154738   46.2230882
  17.7160745   46.220808
  17.7155299   46.2208015
  17.7166372   46.2204365
  17.7166466   46.2200523
  17.7171912   46.2200587
  17.7177352   46.2204495
  17.7193685   46.2208469
  17.7199131   46.2208533
  17.7215832   46.2201105
  17.722137    46.2197389
  17.7232536   46.2189896
  17.724398    46.2171001
  17.7255608   46.2144483
  17.7272774   46.2114187
  17.7278864   46.2091386
  17.7279049   46.2083763
  17.7252579   46.2041612
  17.7247321   46.2033926
  17.7231086   46.2026111
  17.723155    46.2007087
  17.7209506   46.2010608
  17.7177137   46.1987353
  17.7171879   46.1979729
  17.7171973   46.1975887
  17.7133228   46.1990677
  17.712779    46.198677
  17.7122253   46.1990547
  17.7116815   46.1986639
  17.7095421   46.1967355
  17.7078913   46.1967159
  17.7090077   46.1959668
  17.7101238   46.1952238
  17.7029945   46.1951389
  17.7030229   46.1939925
  17.7036043   46.1928588
  17.7036138   46.1924746
  17.7036325   46.1917186
  17.7041863   46.1913409
  17.7042051   46.1905787
  17.704224    46.1898165
  17.7047865   46.1894451
  17.704796    46.1890609
  17.7053589   46.1883114
  17.7053778   46.1875492
  17.7064751   46.1875622
  17.707057    46.1860443
  17.7065128   46.1860378
  17.7059686   46.1860313
  17.7054154   46.1860247
  17.7048807   46.185634
  17.7060062   46.1845069
  17.7055283   46.1814577
  17.7023688   46.1760829
  17.7018529   46.1749362
  17.7013088   46.1749297
  17.7007841   46.1737829
  17.699143    46.1737632
  17.6996681   46.1745319
  17.6991051   46.1752876
  17.6996492   46.1752941
  17.6990863   46.1760436
  17.6990579   46.1771901
  17.6984765   46.1783236
  17.6979324   46.1783171
  17.6968257   46.1786882
  17.6968352   46.178304
  17.6979892   46.1760305
  17.6980269   46.1745123
  17.6975208   46.1729813
  17.6975397   46.1722191
  17.697568    46.1710789
  17.6970246   46.1706881
  17.6964806   46.1706815
  17.6959276   46.1706749
  17.695393    46.1702904
  17.6954025   46.1699062
  17.694878    46.1687593
  17.6938094   46.1676059
  17.6922065   46.1660617
  17.6922445   46.1645373
  17.69261     46.164296
  17.6928069   46.164166
  17.6933508   46.1641725
  17.6933604   46.1637883
  17.6933698   46.1634103
  17.692311    46.1618727
  17.6917765   46.1614882
  17.6907083   46.1603285
  17.6896209   46.1599373
  17.6890865   46.1595527
  17.6885432   46.1591618
  17.6868929   46.1595262
  17.6863973   46.1572329
  17.6869978   46.1553372
  17.6881612   46.1526858
  17.6871314   46.1500018
  17.6840326   46.1423523
  17.6840805   46.1404437
  17.6840994   46.1396877
  17.6825167   46.1373812
  17.6820119   46.1354721
  17.6815065   46.1339411
  17.6815081   46.1338771
  17.6815544   46.1320387
  17.6822129   46.1274721
  17.682251    46.1259539
  17.6839761   46.1229251
  17.6839952   46.1221629
  17.6834714   46.121016
  17.6835      46.1198758
  17.6802401   46.1190737
  17.6848059   46.1115111
  17.6859303   46.1103841
  17.6875886   46.1096418
  17.6800038   46.1065
  17.6653412   46.1017523
  17.6664851   46.0998634
  17.6676      46.0991146
  17.6692968   46.0968481
  17.671536    46.0949726
  17.674299    46.0938659
  17.6776046   46.0931438
  17.6809292   46.0916594
  17.6803962   46.0908905
  17.6787671   46.0904925
  17.6782341   46.0897236
  17.6766147   46.0889414
  17.6771956   46.087808
  17.6777964   46.085528
  17.6778443   46.0836256
  17.6778635   46.0828634
  17.6778922   46.0817232
  17.6779305   46.0801988
  17.6779497   46.0794366
  17.6779784   46.0782965
  17.6757978   46.0778855
  17.6769985   46.0737099
  17.669914    46.0724827
  17.6699429   46.0713425
  17.6694384   46.0698115
  17.6700103   46.068678
  17.6700393   46.0675316
  17.6700682   46.0663914
  17.670678    46.0641116
  17.6701645   46.0625866
  17.6647091   46.0621353
  17.6614342   46.0617168
  17.6554457   46.0608803
  17.6561737   46.0536493
  17.648569    46.0516519
  17.6436674   46.0508282
  17.638224    46.0496195
  17.634969    46.0488162
  17.6316854   46.0487748
  17.6322668   46.0476416
  17.6328492   46.0461241
  17.6295756   46.0457046
  17.6295955   46.0449425
  17.6285099   46.0449287
  17.6290726   46.0441734
  17.6290826   46.0437892
  17.6285496   46.0434044
  17.6285595   46.0430264
  17.6291123   46.0426491
  17.6296649   46.0422779
  17.6296749   46.0418937
  17.6318735   46.0415434
  17.6324549   46.0404039
  17.6324648   46.040026
  17.6324746   46.039648
  17.6324944   46.0388858
  17.6325044   46.0385016
  17.6325142   46.0381236
  17.6325242   46.0377394
  17.6319824   46.0373545
  17.6331261   46.0354659
  17.6337075   46.0343265
  17.6337173   46.0339485
  17.6342798   46.0331931
  17.6342896   46.0328151
  17.6342995   46.032431
  17.6337667   46.0320461
  17.6332449   46.0308928
  17.6332547   46.0305148
  17.6332646   46.0301368
  17.6332745   46.0297526
  17.6338359   46.0293816
  17.6344083   46.0282421
  17.6338656   46.0282352
  17.6338854   46.027473
  17.6338952   46.027095
  17.6344378   46.0271019
  17.6361041   46.0259823
  17.6372081   46.0256119
  17.6377891   46.0244786
  17.6372869   46.0225693
  17.6384795   46.0187722
  17.6390221   46.018779
  17.6412885   46.0157639
  17.6489954   46.0135729
  17.653439    46.0109629
  17.6573502   46.0075836
  17.6568174   46.0071989
  17.6530339   46.0052427
  17.6530532   46.0044868
  17.6536338   46.0033472
  17.6530923   46.0029624
  17.6531313   46.001438
  17.6531508   46.0006758
  17.6526181   46.0002911
  17.6532091   45.9983955
  17.6526863   45.9976266
  17.6533262   45.9938224
  17.6533652   45.9922981
  17.6533943   45.9911579
  17.6484883   45.9907187
  17.6414046   45.9902458
  17.6392276   45.9898404
  17.6386756   45.9902115
  17.6294162   45.9889543
  17.6277907   45.9885494
  17.6250717   45.9881369
END
END
