polygon
1
  18.0360092   47.3346186
  18.0354097   47.3369003
  18.0342232   47.3403173
  18.038114    47.3418761
  18.0414327   47.3438079
  18.0503012   47.3488372
  18.0536228   47.3511467
  18.0569658   47.3523221
  18.0603071   47.3531069
  18.0664427   47.3546841
  18.0686787   47.3550874
  18.0742773   47.3551348
  18.0787566   47.3555507
  18.0826706   47.3559678
  18.0860078   47.3575142
  18.0882212   47.3586793
  18.0865159   47.3601835
  18.0859458   47.360941
  18.0808127   47.36585
  18.0796493   47.3681272
  18.0807435   47.3696549
  18.0801433   47.3715587
  18.0800948   47.3742233
  18.0817593   47.3749996
  18.0839825   47.3761586
  18.0861645   47.3796042
  18.0861163   47.3822688
  18.0866314   47.3845601
  18.0899294   47.3883929
  18.0921359   47.3906961
  18.0928556   47.3909211
  18.0971514   47.3922581
  18.0977011   47.3926469
  18.1010343   47.394577
  18.1048062   47.3969119
  18.1060264   47.3976672
  18.1087674   47.4011169
  18.1093107   47.4018774
  18.1098563   47.4030284
  18.1098227   47.4049308
  18.110395    47.4057173
  18.1114541   47.4068512
  18.1108379   47.4110314
  18.1091021   47.4136822
  18.1085048   47.4159643
  18.1073483   47.4178575
  18.1050688   47.4197416
  18.1067375   47.4208956
  18.1095201   47.4220648
  18.1128732   47.4224701
  18.1145488   47.423246
  18.1156651   47.4236393
  18.1184415   47.4251801
  18.118965    47.4270932
  18.1200549   47.4290046
  18.1165744   47.4358311
  18.1148515   47.4377198
  18.1142476   47.4403799
  18.1147645   47.442671
  18.1158545   47.4445825
  18.1186452   47.4453673
  18.1214451   47.4461521
  18.1231192   47.4465436
  18.1253662   47.4465616
  18.1287078   47.4477286
  18.1309285   47.4492709
  18.1337197   47.4500554
  18.1353874   47.4508309
  18.137615    47.4519888
  18.1432914   47.4486062
  18.1444344   47.4474748
  18.1461539   47.4452014
  18.1484266   47.4437007
  18.1501395   47.4418052
  18.1512885   47.4402958
  18.152969    47.4403088
  18.1574561   47.4407216
  18.158564    47.4411082
  18.1607598   47.4441743
  18.1719098   47.4488271
  18.173046    47.4480734
  18.1741757   47.4477039
  18.1752992   47.4477124
  18.1786918   47.4458354
  18.1798341   47.4446975
  18.1815084   47.4450943
  18.1848788   47.4451196
  18.189893    47.4474377
  18.1904532   47.4478261
  18.190992    47.4489704
  18.1921093   47.449363
  18.194332    47.4508978
  18.194877    47.4516641
  18.1948158   47.4554751
  18.1919866   47.4569726
  18.1936369   47.4588936
  18.1941789   47.460416
  18.194724    47.4611824
  18.1946872   47.4634689
  18.1940993   47.4653672
  18.1951773   47.4676621
  18.1929018   47.4699259
  18.1894558   47.474474
  18.1883132   47.4756059
  18.1888675   47.4763723
  18.1899855   47.4767586
  18.1927974   47.4764015
  18.1955971   47.4768002
  18.1972788   47.4768126
  18.1983968   47.4772051
  18.1995271   47.4768292
  18.2008003   47.4761555
  18.2018276   47.4756118
  18.2023571   47.4753316
  18.2027531   47.4750466
  18.2040569   47.4741975
  18.204753    47.4736713
  18.2065246   47.4727119
  18.2076669   47.4715404
  18.2079329   47.4712676
  18.208044    47.4711836
  18.2101373   47.4700709
  18.2108735   47.4696796
  18.2119307   47.4686287
  18.2131575   47.4674093
  18.2148507   47.4666654
  18.2148567   47.4662812
  18.2154201   47.4659072
  18.2182432   47.464781
  18.219379    47.4640269
  18.223308    47.4640551
  18.2278211   47.4629469
  18.2295141   47.4621966
  18.2334605   47.4610842
  18.2357198   47.4603379
  18.2385421   47.4592174
  18.2413586   47.4584748
  18.2419309   47.4580946
  18.2408707   47.4539039
  18.2404044   47.4535348
  18.2403193   47.4535158
  18.2397645   47.4527496
  18.2420234   47.4520031
  18.2409344   47.4497148
  18.2414916   47.4497187
  18.2414975   47.4493345
  18.2420696   47.4489605
  18.2420754   47.4485763
  18.2426326   47.4485802
  18.2426383   47.4482022
  18.2420811   47.4481983
  18.2420927   47.4474361
  18.2426499   47.44744
  18.2426672   47.4462998
  18.2432335   47.4463037
  18.2432393   47.4459195
  18.242673    47.4459156
  18.2426788   47.4455375
  18.2421274   47.4451495
  18.2426846   47.4451533
  18.2426903   47.4447753
  18.2421389   47.4443934
  18.2415726   47.4443895
  18.2415842   47.4436273
  18.241027    47.4436234
  18.2404757   47.4432353
  18.2410328   47.4432392
  18.2410386   47.4428612
  18.2427366   47.4417265
  18.2433258   47.4402122
  18.2444666   47.4390737
  18.2444781   47.4383115
  18.2456244   47.4368011
  18.2467558   47.4356624
  18.2473278   47.4352883
  18.2478963   47.43453
  18.2484682   47.4341559
  18.2512946   47.4326509
  18.252992    47.4315222
  18.2563786   47.430399
  18.2575131   47.4296445
  18.2580702   47.4296483
  18.2591989   47.429278
  18.2597651   47.4292819
  18.2597708   47.4288977
  18.2608848   47.4289053
  18.2614565   47.4285311
  18.2614621   47.4281531
  18.2620191   47.4281569
  18.264271    47.427788
  18.2665173   47.4278032
  18.2670798   47.427429
  18.2682029   47.4274366
  18.2693372   47.426682
  18.2698887   47.4270637
  18.2704603   47.4266895
  18.2715834   47.4266971
  18.2721515   47.4259386
  18.2727176   47.4259424
  18.2732802   47.425562
  18.2738316   47.4259499
  18.2749657   47.4251952
  18.2749712   47.4248172
  18.2755429   47.4244368
  18.2760999   47.4244406
  18.2772284   47.4240701
  18.2777945   47.4240738
  18.278357    47.4236934
  18.2783681   47.4229311
  18.2789305   47.4225568
  18.2789526   47.4210324
  18.2800755   47.4210399
  18.280081    47.4206619
  18.2806526   47.4202814
  18.280092    47.4198997
  18.2801195   47.4179972
  18.2806911   47.4176168
  18.2807021   47.4168546
  18.2812644   47.4164803
  18.28127     47.4160961
  18.2818414   47.4157218
  18.2818469   47.4153438
  18.2824093   47.4149633
  18.2824147   47.4145853
  18.2835485   47.4138305
  18.2841054   47.4138342
  18.2841109   47.41345
  18.2846823   47.4130757
  18.2852391   47.4130794
  18.2852501   47.4123172
  18.2875066   47.4115698
  18.2880688   47.4111955
  18.2891971   47.4108187
  18.2897684   47.4104444
  18.2903252   47.410448
  18.2903307   47.4100638
  18.2971156   47.406681
  18.2982345   47.4063102
  18.2982398   47.4059322
  18.2999338   47.405559
  18.3005013   47.4048004
  18.3021967   47.403671
  18.3033247   47.4032941
  18.3044473   47.4033013
  18.3053587   47.4025621
  18.3062496   47.4023339
  18.306902    47.4021043
  18.3084377   47.4012416
  18.3087078   47.4008745
  18.308908    47.4007679
  18.3090006   47.4007775
  18.3093042   47.4008604
  18.3095689   47.4008801
  18.3097682   47.4008362
  18.3101727   47.4006401
  18.3105302   47.4003465
  18.3109978   47.4000706
  18.3115204   47.3996422
  18.3116515   47.3990614
  18.3135472   47.4003335
  18.3151337   47.4014671
  18.3171      47.4032208
  18.320951    47.4033329
  18.3216684   47.4036654
  18.323481    47.4045115
  18.3258903   47.4064892
  18.3277037   47.4097087
  18.3287204   47.4118128
  18.3293102   47.4142428
  18.3300138   47.4152772
  18.3306279   47.4160116
  18.3315498   47.4152102
  18.3360161   47.4132505
  18.3372503   47.4117758
  18.3382922   47.4111035
  18.3399741   47.4102445
  18.3426868   47.4102002
  18.3447523   47.4110558
  18.3475214   47.4126407
  18.3616496   47.4152843
  18.3768435   47.4180698
  18.3773852   47.4182023
  18.373198    47.4194212
  18.3710049   47.421103
  18.3704333   47.421915
  18.3681906   47.4247225
  18.3660504   47.4265025
  18.3621323   47.4270125
  18.3600512   47.428323
  18.3568694   47.4309844
  18.3550007   47.4330663
  18.3509458   47.4362984
  18.3502709   47.4380902
  18.3506132   47.4407028
  18.3516778   47.4420545
  18.3524129   47.4425949
  18.355084    47.4439265
  18.3569559   47.4454438
  18.3638203   47.4524115
  18.3638056   47.4535517
  18.3643671   47.4539392
  18.3704803   47.4581585
  18.3727181   47.4589339
  18.3779792   47.4602533
  18.3924308   47.4489834
  18.3968513   47.4517821
  18.3995867   47.4513357
  18.4011044   47.4524009
  18.4003929   47.4541463
  18.4017742   47.4547159
  18.4069711   47.4583669
  18.4080765   47.4598976
  18.408611    47.4618031
  18.4113886   47.4648675
  18.4130608   47.465639
  18.4175023   47.4694685
  18.4197458   47.469865
  18.4203033   47.4706303
  18.4202808   47.4725327
  18.4219534   47.4733041
  18.4226969   47.4740715
  18.4230641   47.4744504
  18.4230551   47.4752126
  18.4224705   47.4767339
  18.4230238   47.4778772
  18.4246698   47.480929
  18.4257806   47.4820815
  18.4257672   47.4832217
  18.4279847   47.4858985
  18.4296711   47.4855295
  18.4307911   47.4859135
  18.4324642   47.4866847
  18.4347042   47.4874589
  18.4369573   47.4870928
  18.4397027   47.4924369
  18.4414023   47.4909213
  18.4442349   47.4886494
  18.4459391   47.487518
  18.4476254   47.4871487
  18.4487584   47.4863923
  18.4493246   47.485633
  18.4504533   47.4852546
  18.4515819   47.4848824
  18.4532511   47.4860313
  18.454938    47.4864242
  18.4554956   47.4864271
  18.4560666   47.4860458
  18.4572037   47.4849113
  18.4577656   47.4845299
  18.4583274   47.4841548
  18.4589026   47.4833955
  18.4594686   47.4826361
  18.4606098   47.4811174
  18.4611975   47.4792178
  18.4617677   47.4780804
  18.4629003   47.4773239
  18.4640245   47.4773296
  18.4657145   47.4765758
  18.4662812   47.4765787
  18.4679754   47.4754469
  18.4679837   47.4746847
  18.4696736   47.4739309
  18.4708101   47.4727963
  18.4736282   47.4716639
  18.4741989   47.4712887
  18.4747646   47.4705292
  18.4753312   47.470532
  18.4747399   47.4728159
  18.4752983   47.4735809
  18.4752942   47.4739589
  18.4752901   47.4743431
  18.4758435   47.4747239
  18.4769594   47.4754917
  18.4786289   47.4766402
  18.4791955   47.476643
  18.4803238   47.4762705
  18.4814388   47.476276
  18.4814348   47.476654
  18.4814104   47.4789407
  18.4814022   47.4797029
  18.4808406   47.4800782
  18.4797082   47.4808349
  18.4797042   47.4812129
  18.4808285   47.4812184
  18.481386    47.4812211
  18.4813819   47.4816054
  18.4813779   47.4819834
  18.4802586   47.4823621
  18.4796879   47.4827373
  18.4802423   47.4838865
  18.4807959   47.4842673
  18.4824778   47.4842755
  18.4824738   47.4846535
  18.4830405   47.4846563
  18.4830324   47.4854185
  18.4824494   47.4869402
  18.4801935   47.4884537
  18.4801894   47.4888317
  18.4801853   47.4892159
  18.480743    47.4892186
  18.4813006   47.4892213
  18.4852518   47.4873381
  18.4858186   47.4873409
  18.4863722   47.4877216
  18.486939    47.4877243
  18.4897254   47.4896404
  18.4897214   47.4900246
  18.4897014   47.491927
  18.4896974   47.4923051
  18.4902511   47.492692
  18.4908139   47.4930727
  18.4924921   47.493465
  18.493055    47.4938457
  18.493047    47.494608
  18.4913476   47.495362
  18.4913437   47.4957401
  18.4919105   47.4957428
  18.4930311   47.4961324
  18.4935968   47.4953729
  18.495287    47.4946187
  18.4981109   47.4938699
  18.5003509   47.4938806
  18.5020305   47.4950288
  18.5031551   47.4950341
  18.5031511   47.4954183
  18.5037011   47.4961832
  18.5042549   47.4965638
  18.5042471   47.497326
  18.5048101   47.4977067
  18.5064886   47.4980988
  18.5087533   47.4965849
  18.5104472   47.4954525
  18.5121502   47.4943139
  18.5121579   47.4935579
  18.5127156   47.4935605
  18.5132771   47.4931788
  18.5144055   47.492806
  18.5161007   47.4924296
  18.5186977   47.4920909
  18.5195239   47.4909238
  18.5200508   47.4905452
  18.5206161   47.4897855
  18.5217518   47.4886504
  18.5245809   47.4863765
  18.5261975   47.4855799
  18.527501    47.4849586
  18.5279635   47.4848148
  18.5303505   47.4841123
  18.5358488   47.4829999
  18.5369731   47.4830049
  18.539229    47.4822526
  18.5403533   47.4822575
  18.5414685   47.4822624
  18.5442838   47.4822747
  18.5431523   47.4830321
  18.5397538   47.485682
  18.5340894   47.4909927
  18.5306789   47.4947826
  18.5306158   47.5012521
  18.5289333   47.5012446
  18.5261149   47.5023784
  18.5227369   47.5027411
  18.5204799   47.5034931
  18.5175679   47.5057204
  18.5165173   47.5065239
  18.5148232   47.5076564
  18.5125466   47.5103107
  18.5102814   47.5118247
  18.5085908   47.512579
  18.508016    47.5133386
  18.5068847   47.5148516
  18.5057519   47.5156086
  18.5034941   47.5163602
  18.5023651   47.5167329
  18.5023612   47.5171171
  18.5017954   47.5178767
  18.5006586   47.5190116
  18.5000836   47.5197711
  18.4995177   47.5205307
  18.4983729   47.5224278
  18.4978031   47.5235653
  18.4977952   47.5243275
  18.4972201   47.5250871
  18.4971964   47.5273737
  18.4966225   47.5288955
  18.4960592   47.5285085
  18.4960672   47.5277463
  18.4955091   47.5277437
  18.4949379   47.5281252
  18.4938218   47.5281198
  18.493778    47.5323089
  18.4943361   47.5323115
  18.4943282   47.5330676
  18.4926088   47.5364863
  18.493167    47.536489
  18.4937422   47.5357357
  18.49598     47.5361244
  18.4965433   47.5365052
  18.495972    47.5368867
  18.4954139   47.536884
  18.4954099   47.537262
  18.4948307   47.5384057
  18.4942686   47.538781
  18.4937024   47.5395406
  18.4925689   47.5402974
  18.492565    47.5406754
  18.4919936   47.5410569
  18.492557    47.5414376
  18.4919856   47.5418191
  18.4903018   47.541811
  18.4891683   47.5425615
  18.4885899   47.5444675
  18.4880065   47.5459829
  18.4874402   47.5467424
  18.4851646   47.5490181
  18.4857108   47.550161
  18.4857027   47.5509232
  18.4862581   47.5520662
  18.4884895   47.5539857
  18.4890398   47.5547506
  18.5217371   47.5560211
  18.5267219   47.5541643
  18.5267182   47.5545423
  18.5272857   47.5545449
  18.5278477   47.5541694
  18.5284152   47.5541719
  18.5295336   47.5549392
  18.5306577   47.554182
  18.5306615   47.5537978
  18.531791    47.5534248
  18.5329242   47.5526676
  18.5334917   47.5526701
  18.5346248   47.5519129
  18.5367263   47.554469
  18.549077    47.569489
  18.5502067   47.5691159
  18.551895    47.5687389
  18.5530282   47.5679877
  18.5569721   47.5672423
  18.5580982   47.5672471
  18.5597828   47.5672542
  18.5609089   47.5672589
  18.5625992   47.567644
  18.5637126   47.5680329
  18.565958    47.5687983
  18.5670773   47.5695652
  18.5681931   47.5707163
  18.5687482   47.5710966
  18.5698709   47.5714855
  18.5704318   47.5722438
  18.5715545   47.5726327
  18.5737944   47.5730199
  18.5749139   47.5737867
  18.5765919   47.5745558
  18.5777182   47.5745604
  18.5788444   47.5745649
  18.5805418   47.5741938
  18.5827851   47.5742028
  18.5850377   47.5742118
  18.5867258   47.5738344
  18.588433    47.5723167
  18.5895658   47.5715651
  18.5929451   47.570432
  18.5968886   47.5696852
  18.6008288   47.5693225
  18.6025259   47.5689448
  18.6036552   47.5685711
  18.606538    47.5674695
  18.6076048   47.5670618
  18.6092894   47.5670682
  18.6104155   47.5670724
  18.610974    47.5670745
  18.612674    47.5663187
  18.6149263   47.5651869
  18.6171815   47.5648173
  18.6182984   47.5659617
  18.6194214   47.5663439
  18.6205444   47.5667322
  18.6210998   47.5671123
  18.6222198   47.5678787
  18.6222137   47.5686409
  18.621646    47.569779
  18.6222015   47.5701653
  18.6227478   47.5716918
  18.6250002   47.5717
  18.6283849   47.5709501
  18.6300726   47.570572
  18.6306373   47.5709582
  18.632322    47.5709643
  18.6340037   47.5713483
  18.6373794   47.5717446
  18.6390612   47.5721285
  18.644116    47.5732865
  18.6452451   47.5729124
  18.6491852   47.5725419
  18.6496971   47.5720301
  18.6522739   47.5715513
  18.6556617   47.5710209
  18.6610261   47.570496
  18.6644256   47.5703953
  18.6655156   47.5706945
  18.6671976   47.5710842
  18.6705735   47.571438
  18.6722582   47.5714788
  18.6739349   47.5726244
  18.6739322   47.5730086
  18.6778628   47.5753018
  18.6795529   47.5745511
  18.6818002   47.5753143
  18.6840436   47.5753213
  18.6851699   47.5753249
  18.6882673   47.5770606
  18.6885359   47.577244
  18.6912593   47.573849
  18.6933409   47.5714848
  18.6947651   47.5699197
  18.6988837   47.5656007
  18.699698    47.5632351
  18.7003701   47.5613126
  18.7002024   47.5607603
  18.6955101   47.5560952
  18.6944379   47.5548966
  18.693991    47.5536818
  18.6921315   47.5486267
  18.6941144   47.5449031
  18.6947587   47.5327779
  18.7107097   47.5158244
  18.7123003   47.5133791
  18.7129474   47.512366
  18.7139339   47.5109481
  18.717127    47.5061487
  18.7181942   47.5046089
  18.7207077   47.5014097
  18.7222103   47.4994762
  18.7244784   47.4965574
  18.7241993   47.49641
  18.7237615   47.4964111
  18.7227083   47.4963459
  18.722435    47.4963756
  18.7234136   47.4958641
  18.7239294   47.4954699
  18.7241635   47.495225
  18.724488    47.4948203
  18.7247221   47.4945481
  18.7249954   47.4943096
  18.7255076   47.4939981
  18.7259782   47.4938286
  18.726633    47.4936616
  18.7269776   47.4935083
  18.727264    47.4933372
  18.7275314   47.4931341
  18.7278095   47.4928546
  18.7280484   47.4924652
  18.72821     47.4921231
  18.7284691   47.491867
  18.7292808   47.4913354
  18.7302647   47.4910262
  18.731099    47.4914631
  18.7320135   47.4918481
  18.7324704   47.491989
  18.7326736   47.4919846
  18.7337075   47.4917545
  18.7346681   47.4911149
  18.7357235   47.490187
  18.7366327   47.4898906
  18.737716    47.4896217
  18.7387178   47.4895342
  18.7395041   47.489429
  18.7406739   47.4893142
  18.7415806   47.4888527
  18.7426058   47.4889969
  18.743507    47.4894852
  18.7468158   47.4911245
  18.7478685   47.4913595
  18.75025     47.4922588
  18.7515427   47.49242
  18.7533787   47.4907333
  18.7535619   47.4905857
  18.7576492   47.4878794
  18.7578509   47.486872
  18.7572902   47.4865637
  18.7573691   47.4858458
  18.7577393   47.4852772
  18.759857    47.4827353
  18.7609373   47.4805692
  18.7608541   47.4802094
  18.7619676   47.4783468
  18.7623793   47.4780615
  18.7628742   47.4778427
  18.7632514   47.477699
  18.7646131   47.477074
  18.7647929   47.4769459
  18.7658182   47.4764307
  18.766862    47.476018
  18.7673391   47.4758292
  18.7675627   47.4757074
  18.7689695   47.4744424
  18.7701193   47.4734047
  18.7713213   47.472373
  18.7722526   47.4717693
  18.7726167   47.4715805
  18.7740703   47.4706423
  18.7744098   47.4703827
  18.7759595   47.4691647
  18.7764101   47.4688081
  18.7776146   47.467855
  18.7782209   47.4674488
  18.7789071   47.4669905
  18.7796621   47.4664855
  18.7801276   47.4661595
  18.780374    47.46565
  18.7805867   47.4651373
  18.7807894   47.4646428
  18.7810001   47.4641227
  18.7813955   47.4631496
  18.7816508   47.4625205
  18.7831085   47.4603906
  18.7837337   47.4594641
  18.7843557   47.4585382
  18.7848217   47.4579365
  18.7853016   47.4573181
  18.7855833   47.45686
  18.7856709   47.4564954
  18.7858598   47.4547153
  18.7859421   47.4542533
  18.7860029   47.4539257
  18.7860684   47.4536254
  18.7861452   47.4532602
  18.7863652   47.4522476
  18.7864444   47.4519155
  18.7865115   47.451638
  18.7865539   47.4514823
  18.7866531   47.4511593
  18.7867745   47.4508354
  18.7867609   47.4499272
  18.7864732   47.4493219
  18.7862971   47.4483734
  18.7860203   47.4458721
  18.7860738   47.444179
  18.7865134   47.4429841
  18.7870594   47.4414999
  18.7873467   47.4407186
  18.7875671   47.4401059
  18.7877156   47.4396946
  18.7879172   47.439134
  18.7879408   47.4390698
  18.7879669   47.4390073
  18.7880329   47.4388481
  18.7883976   47.437973
  18.7899863   47.4361812
  18.7903636   47.435738
  18.7907046   47.4353349
  18.7870725   47.4323349
  18.7876389   47.4305089
  18.7877728   47.4301859
  18.7885326   47.4283538
  18.7887346   47.427768
  18.7888032   47.4275688
  18.7888932   47.427329
  18.7895284   47.4256639
  18.7762691   47.4183893
  18.7715052   47.4175426
  18.7709675   47.4171726
  18.7681309   47.4156273
  18.7659198   47.4140975
  18.7636936   47.4129536
  18.7625747   47.4118195
  18.7603494   47.40875
  18.7597967   47.4076469
  18.7597715   47.4072281
  18.7592226   47.4064766
  18.757147    47.4033223
  18.7622078   47.3999615
  18.7651201   47.3971252
  18.7674416   47.3955708
  18.7701077   47.3939973
  18.776162    47.3903356
  18.7773449   47.3895166
  18.7799217   47.3873567
  18.7820743   47.3837714
  18.783331    47.3820811
  18.7842838   47.3805056
  18.7855481   47.3792721
  18.7866382   47.3778353
  18.7877945   47.3758801
  18.7879611   47.3756911
  18.7897703   47.3736606
  18.7903905   47.3725796
  18.7906103   47.3721342
  18.7908071   47.3718644
  18.7914259   47.3712857
  18.7919035   47.3709452
  18.7928172   47.371404
  18.7944895   47.3701524
  18.7964014   47.3689344
  18.7991034   47.3673009
  18.8004171   47.3664612
  18.8010126   47.3657754
  18.8036026   47.3641399
  18.8045681   47.3632348
  18.8052291   47.3618909
  18.8062575   47.3609897
  18.8071992   47.3599891
  18.8075728   47.3594234
  18.8079312   47.3588679
  18.8072153   47.3583749
  18.8088733   47.3561926
  18.8098049   47.3553324
  18.81149     47.3537338
  18.8199762   47.3470317
  18.8253827   47.342938
  18.8262852   47.3423772
  18.8318669   47.3389171
  18.8338707   47.3399807
  18.8339844   47.3399125
  18.8341564   47.3398379
  18.8417909   47.33589
  18.844686    47.3340942
  18.8479322   47.3320802
  18.8541217   47.3271108
  18.8588662   47.3233657
  18.8636607   47.3191365
  18.8664687   47.3153697
  18.867622    47.3145272
  18.8642267   47.3115539
  18.8612669   47.3063062
  18.8583169   47.3054043
  18.8604005   47.3046396
  18.8646632   47.3060417
  18.8680175   47.3054631
  18.8719475   47.3042648
  18.8811361   47.3013987
  18.8783139   47.2962226
  18.8753206   47.2918566
  18.8733336   47.2866565
  18.8755302   47.2839783
  18.8777818   47.2812328
  18.8801467   47.2772862
  18.8807038   47.2784246
  18.8863429   47.2775087
  18.890716    47.2767985
  18.9006163   47.2752659
  18.908046    47.2749362
  18.9190647   47.2744845
  18.920477    47.2648836
  18.9196697   47.2623211
  18.9180016   47.2570259
  18.9127342   47.2466997
  18.9115599   47.2443974
  18.9113594   47.2370896
  18.9101424   47.231247
  18.9066871   47.2261108
  18.9060916   47.2251664
  18.8967082   47.2148378
  18.8867686   47.2047776
  18.881508    47.1961136
  18.8808618   47.1926138
  18.8801364   47.1886853
  18.8799489   47.1874254
  18.8796328   47.1853019
  18.8781924   47.1756231
  18.8737655   47.1647884
  18.8735909   47.1643611
  18.8733066   47.1622259
  18.8732057   47.1580645
  18.8732517   47.1573403
  18.8732423   47.1566077
  18.8730582   47.1555294
  18.8730353   47.1554311
  18.8727029   47.1536573
  18.8722651   47.1522138
  18.8720859   47.1508489
  18.8730272   47.1437093
  18.8796102   47.1322007
  18.8821969   47.1253015
  18.8852862   47.1110506
  18.8862098   47.1084769
  18.8908143   47.0956438
  18.8934113   47.0876647
  18.898058    47.0761015
  18.9007885   47.0731692
  18.9026569   47.0713409
  18.9041633   47.0721071
  18.9048574   47.0716317
  18.9053648   47.0713176
  18.9057844   47.0711084
  18.9065824   47.0705254
  18.907294    47.0700653
  18.9080538   47.0696805
  18.9082254   47.0694711
  18.9086527   47.0691434
  18.9097487   47.0685845
  18.9098027   47.0685223
  18.9106734   47.068024
  18.9111048   47.0678999
  18.9117012   47.0675096
  18.9119341   47.0673142
  18.9125981   47.0668994
  18.9140645   47.0663651
  18.9147963   47.0660272
  18.9150705   47.0658345
  18.9153863   47.0657453
  18.9158235   47.0655793
  18.9162991   47.0653448
  18.9168368   47.0651267
  18.9177549   47.0646525
  18.9191275   47.0640094
  18.9208963   47.0630957
  18.9227848   47.0621648
  18.9233643   47.0618959
  18.92403     47.061495
  18.9247069   47.0611951
  18.9252942   47.0609277
  18.9259643   47.0605733
  18.9263278   47.0604467
  18.9268452   47.0601605
  18.9270399   47.0601251
  18.9281972   47.0594162
  18.9286693   47.0592195
  18.9289291   47.0590788
  18.9291308   47.0588955
  18.9290773   47.0587353
  18.9302825   47.0579905
  18.9312105   47.0573932
  18.9326798   47.0561929
  18.9352882   47.0545592
  18.9360099   47.0542264
  18.9379381   47.0531796
  18.9402941   47.0519434
  18.9405226   47.0517212
  18.9405962   47.0515778
  18.9408406   47.0514656
  18.941021    47.0514574
  18.9417512   47.0510749
  18.9429093   47.0503701
  18.9434629   47.0500036
  18.9440909   47.0495678
  18.9457244   47.0486222
  18.9461966   47.0482737
  18.9469868   47.0486064
  18.9523956   47.0444738
  18.955839    47.0418428
  18.9621872   47.0358291
  18.9631561   47.0349112
  18.9666614   47.0305866
  18.9655184   47.0301374
  18.9657105   47.029863
  18.9664069   47.0279818
  18.9664895   47.0273408
  18.9666613   47.026716
  18.9666724   47.0244061
  18.967005    47.0228313
  18.9670132   47.0223091
  18.9671498   47.0214736
  18.9673976   47.0207217
  18.9674887   47.020025
  18.967279    47.019125
  18.9672532   47.0184947
  18.9669973   47.0178041
  18.9668738   47.0170128
  18.9665262   47.0157501
  18.9660887   47.0149585
  18.9662138   47.014498
  18.9658118   47.0129225
  18.9647428   47.0103642
  18.9631303   47.0084341
  18.96169     47.0068065
  18.9598611   47.0053667
  18.9586282   47.004174
  18.9580108   47.0035796
  18.9547328   47.0010645
  18.9535369   47.0000212
  18.9528138   46.9990286
  18.9506884   46.9961865
  18.9491423   46.993213
  18.9486704   46.9916034
  18.9487422   46.9903318
  18.949483    46.9807644
  18.951356    46.9689635
  18.9531251   46.9664438
  18.9537087   46.9653689
  18.9537226   46.965226
  18.9537858   46.9651154
  18.9546224   46.964422
  18.9553944   46.9636245
  18.9576448   46.9611806
  18.9580906   46.9605311
  18.9588931   46.9595709
  18.9594514   46.9583274
  18.959679    46.9576711
  18.9596952   46.9573859
  18.9598392   46.9567851
  18.9607871   46.9542553
  18.9615689   46.9525334
  18.9616389   46.9520319
  18.962123    46.9507944
  18.9627847   46.9488995
  18.9634478   46.9462838
  18.9639163   46.9445701
  18.9638661   46.9443412
  18.9639215   46.9441454
  18.9639628   46.9434591
  18.9640981   46.9428949
  18.9643593   46.9422909
  18.9646264   46.9414891
  18.9648647   46.9402813
  18.9652508   46.9380456
  18.9655296   46.9367209
  18.9657273   46.9350826
  18.9655777   46.9345381
  18.9654945   46.9338825
  18.9653793   46.9334876
  18.9651802   46.9324949
  18.9650301   46.9314064
  18.964918    46.9309099
  18.9645235   46.9298578
  18.9633227   46.9278895
  18.963047    46.9268272
  18.9624408   46.9250559
  18.9624481   46.924104
  18.9618475   46.9223007
  18.9619511   46.9213476
  18.9611132   46.9188397
  18.9609652   46.9185825
  18.9606603   46.9177912
  18.9600649   46.9137101
  18.9598963   46.9117721
  18.9591381   46.9076044
  18.9582818   46.9059562
  18.9562795   46.902661
  18.9552204   46.9008879
  18.9519547   46.8950584
  18.9478043   46.891337
  18.9463507   46.8898333
  18.9396773   46.8832032
  18.9343061   46.8785134
  18.9317193   46.8757565
  18.9262342   46.8650345
  18.9260645   46.8640669
  18.9250892   46.8571724
  18.9208912   46.8570465
  18.9176495   46.8570804
  18.9173346   46.8594598
  18.9149787   46.8592311
  18.91419     46.8591494
  18.9136402   46.859102
  18.9136541   46.8592136
  18.9059473   46.8583769
  18.9053784   46.858949
  18.9046975   46.859621
  18.9041163   46.8601133
  18.9026057   46.8598716
  18.9035336   46.8579083
  18.9037291   46.8575892
  18.9041359   46.8569053
  18.9024307   46.8562515
  18.901033    46.8566036
  18.889007    46.855006
  18.8881615   46.8562311
  18.8820293   46.855518
  18.8779704   46.8547731
  18.8753847   46.8539699
  18.8725798   46.8530952
  18.8670676   46.851476
  18.8617043   46.8500405
  18.8605953   46.8496769
  18.8639161   46.8466611
  18.8644167   46.8462059
  18.8656761   46.8446548
  18.8661087   46.8438849
  18.8662655   46.8436059
  18.8685166   46.842705
  18.8701277   46.8416322
  18.87286     46.8390546
  18.8729096   46.8390634
  18.8730144   46.8389679
  18.875439    46.838003
  18.8733443   46.8371626
  18.8738712   46.8361829
  18.8728993   46.8353509
  18.871237    46.8363926
  18.8691847   46.8358084
  18.8719223   46.8333917
  18.8701127   46.8328014
  18.8668166   46.8323763
  18.8667385   46.8319688
  18.8666653   46.8315972
  18.8663032   46.8294164
  18.8663267   46.8294106
  18.8651827   46.8251773
  18.864373    46.8244162
  18.8618477   46.8220369
  18.8592064   46.8203236
  18.854781    46.8175721
  18.8522982   46.8159946
  18.8510901   46.8151856
  18.8485456   46.8133953
  18.8482615   46.8131806
  18.8481651   46.8131179
  18.8476904   46.8128383
  18.8443283   46.8104214
  18.8402883   46.8083718
  18.8354184   46.804696
  18.8317683   46.8032289
  18.8275091   46.8003993
  18.8241439   46.798716
  18.8189908   46.7963993
  18.815462    46.7956733
  18.812569    46.7944666
  18.8100766   46.7938944
  18.8084766   46.7930027
  18.8051208   46.7920542
  18.7953231   46.7876529
  18.7948736   46.7874598
  18.7948735   46.7874159
  18.7928255   46.7857131
  18.7927224   46.7855396
  18.7918584   46.7844782
  18.7921246   46.7840066
  18.7925629   46.7829721
  18.7930704   46.7819407
  18.7934965   46.7808305
  18.7940739   46.7789833
  18.7941339   46.7788767
  18.794757    46.7773159
  18.7952898   46.7755206
  18.7958526   46.7735014
  18.7963557   46.7717226
  18.7964736   46.7714159
  18.7966475   46.7711191
  18.7968477   46.7705808
  18.7969148   46.770314
  18.7969949   46.7701263
  18.7972832   46.7697344
  18.7962171   46.7697539
  18.7903462   46.7710222
  18.7892445   46.7710189
  18.7875707   46.7706371
  18.7831405   46.769483
  18.7820463   46.7690906
  18.7765161   46.7687122
  18.7731805   46.7679528
  18.7687582   46.7675431
  18.7676426   46.767533
  18.7637415   46.7671585
  18.7609708   46.7671383
  18.7587764   46.7663791
  18.7565312   46.7663754
  18.7538188   46.7667486
  18.7515431   46.7678771
  18.7504422   46.7682516
  18.7493397   46.7682666
  18.7477011   46.7678822
  18.7455198   46.7674742
  18.7454698   46.7671079
  18.7449157   46.7663336
  18.745492    46.7651999
  18.7449535   46.76448
  18.7438424   46.763274
  18.7432371   46.7621724
  18.7400355   46.7610262
  18.7344397   46.7613453
  18.7315949   46.7613578
  18.7239832   46.7586615
  18.7239268   46.7590863
  18.712842    46.7552244
  18.7156281   46.7518076
  18.7162197   46.7495236
  18.7184565   46.7456871
  18.7212502   46.7445459
  18.7219858   46.7425324
  18.7223643   46.7414962
  18.7223325   46.7407912
  18.7240462   46.7396014
  18.7245922   46.7380977
  18.7251507   46.7369769
  18.726238    46.7358728
  18.7285031   46.7313507
  18.7285144   46.7308774
  18.7296148   46.7286271
  18.7312906   46.7259261
  18.7252338   46.723639
  18.7263859   46.7220983
  18.7274491   46.7213507
  18.7208312   46.7194715
  18.7203041   46.7202177
  18.7164078   46.7206011
  18.7123829   46.7190333
  18.7102748   46.7178928
  18.7070266   46.7164001
  18.7029009   46.7125559
  18.700372    46.7102815
  18.6987612   46.7083356
  18.6959867   46.7067734
  18.6904636   46.7021754
  18.6877579   46.7002827
  18.6838256   46.6979817
  18.6829728   46.6975914
  18.6816551   46.6969884
  18.6738897   46.6941553
  18.6730423   46.6940174
  18.6719295   46.693818
  18.6689801   46.6933793
  18.6661661   46.6933669
  18.6634759   46.6937303
  18.6590049   46.6914368
  18.6584818   46.6918327
  18.6540598   46.6902659
  18.6462911   46.6902843
  18.6457107   46.6898407
  18.6435281   46.6890859
  18.6424639   46.689123
  18.6408043   46.6887147
  18.6369358   46.6875522
  18.6363665   46.6875559
  18.6358081   46.6875539
  18.6346946   46.6883122
  18.6352501   46.6886923
  18.6352471   46.6890765
  18.636352    46.6894586
  18.636349    46.6898429
  18.6346742   46.6909772
  18.6335783   46.6905952
  18.6335754   46.6909732
  18.6333576   46.6909724
  18.633017    46.6909712
  18.6330082   46.6921116
  18.6341102   46.6928779
  18.632453    46.6928719
  18.6296849   46.6920994
  18.6285861   46.6920954
  18.6285831   46.6924796
  18.629679    46.6928618
  18.6296701   46.6940083
  18.6285653   46.6947604
  18.6285624   46.6951447
  18.6279891   46.6970453
  18.6285476   46.6970474
  18.6296494   46.6966734
  18.6302078   46.6966754
  18.6296405   46.6978138
  18.6307366   46.6993425
  18.6307307   46.7001048
  18.631824    46.7020116
  18.6318211   46.7023896
  18.629608    46.7020034
  18.6279476   46.7023754
  18.6273951   46.7027576
  18.6273891   46.70352
  18.6268277   46.703896
  18.6257226   46.7035138
  18.6251731   46.7035118
  18.6251641   46.7046522
  18.6257107   46.7050323
  18.6268158   46.7054206
  18.6279298   46.7046624
  18.629026    46.7061911
  18.6306866   46.7058129
  18.6317799   46.7077197
  18.6317741   46.708482
  18.6309737   46.7082053
  18.6306689   46.7080999
  18.6295578   46.7084739
  18.6284646   46.7077075
  18.6273565   46.7077035
  18.6273238   46.7118931
  18.6258692   46.7132089
  18.6256451   46.7134116
  18.6245458   46.7134075
  18.6234406   46.7130253
  18.6234376   46.7134034
  18.622879    46.7134013
  18.622876    46.7137794
  18.6234316   46.7141657
  18.6234286   46.7145438
  18.6228609   46.7156883
  18.6228549   46.7164506
  18.6222963   46.717589
  18.6228369   46.7187314
  18.6206203   46.7187231
  18.6200585   46.7202457
  18.6200555   46.7206237
  18.6206021   46.7210101
  18.6211608   46.7210122
  18.6222632   46.7217786
  18.6222512   46.7232971
  18.6233566   46.7236855
  18.624465    46.7236896
  18.6266789   46.7229355
  18.6272376   46.7229375
  18.6277814   46.7237019
  18.6283371   46.724082
  18.6288869   46.724084
  18.6294395   46.723708
  18.630548    46.723712
  18.6305421   46.7244744
  18.6294307   46.7248484
  18.6283253   46.7256066
  18.6244501   46.7255923
  18.6238883   46.7259745
  18.6238853   46.7263526
  18.6244411   46.7267327
  18.6238733   46.7278772
  18.6233176   46.7286375
  18.6227588   46.7286354
  18.6216473   46.7290093
  18.6216442   46.7293936
  18.6194331   46.7297634
  18.619427    46.7305257
  18.6194253   46.7308863
  18.6188579   46.7316529
  18.6172179   46.7316586
  18.6177503   46.733553
  18.6171902   46.7339438
  18.6171902   46.7347287
  18.6165958   46.7362073
  18.6160635   46.7366086
  18.6154922   46.737347
  18.6160685   46.7385123
  18.6165715   46.7388873
  18.6171256   46.7385202
  18.6171441   46.7381214
  18.6177259   46.737767
  18.6176797   46.7385075
  18.6187788   46.7389062
  18.6193413   46.7389014
  18.6199138   46.7392747
  18.6182368   46.7400349
  18.6160052   46.7400266
  18.6154817   46.7396341
  18.6155021   46.7392525
  18.6149091   46.7392734
  18.6148976   46.7408131
  18.6143728   46.7415504
  18.6148906   46.7419316
  18.6166084   46.7419379
  18.6170887   46.7411658
  18.6182441   46.7415826
  18.6187788   46.7415645
  18.6187972   46.7419379
  18.6176764   46.742671
  18.6176353   46.7449825
  18.6170517   46.7449948
  18.6154632   46.7453808
  18.6154078   46.7461023
  18.6159527   46.7465073
  18.6159804   46.7468743
  18.6148611   46.7468833
  18.6137522   46.7459693
  18.6137318   46.7463673
  18.6131979   46.746716
  18.6115355   46.747098
  18.610981    46.7471025
  18.6104132   46.7463389
  18.6093411   46.7463262
  18.60875     46.7459364
  18.6082169   46.7459378
  18.608218    46.7451769
  18.6071098   46.7455566
  18.6065387   46.7459493
  18.6054588   46.7463075
  18.6048858   46.7459262
  18.6043391   46.7451719
  18.6032456   46.7455415
  18.6015684   46.7455364
  18.6015729   46.7466789
  18.5999158   46.7466743
  18.5898675   46.7527366
  18.5854546   46.7557635
  18.5842973   46.7557411
  18.5826202   46.7553767
  18.5726902   46.7583787
  18.5692899   46.7652239
  18.5687262   46.766722
  18.56814     46.7667374
  18.5664911   46.7682781
  18.5659303   46.7686372
  18.56364     46.7728368
  18.56311     46.7735684
  18.5625508   46.773939
  18.5614144   46.7758415
  18.5608479   46.7781513
  18.5568954   46.7838124
  18.5558193   46.7839626
  18.5531042   46.7824399
  18.5409289   46.7797186
  18.5366105   46.777914
  18.5325895   46.7762336
  18.5293844   46.7743573
  18.5221511   46.7693414
  18.5182719   46.7677969
  18.5160361   46.7670186
  18.5077511   46.7654634
  18.5039157   46.7639342
  18.5050328   46.7620143
  18.5050508   46.7601361
  18.5067304   46.7582187
  18.5072727   46.7571109
  18.5084065   46.756333
  18.5106605   46.7533167
  18.5129861   46.7457023
  18.5079738   46.7445242
  18.5070317   46.7466813
  18.5064756   46.7471848
  18.5051754   46.7475541
  18.5046293   46.7471734
  18.504637    46.7464111
  18.5051946   46.7456514
  18.5046486   46.7452646
  18.5033303   46.7450104
  18.5029565   46.7452585
  18.5028886   46.7454448
  18.5029769   46.7456408
  18.5032284   46.7456743
  18.5035358   46.7456435
  18.5038935   46.7457908
  18.5040819   46.7460242
  18.5038887   46.7462565
  18.5035281   46.7464058
  18.5033886   46.746877
  18.5030796   46.7472435
  18.50284     46.7472562
  18.5026555   46.747173
  18.5024128   46.7465942
  18.5021894   46.7464112
  18.5017624   46.7463713
  18.5015097   46.7465609
  18.5013362   46.7468325
  18.5013025   46.7471575
  18.5015486   46.7474425
  18.5015801   46.7475589
  18.5015097   46.747682
  18.5012087   46.7478384
  18.5009595   46.7479593
  18.500597    46.7479748
  18.5003313   46.7477857
  18.5002523   46.7475689
  18.50033     46.7472795
  18.5002134   46.7471331
  18.5000387   46.7471331
  18.4996357   46.7473826
  18.4994172   46.7474924
  18.499178    46.7474683
  18.4986307   46.7471564
  18.4982127   46.7467174
  18.4977762   46.7466042
  18.4974509   46.746689
  18.4971628   46.7466847
  18.4968837   46.7463739
  18.4967019   46.74605
  18.4964234   46.7459609
  18.4959034   46.7460755
  18.4954392   46.7461963
  18.4952168   46.7462043
  18.4945897   46.7462268
  18.493968    46.745981
  18.493437    46.7454439
  18.4927167   46.7449195
  18.4920491   46.7448832
  18.4909982   46.7446769
  18.4901284   46.7445772
  18.4894692   46.7448253
  18.4889622   46.7453066
  18.4881229   46.7455188
  18.4874055   46.7453302
  18.4870088   46.7456269
  18.4870108   46.7461625
  18.4865013   46.7464792
  18.486071    46.7467467
  18.4852368   46.7470793
  18.4846829   46.7474546
  18.4844579   46.7482665
  18.484112    46.7485922
  18.483558    46.7489738
  18.483008    46.7489711
  18.4819031   46.7485813
  18.4810298   46.7486619
  18.4802352   46.748573
  18.4786211   46.7483734
  18.4780303   46.7481839
  18.4774753   46.7478031
  18.4774794   46.7474188
  18.4730609   46.7466342
  18.472506    46.7462534
  18.4721557   46.7461614
  18.4717518   46.7459674
  18.4714012   46.7458635
  18.4702964   46.7454798
  18.4692129   46.7439496
  18.4692211   46.7431873
  18.4681123   46.7431817
  18.4670075   46.7427979
  18.4664486   46.7427951
  18.4659028   46.742408
  18.4659069   46.74203
  18.4648064   46.741262
  18.4648105   46.7408839
  18.4649045   46.7407784
  18.4653694   46.7408868
  18.4664691   46.7408924
  18.4668015   46.7407468
  18.4670322   46.740511
  18.4669966   46.7401068
  18.4671732   46.739817
  18.4676316   46.7397314
  18.4681492   46.7397543
  18.4687031   46.7393791
  18.4689534   46.7391228
  18.4692343   46.7389526
  18.4693487   46.7387679
  18.4693678   46.7386705
  18.4692702   46.7386196
  18.4630517   46.7398293
  18.4626054   46.739726
  18.4476113   46.743077
  18.445408    46.7438194
  18.4370582   46.7475907
  18.4342057   46.7487223
  18.4203081   46.7524516
  18.4192576   46.7524663
  18.42306     46.759699
  18.4235615   46.7638899
  18.4241162   46.7646412
  18.4263105   46.7665847
  18.4268375   46.7677257
  18.4268337   46.7680978
  18.4251438   46.7703867
  18.4240136   46.7722684
  18.4223262   46.7760651
  18.4200759   46.7779632
  18.4189351   46.7794771
  18.4183913   46.7798656
  18.4183757   46.7806279
  18.4188967   46.7836681
  18.4199772   46.7871209
  18.4210564   46.788253
  18.4216057   46.7886346
  18.4221477   46.7893906
  18.4209625   46.7917022
  18.4170446   46.7977589
  18.4092557   46.803421
  18.4081243   46.8037933
  18.4076192   46.7992225
  18.4060952   46.7877848
  18.4055994   46.783214
  18.4056085   46.7824517
  18.4035397   46.7698767
  18.3968879   46.7702169
  18.3968603   46.7725038
  18.3962826   46.774019
  18.3962642   46.7755437
  18.3956954   46.7770651
  18.3962272   46.7785929
  18.3962226   46.7789709
  18.3967819   46.7789741
  18.3973275   46.7793615
  18.3973092   46.7808799
  18.3961811   46.7823982
  18.3955938   46.7854443
  18.3922601   46.7858032
  18.391155    46.7854188
  18.3889356   46.785406
  18.3878634   46.7823503
  18.3873177   46.7819691
  18.3856578   46.7819595
  18.3856437   46.7830998
  18.3867346   46.7846309
  18.38673     46.7850089
  18.3822158   46.7910753
  18.3805698   46.7899253
  18.3789101   46.7891532
  18.3750542   46.7872277
  18.3733989   46.7868336
  18.3723035   46.7856867
  18.3717628   46.7849211
  18.3723227   46.7841621
  18.3723274   46.783784
  18.3717819   46.7833965
  18.3706771   46.7830119
  18.3701225   46.7826305
  18.3695818   46.7818649
  18.3695866   46.7814807
  18.370701    46.7811092
  18.3695963   46.7807183
  18.3696059   46.779956
  18.3690556   46.7799528
  18.3673915   46.7795648
  18.3685155   46.778431
  18.3690844   46.7776721
  18.3712993   46.777301
  18.371304    46.7769229
  18.3691036   46.7761474
  18.3668991   46.7749939
  18.366335    46.7753686
  18.3652352   46.7745996
  18.3646801   46.7749806
  18.3613322   46.7764852
  18.3591125   46.7772279
  18.3546401   46.779866
  18.3484974   46.783256
  18.3468225   46.7843923
  18.3384069   46.7870089
  18.3342169   46.7878688
  18.3329009   46.7882317
  18.3305887   46.7885052
  18.3268489   46.788727
  18.3243997   46.7890565
  18.3219082   46.7897629
  18.3200552   46.7905665
  18.318603    46.7914627
  18.3100072   46.7974205
  18.3093431   46.7982686
  18.3092045   46.7987655
  18.309188    46.7995722
  18.3094539   46.801294
  18.3094412   46.8032229
  18.30885     46.8043156
  18.3088349   46.8050861
  18.310599    46.8118435
  18.310291    46.8132471
  18.3099154   46.8139493
  18.3096008   46.8143707
  18.3088856   46.8149945
  18.3083373   46.8153421
  18.3052518   46.8168295
  18.3035231   46.8174234
  18.3031374   46.8168591
  18.301488    46.8157227
  18.3004436   46.8153475
  18.2893504   46.8110571
  18.2827546   46.8083648
  18.2651359   46.7979474
  18.264596    46.7971759
  18.2640634   46.7960351
  18.2635148   46.7956481
  18.2640825   46.7945146
  18.2646441   46.7937716
  18.2640947   46.793374
  18.2608127   46.7907008
  18.2591769   46.7899193
  18.2575316   46.7887522
  18.2563895   46.7883748
  18.2547427   46.7887376
  18.2525032   46.7890947
  18.2514402   46.7871894
  18.2514451   46.7864299
  18.252018    46.7849232
  18.2520187   46.7845373
  18.2487439   46.7841362
  18.2476071   46.7837318
  18.2454338   46.7833349
  18.2420457   46.7829381
  18.2398724   46.7825336
  18.2354779   46.7809878
  18.2321403   46.7802012
  18.2315776   46.7813405
  18.229378    46.7797937
  18.2276867   46.7801827
  18.2266257   46.7805368
  18.2232644   46.7805185
  18.2215614   46.7808909
  18.2182871   46.7804763
  18.2155253   46.7796942
  18.210779    46.778241
  18.2082515   46.7834553
  18.2065677   46.7849677
  18.2048421   46.7891387
  18.2048241   46.7902852
  18.2036845   46.7921796
  18.2036247   46.7959848
  18.2037943   46.7963513
  18.2041571   46.7971355
  18.2041392   46.7982758
  18.2046867   46.7990422
  18.2046689   46.8001825
  18.2040915   46.8013187
  18.2040795   46.802081
  18.203505    46.8036015
  18.2029276   46.8047377
  18.2029215   46.8051219
  18.201213    46.8081526
  18.2011949   46.8092991
  18.2000547   46.8111935
  18.1989265   46.8123255
  18.1983638   46.8130837
  18.1988844   46.8149904
  18.1988603   46.816515
  18.1993718   46.8195683
  18.1993597   46.8203306
  18.1987941   46.8207045
  18.1993417   46.8214709
  18.200374    46.8264309
  18.2014516   46.8279575
  18.2008947   46.8283376
  18.2025381   46.8294903
  18.2036128   46.8317854
  18.2046876   46.8340742
  18.2046696   46.8352208
  18.2051786   46.8378897
  18.2051607   46.8390301
  18.2045799   46.8409286
  18.2039872   46.8435894
  18.2039392   46.8466386
  18.2039213   46.8477789
  18.2033673   46.8473967
  18.2022263   46.8492911
  18.2010733   46.8519477
  18.1993631   46.8549845
  18.1982218   46.8568788
  18.1975501   46.8644914
  18.2062088   46.8673624
  18.2013262   46.8700024
  18.1892871   46.8732947
  18.1978782   46.8785822
  18.2000833   46.879739
  18.2055726   46.8835915
  18.2132863   46.8874539
  18.212723    46.8882121
  18.2121658   46.8885861
  18.2115875   46.8897285
  18.2110064   46.8916271
  18.2098707   46.8931435
  18.2081657   46.8957962
  18.2103567   46.897337
  18.2069821   46.9003555
  18.2058461   46.9018718
  18.2030164   46.9052785
  18.20072     46.9098295
  18.199014    46.912482
  18.1984351   46.9136243
  18.1961802   46.9155104
  18.1961681   46.9162726
  18.1944557   46.9193031
  18.1944495   46.9196874
  18.1933129   46.9211974
  18.1921639   46.9234759
  18.1915818   46.9253744
  18.1910148   46.9257544
  18.1937645   46.9280559
  18.1925495   46.9293937
  18.189338    46.9326942
  18.1864892   46.9350111
  18.1854649   46.9362496
  18.1839819   46.9381437
  18.18204     46.9402636
  18.179298    46.9426602
  18.1775375   46.943731
  18.1742278   46.9462089
  18.1750139   46.9465385
  18.1761405   46.9470902
  18.1780372   46.9483298
  18.1799291   46.9497576
  18.1837368   46.953168
  18.1851724   46.9545692
  18.1865741   46.9561339
  18.1873404   46.956868
  18.1875892   46.9571915
  18.1889438   46.9584212
  18.1899992   46.9591783
  18.1929303   46.9610755
  18.1937471   46.9617546
  18.1934681   46.9618761
  18.1957874   46.9641036
  18.1977403   46.9655809
  18.1985965   46.9661942
  18.200448    46.967388
  18.2017647   46.9686255
  18.2020547   46.9688072
  18.2036519   46.9696197
  18.2039124   46.9698267
  18.204882    46.9713344
  18.2052486   46.9716309
  18.2059605   46.9716706
  18.2061192   46.9724065
  18.2060904   46.9779124
  18.2063291   46.9826574
  18.2089334   46.9883392
  18.2105909   46.9894918
  18.2111195   46.9910204
  18.2110481   46.9955878
  18.2115768   46.9971164
  18.2126552   46.9994114
  18.2159621   47.0017164
  18.2198453   47.0025069
  18.2248546   47.002543
  18.2259629   47.0029353
  18.2281854   47.0033293
  18.2303815   47.0048697
  18.2309315   47.005636
  18.2303699   47.005632
  18.2347459   47.0109935
  18.2352985   47.0109974
  18.2352523   47.0140403
  18.2385956   47.014064
  18.2458176   47.0152615
  18.2474791   47.0156512
  18.2474734   47.0160354
  18.246915    47.0164096
  18.2480147   47.0168016
  18.2491292   47.0168094
  18.250238    47.0171952
  18.2519086   47.0175849
  18.2530084   47.0179768
  18.2535702   47.0179807
  18.2557879   47.0187584
  18.2574496   47.019148
  18.2585641   47.0191557
  18.2618819   47.020319
  18.2613067   47.0218397
  18.2613011   47.022224
  18.2612899   47.0229862
  18.2612843   47.0233643
  18.259027    47.0252515
  18.2584742   47.0252477
  18.2573652   47.024862
  18.2557034   47.0244662
  18.2540382   47.0236923
  18.2534854   47.0236885
  18.2490496   47.0221391
  18.247388    47.0217432
  18.2462791   47.0213574
  18.2390619   47.0197819
  18.2384804   47.0216805
  18.2379103   47.0228231
  18.236205    47.0247138
  18.2350383   47.0281331
  18.2344681   47.0292694
  18.2325247   47.0305258
  18.2303716   47.033294
  18.2281948   47.033395
  18.2204666   47.0423421
  18.2130033   47.0485394
  18.2135417   47.0500618
  18.2129617   47.0512042
  18.212932    47.0531068
  18.212367    47.053865
  18.211216    47.0561375
  18.2106002   47.0595605
  18.2100171   47.0614652
  18.2094461   47.0626015
  18.2094163   47.064504
  18.2082769   47.0660204
  18.2071255   47.0682928
  18.2065152   47.0713377
  18.2059259   47.0736204
  18.2042029   47.0770352
  18.2037312   47.0788297
  18.2036045   47.0793117
  18.2069338   47.0804828
  18.2102303   47.0831721
  18.2146286   47.0873878
  18.2179586   47.0885586
  18.2235059   47.0901233
  18.2279349   47.0924359
  18.2312682   47.092844
  18.2346048   47.0936301
  18.234599    47.0940081
  18.2340074   47.0959067
  18.2328623   47.0978013
  18.2294878   47.1000643
  18.2261158   47.1015649
  18.224976    47.1030814
  18.2238187   47.1057382
  18.222635    47.1106756
  18.223171    47.1118261
  18.2236953   47.1137326
  18.2242346   47.1152612
  18.2236425   47.1171597
  18.2235367   47.1240138
  18.2218014   47.1281911
  18.2183477   47.1353991
  18.2177491   47.1376818
  18.2171715   47.1391961
  18.2165788   47.1411008
  18.2154143   47.1441355
  18.2147949   47.1483208
  18.2135586   47.155929
  18.2135348   47.1574535
  18.2123161   47.1639152
  18.2145393   47.1646938
  18.2178801   47.1654803
  18.2206637   47.1658785
  18.2217753   47.1662708
  18.2177498   47.1738589
  18.2233354   47.1735149
  18.2233295   47.1738991
  18.2266887   47.1735389
  18.2277974   47.1735469
  18.2222664   47.1799849
  18.2209761   47.1814931
  18.2221957   47.1897781
  18.2235015   47.1986483
  18.222951    47.199746
  18.2229292   47.1997908
  18.2217461   47.2039659
  18.2245081   47.2058946
  18.2256207   47.2062807
  18.2256089   47.2070429
  18.2250425   47.2078012
  18.2249838   47.2116062
  18.2244082   47.2123644
  18.2244022   47.2127486
  18.2249544   47.2135087
  18.2249485   47.213893
  18.2238123   47.2150252
  18.2237946   47.2161655
  18.2226524   47.2176819
  18.2209611   47.2188164
  18.2198247   47.2199486
  18.2186823   47.221465
  18.2192371   47.221469
  18.2186704   47.2222272
  18.216979    47.2233554
  18.2165746   47.2246177
  18.2113672   47.2244551
  18.2063491   47.2236561
  18.1963231   47.2227508
  18.1960868   47.2237939
  18.1936086   47.2256172
  18.190665    47.2274414
  18.1869218   47.2301814
  18.1852063   47.23119
  18.1833409   47.2325082
  18.1824932   47.233698
  18.1818616   47.2343089
  18.1806398   47.235502
  18.1792322   47.2365065
  18.178253    47.2373037
  18.1773619   47.2375187
  18.1732011   47.2391689
  18.17136     47.2422112
  18.1708989   47.2432512
  18.1705409   47.2444231
  18.1690654   47.2495578
  18.1704787   47.252418
  18.171165    47.2529104
  18.1710958   47.2532013
  18.1692985   47.2541221
  18.1683872   47.2549952
  18.1674589   47.2562728
  18.1671893   47.2565953
  18.1668112   47.2568283
  18.1635363   47.2583331
  18.1622072   47.2591751
  18.1614654   47.2598456
  18.1606387   47.260924
  18.1572      47.2642264
  18.1520103   47.264374
  18.150394    47.2644567
  18.1450832   47.2643526
  18.1414067   47.2631504
  18.1375252   47.2612108
  18.1370599   47.260851
  18.1370217   47.2601235
  18.1369804   47.2600661
  18.1358804   47.258917
  18.1354359   47.2585284
  18.1351813   47.2583704
  18.1346255   47.2582866
  18.134095    47.2583185
  18.1336764   47.2584622
  18.1330861   47.2588948
  18.130847    47.2588769
  18.1302984   47.2584883
  18.1280791   47.2573301
  18.1274661   47.2570483
  18.123805    47.2554525
  18.1236551   47.2553829
  18.1203114   47.2538403
  18.1192052   47.253069
  18.1164379   47.251522
  18.1158803   47.2511394
  18.112538    47.2507279
  18.1092067   47.2491823
  18.1058512   47.2495329
  18.1056694   47.2497014
  18.103001    47.2521746
  18.0996181   47.2540495
  18.09679     47.255935
  18.0960892   47.2562254
  18.0956416   47.2563704
  18.0934112   47.2570474
  18.0922644   47.2585626
  18.0922371   47.2600808
  18.089909    47.2650135
  18.0853775   47.2684031
  18.0827683   47.270978
  18.0806282   47.2724379
  18.0796413   47.2738156
  18.0794443   47.2747051
  18.0783255   47.2772609
  18.0749696   47.2796973
  18.0723121   47.2793376
  18.0678302   47.278945
  18.0656925   47.2803053
  18.0631751   47.2798866
  18.060054    47.2784385
  18.0563534   47.2786386
  18.0542474   47.2782825
  18.0529553   47.2800587
  18.0538041   47.2812951
  18.0522629   47.2827126
  18.0511494   47.2834536
  18.0505322   47.2839751
  18.0504457   47.2889062
  18.0502747   47.2909554
  18.0502676   47.2913334
  18.0508089   47.2921004
  18.0507803   47.2936249
  18.0490688   47.2955128
  18.0484827   47.2966481
  18.0479199   47.2970275
  18.0478484   47.3008323
  18.0467065   47.3019628
  18.0466922   47.302725
  18.046685    47.3031092
  18.0472263   47.3038763
  18.0472049   47.3050165
  18.0477625   47.3053994
  18.0488472   47.3073178
  18.0521713   47.3088651
  18.0527219   47.3096322
  18.0538353   47.310026
  18.054384    47.3104089
  18.0554974   47.3108027
  18.0577316   47.3112001
  18.0593938   47.3119767
  18.0593868   47.3123547
  18.0599284   47.3131217
  18.061042    47.3135155
  18.0617415   47.3138401
  18.0643759   47.3150625
  18.0643688   47.3154467
  18.0654754   47.3162185
  18.0660172   47.3169855
  18.0659821   47.3188879
  18.0654262   47.3188831
  18.0654122   47.3196454
  18.0648402   47.3200185
  18.063364    47.3200059
  18.0631636   47.3200042
  18.0631706   47.3196262
  18.0626077   47.3199994
  18.0614869   47.3199898
  18.0603661   47.3199802
  18.059794    47.3203596
  18.0592382   47.3203548
  18.0575545   47.3207184
  18.0564407   47.3203307
  18.0558169   47.3205345
  18.0553128   47.3206991
  18.0519504   47.32067
  18.0519574   47.320292
  18.0514016   47.3202872
  18.0502737   47.3206555
  18.048597    47.3206409
  18.0446285   47.3232715
  18.0429353   47.323641
  18.0406595   47.3259019
  18.0400872   47.3262811
  18.0400801   47.3266591
  18.0395169   47.3270385
  18.0395097   47.3274165
  18.0389375   47.3277895
  18.0389086   47.3293139
  18.0377586   47.3308285
  18.0377441   47.3315907
  18.037181    47.3319638
  18.0366014   47.3327211
  18.0360092   47.3346186
END
END
