polygon
1
  17.8708528   47.4579543
  17.8708444   47.4583323
  17.8713848   47.4591001
  17.8719427   47.4594901
  17.8775102   47.4614494
  17.879183    47.4618445
  17.8802983   47.46224
  17.8814221   47.4622514
  17.8847684   47.4634256
  17.8853173   47.4638154
  17.8836279   47.4641764
  17.8802229   47.4656666
  17.8779583   47.466406
  17.8773843   47.4671563
  17.8768269   47.4671507
  17.8762436   47.4679071
  17.8733961   47.469787
  17.8772497   47.4732536
  17.8766671   47.474388
  17.8755094   47.4759009
  17.8749344   47.4762732
  17.8743517   47.4774076
  17.8743432   47.4777918
  17.878273    47.4778317
  17.8832852   47.4797851
  17.8866735   47.4786789
  17.8883715   47.4779188
  17.8895108   47.478303
  17.8866068   47.4817213
  17.8854666   47.4828564
  17.884875    47.4839908
  17.8843007   47.4847474
  17.8842255   47.488174
  17.8864318   47.4897146
  17.8869818   47.4904825
  17.8880895   47.491256
  17.8908709   47.4924305
  17.8981008   47.49593
  17.901424    47.4978658
  17.9019908   47.4978714
  17.9030989   47.4986447
  17.9041897   47.4997959
  17.9076127   47.4975428
  17.9098535   47.4979492
  17.9092458   47.4998459
  17.9086717   47.5006026
  17.9092294   47.5006081
  17.9080812   47.5021214
  17.906932    47.5032504
  17.9113562   47.5063371
  17.9102233   47.5067102
  17.909641    47.5078448
  17.9090658   47.5082234
  17.9073668   47.508969
  17.9050927   47.5100868
  17.9022195   47.5131014
  17.9010698   47.5142366
  17.900512    47.514231
  17.9010533   47.5149987
  17.9004791   47.5157491
  17.8981549   47.5191533
  17.8964471   47.5202829
  17.8952889   47.521796
  17.8958469   47.5218015
  17.8929477   47.525956
  17.8923564   47.5274747
  17.8917727   47.5282312
  17.8889892   47.5270629
  17.8889809   47.5274409
  17.8878391   47.5281917
  17.8878224   47.5289539
  17.8883813   47.5293376
  17.8855219   47.5312177
  17.8860725   47.5319794
  17.8854968   47.5323578
  17.8849472   47.531968
  17.8849305   47.5327302
  17.8854885   47.5327358
  17.8854801   47.53312
  17.8860473   47.5331257
  17.886039    47.5335036
  17.8854634   47.5338821
  17.8849053   47.5338765
  17.8859806   47.536168
  17.8859555   47.5373144
  17.8870643   47.5380816
  17.886497    47.5380759
  17.8864301   47.5411245
  17.885288    47.5418753
  17.8852797   47.5422533
  17.8841466   47.5430042
  17.8841298   47.5437663
  17.8842574   47.5450666
  17.8845542   47.5498629
  17.8851125   47.5498685
  17.8873388   47.5510312
  17.8879227   47.550281
  17.8879394   47.5495189
  17.8884977   47.5495245
  17.8885061   47.5491403
  17.8879728   47.5479946
  17.8879895   47.5472324
  17.8885727   47.5460979
  17.8891226   47.5464815
  17.8908238   47.5461205
  17.8987185   47.5450527
  17.8998522   47.5446859
  17.9038035   47.5439628
  17.9049371   47.543596
  17.9066373   47.5428505
  17.9077792   47.5420995
  17.9094792   47.5413539
  17.9144139   47.5422418
  17.9184413   47.5429665
  17.9229271   47.5437726
  17.9234772   47.544156
  17.9245946   47.5445511
  17.9273798   47.5457185
  17.9301822   47.546508
  17.9346434   47.5480694
  17.9363352   47.5477077
  17.9368946   47.5480911
  17.9368786   47.5488533
  17.9362793   47.5503721
  17.9334457   47.5514852
  17.9311541   47.5533719
  17.9305878   47.5537445
  17.9291438   47.5556368
  17.9288555   47.5560146
  17.9261333   47.5514144
  17.9238749   47.5521548
  17.9227411   47.552528
  17.9204816   47.552884
  17.9193477   47.5532572
  17.9182058   47.5540083
  17.915931    47.5555045
  17.9136631   47.5562445
  17.9119616   47.5566121
  17.9102613   47.5573515
  17.9096947   47.5577301
  17.9074185   47.558848
  17.9051504   47.5595879
  17.9079031   47.5622801
  17.9084542   47.5630478
  17.910657    47.5653564
  17.9144874   47.5703397
  17.9161149   47.5730268
  17.9172167   47.5741779
  17.9188526   47.5764808
  17.9199465   47.5780099
  17.920273    47.5783143
  17.9215988   47.5795506
  17.9232604   47.5810914
  17.9226765   47.581848
  17.9209835   47.5822095
  17.9124752   47.5851755
  17.9141368   47.5867102
  17.9153932   47.5870446
  17.918609    47.5879005
  17.9193119   47.5888871
  17.9197029   47.5894358
  17.9224579   47.5921275
  17.9232015   47.5938335
  17.9245509   47.5969296
  17.9272891   47.6032122
  17.9276101   47.6042587
  17.9280648   47.605741
  17.928862    47.6083401
  17.9293978   47.610087
  17.93208     47.6144869
  17.9326662   47.6154484
  17.9337681   47.6162213
  17.932066    47.6169672
  17.9286696   47.6180809
  17.9264074   47.618437
  17.9224429   47.6195389
  17.9196296   47.6195115
  17.9184862   47.6202626
  17.9156474   47.6209971
  17.9128259   47.6213537
  17.9099963   47.622082
  17.9088691   47.6220709
  17.9088527   47.6228331
  17.9082854   47.6232117
  17.90715     47.6235786
  17.9065654   47.6243351
  17.9060064   47.6243296
  17.9031764   47.6250639
  17.9009053   47.6258037
  17.9003546   47.625414
  17.8986508   47.6257813
  17.8980918   47.6257758
  17.8952616   47.6265099
  17.895141    47.6268849
  17.8946519   47.6284064
  17.8940703   47.6290411
  17.892924    47.6302918
  17.8923519   47.6310494
  17.8900267   47.6340743
  17.8894418   47.6348246
  17.8876968   47.637472
  17.8876884   47.6378561
  17.8882392   47.6382397
  17.893192    47.6436252
  17.8931755   47.6443812
  17.8936565   47.6459271
  17.8945962   47.6489466
  17.8948919   47.6498969
  17.8968607   47.656224
  17.8968359   47.657364
  17.8979223   47.6592836
  17.8984495   47.6611915
  17.8989757   47.6627212
  17.8989096   47.6657635
  17.8999549   47.6695853
  17.9010418   47.6714986
  17.9010253   47.6722607
  17.8992796   47.6749083
  17.8969483   47.6783123
  17.8958033   47.6790632
  17.89465     47.680192
  17.8923598   47.6816938
  17.8912147   47.6824446
  17.8900788   47.6831893
  17.8900621   47.6839515
  17.8906134   47.6843412
  17.8911563   47.6851089
  17.8933802   47.6866494
  17.8939324   47.6874172
  17.8949612   47.6920011
  17.8971431   47.6950657
  17.898247    47.6962169
  17.8999024   47.6977579
  17.9020939   47.7008287
  17.9025804   47.7046386
  17.9019535   47.7072973
  17.9006921   47.7133767
  17.8993642   47.7225046
  17.8993062   47.7251688
  17.8986881   47.7278275
  17.8974923   47.7308585
  17.8947759   47.7393637
  17.8965129   47.7392991
  17.8982518   47.7393366
  17.8999793   47.7394759
  17.9016822   47.7397159
  17.903348    47.7400548
  17.9049636   47.74049
  17.9115074   47.7429325
  17.9130529   47.7433661
  17.9146469   47.743711
  17.916278    47.7439648
  17.9179347   47.7441257
  17.9367741   47.7438398
  17.9387156   47.7438347
  17.9406486   47.7439565
  17.9425551   47.744204
  17.9444171   47.7445751
  17.9462169   47.7450662
  17.9479377   47.7456726
  17.9495634   47.7463888
  17.9510784   47.7472077
  17.9524686   47.7481219
  17.9530524   47.7485871
  17.9537209   47.7491227
  17.9565919   47.7512893
  17.958516    47.7524641
  17.9605065   47.7535874
  17.9625605   47.7546575
  17.964675    47.7556728
  17.9660332   47.7561127
  17.9675385   47.7564694
  17.9690896   47.7567221
  17.9706706   47.7568677
  17.9722654   47.756905
  17.9738576   47.7568336
  17.9754309   47.756654
  17.9769694   47.7563684
  17.9784571   47.7559793
  17.979879    47.7554912
  17.9812207   47.7549086
  17.9824682   47.7542377
  17.9932556   47.7487518
  17.9949443   47.7481912
  17.9967083   47.7477481
  17.9985294   47.7474269
  18.0003891   47.7472312
  18.0022686   47.7471625
  18.0041488   47.747222
  18.0060107   47.7474088
  18.0078351   47.747721
  18.0096038   47.7481555
  18.0112985   47.748708
  18.0129022   47.7493727
  18.017241    47.7511387
  18.0199666   47.752248
  18.022605    47.7533219
  18.0245849   47.7541029
  18.0266429   47.7547862
  18.0287681   47.7553684
  18.0309498   47.7558463
  18.0331767   47.7562177
  18.0354373   47.7564803
  18.0377199   47.7566333
  18.040013    47.7566754
  18.0423047   47.7566067
  18.0626532   47.7565631
  18.0846265   47.7565393
  18.0857906   47.7565134
  18.086887    47.756481
  18.0872758   47.7564699
  18.0877335   47.7564564
  18.0896632   47.7562936
  18.0915671   47.7560258
  18.0934324   47.7556551
  18.0952473   47.7551837
  18.0980689   47.754412
  18.1009398   47.7537279
  18.1038539   47.7531328
  18.1068051   47.7526279
  18.1097875   47.7522145
  18.1127947   47.7518931
  18.1208498   47.7511764
  18.1250029   47.7509787
  18.1269951   47.7508322
  18.128973    47.7506144
  18.1309309   47.7503261
  18.1331858   47.7497841
  18.1354811   47.7493258
  18.1378099   47.7489525
  18.140843    47.7485008
  18.144176    47.7479533
  18.1474997   47.7473833
  18.1497653   47.7468176
  18.155807    47.7453091
  18.1599095   47.7443187
  18.1639616   47.7432382
  18.1679592   47.7420688
  18.1703303   47.741554
  18.1727387   47.7411252
  18.1751776   47.7407837
  18.17764     47.7405305
  18.1912739   47.7400102
  18.1942659   47.7398961
  18.1962475   47.7399167
  18.1982238   47.7400166
  18.2001877   47.7401957
  18.2021324   47.7404531
  18.2054432   47.7410825
  18.207375    47.7414558
  18.2093291   47.7417728
  18.209921    47.7418311
  18.2124797   47.7420834
  18.214153    47.7421712
  18.2158315   47.742191
  18.2175085   47.7421425
  18.2181878   47.7421109
  18.219319    47.7420956
  18.2203439   47.7420542
  18.2213647   47.7419802
  18.2224498   47.7419182
  18.2235389   47.7419007
  18.2249166   47.7418714
  18.2262857   47.7417642
  18.2276366   47.7415797
  18.2289644   47.741324
  18.2298302   47.7412073
  18.2305654   47.7411434
  18.2316712   47.7410304
  18.2333156   47.7408354
  18.2349648   47.7406603
  18.2366187   47.7405053
  18.2382762   47.7403703
  18.2399372   47.7402553
  18.2416009   47.7401606
  18.243267    47.740086
  18.2452395   47.739984
  18.2472003   47.7398063
  18.2491427   47.7395533
  18.2501943   47.7394579
  18.2512547   47.7394334
  18.2520509   47.7394669
  18.2530517   47.7394382
  18.2540441   47.7393462
  18.2550191   47.739192
  18.2557777   47.7390419
  18.2565636   47.7389367
  18.2572626   47.7388604
  18.258183    47.7387111
  18.2590801   47.7385072
  18.2601255   47.7383017
  18.2611966   47.7381691
  18.2624023   47.7380232
  18.2636116   47.7378136
  18.2644726   47.737591
  18.2654987   47.7372805
  18.2664705   47.736899
  18.2671566   47.7365691
  18.2684915   47.7359688
  18.269865    47.7354093
  18.271274    47.7348919
  18.274462    47.7336633
  18.2755583   47.7332828
  18.2767124   47.7329902
  18.2774556   47.7328558
  18.2782881   47.732671
  18.2790034   47.7324775
  18.2803227   47.7322007
  18.2816838   47.7320413
  18.2830641   47.732002
  18.284193    47.7319418
  18.2853062   47.7318012
  18.2863909   47.7315818
  18.2876032   47.731354
  18.2888456   47.7312195
  18.2901028   47.7311798
  18.2913584   47.7312354
  18.293618    47.7314485
  18.2938631   47.7314716
  18.2958638   47.7316573
  18.2978535   47.7318906
  18.3001934   47.7321896
  18.3025438   47.7324494
  18.3038245   47.7326333
  18.3050813   47.7328806
  18.3090656   47.7336841
  18.3102022   47.733892
  18.3113562   47.73405
  18.3138605   47.7343082
  18.3155861   47.7345494
  18.3173005   47.7348255
  18.3186151   47.7350542
  18.3199563   47.7351966
  18.3213116   47.7352516
  18.3224215   47.7353241
  18.3235185   47.7354595
  18.3245945   47.7356568
  18.3255563   47.7358835
  18.3264816   47.7361711
  18.3278257   47.7365911
  18.329243    47.7368815
  18.3307065   47.7370366
  18.3324413   47.737164
  18.3341598   47.7373688
  18.3354852   47.7375888
  18.3358544   47.7376501
  18.3391505   47.7382797
  18.3397309   47.7383968
  18.3402051   47.7384925
  18.3412343   47.7387563
  18.3419975   47.7389691
  18.3430403   47.7392065
  18.3441053   47.7393945
  18.3451869   47.7395322
  18.3464471   47.7397365
  18.3476721   47.7400224
  18.3484181   47.7401939
  18.3491809   47.7403278
  18.3499366   47.7404253
  18.3512238   47.7406545
  18.3524921   47.740927
  18.3535714   47.7412027
  18.3556609   47.7417387
  18.3577878   47.7422027
  18.3599467   47.7425937
  18.3655158   47.7434894
  18.3710849   47.7443849
  18.3722725   47.7445704
  18.3734323   47.744823
  18.3745564   47.7451409
  18.3756365   47.7455218
  18.3791147   47.7470034
  18.3811785   47.7478029
  18.3832404   47.7486046
  18.3856471   47.7494741
  18.3874531   47.7500388
  18.3892985   47.750542
  18.3911788   47.7509823
  18.3915704   47.7510595
  18.3930894   47.7513588
  18.3950255   47.7516706
  18.3966712   47.7518628
  18.3986791   47.7520231
  18.4006938   47.752139
  18.4027129   47.7522106
  18.4049347   47.7523079
  18.4050809   47.7523213
  18.4069408   47.7524907
  18.4089332   47.7527321
  18.410908    47.7530318
  18.4128617   47.7533894
  18.4157377   47.7539773
  18.417759    47.7544043
  18.4197659   47.754861
  18.4204496   47.7550289
  18.4212244   47.7551756
  18.4220131   47.7552836
  18.4228115   47.7553522
  18.423615    47.755381
  18.4280757   47.7555078
  18.4289168   47.7555765
  18.4299443   47.75578
  18.4309438   47.7560391
  18.4319089   47.7563519
  18.4328333   47.7567164
  18.4360285   47.7583954
  18.4372628   47.7590493
  18.4384374   47.7597514
  18.4398346   47.760664
  18.4410701   47.7613626
  18.4423884   47.7619883
  18.4459618   47.7635415
  18.4470525   47.7639427
  18.4481822   47.7642918
  18.4493452   47.7645871
  18.4505357   47.7648273
  18.4515865   47.7649865
  18.4517481   47.765011
  18.4529767   47.7651375
  18.4542151   47.7652062
  18.4556098   47.7652176
  18.4569988   47.7651315
  18.4583672   47.7649492
  18.4593791   47.7647645
  18.4611427   47.7644541
  18.4629197   47.7641812
  18.4630302   47.7641653
  18.4642314   47.7639919
  18.4650584   47.7638168
  18.4658615   47.763597
  18.4675508   47.7631147
  18.4692407   47.7626326
  18.4709298   47.76215
  18.472447    47.7617023
  18.4739205   47.7611925
  18.4753448   47.7606228
  18.4767143   47.759995
  18.4776668   47.7595208
  18.4783667   47.7591356
  18.4790215   47.758716
  18.4796277   47.7582643
  18.4808292   47.7572628
  18.4817018   47.7566024
  18.4826254   47.7559744
  18.4835976   47.7553806
  18.4846152   47.7548226
  18.4856757   47.754302
  18.4867761   47.7538205
  18.4876391   47.7534703
  18.4885473   47.7531766
  18.4894926   47.7529419
  18.4904663   47.7527684
  18.4914602   47.7526575
  18.492465    47.7526103
  18.493472    47.7526273
  18.4944721   47.7527083
  18.4954712   47.7528632
  18.4970645   47.7531104
  18.4986935   47.7532043
  18.5002652   47.7532826
  18.5018185   47.7534631
  18.5056977   47.7540955
  18.5095771   47.7547276
  18.5123163   47.7551703
  18.5126113   47.755218
  18.5159893   47.7558418
  18.5183236   47.756292
  18.51944     47.7565398
  18.5205463   47.7568075
  18.5216417   47.7570952
  18.5227253   47.7574024
  18.5237963   47.7577291
  18.5257576   47.7584257
  18.5266992   47.7587729
  18.5276128   47.7591526
  18.5284961   47.7595637
  18.5293059   47.7599809
  18.5300665   47.7604383
  18.5307738   47.7609331
  18.5313688   47.7614196
  18.5319826   47.7619249
  18.5327247   47.7624459
  18.5335406   47.7629142
  18.5344221   47.7633248
  18.5353601   47.7636739
  18.5365527   47.7640169
  18.5378012   47.7643151
  18.5390893   47.7645238
  18.5404024   47.7646407
  18.5415618   47.7646465
  18.5429693   47.7646262
  18.5443763   47.764658
  18.5454889   47.7646906
  18.5466025   47.764685
  18.5482417   47.7646673
  18.5493409   47.7646577
  18.5504372   47.7647129
  18.5516651   47.7648391
  18.5528858   47.7649938
  18.5542781   47.7651856
  18.5556761   47.7653571
  18.5570794   47.7655081
  18.5584874   47.7656388
  18.5598989   47.765749
  18.5613138   47.7658386
  18.5623621   47.7658926
  18.5635787   47.7659586
  18.564795    47.7660252
  18.5660113   47.7660926
  18.5671758   47.7661169
  18.5677448   47.7660804
  18.5683103   47.7660234
  18.5688705   47.7659462
  18.5697089   47.7658073
  18.5705495   47.7656744
  18.5719239   47.7654137
  18.5727382   47.7652361
  18.5735526   47.7650588
  18.5743673   47.7648821
  18.575282    47.7647184
  18.5762023   47.7645698
  18.5771278   47.7644366
  18.5816078   47.7637717
  18.5860496   47.7629988
  18.5904471   47.7621189
  18.5958511   47.7609494
  18.6012547   47.7597798
  18.6045502   47.7590662
  18.6066582   47.7586098
  18.6069758   47.7585519
  18.6077694   47.7584071
  18.6088998   47.7582597
  18.6153968   47.7574705
  18.6168563   47.7573469
  18.6183251   47.7572948
  18.6197958   47.7573147
  18.6208965   47.7574047
  18.6236671   47.757739
  18.6260251   47.7580157
  18.6283974   47.7582302
  18.6307803   47.7583825
  18.6320861   47.7584573
  18.6333832   47.7585834
  18.6346671   47.7587608
  18.6387111   47.7592673
  18.6399056   47.7593755
  18.6411085   47.7594243
  18.6423136   47.7594134
  18.6444668   47.7593428
  18.6455517   47.7593444
  18.6466347   47.7593869
  18.6477124   47.7594703
  18.6486118   47.7595877
  18.6500846   47.7597551
  18.6515702   47.7598606
  18.6530623   47.7599039
  18.6540635   47.7599452
  18.6550601   47.7600215
  18.655735    47.7600971
  18.6560496   47.7601324
  18.6587646   47.7604708
  18.6608335   47.7607724
  18.6628817   47.7611332
  18.6649051   47.7615526
  18.6669004   47.7620297
  18.6688636   47.7625637
  18.6708792   47.763249
  18.6751258   47.7648251
  18.679251    47.7665414
  18.6822582   47.7678165
  18.6852654   47.7690916
  18.6859461   47.7694213
  18.6865862   47.7697858
  18.6891562   47.7714875
  18.6898626   47.7718794
  18.6906165   47.7722291
  18.692066    47.7728217
  18.6935157   47.7734142
  18.6947091   47.7738553
  18.6959762   47.7741903
  18.6965205   47.7743066
  18.6979853   47.7746198
  18.6999946   47.7750495
  18.7008582   47.7752781
  18.7016892   47.7755564
  18.7044441   47.7766859
  18.705044    47.7769606
  18.7056149   47.7772619
  18.708341    47.7791473
  18.7095998   47.7800091
  18.7109008   47.7808419
  18.7122424   47.781645
  18.7136231   47.7824174
  18.7151229   47.7833584
  18.7169021   47.7843207
  18.7187603   47.7852125
  18.7206913   47.786031
  18.7215899   47.7864178
  18.7224485   47.7868438
  18.7237592   47.7876732
  18.7249881   47.788558
  18.7261297   47.7894941
  18.7271797   47.7904779
  18.7281331   47.7915053
  18.7285808   47.7921415
  18.7290279   47.7929459
  18.729349    47.7937808
  18.7295813   47.794641
  18.7297902   47.7952547
  18.7300585   47.7960566
  18.7303718   47.7974261
  18.7305014   47.7988247
  18.7304002   47.8011734
  18.7304243   47.8017306
  18.7305124   47.802285
  18.7308082   47.8034354
  18.7310063   47.8041213
  18.7312578   47.8047993
  18.7315565   47.8054276
  18.7318417   47.8059915
  18.7321486   47.8065503
  18.7324771   47.8071035
  18.7328268   47.8076507
  18.7333196   47.8082536
  18.7338546   47.8088397
  18.7344311   47.809408
  18.7350473   47.8099567
  18.7357021   47.8104849
  18.7363941   47.8109913
  18.7380362   47.8121342
  18.7385101   47.8124531
  18.7389951   47.8127646
  18.7395871   47.8131346
  18.740174    47.813415
  18.7407877   47.813668
  18.7414253   47.8138927
  18.7420839   47.8140878
  18.7427606   47.8142529
  18.7451506   47.8146576
  18.7472538   47.8150305
  18.7475339   47.8150802
  18.7531615   47.8160207
  18.7545226   47.8162385
  18.7558639   47.8165066
  18.7571814   47.8168241
  18.7581373   47.8171242
  18.758883    47.817355
  18.7596472   47.817557
  18.760427    47.8177293
  18.7615353   47.8178921
  18.7626812   47.8180599
  18.763819    47.8182512
  18.7649476   47.8184659
  18.766304    47.8187384
  18.7678648   47.8190694
  18.7694172   47.8194175
  18.7700293   47.8195417
  18.7706465   47.819654
  18.7712681   47.8197543
  18.7722842   47.8199254
  18.772996    47.8200291
  18.7737137   47.8201114
  18.7749861   47.8202395
  18.7762574   47.8203719
  18.7775278   47.8205086
  18.7787971   47.8206495
  18.7800655   47.8207947
  18.7813326   47.8209442
  18.7821464   47.8210525
  18.7829546   47.8211778
  18.7837568   47.8213199
  18.784552    47.8214787
  18.7853396   47.8216541
  18.786804    47.8220032
  18.7882978   47.8222901
  18.7898153   47.8225139
  18.7913506   47.8226738
  18.7923085   47.8227397
  18.7932699   47.8227749
  18.7942329   47.8227792
  18.795195    47.8227528
  18.7978035   47.8225936
  18.7987799   47.8225214
  18.7997579   47.8224596
  18.8019303   47.822285
  18.803282    47.8221303
  18.8045996   47.821875
  18.8067042   47.8213183
  18.8078997   47.8210004
  18.8090768   47.8206526
  18.8102336   47.8202755
  18.8113685   47.8198692
  18.8119897   47.8196319
  18.8126324   47.8194224
  18.813294    47.8192415
  18.8140892   47.8190831
  18.8151568   47.8189457
  18.8162345   47.8188497
  18.8173184   47.818795
  18.8184051   47.818782
  18.8206193   47.8188082
  18.8214134   47.8187963
  18.8228331   47.818775
  18.8240846   47.8187243
  18.825337    47.8186827
  18.8264531   47.8186446
  18.8275656   47.818572
  18.828672    47.8184651
  18.8297701   47.8183245
  18.8308212   47.8181931
  18.8318758   47.8180742
  18.8329333   47.8179674
  18.8339934   47.8178733
  18.8353368   47.8177214
  18.8366676   47.8175259
  18.837983    47.8172873
  18.8390953   47.8171078
  18.8402158   47.8169535
  18.8413434   47.8168249
  18.8424734   47.8167209
  18.8434295   47.8166452
  18.8443874   47.8165808
  18.8451413   47.8165151
  18.8458868   47.8164153
  18.8466205   47.8162817
  18.8473391   47.8161148
  18.8480126   47.8159239
  18.8485063   47.8183742
  18.8491063   47.8182474
  18.8508131   47.8144457
  18.8525163   47.8143454
  18.8548089   47.814054
  18.8570341   47.8136939
  18.8621221   47.8133241
  18.8689026   47.8129506
  18.8706055   47.8125752
  18.8728604   47.8121944
  18.8751244   47.8118198
  18.8779494   47.8114398
  18.879082    47.8110634
  18.8819069   47.8106833
  18.8841719   47.8099305
  18.886998    47.8091723
  18.8892617   47.8087912
  18.8909563   47.8080314
  18.8937925   47.806895
  18.896048    47.8061358
  18.8971814   47.8053751
  18.8983137   47.8049986
  18.9005803   47.8034771
  18.9011424   47.8030998
  18.9022756   47.8023391
  18.9028479   47.8015777
  18.9034141   47.799676
  18.9045483   47.7985311
  18.9051133   47.7970137
  18.9055631   47.7964037
  18.9056896   47.7947279
  18.9057018   47.7901611
  18.9057049   47.7890148
  18.9057079   47.7878746
  18.9079837   47.7825484
  18.9102597   47.7734113
  18.9108315   47.7726498
  18.9136609   47.7696106
  18.9147923   47.7692277
  18.9210116   47.7665701
  18.9272184   47.7650585
  18.9244051   47.7616289
  18.9238463   47.7608661
  18.9232775   47.7604814
  18.9229168   47.7600303
  18.922799    47.7594658
  18.9227933   47.7590356
  18.9230511   47.7583243
  18.9230568   47.7578688
  18.9227241   47.7574383
  18.9227277   47.7559139
  18.9238623   47.7540128
  18.9238641   47.7532506
  18.9250021   47.7498251
  18.9238738   47.7490618
  18.9221888   47.7467734
  18.9216228   47.7452547
  18.921314    47.7448892
  18.9193694   47.7425877
  18.9199445   47.7403018
  18.9205066   47.7395402
  18.9210761   47.7395408
  18.9216382   47.7387793
  18.9227698   47.7380183
  18.9233328   47.7368787
  18.923904    47.7361172
  18.9244652   47.7357398
  18.9250347   47.7357404
  18.9261644   47.7357416
  18.9272849   47.7357427
  18.9284155   47.7353597
  18.9289867   47.7345981
  18.9301189   47.7334591
  18.9306792   47.7334596
  18.9312478   47.7338382
  18.9317881   47.7320177
  18.9318122   47.7319364
  18.9335037   47.7311759
  18.9346358   47.7300368
  18.9340796   47.7281339
  18.9352108   47.7273728
  18.9380333   47.7258512
  18.9391635   47.7254742
  18.940854    47.7250916
  18.9419843   47.7247146
  18.9402961   47.7239509
  18.939169    47.7228097
  18.938602    47.7216628
  18.9369156   47.720143
  18.9352326   47.7170927
  18.9346649   47.7163299
  18.9341057   47.7159514
  18.9341065   47.7155672
  18.9335381   47.7151887
  18.9329797   47.7144259
  18.9324113   47.7140412
  18.9318512   47.7140406
  18.9318521   47.7136626
  18.9301628   47.7136609
  18.9290352   47.7128976
  18.927906    47.7128965
  18.9279068   47.7125185
  18.9273376   47.7125179
  18.925651    47.7113697
  18.925091    47.7113692
  18.9211469   47.7098468
  18.9211451   47.710609
  18.9194431   47.7121253
  18.9188821   47.7125088
  18.9160617   47.7132679
  18.9143604   47.7144061
  18.9121091   47.7151657
  18.9109778   47.7159266
  18.9092763   47.7170647
  18.9074602   47.7175532
  18.9064555   47.7178235
  18.9064545   47.7182015
  18.904763    47.7189617
  18.9036336   47.7189603
  18.9025022   47.719721
  18.9013717   47.7201038
  18.9008127   47.7197189
  18.8996833   47.7197175
  18.8991221   47.720101
  18.8979927   47.7200995
  18.8962951   47.7197131
  18.8934729   47.7208496
  18.8917845   47.7204694
  18.8906551   47.7204679
  18.8900847   47.7208451
  18.8895246   47.7208443
  18.8882945   47.7205601
  18.8878362   47.720464
  18.8867068   47.7204625
  18.8855809   47.7193207
  18.8844538   47.718557
  18.8844562   47.7177948
  18.8838973   47.7174098
  18.8827727   47.71589
  18.8810741   47.7158876
  18.8799516   47.7166482
  18.8793848   47.7158852
  18.8760085   47.7151181
  18.8748792   47.7151164
  18.8731782   47.715876
  18.8714863   47.7166357
  18.868665    47.7173874
  18.8675408   47.7158675
  18.8664128   47.7154815
  18.8652822   47.7158639
  18.8619035   47.7158586
  18.8596476   47.7150928
  18.859536    47.7150673
  18.8579504   47.7147058
  18.8568344   47.7135638
  18.8545718   47.7147003
  18.8534453   47.7139362
  18.8523202   47.7127941
  18.8517644   47.711653
  18.8523286   47.7105138
  18.8529048   47.7086062
  18.8551581   47.7074697
  18.8551609   47.7067076
  18.8546051   47.7055665
  18.8534816   47.7040402
  18.8534858   47.7029
  18.85293     47.7017527
  18.8523623   47.7013738
  18.8518053   47.7006106
  18.852368    47.6998494
  18.8518109   47.6990863
  18.8540652   47.6975719
  18.8557659   47.6968125
  18.8540735   47.6952853
  18.8467598   47.6926083
  18.8484541   47.6910868
  18.8507173   47.6895663
  18.8535444   47.6869065
  18.8541083   47.6857672
  18.8541139   47.6842428
  18.8546911   47.6819572
  18.8575148   47.6800595
  18.8597786   47.6781608
  18.859788    47.6754962
  18.8609232   47.6735956
  18.8620556   47.6724511
  18.8631854   47.6694103
  18.8637568   47.668649
  18.86377     47.6648442
  18.8637871   47.659893
  18.8632251   47.6579897
  18.8621115   47.6564635
  18.8643624   47.6553269
  18.8649336   47.6545656
  18.8654811   47.6532544
  18.8655009   47.6522799
  18.8649454   47.6511388
  18.858741    47.6526533
  18.8570736   47.6532087
  18.8569027   47.6532656
  18.8564824   47.6534056
  18.8547936   47.653787
  18.8531048   47.6541622
  18.8497209   47.6541565
  18.8452017   47.6560511
  18.8435113   47.6568103
  18.8401331   47.6552861
  18.8356333   47.6545158
  18.8294371   47.6537421
  18.8283075   47.654118
  18.8249279   47.655258
  18.8221001   47.6560085
  18.821539    47.6563916
  18.8209704   47.6563905
  18.8204094   47.6567674
  18.8192813   47.6567652
  18.8159047   47.6571427
  18.811952    47.6571348
  18.8074334   47.6605523
  18.8040386   47.6628256
  18.8029086   47.6632075
  18.8017843   47.6643453
  18.7995244   47.6651027
  18.7938705   47.6677551
  18.7910507   47.6685111
  18.7803323   47.6711515
  18.7797635   47.6711502
  18.7814817   47.6669651
  18.780363    47.6650601
  18.7792425   47.6635331
  18.7786946   47.6612515
  18.7786966   47.6608673
  18.7769998   47.6608633
  18.7758717   47.6608607
  18.7741841   47.6608567
  18.7719298   47.6604734
  18.7696827   47.660468
  18.7662984   47.6604598
  18.7651743   47.6596949
  18.7601066   47.6589203
  18.7584149   47.6596783
  18.7561566   47.6600506
  18.7550285   47.6600478
  18.7538962   47.6608071
  18.7527681   47.6608042
  18.7522086   47.6608028
  18.7493907   47.6611798
  18.7482626   47.6611769
  18.7488264   47.6604162
  18.7516485   47.659277
  18.7522213   47.6585224
  18.7533515   47.6581411
  18.7539131   47.6577645
  18.7556161   47.6566224
  18.7567391   47.655863
  18.7623936   47.6532125
  18.7640829   47.6528386
  18.7657723   47.6524647
  18.7669043   47.6517053
  18.7680342   47.6513238
  18.7686028   47.6513252
  18.7697347   47.6505657
  18.7708594   47.6494281
  18.7725598   47.64867
  18.7736896   47.6482947
  18.7742489   47.648296
  18.7748142   47.6471509
  18.774822    47.6456327
  18.7759537   47.6448731
  18.7759557   47.644489
  18.7759596   47.6437268
  18.77653     47.6433501
  18.7770932   47.6425892
  18.7782267   47.6414516
  18.7799137   47.6414555
  18.7821786   47.6395583
  18.7788087   47.6387883
  18.7765553   47.6383989
  18.7726191   47.6372494
  18.7709171   47.6383856
  18.7675534   47.6364751
  18.7653043   47.6353294
  18.7630573   47.6337995
  18.7613767   47.6326551
  18.7602513   47.6322681
  18.7596921   47.6322668
  18.7585667   47.6318859
  18.7585708   47.6311237
  18.7568813   47.6299793
  18.7518229   47.6280579
  18.7478901   47.6265295
  18.7456532   47.6249993
  18.7439663   47.6234705
  18.7434072   47.623469
  18.7411724   47.6200363
  18.7406222   47.6185104
  18.740631    47.6169922
  18.738949    47.614701
  18.733336    47.6123993
  18.7316545   47.6116325
  18.7277189   47.6108595
  18.7209707   47.6085602
  18.7204118   47.6085586
  18.7204282   47.605894
  18.7198719   47.60399
  18.7193249   47.6020798
  18.7193343   47.6005616
  18.7197814   47.6000251
  18.7204752   47.5982781
  18.7210388   47.5975175
  18.721609    47.5971411
  18.7216114   47.5967569
  18.7210481   47.5959931
  18.7210552   47.5948529
  18.7188133   47.5944685
  18.7176937   47.5933189
  18.7120699   47.5917783
  18.7109457   47.591397
  18.708316    47.5901151
  18.7030931   47.587569
  18.6980458   47.5848892
  18.6974921   47.5841253
  18.6958029   47.5829682
  18.6956537   47.5828661
  18.6946932   47.5822081
  18.6944322   47.5819977
  18.6885359   47.577244
  18.6882673   47.5770606
  18.6851699   47.5753249
  18.6840436   47.5753213
  18.6818002   47.5753143
  18.6795529   47.5745511
  18.6778628   47.5753018
  18.6739322   47.5730086
  18.6739349   47.5726244
  18.6722582   47.5714788
  18.6705735   47.571438
  18.6671976   47.5710842
  18.6655156   47.5706945
  18.6644256   47.5703953
  18.6610261   47.570496
  18.6556617   47.5710209
  18.6522739   47.5715513
  18.6496971   47.5720301
  18.6491852   47.5725419
  18.6452451   47.5729124
  18.644116    47.5732865
  18.6390612   47.5721285
  18.6373794   47.5717446
  18.6340037   47.5713483
  18.632322    47.5709643
  18.6306373   47.5709582
  18.6300726   47.570572
  18.6283849   47.5709501
  18.6250002   47.5717
  18.6227478   47.5716918
  18.6222015   47.5701653
  18.621646    47.569779
  18.6222137   47.5686409
  18.6222198   47.5678787
  18.6210998   47.5671123
  18.6205444   47.5667322
  18.6194214   47.5663439
  18.6182984   47.5659617
  18.6171815   47.5648173
  18.6149263   47.5651869
  18.612674    47.5663187
  18.610974    47.5670745
  18.6104155   47.5670724
  18.6092894   47.5670682
  18.6076048   47.5670618
  18.606538    47.5674695
  18.6036552   47.5685711
  18.6025259   47.5689448
  18.6008288   47.5693225
  18.5968886   47.5696852
  18.5929451   47.570432
  18.5895658   47.5715651
  18.588433    47.5723167
  18.5867258   47.5738344
  18.5850377   47.5742118
  18.5827851   47.5742028
  18.5805418   47.5741938
  18.5788444   47.5745649
  18.5777182   47.5745604
  18.5765919   47.5745558
  18.5749139   47.5737867
  18.5737944   47.5730199
  18.5715545   47.5726327
  18.5704318   47.5722438
  18.5698709   47.5714855
  18.5687482   47.5710966
  18.5681931   47.5707163
  18.5670773   47.5695652
  18.565958    47.5687983
  18.5637126   47.5680329
  18.5625992   47.567644
  18.5609089   47.5672589
  18.5597828   47.5672542
  18.5580982   47.5672471
  18.5569721   47.5672423
  18.5530282   47.5679877
  18.551895    47.5687389
  18.5502067   47.5691159
  18.549077    47.569489
  18.5367263   47.554469
  18.5346248   47.5519129
  18.5334917   47.5526701
  18.5329242   47.5526676
  18.531791    47.5534248
  18.5306615   47.5537978
  18.5306577   47.554182
  18.5295336   47.5549392
  18.5284152   47.5541719
  18.5278477   47.5541694
  18.5272857   47.5545449
  18.5267182   47.5545423
  18.5267219   47.5541643
  18.5217371   47.5560211
  18.4890398   47.5547506
  18.4884895   47.5539857
  18.4862581   47.5520662
  18.4857027   47.5509232
  18.4857108   47.550161
  18.4851646   47.5490181
  18.4874402   47.5467424
  18.4880065   47.5459829
  18.4885899   47.5444675
  18.4891683   47.5425615
  18.4903018   47.541811
  18.4919856   47.5418191
  18.492557    47.5414376
  18.4919936   47.5410569
  18.492565    47.5406754
  18.4925689   47.5402974
  18.4937024   47.5395406
  18.4942686   47.538781
  18.4948307   47.5384057
  18.4954099   47.537262
  18.4954139   47.536884
  18.495972    47.5368867
  18.4965433   47.5365052
  18.49598     47.5361244
  18.4937422   47.5357357
  18.493167    47.536489
  18.4926088   47.5364863
  18.4943282   47.5330676
  18.4943361   47.5323115
  18.493778    47.5323089
  18.4938218   47.5281198
  18.4949379   47.5281252
  18.4955091   47.5277437
  18.4960672   47.5277463
  18.4960592   47.5285085
  18.4966225   47.5288955
  18.4971964   47.5273737
  18.4972201   47.5250871
  18.4977952   47.5243275
  18.4978031   47.5235653
  18.4983729   47.5224278
  18.4995177   47.5205307
  18.5000836   47.5197711
  18.5006586   47.5190116
  18.5017954   47.5178767
  18.5023612   47.5171171
  18.5023651   47.5167329
  18.5034941   47.5163602
  18.5057519   47.5156086
  18.5068847   47.5148516
  18.508016    47.5133386
  18.5085908   47.512579
  18.5102814   47.5118247
  18.5125466   47.5103107
  18.5148232   47.5076564
  18.5165173   47.5065239
  18.5175679   47.5057204
  18.5204799   47.5034931
  18.5227369   47.5027411
  18.5261149   47.5023784
  18.5289333   47.5012446
  18.5306158   47.5012521
  18.5306789   47.4947826
  18.5340894   47.4909927
  18.5397538   47.485682
  18.5431523   47.4830321
  18.5442838   47.4822747
  18.5414685   47.4822624
  18.5403533   47.4822575
  18.539229    47.4822526
  18.5369731   47.4830049
  18.5358488   47.4829999
  18.5303505   47.4841123
  18.5279635   47.4848148
  18.527501    47.4849586
  18.5261975   47.4855799
  18.5245809   47.4863765
  18.5217518   47.4886504
  18.5206161   47.4897855
  18.5200508   47.4905452
  18.5195239   47.4909238
  18.5186977   47.4920909
  18.5161007   47.4924296
  18.5144055   47.492806
  18.5132771   47.4931788
  18.5127156   47.4935605
  18.5121579   47.4935579
  18.5121502   47.4943139
  18.5104472   47.4954525
  18.5087533   47.4965849
  18.5064886   47.4980988
  18.5048101   47.4977067
  18.5042471   47.497326
  18.5042549   47.4965638
  18.5037011   47.4961832
  18.5031511   47.4954183
  18.5031551   47.4950341
  18.5020305   47.4950288
  18.5003509   47.4938806
  18.4981109   47.4938699
  18.495287    47.4946187
  18.4935968   47.4953729
  18.4930311   47.4961324
  18.4919105   47.4957428
  18.4913437   47.4957401
  18.4913476   47.495362
  18.493047    47.494608
  18.493055    47.4938457
  18.4924921   47.493465
  18.4908139   47.4930727
  18.4902511   47.492692
  18.4896974   47.4923051
  18.4897014   47.491927
  18.4897214   47.4900246
  18.4897254   47.4896404
  18.486939    47.4877243
  18.4863722   47.4877216
  18.4858186   47.4873409
  18.4852518   47.4873381
  18.4813006   47.4892213
  18.480743    47.4892186
  18.4801853   47.4892159
  18.4801894   47.4888317
  18.4801935   47.4884537
  18.4824494   47.4869402
  18.4830324   47.4854185
  18.4830405   47.4846563
  18.4824738   47.4846535
  18.4824778   47.4842755
  18.4807959   47.4842673
  18.4802423   47.4838865
  18.4796879   47.4827373
  18.4802586   47.4823621
  18.4813779   47.4819834
  18.4813819   47.4816054
  18.481386    47.4812211
  18.4808285   47.4812184
  18.4797042   47.4812129
  18.4797082   47.4808349
  18.4808406   47.4800782
  18.4814022   47.4797029
  18.4814104   47.4789407
  18.4814348   47.476654
  18.4814388   47.476276
  18.4803238   47.4762705
  18.4791955   47.476643
  18.4786289   47.4766402
  18.4769594   47.4754917
  18.4758435   47.4747239
  18.4752901   47.4743431
  18.4752942   47.4739589
  18.4752983   47.4735809
  18.4747399   47.4728159
  18.4753312   47.470532
  18.4747646   47.4705292
  18.4741989   47.4712887
  18.4736282   47.4716639
  18.4708101   47.4727963
  18.4696736   47.4739309
  18.4679837   47.4746847
  18.4679754   47.4754469
  18.4662812   47.4765787
  18.4657145   47.4765758
  18.4640245   47.4773296
  18.4629003   47.4773239
  18.4617677   47.4780804
  18.4611975   47.4792178
  18.4606098   47.4811174
  18.4594686   47.4826361
  18.4589026   47.4833955
  18.4583274   47.4841548
  18.4577656   47.4845299
  18.4572037   47.4849113
  18.4560666   47.4860458
  18.4554956   47.4864271
  18.454938    47.4864242
  18.4532511   47.4860313
  18.4515819   47.4848824
  18.4504533   47.4852546
  18.4493246   47.485633
  18.4487584   47.4863923
  18.4476254   47.4871487
  18.4459391   47.487518
  18.4442349   47.4886494
  18.4414023   47.4909213
  18.4397027   47.4924369
  18.4369573   47.4870928
  18.4347042   47.4874589
  18.4324642   47.4866847
  18.4307911   47.4859135
  18.4296711   47.4855295
  18.4279847   47.4858985
  18.4257672   47.4832217
  18.4257806   47.4820815
  18.4246698   47.480929
  18.4230238   47.4778772
  18.4224705   47.4767339
  18.4230551   47.4752126
  18.4230641   47.4744504
  18.4226969   47.4740715
  18.4219534   47.4733041
  18.4202808   47.4725327
  18.4203033   47.4706303
  18.4197458   47.469865
  18.4175023   47.4694685
  18.4130608   47.465639
  18.4113886   47.4648675
  18.408611    47.4618031
  18.4080765   47.4598976
  18.4069711   47.4583669
  18.4017742   47.4547159
  18.4003929   47.4541463
  18.4011044   47.4524009
  18.3995867   47.4513357
  18.3968513   47.4517821
  18.3924308   47.4489834
  18.3779792   47.4602533
  18.3727181   47.4589339
  18.3704803   47.4581585
  18.3643671   47.4539392
  18.3638056   47.4535517
  18.3638203   47.4524115
  18.3569559   47.4454438
  18.355084    47.4439265
  18.3524129   47.4425949
  18.3516778   47.4420545
  18.3506132   47.4407028
  18.3502709   47.4380902
  18.3509458   47.4362984
  18.3550007   47.4330663
  18.3568694   47.4309844
  18.3600512   47.428323
  18.3621323   47.4270125
  18.3660504   47.4265025
  18.3681906   47.4247225
  18.3704333   47.421915
  18.3710049   47.421103
  18.373198    47.4194212
  18.3773852   47.4182023
  18.3768435   47.4180698
  18.3616496   47.4152843
  18.3475214   47.4126407
  18.3447523   47.4110558
  18.3426868   47.4102002
  18.3399741   47.4102445
  18.3382922   47.4111035
  18.3372503   47.4117758
  18.3360161   47.4132505
  18.3315498   47.4152102
  18.3306279   47.4160116
  18.3300138   47.4152772
  18.3293102   47.4142428
  18.3287204   47.4118128
  18.3277037   47.4097087
  18.3258903   47.4064892
  18.323481    47.4045115
  18.3216684   47.4036654
  18.320951    47.4033329
  18.3171      47.4032208
  18.3151337   47.4014671
  18.3135472   47.4003335
  18.3116515   47.3990614
  18.3115204   47.3996422
  18.3109978   47.4000706
  18.3105302   47.4003465
  18.3101727   47.4006401
  18.3097682   47.4008362
  18.3095689   47.4008801
  18.3093042   47.4008604
  18.3090006   47.4007775
  18.308908    47.4007679
  18.3087078   47.4008745
  18.3084377   47.4012416
  18.306902    47.4021043
  18.3062496   47.4023339
  18.3053587   47.4025621
  18.3044473   47.4033013
  18.3033247   47.4032941
  18.3021967   47.403671
  18.3005013   47.4048004
  18.2999338   47.405559
  18.2982398   47.4059322
  18.2982345   47.4063102
  18.2971156   47.406681
  18.2903307   47.4100638
  18.2903252   47.410448
  18.2897684   47.4104444
  18.2891971   47.4108187
  18.2880688   47.4111955
  18.2875066   47.4115698
  18.2852501   47.4123172
  18.2852391   47.4130794
  18.2846823   47.4130757
  18.2841109   47.41345
  18.2841054   47.4138342
  18.2835485   47.4138305
  18.2824147   47.4145853
  18.2824093   47.4149633
  18.2818469   47.4153438
  18.2818414   47.4157218
  18.28127     47.4160961
  18.2812644   47.4164803
  18.2807021   47.4168546
  18.2806911   47.4176168
  18.2801195   47.4179972
  18.280092    47.4198997
  18.2806526   47.4202814
  18.280081    47.4206619
  18.2800755   47.4210399
  18.2789526   47.4210324
  18.2789305   47.4225568
  18.2783681   47.4229311
  18.278357    47.4236934
  18.2777945   47.4240738
  18.2772284   47.4240701
  18.2760999   47.4244406
  18.2755429   47.4244368
  18.2749712   47.4248172
  18.2749657   47.4251952
  18.2738316   47.4259499
  18.2732802   47.425562
  18.2727176   47.4259424
  18.2721515   47.4259386
  18.2715834   47.4266971
  18.2704603   47.4266895
  18.2698887   47.4270637
  18.2693372   47.426682
  18.2682029   47.4274366
  18.2670798   47.427429
  18.2665173   47.4278032
  18.264271    47.427788
  18.2620191   47.4281569
  18.2614621   47.4281531
  18.2614565   47.4285311
  18.2608848   47.4289053
  18.2597708   47.4288977
  18.2597651   47.4292819
  18.2591989   47.429278
  18.2580702   47.4296483
  18.2575131   47.4296445
  18.2563786   47.430399
  18.252992    47.4315222
  18.2512946   47.4326509
  18.2484682   47.4341559
  18.2478963   47.43453
  18.2473278   47.4352883
  18.2467558   47.4356624
  18.2456244   47.4368011
  18.2444781   47.4383115
  18.2444666   47.4390737
  18.2433258   47.4402122
  18.2427366   47.4417265
  18.2410386   47.4428612
  18.2410328   47.4432392
  18.2404757   47.4432353
  18.241027    47.4436234
  18.2415842   47.4436273
  18.2415726   47.4443895
  18.2421389   47.4443934
  18.2426903   47.4447753
  18.2426846   47.4451533
  18.2421274   47.4451495
  18.2426788   47.4455375
  18.242673    47.4459156
  18.2432393   47.4459195
  18.2432335   47.4463037
  18.2426672   47.4462998
  18.2426499   47.44744
  18.2420927   47.4474361
  18.2420811   47.4481983
  18.2426383   47.4482022
  18.2426326   47.4485802
  18.2420754   47.4485763
  18.2420696   47.4489605
  18.2414975   47.4493345
  18.2414916   47.4497187
  18.2409344   47.4497148
  18.2420234   47.4520031
  18.2397645   47.4527496
  18.2403193   47.4535158
  18.2404044   47.4535348
  18.2408707   47.4539039
  18.2419309   47.4580946
  18.2413586   47.4584748
  18.2385421   47.4592174
  18.2357198   47.4603379
  18.2334605   47.4610842
  18.2295141   47.4621966
  18.2278211   47.4629469
  18.223308    47.4640551
  18.219379    47.4640269
  18.2182432   47.464781
  18.2154201   47.4659072
  18.2148567   47.4662812
  18.2148507   47.4666654
  18.2131575   47.4674093
  18.2119307   47.4686287
  18.2108735   47.4696796
  18.2101373   47.4700709
  18.208044    47.4711836
  18.2079329   47.4712676
  18.2076669   47.4715404
  18.2065246   47.4727119
  18.204753    47.4736713
  18.2040569   47.4741975
  18.2027531   47.4750466
  18.2023571   47.4753316
  18.2018276   47.4756118
  18.2008003   47.4761555
  18.1995271   47.4768292
  18.1983968   47.4772051
  18.1972788   47.4768126
  18.1955971   47.4768002
  18.1927974   47.4764015
  18.1899855   47.4767586
  18.1888675   47.4763723
  18.1883132   47.4756059
  18.1894558   47.474474
  18.1929018   47.4699259
  18.1951773   47.4676621
  18.1940993   47.4653672
  18.1946872   47.4634689
  18.194724    47.4611824
  18.1941789   47.460416
  18.1936369   47.4588936
  18.1919866   47.4569726
  18.1948158   47.4554751
  18.194877    47.4516641
  18.194332    47.4508978
  18.1921093   47.449363
  18.190992    47.4489704
  18.1904532   47.4478261
  18.189893    47.4474377
  18.1848788   47.4451196
  18.1815084   47.4450943
  18.1798341   47.4446975
  18.1786918   47.4458354
  18.1752992   47.4477124
  18.1741757   47.4477039
  18.173046    47.4480734
  18.1719098   47.4488271
  18.1607598   47.4441743
  18.158564    47.4411082
  18.1574561   47.4407216
  18.152969    47.4403088
  18.1512885   47.4402958
  18.1501395   47.4418052
  18.1484266   47.4437007
  18.1461539   47.4452014
  18.1444344   47.4474748
  18.1432914   47.4486062
  18.137615    47.4519888
  18.1353874   47.4508309
  18.1337197   47.4500554
  18.1309285   47.4492709
  18.1287078   47.4477286
  18.1253662   47.4465616
  18.1231192   47.4465436
  18.1214451   47.4461521
  18.1186452   47.4453673
  18.1158545   47.4445825
  18.1147645   47.442671
  18.1142476   47.4403799
  18.1148515   47.4377198
  18.1165744   47.4358311
  18.1200549   47.4290046
  18.118965    47.4270932
  18.1184415   47.4251801
  18.1156651   47.4236393
  18.1145488   47.423246
  18.1128732   47.4224701
  18.1095201   47.4220648
  18.1067375   47.4208956
  18.1050688   47.4197416
  18.1073483   47.4178575
  18.1085048   47.4159643
  18.1091021   47.4136822
  18.1108379   47.4110314
  18.1114541   47.4068512
  18.110395    47.4057173
  18.1098227   47.4049308
  18.1098563   47.4030284
  18.1093107   47.4018774
  18.1087674   47.4011169
  18.1060264   47.3976672
  18.1048062   47.3969119
  18.1010343   47.394577
  18.0977011   47.3926469
  18.0971514   47.3922581
  18.0928556   47.3909211
  18.0921359   47.3906961
  18.0899294   47.3883929
  18.0866314   47.3845601
  18.0861163   47.3822688
  18.0861645   47.3796042
  18.0839825   47.3761586
  18.0817593   47.3749996
  18.0800948   47.3742233
  18.0801433   47.3715587
  18.0807435   47.3696549
  18.0796493   47.3681272
  18.0808127   47.36585
  18.0859458   47.360941
  18.0865159   47.3601835
  18.0882212   47.3586793
  18.0860078   47.3575142
  18.0826706   47.3559678
  18.0787566   47.3555507
  18.0742773   47.3551348
  18.0686787   47.3550874
  18.0664427   47.3546841
  18.0603071   47.3531069
  18.0569658   47.3523221
  18.0536228   47.3511467
  18.0503012   47.3488372
  18.0414327   47.3438079
  18.038114    47.3418761
  18.0342232   47.3403173
  18.0354097   47.3369003
  18.0360092   47.3346186
  18.0292989   47.3341813
  18.028156    47.3353116
  18.0264496   47.3368211
  18.0241706   47.3387036
  18.0224696   47.3394508
  18.0219136   47.3394459
  18.020229    47.3398089
  18.0179866   47.3397889
  18.0168653   47.3397788
  18.0157515   47.3393908
  18.0146971   47.3390234
  18.0146376   47.3390027
  18.0135312   47.3382304
  18.0122731   47.3380019
  18.0113055   47.3378261
  18.0101843   47.337816
  18.0090631   47.3378059
  18.0056996   47.3377755
  18.0034588   47.3381395
  18.0029012   47.3377501
  18.0012315   47.3373569
  18.0001179   47.3369625
  17.996792    47.3350294
  17.9945815   47.3338688
  17.9940013   47.3346258
  17.992294    47.3361349
  17.9889078   47.3372441
  17.9877867   47.3372338
  17.986658    47.3376015
  17.9838672   47.3371977
  17.9833112   47.3371925
  17.98049     47.3383068
  17.9754646   47.3374977
  17.9737552   47.3386284
  17.9720626   47.3393687
  17.9692795   47.3385865
  17.9676087   47.3378085
  17.9648646   47.3351176
  17.9632109   47.3339554
  17.9632264   47.3331933
  17.9615415   47.3335616
  17.9626147   47.3354745
  17.9631487   47.3370042
  17.9625603   47.3381391
  17.9631099   47.3389066
  17.9630943   47.3396688
  17.9619499   47.3407984
  17.9613704   47.3419396
  17.9624204   47.3449926
  17.9612771   47.3465065
  17.9612615   47.3472687
  17.961802    47.3480362
  17.9578194   47.3510417
  17.9566589   47.3529334
  17.9549577   47.3540639
  17.9532474   47.3551881
  17.9509899   47.356307
  17.9498526   47.3570585
  17.9487153   47.35781
  17.9453189   47.3593022
  17.9441895   47.3596694
  17.9413741   47.3604047
  17.9396882   47.3607728
  17.9385508   47.361518
  17.9357193   47.3630153
  17.9346055   47.3626265
  17.9329196   47.3629883
  17.9317979   47.3629774
  17.9312325   47.3629719
  17.9295706   47.3621934
  17.9284489   47.3621825
  17.9273352   47.3617936
  17.9273112   47.3629338
  17.9284248   47.3633289
  17.9300867   47.3641074
  17.9306442   47.3644909
  17.9339855   47.3656637
  17.9345418   47.365669
  17.9384474   47.3664691
  17.9403848   47.3665004
  17.9412473   47.366496
  17.9457264   47.3669233
  17.9468403   47.367312
  17.9485027   47.3680902
  17.9507148   47.369636
  17.9512476   47.3707815
  17.9500707   47.3734353
  17.950055    47.3741975
  17.9500235   47.3757219
  17.9494435   47.3768568
  17.9488622   47.3776136
  17.9488386   47.3787537
  17.9493962   47.3791433
  17.9471601   47.3787377
  17.9471364   47.3798841
  17.9454264   47.3813862
  17.9437307   47.3817542
  17.9420521   47.3817381
  17.9403339   47.3836243
  17.9385905   47.3862726
  17.9368959   47.3870186
  17.934063    47.388516
  17.9323923   47.3881155
  17.9301639   47.3873316
  17.9284851   47.3873153
  17.9233994   47.3891747
  17.9217034   47.3895362
  17.9200246   47.3895198
  17.9183458   47.3895033
  17.9166579   47.3894868
  17.9155357   47.3894757
  17.9133166   47.3886916
  17.9122024   47.3883025
  17.9105482   47.3871396
  17.9094585   47.3856103
  17.9089175   47.3844584
  17.9055928   47.382907
  17.9027749   47.383257
  17.8999741   47.3832292
  17.8960183   47.3847144
  17.8920622   47.3861994
  17.8863939   47.3891856
  17.8841328   47.3899251
  17.8838449   47.3900669
  17.8818633   47.3910425
  17.8790454   47.3917763
  17.8762189   47.3928942
  17.8761854   47.3944124
  17.8772993   47.394808
  17.8778225   47.3963318
  17.8772238   47.3982346
  17.8771483   47.4016613
  17.8771399   47.4020393
  17.8771063   47.4035636
  17.8787352   47.4058672
  17.8787018   47.4073853
  17.8798076   47.4081589
  17.8809052   47.4093104
  17.8814368   47.4104624
  17.8814118   47.4116026
  17.8846714   47.4165876
  17.885786    47.4169769
  17.8874323   47.4185182
  17.8879725   47.419286
  17.8885385   47.4192917
  17.8896531   47.4196809
  17.8907594   47.4204544
  17.8907344   47.4216007
  17.8901435   47.4227352
  17.8901103   47.4242596
  17.8939534   47.4281036
  17.8945112   47.4284934
  17.8944699   47.4303957
  17.8938872   47.4311522
  17.8927392   47.4322811
  17.892731    47.4326591
  17.8915663   47.4345564
  17.8909928   47.4353068
  17.8887047   47.4371927
  17.8875565   47.4383216
  17.8897283   47.4417708
  17.8885883   47.4425217
  17.885651    47.4485845
  17.8839036   47.45161
  17.8827549   47.452745
  17.8799673   47.4519545
  17.8782858   47.4515532
  17.8760562   47.4511525
  17.8731586   47.4549285
  17.8714354   47.4568198
  17.8708528   47.4579543
END
END
