polygon
1
  19.6381849   46.2644376
  19.6453957   46.2708764
  19.6531618   46.2780679
  19.6564662   46.280646
  19.6609171   46.2841186
  19.6670162   46.2890374
  19.6891921   46.3060507
  19.6799901   46.318288
  19.6691073   46.3271063
  19.6625574   46.3317102
  19.6561354   46.3469798
  19.6627567   46.3492309
  19.6693787   46.3507131
  19.6787531   46.3533261
  19.6875914   46.3567038
  19.6969767   46.3593153
  19.7041241   46.3596582
  19.7140427   46.3611247
  19.7223099   46.362216
  19.7304963   46.3575987
  19.7337748   46.3556698
  19.7348661   46.354907
  19.7392264   46.352209
  19.7436052   46.3502792
  19.7513413   46.3532807
  19.7563204   46.3555304
  19.7607502   46.3581738
  19.7674065   46.3619371
  19.771281    46.3638152
  19.7745956   46.3653186
  19.7822336   46.3689741
  19.7840125   46.3698255
  19.7867766   46.370954
  19.7939771   46.374328
  19.8067243   46.381098
  19.8194911   46.3890132
  19.8276877   46.3847669
  19.8331639   46.3832042
  19.8408203   46.3801073
  19.8457437   46.3781635
  19.8528581   46.3754478
  19.8572201   46.3731356
  19.8621998   46.3750026
  19.8666336   46.3768733
  19.8749557   46.381765
  19.8810793   46.386288
  19.8851602   46.4011086
  19.8946403   46.4086555
  19.8986666   46.4196704
  19.898195    46.4250044
  19.8922591   46.4322823
  19.8868477   46.4387998
  19.8825347   46.4445403
  19.8903575   46.4517217
  19.8998503   46.4600305
  19.9010496   46.4661143
  19.9010797   46.4680169
  19.8952142   46.4806249
  19.8859671   46.4883114
  19.873377    46.4941189
  19.863545    46.5002831
  19.8482679   46.5110532
  19.837745    46.508462
  19.830577    46.5081337
  19.8184258   46.5070706
  19.809587    46.50599
  19.8063181   46.5090615
  19.794882    46.5194142
  19.7916115   46.5224852
  19.7801594   46.5320803
  19.7985024   46.5414804
  19.8084964   46.546366
  19.8157271   46.5501228
  19.827943    46.5549915
  19.8357188   46.5583653
  19.8396098   46.5602409
  19.8451598   46.5624891
  19.8546      46.5658498
  19.8923422   46.5785226
  19.9114932   46.5677109
  19.9306519   46.5572802
  19.9376621   46.5525369
  19.9437478   46.5484191
  19.9611813   46.5673209
  19.962854    46.5684541
  19.9762977   46.5793838
  19.9798413   46.5816448
  19.980333    46.5819585
  19.9869052   46.5861516
  19.9908168   46.5887844
  19.9947356   46.5918013
  19.9926112   46.5967715
  19.989416    46.6032691
  19.990562    46.6055468
  19.99229     46.6097225
  19.9941387   46.6207462
  19.9941655   46.6222708
  19.9941789   46.6230331
  19.9910292   46.6322019
  19.9893783   46.632978
  19.9860943   46.6345238
  19.9806078   46.6372344
  19.9829534   46.6448327
  19.9853396   46.6547179
  19.9859019   46.6554757
  19.9920794   46.6607549
  19.9931999   46.661508
  19.998285    46.6675584
  20.0039341   46.6743663
  20.0079005   46.6796634
  20.0090897   46.6842215
  20.009117    46.685746
  20.009723    46.6884061
  20.0109035   46.6929643
  20.0109445   46.6952511
  20.0115029   46.6952464
  20.0109582   46.6960134
  20.0093554   46.6990704
  20.0088265   46.7002215
  20.0055639   46.7036768
  20.0017311   46.7059901
  19.9989925   46.7075378
  19.9946208   46.711002
  19.9935193   46.7113893
  19.9885839   46.7140956
  19.9825688   46.7179572
  19.9798332   46.7202607
  19.9754551   46.722968
  19.9694289   46.7268228
  19.9750542   46.7321076
  19.9812593   46.7385339
  19.9941702   46.7483257
  19.9997956   46.7528469
  20.024679    46.7808194
  20.0359058   46.78834
  20.0611969   46.8063963
  20.0611681   46.8048718
  20.0613373   46.8029762
  20.0616466   46.8010617
  20.0627062   46.798387
  20.0637511   46.79495
  20.0642726   46.7934205
  20.0648176   46.7926532
  20.0659057   46.791503
  20.0664416   46.7907358
  20.0669847   46.7903466
  20.0680872   46.7899587
  20.0691898   46.7895707
  20.0708516   46.7891714
  20.0719522   46.7891615
  20.0758481   46.7895106
  20.0775008   46.7891114
  20.0802633   46.7887082
  20.0819087   46.7879309
  20.0829962   46.7867743
  20.0835483   46.7863912
  20.0861927   46.7798959
  20.0867134   46.7783664
  20.0883452   46.7764485
  20.0910772   46.7745144
  20.0916052   46.773369
  20.091583    46.7722287
  20.0904219   46.7695741
  20.089283    46.7680597
  20.089246    46.7661572
  20.0897608   46.7638653
  20.0908403   46.7623306
  20.0997419   46.7641514
  20.1019678   46.7645151
  20.1041996   46.7656349
  20.1064632   46.767901
  20.1070298   46.7682738
  20.1070374   46.768658
  20.1070525   46.7694203
  20.1065083   46.7701878
  20.1065158   46.7705658
  20.1043196   46.7717268
  20.1032328   46.7728836
  20.1022072   46.7766989
  20.1022372   46.7782234
  20.1022672   46.7797479
  20.1028548   46.7816454
  20.1039868   46.7827754
  20.1045596   46.7839106
  20.1056842   46.7846625
  20.1073607   46.7850312
  20.1090282   46.7853937
  20.1106881   46.7853782
  20.1156694   46.7849534
  20.1173141   46.7841756
  20.1189678   46.7833976
  20.1211565   46.7818522
  20.1260748   46.7787622
  20.1282631   46.7772166
  20.1315452   46.7748981
  20.1342681   46.7725911
  20.1754601   46.7546668
  20.1816757   46.7603199
  20.1851069   46.7656163
  20.1868076   46.7671241
  20.1891232   46.7716692
  20.1936329   46.7754359
  20.1925316   46.7758251
  20.1925478   46.7765873
  20.1936898   46.7781007
  20.1982012   46.7814829
  20.1987678   46.7822395
  20.1993425   46.7833743
  20.1999182   46.7841308
  20.2010359   46.7844976
  20.2021374   46.7841083
  20.2032379   46.7840971
  20.2085584   46.7825438
  20.2087447   46.7821381
  20.2120319   46.7801953
  20.2131242   46.779806
  20.2142337   46.7797947
  20.2153432   46.7797833
  20.2159024   46.7797775
  20.2198144   46.7812621
  20.2209406   46.7820129
  20.2226254   46.783136
  20.2232007   46.7842706
  20.2232174   46.7850329
  20.2232256   46.7854109
  20.2232423   46.7861731
  20.2221494   46.7869468
  20.2199558   46.7877319
  20.2183034   46.7885113
  20.2177697   46.7892792
  20.2177946   46.7904195
  20.2183782   46.7919383
  20.2233926   46.7930271
  20.223426    46.7945516
  20.226814    46.7971819
  20.2307275   46.7986661
  20.2357259   46.7989921
  20.2429272   46.7985385
  20.2649593   46.7922117
  20.275262    46.7818175
  20.2780052   46.7806473
  20.2845302   46.7752395
  20.290451    46.767563
  20.3109041   46.7654283
  20.3158731   46.7646168
  20.3203097   46.7645672
  20.3269374   46.7637304
  20.3324376   46.7621434
  20.3352332   46.7632524
  20.3361571   46.763268
  20.3369014   46.7632335
  20.3413565   46.7643296
  20.3453076   46.7673281
  20.3455287   46.7764686
  20.3461615   46.779505
  20.3523886   46.7847645
  20.3623564   46.7842716
  20.3695925   46.7857126
  20.3801667   46.7871079
  20.3890251   46.7866256
  20.4007103   46.7883902
  20.4040302   46.7883506
  20.4046185   46.7894904
  20.4068956   46.7917443
  20.4085749   46.7924867
  20.4108041   46.7928443
  20.4124738   46.7932024
  20.4146933   46.7931758
  20.4169224   46.7935271
  20.4169516   46.7946735
  20.4248282   46.7991469
  20.4243859   46.8037207
  20.4277256   46.8040646
  20.4305057   46.804409
  20.4338553   46.8051306
  20.4355257   46.8054946
  20.438895    46.8069721
  20.4427855   46.8073088
  20.447276    46.8095348
  20.4500865   46.8110251
  20.4534467   46.8121242
  20.4567171   46.8098026
  20.4583475   46.8086356
  20.4605375   46.8074679
  20.4638083   46.8055241
  20.4659779   46.8035941
  20.4681474   46.801664
  20.4714264   46.7997137
  20.477446    46.7969727
  20.4801945   46.7957975
  20.4812749   46.7950214
  20.4851022   46.7926858
  20.4927175   46.7872582
  20.4964628   46.7822576
  20.4996691   46.7780325
  20.5034234   46.7734097
  20.5078605   46.7733528
  20.5217131   46.773174
  20.534467    46.7733923
  20.5377948   46.7733487
  20.5422335   46.7736686
  20.5628079   46.7760618
  20.5688292   46.7733158
  20.5748391   46.7701915
  20.5781125   46.7682444
  20.5803091   46.7674523
  20.5955995   46.7596265
  20.5943807   46.7558307
  20.5902305   46.7463654
  20.5907803   46.7463579
  20.5848317   46.73197
  20.5848099   46.7312078
  20.5817062   46.7194406
  20.5843087   46.7136899
  20.5841891   46.7095071
  20.5845643   46.7034084
  20.5843683   46.6965549
  20.5869239   46.6889016
  20.5895244   46.6831508
  20.5927501   46.6800631
  20.5750179   46.6791563
  20.5762829   46.6650489
  20.5751652   46.6646858
  20.5744557   46.659358
  20.571229    46.6430235
  20.5692937   46.6331496
  20.5764483   46.6319127
  20.574417    46.6189902
  20.5753826   46.6140242
  20.5753718   46.6136462
  20.5757778   46.6083033
  20.5790551   46.5682689
  20.579484    46.5640726
  20.6047569   46.5404936
  20.6082713   46.538688
  20.608563    46.5385381
  20.6129586   46.5377149
  20.6151584   46.5376844
  20.6107057   46.5362272
  20.613252    46.5289515
  20.614915    46.5293128
  20.6149828   46.5290603
  20.6154161   46.5273965
  20.6142898   46.5266496
  20.613709    46.525517
  20.6136869   46.5247548
  20.6136428   46.5232367
  20.613053    46.522098
  20.6135321   46.5194257
  20.6112798   46.5179319
  20.6112382   46.516497
  20.6112137   46.5156515
  20.6106351   46.514897
  20.6094982   46.5137721
  20.6072882   46.5134183
  20.6061622   46.5126713
  20.6058583   46.5115613
  20.6055399   46.5103986
  20.6043679   46.5077429
  20.6045091   46.5073152
  20.6048715   46.5062172
  20.6042581   46.5039382
  20.6019958   46.5020661
  20.6024663   46.4993941
  20.6024444   46.4986319
  20.601286    46.4967447
  20.6017983   46.4952127
  20.6017544   46.4936883
  20.6017324   46.4929261
  20.5999851   46.4899063
  20.5994379   46.4899138
  20.5994269   46.4895297
  20.5988249   46.4876348
  20.5992955   46.4849627
  20.5992517   46.4834383
  20.599766    46.4822907
  20.6003002   46.4815208
  20.6008365   46.4811353
  20.6008035   46.4799889
  20.5996675   46.4788639
  20.5974481   46.4781319
  20.5963122   46.4770068
  20.5946619   46.4770294
  20.5946509   46.4766452
  20.5956686   46.4739657
  20.5956578   46.4735877
  20.5967718   46.4739505
  20.5988139   46.4682132
  20.6015889   46.4689376
  20.6021449   46.4689299
  20.6031491   46.465488
  20.6041772   46.4631864
  20.606218    46.4574427
  20.6039905   46.4567109
  20.6050274   46.4544153
  20.5950901   46.4537894
  20.5823899   46.4528219
  20.5826534   46.4425341
  20.5827816   46.4082516
  20.5811352   46.4086521
  20.5745443   46.4091257
  20.5717942   46.4091629
  20.5712389   46.4091704
  20.560132    46.4055073
  20.5539071   46.3994969
  20.5521868   46.3972386
  20.5487323   46.3915691
  20.557911    46.3853531
  20.5784299   46.3713644
  20.5789759   46.371357
  20.5772857   46.3698549
  20.5761633   46.3691139
  20.5755958   46.3683591
  20.5739075   46.3672351
  20.5716718   46.3657466
  20.5857925   46.3594613
  20.5881024   46.363236
  20.5957014   46.3597039
  20.5957122   46.3600819
  20.6044221   46.3569183
  20.6131528   46.35451
  20.6218607   46.351345
  20.6230167   46.353232
  20.623607    46.3547488
  20.6543537   46.35279
  20.6823538   46.3512471
  20.6841129   46.3546497
  20.6937087   46.3807886
  20.7389433   46.3843105
  20.7414294   46.3758918
  20.7429691   46.3724404
  20.7440343   46.3712838
  20.7488765   46.3677826
  20.753088    46.3616251
  20.7541438   46.3604685
  20.7613543   46.3447369
  20.7628918   46.3412853
  20.7486468   46.2904622
  20.7518641   46.2881323
  20.7583154   46.2834594
  20.7636941   46.2799556
  20.7707611   46.2775602
  20.775654    46.27596
  20.7623525   46.2634065
  20.749047    46.250849
  20.755033    46.22923
  20.7593814   46.2134174
  20.7593921   46.2133783
  20.7594038   46.2133356
  20.7594178   46.2132848
  20.7594245   46.2132603
  20.7594278   46.2132483
  20.7594379   46.2132116
  20.7594587   46.2131358
  20.7618404   46.2044731
  20.7273743   46.2073774
  20.7285771   46.205001
  20.7269663   46.1999249
  20.7265886   46.1993856
  20.7257261   46.1964348
  20.7306165   46.19525
  20.7313809   46.194739
  20.7316796   46.1945197
  20.7323364   46.1941879
  20.732685    46.1938725
  20.7338233   46.1940669
  20.7340636   46.1939222
  20.7340876   46.1937985
  20.7339325   46.1934061
  20.7337104   46.1931
  20.7335673   46.192804
  20.7334163   46.192255
  20.7332006   46.1919874
  20.7327706   46.1915214
  20.73172     46.1907492
  20.7313423   46.1905202
  20.730967    46.190418
  20.7306258   46.1904446
  20.7304943   46.190546
  20.7303337   46.1904661
  20.7302378   46.190283
  20.7299791   46.1899194
  20.7296878   46.1896406
  20.7287288   46.1891336
  20.7282034   46.18919
  20.7278618   46.1889085
  20.7275152   46.1887497
  20.7268263   46.1887174
  20.7266635   46.1886868
  20.7261324   46.1886808
  20.7261016   46.1885474
  20.725717    46.1884438
  20.7250271   46.1879923
  20.7248722   46.1872241
  20.7245433   46.1872002
  20.7238865   46.1872176
  20.7223927   46.1874568
  20.7186107   46.1774413
  20.7157644   46.1695825
  20.7163058   46.1694853
  20.7158087   46.1682143
  20.7153487   46.1681921
  20.7153346   46.1680542
  20.7152361   46.1679871
  20.7151834   46.1679513
  20.7151844   46.1673755
  20.7149982   46.1668539
  20.71435     46.1664126
  20.7139441   46.1659665
  20.7132816   46.1656594
  20.7127899   46.1655144
  20.7116054   46.1654376
  20.7100031   46.165214
  20.7099504   46.1651949
  20.7089216   46.1648226
  20.708677    46.1646546
  20.7086412   46.1645663
  20.7084273   46.164039
  20.7079359   46.1632022
  20.7075594   46.1628618
  20.7059221   46.1621167
  20.7054761   46.1616904
  20.7053678   46.1615328
  20.7053121   46.161356
  20.7050369   46.1612869
  20.7043054   46.1613805
  20.7020266   46.1608985
  20.7005842   46.1605559
  20.6986713   46.1600417
  20.698104    46.1599794
  20.6972605   46.1598522
  20.6960665   46.1592414
  20.6957194   46.1590445
  20.694897    46.1586539
  20.6936089   46.1570049
  20.6935759   46.1562665
  20.6934792   46.1549547
  20.6932589   46.1542837
  20.6928879   46.1531703
  20.6927278   46.1515854
  20.692203    46.1509005
  20.6912251   46.1495198
  20.6890172   46.1481418
  20.6884522   46.1473693
  20.6875499   46.1460642
  20.6870367   46.1455707
  20.6855742   46.1453563
  20.6841185   46.144803
  20.6837972   46.1446727
  20.6825143   46.144722
  20.6814811   46.1447617
  20.6790403   46.1453266
  20.6778232   46.1456082
  20.6759207   46.1460885
  20.6738441   46.1472042
  20.6728708   46.1490227
  20.6714804   46.149786
  20.670757    46.1499286
  20.669782    46.1499736
  20.6689209   46.1500134
  20.6685514   46.1500191
  20.6671798   46.1502721
  20.665452    46.1505583
  20.6636582   46.1509939
  20.6633692   46.1509658
  20.6626333   46.1508942
  20.6615201   46.15079
  20.6606992   46.1507311
  20.6593022   46.150613
  20.6572885   46.1501191
  20.6543473   46.1489961
  20.6537645   46.1487742
  20.6526402   46.1479877
  20.651518    46.146426
  20.6512633   46.1460715
  20.6497846   46.1449428
  20.649438    46.1441435
  20.6495473   46.1417845
  20.649119    46.1400984
  20.6492441   46.1395644
  20.6496534   46.1378022
  20.6497192   46.1364868
  20.649599    46.1355353
  20.6495611   46.1352098
  20.6492213   46.1346695
  20.6481825   46.1338295
  20.6472369   46.1330584
  20.6463439   46.1319066
  20.6449048   46.130905
  20.6441133   46.1299652
  20.6424424   46.1289765
  20.6405619   46.1272087
  20.6399142   46.126973
  20.6392272   46.1267305
  20.6377484   46.1266083
  20.6360414   46.1264584
  20.6351001   46.126838
  20.6345741   46.1270512
  20.6339177   46.127417
  20.6318698   46.1281748
  20.6307838   46.1289217
  20.6299614   46.1296605
  20.629157    46.1301683
  20.6275813   46.1311122
  20.6269836   46.1314261
  20.6261452   46.1324774
  20.6251999   46.1336673
  20.6210804   46.1367127
  20.6197661   46.137497
  20.6177488   46.1387072
  20.6165636   46.1398685
  20.6162082   46.140011
  20.6153834   46.140861
  20.6146538   46.1412698
  20.6131303   46.1424666
  20.6126775   46.1430074
  20.6117234   46.1442866
  20.6100574   46.1458422
  20.6097231   46.1461338
  20.6089808   46.1464824
  20.607267    46.1471719
  20.6059313   46.1475139
  20.6049408   46.1475133
  20.6036031   46.1476328
  20.6020957   46.1486808
  20.6009746   46.1490153
  20.5985713   46.1489038
  20.5972731   46.1492309
  20.5965006   46.1497437
  20.5958462   46.1504201
  20.5954385   46.15126
  20.5945212   46.1519177
  20.5937111   46.15236
  20.592649    46.1525012
  20.5914688   46.1526127
  20.5906641   46.1527985
  20.5899346   46.1531552
  20.5893874   46.153512
  20.5889583   46.1541809
  20.5882931   46.1546268
  20.5871665   46.1550355
  20.5860186   46.1557267
  20.584538    46.1562023
  20.5839693   46.1566111
  20.5824029   46.1572279
  20.5823661   46.157301
  20.5796885   46.1580751
  20.5786157   46.158573
  20.5773621   46.1594736
  20.5768127   46.159832
  20.5763706   46.1601207
  20.5761127   46.1602573
  20.5758422   46.1604706
  20.5756036   46.1605993
  20.5754352   46.1607182
  20.5750952   46.1609374
  20.5740917   46.1615817
  20.5731128   46.1621905
  20.572172    46.1628236
  20.5709707   46.1639596
  20.5703733   46.1645295
  20.5693001   46.1652637
  20.5665087   46.1658737
  20.5653469   46.1663251
  20.5641293   46.1675909
  20.5635615   46.1681693
  20.5627408   46.1690253
  20.562105    46.1696834
  20.5608843   46.170229
  20.5600024   46.1705425
  20.5589284   46.1709243
  20.5580118   46.1712389
  20.5573783   46.1714485
  20.5558013   46.1717157
  20.5546564   46.1719013
  20.5539078   46.1720191
  20.553224    46.1728741
  20.5524086   46.1734143
  20.5515976   46.1741866
  20.5511414   46.1746129
  20.5507368   46.1751827
  20.5504677   46.1755495
  20.5502479   46.1762965
  20.5501222   46.1766864
  20.5494703   46.1771929
  20.5467823   46.1775086
  20.5453626   46.178339
  20.5446865   46.1787095
  20.5443271   46.1789175
  20.542184    46.179406
  20.5417679   46.1795215
  20.5412152   46.1796204
  20.5403706   46.1797524
  20.5382294   46.1795263
  20.5374916   46.1796086
  20.5364226   46.1803828
  20.5358326   46.1806279
  20.5350494   46.1806132
  20.5348508   46.1806132
  20.5325206   46.1803432
  20.5294552   46.1808295
  20.5282526   46.1808805
  20.5256272   46.1809896
  20.5235322   46.1813568
  20.5222578   46.1817406
  20.5210393   46.1820804
  20.5162797   46.183887
  20.5138449   46.1853733
  20.509974    46.1867076
  20.5085304   46.1871923
  20.5072283   46.1877237
  20.5048217   46.1888002
  20.5029317   46.1896613
  20.5015001   46.1899329
  20.5007849   46.1893223
  20.5000816   46.188361
  20.4999204   46.188438
  20.4994344   46.1886702
  20.4978054   46.1885838
  20.4966301   46.188716
  20.4967855   46.1885364
  20.4964546   46.1884235
  20.4955843   46.1873401
  20.4954305   46.1859214
  20.4968263   46.1851009
  20.4973544   46.1853948
  20.4976607   46.1854266
  20.4979488   46.1852363
  20.4980002   46.1843414
  20.4977471   46.1840928
  20.4946197   46.1826355
  20.4918491   46.1807961
  20.4936895   46.1802664
  20.4936933   46.1797159
  20.4963088   46.178015
  20.4964382   46.1774922
  20.4944294   46.1754924
  20.4931871   46.1737562
  20.4945981   46.1721047
  20.4953685   46.1716438
  20.4951662   46.17091
  20.4939846   46.170057
  20.4934248   46.1694207
  20.4767709   46.1564523
  20.4729335   46.152483
  20.472883    46.1524252
  20.45911     46.1428791
  20.4589936   46.1428969
  20.4454262   46.1418237
  20.4292479   46.1446902
  20.4263052   46.1452405
  20.4172647   46.1483812
  20.417069    46.1484387
  20.4131386   46.1498711
  20.4099041   46.1509668
  20.4042025   46.1537136
  20.4026637   46.1555302
  20.397457    46.1574227
  20.3942908   46.1525596
  20.3866254   46.1552977
  20.3865967   46.1553637
  20.3811406   46.1579184
  20.3775748   46.1577745
  20.3756101   46.1566259
  20.3738808   46.155667
  20.3734585   46.1552785
  20.3732175   46.1551381
  20.372443    46.1548544
  20.3701356   46.1536113
  20.3695148   46.1528806
  20.3691608   46.1531311
  20.3684481   46.152932
  20.3662758   46.1549252
  20.3556082   46.1696739
  20.3126284   46.1501723
  20.3091947   46.1564748
  20.299132    46.1519204
  20.2968418   46.1522369
  20.283133    46.141836
  20.2815687   46.1402955
  20.2780445   46.1361788
  20.2757361   46.1338495
  20.2756325   46.1337405
  20.2754808   46.1335825
  20.2751688   46.1335137
  20.2749142   46.1334672
  20.2742602   46.1333331
  20.2741099   46.1334657
  20.2738674   46.1336985
  20.2737396   46.1335074
  20.273623    46.1333303
  20.2735913   46.1332828
  20.2735549   46.1332289
  20.2735252   46.1331802
  20.2733177   46.1328697
  20.2729121   46.1322582
  20.2728249   46.1322954
  20.2727324   46.1323391
  20.272188    46.132591
  20.2717105   46.1328075
  20.2716381   46.1326346
  20.2715777   46.1325092
  20.271406    46.1321459
  20.2709203   46.1299447
  20.2706668   46.1284701
  20.2704109   46.1276922
  20.2702189   46.1272053
  20.2690672   46.1272236
  20.2683025   46.1271691
  20.267199    46.1270126
  20.2650007   46.1265251
  20.2642717   46.1263651
  20.2635711   46.1261964
  20.2631449   46.1260435
  20.2628085   46.1257887
  20.2622772   46.1251257
  20.2621215   46.124936
  20.2549185   46.1157964
  20.2532392   46.1164153
  20.2532479   46.116429
  20.2524215   46.1170117
  20.2519717   46.1173343
  20.2515607   46.1184674
  20.2495541   46.1198675
  20.250075    46.1213899
  20.2495843   46.1234952
  20.25147     46.1252813
  20.251565    46.1264588
  20.2499793   46.1275782
  20.2482128   46.1298279
  20.233185    46.1238099
  20.2298221   46.1290693
  20.2217211   46.1317333
  20.2103272   46.1354665
  20.2080373   46.1439414
  20.2041855   46.1462769
  20.1984551   46.1499218
  20.1907997   46.154649
  20.1818248   46.1600487
  20.1795112   46.1574763
  20.1692193   46.1527687
  20.1466913   46.1448277
  20.1372866   46.1442264
  20.1370506   46.14477
  20.1365624   46.1447646
  20.136729    46.1451064
  20.136829    46.1458985
  20.1369669   46.1458872
  20.1370296   46.1472912
  20.1348748   46.1474852
  20.1323618   46.1501691
  20.1267774   46.1525475
  20.1263064   46.1519517
  20.1157223   46.1576109
  20.1152945   46.1578416
  20.1152146   46.1579031
  20.1151474   46.157955
  20.1110262   46.1602835
  20.1068581   46.1626527
  20.104688    46.1651821
  20.1037786   46.1716827
  20.1059569   46.173155
  20.1064904   46.1733208
  20.1060136   46.1747185
  20.1056605   46.174993
  20.1043017   46.1759053
  20.1035832   46.1763244
  20.1021854   46.1767667
  20.1012538   46.1769655
  20.1007111   46.1770083
  20.097011    46.1767144
  20.0967028   46.1768494
  20.0958112   46.1772401
  20.0941319   46.1757361
  20.0924767   46.1742278
  20.0831967   46.165255
  20.0808552   46.163178
  20.0771892   46.159366
  20.0745137   46.1567606
  20.0712706   46.1530866
  20.0685583   46.1503586
  20.0671328   46.148462
  20.0642344   46.1446083
  20.0637374   46.1436661
  20.0626192   46.146045
  20.0616815   46.1468695
  20.0607478   46.1472666
  20.0592135   46.1477175
  20.0580824   46.1479143
  20.0568871   46.1479694
  20.0550243   46.147863
  20.0489746   46.145876
  20.047908    46.1455603
  20.0455948   46.1449689
  20.0432502   46.1446088
  20.0409369   46.1444767
  20.0390205   46.1444438
  20.0372417   46.1446413
  20.0359006   46.1450638
  20.0344381   46.1457582
  20.0328437   46.1468756
  20.0317804   46.1479296
  20.0313388   46.1485862
  20.0299698   46.1512781
  20.0293629   46.1531691
  20.0288462   46.1542609
  20.027519    46.1586705
  20.0269936   46.160185
  20.0259187   46.1644916
  20.0254718   46.1658761
  20.0249569   46.1674066
  20.023675    46.1701489
  20.0233024   46.1714052
  20.0229765   46.1732993
  20.0224339   46.1733145
  20.017875    46.1756195
  20.0176424   46.1757217
  20.016589    46.1764557
  20.0163332   46.1766027
  20.0157938   46.176777
  20.015297    46.1765973
  20.0150039   46.1765744
  20.0116956   46.1765185
  20.0073998   46.1764399
  20.0014158   46.1763166
  20.0006966   46.1762858
  20.0001708   46.1762451
  19.9997792   46.1762431
  19.9992617   46.1762097
  19.9990976   46.1761561
  19.9989713   46.1762071
  19.998928    46.1762246
  19.9946443   46.1761232
  19.9925868   46.1760298
  19.9884824   46.1759375
  19.9863956   46.1759195
  19.9857756   46.1759306
  19.9846831   46.1759289
  19.9844667   46.175932
  19.9844356   46.175933
  19.9843161   46.175934
  19.9838381   46.1759404
  19.9836433   46.175939
  19.9791434   46.1759297
  19.9789005   46.1759309
  19.9757326   46.1759296
  19.9725622   46.1758619
  19.9722758   46.1759767
  19.9721473   46.1759481
  19.9689936   46.1758706
  19.9662547   46.1757782
  19.9662266   46.1757952
  19.965342    46.1757516
  19.9650042   46.175754
  19.9643015   46.1757589
  19.9638547   46.1757644
  19.9615322   46.1758355
  19.9583343   46.1758868
  19.9583311   46.1759153
  19.9550875   46.1759381
  19.9529209   46.1759693
  19.9487098   46.1759454
  19.948235    46.1759507
  19.9453839   46.1759934
  19.9447003   46.1759649
  19.9419746   46.1760535
  19.9419812   46.1761317
  19.9397047   46.1761648
  19.939104    46.176159
  19.9389701   46.1761987
  19.9369427   46.1761988
  19.9351389   46.1761932
  19.9338364   46.1753311
  19.9279217   46.1709708
  19.9264644   46.1699699
  19.9244613   46.1685989
  19.9218436   46.1669527
  19.9148804   46.1639849
  19.9102354   46.1630491
  19.9053309   46.1615643
  19.8978213   46.1598806
  19.8949098   46.1588367
  19.89131     46.1575506
  19.8847182   46.1551868
  19.881985    46.1542083
  19.8780254   46.1528441
  19.8750322   46.1518323
  19.8743007   46.1515862
  19.8733725   46.1513556
  19.8653839   46.1503337
  19.8627122   46.1500232
  19.8615485   46.1499725
  19.8542506   46.14987
  19.8531941   46.1497905
  19.8526973   46.1494536
  19.8495182   46.1457372
  19.8477176   46.144217
  19.8464251   46.1431275
  19.8456869   46.1425178
  19.84559     46.1424263
  19.8455342   46.1423756
  19.8452912   46.1421742
  19.8450758   46.1419976
  19.8442445   46.1414042
  19.8410411   46.1398105
  19.8384849   46.1385567
  19.8334583   46.1360751
  19.8310397   46.1348897
  19.8218397   46.1304195
  19.8208651   46.1298305
  19.8180487   46.1279412
  19.8178337   46.1277866
  19.8166724   46.1284652
  19.8141569   46.1304416
  19.8125725   46.1312818
  19.8121963   46.1313792
  19.8082851   46.1319399
  19.8062376   46.1331776
  19.8049873   46.1335286
  19.8017284   46.1349509
  19.7995002   46.1363786
  19.7980168   46.1385685
  19.7981298   46.138943
  19.7979256   46.1391188
  19.7973065   46.1394639
  19.7971637   46.1394929
  19.7951874   46.1394729
  19.7949189   46.1395507
  19.7938312   46.1401434
  19.7935632   46.1401779
  19.7932959   46.1401311
  19.7930986   46.1400417
  19.7919439   46.1392855
  19.7915018   46.1393009
  19.7892398   46.1401908
  19.7871586   46.1411667
  19.7848598   46.1426921
  19.7828984   46.1436662
  19.7806854   46.1445304
  19.7802758   46.1445566
  19.7755723   46.1439609
  19.7717827   46.144152
  19.7704563   46.1445354
  19.7693087   46.1447471
  19.7689855   46.1447523
  19.7680684   46.1449764
  19.7656265   46.1460259
  19.7616286   46.1465662
  19.7584888   46.1478743
  19.757239    46.149217
  19.7557647   46.1502338
  19.7551542   46.1507518
  19.7530693   46.1524758
  19.7498262   46.1556361
  19.7484024   46.1564859
  19.7447558   46.1603514
  19.741041    46.1656458
  19.739693    46.1664765
  19.7340335   46.1698249
  19.7327051   46.1701338
  19.7314144   46.1695397
  19.7303053   46.1688606
  19.7283768   46.168312
  19.7270598   46.1681038
  19.726121    46.168266
  19.7247592   46.1692721
  19.7218051   46.1695877
  19.7179949   46.171555
  19.7179406   46.1715819
  19.7175239   46.1732442
  19.7180003   46.1741226
  19.7179942   46.1741885
  19.7174101   46.1750673
  19.7176989   46.1758653
  19.7176724   46.1759806
  19.7143178   46.1777861
  19.7117346   46.1793729
  19.7104704   46.1800891
  19.7087914   46.1810232
  19.7075279   46.1816862
  19.7066538   46.1821456
  19.7057987   46.1825623
  19.703298    46.1839813
  19.7019883   46.1852353
  19.7014672   46.1859237
  19.7007843   46.1866738
  19.6998298   46.1874615
  19.6980954   46.18793
  19.6982124   46.1883302
  19.6993099   46.1883238
  19.6971331   46.1898549
  19.695514    46.191767
  19.6933688   46.1959692
  19.6886441   46.2076981
  19.6864495   46.2131461
  19.6851918   46.2149261
  19.6832091   46.2177323
  19.6777852   46.222715
  19.6734496   46.2276914
  19.6702029   46.2318992
  19.6686922   46.2333643
  19.6615197   46.2403204
  19.6544651   46.2468356
  19.6508596   46.2507338
  19.6381849   46.2644376
END
END
