polygon
1
  20.4243859   46.8037207
  20.4239234   46.8071543
  20.4218498   46.8128946
  20.4218889   46.814419
  20.4213675   46.8155659
  20.4181537   46.8201731
  20.4182413   46.8236
  20.4172477   46.8281866
  20.4168137   46.8327603
  20.4168623   46.8346628
  20.4152598   46.8373475
  20.4142269   46.8404097
  20.4127011   46.8457589
  20.4106054   46.8507368
  20.4100835   46.8518836
  20.4095809   46.8537927
  20.408528    46.8560926
  20.4075039   46.8595327
  20.4108862   46.8617734
  20.4137074   46.8632645
  20.4170709   46.864749
  20.4176602   46.8658825
  20.4215938   46.8677381
  20.4272196   46.8707199
  20.4311735   46.8733374
  20.4328746   46.8744573
  20.4351476   46.8767169
  20.4368786   46.8789832
  20.4374594   46.8801167
  20.4386105   46.8816275
  20.4415136   46.8865386
  20.4438164   46.8895602
  20.4466509   46.8918128
  20.4523005   46.8955493
  20.4528609   46.8955424
  20.4523104   46.8959273
  20.451779    46.8966963
  20.4512475   46.8974653
  20.4514133   46.8977526
  20.4518189   46.8982207
  20.4531917   46.8991285
  20.4535122   46.8993404
  20.4540828   46.8997177
  20.4546474   46.8998647
  20.4568781   46.9004456
  20.458       46.9008099
  20.459142    46.9019363
  20.4597036   46.9023137
  20.4602842   46.9030689
  20.4734681   46.8975738
  20.4740082   46.8968046
  20.4750704   46.8952664
  20.4761518   46.8941122
  20.4778138   46.8937071
  20.4862735   46.8913279
  20.4895177   46.8908548
  20.4913111   46.8909965
  20.4913172   46.8909961
  20.4938207   46.8908225
  20.4951968   46.8906692
  20.4965123   46.8904703
  20.4974709   46.8905785
  20.50042     46.8910977
  20.5361235   46.8995761
  20.5369414   46.8998619
  20.5376938   46.9001677
  20.5391067   46.9009665
  20.5404093   46.9020417
  20.5448544   46.9048527
  20.5457832   46.9061915
  20.5464772   46.9078092
  20.5465784   46.9092007
  20.5466405   46.9105565
  20.5460077   46.9123832
  20.5457598   46.9135235
  20.5459771   46.9142448
  20.5466018   46.9148655
  20.5517438   46.9166292
  20.5533871   46.9169359
  20.5541858   46.9168796
  20.5549793   46.916678
  20.5570206   46.9154509
  20.5587184   46.9138704
  20.5591321   46.9136469
  20.5596157   46.913451
  20.5601001   46.9133028
  20.5609924   46.9131997
  20.5794465   46.9122727
  20.5810773   46.9121407
  20.5827787   46.912147
  20.5861152   46.912102
  20.5874288   46.912302
  20.5887053   46.9127527
  20.5891838   46.912902
  20.5916515   46.9139793
  20.5963722   46.9167495
  20.5973818   46.9172805
  20.5987218   46.9182372
  20.5990544   46.9183984
  20.6007316   46.9179974
  20.6012923   46.9179897
  20.6034856   46.9171973
  20.6045869   46.9168042
  20.6056991   46.916789
  20.6062597   46.9167813
  20.6068335   46.9175359
  20.6413386   46.9002966
  20.6627359   46.9099015
  20.6666811   46.9117486
  20.6728627   46.9139481
  20.6806155   46.9130748
  20.68455     46.9117388
  20.6931656   46.9107678
  20.6936189   46.9111598
  20.6990459   46.9158531
  20.7036388   46.9207396
  20.7036505   46.9211176
  20.7042231   46.9214936
  20.7093067   46.9240853
  20.7206592   46.931538
  20.7201461   46.9330705
  20.7202055   46.9349728
  20.720802    46.9361047
  20.7213658   46.9364808
  20.7213776   46.9368588
  20.7236386   46.9379662
  20.725339    46.939088
  20.7270511   46.9405816
  20.7271707   46.9443924
  20.7277674   46.9455242
  20.7277914   46.9462864
  20.7267025   46.9470649
  20.7261506   46.947073
  20.7261624   46.947451
  20.7256136   46.9478434
  20.7256732   46.9497457
  20.7274098   46.9520076
  20.7274696   46.9539099
  20.7269415   46.9546802
  20.7258643   46.9558366
  20.7208603   46.9559101
  20.7186224   46.9555648
  20.7169455   46.955205
  20.7125025   46.9552699
  20.7108404   46.9556785
  20.7097274   46.9556947
  20.7080859   46.9564749
  20.7058834   46.9572695
  20.705355    46.9580396
  20.7042656   46.9588179
  20.7043128   46.9603422
  20.7054495   46.9610882
  20.7071384   46.9618262
  20.7099284   46.9621637
  20.7116146   46.9625235
  20.7127278   46.9625072
  20.7138082   46.961729
  20.7171118   46.9605338
  20.7193024   46.9593611
  20.7226178   46.95855
  20.7237099   46.9581558
  20.7248349   46.9585174
  20.7265448   46.9596329
  20.7266165   46.9619193
  20.725587    46.9646001
  20.7234441   46.9672973
  20.7223668   46.9684599
  20.7212771   46.9692322
  20.7201638   46.9692485
  20.7185104   46.9696571
  20.7163194   46.9708298
  20.7146897   46.9720004
  20.714152    46.9727646
  20.7136118   46.9731568
  20.7136593   46.9746811
  20.7142351   46.975429
  20.7203544   46.9753395
  20.7096396   46.9781533
  20.7099089   46.9793045
  20.7099681   46.9812068
  20.7111765   46.9842392
  20.7117642   46.9853712
  20.7123493   46.9861252
  20.7125047   46.9870999
  20.7125948   46.9883905
  20.7126955   46.9893304
  20.7128174   46.9898275
  20.7127909   46.9909463
  20.7130082   46.9920633
  20.7132209   46.9945017
  20.7132219   46.9963968
  20.7137951   46.9967666
  20.7183487   47.0001281
  20.7172347   47.0001444
  20.7161328   47.0005449
  20.7156039   47.0013089
  20.7156397   47.0024552
  20.7162398   47.0039714
  20.7165845   47.0047041
  20.7165116   47.0051772
  20.7164134   47.0055307
  20.7157585   47.0062597
  20.7135897   47.0081945
  20.7119705   47.0097431
  20.7108759   47.0119804
  20.7020348   47.012553
  20.7021292   47.0156016
  20.7050863   47.0254599
  20.7065364   47.0303895
  20.7072845   47.0328352
  20.7076863   47.0341068
  20.7081004   47.035134
  20.7089235   47.034661
  20.7099477   47.0341473
  20.7116402   47.0338018
  20.7130208   47.033797
  20.71371     47.033863
  20.7141763   47.034014
  20.7155238   47.0344504
  20.7162375   47.0344436
  20.7174518   47.0340262
  20.7192655   47.0321641
  20.7197505   47.0317076
  20.7204397   47.0313286
  20.7205478   47.0312515
  20.7215489   47.0307295
  20.7230283   47.0304771
  20.724424    47.0323403
  20.7252183   47.0333349
  20.7257867   47.0340298
  20.7260567   47.0354104
  20.7259895   47.0360417
  20.7260695   47.0365631
  20.7275013   47.0434124
  20.7314589   47.0452634
  20.7461369   47.05114
  20.7562357   47.0532707
  20.7599018   47.0459815
  20.7595723   47.035702
  20.7606991   47.0360633
  20.8064049   47.0368939
  20.8114543   47.0379629
  20.8028085   47.046093
  20.8089518   47.046761
  20.8123216   47.0474715
  20.8117937   47.048236
  20.8202305   47.0507773
  20.8258559   47.0522088
  20.8292681   47.0544432
  20.8326641   47.0559152
  20.8349579   47.0577825
  20.8384091   47.0611567
  20.8405883   47.0595975
  20.8413203   47.0649174
  20.8437047   47.069455
  20.8486291   47.0667057
  20.8486421   47.0670898
  20.8525025   47.0658883
  20.8569247   47.0646715
  20.8562464   47.061254
  20.861325    47.063083
  20.8613378   47.0634609
  20.8597341   47.0653895
  20.8614543   47.0668873
  20.8499373   47.0724008
  20.8477579   47.0739601
  20.8461277   47.0751265
  20.8444974   47.0762928
  20.8434718   47.0789808
  20.845256    47.0823809
  20.8481561   47.0857635
  20.8510693   47.0895239
  20.852288    47.0925485
  20.8500784   47.0929677
  20.8439586   47.0934422
  20.8445376   47.0941956
  20.8462967   47.0968336
  20.8475155   47.0998645
  20.8476439   47.1036688
  20.847129    47.1048237
  20.8450251   47.1086631
  20.8456134   47.1094164
  20.8456261   47.1097943
  20.8445997   47.1124761
  20.8447409   47.1166646
  20.8464238   47.1170225
  20.8475529   47.1173829
  20.8514813   47.1180835
  20.8531641   47.1184352
  20.8542805   47.1184175
  20.8666164   47.1201315
  20.8683125   47.120867
  20.8666682   47.1216495
  20.8655389   47.1212893
  20.8649852   47.1212981
  20.8644353   47.121685
  20.8622415   47.1228666
  20.8617137   47.1236375
  20.8601341   47.1263282
  20.860147    47.1267062
  20.8601858   47.1278462
  20.8608819   47.1320259
  20.8609209   47.1331721
  20.86038     47.1335588
  20.8598559   47.1347078
  20.8566052   47.1374249
  20.856094    47.1389579
  20.8474773   47.1482375
  20.8843556   47.1690114
  20.8941643   47.1745354
  20.9097515   47.1731424
  20.9097781   47.1739045
  20.9103813   47.1750353
  20.9109622   47.1757884
  20.9178587   47.1813856
  20.9184356   47.1817605
  20.9195665   47.1821202
  20.9223697   47.1824587
  20.9240417   47.1824313
  20.9257361   47.1827817
  20.9263039   47.1831568
  20.9263172   47.1835347
  20.926371    47.1850589
  20.9326083   47.1876221
  20.9331626   47.187613
  20.943173    47.1863072
  20.9448542   47.1862794
  20.945422    47.1866481
  20.9454357   47.1870322
  20.9460035   47.187401
  20.9464834   47.1896346
  20.9532821   47.2032745
  20.9550889   47.208416
  20.9552279   47.2089404
  20.9628326   47.2187263
  20.9674911   47.22551
  20.9773062   47.2305421
  20.9876348   47.2259335
  20.992091    47.2321926
  21.0029455   47.2317674
  21.0096627   47.2320371
  21.0144248   47.2247146
  21.0200457   47.2253806
  21.0227387   47.2226685
  21.0517116   47.1905544
  21.0658003   47.1937355
  21.0607956   47.2090558
  21.0680016   47.2074102
  21.1024033   47.1866065
  21.106786    47.1842464
  21.1138837   47.1799276
  21.1215788   47.1767383
  21.125426    47.1751435
  21.1437663   47.1729061
  21.1437814   47.1732902
  21.1688092   47.1705418
  21.2004828   47.1665224
  21.2010307   47.1661339
  21.2099285   47.1652037
  21.210467    47.1648091
  21.2110211   47.1647987
  21.2142644   47.1620714
  21.2137103   47.1620819
  21.2164212   47.1601272
  21.2175073   47.159344
  21.2180613   47.1593335
  21.2299816   47.1503465
  21.2305355   47.1503359
  21.2310985   47.1503252
  21.2344714   47.1510234
  21.2361825   47.1517533
  21.2378847   47.1524834
  21.2407036   47.1531858
  21.2429064   47.1523872
  21.2544155   47.1472122
  21.261123    47.147461
  21.268362    47.1469426
  21.2728293   47.1468559
  21.272845    47.1472338
  21.2940854   47.147966
  21.3009149   47.1508761
  21.2939423   47.1312037
  21.2955644   47.1300311
  21.2966808   47.1300091
  21.2972183   47.1296142
  21.2994352   47.1291924
  21.3010087   47.1268735
  21.3015392   47.1261005
  21.3009123   47.1245938
  21.3008157   47.1223078
  21.3013302   47.1211569
  21.3011855   47.117731
  21.300053    47.1173689
  21.3005744   47.116596
  21.304389    47.1142392
  21.3054478   47.1130775
  21.3075831   47.1107475
  21.3053188   47.1100296
  21.303617    47.1093005
  21.2967856   47.1060063
  21.2928202   47.104559
  21.2916722   47.1038189
  21.2927242   47.1022792
  21.2942492   47.0988206
  21.2951885   47.0946108
  21.2956617   47.092698
  21.2955975   47.0911741
  21.2955174   47.0892722
  21.2954051   47.0866083
  21.2885131   47.0817896
  21.2414891   47.0636547
  21.2324216   47.0600153
  21.2318441   47.0596482
  21.2318286   47.0592703
  21.2317663   47.0577462
  21.232741    47.054299
  21.2343152   47.051981
  21.2353676   47.0504357
  21.2369976   47.0492637
  21.2390307   47.0446552
  21.2399266   47.039306
  21.2404101   47.0373871
  21.2391863   47.0347445
  21.2351188   47.0306374
  21.2338173   47.0260866
  21.2331312   47.0230555
  21.2368548   47.0187929
  21.2384526   47.0168589
  21.2433207   47.0133367
  21.2470743   47.0098358
  21.2475012   47.0067771
  21.2486151   47.0067557
  21.2491924   47.0071289
  21.2509057   47.0082367
  21.2520352   47.0085931
  21.2526191   47.0093445
  21.2531965   47.0097177
  21.2537489   47.0097071
  21.2548629   47.0096856
  21.2575958   47.0084857
  21.2592465   47.0080755
  21.259808    47.0080646
  21.2642073   47.0068385
  21.2675013   47.0056275
  21.2691359   47.0048331
  21.2724459   47.0040122
  21.2746736   47.0039688
  21.291723    46.9990592
  21.3203446   46.9912574
  21.3379309   46.9859518
  21.3423356   46.9847225
  21.3549615   46.9806548
  21.3549452   46.9802769
  21.3549439   46.9797912
  21.3555261   46.9798416
  21.3560422   46.9798765
  21.3594504   46.9796323
  21.3685502   46.9789801
  21.371812    46.9788339
  21.3769612   46.9785141
  21.3793438   46.9782557
  21.3893374   46.9776729
  21.3904671   46.978028
  21.3921325   46.9779938
  21.3937734   46.9771974
  21.3949163   46.977053
  21.4020753   46.9762638
  21.4030551   46.9761858
  21.4048538   46.9762064
  21.4071138   46.9769224
  21.408227    46.9768994
  21.4104991   46.9765677
  21.4113481   46.9765605
  21.4121019   46.9764409
  21.4132151   46.9764179
  21.4150116   46.9765411
  21.4176509   46.9759414
  21.4192655   46.974767
  21.4209307   46.9747324
  21.4251296   46.9689342
  21.4385697   46.9709353
  21.4389094   46.9659738
  21.4424765   46.9586629
  21.4301768   46.9573951
  21.4311708   46.954708
  21.43061     46.9547197
  21.4315871   46.9516548
  21.4254471   46.9510203
  21.4234187   46.9430638
  21.4434869   46.9563537
  21.472089    46.9492759
  21.47678     46.9423181
  21.4789703   46.9415087
  21.4795311   46.9414968
  21.4801174   46.942247
  21.4812817   46.9433631
  21.4818509   46.9437354
  21.4823942   46.9433393
  21.4823423   46.9421995
  21.48342     46.9414138
  21.4845325   46.94139
  21.4862141   46.9417385
  21.4890774   46.9435809
  21.488543    46.9439706
  21.489147    46.9451048
  21.490294    46.9458368
  21.4903288   46.9465987
  21.4925887   46.947313
  21.4937012   46.9472891
  21.4942705   46.9476614
  21.4943575   46.9495632
  21.495505    46.9503012
  21.4966698   46.9514172
  21.4966871   46.9517951
  21.4972389   46.9517832
  21.4991917   46.9494921
  21.499349    46.9494619
  21.4994757   46.9494516
  21.4996112   46.9494748
  21.4996629   46.9495501
  21.4997847   46.9496542
  21.500648    46.9510672
  21.5009549   46.9513613
  21.5012711   46.951571
  21.5016721   46.9513097
  21.5027324   46.9501459
  21.503836    46.9501222
  21.5044141   46.950488
  21.5117993   46.9537577
  21.5129381   46.9544958
  21.5140508   46.9544718
  21.5145942   46.9540818
  21.5145062   46.9521738
  21.5150406   46.951784
  21.5166963   46.9513638
  21.5172481   46.9513518
  21.5172658   46.9517359
  21.5178351   46.9521018
  21.517888    46.9532478
  21.5184489   46.9532357
  21.5190181   46.9536016
  21.5206742   46.9531874
  21.5212435   46.9535534
  21.5212787   46.9543153
  21.5196494   46.9551133
  21.5202365   46.9558633
  21.5213844   46.9566011
  21.5214019   46.956979
  21.5241792   46.9569187
  21.5240912   46.955017
  21.5256588   46.9526948
  21.5289877   46.9526225
  21.529531    46.9522324
  21.5289524   46.9518605
  21.5289348   46.9514827
  21.5294778   46.9510864
  21.5317294   46.9518001
  21.5339546   46.9517516
  21.5351027   46.9524893
  21.5351911   46.9543911
  21.5346393   46.9544031
  21.5346926   46.9555491
  21.5353153   46.9570609
  21.5353505   46.9578167
  21.5370684   46.9589264
  21.537086    46.9593042
  21.5382342   46.9600419
  21.5382697   46.9608038
  21.539418    46.9615414
  21.5421069   46.959579
  21.5432196   46.9595547
  21.5432905   46.9610724
  21.5443856   46.9606701
  21.5449375   46.9606581
  21.5476708   46.9594572
  21.5482047   46.9590611
  21.5487835   46.9594329
  21.5493354   46.9594208
  21.5526914   46.9597254
  21.5538219   46.9600788
  21.5549256   46.9600546
  21.5549436   46.9604386
  21.5566351   46.9607797
  21.557187    46.9607676
  21.5577659   46.9611393
  21.5628048   46.961791
  21.5535653   46.9783771
  21.5573781   46.9885807
  21.5573959   46.9889585
  21.5648255   46.9929868
  21.566796    46.9994171
  21.5674113   47.0005507
  21.5674292   47.0009285
  21.5679815   47.0009163
  21.5680174   47.0016783
  21.5691848   47.0027935
  21.5706838   47.0016095
  21.5718928   47.0012144
  21.5755145   46.9989068
  21.5758742   46.9988414
  21.5878819   46.9978089
  21.5912046   46.9973567
  21.5956497   46.9972576
  21.5990264   46.9979387
  21.6034899   46.9982234
  21.6063787   47.0004468
  21.611925    47.0034559
  21.614971    47.0045023
  21.6184002   47.0051157
  21.6185119   47.0050668
  21.6188755   47.005499
  21.6189121   47.0062609
  21.6205782   47.0062234
  21.6206146   47.0069791
  21.6211945   47.0073505
  21.6212127   47.0077284
  21.6234402   47.0076782
  21.624011    47.0080497
  21.6234954   47.0088241
  21.6229522   47.0092146
  21.6229707   47.0095987
  21.6196933   47.0108135
  21.620319    47.0123249
  21.6192782   47.0138676
  21.6226383   47.0141763
  21.6237337   47.0137672
  21.6242679   47.0133769
  21.6253818   47.0133517
  21.6254      47.0137296
  21.6265506   47.0144663
  21.6282905   47.0159525
  21.6283088   47.0163303
  21.6266424   47.016368
  21.6260995   47.0167647
  21.6273052   47.0186412
  21.627397    47.0205429
  21.6285479   47.0212796
  21.6325161   47.0227153
  21.634818    47.0241887
  21.6398822   47.0252149
  21.6413825   47.0217516
  21.6419847   47.0177248
  21.6434257   47.0178977
  21.6462245   47.0182124
  21.6501375   47.0185078
  21.6520998   47.0189488
  21.6535349   47.0195713
  21.6576071   47.0212259
  21.6582346   47.0215505
  21.65923     47.0226328
  21.6597982   47.0218902
  21.6608508   47.0214138
  21.6608458   47.0209298
  21.660827    47.0206262
  21.6615511   47.0203356
  21.6632497   47.0201804
  21.6708667   47.0192483
  21.6778782   47.0183902
  21.6781681   47.0177352
  21.677943    47.015508
  21.6780049   47.0141452
  21.6782826   47.0126174
  21.6783653   47.0121831
  21.6792667   47.010055
  21.6797552   47.0090606
  21.6810863   47.0062425
  21.6826723   47.004012
  21.6880159   47.0030551
  21.6881652   47.0029399
  21.6889507   47.0018204
  21.6879719   47.0003496
  21.6875593   46.9995647
  21.687456    46.9993629
  21.6852798   46.9993998
  21.6842341   46.9992059
  21.6830457   46.9984741
  21.6818841   46.9983187
  21.6802477   46.9978842
  21.6793326   46.9979593
  21.678436    46.9963859
  21.6774394   46.9947657
  21.6770042   46.9938928
  21.6766979   46.993465
  21.6760303   46.9925566
  21.6767792   46.9906559
  21.6776322   46.9891194
  21.6773584   46.9885969
  21.6769715   46.9878528
  21.6766397   46.9870891
  21.6762172   46.9861245
  21.6751883   46.9850059
  21.6730113   46.9832763
  21.672728    46.9827814
  21.6728241   46.981788
  21.6728168   46.981673
  21.6723005   46.9811128
  21.6710654   46.9805415
  21.6703735   46.9801507
  21.6702042   46.9792539
  21.6704737   46.9787953
  21.6706556   46.9784829
  21.6705342   46.978346
  21.6706002   46.9772785
  21.6705467   46.9767728
  21.6702123   46.9760088
  21.6694718   46.9743847
  21.6685235   46.9728284
  21.6682285   46.9709445
  21.6679336   46.9701899
  21.6711388   46.9696394
  21.6734039   46.9696104
  21.6764106   46.9692351
  21.6780702   46.9686178
  21.6793972   46.9679238
  21.6818429   46.9669311
  21.6818912   46.9663779
  21.6815347   46.964938
  21.6803198   46.9628584
  21.6788273   46.9604142
  21.6757232   46.9590724
  21.6747614   46.9564399
  21.6740477   46.9554643
  21.6736558   46.954319
  21.6735825   46.9543152
  21.6731532   46.9537105
  21.6719574   46.9539192
  21.6699575   46.954038
  21.6684323   46.9543534
  21.6649118   46.9548683
  21.6635156   46.9548369
  21.662658    46.9552537
  21.6611372   46.9554777
  21.6601291   46.9558781
  21.6580214   46.9560181
  21.6582813   46.9550366
  21.6575544   46.9541882
  21.6564213   46.9524962
  21.6555424   46.9520834
  21.6553895   46.9515255
  21.6558881   46.9499371
  21.6548442   46.9494622
  21.6539943   46.9490723
  21.6529921   46.9484287
  21.6512403   46.947684
  21.6504761   46.9466731
  21.6501315   46.9454683
  21.6502642   46.9440166
  21.6498772   46.9436031
  21.6490183   46.9429949
  21.6481077   46.9423481
  21.6407212   46.9389041
  21.6383305   46.9329974
  21.6062043   46.9325188
  21.6060395   46.9324457
  21.6040385   46.9321891
  21.5986842   46.9274662
  21.5982823   46.9240453
  21.5977709   46.922259
  21.5973656   46.9180528
  21.5982347   46.9170623
  21.599425    46.9160744
  21.5990409   46.9091968
  21.6002265   46.9091998
  21.5998768   46.9086559
  21.6001532   46.9065985
  21.6004084   46.9061559
  21.6010183   46.9052824
  21.6027233   46.9039845
  21.6071144   46.9043288
  21.6074209   46.9021612
  21.6087609   46.8988599
  21.6099231   46.8954534
  21.6104127   46.894213
  21.6114233   46.8927726
  21.6119621   46.8928296
  21.6136734   46.8885222
  21.6142      46.8865295
  21.6061396   46.8859659
  21.6035123   46.8850041
  21.6010801   46.8789245
  21.6033056   46.8687373
  21.6018733   46.8663911
  21.6011591   46.8657445
  21.5997406   46.8654531
  21.5994285   46.8653084
  21.5977256   46.8646646
  21.597729    46.8626703
  21.5968162   46.8613169
  21.5952352   46.860513
  21.5926272   46.8604331
  21.590381    46.8603642
  21.5877322   46.8604958
  21.5844176   46.8598595
  21.5811516   46.8584194
  21.5808848   46.8574961
  21.5790031   46.857417
  21.5762132   46.8571007
  21.5746583   46.856723
  21.5734857   46.8563801
  21.5727515   46.8564329
  21.5711882   46.8556307
  21.569973    46.8555031
  21.569721    46.8552511
  21.5696208   46.8543828
  21.5694122   46.8541033
  21.5690482   46.8539268
  21.5671938   46.8540406
  21.5622258   46.8538611
  21.5599617   46.8540312
  21.5570075   46.8537046
  21.552614    46.8511422
  21.5480816   46.8488098
  21.5457623   46.8485405
  21.5442802   46.8478921
  21.5390822   46.8474475
  21.5379236   46.8474094
  21.5379564   46.8465153
  21.5378126   46.8440681
  21.5372963   46.8431274
  21.53626     46.841991
  21.5344557   46.8394908
  21.5338961   46.8395214
  21.5320469   46.8390617
  21.5297133   46.8395209
  21.5286057   46.8395891
  21.525409    46.8394452
  21.5229667   46.8389755
  21.5228912   46.8388061
  21.5227719   46.8385493
  21.5224745   46.8382136
  21.5218132   46.8379203
  21.5208881   46.8376198
  21.5202208   46.8372841
  21.519212    46.8359137
  21.5192975   46.8350912
  21.5202758   46.8332643
  21.5191834   46.8297968
  21.5205012   46.8273867
  21.5188591   46.8236497
  21.5190501   46.8209262
  21.5212442   46.8199187
  21.5213547   46.8172458
  21.5210526   46.8169645
  21.5215964   46.8160742
  21.5223242   46.8150679
  21.5225618   46.8139069
  21.5224484   46.8134947
  21.5223538   46.8132469
  21.5210161   46.8118646
  21.5216564   46.8112361
  21.522009    46.8107631
  21.5221683   46.810111
  21.5221441   46.8095681
  21.521987    46.8090519
  21.5222034   46.8084968
  21.5213184   46.807177
  21.5199967   46.8063583
  21.5194046   46.8053921
  21.5193343   46.8038681
  21.5183679   46.801996
  21.518681    46.7998628
  21.5183907   46.7995721
  21.5175616   46.7987764
  21.5167665   46.7979551
  21.515976    46.7974338
  21.5156904   46.797089
  21.5138427   46.7955644
  21.5146409   46.7943429
  21.5152307   46.7938549
  21.5143711   46.7925476
  21.5117119   46.7900315
  21.5111132   46.7888795
  21.5105983   46.7874359
  21.5100507   46.7846232
  21.5092255   46.7833602
  21.5079205   46.7825414
  21.4972083   46.7771516
  21.493463    46.7749656
  21.4902013   46.7758154
  21.4857235   46.7678249
  21.4841954   46.7651028
  21.484072    46.7648905
  21.4832192   46.7647151
  21.4832602   46.7646296
  21.4851453   46.7601517
  21.4851552   46.7601282
  21.4852118   46.7599943
  21.4847718   46.7584738
  21.4931708   46.7574856
  21.4940742   46.7568645
  21.4943826   46.756849
  21.4999125   46.7531157
  21.5023741   46.751463
  21.5116533   46.7453616
  21.5248183   46.7399526
  21.5266634   46.7391945
  21.5267418   46.7390063
  21.5279465   46.7372951
  21.5279971   46.7358345
  21.5279338   46.7353896
  21.527986    46.7350558
  21.5282134   46.7348805
  21.5281868   46.7341542
  21.5286351   46.7334977
  21.5286107   46.7328277
  21.5288959   46.7322859
  21.5291475   46.7309654
  21.5296648   46.7294136
  21.5299983   46.7280237
  21.5303249   46.7273233
  21.5302773   46.7261368
  21.5304455   46.7240594
  21.5295651   46.7217672
  21.5293422   46.7208103
  21.5270655   46.7191187
  21.5263807   46.718477
  21.5244848   46.7169226
  21.5206891   46.7143769
  21.5195339   46.7137842
  21.517181    46.7130458
  21.5161223   46.7122814
  21.515866    46.7121631
  21.5154551   46.712068
  21.5143692   46.7119511
  21.512882    46.7118065
  21.5113886   46.7118498
  21.511102    46.7117223
  21.5111218   46.7114553
  21.5115933   46.7108231
  21.5117767   46.7103687
  21.5119112   46.7095765
  21.5117942   46.708162
  21.5123513   46.7078235
  21.5113119   46.7073715
  21.5089682   46.7059753
  21.5074649   46.7048644
  21.5077709   46.7038654
  21.5093104   46.7012559
  21.5091175   46.7010614
  21.5085482   46.7009642
  21.508164    46.7008374
  21.5078695   46.7006235
  21.5072666   46.7002546
  21.5075444   46.6986434
  21.5076706   46.6984476
  21.5076618   46.6982213
  21.5075644   46.6980644
  21.5065726   46.6976895
  21.5060661   46.6974396
  21.5057657   46.6973604
  21.504846    46.6973218
  21.5033154   46.697041
  21.502963    46.6970166
  21.5024692   46.6970728
  21.5011147   46.6960607
  21.5001724   46.6954898
  21.4987491   46.6941432
  21.4984968   46.6941
  21.4968397   46.6910411
  21.4963691   46.6896854
  21.4954623   46.6877321
  21.4942094   46.6867338
  21.4939718   46.6869056
  21.4934229   46.686742
  21.4930606   46.6865531
  21.4929574   46.6864652
  21.4922181   46.6859799
  21.4913925   46.6857811
  21.4908381   46.6857303
  21.4902801   46.6857682
  21.4895888   46.6859879
  21.4893265   46.6861226
  21.4891686   46.6862619
  21.4889548   46.6868594
  21.488817    46.6870808
  21.4884517   46.6874399
  21.4872164   46.6882408
  21.4866967   46.6886845
  21.4856804   46.6897393
  21.4849355   46.6906573
  21.4845511   46.6910567
  21.4842734   46.69128
  21.4836981   46.6917119
  21.482785    46.6920398
  21.4824365   46.6921161
  21.4821557   46.6920857
  21.4813323   46.6919751
  21.4807754   46.6919193
  21.4804139   46.6919321
  21.4800391   46.6919752
  21.4793802   46.6921405
  21.4786427   46.692419
  21.4781104   46.6927746
  21.4778777   46.6929966
  21.4778045   46.6932126
  21.4777066   46.6937455
  21.4776888   46.6939222
  21.4776319   46.6940704
  21.4774994   46.6941869
  21.4768895   46.6942468
  21.4767026   46.6942218
  21.4755845   46.6940836
  21.4744075   46.6942379
  21.4741059   46.694399
  21.4739569   46.6945057
  21.4738837   46.6946227
  21.4737423   46.6949738
  21.4734209   46.6954426
  21.4732135   46.69557
  21.4730032   46.6956373
  21.4726977   46.695662
  21.4725684   46.6956445
  21.4724342   46.6956066
  21.4711718   46.6951304
  21.4704342   46.6946916
  21.4703026   46.6946381
  21.4701261   46.6946067
  21.4699738   46.6946479
  21.4697738   46.694777
  21.4696152   46.6949747
  21.4695867   46.6952864
  21.4696681   46.695438
  21.4587933   46.6912524
  21.451163    46.6885301
  21.4411597   46.6927427
  21.4344031   46.6956089
  21.4341198   46.6955308
  21.4330907   46.6950203
  21.4321894   46.694676
  21.4315956   46.6946463
  21.4306645   46.6941392
  21.430051    46.6938662
  21.4301245   46.6938041
  21.4302266   46.6937302
  21.430297    46.6935592
  21.4302529   46.6931146
  21.4301178   46.6926808
  21.4299469   46.6924207
  21.4293874   46.6916841
  21.4277242   46.6896199
  21.4276209   46.6893456
  21.4276907   46.6888642
  21.4280596   46.6883668
  21.4283523   46.6880764
  21.4286348   46.6877006
  21.4285741   46.6873494
  21.4283389   46.6869009
  21.4283323   46.6864024
  21.4285772   46.6858102
  21.4293094   46.6849296
  21.4296936   46.684246
  21.4300137   46.6837422
  21.430972    46.6829291
  21.4312915   46.6826933
  21.4314686   46.6824458
  21.4315836   46.6821938
  21.431594    46.6819924
  21.4314731   46.681656
  21.4312022   46.6813467
  21.4307447   46.6810093
  21.4303551   46.680697
  21.430264    46.680492
  21.4302556   46.6801535
  21.4304939   46.6794018
  21.4309553   46.6781367
  21.4315302   46.6775495
  21.4326651   46.6769052
  21.4343491   46.6757584
  21.4350612   46.6748863
  21.4357636   46.6739379
  21.4358474   46.6735969
  21.4368272   46.6722146
  21.4378385   46.6704542
  21.4384538   46.6698921
  21.4389893   46.6696285
  21.4407437   46.6690511
  21.441071    46.6687426
  21.4417432   46.667815
  21.4419147   46.6671422
  21.4420568   46.6668591
  21.4423936   46.6665769
  21.4427393   46.666448
  21.443122    46.6663427
  21.4447471   46.6660321
  21.4453998   46.6659846
  21.4461004   46.665958
  21.4469878   46.6659506
  21.4473406   46.6660114
  21.4493967   46.6666856
  21.4497165   46.6667442
  21.4502741   46.6667923
  21.4518265   46.6666644
  21.4521631   46.6666422
  21.4531667   46.6666467
  21.4533796   46.6666657
  21.4540507   46.6667595
  21.4546925   46.666872
  21.4557082   46.6671027
  21.4555702   46.6660713
  21.4548856   46.6611553
  21.454659    46.6606642
  21.4545468   46.660609
  21.4534411   46.6602093
  21.4516225   46.6594695
  21.4492429   46.658029
  21.4453806   46.654592
  21.441476    46.6514655
  21.4414584   46.6514552
  21.4326473   46.6481934
  21.4324817   46.6481311
  21.4217341   46.6464998
  21.4164199   46.6425181
  21.4157264   46.6393251
  21.4153031   46.6380491
  21.4147184   46.6364289
  21.4141398   46.6358547
  21.4140307   46.6355928
  21.4139578   46.6346122
  21.4135896   46.6327696
  21.4118025   46.625569
  21.4112951   46.6243207
  21.4101886   46.6225315
  21.4099891   46.6218365
  21.381567    46.628276
  21.3811734   46.6284345
  21.3807583   46.6287005
  21.3804407   46.6291837
  21.3788354   46.6327983
  21.3786428   46.6330093
  21.3781285   46.6332808
  21.365614    46.6378313
  21.353202    46.6302062
  21.3527368   46.6304581
  21.3525416   46.6305602
  21.3510871   46.6307563
  21.3502429   46.6307017
  21.3492636   46.6307963
  21.3484634   46.6309561
  21.3481566   46.6310759
  21.3478099   46.6313478
  21.3388248   46.6301132
  21.3359185   46.6294502
  21.3356864   46.6293894
  21.3348372   46.6290066
  21.3299635   46.6315742
  21.3290185   46.6309394
  21.3289435   46.6308893
  21.3247604   46.6280936
  21.3188162   46.6223962
  21.3140883   46.6175941
  21.313725    46.6153652
  21.3100246   46.6075887
  21.308683    46.6058103
  21.3068789   46.6017933
  21.306843    46.5989201
  21.3032393   46.5949566
  21.3011224   46.5908157
  21.3029033   46.5893957
  21.3070455   46.5863838
  21.3084567   46.5875045
  21.3140418   46.5841313
  21.3148267   46.5847317
  21.3149125   46.5846649
  21.3160869   46.5855794
  21.3207803   46.5828136
  21.3174957   46.5788978
  21.3161117   46.5774886
  21.3144423   46.5750898
  21.3094169   46.5699325
  21.3075853   46.5678939
  21.3048938   46.566082
  21.303434    46.5643301
  21.3047379   46.5611804
  21.3049586   46.5606346
  21.2975049   46.5534315
  21.2936438   46.5522177
  21.2916615   46.5471643
  21.2896513   46.5443105
  21.2848477   46.5445782
  21.2803252   46.5449574
  21.2742187   46.5407104
  21.2762089   46.5350232
  21.2714678   46.525699
  21.2689662   46.5203047
  21.268423    46.5191171
  21.2684002   46.5190667
  21.264806    46.511204
  21.2628394   46.5070593
  21.2614276   46.5044687
  21.2604143   46.5019609
  21.2626617   46.4973806
  21.2699045   46.486778
  21.2727956   46.4834085
  21.2743063   46.4764633
  21.2841711   46.4772416
  21.2917639   46.4762478
  21.2963246   46.4761514
  21.3023498   46.4685811
  21.305343    46.464686
  21.3177669   46.4506918
  21.3158547   46.4505476
  21.3135171   46.4497579
  21.3131628   46.4495436
  21.3130079   46.4492367
  21.3128305   46.4482717
  21.3120997   46.4433765
  21.3118551   46.4403822
  21.3115162   46.4398429
  21.3034353   46.4323457
  21.302857    46.431595
  21.2959051   46.4233501
  21.293464    46.417688
  21.2900798   46.4158456
  21.289518    46.415478
  21.2894388   46.4135766
  21.292459    46.4103122
  21.295598    46.4073408
  21.2962805   46.406696
  21.2842393   46.4034137
  21.2834251   46.4032176
  21.2831951   46.4032211
  21.2753984   46.4066884
  21.2589265   46.4086072
  21.25494     46.4093302
  21.2527531   46.4096956
  21.2527273   46.4096991
  21.2526612   46.4097093
  21.24776     46.4104984
  21.2396331   46.4103381
  21.2253589   46.4135347
  21.2224763   46.41209
  21.2215964   46.4119503
  21.2216729   46.4118058
  21.2206035   46.4116528
  21.2191182   46.4110976
  21.2163243   46.4018338
  21.2113005   46.4024482
  21.2063155   46.4032299
  21.2010799   46.3858305
  21.1965421   46.3708133
  21.1972961   46.3698526
  21.19751     46.3695469
  21.1994707   46.3479089
  21.1983633   46.3467021
  21.1952638   46.3438601
  21.1902495   46.3396183
  21.1900274   46.3393094
  21.1847765   46.3380289
  21.1762269   46.3357664
  21.1789067   46.3304223
  21.1758854   46.3296206
  21.1774415   46.3234401
  21.176197    46.320911
  21.1731193   46.318443
  21.1805936   46.3041159
  21.1756655   46.3028075
  21.1744024   46.3002549
  21.1738503   46.2999915
  21.1700873   46.2979889
  21.169258    46.2980555
  21.1676588   46.2978175
  21.1662171   46.2978133
  21.1642935   46.2981332
  21.1633884   46.2982144
  21.1596209   46.298364
  21.1544911   46.2984771
  21.1537916   46.2984428
  21.1528372   46.2982261
  21.1515444   46.2975575
  21.1475161   46.2991298
  21.1453362   46.3046349
  21.122567    46.3009339
  21.1155011   46.3016603
  21.1131581   46.2947371
  21.1120886   46.2903256
  21.1117521   46.2898441
  21.1107872   46.2862748
  21.1098176   46.2813864
  21.1091332   46.2779703
  21.1062827   46.2709475
  21.1061476   46.2707383
  21.1035246   46.263537
  21.103161    46.262589
  21.10289     46.26231
  21.101956    46.262484
  21.1014882   46.2634813
  21.1011972   46.2638265
  21.1009154   46.2640279
  21.1003706   46.2640379
  21.099257    46.263674
  21.0981298   46.2629317
  21.0972262   46.2625147
  21.0947632   46.2624274
  21.0942493   46.2622771
  21.093104    46.260742
  21.0925448   46.2603673
  21.091417    46.259625
  21.0908207   46.2584952
  21.0891773   46.258525
  21.0875626   46.2593168
  21.0870088   46.2593269
  21.0869944   46.2589427
  21.0869802   46.2585648
  21.0875052   46.2577927
  21.0874765   46.2570306
  21.086306    46.255148
  21.085194    46.25479
  21.08464     46.2548
  21.0841094   46.2551882
  21.083579    46.255576
  21.083055    46.256346
  21.083068    46.256732
  21.0825233   46.256742
  21.081396    46.256
  21.0810187   46.2552067
  21.079601    46.252226
  21.070879    46.253901
  21.0683319   46.2480804
  21.0661088   46.2429989
  21.0660828   46.2429394
  21.0660516   46.2429499
  21.060118    46.244956
  21.0410174   46.2479615
  21.036624    46.248039
  21.0288585   46.2607431
  21.0246723   46.2665329
  21.020776    46.265076
  21.0164687   46.2635144
  21.015767    46.26326
  21.0113532   46.2625749
  21.0020935   46.260876
  20.9903529   46.2595396
  20.9809051   46.2601585
  20.970656    46.26099
  20.9608171   46.262304
  20.9570163   46.2635092
  20.9526839   46.2651077
  20.950593    46.268187
  20.9496147   46.271632
  20.946585    46.279303
  20.9367819   46.2780801
  20.9250702   46.2766191
  20.9221563   46.2618353
  20.902804    46.267844
  20.890544    46.2713931
  20.887649    46.274571
  20.873271    46.287756
  20.843974    46.282511
  20.8384494   46.2814578
  20.835687    46.2809291
  20.8329159   46.2803987
  20.8064279   46.2766246
  20.7992484   46.2752176
  20.7891546   46.2731213
  20.7832987   46.2736432
  20.775654    46.27596
  20.7707611   46.2775602
  20.7636941   46.2799556
  20.7583154   46.2834594
  20.7518641   46.2881323
  20.7486468   46.2904622
  20.7628918   46.3412853
  20.7613543   46.3447369
  20.7541438   46.3604685
  20.753088    46.3616251
  20.7488765   46.3677826
  20.7440343   46.3712838
  20.7429691   46.3724404
  20.7414294   46.3758918
  20.7389433   46.3843105
  20.6937087   46.3807886
  20.6841129   46.3546497
  20.6823538   46.3512471
  20.6543537   46.35279
  20.623607    46.3547488
  20.6230167   46.353232
  20.6218607   46.351345
  20.6131528   46.35451
  20.6044221   46.3569183
  20.5957122   46.3600819
  20.5957014   46.3597039
  20.5881024   46.363236
  20.5857925   46.3594613
  20.5716718   46.3657466
  20.5739075   46.3672351
  20.5755958   46.3683591
  20.5761633   46.3691139
  20.5772857   46.3698549
  20.5789759   46.371357
  20.5784299   46.3713644
  20.557911    46.3853531
  20.5487323   46.3915691
  20.5521868   46.3972386
  20.5539071   46.3994969
  20.560132    46.4055073
  20.5712389   46.4091704
  20.5717942   46.4091629
  20.5745443   46.4091257
  20.5811352   46.4086521
  20.5827816   46.4082516
  20.5826534   46.4425341
  20.5823899   46.4528219
  20.5950901   46.4537894
  20.6050274   46.4544153
  20.6039905   46.4567109
  20.606218    46.4574427
  20.6041772   46.4631864
  20.6031491   46.465488
  20.6021449   46.4689299
  20.6015889   46.4689376
  20.5988139   46.4682132
  20.5967718   46.4739505
  20.5956578   46.4735877
  20.5956686   46.4739657
  20.5946509   46.4766452
  20.5946619   46.4770294
  20.5963122   46.4770068
  20.5974481   46.4781319
  20.5996675   46.4788639
  20.6008035   46.4799889
  20.6008365   46.4811353
  20.6003002   46.4815208
  20.599766    46.4822907
  20.5992517   46.4834383
  20.5992955   46.4849627
  20.5988249   46.4876348
  20.5994269   46.4895297
  20.5994379   46.4899138
  20.5999851   46.4899063
  20.6017324   46.4929261
  20.6017544   46.4936883
  20.6017983   46.4952127
  20.601286    46.4967447
  20.6024444   46.4986319
  20.6024663   46.4993941
  20.6019958   46.5020661
  20.6042581   46.5039382
  20.6048715   46.5062172
  20.6045091   46.5073152
  20.6043679   46.5077429
  20.6055399   46.5103986
  20.6058583   46.5115613
  20.6061622   46.5126713
  20.6072882   46.5134183
  20.6094982   46.5137721
  20.6106351   46.514897
  20.6112137   46.5156515
  20.6112382   46.516497
  20.6112798   46.5179319
  20.6135321   46.5194257
  20.613053    46.522098
  20.6136428   46.5232367
  20.6136869   46.5247548
  20.613709    46.525517
  20.6142898   46.5266496
  20.6154161   46.5273965
  20.6149828   46.5290603
  20.614915    46.5293128
  20.613252    46.5289515
  20.6107057   46.5362272
  20.6151584   46.5376844
  20.6129586   46.5377149
  20.608563    46.5385381
  20.6082713   46.538688
  20.6047569   46.5404936
  20.579484    46.5640726
  20.5790551   46.5682689
  20.5757778   46.6083033
  20.5753718   46.6136462
  20.5753826   46.6140242
  20.574417    46.6189902
  20.5764483   46.6319127
  20.5692937   46.6331496
  20.571229    46.6430235
  20.5744557   46.659358
  20.5751652   46.6646858
  20.5762829   46.6650489
  20.5750179   46.6791563
  20.5927501   46.6800631
  20.5895244   46.6831508
  20.5869239   46.6889016
  20.5843683   46.6965549
  20.5845643   46.7034084
  20.5841891   46.7095071
  20.5843087   46.7136899
  20.5817062   46.7194406
  20.5848099   46.7312078
  20.5848317   46.73197
  20.5907803   46.7463579
  20.5902305   46.7463654
  20.5943807   46.7558307
  20.5955995   46.7596265
  20.5803091   46.7674523
  20.5781125   46.7682444
  20.5748391   46.7701915
  20.5688292   46.7733158
  20.5628079   46.7760618
  20.5422335   46.7736686
  20.5377948   46.7733487
  20.534467    46.7733923
  20.5217131   46.773174
  20.5078605   46.7733528
  20.5034234   46.7734097
  20.4996691   46.7780325
  20.4964628   46.7822576
  20.4927175   46.7872582
  20.4851022   46.7926858
  20.4812749   46.7950214
  20.4801945   46.7957975
  20.477446    46.7969727
  20.4714264   46.7997137
  20.4681474   46.801664
  20.4659779   46.8035941
  20.4638083   46.8055241
  20.4605375   46.8074679
  20.4583475   46.8086356
  20.4567171   46.8098026
  20.4534467   46.8121242
  20.4500865   46.8110251
  20.447276    46.8095348
  20.4427855   46.8073088
  20.438895    46.8069721
  20.4355257   46.8054946
  20.4338553   46.8051306
  20.4305057   46.804409
  20.4277256   46.8040646
  20.4243859   46.8037207
END
END
