polygon
1
  20.8279707   47.6590164
  20.8289456   47.6582652
  20.830497    47.657159
  20.8311418   47.6568268
  20.8326667   47.6565381
  20.833376    47.6566991
  20.8339147   47.6568779
  20.8343585   47.6570976
  20.8348137   47.6573889
  20.8351399   47.6579382
  20.8355344   47.6594942
  20.8359327   47.6608508
  20.836164    47.6612953
  20.8365813   47.6622968
  20.8374006   47.66245
  20.8378255   47.6616044
  20.8388114   47.6604196
  20.8400184   47.6593755
  20.8429581   47.6574894
  20.8453721   47.6567739
  20.8480489   47.656727
  20.8506614   47.6570341
  20.8528425   47.6583516
  20.8535977   47.6578462
  20.8538442   47.657776
  20.8543373   47.6578731
  20.854563    47.6577568
  20.8546674   47.6576342
  20.8546256   47.657523
  20.8541686   47.6568153
  20.8540908   47.6565483
  20.8545365   47.6562034
  20.8544549   47.6558418
  20.8543734   47.6556694
  20.854307    47.6553755
  20.854307    47.6549603
  20.8544113   47.6545247
  20.8543506   47.6542449
  20.8542918   47.6541121
  20.8542823   47.6536368
  20.8540851   47.6532586
  20.8539429   47.6531833
  20.8537304   47.6529277
  20.8535389   47.6528345
  20.8534365   47.6527208
  20.8534497   47.6526403
  20.8534232   47.6524141
  20.8535635   47.652294
  20.8538556   47.6521407
  20.8540642   47.6520986
  20.8544455   47.6519478
  20.8546427   47.6517498
  20.8546579   47.6509615
  20.8545991   47.6508605
  20.8543829   47.6507622
  20.8543715   47.6506945
  20.8544379   47.6501387
  20.8546446   47.6499419
  20.8553274   47.6496889
  20.8557902   47.6493951
  20.8558717   47.6492954
  20.8558603   47.6491817
  20.8562548   47.6487779
  20.8566019   47.6486732
  20.8568333   47.6486361
  20.8570305   47.6485352
  20.8572278   47.6481276
  20.8572543   47.6479078
  20.8573567   47.6476791
  20.8577493   47.6476331
  20.8581116   47.6475258
  20.8582652   47.6470952
  20.8583942   47.6468895
  20.8587356   47.646694
  20.8588664   47.6463809
  20.859223    47.6459529
  20.859451    47.6457928
  20.8602017   47.6454277
  20.8606682   47.6452463
  20.8616014   47.6447607
  20.8623448   47.6442803
  20.8642149   47.6438024
  20.8677919   47.6430561
  20.8700223   47.6427392
  20.8712854   47.6426728
  20.8730607   47.642752
  20.8753935   47.6429871
  20.876539    47.643281
  20.8774342   47.6436848
  20.878356    47.6445256
  20.87964     47.645981
  20.8801388   47.6486834
  20.8795139   47.6496832
  20.8781094   47.6512528
  20.876357    47.6521024
  20.8733015   47.6531948
  20.868285    47.6545285
  20.8636061   47.6560054
  20.8615431   47.6571335
  20.8598493   47.6584424
  20.8600415   47.658953
  20.8571984   47.6609529
  20.856469    47.6611768
  20.8562502   47.6611584
  20.8550549   47.661554
  20.8553381   47.6631234
  20.8547115   47.6652139
  20.8531827   47.6670781
  20.8522663   47.668604
  20.8517235   47.6707917
  20.8519757   47.6753178
  20.853061    47.675638
  20.854771    47.6759956
  20.8564586   47.6759693
  20.8575868   47.6759516
  20.8749801   47.6733909
  20.8766545   47.6729863
  20.877214    47.6729775
  20.8783551   47.6733375
  20.8788973   47.6725665
  20.8817394   47.6732839
  20.8845153   47.6720993
  20.8861763   47.6713105
  20.889547    47.6708726
  20.8901064   47.6708637
  20.8929311   47.6708187
  20.8940499   47.6708008
  20.8935172   47.6715717
  20.8952181   47.6719289
  20.8980828   47.6730236
  20.8992284   47.6737676
  20.9003833   47.6745116
  20.9009787   47.6752644
  20.9021469   47.6763862
  20.9016318   47.6779193
  20.901099    47.6786902
  20.9005704   47.6798392
  20.8988959   47.6802441
  20.8977677   47.6802622
  20.8955112   47.6802983
  20.8960667   47.6799113
  20.8937836   47.6791853
  20.8932241   47.6791943
  20.8915139   47.6788434
  20.8898128   47.6784862
  20.8892441   47.6784953
  20.8875299   47.6777602
  20.8854725   47.6835078
  20.885499    47.6842698
  20.8850322   47.6869425
  20.8839436   47.6881003
  20.8834238   47.6892552
  20.8834767   47.690773
  20.8835431   47.692681
  20.8835694   47.6934368
  20.8847775   47.6957048
  20.8853769   47.6968358
  20.8865321   47.6975799
  20.8871052   47.6979551
  20.888247    47.698315
  20.8893756   47.698297
  20.8916196   47.6978832
  20.8921128   47.6959724
  20.8920862   47.6952105
  20.8931347   47.6929065
  20.8947428   47.6905937
  20.8980347   47.6878758
  20.9025215   47.6870415
  20.903041    47.6858927
  20.9053378   47.6869963
  20.9105319   47.6903405
  20.9145577   47.6925628
  20.9179881   47.6940323
  20.9202585   47.6943736
  20.9225426   47.695099
  20.9248134   47.6954465
  20.9265285   47.6961749
  20.9270748   47.6957879
  20.9293319   47.6957512
  20.9298872   47.6953641
  20.9310158   47.6953457
  20.9326903   47.6949342
  20.9349201   47.6941354
  20.935507    47.6948882
  20.9350019   47.6964213
  20.9339413   47.6983415
  20.9339821   47.6994814
  20.9328944   47.7006458
  20.9329624   47.7025476
  20.9341729   47.7048151
  20.9359295   47.7066894
  20.9365029   47.7070581
  20.9399439   47.7085267
  20.9416735   47.709639
  20.9434262   47.7111351
  20.9456565   47.7103361
  20.947455    47.7133562
  20.9491985   47.7148462
  20.9503963   47.7167357
  20.9520577   47.7159459
  20.9532142   47.7166893
  20.9589142   47.718114
  20.9623197   47.7188201
  20.9645917   47.7191668
  20.9674235   47.719498
  20.9696816   47.7194605
  20.9752897   47.7186048
  20.9755729   47.7185761
  20.9779384   47.7183361
  20.9842847   47.7176923
  20.9871118   47.7176449
  20.9927898   47.7186964
  20.9945069   47.7194299
  20.9948112   47.7196237
  20.9952055   47.7198748
  20.9956639   47.7201667
  20.9968071   47.7205318
  20.9979644   47.7212747
  20.9985665   47.7224051
  20.9997378   47.7235259
  21.0003352   47.7242782
  21.0003776   47.7254242
  21.0010364   47.7280785
  21.0005328   47.7296118
  21.0005608   47.7303675
  20.999474    47.7315326
  20.9978037   47.7323231
  20.9955964   47.7335008
  20.996782    47.7350057
  20.9962267   47.7353932
  20.996241    47.7357772
  20.9968242   47.7361455
  20.9973843   47.7361361
  20.9957651   47.7380663
  21.0021137   47.7417714
  21.0021417   47.7425271
  21.0015724   47.7425367
  20.9993415   47.7433367
  20.9988096   47.7441081
  20.9977082   47.7448891
  20.9971902   47.7460383
  20.996635    47.746432
  20.9966772   47.7475718
  20.9961594   47.7487272
  20.9962015   47.749867
  20.9967899   47.7506195
  20.9985503   47.7524928
  20.9997083   47.7532357
  21.0043262   47.7558231
  21.0077724   47.7572897
  21.0094766   47.7576389
  21.0134549   47.7583339
  21.021915    47.75819
  21.0252618   47.7569924
  21.0269233   47.7562016
  21.030198    47.753096
  21.0301838   47.7527181
  21.0312132   47.7500351
  21.0322712   47.748114
  21.0333722   47.7473328
  21.0333577   47.7469487
  21.0350332   47.7465418
  21.0361628   47.7465225
  21.0385946   47.751049
  21.0434801   47.7588733
  21.0440053   47.7597144
  21.0434503   47.7601083
  21.04176     47.7601374
  21.0417744   47.7605153
  21.0412193   47.7609091
  21.0418464   47.762417
  21.0424213   47.7627914
  21.0436233   47.7646736
  21.0442218   47.7654257
  21.0464726   47.7653869
  21.0470132   47.7646152
  21.0530018   47.7736545
  21.0530162   47.7740323
  21.0524701   47.7744199
  21.0507848   47.7748334
  21.0485626   47.7756342
  21.0480218   47.7764059
  21.0480362   47.7767838
  21.0492097   47.777904
  21.0492243   47.7782881
  21.0498084   47.7786561
  21.0537598   47.7785878
  21.0554216   47.7777966
  21.0602535   47.7860932
  21.0597656   47.7880046
  21.0597947   47.7887665
  21.0603845   47.7895186
  21.0609688   47.7898866
  21.064921    47.7898179
  21.0660808   47.7905601
  21.0660955   47.7909442
  21.0655985   47.7928558
  21.065067    47.7936274
  21.0656569   47.7943796
  21.0674304   47.7962516
  21.0674597   47.7970135
  21.0669335   47.7981632
  21.0653004   47.7997165
  21.0653149   47.8000943
  21.0670649   47.8015887
  21.0671526   47.8038744
  21.0677518   47.8046264
  21.0683272   47.8049945
  21.0700336   47.805349
  21.0712228   47.8068469
  21.0712376   47.8072309
  21.0706912   47.8076186
  21.0695751   47.8080224
  21.0695896   47.8084002
  21.0701798   47.8091523
  21.0808048   47.8207746
  21.081375    47.8207646
  21.0792007   47.8230837
  21.0786985   47.8246174
  21.0781871   47.8261511
  21.0776406   47.8265388
  21.0765975   47.8288443
  21.0761005   47.8307559
  21.0755688   47.8315276
  21.0755982   47.8322895
  21.0762326   47.8341813
  21.0751249   47.8345788
  21.0739789   47.8342207
  21.0722917   47.8346283
  21.0717453   47.8350221
  21.0712043   47.8357939
  21.0700965   47.8361913
  21.0683947   47.836221
  21.0613015   47.8428216
  21.0596721   47.8447528
  21.058584    47.8459122
  21.0603009   47.8462667
  21.0614618   47.8470089
  21.0614763   47.8473868
  21.0609495   47.8485364
  21.0592711   47.8489498
  21.0576363   47.850503
  21.0520206   47.8517406
  21.0526492   47.8532545
  21.0560648   47.8539578
  21.0572985   47.8566018
  21.0578979   47.8573476
  21.0602257   47.8592163
  21.0613722   47.8595745
  21.0619428   47.8595646
  21.0658857   47.859118
  21.0698138   47.8582873
  21.0715072   47.8582578
  21.0720979   47.8590099
  21.0715511   47.8593975
  21.0710483   47.8609311
  21.0704777   47.860941
  21.0699308   47.8613286
  21.0710922   47.8620708
  21.0745379   47.8635355
  21.0762553   47.8638836
  21.077393    47.864248
  21.0824829   47.8641589
  21.0844952   47.8721194
  21.0847754   47.879348
  21.0860999   47.8842772
  21.0867206   47.8857911
  21.0855881   47.885811
  21.0850855   47.8873446
  21.0834703   47.8896539
  21.0834998   47.8904157
  21.0846769   47.8915418
  21.0875779   47.8933937
  21.0887253   47.8937517
  21.0887402   47.8941357
  21.0893112   47.8941257
  21.0899026   47.8948777
  21.0910647   47.8956134
  21.0916507   47.8959874
  21.0922421   47.8967394
  21.0940405   47.899373
  21.0970016   47.9027484
  21.0981346   47.9027284
  21.0992973   47.9034703
  21.1010311   47.9042021
  21.1038589   47.904152
  21.1055685   47.9044999
  21.1078643   47.9052216
  21.114653    47.905101
  21.1163927   47.9062105
  21.1215318   47.9072656
  21.1209997   47.9080313
  21.1210298   47.9087931
  21.1240084   47.9125519
  21.1240386   47.9133137
  21.1246332   47.9149274
  21.1246342   47.915502
  21.1245118   47.9162176
  21.1245695   47.9162851
  21.124189    47.9171168
  21.1236571   47.9178887
  21.1225539   47.9186708
  21.1202874   47.9187113
  21.1163104   47.9183978
  21.1151623   47.9180402
  21.113467    47.9180703
  21.1100522   47.9177467
  21.1095052   47.9181407
  21.1078007   47.9181709
  21.105618    47.9201125
  21.1045145   47.9208944
  21.1039731   47.9216664
  21.1034707   47.9232
  21.1034855   47.9235779
  21.1029142   47.923588
  21.1027653   47.9197849
  21.1022033   47.9197948
  21.1010402   47.919053
  21.0970041   47.9172214
  21.0942497   47.9191728
  21.0936635   47.9187988
  21.0908202   47.9184707
  21.0914804   47.9207463
  21.0915395   47.9222638
  21.0921165   47.9226379
  21.093324    47.9245196
  21.0933387   47.9248974
  21.0945168   47.9260233
  21.0956799   47.9267652
  21.097405    47.927491
  21.1036793   47.9285268
  21.1054048   47.9292587
  21.1077017   47.9299804
  21.1117691   47.9325734
  21.1129923   47.9348327
  21.1135696   47.9352067
  21.1150031   47.9427989
  21.1181931   47.9518783
  21.1207016   47.9579264
  21.1220012   47.9620932
  21.12312     47.9609157
  21.1248032   47.9601487
  21.1275101   47.9574131
  21.1344992   47.9614905
  21.146025    47.9532673
  21.147171    47.9543731
  21.1484204   47.9562907
  21.1514919   47.9619731
  21.1509192   47.9623333
  21.151047    47.9646164
  21.151596    47.9649709
  21.1753622   47.963041
  21.1835967   47.9575584
  21.1841556   47.9575442
  21.1864745   47.9578714
  21.1875317   47.9571039
  21.1881448   47.9574609
  21.1904066   47.9570347
  21.1915298   47.9574133
  21.1943852   47.95773
  21.1960767   47.9569462
  21.1976998   47.9557841
  21.2000043   47.9545569
  21.211064    47.9498133
  21.2149694   47.9478067
  21.2177875   47.9462631
  21.2188286   47.9458726
  21.2216606   47.9438919
  21.2266452   47.9426481
  21.2294423   47.9418626
  21.2316542   47.9406897
  21.2318377   47.9401667
  21.2336827   47.9349081
  21.236163    47.9332229
  21.2402955   47.9305869
  21.2476234   47.928535
  21.2492957   47.9285138
  21.2514822   47.9281185
  21.2532237   47.927688
  21.2548849   47.9268897
  21.2599092   47.9252701
  21.2615892   47.9244644
  21.2614392   47.9214481
  21.2625098   47.9191231
  21.2630421   47.9187556
  21.2616295   47.9118779
  21.2649173   47.9095639
  21.2709473   47.9048785
  21.2978035   47.9104006
  21.3041645   47.9130052
  21.304288    47.9160326
  21.320399    47.9199288
  21.3401834   47.9214426
  21.3487146   47.9216464
  21.3560886   47.9215006
  21.356041    47.92073
  21.357167    47.9199488
  21.3582613   47.9195503
  21.3588085   47.9191729
  21.3616044   47.9187217
  21.3706583   47.9181705
  21.3758158   47.9191991
  21.3775307   47.9199329
  21.3809915   47.9210052
  21.3877432   47.9201036
  21.3928431   47.9203899
  21.3945416   47.9199731
  21.4002852   47.9206154
  21.4025102   47.9205692
  21.4048196   47.9212844
  21.4070379   47.9212299
  21.4098877   47.9208147
  21.4138268   47.9207285
  21.4167318   47.9221816
  21.418437    47.9225335
  21.42069     47.9221143
  21.4257627   47.9223601
  21.4297699   47.922699
  21.4311794   47.9287452
  21.4362654   47.9275006
  21.4407666   47.9274196
  21.4453521   47.9276634
  21.4533406   47.9282749
  21.4566658   47.9278412
  21.4611912   47.9277601
  21.4723941   47.9256178
  21.4827009   47.9261409
  21.4945869   47.9258953
  21.4967503   47.925477
  21.497392    47.9266021
  21.4974911   47.9285016
  21.4980462   47.9288869
  21.4981255   47.9304011
  21.4993546   47.9322939
  21.4993451   47.9326933
  21.4994341   47.9341796
  21.4996475   47.9341743
  21.5033249   47.9340831
  21.5085207   47.9347521
  21.5096507   47.9343525
  21.5096177   47.93396
  21.5113317   47.9339312
  21.513731    47.9369336
  21.5162208   47.9414437
  21.5196291   47.9413596
  21.5207429   47.9409658
  21.5235512   47.9405193
  21.5290959   47.938881
  21.5330842   47.9380308
  21.5454115   47.935116
  21.5509709   47.9334696
  21.5554426   47.932228
  21.558746    47.9310268
  21.5627861   47.9301442
  21.5655327   47.9297227
  21.5654905   47.9289639
  21.5630767   47.9260195
  21.5600749   47.9218477
  21.5575752   47.9173281
  21.5575186   47.916191
  21.5568832   47.91435
  21.5556538   47.9101527
  21.5555357   47.9097494
  21.5536148   47.9059558
  21.5559999   47.8964298
  21.5552589   47.8925975
  21.5545505   47.8895837
  21.5590688   47.8887135
  21.5623929   47.8882766
  21.5658285   47.888583
  21.5628457   47.8856051
  21.5628334   47.8852104
  21.5615826   47.8829571
  21.558566    47.8792068
  21.5561195   47.8750955
  21.5558314   47.868993
  21.5540043   47.8663668
  21.554502    47.8648289
  21.5538034   47.862178
  21.5537436   47.8602802
  21.5517816   47.8549732
  21.5522933   47.8542025
  21.5521648   47.8515172
  21.5515308   47.8500348
  21.5507853   47.8462784
  21.54883     47.8406538
  21.5474442   47.8360113
  21.5467215   47.8322333
  21.5447024   47.8257473
  21.5451928   47.8230678
  21.5444952   47.8207848
  21.5443334   47.8178573
  21.5448096   47.8155092
  21.5452168   47.812019
  21.5445701   47.8113756
  21.5443546   47.805617
  21.5446431   47.8003156
  21.5445462   47.7980881
  21.541329    47.7904654
  21.5464383   47.7891903
  21.5513872   47.7871662
  21.558372    47.7846371
  21.5603296   47.7839282
  21.5658382   47.7823188
  21.5659879   47.7822633
  21.5714764   47.7802288
  21.5741351   47.7791119
  21.5781487   47.7786172
  21.5796816   47.7774584
  21.5874894   47.7746256
  21.5902619   47.7737831
  21.5907254   47.773614
  21.5957876   47.7717666
  21.6110202   47.7588509
  21.6121315   47.7584434
  21.6137649   47.7572095
  21.6142195   47.7561681
  21.6164623   47.7545103
  21.6164254   47.7533605
  21.6157508   47.7511693
  21.6213254   47.7494546
  21.6212581   47.748696
  21.624087    47.7478695
  21.6240365   47.7474959
  21.6268082   47.7466731
  21.6261769   47.7455537
  21.6267331   47.74515
  21.6272451   47.7440072
  21.627219    47.7428648
  21.6282069   47.7409479
  21.6268692   47.736754
  21.6279429   47.7356185
  21.6312536   47.7336296
  21.6323312   47.7328584
  21.6355901   47.7297328
  21.6360988   47.7293443
  21.6378142   47.7289068
  21.6389439   47.7288978
  21.6395042   47.7292631
  21.6423162   47.7292016
  21.6485396   47.7282877
  21.6490223   47.7275176
  21.6512394   47.7270911
  21.6569109   47.7269608
  21.6614379   47.7276214
  21.6619717   47.7268275
  21.6636615   47.7264215
  21.6652995   47.7263925
  21.6670324   47.7259691
  21.6721127   47.7258562
  21.6738089   47.7261953
  21.6777603   47.7261095
  21.6794731   47.7264447
  21.6795249   47.7279699
  21.6802092   47.7306238
  21.6853173   47.7304919
  21.6881624   47.7308326
  21.6886747   47.7308006
  21.6892616   47.7311805
  21.6915463   47.7315067
  21.6933137   47.7322315
  21.694359    47.7318256
  21.7001267   47.733227
  21.7023769   47.7323838
  21.7039833   47.7316042
  21.7066179   47.7289064
  21.7071971   47.728109
  21.7076821   47.725753
  21.7081763   47.7250426
  21.7092447   47.7238682
  21.7097566   47.7223276
  21.7130155   47.7195468
  21.7140134   47.7172797
  21.7160676   47.7137584
  21.7191053   47.706877
  21.7208603   47.7076147
  21.7220081   47.7079646
  21.7225672   47.7083342
  21.7247705   47.7082601
  21.7270995   47.7085983
  21.7288051   47.708937
  21.7310432   47.7088887
  21.7344277   47.7080438
  21.7355166   47.7076345
  21.7360366   47.7072582
  21.73999     47.7071658
  21.7422267   47.7067235
  21.7439141   47.706301
  21.7461168   47.7058695
  21.7478087   47.7058323
  21.7500748   47.7053834
  21.7534657   47.7056934
  21.7574545   47.7063607
  21.7614055   47.706268
  21.7625141   47.7066311
  21.7665162   47.7069117
  21.7681843   47.7057135
  21.7692438   47.7053306
  21.7714976   47.7052713
  21.7708452   47.7033913
  21.7705386   47.6972945
  21.7698353   47.6950316
  21.7679537   47.6912649
  21.7679377   47.6908913
  21.7650051   47.6886794
  21.7637956   47.6871674
  21.7678082   47.6867045
  21.773969    47.6869216
  21.7762326   47.6876337
  21.7785879   47.6871817
  21.7907807   47.6853898
  21.7959068   47.6852618
  21.7968334   47.6829546
  21.7979899   47.6825321
  21.7985203   47.6821465
  21.7995173   47.6798612
  21.8005993   47.67869
  21.8005356   47.6779186
  21.8020739   47.6748348
  21.8025973   47.6740584
  21.8048632   47.6740008
  21.8065646   47.6743422
  21.8088042   47.6742973
  21.8116204   47.6738476
  21.812727    47.6734407
  21.819492    47.6728911
  21.8228178   47.6724354
  21.8244991   47.6723943
  21.8256171   47.6719846
  21.8261379   47.6712045
  21.8272251   47.6704233
  21.8305416   47.6692012
  21.8361819   47.6690597
  21.8401404   47.6693608
  21.8412705   47.6696832
  21.8424713   47.6704443
  21.844215    47.6719198
  21.8476746   47.6733561
  21.8506047   47.6751988
  21.8523128   47.6755257
  21.8556989   47.6754488
  21.855914    47.6796342
  21.8565105   47.6799988
  21.8571383   47.6811665
  21.8577274   47.6818745
  21.8578031   47.6833766
  21.8584646   47.6849126
  21.8596262   47.6856417
  21.8635816   47.6855572
  21.8647353   47.6859112
  21.8652925   47.6862651
  21.8658889   47.6870154
  21.8664619   47.6869942
  21.8670348   47.687364
  21.8676548   47.6881195
  21.8682198   47.6880993
  21.86935     47.6884576
  21.8704644   47.6884259
  21.8716651   47.6895301
  21.872836    47.6899015
  21.8734451   47.6910431
  21.8734702   47.6917827
  21.8740478   47.6917658
  21.8746757   47.6928984
  21.8746882   47.6932872
  21.8752857   47.6936467
  21.8758322   47.6936251
  21.8764269   47.6939875
  21.8770256   47.6947408
  21.8781842   47.6951109
  21.8787414   47.6954595
  21.8804704   47.6958018
  21.8810488   47.696162
  21.8822181   47.6965318
  21.8833954   47.6972819
  21.8839953   47.6980058
  21.8840311   47.6991359
  21.8846197   47.6995003
  21.8847952   47.7025679
  21.884243    47.7029599
  21.8842508   47.7033243
  21.8854874   47.7051862
  21.88553     47.7059703
  21.8850206   47.7067412
  21.8855945   47.7071022
  21.8861923   47.7078551
  21.8862537   47.7089897
  21.8869023   47.7104863
  21.8872373   47.7166081
  21.8867076   47.7173539
  21.8867646   47.7185058
  21.8858865   47.7231043
  21.8870882   47.7242015
  21.8870882   47.724579
  21.8877481   47.7261012
  21.890101    47.7264355
  21.8917565   47.7267819
  21.8939883   47.7270706
  21.8968823   47.7281512
  21.8987917   47.7284387
  21.9076821   47.7294143
  21.9082154   47.7286461
  21.9087666   47.7282522
  21.9179373   47.7310612
  21.9197031   47.7321763
  21.9242745   47.7332054
  21.9263177   47.7289516
  21.9319622   47.7295606
  21.9340776   47.726469
  21.9351506   47.7253055
  21.9362947   47.7256574
  21.9380026   47.7263645
  21.9395811   47.7240735
  21.941757    47.7228647
  21.9434561   47.7224303
  21.9451728   47.7223907
  21.9468209   47.7219683
  21.9478947   47.7211702
  21.9483709   47.720061
  21.9488799   47.7184918
  21.9488718   47.7183815
  21.9488516   47.7181074
  21.9482349   47.7173594
  21.9487339   47.7162132
  21.9487241   47.7158172
  21.9492833   47.7154212
  21.9509433   47.7153769
  21.9526776   47.7160878
  21.9538156   47.7153024
  21.9542875   47.7145595
  21.954875    47.7145367
  21.955395    47.7141473
  21.9559836   47.7141011
  21.9576415   47.7136984
  21.9584714   47.7130719
  21.9591915   47.7114146
  21.96019     47.7090539
  21.963014    47.7086114
  21.9641358   47.7081998
  21.9646165   47.7074473
  21.9657349   47.7070182
  21.9657152   47.7066419
  21.9674124   47.7065957
  21.9691292   47.706939
  21.9718992   47.706466
  21.9752703   47.7063844
  21.9814123   47.7051023
  21.9853747   47.7049981
  21.9859339   47.7045888
  21.9870153   47.7042153
  21.9868414   47.7007747
  21.9861623   47.6988453
  21.9838688   47.6977845
  21.9837526   47.6959119
  21.9831551   47.6958973
  21.9831443   47.6951516
  21.9819278   47.6936529
  21.9818843   47.6928998
  21.982384    47.6917227
  21.9817997   47.6913646
  21.9816236   47.688352
  21.9820907   47.6864144
  21.9815259   47.6860561
  21.9819929   47.6848642
  21.9819929   47.6844986
  21.9824926   47.684133
  21.9819386   47.6837308
  21.9818843   47.6829922
  21.9813195   47.6829922
  21.9807558   47.6826271
  21.9801267   47.6815248
  21.9799481   47.6784966
  21.9809612   47.6757615
  21.9814941   47.6753856
  21.9843258   47.6753208
  21.9876495   47.6755921
  21.9888141   47.6755672
  21.9905092   47.6751392
  21.9916072   47.6755024
  21.9933432   47.6758204
  21.9932831   47.6754505
  21.9938418   47.6746723
  21.993784    47.6735179
  21.9953441   47.6712218
  21.9969046   47.6693021
  21.9979833   47.6684849
  21.9995907   47.6669375
  22.0001793   47.6672785
  22.0023561   47.6664871
  22.0040897   47.6663963
  22.0052474   47.6667619
  22.0062426   47.664457
  22.0084579   47.6636441
  22.0096375   47.6643596
  22.0113281   47.6646689
  22.0112556   47.663192
  22.0106392   47.6621022
  22.010609    47.6617066
  22.0082021   47.6583162
  22.0056886   47.6538113
  22.0037623   47.6500741
  22.0031266   47.6493085
  22.0029883   47.6469779
  22.003377    47.6435594
  22.0032807   47.6416256
  22.0037509   47.6404946
  22.0042631   47.6389778
  22.004764    47.6381991
  22.0052263   47.6370828
  22.0063435   47.6366415
  22.0063379   47.6362749
  22.0090404   47.6334872
  22.0117134   47.631555
  22.0131265   47.6309484
  22.0144341   47.6303328
  22.0172657   47.6298914
  22.0178244   47.6298525
  22.019522    47.6294529
  22.0188887   47.6286808
  22.0182626   47.6275611
  22.0182051   47.6267776
  22.0192161   47.6249127
  22.0197073   47.6233336
  22.0206705   47.6214469
  22.0217944   47.6202422
  22.023541    47.6202086
  22.0268819   47.6208647
  22.0269621   47.6220056
  22.0259142   47.6236052
  22.0254211   47.6247165
  22.0254478   47.6250885
  22.0265926   47.626175
  22.0272861   47.6273564
  22.027864    47.6277199
  22.0289507   47.627667
  22.0296362   47.6284469
  22.03189     47.6291479
  22.0319092   47.6298879
  22.0336044   47.629823
  22.0359545   47.630537
  22.0370717   47.6312639
  22.0382007   47.6316297
  22.0423306   47.6342106
  22.0446614   47.6360409
  22.0453164   47.6371702
  22.0459328   47.6386498
  22.0471953   47.6402498
  22.0478398   47.641661
  22.0484755   47.6428031
  22.0496121   47.6438933
  22.0508449   47.6454118
  22.0532335   47.647618
  22.0544664   47.6494997
  22.0551598   47.6517576
  22.0551791   47.6525621
  22.0577026   47.6559358
  22.0594112   47.6573483
  22.0618203   47.659985
  22.0618825   47.6615107
  22.063177    47.6641158
  22.0632399   47.6652736
  22.0644098   47.6660047
  22.0650879   47.6678935
  22.065219    47.6701865
  22.0658122   47.6705605
  22.0669372   47.6708718
  22.0737486   47.6718369
  22.0754598   47.6718081
  22.076496    47.6702557
  22.0776001   47.669471
  22.0780624   47.6682906
  22.0791219   47.6675382
  22.0813564   47.6667209
  22.0834855   47.6647541
  22.0863059   47.6642702
  22.0879702   47.6634649
  22.0907441   47.6626512
  22.0929139   47.6618541
  22.0962672   47.6609739
  22.0979192   47.6609241
  22.0996575   47.6601269
  22.1012602   47.6596952
  22.1040464   47.6584745
  22.1045727   47.6580773
  22.1044903   47.6565729
  22.1032081   47.6543059
  22.102604    47.6535668
  22.1024931   47.651665
  22.101889    47.6509341
  22.101773    47.6490312
  22.1022958   47.6482599
  22.1038323   47.6455451
  22.1043269   47.6443695
  22.1042653   47.6432399
  22.1047707   47.6424674
  22.1052392   47.6405818
  22.1057447   47.6397844
  22.1056676   47.6386511
  22.1062131   47.6378821
  22.1067063   47.6367191
  22.1072734   47.6362954
  22.1066402   47.6355633
  22.106546    47.6340441
  22.1053288   47.6321569
  22.104142    47.6310366
  22.1073597   47.6283115
  22.1078535   47.6275258
  22.1084384   47.6275051
  22.1093199   47.6232846
  22.1103185   47.6213734
  22.110826    47.6205779
  22.111613    47.620009
  22.1119212   47.6197862
  22.112439    47.6186394
  22.1140787   47.617825
  22.1155951   47.6151075
  22.1177102   47.6127732
  22.1187679   47.6112267
  22.1186303   47.6089365
  22.1191605   47.6085662
  22.1190672   47.6070309
  22.1173212   47.6059303
  22.1172983   47.6055426
  22.1183526   47.6039879
  22.1188733   47.6036155
  22.1210589   47.6027875
  22.121627    47.6027749
  22.1227458   47.6023495
  22.1233372   47.6027167
  22.1238688   47.6023184
  22.1249769   47.6019187
  22.1254346   47.6003881
  22.1259632   47.599616
  22.1259547   47.5992191
  22.126467    47.5988197
  22.1281644   47.598019
  22.1291438   47.5971411
  22.1297902   47.5948238
  22.1285342   47.5920506
  22.1285184   47.5914926
  22.1290797   47.5901515
  22.1291903   47.5896062
  22.1291585   47.5892447
  22.1288442   47.5888019
  22.1280816   47.5882512
  22.1272712   47.5879425
  22.1255112   47.5877478
  22.1249093   47.5873544
  22.1243535   47.5865441
  22.1233121   47.5855664
  22.1221647   47.5843879
  22.1218153   47.5839665
  22.1215745   47.5835286
  22.1213944   47.582113
  22.1189716   47.5790032
  22.1181925   47.57873
  22.1174298   47.5780782
  22.1160438   47.577556
  22.1155633   47.5772156
  22.1151904   47.5766687
  22.1152267   47.5761504
  22.1151713   47.5758424
  22.1143905   47.5752253
  22.1129815   47.5747539
  22.1117467   47.574933
  22.111194    47.574962
  22.1105966   47.5749081
  22.1101999   47.5748168
  22.1098267   47.5746794
  22.1094712   47.5744633
  22.108597    47.5738269
  22.1082926   47.573633
  22.1076325   47.5734485
  22.107096    47.5733841
  22.1064326   47.5733384
  22.1051484   47.5728166
  22.1048855   47.5726632
  22.1036688   47.5713386
  22.1036056   47.5708654
  22.1033128   47.5703232
  22.1028312   47.568803
  22.1026618   47.5677188
  22.1025106   47.5672103
  22.102285    47.5667743
  22.101616    47.5660168
  22.1014566   47.565831
  22.1012538   47.5654868
  22.1008276   47.5646845
  22.1003476   47.5640365
  22.0990432   47.5626677
  22.0983064   47.5619293
  22.0972255   47.5609722
  22.0952427   47.5595971
  22.0937016   47.5581442
  22.0906472   47.5574357
  22.0902478   47.5580855
  22.0888193   47.5596158
  22.0867945   47.561066
  22.0858552   47.5609163
  22.0851013   47.5610424
  22.0825028   47.5613088
  22.0792102   47.5622816
  22.0749321   47.5607425
  22.0743107   47.5608249
  22.0741406   47.5599035
  22.0737061   47.559032
  22.0734762   47.5586769
  22.07325     47.5584035
  22.0726773   47.5578707
  22.0720843   47.5574321
  22.0718613   47.5572932
  22.0711336   47.5569691
  22.0704466   47.556605
  22.0701439   47.5565456
  22.0697042   47.5563928
  22.0684283   47.555861
  22.068137    47.5557852
  22.0675298   47.5557556
  22.0675977   47.5552348
  22.0670156   47.554942
  22.066533    47.554724
  22.0662451   47.5546127
  22.0659942   47.554563
  22.0644938   47.5543593
  22.0632071   47.5539408
  22.0604969   47.5523176
  22.0580034   47.550957
  22.0579283   47.5506207
  22.0572033   47.5498785
  22.0552504   47.5485163
  22.054587    47.5469331
  22.0621101   47.5431006
  22.0621349   47.5427656
  22.0713566   47.5379795
  22.0615323   47.5290091
  22.0454907   47.5398049
  22.0440531   47.5386039
  22.0432717   47.5370495
  22.0415723   47.5352646
  22.0405376   47.5338745
  22.0395164   47.5327819
  22.0387736   47.531994
  22.0380162   47.5314153
  22.0375023   47.5310773
  22.0360342   47.5295277
  22.035833    47.5291624
  22.0315975   47.5261522
  22.0309286   47.5253264
  22.0308704   47.5252442
  22.0307033   47.5249551
  22.0306335   47.5248554
  22.030604    47.5247694
  22.0297283   47.5239806
  22.029049    47.5237532
  22.0285884   47.5231964
  22.0269951   47.5221458
  22.0262326   47.5211327
  22.0256351   47.5206703
  22.0241721   47.5199758
  22.0236504   47.5191824
  22.0231032   47.5180791
  22.0229597   47.5178624
  22.021529    47.5156479
  22.020135    47.5138162
  22.0192623   47.5124544
  22.0190907   47.5122008
  22.0187795   47.511679
  22.0163114   47.505056
  22.0157321   47.5044413
  22.0140207   47.5029327
  22.0135365   47.5024432
  22.0131331   47.5020112
  22.0126909   47.5014221
  22.0121626   47.5000157
  22.0123965   47.4987238
  22.012225    47.4971388
  22.0116517   47.4949497
  22.0115353   47.4942791
  22.0109617   47.4916581
  22.0108618   47.4907712
  22.0104429   47.4896967
  22.009247    47.4877159
  22.0083495   47.4863224
  22.0078514   47.485211
  22.0072486   47.4837783
  22.0070836   47.4833085
  22.0075274   47.4801437
  22.0076558   47.4788867
  22.0076081   47.4779916
  22.0074286   47.4758539
  22.008889    47.47418
  22.0114104   47.4720671
  22.0127808   47.4706866
  22.0128285   47.4699079
  22.0128743   47.4697728
  22.0130064   47.4694281
  22.0135376   47.4685486
  22.0131586   47.4676661
  22.013268    47.467182
  22.0137071   47.4661595
  22.0139088   47.4654887
  22.0144022   47.4651161
  22.0146618   47.4648866
  22.0159578   47.4627748
  22.0167914   47.4613254
  22.0176085   47.4599858
  22.0205303   47.4552786
  22.0208875   47.4545338
  22.0309755   47.4515616
  22.0326661   47.4510511
  22.0327717   47.451021
  22.032832    47.4510022
  22.0286626   47.4443409
  22.0259466   47.4423848
  22.0260852   47.4419808
  22.0268625   47.4411318
  22.0273197   47.4405587
  22.0276001   47.4401051
  22.027935    47.4392338
  22.0279789   47.4389267
  22.0279808   47.4388424
  22.0278852   47.4383371
  22.0280254   47.4380128
  22.0282611   47.4377564
  22.0286386   47.4374482
  22.0293491   47.4370345
  22.0299878   47.4365669
  22.0302029   47.4361273
  22.0307109   47.4357189
  22.0313411   47.4347189
  22.0327914   47.4319196
  22.0352604   47.4274336
  22.0319166   47.4262901
  22.0338538   47.4241617
  22.0297011   47.4227478
  22.0336372   47.4184313
  22.034481    47.417096
  22.0350485   47.4161834
  22.035534    47.413191
  22.0280468   47.400564
  22.0277297   47.4000207
  22.0249287   47.3952202
  22.0244276   47.3932976
  22.0231184   47.39084
  22.022302    47.3896984
  22.0194583   47.3877012
  22.018852    47.3870146
  22.0168964   47.3841168
  22.0154101   47.3821797
  22.0136816   47.3787308
  22.0128724   47.3780538
  22.0120025   47.3761479
  22.0119295   47.375748
  22.0110115   47.3761602
  22.0100042   47.3764451
  22.0084597   47.3767771
  22.0084705   47.3770272
  22.0030529   47.3770105
  22.0006802   47.3769035
  21.9994236   47.377104
  21.997328    47.3776423
  21.9966976   47.3780687
  21.9963602   47.3788424
  21.9962979   47.3794777
  21.9961448   47.3800248
  21.9950117   47.3809461
  21.9930697   47.3810116
  21.9903828   47.3814788
  21.9891166   47.3808892
  21.9885938   47.3809426
  21.9879981   47.3809976
  21.9866402   47.3814683
  21.9849978   47.3801888
  21.9833338   47.3794834
  21.9804186   47.3788899
  21.9785517   47.3782614
  21.9753406   47.378252
  21.9750996   47.3801456
  21.968466    47.3805094
  21.965498    47.3807601
  21.961528    47.3812018
  21.9614305   47.3800411
  21.9607233   47.3793159
  21.9595591   47.3786685
  21.958833    47.3778901
  21.9559487   47.3761659
  21.9536062   47.3749294
  21.9530382   47.374693
  21.9526269   47.374612
  21.9512605   47.3746206
  21.950658    47.3751609
  21.9504123   47.375259
  21.949475    47.3752253
  21.9481732   47.3750575
  21.9477806   47.375033
  21.9473869   47.375096
  21.9470621   47.3751867
  21.9464772   47.3752341
  21.9452945   47.375192
  21.943497    47.374743
  21.94221     47.3741358
  21.9396431   47.3732946
  21.9387608   47.3730228
  21.9385227   47.3729991
  21.9383966   47.3713297
  21.9393918   47.3697288
  21.9397047   47.3679624
  21.9397102   47.367641
  21.9376939   47.3662102
  21.9365444   47.3640622
  21.9356589   47.3616418
  21.9346608   47.3603227
  21.9301966   47.3564976
  21.9252693   47.3535753
  21.923664    47.349957
  21.9234731   47.3479513
  21.9231494   47.3453495
  21.9232508   47.3441341
  21.9224626   47.3435199
  21.9218011   47.3424531
  21.9215822   47.3414562
  21.9206816   47.3406832
  21.9195115   47.3391182
  21.9186619   47.3375932
  21.9179837   47.3370229
  21.9173517   47.3366783
  21.9166416   47.3362165
  21.9158138   47.3355326
  21.9147463   47.334325
  21.9135315   47.332456
  21.9107176   47.3301044
  21.9080257   47.3288289
  21.9078623   47.3274699
  21.9073829   47.3262505
  21.9063136   47.3251213
  21.905124    47.3228615
  21.9045165   47.3222321
  21.9035441   47.3215911
  21.902261    47.3207282
  21.901207    47.319734
  21.9011499   47.3196722
  21.8999097   47.3183292
  21.898792    47.3175882
  21.8961839   47.3163142
  21.89534     47.3148628
  21.8941173   47.3099307
  21.8940455   47.3095865
  21.8931518   47.3061082
  21.8926946   47.3051355
  21.8890372   47.2967009
  21.888772    47.295919
  21.888231    47.2948396
  21.8876862   47.2944422
  21.8858067   47.2934627
  21.884984    47.29161
  21.884809    47.2911753
  21.8861661   47.2897309
  21.885779    47.2893455
  21.8842415   47.289198
  21.8821056   47.2888067
  21.8793456   47.2876874
  21.8787323   47.287407
  21.8782156   47.2861156
  21.8781018   47.2852923
  21.8784202   47.2843998
  21.8792613   47.2834228
  21.8811274   47.2818204
  21.8853188   47.2791203
  21.8881706   47.2778906
  21.887754    47.277337
  21.8871791   47.2765025
  21.8863294   47.2752689
  21.8868409   47.2742029
  21.8873743   47.2731006
  21.8878583   47.2721232
  21.8869173   47.2708163
  21.8847513   47.2690576
  21.8816242   47.2666863
  21.8813255   47.2664788
  21.8799854   47.2648416
  21.8790841   47.2650066
  21.877759    47.2650244
  21.8765041   47.2649282
  21.8748741   47.2641827
  21.8746247   47.2639441
  21.8725972   47.2635373
  21.8721108   47.2634333
  21.8718467   47.2632808
  21.8701357   47.26184
  21.8666099   47.2585544
  21.8652643   47.256817
  21.8643002   47.2528278
  21.8628174   47.250951
  21.861375    47.2499899
  21.859999    47.2487778
  21.8583536   47.2466253
  21.8581894   47.2466203
  21.8580619   47.2465491
  21.8579271   47.2463613
  21.8578468   47.2460183
  21.8578456   47.245843
  21.8579761   47.2455983
  21.8581915   47.2453815
  21.8583429   47.2449143
  21.8581433   47.244382
  21.8578056   47.2437569
  21.8576054   47.2435449
  21.8570057   47.2432474
  21.8518316   47.2392442
  21.8494352   47.2303787
  21.8486681   47.230104
  21.846852    47.2238183
  21.8475958   47.2230605
  21.8485167   47.2219832
  21.8502618   47.2217653
  21.8517692   47.2212212
  21.8536055   47.2210854
  21.8542291   47.2203555
  21.858132    47.2201824
  21.8592399   47.2103956
  21.8591851   47.2071835
  21.8593604   47.2069446
  21.8594804   47.2067338
  21.8595686   47.2064687
  21.8596807   47.2054377
  21.8598847   47.20345
  21.8592358   47.1968325
  21.859222    47.1967296
  21.8591373   47.1960311
  21.8589575   47.1939464
  21.8580663   47.1873597
  21.8580152   47.1870085
  21.8563533   47.187135
  21.8561671   47.1870319
  21.8556834   47.1867124
  21.8543576   47.1861839
  21.8538237   47.186032
  21.8533711   47.1857171
  21.852974    47.1855575
  21.8475406   47.1844544
  21.840112    47.1783428
  21.8386698   47.1771809
  21.8358471   47.1774181
  21.8310117   47.1788642
  21.8302896   47.1767976
  21.8295231   47.1750473
  21.8292377   47.1747876
  21.8270295   47.1742455
  21.8259621   47.173986
  21.824949    47.1733048
  21.8225047   47.173725
  21.8222872   47.1737047
  21.8197552   47.1724013
  21.8175189   47.172799
  21.8127224   47.1656043
  21.8119965   47.1659068
  21.8038795   47.1463314
  21.8032375   47.1444493
  21.8004326   47.1371624
  21.8027897   47.1363934
  21.8011592   47.1337269
  21.800347    47.1306584
  21.7985426   47.127861
  21.7966791   47.1281222
  21.7956481   47.1276241
  21.793388    47.1261807
  21.7928537   47.1257693
  21.7919929   47.1247649
  21.7919374   47.1246866
  21.7914168   47.1240009
  21.7912006   47.1227716
  21.7914302   47.121211
  21.7921691   47.1198034
  21.7916768   47.1191583
  21.7916528   47.1191265
  21.7913349   47.1186529
  21.7912799   47.118611
  21.7911612   47.1185373
  21.7891621   47.1165832
  21.7920523   47.1156146
  21.7891902   47.1129259
  21.792771    47.1113368
  21.7923491   47.1109494
  21.7912313   47.1093875
  21.7916773   47.1085787
  21.791845    47.1082464
  21.7921895   47.1081032
  21.7927445   47.1079016
  21.7927559   47.1075852
  21.7927546   47.1069923
  21.792582    47.1065886
  21.7923037   47.1063386
  21.7915868   47.106051
  21.7912357   47.1059739
  21.7908117   47.105951
  21.7900557   47.1060757
  21.7864091   47.1067571
  21.7851192   47.1069463
  21.7834069   47.1073631
  21.7805063   47.1077376
  21.7785806   47.1078928
  21.7757213   47.1083499
  21.7742578   47.1085535
  21.7731486   47.1088525
  21.772784    47.1089412
  21.7718459   47.1089496
  21.7708434   47.1088943
  21.7702543   47.1085998
  21.769739    47.1083662
  21.767132    47.1082176
  21.7652614   47.1079418
  21.762156    47.1073874
  21.7594495   47.1066918
  21.7544292   47.1056696
  21.7516843   47.1056429
  21.7511753   47.1050615
  21.7260956   47.0985272
  21.7250753   47.0965094
  21.7248027   47.0961266
  21.7243173   47.0954905
  21.7240136   47.0943251
  21.7239106   47.0941487
  21.7237586   47.0939087
  21.7232688   47.0937745
  21.722212    47.0934729
  21.7215119   47.0931098
  21.7211067   47.0928983
  21.7209692   47.0927401
  21.7207783   47.0917895
  21.7203525   47.0916054
  21.7197943   47.0913482
  21.7194947   47.0909218
  21.7180502   47.089708
  21.7178354   47.0881242
  21.7161975   47.0863298
  21.7149457   47.0849114
  21.7132043   47.0833016
  21.7128186   47.0826272
  21.7126442   47.081517
  21.7126      47.0803958
  21.7130643   47.079973
  21.7139418   47.0794968
  21.7163703   47.0748772
  21.7082896   47.0714261
  21.7068249   47.0720603
  21.7052419   47.0715259
  21.7062853   47.0699983
  21.701289    47.068345
  21.7047517   47.0634028
  21.6956559   47.0604214
  21.6974402   47.0579809
  21.6924279   47.0565232
  21.6885721   47.0555544
  21.6896637   47.0535468
  21.6873569   47.0529713
  21.6847642   47.0522921
  21.6848059   47.0521588
  21.6842598   47.0517837
  21.6834989   47.0511847
  21.683389    47.0507176
  21.6836454   47.0501846
  21.6831874   47.0483426
  21.6826156   47.0457099
  21.6813366   47.0452555
  21.680893    47.0448276
  21.6804242   47.0447346
  21.6800429   47.0447787
  21.6790342   47.0449527
  21.6786038   47.0450588
  21.6776596   47.0454283
  21.6774552   47.0454096
  21.6768301   47.0447626
  21.6765479   47.0446727
  21.6750553   47.0447163
  21.6747004   47.0449093
  21.6742586   47.0449855
  21.6738571   47.0447726
  21.673668    47.044624
  21.6726586   47.0446604
  21.6713392   47.0445511
  21.6707452   47.044437
  21.6701949   47.0444719
  21.6695086   47.0439978
  21.6684572   47.0441428
  21.6678582   47.0442027
  21.6665123   47.0437269
  21.6655958   47.0435822
  21.6643854   47.0432637
  21.6623997   47.0416607
  21.6617574   47.0414872
  21.6605747   47.041619
  21.659941    47.0415247
  21.6586209   47.0411142
  21.6576026   47.0408252
  21.6568659   47.0407494
  21.6561002   47.0407078
  21.6504392   47.0409308
  21.6491331   47.0406341
  21.6487388   47.0404368
  21.6485518   47.0401536
  21.6486694   47.0394295
  21.6486832   47.038758
  21.6490134   47.0365465
  21.6494532   47.036521
  21.6500711   47.0337995
  21.6519703   47.0315175
  21.6530021   47.0309752
  21.6548079   47.0282324
  21.65923     47.0226328
  21.6582346   47.0215505
  21.6576071   47.0212259
  21.6535349   47.0195713
  21.6520998   47.0189488
  21.6501375   47.0185078
  21.6462245   47.0182124
  21.6434257   47.0178977
  21.6419847   47.0177248
  21.6413825   47.0217516
  21.6398822   47.0252149
  21.634818    47.0241887
  21.6325161   47.0227153
  21.6285479   47.0212796
  21.627397    47.0205429
  21.6273052   47.0186412
  21.6260995   47.0167647
  21.6266424   47.016368
  21.6283088   47.0163303
  21.6282905   47.0159525
  21.6265506   47.0144663
  21.6254      47.0137296
  21.6253818   47.0133517
  21.6242679   47.0133769
  21.6237337   47.0137672
  21.6226383   47.0141763
  21.6192782   47.0138676
  21.620319    47.0123249
  21.6196933   47.0108135
  21.6229707   47.0095987
  21.6229522   47.0092146
  21.6234954   47.0088241
  21.624011    47.0080497
  21.6234402   47.0076782
  21.6212127   47.0077284
  21.6211945   47.0073505
  21.6206146   47.0069791
  21.6205782   47.0062234
  21.6189121   47.0062609
  21.6188755   47.005499
  21.6185119   47.0050668
  21.6184002   47.0051157
  21.614971    47.0045023
  21.611925    47.0034559
  21.6063787   47.0004468
  21.6034899   46.9982234
  21.5990264   46.9979387
  21.5956497   46.9972576
  21.5912046   46.9973567
  21.5878819   46.9978089
  21.5758742   46.9988414
  21.5755145   46.9989068
  21.5718928   47.0012144
  21.5706838   47.0016095
  21.5691848   47.0027935
  21.5680174   47.0016783
  21.5679815   47.0009163
  21.5674292   47.0009285
  21.5674113   47.0005507
  21.566796    46.9994171
  21.5648255   46.9929868
  21.5573959   46.9889585
  21.5573781   46.9885807
  21.5535653   46.9783771
  21.5628048   46.961791
  21.5577659   46.9611393
  21.557187    46.9607676
  21.5566351   46.9607797
  21.5549436   46.9604386
  21.5549256   46.9600546
  21.5538219   46.9600788
  21.5526914   46.9597254
  21.5493354   46.9594208
  21.5487835   46.9594329
  21.5482047   46.9590611
  21.5476708   46.9594572
  21.5449375   46.9606581
  21.5443856   46.9606701
  21.5432905   46.9610724
  21.5432196   46.9595547
  21.5421069   46.959579
  21.539418    46.9615414
  21.5382697   46.9608038
  21.5382342   46.9600419
  21.537086    46.9593042
  21.5370684   46.9589264
  21.5353505   46.9578167
  21.5353153   46.9570609
  21.5346926   46.9555491
  21.5346393   46.9544031
  21.5351911   46.9543911
  21.5351027   46.9524893
  21.5339546   46.9517516
  21.5317294   46.9518001
  21.5294778   46.9510864
  21.5289348   46.9514827
  21.5289524   46.9518605
  21.529531    46.9522324
  21.5289877   46.9526225
  21.5256588   46.9526948
  21.5240912   46.955017
  21.5241792   46.9569187
  21.5214019   46.956979
  21.5213844   46.9566011
  21.5202365   46.9558633
  21.5196494   46.9551133
  21.5212787   46.9543153
  21.5212435   46.9535534
  21.5206742   46.9531874
  21.5190181   46.9536016
  21.5184489   46.9532357
  21.517888    46.9532478
  21.5178351   46.9521018
  21.5172658   46.9517359
  21.5172481   46.9513518
  21.5166963   46.9513638
  21.5150406   46.951784
  21.5145062   46.9521738
  21.5145942   46.9540818
  21.5140508   46.9544718
  21.5129381   46.9544958
  21.5117993   46.9537577
  21.5044141   46.950488
  21.503836    46.9501222
  21.5027324   46.9501459
  21.5016721   46.9513097
  21.5012711   46.951571
  21.5009549   46.9513613
  21.500648    46.9510672
  21.4997847   46.9496542
  21.4996629   46.9495501
  21.4996112   46.9494748
  21.4994757   46.9494516
  21.499349    46.9494619
  21.4991917   46.9494921
  21.4972389   46.9517832
  21.4966871   46.9517951
  21.4966698   46.9514172
  21.495505    46.9503012
  21.4943575   46.9495632
  21.4942705   46.9476614
  21.4937012   46.9472891
  21.4925887   46.947313
  21.4903288   46.9465987
  21.490294    46.9458368
  21.489147    46.9451048
  21.488543    46.9439706
  21.4890774   46.9435809
  21.4862141   46.9417385
  21.4845325   46.94139
  21.48342     46.9414138
  21.4823423   46.9421995
  21.4823942   46.9433393
  21.4818509   46.9437354
  21.4812817   46.9433631
  21.4801174   46.942247
  21.4795311   46.9414968
  21.4789703   46.9415087
  21.47678     46.9423181
  21.472089    46.9492759
  21.4434869   46.9563537
  21.4234187   46.9430638
  21.4254471   46.9510203
  21.4315871   46.9516548
  21.43061     46.9547197
  21.4311708   46.954708
  21.4301768   46.9573951
  21.4424765   46.9586629
  21.4389094   46.9659738
  21.4385697   46.9709353
  21.4251296   46.9689342
  21.4209307   46.9747324
  21.4192655   46.974767
  21.4176509   46.9759414
  21.4150116   46.9765411
  21.4132151   46.9764179
  21.4121019   46.9764409
  21.4113481   46.9765605
  21.4104991   46.9765677
  21.408227    46.9768994
  21.4071138   46.9769224
  21.4048538   46.9762064
  21.4030551   46.9761858
  21.4020753   46.9762638
  21.3949163   46.977053
  21.3937734   46.9771974
  21.3921325   46.9779938
  21.3904671   46.978028
  21.3893374   46.9776729
  21.3793438   46.9782557
  21.3769612   46.9785141
  21.371812    46.9788339
  21.3685502   46.9789801
  21.3594504   46.9796323
  21.3560422   46.9798765
  21.3555261   46.9798416
  21.3549439   46.9797912
  21.3549452   46.9802769
  21.3549615   46.9806548
  21.3423356   46.9847225
  21.3379309   46.9859518
  21.3203446   46.9912574
  21.291723    46.9990592
  21.2746736   47.0039688
  21.2724459   47.0040122
  21.2691359   47.0048331
  21.2675013   47.0056275
  21.2642073   47.0068385
  21.259808    47.0080646
  21.2592465   47.0080755
  21.2575958   47.0084857
  21.2548629   47.0096856
  21.2537489   47.0097071
  21.2531965   47.0097177
  21.2526191   47.0093445
  21.2520352   47.0085931
  21.2509057   47.0082367
  21.2491924   47.0071289
  21.2486151   47.0067557
  21.2475012   47.0067771
  21.2470743   47.0098358
  21.2433207   47.0133367
  21.2384526   47.0168589
  21.2368548   47.0187929
  21.2331312   47.0230555
  21.2338173   47.0260866
  21.2351188   47.0306374
  21.2391863   47.0347445
  21.2404101   47.0373871
  21.2399266   47.039306
  21.2390307   47.0446552
  21.2369976   47.0492637
  21.2353676   47.0504357
  21.2343152   47.051981
  21.232741    47.054299
  21.2317663   47.0577462
  21.2318286   47.0592703
  21.2318441   47.0596482
  21.2324216   47.0600153
  21.2414891   47.0636547
  21.2885131   47.0817896
  21.2954051   47.0866083
  21.2955174   47.0892722
  21.2955975   47.0911741
  21.2956617   47.092698
  21.2951885   47.0946108
  21.2942492   47.0988206
  21.2927242   47.1022792
  21.2916722   47.1038189
  21.2928202   47.104559
  21.2967856   47.1060063
  21.303617    47.1093005
  21.3053188   47.1100296
  21.3075831   47.1107475
  21.3054478   47.1130775
  21.304389    47.1142392
  21.3005744   47.116596
  21.300053    47.1173689
  21.3011855   47.117731
  21.3013302   47.1211569
  21.3008157   47.1223078
  21.3009123   47.1245938
  21.3015392   47.1261005
  21.3010087   47.1268735
  21.2994352   47.1291924
  21.2972183   47.1296142
  21.2966808   47.1300091
  21.2955644   47.1300311
  21.2939423   47.1312037
  21.3009149   47.1508761
  21.2940854   47.147966
  21.272845    47.1472338
  21.2728293   47.1468559
  21.268362    47.1469426
  21.261123    47.147461
  21.2544155   47.1472122
  21.2429064   47.1523872
  21.2407036   47.1531858
  21.2378847   47.1524834
  21.2361825   47.1517533
  21.2344714   47.1510234
  21.2310985   47.1503252
  21.2305355   47.1503359
  21.2299816   47.1503465
  21.2180613   47.1593335
  21.2175073   47.159344
  21.2164212   47.1601272
  21.2137103   47.1620819
  21.2142644   47.1620714
  21.2110211   47.1647987
  21.210467    47.1648091
  21.2099285   47.1652037
  21.2010307   47.1661339
  21.2004828   47.1665224
  21.1688092   47.1705418
  21.1437814   47.1732902
  21.1437663   47.1729061
  21.125426    47.1751435
  21.1215788   47.1767383
  21.1138837   47.1799276
  21.106786    47.1842464
  21.1024033   47.1866065
  21.0680016   47.2074102
  21.0607956   47.2090558
  21.0658003   47.1937355
  21.0517116   47.1905544
  21.0227387   47.2226685
  21.0200457   47.2253806
  21.0144248   47.2247146
  21.0096627   47.2320371
  21.0029455   47.2317674
  20.992091    47.2321926
  20.9922675   47.2322379
  20.9924225   47.2322982
  20.9926004   47.2323818
  20.9927554   47.2324701
  20.9939346   47.2333701
  20.9950138   47.2340932
  20.998505    47.2365667
  21.0019902   47.2388171
  21.0111342   47.2452091
  21.0167808   47.2490172
  21.0168711   47.2490971
  21.0169055   47.249138
  21.0169371   47.2491829
  21.0169643   47.2492368
  21.0169813   47.2492824
  21.0170137   47.2493901
  21.0179467   47.2566429
  21.0188845   47.2641356
  21.0190585   47.2655414
  21.0193351   47.2675604
  21.0209934   47.2803457
  21.0211729   47.2818951
  21.0219652   47.2880572
  21.023304    47.2973723
  21.0237667   47.3012302
  21.0239938   47.3048312
  21.0254273   47.3146966
  21.0269672   47.327056
  21.0305524   47.3558971
  21.0305648   47.3562291
  21.0305028   47.3565358
  21.0303463   47.3569621
  21.0264809   47.3646199
  21.0255153   47.3666733
  21.0254132   47.3668641
  21.024604    47.3685716
  21.0233434   47.3712034
  21.0225078   47.3727969
  21.022309    47.37319
  21.0222312   47.3734155
  21.0222202   47.3736465
  21.0222074   47.3737791
  21.0195827   47.37889
  21.0179362   47.3847404
  21.0038801   47.4309078
  20.9920224   47.4736966
  20.9981793   47.4847316
  21.0079151   47.4906658
  20.9980755   47.4953541
  20.9934412   47.4956854
  20.9921933   47.4981508
  20.9933916   47.5028605
  20.9899059   47.5056568
  20.9884898   47.5088943
  20.9903416   47.5119845
  20.9869648   47.5148538
  20.9857666   47.5173551
  20.9832146   47.519495
  20.9918171   47.5244691
  20.9964867   47.5393829
  20.9962492   47.5409626
  20.9956656   47.5448451
  20.9949237   47.5497797
  20.9945097   47.5525328
  20.9943668   47.5534833
  20.9943199   47.5544028
  20.9944929   47.5670592
  20.9902892   47.5703525
  20.986199    47.5730606
  20.9858235   47.5733754
  20.9838411   47.5750917
  20.9822586   47.5769111
  20.9788039   47.580775
  20.9777512   47.5818235
  20.9771074   47.5825263
  20.976716    47.5828764
  20.9760077   47.5835884
  20.974098    47.5855386
  20.971452    47.5860189
  20.96626     47.5878373
  20.9640504   47.5887033
  20.9603852   47.5900838
  20.9562492   47.5921858
  20.952462    47.5934556
  20.9507883   47.5938138
  20.9468198   47.5953686
  20.9456249   47.5960797
  20.9418772   47.594284
  20.9403296   47.5934782
  20.9388578   47.5928026
  20.9372914   47.5921695
  20.9362105   47.5917661
  20.9339976   47.5910824
  20.9293842   47.5894887
  20.9288961   47.5892915
  20.9253743   47.5881554
  20.9233962   47.5876426
  20.9158178   47.5854835
  20.901267    47.5834444
  20.8956357   47.5822583
  20.8884537   47.5824169
  20.882928    47.5820133
  20.866567    47.5868332
  20.855028    47.5950121
  20.8549637   47.5950863
  20.8490413   47.5948484
  20.8423572   47.5967082
  20.8371216   47.6068213
  20.8335918   47.6110311
  20.8268662   47.625965
  20.8250006   47.6337412
  20.8249475   47.634747
  20.824993    47.6354294
  20.8252168   47.6356697
  20.8254179   47.6358282
  20.8260779   47.636117
  20.826222    47.6362474
  20.8263169   47.6366921
  20.8262675   47.6369119
  20.8260843   47.637253
  20.8258429   47.6376361
  20.8256417   47.6378638
  20.8245662   47.6387892
  20.8239788   47.6393892
  20.8238313   47.6397127
  20.8235899   47.6400886
  20.8232626   47.6407862
  20.8232036   47.6409895
  20.8232452   47.6411467
  20.8234799   47.6413518
  20.8236663   47.6414377
  20.8238326   47.6414558
  20.8240606   47.6414178
  20.8243503   47.6414015
  20.824534    47.6414314
  20.82477     47.6415226
  20.8255559   47.6441511
  20.8260441   47.6482639
  20.8277962   47.6570082
  20.8279707   47.6590164
END
END
