polygon
1
  18.733072    46.0454516
  18.7385169   46.048894
  18.7417818   46.0523302
  18.753204    46.0634049
  18.7564577   46.067603
  18.760798    46.0752311
  18.7624125   46.0798029
  18.7662122   46.0855267
  18.7678266   46.0920011
  18.7699953   46.0946715
  18.7803769   46.0992705
  18.7896682   46.1011949
  18.7978698   46.1038783
  18.8027743   46.1088411
  18.8082449   46.1088528
  18.8126303   46.1084778
  18.8153656   46.1084835
  18.8191952   46.1088755
  18.8197371   46.1092547
  18.8180961   46.1096356
  18.8164534   46.1103884
  18.8109555   46.1145666
  18.8131377   46.1168581
  18.8147644   46.1199046
  18.816405    46.1218168
  18.8169454   46.1225741
  18.8207586   46.1271557
  18.8229386   46.1302032
  18.8251173   46.1336348
  18.826759    46.13326
  18.8272997   46.1340234
  18.8272966   46.1347857
  18.8278432   46.1363052
  18.8278416   46.1366894
  18.8283839   46.1370685
  18.8283824   46.1374528
  18.828932    46.1382162
  18.8289305   46.1385942
  18.8300179   46.1408833
  18.8321901   46.1439305
  18.8358751   46.1427828
  18.83822     46.1431796
  18.8398606   46.1454696
  18.8403987   46.1469952
  18.8403944   46.1481356
  18.8409368   46.1485146
  18.8409195   46.1530885
  18.8403596   46.1572771
  18.8398128   46.1580323
  18.839804    46.1603192
  18.8392467   46.1614586
  18.8397953   46.1626062
  18.839791    46.1637465
  18.8408733   46.1652732
  18.841422    46.1664145
  18.840322    46.1671749
  18.8392234   46.1675571
  18.8430217   46.1774618
  18.8430159   46.1789865
  18.8441033   46.1816535
  18.8440962   46.1835562
  18.8501262   46.1839449
  18.8517652   46.1847101
  18.8517638   46.1850944
  18.8512127   46.1869961
  18.8512044   46.1892831
  18.8517446   46.1904244
  18.8528368   46.1919509
  18.854476    46.1927161
  18.8572232   46.1930988
  18.8659965   46.1927352
  18.8681828   46.1927387
  18.87093     46.193121
  18.8709152   46.1976888
  18.8676145   46.1999705
  18.866513    46.2011092
  18.8665105   46.2018715
  18.8659609   46.2033952
  18.8659559   46.2049199
  18.8659508   46.2064383
  18.865947    46.2075849
  18.8664889   46.2083481
  18.867036    46.2102517
  18.8681226   46.2110157
  18.8692168   46.2121579
  18.8714104   46.2129236
  18.8713968   46.2171133
  18.8719365   46.2186388
  18.8719242   46.2224442
  18.8675403   46.2224373
  18.8669982   46.2216741
  18.8664446   46.2216732
  18.8626132   46.21938
  18.8609756   46.2178589
  18.8565965   46.2140399
  18.8538626   46.2121326
  18.8505796   46.2090838
  18.8494844   46.2083196
  18.8483968   46.2079334
  18.8467483   46.2071681
  18.8423742   46.2048795
  18.8401799   46.2044912
  18.8385406   46.2037259
  18.8368938   46.2025824
  18.8352545   46.201817
  18.8330619   46.2010506
  18.8314197   46.2010474
  18.8303204   46.2014296
  18.8275757   46.2025647
  18.8253755   46.2037008
  18.82373     46.2044598
  18.822083    46.2056031
  18.8220751   46.2075058
  18.8226149   46.2086473
  18.8231562   46.2094107
  18.8247998   46.2113167
  18.8269761   46.213986
  18.8297104   46.2178029
  18.8313486   46.2189465
  18.8324437   46.2197109
  18.8335404   46.220091
  18.8362769   46.2212428
  18.8395685   46.2220112
  18.8412085   46.2227703
  18.8423053   46.2231566
  18.8450365   46.2258266
  18.8477651   46.2292588
  18.849948    46.2330681
  18.8510423   46.2342166
  18.8537772   46.236124
  18.8554205   46.2361268
  18.8620153   46.2349974
  18.8647622   46.2334773
  18.8669641   46.2319561
  18.869147    46.2334843
  18.8729797   46.235771
  18.8751695   46.2380614
  18.8757196   46.2392026
  18.8768032   46.2411132
  18.8767889   46.2456809
  18.8762416   46.2464424
  18.8729345   46.2498647
  18.8696372   46.2529027
  18.8690808   46.2536641
  18.8674332   46.2548019
  18.8652253   46.2578477
  18.8630055   46.2643146
  18.8624591   46.264698
  18.8624552   46.2658383
  18.8629977   46.2666016
  18.864093    46.2677437
  18.8673828   46.270036
  18.8690259   46.2704229
  18.8695799   46.2704238
  18.8739665   46.2708086
  18.8750657   46.2708103
  18.8761661   46.2704339
  18.8772677   46.2696733
  18.8783692   46.2689126
  18.8805745   46.2666289
  18.8844238   46.2643475
  18.8860736   46.2624471
  18.8888211   46.2609264
  18.8893762   46.2605491
  18.8921214   46.2597906
  18.8981633   46.2590364
  18.9003533   46.2586612
  18.9052942   46.2586675
  18.9069451   46.2594319
  18.9085881   46.259812
  18.9091321   46.2601969
  18.9096861   46.2601976
  18.9113282   46.2609557
  18.9107717   46.265529
  18.9113092   46.2685727
  18.9123951   46.2739041
  18.9129308   46.2777164
  18.9140208   46.2815232
  18.9145722   46.2826704
  18.9162077   46.2864778
  18.9178435   46.2902851
  18.9178353   46.2937125
  18.9189359   46.2933357
  18.9216629   46.3009558
  18.9216515   46.3059078
  18.9222006   46.3081893
  18.9210901   46.3127558
  18.9194382   46.3154252
  18.9172325   46.3177035
  18.9155831   46.3192262
  18.9111747   46.3222642
  18.9078682   46.3245471
  18.9051139   46.327593
  18.8996035   46.3340565
  18.8979458   46.338244
  18.8979416   46.3397687
  18.8979384   46.3409091
  18.8973794   46.342433
  18.8973763   46.3435734
  18.8962724   46.3447124
  18.8957244   46.345474
  18.8957085   46.3511883
  18.8945927   46.356517
  18.8945894   46.3576574
  18.8940312   46.3588032
  18.8934788   46.3610833
  18.8940162   46.3641333
  18.8934561   46.3690846
  18.8928959   46.3740298
  18.8917815   46.3786022
  18.8912219   46.3801199
  18.8879054   46.3873544
  18.8867925   46.3911583
  18.8862338   46.3923041
  18.8851219   46.3957299
  18.8856716   46.3976335
  18.8856557   46.4029636
  18.8889369   46.4113477
  18.8933264   46.4147812
  18.9004682   46.4212612
  18.9026615   46.4254538
  18.9070471   46.4311737
  18.9108898   46.4357462
  18.9136342   46.4387926
  18.9163761   46.4429856
  18.920224    46.4498448
  18.9234992   46.4605087
  18.9240465   46.464321
  18.9223628   46.4749795
  18.9173629   46.4913486
  18.9103695   46.4951571
  18.9118391   46.4970566
  18.9101812   46.4997197
  18.9074082   46.5031437
  18.9040933   46.5077074
  18.899113    46.5137936
  18.8963422   46.5191201
  18.895775    46.522931
  18.8952155   46.52712
  18.8957494   46.5320666
  18.8968486   46.5339771
  18.8957302   46.5389215
  18.8962731   46.5438743
  18.8973663   46.5480655
  18.89736     46.5503463
  18.8956714   46.5598702
  18.8934493   46.5640508
  18.8901328   46.5674737
  18.8895702   46.5693818
  18.8879111   46.5712823
  18.8845825   46.5754673
  18.8812659   46.5785057
  18.8779364   46.5826905
  18.8735085   46.5872517
  18.8712922   46.5887729
  18.8668567   46.5925715
  18.8640852   46.5959945
  18.8629716   46.5982797
  18.8613094   46.600564
  18.8596457   46.6032264
  18.8590763   46.6066528
  18.8612622   46.6142736
  18.8623618   46.6161782
  18.8689752   46.6207566
  18.8722819   46.6245672
  18.8755788   46.628762
  18.8761354   46.6291471
  18.8777859   46.6306681
  18.8805359   46.6344838
  18.8827422   46.636774
  18.8833      46.6367748
  18.8855032   46.6371561
  18.8888199   46.6383011
  18.89214     46.6383057
  18.9098302   46.6379504
  18.9114867   46.6375681
  18.917569    46.6375752
  18.9170075   46.6390992
  18.9192209   46.6391018
  18.9208756   46.6394879
  18.9230881   46.6398684
  18.9241931   46.6406319
  18.9241905   46.6417723
  18.9264032   46.642159
  18.9302708   46.6429253
  18.9330309   46.6440685
  18.9346842   46.6452106
  18.942424    46.6494077
  18.9440792   46.6497935
  18.9462923   46.6501736
  18.9473986   46.6505526
  18.9496028   46.6509388
  18.9501601   46.6513173
  18.952363    46.6524658
  18.9556821   46.6536089
  18.9562484   46.6486573
  18.9573457   46.6490424
  18.9595577   46.6501845
  18.9617704   46.6509486
  18.9639819   46.6524749
  18.9661852   46.6536169
  18.9678491   46.6543804
  18.971158    46.6566634
  18.9728205   46.6585735
  18.9739271   46.6589523
  18.9783408   46.6635228
  18.9827633   46.6688618
  18.9849655   46.6719061
  18.9866281   46.6745721
  18.9882827   46.6764757
  18.9893889   46.6776229
  18.9932554   46.6829549
  18.9960174   46.6856213
  18.9993384   46.6879097
  19.002101    46.6905759
  19.0037573   46.691717
  19.0048627   46.6947667
  19.0054205   46.6955231
  19.0059682   46.6978103
  19.0065256   46.6993351
  19.0065213   46.7050433
  19.0059598   46.7088548
  19.0042985   46.713422
  19.0020782   46.717989
  19.0009682   46.7198975
  18.9993092   46.7210372
  18.9981987   46.7233237
  18.9937604   46.7278895
  18.9904405   46.7309311
  18.9865606   46.7347408
  18.9859996   46.7366432
  18.9843379   46.7393074
  18.9837867   46.7404475
  18.9832233   46.7442588
  18.9826702   46.7469236
  18.9826674   46.7492106
  18.9798867   46.7522521
  18.9787837   46.7545385
  18.9782237   46.7553004
  18.9771097   46.7591052
  18.9771087   46.7598676
  18.9776648   46.7621549
  18.9776634   46.7632953
  18.9782111   46.7651984
  18.9710061   46.7644315
  18.9704527   46.7667181
  18.9699009   46.7678581
  18.9693395   46.7693824
  18.9676749   46.7728087
  18.9671133   46.7743329
  18.9660027   46.7750945
  18.9660021   46.7754725
  18.9621149   46.7807998
  18.9615621   46.7823241
  18.9604512   46.7830856
  18.9604506   46.7834637
  18.9587887   46.784609
  18.957679    46.7846081
  18.956568    46.7853634
  18.9554505   46.7899365
  18.9548975   46.7914545
  18.9537817   46.794881
  18.9526704   46.7956424
  18.9498946   46.7986894
  18.9537711   46.8009796
  18.9498877   46.8024948
  18.9471142   46.8040171
  18.9443322   46.805155
  18.9404474   46.8070604
  18.9354522   46.8089583
  18.9321248   46.8116201
  18.9287873   46.8146598
  18.9265598   46.8177068
  18.92489     46.8215105
  18.9243332   46.8241749
  18.9248736   46.8287495
  18.9254175   46.8317932
  18.9248623   46.8336953
  18.9248485   46.8397878
  18.9248337   46.8462644
  18.9242645   46.854259
  18.9250892   46.8571724
  18.9260645   46.8640669
  18.9262342   46.8650345
  18.9317193   46.8757565
  18.9343061   46.8785134
  18.9396773   46.8832032
  18.9463507   46.8898333
  18.9478043   46.891337
  18.9519547   46.8950584
  18.9552204   46.9008879
  18.9562795   46.902661
  18.9582818   46.9059562
  18.9591381   46.9076044
  18.9598963   46.9117721
  18.9600649   46.9137101
  18.9606603   46.9177912
  18.9609652   46.9185825
  18.9611132   46.9188397
  18.9619511   46.9213476
  18.9618475   46.9223007
  18.9624481   46.924104
  18.9624408   46.9250559
  18.963047    46.9268272
  18.9633227   46.9278895
  18.9645235   46.9298578
  18.964918    46.9309099
  18.9650301   46.9314064
  18.9651802   46.9324949
  18.9653793   46.9334876
  18.9654945   46.9338825
  18.9655777   46.9345381
  18.9657273   46.9350826
  18.9655296   46.9367209
  18.9652508   46.9380456
  18.9648647   46.9402813
  18.9646264   46.9414891
  18.9643593   46.9422909
  18.9640981   46.9428949
  18.9639628   46.9434591
  18.9639215   46.9441454
  18.9638661   46.9443412
  18.9639163   46.9445701
  18.9634478   46.9462838
  18.9627847   46.9488995
  18.962123    46.9507944
  18.9616389   46.9520319
  18.9615689   46.9525334
  18.9607871   46.9542553
  18.9598392   46.9567851
  18.9596952   46.9573859
  18.959679    46.9576711
  18.9594514   46.9583274
  18.9588931   46.9595709
  18.9580906   46.9605311
  18.9576448   46.9611806
  18.9553944   46.9636245
  18.9546224   46.964422
  18.9537858   46.9651154
  18.9537226   46.965226
  18.9537087   46.9653689
  18.9531251   46.9664438
  18.951356    46.9689635
  18.949483    46.9807644
  18.9487422   46.9903318
  18.9486704   46.9916034
  18.9491423   46.993213
  18.9506884   46.9961865
  18.9528138   46.9990286
  18.9535369   47.0000212
  18.9547328   47.0010645
  18.9580108   47.0035796
  18.9586282   47.004174
  18.9598611   47.0053667
  18.96169     47.0068065
  18.9631303   47.0084341
  18.9647428   47.0103642
  18.9658118   47.0129225
  18.9662138   47.014498
  18.9660887   47.0149585
  18.9665262   47.0157501
  18.9668738   47.0170128
  18.9669973   47.0178041
  18.9672532   47.0184947
  18.967279    47.019125
  18.9674887   47.020025
  18.9673976   47.0207217
  18.9671498   47.0214736
  18.9670132   47.0223091
  18.967005    47.0228313
  18.9666724   47.0244061
  18.9666613   47.026716
  18.9664895   47.0273408
  18.9664069   47.0279818
  18.9657105   47.029863
  18.9655184   47.0301374
  18.9666614   47.0305866
  18.9672065   47.0308349
  18.9691322   47.0312801
  18.9706261   47.0321309
  18.9728526   47.0344193
  18.9745179   47.036323
  18.9750768   47.0386103
  18.9756283   47.039751
  18.9761898   47.0401294
  18.9767423   47.040514
  18.9773038   47.0408924
  18.9773033   47.0412767
  18.9761858   47.0431787
  18.9750691   47.0443184
  18.9733232   47.0461842
  18.9689345   47.048504
  18.9672639   47.0500274
  18.9627994   47.052305
  18.9605664   47.0538279
  18.9594589   47.0545894
  18.9577788   47.0561127
  18.9572219   47.058393
  18.9566564   47.0603014
  18.9566519   47.0629664
  18.95665     47.0641056
  18.958881    47.0641085
  18.9611127   47.0637322
  18.9616659   47.0637326
  18.9661297   47.0625892
  18.9716992   47.0618307
  18.9800626   47.0603175
  18.9906478   47.0584143
  18.9934329   47.0572753
  18.9973325   47.056899
  19.0040254   47.0561394
  19.0095936   47.055379
  19.0123777   47.0550018
  19.0201764   47.0542416
  19.0212926   47.052333
  19.0207401   47.0511925
  19.0224084   47.0511929
  19.0240868   47.0489063
  19.0296543   47.0473888
  19.0346684   47.0458649
  19.0391202   47.0439626
  19.0463638   47.0432005
  19.0541601   47.0412976
  19.0602878   47.0390101
  19.0641856   47.0386316
  19.0675294   47.0355818
  19.0697588   47.034441
  19.0714278   47.0371056
  19.0730961   47.0378675
  19.0781099   47.0393847
  19.0875861   47.0435713
  19.0937069   47.0450936
  19.0953845   47.045471
  19.0959396   47.0477577
  19.0970573   47.0504222
  19.0981743   47.0523244
  19.0987293   47.054233
  19.0987341   47.0591787
  19.0981846   47.0629905
  19.1037567   47.0664151
  19.1065042   47.0675255
  19.1121208   47.0679291
  19.1215925   47.0698322
  19.129146    47.0711831
  19.1321896   47.0717274
  19.1349768   47.0732499
  19.1390045   47.0766829
  19.1394372   47.0770517
  19.1433574   47.0827627
  19.1589788   47.0907434
  19.1640075   47.0956902
  19.2024805   47.0975471
  19.204704    47.0944948
  19.2091433   47.0891586
  19.2226413   47.1093551
  19.2371666   47.1310051
  19.2433093   47.1321351
  19.2477799   47.1328896
  19.2511232   47.1332617
  19.2550295   47.133639
  19.2628514   47.1336281
  19.2689813   47.1343751
  19.2818794   47.1280823
  19.2982354   47.1257535
  19.3060904   47.1227751
  19.308174    47.1218964
  19.3086499   47.1216628
  19.3108146   47.1209154
  19.3119484   47.1204069
  19.3234081   47.1124793
  19.3265702   47.1097235
  19.330888    47.105805
  19.334442    47.1026299
  19.3380603   47.0993984
  19.3477932   47.0932229
  19.3311686   47.0778763
  19.328936    47.0759792
  19.3188721   47.0699112
  19.3143943   47.0668788
  19.2953042   47.036076
  19.3191342   47.0127927
  19.3253107   47.0226756
  19.3331266   47.0268459
  19.3556665   47.0322754
  19.3582211   47.0328727
  19.374373    47.0328275
  19.37828     47.0343409
  19.3833092   47.0369912
  19.3860993   47.0381296
  19.3895162   47.0400798
  19.3956797   47.0437118
  19.4139499   47.0544768
  19.4243318   47.0606658
  19.4292328   47.0636332
  19.4302762   47.0633218
  19.436173    47.060889
  19.4400309   47.0592244
  19.4544214   47.0555561
  19.4616414   47.0533986
  19.462951    47.0533696
  19.4723852   47.0547621
  19.474447    47.0550055
  19.4749966   47.0558311
  19.4790413   47.0610953
  19.4800304   47.0626547
  19.4806527   47.0638366
  19.4830441   47.0669723
  19.4859108   47.072341
  19.4873375   47.0759346
  19.4886766   47.080107
  19.4886397   47.0801433
  19.4888724   47.080619
  19.4903657   47.0855328
  19.4911348   47.0882855
  19.4927837   47.0951631
  19.4931094   47.0963889
  19.4945964   47.0989711
  19.4957485   47.1009703
  19.4985434   47.1050699
  19.4996207   47.107725
  19.5023187   47.112114
  19.5027347   47.1129659
  19.5060277   47.1189198
  19.5062306   47.1189426
  19.5071401   47.1186656
  19.5105436   47.1176557
  19.5327467   47.1112856
  19.5614116   47.1073235
  19.5620492   47.1073831
  19.5697389   47.1085155
  19.5779438   47.1126561
  19.5801808   47.1147858
  19.5827906   47.1169045
  19.5866596   47.1204995
  19.587166    47.120925
  19.5951575   47.1123297
  19.596816    47.1111814
  19.597367    47.1100384
  19.603989    47.1035297
  19.6086097   47.0976435
  19.6204906   47.0825059
  19.6243092   47.0748696
  19.6259461   47.0710559
  19.6270286   47.0680011
  19.6281028   47.0641902
  19.6291926   47.06266
  19.6367317   47.0382516
  19.6571399   47.0210074
  19.6615454   47.0171783
  19.6637437   47.0145014
  19.6670561   47.0118121
  19.671478    47.0095072
  19.674237    47.0075894
  19.6764342   47.0049122
  19.6824947   46.9995423
  19.6841478   46.9983926
  19.689668    46.9941719
  19.6963015   46.990707
  19.699054    46.9884105
  19.7029295   46.9868636
  19.7101273   46.9837726
  19.7200946   46.9799088
  19.7256301   46.9779732
  19.7355804   46.9729615
  19.7372316   46.9718111
  19.741661    46.9698753
  19.7493816   46.9648821
  19.7598693   46.9591025
  19.7670499   46.9552519
  19.7797496   46.9486941
  19.7875689   46.9513088
  19.8020895   46.9554035
  19.8280681   46.9449461
  19.8291755   46.9445604
  19.8330608   46.9441495
  19.8402963   46.9444837
  19.8442382   46.9478837
  19.8470789   46.9520537
  19.8521866   46.9588728
  19.8578857   46.9675903
  19.8590222   46.9691008
  19.8612633   46.9706095
  19.8613039   46.9732744
  19.8618768   46.9740327
  19.8635892   46.9770699
  19.8664102   46.9811785
  19.8681432   46.983508
  19.8743968   46.992605
  19.8755461   46.9948775
  19.8767075   46.9979185
  19.8789238   46.99714
  19.8794704   46.996758
  19.8805784   46.9963656
  19.8904997   46.9902001
  19.8932619   46.9890392
  19.9081693   46.9816884
  19.9109307   46.9805271
  19.9159194   46.9793488
  19.9209015   46.977786
  19.9242175   46.9762359
  19.9269783   46.9750742
  19.9341742   46.9727314
  19.9375148   46.9727054
  19.9391806   46.9726924
  19.9469664   46.9726313
  19.9536322   46.9722004
  19.9547392   46.9718074
  19.9586061   46.970258
  19.9779858   46.964765
  19.9835103   46.962817
  19.983158    46.9742431
  19.9826833   46.9791993
  19.98275     46.9830106
  19.9861514   46.9864102
  19.9878578   46.9886771
  19.9997163   46.9984834
  20.0265941   47.0073922
  20.032732    47.0081018
  20.0606625   47.0131878
  20.0696923   47.0195845
  20.0713595   47.0195695
  20.0884203   47.0091325
  20.0945144   47.007552
  20.1160519   46.9989724
  20.1281437   46.9929437
  20.1292806   46.9923768
  20.1391438   46.983859
  20.1346321   46.982043
  20.1306846   46.9794153
  20.1278511   46.9767769
  20.1266914   46.9745007
  20.1271976   46.9722149
  20.1277357   46.9710631
  20.1282725   46.9702957
  20.1299151   46.9691396
  20.1321188   46.9679782
  20.1326646   46.9672106
  20.133747    46.9656755
  20.1337239   46.9645352
  20.1337006   46.9633888
  20.1331086   46.9618758
  20.132541    46.9611188
  20.1308357   46.9596103
  20.1302681   46.9588532
  20.1285952   46.958491
  20.127482    46.9585016
  20.122477    46.9585488
  20.1185776   46.9582012
  20.1124367   46.9571182
  20.1090745   46.9560091
  20.106833    46.9552675
  20.1057139   46.9545155
  20.1051377   46.9537585
  20.1045706   46.9530013
  20.103987    46.9518663
  20.1034123   46.9507249
  20.1033898   46.9495846
  20.1038741   46.9461525
  20.1043976   46.9442447
  20.1049043   46.9419529
  20.1059795   46.94004
  20.1066087   46.9388837
  20.1071546   46.9381163
  20.1082523   46.9373437
  20.108789    46.9365763
  20.1099018   46.9365659
  20.1104627   46.9365607
  20.1110145   46.9365555
  20.1126943   46.9373023
  20.1149579   46.939184
  20.1165531   46.9407038
  20.1204742   46.9421917
  20.1215946   46.9425593
  20.1260693   46.9436638
  20.1282951   46.9436427
  20.1299599   46.9436269
  20.1338428   46.9432057
  20.1404878   46.9420017
  20.1443548   46.9408179
  20.146565    46.9400404
  20.148775    46.9392567
  20.1504082   46.9377161
  20.1515053   46.9369431
  20.1547648   46.9331057
  20.1563898   46.9311808
  20.1580069   46.9288841
  20.1585519   46.9281164
  20.1590641   46.9262085
  20.1595853   46.9242943
  20.1600896   46.9220084
  20.1600579   46.9204839
  20.1594825   46.919349
  20.1594587   46.9182025
  20.1588823   46.917452
  20.1571709   46.9151814
  20.1554753   46.9136731
  20.1537867   46.9129271
  20.150987    46.9118138
  20.1481875   46.9107003
  20.1459551   46.9103376
  20.1425952   46.9092294
  20.140372    46.9088664
  20.1364685   46.9081476
  20.1292361   46.9078322
  20.1269964   46.907091
  20.1242052   46.906355
  20.1230855   46.9059875
  20.1230778   46.9056033
  20.1230549   46.904463
  20.1235236   46.8998904
  20.1235007   46.8987501
  20.1234777   46.8976036
  20.1228943   46.8964686
  20.1223275   46.8957116
  20.1206246   46.8942028
  20.1178038   46.8919484
  20.1150059   46.8908279
  20.1138789   46.8900761
  20.1048959   46.8852135
  20.0998378   46.8822108
  20.0953332   46.8788246
  20.093073    46.8769425
  20.0880386   46.8750857
  20.0869197   46.8747116
  20.0858082   46.8747218
  20.0895828   46.8689787
  20.0890316   46.8689837
  20.0944231   46.8609322
  20.098278    46.8593781
  20.0988381   46.8593729
  20.1070829   46.8554845
  20.1113987   46.8489732
  20.1125172   46.8493408
  20.1152066   46.8451255
  20.1148709   46.8438638
  20.114659    46.8430562
  20.1146012   46.8428502
  20.1079077   46.8410099
  20.1034285   46.8387643
  20.1001113   46.8395574
  20.0934707   46.840381
  20.0784887   46.8405177
  20.0757236   46.8409208
  20.0707586   46.8424904
  20.0674189   46.842136
  20.0612923   46.8410503
  20.0590564   46.8403078
  20.0568295   46.8395652
  20.0534901   46.8392166
  20.052932    46.8388373
  20.0434598   46.8370177
  20.0434456   46.8362554
  20.0434244   46.8351151
  20.0428171   46.832077
  20.0416782   46.8305622
  20.0383253   46.8294448
  20.0360972   46.829086
  20.0327677   46.8287368
  20.0244431   46.8288086
  20.0222011   46.8276811
  20.0188648   46.8269473
  20.0182982   46.826574
  20.0155058   46.8254573
  20.013824    46.8243249
  20.0049221   46.8228754
  20.0032543   46.8225113
  20.0021303   46.8217584
  20.0015503   46.8206228
  20.0009454   46.8175783
  20.0014622   46.8156711
  20.0041654   46.8118427
  20.011841    46.8064473
  20.014591    46.8052773
  20.0178846   46.8037245
  20.0195473   46.8033322
  20.0206504   46.8029446
  20.0222901   46.8017839
  20.0244685   46.7994843
  20.0277544   46.7975469
  20.0299533   46.7963874
  20.033283    46.7963586
  20.0355077   46.7971017
  20.0366317   46.7978543
  20.0377626   46.798985
  20.0394743   46.8012573
  20.0400459   46.8023928
  20.0406387   46.8046748
  20.0406881   46.8073396
  20.0401586   46.8084847
  20.0385402   46.810786
  20.0379947   46.8115531
  20.033626    46.8150188
  20.0325298   46.8157906
  20.031984    46.8165516
  20.0314544   46.8177028
  20.0309156   46.818848
  20.0314963   46.8199834
  20.0315102   46.8207457
  20.0326417   46.8218826
  20.0343167   46.8226243
  20.0354412   46.8233769
  20.0376761   46.8241199
  20.0399041   46.8244848
  20.0437862   46.8244508
  20.043779    46.8240666
  20.044838    46.8217764
  20.04592     46.8202421
  20.0470091   46.819092
  20.0486649   46.8183151
  20.0503116   46.8175382
  20.0530614   46.8163672
  20.057481    46.8151876
  20.0585679   46.8144155
  20.0602162   46.8132604
  20.0613121   46.8124882
  20.0612976   46.811726
  20.0617546   46.8067694
  20.0611969   46.8063963
  20.0359058   46.78834
  20.024679    46.7808194
  19.9997956   46.7528469
  19.9941702   46.7483257
  19.9812593   46.7385339
  19.9750542   46.7321076
  19.9694289   46.7268228
  19.9754551   46.722968
  19.9798332   46.7202607
  19.9825688   46.7179572
  19.9885839   46.7140956
  19.9935193   46.7113893
  19.9946208   46.711002
  19.9989925   46.7075378
  20.0017311   46.7059901
  20.0055639   46.7036768
  20.0088265   46.7002215
  20.0093554   46.6990704
  20.0109582   46.6960134
  20.0115029   46.6952464
  20.0109445   46.6952511
  20.0109035   46.6929643
  20.009723    46.6884061
  20.009117    46.685746
  20.0090897   46.6842215
  20.0079005   46.6796634
  20.0039341   46.6743663
  19.998285    46.6675584
  19.9931999   46.661508
  19.9920794   46.6607549
  19.9859019   46.6554757
  19.9853396   46.6547179
  19.9829534   46.6448327
  19.9806078   46.6372344
  19.9860943   46.6345238
  19.9893783   46.632978
  19.9910292   46.6322019
  19.9941789   46.6230331
  19.9941655   46.6222708
  19.9941387   46.6207462
  19.99229     46.6097225
  19.990562    46.6055468
  19.989416    46.6032691
  19.9926112   46.5967715
  19.9947356   46.5918013
  19.9908168   46.5887844
  19.9869052   46.5861516
  19.980333    46.5819585
  19.9798413   46.5816448
  19.9762977   46.5793838
  19.962854    46.5684541
  19.9611813   46.5673209
  19.9437478   46.5484191
  19.9376621   46.5525369
  19.9306519   46.5572802
  19.9114932   46.5677109
  19.8923422   46.5785226
  19.8546      46.5658498
  19.8451598   46.5624891
  19.8396098   46.5602409
  19.8357188   46.5583653
  19.827943    46.5549915
  19.8157271   46.5501228
  19.8084964   46.546366
  19.7985024   46.5414804
  19.7801594   46.5320803
  19.7916115   46.5224852
  19.794882    46.5194142
  19.8063181   46.5090615
  19.809587    46.50599
  19.8184258   46.5070706
  19.830577    46.5081337
  19.837745    46.508462
  19.8482679   46.5110532
  19.863545    46.5002831
  19.873377    46.4941189
  19.8859671   46.4883114
  19.8952142   46.4806249
  19.9010797   46.4680169
  19.9010496   46.4661143
  19.8998503   46.4600305
  19.8903575   46.4517217
  19.8825347   46.4445403
  19.8868477   46.4387998
  19.8922591   46.4322823
  19.898195    46.4250044
  19.8986666   46.4196704
  19.8946403   46.4086555
  19.8851602   46.4011086
  19.8810793   46.386288
  19.8749557   46.381765
  19.8666336   46.3768733
  19.8621998   46.3750026
  19.8572201   46.3731356
  19.8528581   46.3754478
  19.8457437   46.3781635
  19.8408203   46.3801073
  19.8331639   46.3832042
  19.8276877   46.3847669
  19.8194911   46.3890132
  19.8067243   46.381098
  19.7939771   46.374328
  19.7867766   46.370954
  19.7840125   46.3698255
  19.7822336   46.3689741
  19.7745956   46.3653186
  19.771281    46.3638152
  19.7674065   46.3619371
  19.7607502   46.3581738
  19.7563204   46.3555304
  19.7513413   46.3532807
  19.7436052   46.3502792
  19.7392264   46.352209
  19.7348661   46.354907
  19.7337748   46.3556698
  19.7304963   46.3575987
  19.7223099   46.362216
  19.7140427   46.3611247
  19.7041241   46.3596582
  19.6969767   46.3593153
  19.6875914   46.3567038
  19.6787531   46.3533261
  19.6693787   46.3507131
  19.6627567   46.3492309
  19.6561354   46.3469798
  19.6625574   46.3317102
  19.6691073   46.3271063
  19.6799901   46.318288
  19.6891921   46.3060507
  19.6670162   46.2890374
  19.6609171   46.2841186
  19.6564662   46.280646
  19.6531618   46.2780679
  19.6453957   46.2708764
  19.6381849   46.2644376
  19.6508596   46.2507338
  19.6544651   46.2468356
  19.6615197   46.2403204
  19.6686922   46.2333643
  19.6702029   46.2318992
  19.6734496   46.2276914
  19.6777852   46.222715
  19.6832091   46.2177323
  19.6851918   46.2149261
  19.6864495   46.2131461
  19.6886441   46.2076981
  19.6933688   46.1959692
  19.695514    46.191767
  19.6971331   46.1898549
  19.6993099   46.1883238
  19.6982124   46.1883302
  19.6980954   46.18793
  19.6972051   46.1877557
  19.696453    46.1874455
  19.6907118   46.1843967
  19.6877536   46.1827287
  19.686297    46.1817982
  19.6868934   46.180858
  19.6865235   46.1801107
  19.6857177   46.1798294
  19.6849051   46.1799372
  19.6844609   46.1796775
  19.6825437   46.1797353
  19.6819938   46.1801029
  19.6799142   46.1806959
  19.6794256   46.1809979
  19.6780785   46.1815553
  19.6765567   46.1818411
  19.6758493   46.1827178
  19.6732719   46.183885
  19.6722004   46.1853532
  19.6702835   46.1865601
  19.6697504   46.1857884
  19.6695821   46.1840195
  19.6679328   46.1851059
  19.6649294   46.1870428
  19.6638492   46.1890231
  19.6615385   46.1900524
  19.6316775   46.1692916
  19.6316327   46.1692623
  19.6316031   46.1692415
  19.6079765   46.1727729
  19.606366    46.1721282
  19.6055112   46.1731399
  19.5676294   46.1787179
  19.5631497   46.1769784
  19.5642619   46.1756179
  19.5598325   46.1739294
  19.5631693   46.1697583
  19.5598794   46.1684899
  19.5592037   46.168228
  19.5590175   46.1681589
  19.5586322   46.168016
  19.5604429   46.1662977
  19.5574069   46.1646142
  19.554434    46.162973
  19.5521744   46.1617127
  19.5485921   46.1597116
  19.5443427   46.1573611
  19.5387715   46.1542697
  19.5364266   46.15297
  19.5344803   46.1518824
  19.5338513   46.1522275
  19.5305808   46.1501012
  19.5303949   46.150229
  19.5266215   46.147755
  19.5265629   46.1476923
  19.5232919   46.1490553
  19.5199973   46.1504257
  19.5167587   46.1517353
  19.516653    46.1516483
  19.5131308   46.1493828
  19.5133766   46.1491872
  19.5115283   46.1479732
  19.50562     46.144141
  19.502454    46.1420863
  19.5093977   46.1374103
  19.5094421   46.1373526
  19.509414    46.137284
  19.5081311   46.1356852
  19.5074731   46.13463
  19.5074386   46.1345301
  19.5074603   46.1344605
  19.5078023   46.1338885
  19.5080822   46.133599
  19.510374    46.1319442
  19.5129255   46.1303708
  19.5135381   46.1299055
  19.5157215   46.1284407
  19.5177876   46.1271219
  19.5184569   46.1267096
  19.5204228   46.1253027
  19.5226294   46.1238584
  19.5248661   46.122392
  19.5270685   46.1209367
  19.5225381   46.1180513
  19.5186604   46.1159577
  19.5089664   46.1107236
  19.4959525   46.1069619
  19.4914073   46.1054046
  19.4897417   46.1046705
  19.4883122   46.1042397
  19.4858293   46.1035112
  19.4857724   46.1034945
  19.4850057   46.1047375
  19.4818399   46.1048042
  19.4803497   46.1017651
  19.4767619   46.1004848
  19.4735442   46.0986942
  19.4713281   46.097744
  19.4709893   46.0972274
  19.4707825   46.0965902
  19.4652551   46.095448
  19.4644229   46.0952749
  19.4669294   46.089006
  19.4665282   46.081649
  19.4616337   46.0791032
  19.4583307   46.0773857
  19.4490755   46.0724171
  19.4434947   46.0692662
  19.440984    46.067873
  19.4396712   46.0671113
  19.4382518   46.0661783
  19.4347918   46.063552
  19.4330976   46.0622432
  19.4285926   46.0589427
  19.4230059   46.0549398
  19.4157194   46.0459709
  19.4154393   46.0457307
  19.4083186   46.0442588
  19.4043795   46.0435561
  19.4003565   46.0428386
  19.3950701   46.0419678
  19.3912388   46.0404074
  19.3810743   46.0361698
  19.3804523   46.0359144
  19.3804184   46.0359031
  19.3801798   46.0358061
  19.3797466   46.0362898
  19.3693805   46.0478369
  19.364162    46.0521699
  19.2816008   46.0145217
  19.285155    46.0103581
  19.2921813   46.0028143
  19.2938523   46.0010692
  19.2974011   45.9972016
  19.30271     45.9915685
  19.2965383   45.9877968
  19.2853496   45.9967585
  19.2542425   45.9957355
  19.2491263   45.9955083
  19.2366566   45.9950584
  19.2327088   45.9993552
  19.2303365   45.9992564
  19.2262036   45.9991785
  19.2178332   45.9990208
  19.2127499   45.9989523
  19.2064411   45.9988672
  19.2036764   45.9985956
  19.2000641   45.9982446
  19.1998337   45.9982041
  19.1995868   45.9981606
  19.2035855   45.9940126
  19.2049172   45.9926841
  19.1784182   45.9937448
  19.1656186   45.9942751
  19.1656012   45.9959729
  19.1478168   45.996124
  19.147739    45.9961247
  19.1470863   45.9974011
  19.1469646   45.9976391
  19.1460719   46.0001706
  19.1456915   46.0013992
  19.1472095   46.0080098
  19.1445001   46.0124125
  19.1444132   46.0126352
  19.1407588   46.0229692
  19.1402395   46.0244702
  19.1391006   46.0277623
  19.1390321   46.027879
  19.1364165   46.0323335
  19.1362986   46.0325341
  19.1337859   46.0371064
  19.133646    46.0371151
  19.1136395   46.0379544
  19.105068    46.0397853
  19.10459     46.0400025
  19.1009562   46.0353297
  19.090097    46.0237999
  19.0829558   46.0167095
  19.0760069   46.0099686
  19.0730327   46.0066447
  19.0677862   46.0019358
  19.0656569   46.0000364
  19.0723528   45.9829976
  19.0726669   45.9821957
  19.0748653   45.976388
  19.0762121   45.9728298
  19.0795568   45.9635326
  19.0754932   45.9632433
  19.0715863   45.9632592
  19.0650392   45.9638312
  19.0632861   45.9637717
  19.057837    45.9646691
  19.0551626   45.9654532
  19.0550031   45.9655
  19.0546061   45.9654767
  19.0505793   45.9652405
  19.0447492   45.9648873
  19.0384992   45.9647279
  19.0363721   45.9646927
  19.0343417   45.9646507
  19.033196    45.9646456
  19.0326879   45.9646528
  19.0304142   45.9644375
  19.018879    45.9631488
  19.0187804   45.9631378
  19.0162644   45.9624889
  19.014713    45.9621132
  19.0098003   45.960209
  19.0058141   45.9587094
  19.0037973   45.9556393
  18.9978752   45.9462114
  19.0052631   45.9300516
  19.005611    45.9292905
  19.0088503   45.9232971
  18.9946964   45.9238829
  18.9891215   45.9303451
  18.9889242   45.930591
  18.9887314   45.9309138
  18.9886844   45.9310911
  18.9879734   45.9321983
  18.9696528   45.9281084
  18.9660512   45.9270834
  18.9638067   45.9264426
  18.9630153   45.9262166
  18.9620183   45.9258707
  18.9604659   45.9262256
  18.9602727   45.9262698
  18.9589531   45.9265819
  18.9585363   45.9265862
  18.9471059   45.9276292
  18.9458731   45.9277624
  18.9448778   45.92787
  18.9447977   45.9278933
  18.9364754   45.9303173
  18.9355395   45.9305899
  18.9354481   45.9306149
  18.9353884   45.930636
  18.9353432   45.9306464
  18.9352895   45.9306639
  18.9349974   45.9307334
  18.9345109   45.9308239
  18.9201785   45.933043
  18.9131069   45.9341929
  18.9081277   45.9349663
  18.9060047   45.9352738
  18.9053701   45.934693
  18.9032713   45.9335723
  18.8973583   45.9277571
  18.8963336   45.9269884
  18.8936264   45.9251504
  18.8913269   45.9238579
  18.8907595   45.9233802
  18.890209    45.9220529
  18.8899167   45.9213753
  18.8897325   45.9213356
  18.8894033   45.9214214
  18.8886875   45.9218248
  18.8882837   45.9218472
  18.8881519   45.9218451
  18.8881045   45.9218177
  18.8877038   45.9215286
  18.8868957   45.9214765
  18.8864996   45.9214034
  18.8868537   45.9213752
  18.8873178   45.9211467
  18.8863774   45.9206315
  18.886004    45.9204707
  18.8858073   45.9204387
  18.8854794   45.9203851
  18.8852274   45.9202656
  18.8843763   45.9196467
  18.8836821   45.9190396
  18.8826988   45.9182929
  18.881767    45.9177179
  18.8807849   45.9171867
  18.8801966   45.9169434
  18.8791457   45.9164376
  18.8783855   45.9162179
  18.8773438   45.9159058
  18.876005    45.9157976
  18.8742878   45.9157524
  18.8727854   45.9158662
  18.8712233   45.9161976
  18.869715    45.9168481
  18.8679881   45.9177485
  18.8661421   45.9190334
  18.8651301   45.9201818
  18.8646283   45.9207495
  18.8646199   45.9195065
  18.8646171   45.9190035
  18.8648795   45.9183726
  18.8650246   45.9178387
  18.8650155   45.9176579
  18.8651555   45.9168909
  18.8659212   45.9156355
  18.8662656   45.9150423
  18.8663653   45.9148678
  18.8664127   45.9147004
  18.866524    45.9141511
  18.8667063   45.9138032
  18.8672987   45.9130972
  18.8678375   45.912462
  18.868136    45.9114216
  18.8682163   45.9112483
  18.8680912   45.9112298
  18.867162    45.9110843
  18.8657473   45.9108642
  18.8644595   45.910663
  18.8631894   45.910461
  18.8616831   45.9102195
  18.8591082   45.9098101
  18.8563353   45.909368
  18.8526041   45.9087738
  18.849334    45.9082537
  18.8461186   45.9077435
  18.8430684   45.9072591
  18.8408644   45.9069087
  18.8377507   45.9064139
  18.8349901   45.9059743
  18.8326026   45.9055941
  18.8303173   45.905231
  18.8279322   45.9048514
  18.8275588   45.9047913
  18.8271574   45.9059853
  18.826707    45.907139
  18.826167    45.9083353
  18.8250225   45.9102952
  18.8241295   45.9115991
  18.8224998   45.9136892
  18.8216375   45.9146492
  18.8178073   45.9180982
  18.8156167   45.9196183
  18.8134364   45.9207541
  18.8145253   45.9215187
  18.8123345   45.9230387
  18.8046812   45.9268277
  18.8041306   45.9268265
  18.8035889   45.9268253
  18.8035872   45.9272033
  18.8046761   45.927968
  18.8046727   45.9287303
  18.8030213   45.9306293
  18.8073739   45.9344502
  18.8106439   45.9340729
  18.8111913   45.9348363
  18.813913    45.9359886
  18.8166397   45.9359942
  18.819917    45.9360009
  18.8204556   45.9367581
  18.8215481   45.9367603
  18.8220972   45.9371456
  18.8237314   45.9371489
  18.8237299   45.937527
  18.8242717   45.937528
  18.8259133   45.9379155
  18.8264551   45.9379166
  18.8275476   45.9379187
  18.8275461   45.9382968
  18.8291788   45.9386842
  18.8286355   45.9390612
  18.8280848   45.9390601
  18.8280833   45.9394382
  18.8280802   45.9402005
  18.8291712   45.9405868
  18.8302623   45.940967
  18.830813    45.9409681
  18.8313533   45.9413534
  18.8329862   45.9417345
  18.8335369   45.9417356
  18.8335384   45.9413575
  18.8340802   45.9413586
  18.8346324   45.9409754
  18.8351743   45.9409764
  18.8351728   45.9413606
  18.8346295   45.9417377
  18.8346235   45.9432622
  18.8346324   45.9436092
  18.8347581   45.943665
  18.8351624   45.9440256
  18.835158    45.9451659
  18.8357073   45.9455512
  18.8362477   45.9459302
  18.8362491   45.9455522
  18.8373418   45.9455542
  18.8378836   45.9455553
  18.8378866   45.944793
  18.837888    45.9444087
  18.837891    45.9436464
  18.8384417   45.9436475
  18.8389792   45.944795
  18.838433    45.9459343
  18.8384286   45.9470747
  18.8406139   45.9470787
  18.8411573   45.9467017
  18.8416991   45.9467026
  18.8422499   45.9467037
  18.8438802   45.947847
  18.844431    45.947848
  18.8455265   45.9470876
  18.8455279   45.9467096
  18.8460726   45.9459483
  18.8466173   45.945187
  18.8466229   45.9436624
  18.8460852   45.9425211
  18.8455476   45.9413798
  18.8460908   45.9409965
  18.8466327   45.9409975
  18.847182    45.9413827
  18.8471806   45.9417607
  18.8493657   45.9417646
  18.8520913   45.9421536
  18.8526331   45.9421546
  18.8531838   45.9421555
  18.8542778   45.9417732
  18.8548209   45.941396
  18.8564487   45.9433015
  18.8548089   45.9448233
  18.8520763   45.9463369
  18.8509823   45.9467193
  18.849345    45.9474787
  18.8482509   45.9478548
  18.8466019   45.9493765
  18.84606     45.9493755
  18.8444253   45.9493725
  18.8438745   45.9493715
  18.8433312   45.9497486
  18.842779    45.9501319
  18.8422328   45.9512712
  18.84114     45.9512692
  18.8405981   45.9512682
  18.8405966   45.9516524
  18.8411343   45.9527938
  18.8411328   45.9531718
  18.8405894   45.9535551
  18.8389429   45.9543143
  18.8378486   45.9546903
  18.8367617   45.9554506
  18.8345761   45.9554465
  18.8334818   45.9558225
  18.8323874   45.9562046
  18.8312946   45.9562025
  18.8302017   45.9562004
  18.8296582   45.9565774
  18.8291089   45.9561983
  18.8280176   45.9558119
  18.8269305   45.9565721
  18.8252852   45.9569531
  18.8252713   45.9603803
  18.8274602   45.9596223
  18.8372422   45.9714474
  18.8405058   45.9756368
  18.8399548   45.9756358
  18.8394126   45.9756348
  18.8394111   45.976019
  18.8394068   45.9771593
  18.8388514   45.9782987
  18.8383077   45.9786819
  18.83721     45.9798202
  18.8372085   45.9802045
  18.8361152   45.9802024
  18.8361167   45.9798182
  18.8355745   45.9798171
  18.8388295   45.9840128
  18.8393792   45.984398
  18.8687464   46.0210019
  18.8682038   46.021001
  18.8671096   46.0209993
  18.8545227   46.0259303
  18.8474034   46.0289609
  18.8463091   46.0289589
  18.8457664   46.028958
  18.8435735   46.0300944
  18.8446636   46.0312429
  18.8473811   46.0350531
  18.8468369   46.0354364
  18.8451926   46.0373361
  18.8446367   46.0384755
  18.8380655   46.0418907
  18.829336    46.0373065
  18.8266105   46.0357766
  18.8233381   46.0331051
  18.8227985   46.0323417
  18.8189701   46.0308094
  18.8184289   46.0304302
  18.8151557   46.0281366
  18.8129825   46.0266075
  18.8124326   46.0262283
  18.8091654   46.0246968
  18.8080728   46.0243164
  18.8058861   46.0239275
  18.8042492   46.023924
  18.8036977   46.0239228
  18.7998672   46.025061
  18.7987712   46.0254366
  18.7982268   46.0258196
  18.797677    46.0254342
  18.7971343   46.025433
  18.7960401   46.0254305
  18.7944032   46.0254268
  18.7927538   46.0261854
  18.7911151   46.0265598
  18.7905688   46.0273208
  18.7894691   46.0284649
  18.7889175   46.0284636
  18.7883748   46.0284624
  18.7872842   46.0276975
  18.7867415   46.0276963
  18.7861899   46.027695
  18.7850975   46.0273082
  18.7845566   46.0269289
  18.7840069   46.0265433
  18.783466    46.026164
  18.7818235   46.0273005
  18.7812719   46.0272992
  18.7807311   46.0269199
  18.779089    46.0261536
  18.7785482   46.0257743
  18.7780055   46.025773
  18.7774577   46.0250094
  18.7774596   46.0246251
  18.776917    46.0246238
  18.7747323   46.0238562
  18.7747304   46.0242405
  18.7730859   46.0257611
  18.7714324   46.0272755
  18.7703361   46.027657
  18.7692469   46.0284167
  18.7681487   46.0291762
  18.7675971   46.0291749
  18.7664969   46.0303125
  18.7643112   46.0314474
  18.7610281   46.0314391
  18.7572043   46.0310512
  18.7555713   46.0302847
  18.7539315   46.02914
  18.7533888   46.0291386
  18.7522966   46.0287515
  18.7512002   46.0291329
  18.7500417   46.0293297
  18.7490095   46.0295051
  18.7473725   46.0295008
  18.7457355   46.0294964
  18.7429995   46.0287267
  18.7429973   46.0291109
  18.7429952   46.029489
  18.7419077   46.0298641
  18.7419034   46.0306264
  18.7424419   46.0313902
  18.7424397   46.0317744
  18.7413304   46.0344364
  18.7396761   46.0374749
  18.7391222   46.0378576
  18.7391201   46.0382357
  18.7380212   46.038995
  18.737472    46.0401338
  18.7347204   46.0435535
  18.733072    46.0454516
END
END
