polygon
1
  17.075305    47.0490504
  17.0792725   47.0472154
  17.0798393   47.046847
  17.0832817   47.0442404
  17.0850053   47.0427449
  17.086176    47.0412398
  17.091313    47.0378994
  17.0981027   47.0349714
  17.1009401   47.0334946
  17.1026581   47.032377
  17.1049195   47.0312747
  17.1060754   47.0301536
  17.1128587   47.0276028
  17.1140055   47.0264752
  17.1146085   47.0253447
  17.1157641   47.0242235
  17.1163443   47.0234708
  17.1174861   47.0227275
  17.1180753   47.0219749
  17.1203634   47.0201103
  17.1220942   47.0186143
  17.1249163   47.0175211
  17.1266241   47.0164091
  17.1288798   47.0156845
  17.1327749   47.0157498
  17.1361312   47.0154216
  17.1372635   47.014678
  17.1378524   47.0139253
  17.1384184   47.0135565
  17.1417337   47.0143744
  17.1428344   47.0147709
  17.1434546   47.012878
  17.1434681   47.0125001
  17.1430105   47.0098267
  17.1425032   47.0082931
  17.1431056   47.0071562
  17.1431596   47.0056383
  17.1426253   47.0048668
  17.1421134   47.0037176
  17.142693    47.0029647
  17.1433088   47.0014499
  17.1433494   47.0003098
  17.1439154   46.9999349
  17.1444769   46.9999442
  17.1455771   47.0003469
  17.1488828   47.0011582
  17.1505716   47.0008081
  17.1528173   47.0000828
  17.1533921   46.9997142
  17.1556198   46.9997511
  17.1567382   46.9993852
  17.1600797   46.9994405
  17.1628867   46.9987243
  17.1662282   46.9987793
  17.1717749   46.9992549
  17.1740026   46.9992914
  17.1745685   46.9989164
  17.1746216   46.9973984
  17.1751831   46.9974076
  17.176337    46.9962796
  17.1785646   46.996316
  17.1790637   46.9978492
  17.1790371   46.9986113
  17.1801243   46.9993916
  17.1807033   46.9986386
  17.1807299   46.9978765
  17.1824183   46.9975259
  17.1835853   46.9960199
  17.1841376   46.9960289
  17.1885176   46.9980034
  17.189066    46.9983905
  17.1912803   46.9988109
  17.1946128   46.998865
  17.1968669   46.998139
  17.1996339   46.9985619
  17.2039712   47.0020602
  17.2050456   47.0032245
  17.2049931   47.0047487
  17.2060811   47.0055225
  17.2066335   47.0055314
  17.2077867   47.0044093
  17.2089661   47.0025251
  17.2089793   47.0021409
  17.2073169   47.001736
  17.2102109   46.9987325
  17.2124555   46.9980122
  17.2164016   46.9965505
  17.2175415   46.9958062
  17.218129    46.9950531
  17.2203475   46.9950886
  17.2214484   46.9954843
  17.2220227   46.9951154
  17.2243282   46.9928646
  17.2254458   46.9925043
  17.2254717   46.9917421
  17.2271728   46.9910067
  17.2282993   46.9906465
  17.2288647   46.9902712
  17.2289034   46.9891311
  17.2295036   46.988
  17.2311954   46.9872643
  17.2323479   46.9861358
  17.2317994   46.9857489
  17.2306858   46.9857312
  17.2313376   46.9830758
  17.2302886   46.9811559
  17.2348755   46.977038
  17.2370637   46.9782134
  17.2410589   46.9752328
  17.2428363   46.9722108
  17.246244    46.9699832
  17.245182    46.9684414
  17.2435553   46.9672689
  17.2452461   46.9665393
  17.2458202   46.9661639
  17.2482257   46.9608704
  17.2500314   46.9567081
  17.2384229   46.9546216
  17.2419966   46.9474434
  17.2408838   46.9474258
  17.2420737   46.9451571
  17.2409739   46.9447553
  17.2398702   46.9447379
  17.2399344   46.9428357
  17.2388475   46.9420559
  17.2366221   46.9420206
  17.2355222   46.941625
  17.2355352   46.9412409
  17.2338707   46.9412144
  17.2333355   46.9404496
  17.2333485   46.9400654
  17.2318519   46.9350883
  17.2290751   46.9350441
  17.2291397   46.9331419
  17.2286177   46.9319929
  17.228066    46.9319841
  17.2269794   46.9312043
  17.2264277   46.9311955
  17.2258798   46.9308085
  17.2258929   46.9304244
  17.2264795   46.9296712
  17.2264924   46.9292933
  17.227083    46.9281558
  17.2276475   46.9277866
  17.2276734   46.9270245
  17.2282729   46.9258934
  17.2283375   46.9239912
  17.228915    46.9232379
  17.2294756   46.9232468
  17.2300403   46.9228714
  17.2300918   46.9213534
  17.2306525   46.9213623
  17.2306783   46.9206002
  17.2312429   46.9202248
  17.2318164   46.9198558
  17.235157    46.9195245
  17.2385322   46.9184374
  17.2401959   46.9184638
  17.2418724   46.9181122
  17.2440714   46.9189033
  17.2446447   46.9185342
  17.2451836   46.9189208
  17.247408    46.9189559
  17.2473951   46.9193401
  17.2485073   46.9193576
  17.2490462   46.9197443
  17.2518222   46.919788
  17.2540722   46.9190609
  17.2563857   46.9164315
  17.2580366   46.9168418
  17.2607745   46.9180254
  17.2618739   46.9184269
  17.2652358   46.917717
  17.2663734   46.9169722
  17.2674983   46.9166054
  17.2680499   46.916614
  17.2691114   46.9181556
  17.2707625   46.9185657
  17.2724228   46.9189697
  17.2735007   46.919749
  17.2751611   46.9201529
  17.2762481   46.9209323
  17.2784761   46.9205887
  17.2812612   46.9206319
  17.2823644   46.920649
  17.2840373   46.9206748
  17.2846016   46.9202992
  17.286876    46.9188155
  17.2874402   46.9184398
  17.2885774   46.9176948
  17.2902876   46.9165805
  17.2936774   46.9147295
  17.2964781   46.91401
  17.2976151   46.9132649
  17.29764     46.9125028
  17.2999139   46.9110126
  17.3005117   46.9098811
  17.301627    46.90952
  17.3027886   46.9080128
  17.3039131   46.9076456
  17.3050745   46.9061445
  17.305087    46.9057603
  17.3040121   46.9046033
  17.3034855   46.9038327
  17.3040617   46.903079
  17.3040865   46.9023168
  17.3046718   46.9015633
  17.3041113   46.9015547
  17.3041361   46.9007926
  17.3047336   46.899661
  17.3047584   46.8988989
  17.3053221   46.8985294
  17.3064464   46.8981622
  17.3081096   46.8981875
  17.3081218   46.8978096
  17.309831    46.896695
  17.3098554   46.8959426
  17.3098557   46.8959328
  17.3104071   46.8959412
  17.3154547   46.894493
  17.3154425   46.8948709
  17.3159938   46.8948793
  17.3165664   46.8945098
  17.3182295   46.8945351
  17.3193536   46.8941677
  17.3221527   46.8934538
  17.3221651   46.8930696
  17.3244741   46.8904389
  17.3250376   46.8900692
  17.3250621   46.8893071
  17.3261982   46.8885617
  17.3262105   46.8881776
  17.326783    46.887808
  17.3268685   46.8851436
  17.3274442   46.8843898
  17.3269296   46.8832414
  17.326954    46.8824793
  17.3264182   46.8817087
  17.3264304   46.8813307
  17.3264427   46.8809465
  17.3253557   46.8801676
  17.3231664   46.879372
  17.3215315   46.8782066
  17.3204323   46.8778118
  17.3187821   46.8774024
  17.3182432   46.8770161
  17.3182556   46.8766319
  17.3177076   46.8762454
  17.3180238   46.8756398
  17.3188926   46.8739759
  17.3194774   46.8732222
  17.3195141   46.8720821
  17.3229124   46.869846
  17.3273573   46.8699132
  17.328505    46.8687899
  17.3296193   46.8684285
  17.3307672   46.8672989
  17.3313273   46.8673074
  17.3319148   46.8661755
  17.3319392   46.8654134
  17.3325114   46.8650438
  17.3325237   46.8646597
  17.3331112   46.8635278
  17.3336712   46.8635363
  17.3336835   46.8631521
  17.3325968   46.8623732
  17.3320367   46.8623648
  17.3320732   46.8612247
  17.3326453   46.8608551
  17.3326576   46.860471
  17.3343925   46.8582157
  17.3355035   46.8582324
  17.3349678   46.8574619
  17.3344412   46.8566914
  17.3339146   46.855921
  17.332828    46.8551422
  17.3317292   46.8547475
  17.3306306   46.8543466
  17.330655    46.8535844
  17.3306794   46.8528223
  17.3301436   46.8520579
  17.3301605   46.8515311
  17.3302047   46.8501494
  17.3280653   46.8478358
  17.3275298   46.8470652
  17.3259048   46.8459
  17.3254029   46.8443674
  17.3254152   46.8439832
  17.3249041   46.8424567
  17.3249409   46.8413104
  17.3255497   46.8397945
  17.3266626   46.8383447
  17.3269606   46.8379564
  17.3278594   46.8367856
  17.3262225   46.8359983
  17.326247    46.8352362
  17.3258062   46.8318013
  17.3258917   46.8291369
  17.3275649   46.828784
  17.3292259   46.8288091
  17.3309113   46.828072
  17.3342667   46.82736
  17.3370866   46.8258774
  17.3394041   46.8228683
  17.3422358   46.8210013
  17.3462015   46.818395
  17.3478713   46.8184199
  17.3484218   46.8184281
  17.3485772   46.8182094
  17.3490055   46.8176743
  17.3507023   46.8165589
  17.3541317   46.8131818
  17.3547513   46.8112878
  17.3548113   46.8093855
  17.3559452   46.8086399
  17.3565556   46.8067458
  17.3577734   46.8033357
  17.3583689   46.8021976
  17.3589791   46.8003035
  17.3601487   46.7984177
  17.3602445   46.7953691
  17.3596971   46.7949828
  17.3614258   46.7931052
  17.36366     46.7923758
  17.3664863   46.7908925
  17.3675959   46.7909089
  17.36817     46.7901549
  17.3687321   46.789785
  17.3710226   46.7875313
  17.3721559   46.7867854
  17.373301    46.7856616
  17.3755554   46.7845541
  17.378372    46.7830704
  17.3805649   46.7818901
  17.4172439   46.7574499
  17.4190599   46.7506565
  17.4364311   46.7487717
  17.4454774   46.7477886
  17.4536726   46.7487065
  17.4649645   46.7529006
  17.4747956   46.752965
  17.4783316   46.7520162
  17.4850162   46.7518965
  17.4918651   46.7530279
  17.5091832   46.7589944
  17.5232281   46.7671284
  17.5337662   46.7714753
  17.5542209   46.7777587
  17.5879836   46.7887606
  17.5888901   46.7890136
  17.6039798   46.7942758
  17.6249306   46.8015868
  17.6401207   46.8053136
  17.6673184   46.8119775
  17.6683908   46.8125383
  17.698594    46.8286893
  17.7296165   46.8404031
  17.7325799   46.8409757
  17.7642492   46.8471035
  17.7884767   46.8535793
  17.8018936   46.8589404
  17.8341822   46.8740818
  17.8419365   46.8776623
  17.85411     46.8843673
  17.8696074   46.8797676
  17.8782322   46.8781272
  17.8890579   46.8798677
  17.9011603   46.8855916
  17.9040489   46.8882863
  17.9076609   46.8916554
  17.9102737   46.894094
  17.9124167   46.907271
  17.9075575   46.9159057
  17.923656    46.9211751
  17.9256102   46.9218133
  17.945233    46.9271676
  17.9702683   46.9320593
  17.9748409   46.9332075
  17.9756967   46.933424
  18.0078022   46.9440363
  18.0133211   46.9459893
  18.0316464   46.9531383
  18.0476216   46.9598277
  18.0666401   46.9697345
  18.0666432   46.9697353
  18.1668219   46.9972939
  18.1672729   46.997306
  18.1672964   46.9972876
  18.1673478   46.99727
  18.1673978   46.9972661
  18.167395    46.997234
  18.1671804   46.9972091
  18.1671905   46.9971519
  18.1681132   46.9971817
  18.168156    46.9970382
  18.1681913   46.9968363
  18.1683242   46.9964322
  18.1683284   46.9962341
  18.1682028   46.9958793
  18.168043    46.9955161
  18.1679386   46.995309
  18.1678075   46.9951661
  18.1676055   46.9951055
  18.1673436   46.995092
  18.1672828   46.9946023
  18.1687219   46.9946349
  18.1693016   46.9946186
  18.169601    46.9944988
  18.1697022   46.9938216
  18.1698184   46.9938069
  18.1699911   46.9938011
  18.1699537   46.9951982
  18.1699521   46.9952432
  18.1699807   46.9952623
  18.1757986   46.9936978
  18.1758426   46.9936386
  18.1762649   46.993262
  18.1765482   46.9930094
  18.1768304   46.9927577
  18.1771117   46.9925069
  18.1773971   46.9922524
  18.177679    46.992001
  18.1779616   46.991749
  18.1782433   46.9914977
  18.178527    46.9912447
  18.1786074   46.9911731
  18.1788909   46.9909202
  18.1791722   46.9906694
  18.1794558   46.9904165
  18.1797375   46.9901652
  18.1800213   46.9899122
  18.180302    46.9896618
  18.1805848   46.9894097
  18.1808444   46.989179
  18.1809178   46.9891125
  18.1804695   46.988779
  18.1805296   46.988725
  18.181036    46.9882697
  18.1894387   46.9897193
  18.190571    46.9885811
  18.1923696   46.9855954
  18.1925739   46.9852218
  18.1928321   46.9849469
  18.1939807   46.9837526
  18.1955575   46.9823206
  18.1970899   46.9811083
  18.1983129   46.9804012
  18.2009647   46.9777894
  18.2033562   46.9747299
  18.2045615   46.9728942
  18.2052486   46.9716309
  18.2059605   46.9716706
  18.2061192   46.9724065
  18.2060904   46.9779124
  18.2063291   46.9826574
  18.2089334   46.9883392
  18.2105909   46.9894918
  18.2111195   46.9910204
  18.2110481   46.9955878
  18.2115768   46.9971164
  18.2126552   46.9994114
  18.2159621   47.0017164
  18.2198453   47.0025069
  18.2248546   47.002543
  18.2259629   47.0029353
  18.2281854   47.0033293
  18.2303815   47.0048697
  18.2309315   47.005636
  18.2303699   47.005632
  18.2347459   47.0109935
  18.2352985   47.0109974
  18.2352523   47.0140403
  18.2385956   47.014064
  18.2458176   47.0152615
  18.2474791   47.0156512
  18.2474734   47.0160354
  18.246915    47.0164096
  18.2480147   47.0168016
  18.2491292   47.0168094
  18.250238    47.0171952
  18.2519086   47.0175849
  18.2530084   47.0179768
  18.2535702   47.0179807
  18.2557879   47.0187584
  18.2574496   47.019148
  18.2585641   47.0191557
  18.2618819   47.020319
  18.2613067   47.0218397
  18.2613011   47.022224
  18.2612899   47.0229862
  18.2612843   47.0233643
  18.259027    47.0252515
  18.2584742   47.0252477
  18.2573652   47.024862
  18.2557034   47.0244662
  18.2540382   47.0236923
  18.2534854   47.0236885
  18.2490496   47.0221391
  18.247388    47.0217432
  18.2462791   47.0213574
  18.2390619   47.0197819
  18.2384804   47.0216805
  18.2379103   47.0228231
  18.236205    47.0247138
  18.2350383   47.0281331
  18.2344681   47.0292694
  18.2325247   47.0305258
  18.2303716   47.033294
  18.2281948   47.033395
  18.2204666   47.0423421
  18.2130033   47.0485394
  18.2135417   47.0500618
  18.2129617   47.0512042
  18.212932    47.0531068
  18.212367    47.053865
  18.211216    47.0561375
  18.2106002   47.0595605
  18.2100171   47.0614652
  18.2094461   47.0626015
  18.2094163   47.064504
  18.2082769   47.0660204
  18.2071255   47.0682928
  18.2065152   47.0713377
  18.2059259   47.0736204
  18.2042029   47.0770352
  18.2037312   47.0788297
  18.2036045   47.0793117
  18.2069338   47.0804828
  18.2102303   47.0831721
  18.2146286   47.0873878
  18.2179586   47.0885586
  18.2235059   47.0901233
  18.2279349   47.0924359
  18.2312682   47.092844
  18.2346048   47.0936301
  18.234599    47.0940081
  18.2340074   47.0959067
  18.2328623   47.0978013
  18.2294878   47.1000643
  18.2261158   47.1015649
  18.224976    47.1030814
  18.2238187   47.1057382
  18.222635    47.1106756
  18.223171    47.1118261
  18.2236953   47.1137326
  18.2242346   47.1152612
  18.2236425   47.1171597
  18.2235367   47.1240138
  18.2218014   47.1281911
  18.2183477   47.1353991
  18.2177491   47.1376818
  18.2171715   47.1391961
  18.2165788   47.1411008
  18.2154143   47.1441355
  18.2147949   47.1483208
  18.2135586   47.155929
  18.2135348   47.1574535
  18.2123161   47.1639152
  18.2145393   47.1646938
  18.2178801   47.1654803
  18.2206637   47.1658785
  18.2217753   47.1662708
  18.2177498   47.1738589
  18.2233354   47.1735149
  18.2233295   47.1738991
  18.2266887   47.1735389
  18.2277974   47.1735469
  18.2222664   47.1799849
  18.2209761   47.1814931
  18.2221957   47.1897781
  18.2235015   47.1986483
  18.222951    47.199746
  18.2229292   47.1997908
  18.2217461   47.2039659
  18.2245081   47.2058946
  18.2256207   47.2062807
  18.2256089   47.2070429
  18.2250425   47.2078012
  18.2249838   47.2116062
  18.2244082   47.2123644
  18.2244022   47.2127486
  18.2249544   47.2135087
  18.2249485   47.213893
  18.2238123   47.2150252
  18.2237946   47.2161655
  18.2226524   47.2176819
  18.2209611   47.2188164
  18.2198247   47.2199486
  18.2186823   47.221465
  18.2192371   47.221469
  18.2186704   47.2222272
  18.216979    47.2233554
  18.2165746   47.2246177
  18.2113672   47.2244551
  18.2063491   47.2236561
  18.1963231   47.2227508
  18.1960868   47.2237939
  18.1936086   47.2256172
  18.190665    47.2274414
  18.1869218   47.2301814
  18.1852063   47.23119
  18.1833409   47.2325082
  18.1824932   47.233698
  18.1818616   47.2343089
  18.1806398   47.235502
  18.1792322   47.2365065
  18.178253    47.2373037
  18.1773619   47.2375187
  18.1732011   47.2391689
  18.17136     47.2422112
  18.1708989   47.2432512
  18.1705409   47.2444231
  18.1690654   47.2495578
  18.1704787   47.252418
  18.171165    47.2529104
  18.1710958   47.2532013
  18.1692985   47.2541221
  18.1683872   47.2549952
  18.1674589   47.2562728
  18.1671893   47.2565953
  18.1668112   47.2568283
  18.1635363   47.2583331
  18.1622072   47.2591751
  18.1614654   47.2598456
  18.1606387   47.260924
  18.1572      47.2642264
  18.1520103   47.264374
  18.150394    47.2644567
  18.1450832   47.2643526
  18.1414067   47.2631504
  18.1375252   47.2612108
  18.1370599   47.260851
  18.1370217   47.2601235
  18.1369804   47.2600661
  18.1358804   47.258917
  18.1354359   47.2585284
  18.1351813   47.2583704
  18.1346255   47.2582866
  18.134095    47.2583185
  18.1336764   47.2584622
  18.1330861   47.2588948
  18.130847    47.2588769
  18.1302984   47.2584883
  18.1280791   47.2573301
  18.1274661   47.2570483
  18.123805    47.2554525
  18.1236551   47.2553829
  18.1203114   47.2538403
  18.1192052   47.253069
  18.1164379   47.251522
  18.1158803   47.2511394
  18.112538    47.2507279
  18.1092067   47.2491823
  18.1058512   47.2495329
  18.1056694   47.2497014
  18.103001    47.2521746
  18.0996181   47.2540495
  18.09679     47.255935
  18.0960892   47.2562254
  18.0956416   47.2563704
  18.0934112   47.2570474
  18.0922644   47.2585626
  18.0922371   47.2600808
  18.089909    47.2650135
  18.0853775   47.2684031
  18.0827683   47.270978
  18.0806282   47.2724379
  18.0796413   47.2738156
  18.0794443   47.2747051
  18.0783255   47.2772609
  18.0749696   47.2796973
  18.0723121   47.2793376
  18.0678302   47.278945
  18.0656925   47.2803053
  18.0631751   47.2798866
  18.060054    47.2784385
  18.0563534   47.2786386
  18.0542474   47.2782825
  18.0529553   47.2800587
  18.0538041   47.2812951
  18.0522629   47.2827126
  18.0511494   47.2834536
  18.0505322   47.2839751
  18.0504457   47.2889062
  18.0502747   47.2909554
  18.0502676   47.2913334
  18.0508089   47.2921004
  18.0507803   47.2936249
  18.0490688   47.2955128
  18.0484827   47.2966481
  18.0479199   47.2970275
  18.0478484   47.3008323
  18.0467065   47.3019628
  18.0466922   47.302725
  18.046685    47.3031092
  18.0472263   47.3038763
  18.0472049   47.3050165
  18.0477625   47.3053994
  18.0488472   47.3073178
  18.0521713   47.3088651
  18.0527219   47.3096322
  18.0538353   47.310026
  18.054384    47.3104089
  18.0554974   47.3108027
  18.0577316   47.3112001
  18.0593938   47.3119767
  18.0593868   47.3123547
  18.0599284   47.3131217
  18.061042    47.3135155
  18.0617415   47.3138401
  18.0643759   47.3150625
  18.0643688   47.3154467
  18.0654754   47.3162185
  18.0660172   47.3169855
  18.0659821   47.3188879
  18.0654262   47.3188831
  18.0654122   47.3196454
  18.0648402   47.3200185
  18.063364    47.3200059
  18.0631636   47.3200042
  18.0631706   47.3196262
  18.0626077   47.3199994
  18.0614869   47.3199898
  18.0603661   47.3199802
  18.059794    47.3203596
  18.0592382   47.3203548
  18.0575545   47.3207184
  18.0564407   47.3203307
  18.0558169   47.3205345
  18.0553128   47.3206991
  18.0519504   47.32067
  18.0519574   47.320292
  18.0514016   47.3202872
  18.0502737   47.3206555
  18.048597    47.3206409
  18.0446285   47.3232715
  18.0429353   47.323641
  18.0406595   47.3259019
  18.0400872   47.3262811
  18.0400801   47.3266591
  18.0395169   47.3270385
  18.0395097   47.3274165
  18.0389375   47.3277895
  18.0389086   47.3293139
  18.0377586   47.3308285
  18.0377441   47.3315907
  18.037181    47.3319638
  18.0366014   47.3327211
  18.0360092   47.3346186
  18.0292989   47.3341813
  18.028156    47.3353116
  18.0264496   47.3368211
  18.0241706   47.3387036
  18.0224696   47.3394508
  18.0219136   47.3394459
  18.020229    47.3398089
  18.0179866   47.3397889
  18.0168653   47.3397788
  18.0157515   47.3393908
  18.0146971   47.3390234
  18.0146376   47.3390027
  18.0135312   47.3382304
  18.0122731   47.3380019
  18.0113055   47.3378261
  18.0101843   47.337816
  18.0090631   47.3378059
  18.0056996   47.3377755
  18.0034588   47.3381395
  18.0029012   47.3377501
  18.0012315   47.3373569
  18.0001179   47.3369625
  17.996792    47.3350294
  17.9945815   47.3338688
  17.9940013   47.3346258
  17.992294    47.3361349
  17.9889078   47.3372441
  17.9877867   47.3372338
  17.986658    47.3376015
  17.9838672   47.3371977
  17.9833112   47.3371925
  17.98049     47.3383068
  17.9754646   47.3374977
  17.9737552   47.3386284
  17.9720626   47.3393687
  17.9692795   47.3385865
  17.9676087   47.3378085
  17.9648646   47.3351176
  17.9632109   47.3339554
  17.9632264   47.3331933
  17.9615415   47.3335616
  17.9626147   47.3354745
  17.9631487   47.3370042
  17.9625603   47.3381391
  17.9631099   47.3389066
  17.9630943   47.3396688
  17.9619499   47.3407984
  17.9613704   47.3419396
  17.9624204   47.3449926
  17.9612771   47.3465065
  17.9612615   47.3472687
  17.961802    47.3480362
  17.9578194   47.3510417
  17.9566589   47.3529334
  17.9549577   47.3540639
  17.9532474   47.3551881
  17.9509899   47.356307
  17.9498526   47.3570585
  17.9487153   47.35781
  17.9453189   47.3593022
  17.9441895   47.3596694
  17.9413741   47.3604047
  17.9396882   47.3607728
  17.9385508   47.361518
  17.9357193   47.3630153
  17.9346055   47.3626265
  17.9329196   47.3629883
  17.9317979   47.3629774
  17.9312325   47.3629719
  17.9295706   47.3621934
  17.9284489   47.3621825
  17.9273352   47.3617936
  17.9273112   47.3629338
  17.9284248   47.3633289
  17.9300867   47.3641074
  17.9306442   47.3644909
  17.9339855   47.3656637
  17.9345418   47.365669
  17.9384474   47.3664691
  17.9403848   47.3665004
  17.9412473   47.366496
  17.9457264   47.3669233
  17.9468403   47.367312
  17.9485027   47.3680902
  17.9507148   47.369636
  17.9512476   47.3707815
  17.9500707   47.3734353
  17.950055    47.3741975
  17.9500235   47.3757219
  17.9494435   47.3768568
  17.9488622   47.3776136
  17.9488386   47.3787537
  17.9493962   47.3791433
  17.9471601   47.3787377
  17.9471364   47.3798841
  17.9454264   47.3813862
  17.9437307   47.3817542
  17.9420521   47.3817381
  17.9403339   47.3836243
  17.9385905   47.3862726
  17.9368959   47.3870186
  17.934063    47.388516
  17.9323923   47.3881155
  17.9301639   47.3873316
  17.9284851   47.3873153
  17.9233994   47.3891747
  17.9217034   47.3895362
  17.9200246   47.3895198
  17.9183458   47.3895033
  17.9166579   47.3894868
  17.9155357   47.3894757
  17.9133166   47.3886916
  17.9122024   47.3883025
  17.9105482   47.3871396
  17.9094585   47.3856103
  17.9089175   47.3844584
  17.9055928   47.382907
  17.9027749   47.383257
  17.8999741   47.3832292
  17.8960183   47.3847144
  17.8920622   47.3861994
  17.8863939   47.3891856
  17.8841328   47.3899251
  17.8835921   47.3887792
  17.8825291   47.3864814
  17.8819802   47.3857135
  17.881358    47.3850604
  17.881074    47.3847624
  17.8808831   47.384562
  17.8809081   47.3834218
  17.8798112   47.3822641
  17.8786983   47.3822528
  17.878141    47.3818691
  17.8777315   47.3812865
  17.8776013   47.3811012
  17.874252    47.3803048
  17.8697807   47.3794968
  17.8658582   47.3794566
  17.8641712   47.3798236
  17.8608051   47.3797889
  17.8585617   47.3801438
  17.8574312   47.3805102
  17.8557867   47.3789747
  17.8496718   47.3766242
  17.8491148   47.3762403
  17.8485756   47.3754724
  17.8474709   47.3746985
  17.8463749   47.3735405
  17.8441482   47.3727611
  17.8430523   47.371603
  17.8413914   47.3708232
  17.8408522   47.3700614
  17.8397477   47.3692875
  17.8391996   47.3685194
  17.8369825   47.3677337
  17.834191    47.366942
  17.8347824   47.3658078
  17.8342258   47.3654176
  17.8336869   47.3646496
  17.8337043   47.3638874
  17.8325826   47.3638756
  17.8292108   47.3631349
  17.8286648   47.3629935
  17.8264128   47.361845
  17.8265458   47.3616218
  17.8264839   47.3611264
  17.8264181   47.3608751
  17.8262173   47.3607469
  17.8255923   47.3607742
  17.8254386   47.3607505
  17.8249392   47.3605643
  17.8246927   47.3603913
  17.8245798   47.3602609
  17.8245395   47.3600701
  17.8245351   47.3598989
  17.8247567   47.3594668
  17.8248051   47.3587965
  17.8249875   47.3585094
  17.824993    47.358017
  17.8251216   47.3578353
  17.8256232   47.3575428
  17.8258565   47.3575155
  17.8263332   47.3573594
  17.8271922   47.3568251
  17.8275278   47.3566081
  17.8277703   47.3562936
  17.8279325   47.3559847
  17.8279567   47.355803
  17.8280318   47.3556949
  17.8281257   47.3553242
  17.8281927   47.3551997
  17.8284234   47.3550326
  17.8286621   47.3548
  17.8289704   47.3546303
  17.8294118   47.3544938
  17.8296818   47.3543939
  17.8299923   47.3539128
  17.8301207   47.3533345
  17.8303305   47.353211
  17.8305235   47.35322
  17.8307006   47.35328
  17.8308589   47.3532905
  17.8310809   47.3531588
  17.831332    47.3528841
  17.8313326   47.3527169
  17.8309119   47.3522505
  17.8306603   47.3520988
  17.8304645   47.3518717
  17.8304484   47.3515119
  17.8307034   47.351323
  17.8311297   47.3513756
  17.8319237   47.35165
  17.8322381   47.3517103
  17.8324118   47.3516609
  17.8325822   47.3515733
  17.8330488   47.3511867
  17.8333586   47.3506033
  17.833381    47.3502887
  17.8329712   47.3498412
  17.8328463   47.3496347
  17.8328758   47.3493148
  17.8333368   47.3488943
  17.8335249   47.3488333
  17.8337087   47.3485808
  17.8337878   47.3483008
  17.8336966   47.3479658
  17.8334898   47.3475528
  17.833136    47.3471849
  17.832967    47.3463144
  17.8330385   47.3461994
  17.8334337   47.3461382
  17.8342089   47.3460982
  17.8345906   47.3460093
  17.8355098   47.3456565
  17.8357883   47.3454498
  17.8358707   47.3451795
  17.8357915   47.3445954
  17.8354978   47.3444114
  17.834858    47.3445436
  17.8342845   47.3443719
  17.8339441   47.3443211
  17.8325812   47.3443656
  17.8319809   47.3440193
  17.8315819   47.343597
  17.8316903   47.3432793
  17.8318258   47.3431286
  17.8319157   47.3424755
  17.8318662   47.3422726
  17.8311225   47.3420158
  17.8309259   47.3414746
  17.8309795   47.3410274
  17.8311397   47.3406693
  17.8308924   47.3405862
  17.8303385   47.3404222
  17.83014     47.3404731
  17.8295714   47.3404004
  17.8292454   47.3402581
  17.829776    47.3394753
  17.82922     47.3394694
  17.8292461   47.3383292
  17.8286901   47.3383233
  17.8275864   47.3375493
  17.8275951   47.3371713
  17.8264915   47.3363972
  17.8265178   47.3352508
  17.8243019   47.3340869
  17.8237635   47.3333188
  17.8215477   47.3321547
  17.8209915   47.3317645
  17.8227565   47.3283558
  17.8227915   47.3268376
  17.822244    47.3260694
  17.8222616   47.3253073
  17.8211583   47.3245331
  17.8189345   47.3241313
  17.8155543   47.3248575
  17.8144334   47.3248455
  17.8127656   47.3244433
  17.8077797   47.3221026
  17.8071969   47.3228587
  17.8049554   47.3232188
  17.8015662   47.3243226
  17.8004275   47.3250726
  17.7993067   47.3250604
  17.79598     47.3238838
  17.7914967   47.3238349
  17.790385    47.3234385
  17.7903669   47.3242007
  17.78921     47.3257128
  17.7886452   47.3260847
  17.788053    47.3272248
  17.7875152   47.3264566
  17.7842069   47.3241332
  17.7808807   47.3229561
  17.7776547   47.3172059
  17.7777273   47.3141634
  17.7794764   47.3111332
  17.7800776   47.3096151
  17.7801138   47.3080969
  17.7785557   47.3031274
  17.7786102   47.3008409
  17.7792022   47.2993227
  17.779271    47.2992183
  17.7809416   47.2966766
  17.7826717   47.2947928
  17.7827622   47.2909882
  17.7811319   47.2886831
  17.7806308   47.2863904
  17.7812134   47.2852564
  17.7823697   47.2837444
  17.7852102   47.2818728
  17.7857928   47.2811168
  17.7869578   47.2792267
  17.7852824   47.2788302
  17.7841807   47.2784338
  17.7830609   47.2784215
  17.7819591   47.277647
  17.7797012   47.2783845
  17.7785995   47.27761
  17.7784974   47.2775372
  17.7783442   47.2772986
  17.7779415   47.2768212
  17.7773799   47.2764433
  17.7769773   47.2762221
  17.7763961   47.2760671
  17.7762023   47.2760344
  17.7758781   47.2759993
  17.7751535   47.2758238
  17.7747515   47.275744
  17.7744258   47.2756292
  17.7741838   47.2752802
  17.7742318   47.2752174
  17.7742142   47.2750761
  17.774193    47.274896
  17.7741432   47.2747246
  17.7739513   47.2743885
  17.7737017   47.274287
  17.7734134   47.2741758
  17.7730914   47.2741214
  17.772527    47.2741151
  17.7721172   47.2744377
  17.7717008   47.2744207
  17.7715123   47.2742213
  17.771212    47.2741792
  17.770816    47.2742089
  17.7706863   47.2740349
  17.7707289   47.2737693
  17.7701011   47.2734007
  17.7698516   47.273408
  17.7694406   47.2734798
  17.7690257   47.2733991
  17.7687357   47.2732215
  17.7684047   47.2727648
  17.7679711   47.2723911
  17.7675378   47.2722962
  17.7671819   47.272454
  17.7668686   47.2726555
  17.7664002   47.2729065
  17.7658358   47.2732783
  17.7658265   47.2736625
  17.7652621   47.2740343
  17.7663544   47.2748088
  17.7663177   47.2763332
  17.7668731   47.2767175
  17.7668548   47.2774797
  17.7674009   47.27787
  17.7673368   47.2805346
  17.7661802   47.2820464
  17.7650511   47.28279
  17.7633389   47.2839176
  17.7627376   47.2858137
  17.7604515   47.2876909
  17.758739    47.2891965
  17.7598131   47.2911114
  17.7597946   47.2918736
  17.7593119   47.2927791
  17.7592024   47.2930074
  17.7597578   47.2933979
  17.7602764   47.2949285
  17.7606753   47.3017882
  17.7605925   47.3052086
  17.7600093   47.3059645
  17.7594443   47.3063424
  17.7588426   47.3078604
  17.7571111   47.310122
  17.7576299   47.3116525
  17.755898    47.3139202
  17.7558797   47.3146762
  17.7547312   47.3158099
  17.7541754   47.3158037
  17.7530455   47.3161691
  17.7519063   47.3169186
  17.7513505   47.3169123
  17.7508042   47.3161438
  17.7485257   47.3176428
  17.7473957   47.3180082
  17.7457285   47.3176112
  17.7440427   47.3179702
  17.7434871   47.3175858
  17.7423571   47.3179511
  17.7418014   47.3179448
  17.7406992   47.3171761
  17.7395786   47.3171633
  17.7390135   47.317535
  17.7378835   47.3179002
  17.7356045   47.319399
  17.7344743   47.3197704
  17.7339091   47.320142
  17.7327884   47.3201292
  17.7322231   47.320507
  17.731093    47.3208722
  17.7305091   47.3216279
  17.7293695   47.3223772
  17.7293601   47.3227552
  17.7287947   47.323133
  17.7282106   47.3242668
  17.7287476   47.3250353
  17.7309704   47.3258231
  17.729793    47.3280906
  17.7291807   47.3299926
  17.7274472   47.3322537
  17.7262599   47.3349053
  17.7245356   47.3367883
  17.7228395   47.3375311
  17.7188445   47.3401503
  17.7182694   47.340906
  17.7193715   47.3416811
  17.7204737   47.3424562
  17.7204641   47.3428404
  17.7226781   47.3440064
  17.7237713   47.3447813
  17.7248641   47.3459344
  17.7259665   47.3467094
  17.7259381   47.3478496
  17.7253535   47.3489895
  17.7264371   47.3505205
  17.7247219   47.3516475
  17.7257866   47.3539406
  17.726333    47.3547093
  17.72851     47.3570214
  17.729066    47.3574058
  17.7324119   47.3578284
  17.7346362   47.3586162
  17.7357765   47.3578668
  17.7402253   47.359436
  17.7413564   47.3586926
  17.7424686   47.3590833
  17.7441463   47.3594804
  17.745796    47.3606458
  17.7463522   47.3606521
  17.7474552   47.3614269
  17.7474646   47.3610427
  17.7502545   47.3618366
  17.7524329   47.3641482
  17.7541014   47.3649293
  17.7584498   47.3703085
  17.7655316   47.3775727
  17.764648    47.3789247
  17.7642734   47.3799312
  17.7640797   47.3812856
  17.764162    47.3832925
  17.7646042   47.3840946
  17.7658947   47.3838074
  17.7674891   47.3830193
  17.7688861   47.3825123
  17.7710659   47.383224
  17.7726802   47.3839965
  17.7740339   47.3847688
  17.7769938   47.3860683
  17.777621    47.3867356
  17.7785219   47.3873932
  17.7797526   47.3884549
  17.7821684   47.3886257
  17.7834521   47.3885849
  17.7840751   47.3888265
  17.7848721   47.3892781
  17.7846776   47.3904901
  17.7842658   47.3916889
  17.7838891   47.3921387
  17.7837915   47.392308
  17.7837726   47.3924899
  17.7832632   47.3927407
  17.7831908   47.3929234
  17.7829847   47.3929833
  17.782785    47.3931486
  17.7828612   47.3932309
  17.7825973   47.3935063
  17.7824108   47.3935456
  17.7818006   47.3942259
  17.7816377   47.3942611
  17.7815202   47.3943772
  17.781159    47.3949195
  17.7811407   47.3949684
  17.7809966   47.3951275
  17.7808392   47.3951636
  17.7806745   47.3953652
  17.7804808   47.3954275
  17.7803283   47.3958045
  17.7801055   47.3958914
  17.7799544   47.3958902
  17.7798711   47.3959949
  17.7796551   47.3961143
  17.7791393   47.3961668
  17.7791018   47.3964164
  17.7790167   47.39645
  17.7789757   47.3965004
  17.7787859   47.3965361
  17.7784322   47.3966831
  17.778299    47.3970388
  17.7785416   47.3971194
  17.7784467   47.3972126
  17.7785121   47.3972388
  17.778483    47.3973421
  17.7783789   47.3974716
  17.7783983   47.397524
  17.778253    47.3976289
  17.7777663   47.3982698
  17.777558    47.3984354
  17.7773116   47.3987319
  17.7771598   47.3991026
  17.7771052   47.3991828
  17.7769236   47.39925
  17.7767952   47.3992025
  17.7767107   47.39921
  17.7767298   47.3992713
  17.7769211   47.3992762
  17.7771585   47.3992271
  17.7775615   47.398989
  17.7782368   47.39891
  17.7798361   47.4001226
  17.7799457   47.400308
  17.7806922   47.4012027
  17.781158    47.4015388
  17.7818224   47.4019086
  17.782885    47.4025389
  17.7837548   47.4031542
  17.7848805   47.4038706
  17.7858188   47.404369
  17.7868702   47.404843
  17.7871354   47.4050638
  17.7870854   47.4051225
  17.7870243   47.4051941
  17.7868632   47.4066203
  17.7863124   47.4082064
  17.7859592   47.4088978
  17.7851889   47.410116
  17.7849312   47.4107909
  17.7844418   47.4125606
  17.7841033   47.4133045
  17.7836001   47.4139081
  17.7828906   47.4145793
  17.7825122   47.4150186
  17.7811482   47.4166645
  17.780662    47.4174072
  17.7797865   47.4191319
  17.779614    47.4194091
  17.7793474   47.4198867
  17.7788263   47.4206295
  17.7788118   47.4206843
  17.7781489   47.4213512
  17.7775817   47.4218082
  17.7770403   47.422461
  17.7755309   47.4229322
  17.7749325   47.4233681
  17.7738704   47.4245324
  17.7727848   47.4268268
  17.7710956   47.4271924
  17.7710774   47.4279484
  17.7704654   47.4302286
  17.7676073   47.4320997
  17.7630317   47.4358606
  17.7624379   47.4369944
  17.7607022   47.439262
  17.7606654   47.4407801
  17.7617702   47.4415548
  17.7623089   47.4423232
  17.7622904   47.4430853
  17.7616872   47.4449814
  17.7598957   47.4495355
  17.7575839   47.4521748
  17.7564234   47.4536803
  17.7558291   47.4551983
  17.7558197   47.4555825
  17.7546683   47.45671
  17.7379852   47.4728967
  17.7302023   47.4697587
  17.7325066   47.4675041
  17.729173    47.4659414
  17.7280208   47.4670686
  17.7274065   47.4693486
  17.7262922   47.4689516
  17.7268779   47.4678179
  17.7269633   47.4643914
  17.7258585   47.4636164
  17.7264344   47.4632449
  17.7225438   47.4616755
  17.7254245   47.4586654
  17.7248672   47.458659
  17.7271529   47.4567762
  17.7271623   47.4563983
  17.7317796   47.4514988
  17.7278992   47.4495517
  17.7273235   47.4499232
  17.7234243   47.448738
  17.7193729   47.4536436
  17.7171449   47.4528556
  17.7159927   47.4539827
  17.7148974   47.4532077
  17.7137834   47.4528167
  17.7143597   47.4520611
  17.7132554   47.4512859
  17.7115363   47.4527907
  17.7043151   47.4496574
  17.703153    47.4511686
  17.7019903   47.4530578
  17.7013949   47.4541975
  17.7101823   47.4619171
  17.7107392   47.4623016
  17.710144    47.4634352
  17.7107105   47.4634417
  17.7101151   47.4645815
  17.7116999   47.4652328
  17.7105269   47.4666063
  17.7099751   47.4672029
  17.708924    47.4672328
  17.7049084   47.4706136
  17.703746    47.4721186
  17.7031595   47.4732584
  17.702593    47.4732518
  17.6998264   47.4716947
  17.6964928   47.4705153
  17.6970599   47.4701377
  17.6909414   47.467785
  17.6880875   47.4696542
  17.6836508   47.4673147
  17.6825557   47.4665394
  17.6813926   47.4680503
  17.6802394   47.4691771
  17.6796532   47.4699325
  17.677962    47.4702967
  17.6768283   47.4706613
  17.6751076   47.4721656
  17.6739739   47.4725302
  17.6734262   47.4721456
  17.6700544   47.4721053
  17.6700742   47.4713432
  17.6689701   47.4705676
  17.6667422   47.4697786
  17.6661946   47.469394
  17.6650808   47.4689964
  17.6650906   47.4686184
  17.6645531   47.4678496
  17.664573    47.4670875
  17.6634591   47.466696
  17.6652097   47.4640519
  17.6652197   47.4636677
  17.6652296   47.4632897
  17.6646823   47.4628989
  17.6641257   47.4625141
  17.663618    47.4606052
  17.6636876   47.4579409
  17.6637175   47.4567946
  17.6626138   47.456019
  17.6603666   47.455992
  17.6598094   47.4559853
  17.6598192   47.4556073
  17.6586858   47.4559717
  17.6575321   47.4571045
  17.6564186   47.4567068
  17.6541914   47.4559175
  17.6536441   47.4555328
  17.6534162   47.4554407
  17.6497563   47.453961
  17.6486427   47.4535694
  17.6458688   47.4523891
  17.6447452   47.4523754
  17.641951    47.4519633
  17.6413949   47.4515722
  17.6430111   47.4551204
  17.6435208   47.4561723
  17.6423569   47.4576829
  17.6345552   47.4542125
  17.6328604   47.456042
  17.6306336   47.4552523
  17.6266038   47.4590083
  17.620254    47.4654069
  17.6048651   47.4571716
  17.6032976   47.456334
  17.6025667   47.4574078
  17.6021339   47.4578727
  17.6007367   47.4602114
  17.6001378   47.4617286
  17.5995597   47.4624837
  17.5961365   47.4643435
  17.5938369   47.4662174
  17.5926921   47.4669653
  17.5887005   47.469202
  17.5876082   47.4680415
  17.5837634   47.4649495
  17.5826606   47.4641731
  17.5793512   47.4622281
  17.5793723   47.461466
  17.5777245   47.4599203
  17.5783225   47.4587874
  17.5794778   47.4576555
  17.5795094   47.4565154
  17.5801088   47.4549983
  17.5806962   47.4542434
  17.5812534   47.4542505
  17.5823978   47.4535088
  17.5812849   47.4531104
  17.5818828   47.4519775
  17.579678    47.4504247
  17.5791328   47.4496554
  17.576371    47.4480954
  17.5746798   47.4484581
  17.5735776   47.4476816
  17.571352    47.4468908
  17.5680123   47.4460856
  17.5663227   47.4460639
  17.5657869   47.4452946
  17.5658081   47.4445325
  17.5641292   47.4441328
  17.5619343   47.4425798
  17.5613681   47.4425725
  17.5608217   47.4421873
  17.5602555   47.44218
  17.5591521   47.4417815
  17.5585965   47.4413962
  17.5580074   47.4425291
  17.5568413   47.4440388
  17.5545518   47.4455339
  17.552273    47.4466448
  17.5494154   47.4485106
  17.5442891   47.4511091
  17.5399287   47.4528865
  17.5368502   47.4559643
  17.5342844   47.4572342
  17.5325241   47.4585331
  17.5308851   47.4599703
  17.5282399   47.4634541
  17.5286282   47.4656934
  17.5276967   47.4673923
  17.5263852   47.4687749
  17.5209305   47.462988
  17.5191599   47.4612896
  17.5180431   47.4601272
  17.518026    47.459984
  17.5175652   47.4594961
  17.5166449   47.4589864
  17.5156602   47.4587234
  17.5157168   47.4586285
  17.5171389   47.4589875
  17.5167101   47.4585871
  17.514711    47.4561038
  17.5124196   47.4536067
  17.5122591   47.4535174
  17.51053     47.4518021
  17.5099005   47.451087
  17.5081213   47.4490789
  17.5068142   47.4477745
  17.5058714   47.4468574
  17.5047355   47.4456936
  17.5038636   47.4446764
  17.505183    47.4430257
  17.5069378   47.442242
  17.5080944   47.4411108
  17.5075503   47.4403411
  17.5064824   47.4384239
  17.5032217   47.4349526
  17.5020874   47.4353217
  17.5015213   47.4353141
  17.4993619   47.4326198
  17.4982279   47.4329827
  17.4976728   47.4325971
  17.4971158   47.4325896
  17.496561    47.4321978
  17.4960151   47.4318124
  17.4938026   47.4306359
  17.4921337   47.4302353
  17.4904761   47.4294505
  17.4888206   47.4282876
  17.4882861   47.4275179
  17.4877424   47.4267482
  17.4849957   47.4248081
  17.4835435   47.4235263
  17.482806    47.4228754
  17.4805358   47.4239851
  17.4765766   47.4250717
  17.4737308   47.4261795
  17.4692144   47.4272583
  17.4658229   47.4279742
  17.4646772   47.4287208
  17.4640975   47.4294753
  17.4629973   47.4286977
  17.4602742   47.4259949
  17.45864     47.4244476
  17.4557941   47.4255488
  17.4540914   47.4262877
  17.4529342   47.4274122
  17.4483941   47.4292584
  17.4449564   47.4314916
  17.4465099   47.4357034
  17.4464065   47.4391297
  17.4469497   47.4398996
  17.4480385   47.4410553
  17.4474377   47.4421936
  17.4462571   47.4440802
  17.443916    47.4474754
  17.4444387   47.4486231
  17.4444157   47.4493852
  17.4443696   47.4509094
  17.4415656   47.4508704
  17.4404307   47.4512326
  17.4387501   47.4512092
  17.4381953   47.4508233
  17.4376267   47.4511935
  17.4353452   47.4523021
  17.4330751   47.4530328
  17.4302128   47.4549018
  17.4273272   47.4575266
  17.426726    47.4586586
  17.4260988   47.460937
  17.4237466   47.4643317
  17.4220191   47.4658259
  17.4214293   47.46658
  17.4191675   47.4673105
  17.4191091   47.4692126
  17.4212659   47.4719084
  17.4234435   47.4742263
  17.4222847   47.4753505
  17.421149    47.4757187
  17.423327    47.4780305
  17.4229236   47.4785669
  17.4199289   47.4791293
  17.4176575   47.4798596
  17.4148169   47.4809599
  17.4102854   47.4820362
  17.4091495   47.4824043
  17.3984964   47.4818682
  17.3917373   47.4825338
  17.3916897   47.4840579
  17.3911231   47.4840498
  17.3911112   47.4844277
  17.3922116   47.4852059
  17.3910636   47.4859518
  17.3893819   47.4859277
  17.3883294   47.4836253
  17.38516     47.4771085
  17.3846144   47.4767225
  17.3840718   47.4759523
  17.3841077   47.4748061
  17.3835861   47.473658
  17.3836579   47.4713718
  17.3842392   47.4706178
  17.3848414   47.469486
  17.3842988   47.4687157
  17.3837534   47.4683297
  17.3837654   47.4679456
  17.386013    47.467978
  17.3860248   47.4676001
  17.3844779   47.4630095
  17.3839326   47.4626173
  17.3833993   47.4618472
  17.3839923   47.4607152
  17.3829284   47.4587969
  17.3812835   47.4576326
  17.3807531   47.4564782
  17.3801839   47.4568543
  17.3797804   47.4562814
  17.3796415   47.4560841
  17.3669883   47.447898
  17.3659131   47.4463636
  17.3648231   47.4455853
  17.3620708   47.4436421
  17.3615137   47.443634
  17.359243    47.4443631
  17.3586981   47.4439708
  17.3569964   47.4443302
  17.3508322   47.4442396
  17.3497213   47.4438389
  17.3492599   47.4435173
  17.3491804   47.4434619
  17.3491672   47.4434527
  17.3486224   47.4430603
  17.3480807   47.4422899
  17.3469666   47.4422735
  17.3447689   47.4407224
  17.3448057   47.4395762
  17.3436825   47.4395596
  17.3430919   47.4403133
  17.3430795   47.4406974
  17.3419412   47.4414368
  17.3391408   47.4410172
  17.3397191   47.4406476
  17.3391654   47.4402551
  17.3386083   47.4402469
  17.3380389   47.4406227
  17.3352388   47.4401968
  17.3341279   47.4398022
  17.3324477   47.4397772
  17.3307553   47.4401301
  17.3296444   47.4397355
  17.327915    47.4412283
  17.3261637   47.4431114
  17.3239389   47.4426938
  17.3178278   47.4406992
  17.3122619   47.4390907
  17.3134721   47.4364435
  17.3112259   47.4364097
  17.3067427   47.436342
  17.2989531   47.4343211
  17.3006706   47.4332066
  17.2990785   47.430517
  17.297377    47.4308693
  17.2957223   47.4300817
  17.2940676   47.4292941
  17.2935016   47.4292854
  17.2923751   47.4296526
  17.2923499   47.4304147
  17.2912019   47.4311534
  17.2906232   47.4315289
  17.2878078   47.4318641
  17.2861151   47.4322225
  17.2855618   47.4318297
  17.2850175   47.4314433
  17.2833755   47.4302776
  17.2822653   47.4298763
  17.2816993   47.4298676
  17.2811424   47.4298591
  17.2805764   47.4298504
  17.2800067   47.430226
  17.2788585   47.4309646
  17.2777102   47.4317094
  17.2765872   47.4316921
  17.2754514   47.432059
  17.2748435   47.4335745
  17.2742648   47.4339438
  17.2737079   47.4339352
  17.2731636   47.4335487
  17.2725975   47.43354
  17.2715      47.4327606
  17.2715129   47.4323765
  17.2720916   47.4320073
  17.2732274   47.4316405
  17.2732656   47.4305005
  17.2727122   47.4301138
  17.2721553   47.4301052
  17.2715766   47.4304744
  17.2715384   47.4316144
  17.2709686   47.43199
  17.2698457   47.4319726
  17.2693143   47.431202
  17.2682042   47.4308005
  17.2676382   47.4307918
  17.265971    47.4303879
  17.2648481   47.4303705
  17.2636995   47.4311152
  17.2636868   47.4314931
  17.2647969   47.4318946
  17.2653538   47.4319032
  17.2658816   47.433052
  17.2647586   47.4330346
  17.2636227   47.4334014
  17.2624997   47.433384
  17.2624613   47.4345239
  17.2618787   47.4352774
  17.2596326   47.4352425
  17.2585353   47.434463
  17.2557195   47.4347974
  17.2523633   47.434367
  17.2523763   47.4339829
  17.2506963   47.4339567
  17.2484631   47.4335438
  17.246796    47.4331396
  17.245673    47.433122
  17.2445372   47.4334824
  17.2439415   47.4346137
  17.2405334   47.435707
  17.2394235   47.4353053
  17.2394623   47.4341653
  17.2388925   47.4345345
  17.2371994   47.4348922
  17.2366334   47.4348833
  17.2371734   47.4356543
  17.2371085   47.4375563
  17.2353933   47.4382918
  17.2359076   47.4398186
  17.2342052   47.4401761
  17.2336482   47.4401674
  17.2330952   47.4397743
  17.2331342   47.4386344
  17.2337132   47.4382654
  17.2337264   47.4378812
  17.2337393   47.4375033
  17.2331992   47.4367324
  17.2320853   47.4367148
  17.2303571   47.4378281
  17.2303178   47.4389743
  17.2297608   47.4389655
  17.229774    47.4385814
  17.2281371   47.4370307
  17.2247508   47.4377396
  17.2241715   47.4381148
  17.2235883   47.438868
  17.2230314   47.4388592
  17.2219477   47.4376952
  17.2221441   47.4319892
  17.221565    47.4323582
  17.2012508   47.4354624
  17.2006408   47.4369775
  17.2000442   47.4381086
  17.2000308   47.4384927
  17.1988414   47.4403767
  17.1982621   47.4407455
  17.1976519   47.4422606
  17.1965288   47.4422426
  17.1965156   47.4426205
  17.1959228   47.4433734
  17.1959094   47.4437576
  17.1947555   47.4448796
  17.1930395   47.4456145
  17.1930529   47.4452303
  17.1924959   47.4452214
  17.1936589   47.4440995
  17.1936856   47.4433375
  17.1931194   47.4433284
  17.1919561   47.4444564
  17.1908421   47.4444385
  17.1908555   47.4440544
  17.190316    47.4432832
  17.1903293   47.4429053
  17.1897989   47.4421343
  17.1892328   47.4421252
  17.1892061   47.4428872
  17.189759    47.4432742
  17.1891661   47.4440271
  17.1885956   47.4444023
  17.1880429   47.444009
  17.1830332   47.4427875
  17.1824897   47.4423944
  17.182503    47.4420164
  17.1830733   47.4416475
  17.1819501   47.4416294
  17.1814066   47.4412362
  17.1808496   47.4412272
  17.1808629   47.4408493
  17.1803236   47.4400781
  17.180364    47.4389319
  17.1815137   47.4381943
  17.1815272   47.4378102
  17.1804041   47.437792
  17.1776279   47.4369845
  17.1759748   47.4361952
  17.177138    47.4350735
  17.1771513   47.4346956
  17.1765988   47.4343023
  17.1766257   47.4335402
  17.1755296   47.43276
  17.1727268   47.4327144
  17.1767196   47.4308762
  17.1778559   47.4305165
  17.1779766   47.4270905
  17.1768673   47.4266881
  17.1775004   47.4247954
  17.1823437   47.4145898
  17.1847759   47.4092981
  17.1859786   47.4070302
  17.187751    47.4043933
  17.1906722   47.4010124
  17.1941453   47.3980247
  17.1953073   47.3969027
  17.2089139   47.392546
  17.1891072   47.3815658
  17.2121978   47.3625088
  17.2133323   47.3621487
  17.2155623   47.3625624
  17.2166705   47.3629644
  17.2177699   47.36336
  17.2194304   47.3641488
  17.2205912   47.3630267
  17.2223342   47.3611513
  17.2241033   47.3585138
  17.2258293   47.3573943
  17.2270197   47.3551319
  17.2275849   47.3551409
  17.2287062   47.3551586
  17.2309268   47.3555718
  17.2326134   47.3555984
  17.2343169   47.3548628
  17.2360072   47.3545113
  17.2377197   47.3537758
  17.2394231   47.3530401
  17.2411263   47.3523044
  17.2433948   47.3515776
  17.2445419   47.3508331
  17.2479571   47.3493678
  17.2502292   47.3482565
  17.2519413   47.3475208
  17.2536442   47.3467849
  17.2548038   47.3456624
  17.2593433   47.34383
  17.2593562   47.3434459
  17.2610168   47.3442341
  17.2682775   47.344731
  17.269386    47.3451263
  17.2808287   47.3380685
  17.2833142   47.335984
  17.2847358   47.3352041
  17.2848343   47.3349581
  17.2870208   47.3335907
  17.2895202   47.3327189
  17.2904502   47.332411
  17.2927795   47.3316117
  17.2937145   47.3307236
  17.2952196   47.3292628
  17.2957259   47.3288872
  17.2851114   47.3237767
  17.283652    47.3230801
  17.2778509   47.3201298
  17.2757659   47.31908
  17.2747596   47.3185478
  17.2731085   47.317766
  17.2719753   47.3181267
  17.2697342   47.318092
  17.2641278   47.3183833
  17.2618867   47.3183485
  17.2618738   47.3187327
  17.2573915   47.318663
  17.2540518   47.3182266
  17.2517977   47.3185757
  17.2462079   47.3181039
  17.2417476   47.3176558
  17.2417605   47.3172779
  17.2400842   47.3172516
  17.23568     47.3148948
  17.2340298   47.3141063
  17.2312852   47.312538
  17.2301909   47.3117582
  17.227989    47.3105828
  17.2258134   47.3086452
  17.2252448   47.3090144
  17.2246931   47.3086275
  17.2215111   47.3036239
  17.2204433   47.302082
  17.2171349   47.3005106
  17.2154986   47.2993377
  17.2132451   47.2996861
  17.2156034   47.2962956
  17.2184971   47.291932
  17.2179826   47.2895364
  17.2189095   47.2814953
  17.2194739   47.2815043
  17.2183936   47.2803403
  17.2140982   47.2749406
  17.2135036   47.2760718
  17.212913    47.2768248
  17.2083116   47.2805637
  17.2062171   47.2763395
  17.2050843   47.2766995
  17.204057    47.2740174
  17.2029638   47.2732374
  17.2024216   47.2728505
  17.2024481   47.2720885
  17.201897    47.2716953
  17.2024745   47.2713264
  17.1997991   47.2678553
  17.1993009   47.2659441
  17.1987987   47.264411
  17.1995388   47.2590917
  17.2012355   47.2587408
  17.2047293   47.2546064
  17.2056412   47.2486204
  17.2061777   47.2451077
  17.2082464   47.2337097
  17.2093651   47.2337276
  17.2091782   47.223062
  17.2094936   47.2139233
  17.2072569   47.2138875
  17.2084803   47.2108633
  17.2091268   47.208208
  17.2130493   47.2078864
  17.2130361   47.2082706
  17.2141543   47.2082884
  17.2142068   47.2067643
  17.2137047   47.2052313
  17.2126258   47.2040734
  17.2115339   47.2032934
  17.2110319   47.2017603
  17.2094421   47.1990692
  17.2094684   47.1983071
  17.2085038   47.1941072
  17.2079929   47.192574
  17.2080062   47.1921899
  17.2080325   47.1914278
  17.208609    47.1910589
  17.208622    47.190681
  17.2086353   47.1902968
  17.2091897   47.1903057
  17.2097703   47.1895525
  17.2092422   47.1887816
  17.208714    47.1880168
  17.2087272   47.1876326
  17.2081638   47.1876236
  17.2081768   47.1872457
  17.2081901   47.1868615
  17.2076488   47.1864747
  17.207662    47.1860905
  17.2076751   47.1857126
  17.2088061   47.1853464
  17.2082557   47.1849594
  17.2088717   47.1834443
  17.2088847   47.1830663
  17.208911    47.1823043
  17.2094786   47.181929
  17.2094916   47.1815511
  17.2095046   47.1811731
  17.2095309   47.180411
  17.2106618   47.1800448
  17.2106748   47.1796669
  17.2101247   47.1792737
  17.2096098   47.1781248
  17.2096228   47.1777469
  17.2091081   47.1765917
  17.2085578   47.1762048
  17.2080298   47.1754338
  17.2074796   47.1750468
  17.206362    47.1750289
  17.2058341   47.1742579
  17.2052708   47.1742488
  17.2047166   47.1742399
  17.2041887   47.1734689
  17.204202    47.1730848
  17.2036387   47.1730757
  17.2030976   47.1726889
  17.2025343   47.1726798
  17.2025476   47.1722957
  17.2019934   47.1722868
  17.2026398   47.1696315
  17.2019343   47.1686095
  17.2010472   47.1664903
  17.1999298   47.1664723
  17.1971807   47.165281
  17.19605     47.1656471
  17.1950121   47.1641771
  17.1945241   47.1622661
  17.1945372   47.1618881
  17.1951178   47.161135
  17.1951443   47.1603729
  17.1951707   47.1596108
  17.1951841   47.1592267
  17.1957604   47.1588578
  17.1963938   47.1565805
  17.1975372   47.1558427
  17.1981176   47.1550895
  17.1975769   47.1546965
  17.1970534   47.1535474
  17.1970798   47.1527853
  17.1970929   47.1524073
  17.1971194   47.1516452
  17.1976824   47.1516543
  17.1971591   47.150499
  17.1971723   47.1501211
  17.1966316   47.149728
  17.1971856   47.1497369
  17.1966447   47.14935
  17.1966712   47.148588
  17.1978146   47.1478439
  17.1983685   47.1478528
  17.1983816   47.1474749
  17.198958    47.1470998
  17.199525    47.1467308
  17.200088    47.1467399
  17.2001013   47.1463558
  17.1995514   47.1459688
  17.2001408   47.1452157
  17.2001539   47.1448378
  17.2007211   47.1444626
  17.2007342   47.1440846
  17.2013105   47.1437096
  17.2007737   47.1429446
  17.2013366   47.1429537
  17.2002462   47.1421736
  17.2008133   47.1417984
  17.2008397   47.1410363
  17.2002989   47.1406494
  17.2003123   47.1402653
  17.2003253   47.1398873
  17.2003384   47.1395094
  17.2009056   47.1391342
  17.2009583   47.13761
  17.2009714   47.1372321
  17.2022967   47.1336856
  17.202879    47.1304064
  17.2094224   47.1187019
  17.2218624   47.1139539
  17.214703    47.1111676
  17.2141624   47.1107808
  17.2141754   47.1104029
  17.2130592   47.110385
  17.2124966   47.110376
  17.2124836   47.1107539
  17.211917    47.111123
  17.2113634   47.1111141
  17.2119038   47.1115072
  17.2113502   47.1114983
  17.2108793   47.108825
  17.2127321   47.1035234
  17.2139005   47.102017
  17.2133603   47.101624
  17.2122702   47.1008503
  17.211743    47.1000793
  17.2129285   47.0978107
  17.2147245   47.0944113
  17.2153823   47.091378
  17.2167462   47.084159
  17.216232    47.0830101
  17.2156958   47.082239
  17.2157088   47.0818611
  17.2151687   47.0814681
  17.2140532   47.0814502
  17.2129506   47.0810544
  17.2090768   47.0802297
  17.2079745   47.0798276
  17.2063581   47.0782828
  17.2025373   47.0759337
  17.2014482   47.0751536
  17.1981941   47.0724353
  17.1976673   47.0716643
  17.1971051   47.0716552
  17.196069    47.0693509
  17.1961216   47.0678329
  17.1955949   47.0670619
  17.1956082   47.0666777
  17.189492    47.0662004
  17.1878236   47.0661733
  17.1878105   47.0665512
  17.1872483   47.0665421
  17.186133    47.066524
  17.1821543   47.0687467
  17.1770599   47.0709511
  17.1736562   47.0727987
  17.1713987   47.0735242
  17.1685478   47.0753806
  17.1668122   47.0772554
  17.1661962   47.0787703
  17.1656028   47.0799012
  17.1656297   47.0791391
  17.1640054   47.0775936
  17.1629035   47.0771911
  17.1624174   47.0752798
  17.1613558   47.0737373
  17.1608429   47.0725881
  17.1597545   47.0718076
  17.1591789   47.0721763
  17.15805     47.072542
  17.1574295   47.074435
  17.1556799   47.0766937
  17.154524    47.0778153
  17.1539213   47.078946
  17.1511235   47.079284
  17.1483258   47.0796158
  17.1449655   47.0799444
  17.142195    47.0795139
  17.1410929   47.0791174
  17.1405397   47.0791082
  17.1400047   47.0783367
  17.138912    47.0779341
  17.1361868   47.0759854
  17.1350987   47.0752047
  17.1339923   47.0751862
  17.1318023   47.0740089
  17.1295851   47.0735935
  17.1284697   47.0735748
  17.1273682   47.073172
  17.1251739   47.0723726
  17.1240722   47.0719759
  17.1229706   47.071573
  17.1174488   47.0699612
  17.1141395   47.0691427
  17.107526    47.0671275
  17.1064107   47.0671086
  17.1025259   47.0666583
  17.0991802   47.0666014
  17.0980787   47.0662044
  17.0964245   47.0657919
  17.0931346   47.0642106
  17.0903512   47.064163
  17.0875678   47.0641154
  17.0853233   47.0644613
  17.0841943   47.0648201
  17.0830791   47.0648009
  17.0819497   47.0651659
  17.076922    47.0654576
  17.07531     47.0639047
  17.074813    47.0623773
  17.0743916   47.0585572
  17.0744337   47.0574172
  17.0745182   47.055131
  17.0740213   47.0536036
  17.0740494   47.0528415
  17.0735579   47.0509235
  17.0735719   47.0505456
  17.074162    47.0497932
  17.075305    47.0490504
END
END
