polygon
1
  19.5709386   47.7349031
  19.5717764   47.7344445
  19.5725525   47.7339542
  19.5751146   47.7325543
  19.5791719   47.7306568
  19.5797053   47.7303877
  19.5807978   47.729696
  19.5832368   47.7273602
  19.584396    47.726087
  19.5859861   47.724838
  19.5876403   47.7234095
  19.5888534   47.7225969
  19.5910205   47.7213029
  19.5961401   47.7181574
  19.5984306   47.7166564
  19.5994554   47.7162253
  19.6009295   47.7153542
  19.6051611   47.7126346
  19.6067257   47.711911
  19.6042059   47.7074562
  19.6050441   47.7071428
  19.60477     47.7067068
  19.6046698   47.7065164
  19.6046083   47.7062728
  19.6044564   47.7049795
  19.6036652   47.7015119
  19.6027782   47.7016473
  19.6018708   47.7020288
  19.6011233   47.7024134
  19.600801    47.7025272
  19.5993038   47.7026218
  19.5948925   47.697143
  19.5948132   47.696872
  19.5950132   47.6963381
  19.5953904   47.6960243
  19.5956214   47.6959122
  19.597711    47.6950959
  19.5994593   47.6944926
  19.6012302   47.6933407
  19.6011494   47.6932657
  19.5994775   47.6921947
  19.5969813   47.6907546
  19.5914358   47.6879125
  19.5934184   47.6843872
  19.5951059   47.6821281
  19.5966256   47.6806086
  19.5992237   47.6783395
  19.6038018   47.6727689
  19.6071726   47.6673813
  19.6078104   47.6658734
  19.6079148   47.6648785
  19.6075242   47.6638945
  19.6071184   47.6623557
  19.6073634   47.661398
  19.6092207   47.6602936
  19.6101882   47.6596529
  19.6108681   47.6589934
  19.6116142   47.6580876
  19.6120159   47.657048
  19.612263    47.6568243
  19.6131639   47.6562615
  19.6143121   47.655163
  19.6162068   47.6541228
  19.6172717   47.653511
  19.6182398   47.6528651
  19.6192424   47.6523341
  19.6234513   47.6504429
  19.6241382   47.6502333
  19.6266414   47.6496665
  19.6290593   47.649224
  19.6314242   47.6485454
  19.6335079   47.6476152
  19.6359627   47.6473808
  19.6385835   47.6475656
  19.6410798   47.6474553
  19.642903    47.6469693
  19.6444036   47.6460791
  19.6431796   47.6439116
  19.6369362   47.6370501
  19.6376672   47.6367629
  19.639165    47.6362297
  19.641361    47.6352819
  19.6427809   47.6349458
  19.6432161   47.6327299
  19.6430466   47.6316025
  19.6431118   47.6307886
  19.6433188   47.6301548
  19.6442347   47.6296166
  19.6451976   47.6288831
  19.6471442   47.6278237
  19.6482784   47.6264498
  19.6512447   47.622026
  19.6546121   47.6184161
  19.656519    47.6164968
  19.6568573   47.6141083
  19.6573486   47.6120536
  19.6565716   47.6094752
  19.6561101   47.6082481
  19.6558355   47.6076597
  19.6556563   47.6048792
  19.6551523   47.6031232
  19.6536496   47.5985083
  19.6551832   47.5969245
  19.6567213   47.595705
  19.6579026   47.5948883
  19.659296    47.5938917
  19.6635928   47.5906072
  19.6663277   47.5885507
  19.6756683   47.5911615
  19.6791947   47.5917446
  19.6845503   47.590804
  19.691856    47.5880366
  19.6958591   47.5850329
  19.6983286   47.5859629
  19.7047698   47.5858114
  19.7022184   47.6065723
  19.7129736   47.6114589
  19.7259631   47.6134562
  19.7420066   47.6201559
  19.7583725   47.6210568
  19.7682795   47.6160855
  19.7727966   47.6161891
  19.8100965   47.5985339
  19.8185615   47.5939211
  19.8299392   47.603629
  19.8364233   47.6058191
  19.8450547   47.6211986
  19.8540157   47.6255488
  19.8569319   47.6267451
  19.8720156   47.6308774
  19.8691811   47.6400853
  19.8748645   47.6658428
  19.8766224   47.6681287
  19.8849331   47.665628
  19.8863202   47.6630726
  19.8896034   47.6614051
  19.8999177   47.6585565
  19.9039376   47.6567894
  19.9114121   47.6544481
  19.9177683   47.6571999
  19.9311644   47.6616286
  19.9406879   47.6634757
  19.9489639   47.6657081
  19.9568482   47.6662658
  19.9618403   47.6673209
  19.9693213   47.675929
  19.9707164   47.6766661
  19.9721308   47.6767737
  19.973383    47.6761752
  19.9738867   47.6750011
  19.9739255   47.6738791
  19.9743701   47.6734
  19.9755803   47.6734668
  19.976185    47.6740362
  19.977097    47.6741773
  19.9771676   47.6741882
  19.9784573   47.6739878
  19.9807042   47.6730383
  19.9822221   47.6731107
  19.9831321   47.6734851
  19.9849773   47.673434
  19.9875556   47.6739447
  19.9896728   47.6740264
  19.9934127   47.6731864
  19.9972794   47.6710096
  19.999891    47.6675432
  20.0000198   47.6632075
  20.002991    47.6611334
  20.0037133   47.6585992
  20.000928    47.6548063
  20.0034832   47.6540569
  20.0069224   47.6283705
  20.0134617   47.6202086
  20.0190928   47.6155965
  20.0170233   47.6122199
  20.0093295   47.6000027
  20.0081868   47.5960169
  20.0052841   47.5941688
  20.0114377   47.5899967
  20.0165765   47.5845884
  20.019091    47.580968
  20.0359105   47.5762783
  20.045098    47.5701617
  20.0522297   47.5699624
  20.0764388   47.5632389
  20.0830394   47.5621936
  20.1010625   47.5573167
  20.1123158   47.5533075
  20.1161598   47.5578273
  20.1214247   47.5611529
  20.1318103   47.5651827
  20.1167973   47.5718841
  20.1103792   47.5793365
  20.1101203   47.5797934
  20.1083743   47.5828755
  20.1079401   47.5862034
  20.1029847   47.58975
  20.1068456   47.5904386
  20.1078954   47.5906333
  20.1086191   47.5909029
  20.1123226   47.5923231
  20.120735    47.5955487
  20.1360441   47.5986181
  20.138802    47.5999722
  20.1577645   47.6021543
  20.1670909   47.6060803
  20.1745153   47.6073784
  20.2086437   47.6076595
  20.2098462   47.5964994
  20.214232    47.5834672
  20.2261369   47.5798252
  20.2265492   47.5738024
  20.2317095   47.570479
  20.2284542   47.5668113
  20.2287696   47.5662268
  20.2311555   47.5617278
  20.2351216   47.5624127
  20.2361971   47.5618759
  20.2425256   47.5587176
  20.2485738   47.5571477
  20.2603215   47.5558133
  20.2552443   47.5474025
  20.2653581   47.545061
  20.2862024   47.5432663
  20.2933819   47.5339806
  20.2970647   47.5281586
  20.3033951   47.5181498
  20.301451    47.5175667
  20.3021127   47.5093984
  20.2874206   47.4866872
  20.2977986   47.477388
  20.2985064   47.4755626
  20.336853    47.4425798
  20.3520271   47.4403801
  20.3633695   47.4407608
  20.3803705   47.4461829
  20.3808043   47.4451112
  20.3820142   47.4441081
  20.3815849   47.4429202
  20.3803359   47.4421283
  20.380171    47.4416674
  20.3820849   47.4401416
  20.3818425   47.4393219
  20.3812885   47.4389237
  20.3813695   47.4370266
  20.3807691   47.4365581
  20.3774102   47.4366987
  20.3767869   47.4360428
  20.38115     47.4330623
  20.3805991   47.4263322
  20.3815075   47.4242873
  20.3857048   47.4221788
  20.3890858   47.4210713
  20.3924132   47.420454
  20.398075    47.4204358
  20.4029922   47.4210122
  20.4072252   47.4219427
  20.4140169   47.422306
  20.4206419   47.4232862
  20.4218933   47.4237224
  20.4269629   47.4254894
  20.4332914   47.4288102
  20.4387246   47.4319228
  20.4479818   47.4389515
  20.4481278   47.4391952
  20.4482365   47.4394431
  20.4482924   47.439691
  20.448307    47.4399315
  20.4472626   47.4453465
  20.4473971   47.4470018
  20.4477612   47.4485971
  20.4484119   47.4498069
  20.4492348   47.4509611
  20.4511285   47.4533736
  20.4591796   47.4587067
  20.4635382   47.460964
  20.4675293   47.4637348
  20.4694819   47.4649098
  20.4705876   47.4652463
  20.4716645   47.4653831
  20.4735947   47.4654253
  20.4764942   47.4648322
  20.4815799   47.4635076
  20.4841739   47.4628319
  20.4868841   47.4628136
  20.4898325   47.4631606
  20.4965727   47.4650067
  20.4999333   47.4663541
  20.506833    47.4704792
  20.5110658   47.4750724
  20.5121263   47.4762231
  20.5144122   47.4799254
  20.5155353   47.483174
  20.5154563   47.4855249
  20.5185916   47.4907501
  20.521484    47.5007565
  20.5259469   47.501721
  20.5405419   47.504994
  20.5473392   47.507605
  20.5578372   47.5090402
  20.5636743   47.5107316
  20.571132    47.5128333
  20.574545    47.5134818
  20.5789245   47.5151453
  20.5801562   47.5162209
  20.5815337   47.517763
  20.5843081   47.5199782
  20.5876541   47.5217357
  20.5937236   47.5233997
  20.5962108   47.5241791
  20.5980525   47.5250614
  20.599801    47.5259941
  20.6105812   47.5333387
  20.612498    47.5344661
  20.6202059   47.5374374
  20.6267719   47.5393768
  20.634337    47.5409391
  20.6438368   47.544049
  20.6558801   47.5500194
  20.6566769   47.5502799
  20.6574862   47.5504606
  20.6617512   47.5513759
  20.6647396   47.5521792
  20.6673049   47.5536606
  20.6679312   47.5547737
  20.6686801   47.5563735
  20.6686273   47.561103
  20.6676641   47.5646896
  20.6630827   47.5692864
  20.6629893   47.5696478
  20.6630726   47.5699946
  20.6633567   47.5703368
  20.6638305   47.5705874
  20.6645088   47.570652
  20.667524    47.5705472
  20.6758285   47.5690266
  20.680458    47.5689088
  20.6850874   47.5690834
  20.6882181   47.569509
  20.6904604   47.5699956
  20.6978891   47.5728601
  20.7018088   47.5746832
  20.7051699   47.5769334
  20.7073403   47.5794354
  20.7090877   47.5844542
  20.7092657   47.5871025
  20.7085705   47.5884151
  20.7074235   47.5894159
  20.7019274   47.5907728
  20.6993945   47.5914798
  20.6980376   47.5925739
  20.6972941   47.5929778
  20.695928    47.5955386
  20.6958068   47.5978942
  20.6970404   47.6001496
  20.6971755   47.6003966
  20.6996105   47.6023311
  20.7030994   47.6039239
  20.7094587   47.6051959
  20.7138068   47.6057289
  20.7153087   47.6062457
  20.7160253   47.6066197
  20.7164777   47.6070464
  20.7170175   47.6080691
  20.7170616   47.6085776
  20.7171111   47.6091473
  20.7160025   47.6117515
  20.7158687   47.6132097
  20.7159066   47.6132905
  20.7165615   47.6146879
  20.7183967   47.6162633
  20.7202039   47.6185217
  20.7206366   47.6195629
  20.7207604   47.6204306
  20.7205342   47.6211936
  20.7192328   47.6228091
  20.7153327   47.6281034
  20.7144656   47.6305768
  20.7145212   47.6321468
  20.7148817   47.6335882
  20.7154121   47.6345483
  20.7164915   47.6354835
  20.7173653   47.6361993
  20.7184609   47.6367907
  20.7192019   47.6370814
  20.7260406   47.639764
  20.7304631   47.642404
  20.7328157   47.6429554
  20.7399845   47.6425429
  20.7442932   47.641609
  20.7493752   47.6405074
  20.7524605   47.6404906
  20.7549791   47.6404768
  20.7586793   47.6413593
  20.7613495   47.6433234
  20.764844    47.6486325
  20.7712291   47.6538528
  20.77175     47.6544101
  20.7667172   47.6556318
  20.7639178   47.6564295
  20.762268    47.6576007
  20.7606179   47.6587656
  20.7595148   47.6595443
  20.7573579   47.6626258
  20.7562669   47.6637824
  20.7562916   47.6645444
  20.7557444   47.6649306
  20.7535378   47.6664879
  20.7524344   47.6672665
  20.7513186   47.6676611
  20.7507592   47.6676693
  20.7473752   47.6677191
  20.7468158   47.6677273
  20.7456756   47.667366
  20.7440003   47.6677687
  20.7429213   47.6693092
  20.7423648   47.6696955
  20.7418054   47.6697037
  20.7412736   47.6708581
  20.7307648   47.6771043
  20.7280094   47.6790472
  20.7274407   47.6790555
  20.7268932   47.6794415
  20.7257772   47.679842
  20.7252176   47.6798501
  20.7252296   47.680228
  20.724174    47.6825304
  20.7186528   47.6864159
  20.715313    47.6876108
  20.7125205   47.6884134
  20.7108352   47.6888157
  20.7108471   47.6891936
  20.7097426   47.6899718
  20.7091829   47.6899799
  20.7086354   47.690372
  20.7063663   47.6900203
  20.704681    47.6904287
  20.7041332   47.6908146
  20.6989999   47.6889852
  20.6933191   47.6875415
  20.6876532   47.6868596
  20.6843243   47.6884314
  20.6804617   47.6911512
  20.6771703   47.694247
  20.6729785   47.6863105
  20.6639834   47.6871927
  20.6532768   47.6873418
  20.6492649   47.6854946
  20.6413981   47.6863656
  20.638045    47.6871741
  20.6336341   47.6906622
  20.6168603   47.6954588
  20.6084226   47.6963352
  20.6028445   47.6983131
  20.5984193   47.7014218
  20.5962379   47.7043223
  20.5957136   47.7052636
  20.5946184   47.7064248
  20.5929408   47.7068253
  20.590694    47.7072333
  20.5890388   47.708402
  20.5896543   47.7102965
  20.5891277   47.7114439
  20.5840963   47.7130355
  20.5835253   47.712665
  20.5835141   47.7122809
  20.581816    47.7123034
  20.581805    47.7119255
  20.5812339   47.7115488
  20.5806649   47.7115564
  20.580094    47.7111859
  20.5795341   47.7111933
  20.5789871   47.7119628
  20.577847    47.7115937
  20.5767512   47.7127547
  20.5761913   47.7127621
  20.5734284   47.7147013
  20.5734504   47.7154633
  20.5723323   47.7158561
  20.5717631   47.7158636
  20.5706543   47.7162625
  20.5700961   47.7166479
  20.5695581   47.7174173
  20.5689999   47.7178027
  20.569011    47.7181868
  20.569591    47.7185573
  20.5707202   47.7185424
  20.5712913   47.7189192
  20.574778    47.7223006
  20.5776405   47.7237812
  20.5782339   47.72492
  20.578267    47.7260599
  20.577729    47.7268294
  20.5812075   47.7302107
  20.5817768   47.7302032
  20.5835107   47.7317048
  20.5881063   47.7343088
  20.5898182   47.7350484
  20.5909922   47.7365512
  20.5933072   47.7384292
  20.5944703   47.7395541
  20.5961824   47.7402935
  20.5889225   47.7430554
  20.5855982   47.7450023
  20.5761881   47.7516035
  20.5739283   47.7516333
  20.573379    47.7520186
  20.5728094   47.7520261
  20.5705809   47.7528178
  20.569473    47.7535947
  20.5567219   47.7617565
  20.5571775   47.7615342
  20.5561631   47.7621418
  20.5567327   47.7621344
  20.5561741   47.7625259
  20.5561959   47.763288
  20.5556355   47.7632953
  20.5556245   47.7629112
  20.5550548   47.7629186
  20.5500717   47.7664106
  20.5495112   47.7664179
  20.5466796   47.7660765
  20.5461099   47.7660839
  20.5444516   47.7672457
  20.5455818   47.767231
  20.5428258   47.7695536
  20.5422668   47.7699388
  20.5423424   47.7726028
  20.5417928   47.7729942
  20.541223    47.7730015
  20.5412337   47.7733794
  20.5367216   47.7734375
  20.5344394   47.7727045
  20.5333091   47.772719
  20.5310699   47.77351
  20.5289256   47.777349
  20.5283772   47.7781183
  20.5261896   47.7804269
  20.524532    47.7819727
  20.5240247   47.7838818
  20.5201468   47.7865961
  20.5213095   47.7877278
  20.5218808   47.7880986
  20.5213307   47.7884837
  20.5207821   47.7892529
  20.5202747   47.7911682
  20.5199415   47.7916167
  20.5197153   47.7915534
  20.519344    47.7919434
  20.5186165   47.7927077
  20.5160451   47.7945236
  20.5158474   47.7946516
  20.5153184   47.7957987
  20.5147484   47.7958059
  20.5141981   47.7961909
  20.513078    47.7965893
  20.5125171   47.7965964
  20.5125277   47.7969743
  20.5130992   47.7973513
  20.5125489   47.7977364
  20.5108585   47.7981357
  20.5103083   47.7985269
  20.5080466   47.7985555
  20.5074962   47.7989404
  20.5075068   47.7993245
  20.5080782   47.7996954
  20.5080888   47.8000795
  20.5064498   47.8020028
  20.5070423   47.8031357
  20.5064814   47.8031427
  20.505922    47.803534
  20.5031621   47.8058494
  20.5026223   47.8066184
  20.5021364   47.8096737
  20.501628    47.8115827
  20.5016385   47.8119606
  20.5016595   47.8127226
  20.5022311   47.8130997
  20.5028224   47.8138546
  20.5017753   47.8169106
  20.5018489   47.8195746
  20.5035308   47.8191755
  20.5041011   47.8191683
  20.5035729   47.8206933
  20.5058778   47.8221889
  20.5093687   47.8259564
  20.5116951   47.8282078
  20.5131129   47.8384714
  20.5125941   47.8400025
  20.5126366   47.8415265
  20.5121296   47.8438136
  20.5088596   47.8480442
  20.5082997   47.8484355
  20.5078123   47.8511065
  20.5067331   47.8530227
  20.5062152   47.8549318
  20.5062468   47.8560717
  20.5057277   47.8576028
  20.5041078   47.860288
  20.50306     47.8633503
  20.5025104   47.8641194
  20.4997368   47.8660567
  20.4963922   47.8680011
  20.4947192   47.8687842
  20.4930356   47.8691833
  20.4907814   47.8695955
  20.4902301   47.8699804
  20.4840169   47.8704417
  20.4800891   47.8716305
  20.4789566   47.8716445
  20.4755799   47.8724484
  20.4744577   47.8728402
  20.4738961   47.8728471
  20.4688251   47.8736716
  20.4671413   47.8740764
  20.4643054   47.874111
  20.4626317   47.8748937
  20.4609682   47.8760543
  20.4604279   47.8772011
  20.4599072   47.878732
  20.458223    47.8791305
  20.4565707   47.8810593
  20.4560496   47.882584
  20.4549577   47.8841217
  20.4533141   47.8860442
  20.4522221   47.8875819
  20.4500175   47.8898953
  20.4501394   47.8944612
  20.4496079   47.8956079
  20.4496385   47.896754
  20.4485359   47.8979076
  20.4479952   47.8990544
  20.4491385   47.8994248
  20.4508538   47.9001663
  20.4514351   47.9005374
  20.4526089   47.9020477
  20.4537522   47.9024119
  20.4583164   47.903881
  20.4605931   47.9042376
  20.4617466   47.9049796
  20.4618082   47.9072656
  20.4629825   47.9087758
  20.4652604   47.9095103
  20.4658316   47.9095033
  20.4664142   47.9102585
  20.468129    47.9106155
  20.468691    47.9106087
  20.4709474   47.910203
  20.473214    47.9101752
  20.4737656   47.9097842
  20.480421    47.9047508
  20.4809819   47.9043658
  20.4809716   47.9039879
  20.4826979   47.9051069
  20.4838311   47.9050929
  20.4849746   47.9054568
  20.4861078   47.9054427
  20.4878344   47.9065678
  20.4889676   47.9065538
  20.4912757   47.9080434
  20.4924195   47.9084134
  20.4935226   47.9076375
  20.4946454   47.9072454
  20.4957576   47.9064693
  20.4963288   47.9064622
  20.4974422   47.9060641
  20.4985965   47.9068119
  20.4997403   47.9071819
  20.4992098   47.9083288
  20.4975789   47.911014
  20.4964863   47.9121679
  20.4953739   47.912944
  20.4931702   47.9152582
  20.4931806   47.9156361
  20.4949077   47.9167611
  20.4960515   47.9171249
  20.4972164   47.9182506
  20.49444     47.920194
  20.4938686   47.9202011
  20.4950125   47.9205649
  20.4967489   47.9216835
  20.497311    47.9216765
  20.4990173   47.9220394
  20.5007222   47.9220181
  20.5018451   47.9216198
  20.5024073   47.9216128
  20.5029906   47.9223678
  20.5041453   47.9231155
  20.5058502   47.9230942
  20.507005    47.9238419
  20.5075672   47.9238349
  20.5081398   47.9242057
  20.5098555   47.9245683
  20.5109997   47.924932
  20.5110316   47.926078
  20.5116361   47.9275887
  20.5139247   47.9283221
  20.5178987   47.9286562
  20.5146679   47.9347888
  20.513078    47.938614
  20.5119866   47.9401522
  20.5108845   47.9413064
  20.5052239   47.9413775
  20.5034972   47.9406369
  20.5035079   47.941021
  20.5023831   47.941035
  20.5012807   47.9421891
  20.5007092   47.9421963
  20.4984097   47.9410847
  20.4962139   47.9433926
  20.4945503   47.9449378
  20.4923334   47.9464899
  20.4906487   47.9472731
  20.4878702   47.94921
  20.4873078   47.949217
  20.4856123   47.949616
  20.4833741   47.9504059
  20.4811163   47.950818
  20.478879    47.9519858
  20.4760999   47.9539225
  20.4750072   47.9554604
  20.4744756   47.9566072
  20.4733621   47.9573831
  20.4733725   47.9577672
  20.4728007   47.9577742
  20.4711141   47.9581729
  20.470562    47.9585639
  20.4694379   47.9589556
  20.4688763   47.9593405
  20.4688867   47.9597246
  20.467773    47.9605004
  20.4666488   47.9608922
  20.4660966   47.9612831
  20.4644099   47.9616817
  20.4632858   47.9620796
  20.4621821   47.9632333
  20.4616297   47.963618
  20.4616401   47.9640021
  20.4610682   47.9640091
  20.4605158   47.9643938
  20.4588198   47.9647986
  20.4582673   47.9651833
  20.4576955   47.9651903
  20.4560188   47.9659728
  20.4555298   47.9663134
  20.4549048   47.9667486
  20.4543626   47.9675173
  20.4537907   47.9675243
  20.4526765   47.9683
  20.4515512   47.9682991
  20.4516021   47.9702154
  20.4521852   47.9709706
  20.4539131   47.97209
  20.4539335   47.972852
  20.4584721   47.972797
  20.459045    47.9731681
  20.4601797   47.9731543
  20.46019     47.9735384
  20.4613348   47.9739025
  20.4607825   47.9742934
  20.4613759   47.9754264
  20.4613965   47.9761884
  20.4619684   47.9761815
  20.4708885   47.9916829
  20.4725355   47.9916011
  20.473008    47.991426
  20.4742834   47.9912633
  20.4776999   47.9919774
  20.478272    47.9919704
  20.4784891   47.9921132
  20.4788454   47.9923475
  20.480615    47.9946062
  20.4811884   47.9949834
  20.4812301   47.9965073
  20.4818034   47.9968783
  20.4818139   47.9972623
  20.4824173   47.9983952
  20.4824381   47.9991571
  20.4813446   48.0006951
  20.4807816   48.000702
  20.4796878   48.0022337
  20.4797295   48.0037576
  20.4803653   48.0064145
  20.4809896   48.0083093
  20.4815632   48.0086864
  20.4815944   48.0098263
  20.4821784   48.0105813
  20.4821992   48.0113433
  20.4828028   48.0124761
  20.4833868   48.0132311
  20.4834389   48.0151329
  20.4857206   48.0154889
  20.4846789   48.0189287
  20.4864183   48.0200475
  20.4881172   48.0200264
  20.4887014   48.0207814
  20.4887327   48.0219213
  20.4899      48.0230533
  20.4904933   48.0238019
  20.4905458   48.0257099
  20.4888793   48.0272488
  20.4894833   48.0283877
  20.4906296   48.0287516
  20.4911477   48.0297358
  20.4912243   48.0298844
  20.4918296   48.0314013
  20.4918716   48.0329253
  20.4902353   48.0352322
  20.4902771   48.0367499
  20.4914447   48.0378819
  20.4920395   48.0390147
  20.4926647   48.0409094
  20.4928617   48.041214
  20.4936157   48.0423798
  20.4910385   48.0435942
  20.4887871   48.0443843
  20.4882354   48.0451533
  20.4870038   48.0455872
  20.4859931   48.0459433
  20.4832001   48.0478801
  20.4832418   48.0494041
  20.4815837   48.0509489
  20.4805515   48.0547664
  20.4811764   48.0566612
  20.4783827   48.0586041
  20.489703    48.0604818
  20.4909378   48.0607297
  20.4915107   48.0607226
  20.4932215   48.0610856
  20.4994889   48.0617637
  20.5000525   48.0617566
  20.5018374   48.0647832
  20.5024739   48.0670619
  20.5024844   48.0674398
  20.5019221   48.067831
  20.5008156   48.0686008
  20.5008263   48.0689849
  20.5002744   48.069754
  20.4997212   48.0701389
  20.4969788   48.0735998
  20.4953847   48.0778086
  20.49549     48.0816121
  20.494374    48.0823882
  20.4932791   48.0839262
  20.4933001   48.0846881
  20.4916412   48.0862331
  20.4916727   48.0873729
  20.4894194   48.088163
  20.4877497   48.0893238
  20.4872067   48.0900927
  20.4816773   48.0958742
  20.4817398   48.0981538
  20.482334    48.0989087
  20.4827909   48.0992053
  20.4832962   48.0995334
  20.4838152   48.0998704
  20.4840669   48.1000338
  20.4840695   48.1001285
  20.4840773   48.1004117
  20.4846517   48.1007826
  20.4847145   48.1030684
  20.4835968   48.1034663
  20.4836072   48.1038442
  20.4824801   48.1042361
  20.4813426   48.1042501
  20.4807901   48.105019
  20.4808215   48.106165
  20.4814156   48.1069137
  20.481447    48.1080597
  20.48318     48.1091786
  20.4838057   48.1110733
  20.4838266   48.1118352
  20.4844117   48.1125902
  20.483295    48.1133661
  20.4833577   48.1156519
  20.4827935   48.1156588
  20.4816766   48.1164348
  20.4794115   48.1168406
  20.4782945   48.1176165
  20.4777719   48.1191473
  20.4778448   48.1218109
  20.4772816   48.1221958
  20.4773024   48.1229577
  20.4767589   48.1237266
  20.4767797   48.1244885
  20.4779488   48.1256144
  20.4774064   48.1267612
  20.4768525   48.1271522
  20.4745765   48.12718
  20.4740329   48.1279488
  20.4746181   48.1287039
  20.4752021   48.1290747
  20.4757953   48.1298261
  20.47467     48.1306056
  20.4746908   48.1313675
  20.4741367   48.1317523
  20.4729883   48.1313883
  20.4701477   48.131423
  20.4689992   48.1310528
  20.4684255   48.1310598
  20.4684462   48.1318217
  20.4678922   48.1322127
  20.4679025   48.1325905
  20.4667747   48.1329822
  20.4666902   48.1330707
  20.4656676   48.1341421
  20.4635562   48.1402589
  20.4635769   48.1410208
  20.4619151   48.1425591
  20.4602432   48.1437257
  20.4591356   48.1448793
  20.4580076   48.1452771
  20.4552521   48.1454689
  20.4534847   48.1464719
  20.4529201   48.1464787
  20.4512477   48.1476389
  20.4518123   48.1476321
  20.4518227   48.1480162
  20.4529611   48.1480025
  20.4541201   48.1487507
  20.4541097   48.1483666
  20.4546847   48.1487439
  20.4552585   48.148737
  20.4558333   48.149108
  20.4541712   48.1506524
  20.4536075   48.1510372
  20.4524783   48.1510508
  20.4518942   48.1506798
  20.451877    48.15068
  20.4513296   48.1506866
  20.4507454   48.1503095
  20.4502012   48.1510782
  20.4490526   48.150714
  20.4490627   48.1510919
  20.4484888   48.1510987
  20.4479141   48.1507277
  20.4473494   48.1507344
  20.4467653   48.1503572
  20.4462006   48.150364
  20.4444985   48.1507686
  20.4439339   48.1507753
  20.4433794   48.15116
  20.4411125   48.1515712
  20.439974    48.1515848
  20.4394102   48.1519695
  20.4377172   48.1523739
  20.4377273   48.1527517
  20.4365685   48.1520034
  20.4365584   48.1516255
  20.4359938   48.1516322
  20.4348148   48.1501219
  20.4342509   48.1505066
  20.4342611   48.1508907
  20.4308548   48.1509311
  20.4285576   48.1501961
  20.428003    48.1505807
  20.4206073   48.1506679
  20.4183203   48.1503168
  20.4160234   48.1495816
  20.4115084   48.1507746
  20.4087361   48.1534714
  20.4081721   48.1538622
  20.4058646   48.1523647
  20.4047162   48.1520001
  20.4024094   48.1508806
  20.3978161   48.1494157
  20.397271    48.1501779
  20.3961325   48.1501911
  20.3950039   48.1505883
  20.39482     48.1506139
  20.3945807   48.1506186
  20.3927268   48.1506146
  20.3921523   48.150237
  20.3904492   48.1502566
  20.3893205   48.1506538
  20.3875885   48.1499115
  20.3870239   48.149918
  20.3864496   48.1495466
  20.3881429   48.149143
  20.3881038   48.1476191
  20.3908867   48.1453069
  20.3925016   48.1418616
  20.3930655   48.1414709
  20.3941745   48.140318
  20.3947193   48.1395496
  20.3952244   48.1368793
  20.3934732   48.1353751
  20.3923253   48.1350104
  20.3911768   48.1342615
  20.3905738   48.1331283
  20.3894161   48.1323794
  20.386011    48.1324185
  20.3831318   48.1313052
  20.3808455   48.1305754
  20.3791144   48.129833
  20.3774021   48.1294683
  20.37569     48.1291098
  20.3756513   48.1275859
  20.3750487   48.1264527
  20.3750294   48.1256907
  20.3744553   48.1253131
  20.374436    48.1245511
  20.3738528   48.1241798
  20.3738239   48.1230399
  20.374952    48.1226429
  20.3743588   48.1215095
  20.3743299   48.1203697
  20.3697398   48.1188975
  20.3691563   48.1181419
  20.369137    48.11738
  20.3685443   48.1166245
  20.3673965   48.1158754
  20.3668038   48.1151199
  20.3650827   48.1143834
  20.3644709   48.112866
  20.3633235   48.1124947
  20.362195    48.1125075
  20.3621855   48.1121296
  20.3632853   48.110977
  20.3638588   48.1109706
  20.3638396   48.1102086
  20.363247    48.1094531
  20.3632373   48.109069
  20.3637726   48.1075449
  20.36318     48.1067894
  20.3626158   48.1067957
  20.3608949   48.106053
  20.3603119   48.1056754
  20.3597288   48.1049259
  20.3625583   48.1045099
  20.3631225   48.1045035
  20.3630938   48.1033637
  20.3640498   48.1021145
  20.3642503   48.101845
  20.3643278   48.1017383
  20.3641691   48.1005588
  20.3637335   48.0996372
  20.363067    48.0996686
  20.3621041   48.0992167
  20.3618183   48.0979818
  20.3608086   48.0974586
  20.3607587   48.0968913
  20.3606163   48.0954028
  20.3612896   48.0946476
  20.3622269   48.0939147
  20.3623449   48.0936264
  20.3622609   48.0930911
  20.3622075   48.0927438
  20.3613956   48.0922939
  20.3607238   48.0922931
  20.3597909   48.0919081
  20.3588214   48.0916074
  20.3565561   48.0916329
  20.3554379   48.0924076
  20.3548931   48.0935539
  20.3543387   48.0939443
  20.3549312   48.0950778
  20.3543768   48.0954682
  20.3532489   48.0958588
  20.3526754   48.0954873
  20.3509836   48.0962622
  20.3498652   48.0970368
  20.3498842   48.0977988
  20.3487939   48.0993353
  20.3476754   48.10011
  20.345974    48.1005069
  20.3454099   48.1005132
  20.344865    48.1016656
  20.3449027   48.1031833
  20.343201    48.1032022
  20.3409637   48.1047514
  20.3387167   48.1055385
  20.3381245   48.1047829
  20.3341477   48.1048268
  20.3330663   48.1071252
  20.333649    48.1074968
  20.3325301   48.1082713
  20.3319567   48.1082776
  20.3297      48.1086804
  20.3285624   48.1086929
  20.3268699   48.1094737
  20.3257509   48.1098701
  20.3257788   48.11101
  20.3269258   48.1117595
  20.3263802   48.1125277
  20.3258252   48.1129117
  20.3246875   48.1129242
  20.3207566   48.1148757
  20.3207843   48.1160155
  20.3219314   48.1167652
  20.3230784   48.1171306
  20.3236613   48.1175084
  20.3236706   48.1178863
  20.3219778   48.118667
  20.3220149   48.1201909
  20.3225977   48.1205625
  20.3220427   48.1213307
  20.3203682   48.1224891
  20.3203867   48.1232511
  20.3198317   48.1236413
  20.3196185   48.1236436
  20.3186922   48.1236538
  20.3181202   48.12366
  20.315835    48.1229227
  20.3135592   48.1229474
  20.310673    48.1210764
  20.3095258   48.1207046
  20.3078143   48.1207231
  20.306103    48.1203636
  20.3038273   48.1203882
  20.3032537   48.1200102
  20.3026619   48.1192544
  20.3009689   48.1196568
  20.30051     48.1199741
  20.2998493   48.1204309
  20.2975827   48.1204553
  20.2970364   48.1216012
  20.2964811   48.1219852
  20.2947696   48.1220035
  20.2925211   48.1227896
  20.2913832   48.1228018
  20.2902363   48.122436
  20.2891073   48.122826
  20.2885521   48.1232161
  20.2874141   48.1232282
  20.287396    48.1224663
  20.2879242   48.1209363
  20.2878972   48.1197965
  20.2867413   48.1190466
  20.2856069   48.1190531
  20.285748    48.1187521
  20.28615     48.1179128
  20.2861139   48.1163889
  20.2855223   48.115633
  20.2837933   48.1145112
  20.2843395   48.1137432
  20.2825926   48.1118595
  20.2820284   48.1118654
  20.2803082   48.1114995
  20.2797439   48.1115054
  20.2796991   48.1096036
  20.2779705   48.1084817
  20.2785256   48.1080917
  20.2796543   48.1077018
  20.2819296   48.1076777
  20.2830492   48.1069037
  20.2830312   48.1061417
  20.2835684   48.1049959
  20.2841235   48.1046059
  20.2840966   48.103466
  20.2835234   48.1030879
  20.2806842   48.103118
  20.280066    48.1012222
  20.2789106   48.1004722
  20.279466    48.0997042
  20.2805766   48.0985523
  20.2799943   48.0981805
  20.2782749   48.0974365
  20.2748091   48.0951866
  20.2731077   48.0952045
  20.2714241   48.0959843
  20.2691672   48.0967701
  20.2600774   48.096865
  20.2600244   48.0945791
  20.2594603   48.094585
  20.257741    48.0942249
  20.2566036   48.0942367
  20.255475    48.0946263
  20.2553132   48.0945212
  20.2525925   48.0927539
  20.2525662   48.091614
  20.2514114   48.0908638
  20.2502746   48.0904913
  20.2491025   48.0889853
  20.2485293   48.0889912
  20.2479828   48.089759
  20.2468628   48.0905265
  20.2462896   48.0905324
  20.245179    48.091306
  20.2445971   48.090934
  20.2440331   48.0909397
  20.2434685   48.0913235
  20.2423226   48.0909573
  20.2411946   48.0909688
  20.2412032   48.0913467
  20.241776    48.091725
  20.2417846   48.0921029
  20.2406734   48.0932606
  20.2403072   48.0935136
  20.240118    48.0936443
  20.2389807   48.0936559
  20.2366887   48.0929172
  20.2355514   48.0929288
  20.2349961   48.0933186
  20.2338501   48.0929461
  20.2327128   48.0929577
  20.2315582   48.0922072
  20.2309942   48.092213
  20.2292923   48.0926144
  20.228155    48.0926259
  20.227591    48.0926316
  20.2270183   48.0922533
  20.225881    48.0922648
  20.2253164   48.0926546
  20.2253249   48.0930325
  20.2241876   48.093044
  20.2213318   48.0923107
  20.2207764   48.0927004
  20.2196476   48.0930898
  20.2185103   48.0931012
  20.2179378   48.092729
  20.2173645   48.0927347
  20.2156802   48.0935138
  20.2151153   48.0938974
  20.2134139   48.0939144
  20.2122936   48.0946878
  20.2106006   48.0950826
  20.2094717   48.0954781
  20.2083258   48.0951053
  20.2072139   48.0962627
  20.2066582   48.0966462
  20.2043834   48.0966688
  20.2038445   48.0978143
  20.203288    48.0985819
  20.2032965   48.098966
  20.2039034   48.1004781
  20.2027744   48.1008735
  20.199968    48.1028035
  20.1999764   48.1031876
  20.2005665   48.1039377
  20.2011642   48.1054561
  20.2034562   48.1061955
  20.2040382   48.1065739
  20.2040465   48.1069518
  20.2029257   48.1077251
  20.1995379   48.1088987
  20.1989737   48.1089043
  20.197271    48.1093053
  20.1966984   48.1089267
  20.1955607   48.1089379
  20.1955691   48.109322
  20.1932938   48.1093444
  20.1921644   48.1097335
  20.1910516   48.1108845
  20.1899316   48.1112796
  20.1888021   48.1116687
  20.1870909   48.1116854
  20.1837119   48.1128647
  20.1831384   48.1128703
  20.180905    48.1144101
  20.179759    48.1140432
  20.1780313   48.1132979
  20.177467    48.1133033
  20.1769017   48.1136868
  20.1757814   48.1140818
  20.1752079   48.1140873
  20.173514    48.1144817
  20.1701252   48.1156606
  20.1701497   48.1168005
  20.1712957   48.1171675
  20.1713203   48.1183135
  20.1707641   48.1186968
  20.1707887   48.1198429
  20.1702151   48.1198484
  20.1702232   48.1202263
  20.1691098   48.1213771
  20.1685537   48.1217667
  20.1685618   48.1221445
  20.1691343   48.1225232
  20.1691588   48.1236631
  20.1680452   48.1248139
  20.1680535   48.125198
  20.1675054   48.1259654
  20.1669491   48.1263487
  20.1652537   48.1271271
  20.1658436   48.1278835
  20.1675625   48.1286292
  20.167595    48.1301469
  20.1670388   48.1305364
  20.1664977   48.1320659
  20.166514    48.1328279
  20.1648357   48.133984
  20.1648601   48.1351239
  20.1637218   48.1351348
  20.16373     48.1355189
  20.1631563   48.1355244
  20.1620191   48.1351511
  20.1608646   48.1344
  20.1585882   48.1344217
  20.1580318   48.1348111
  20.1569016   48.1351999
  20.1557554   48.1348328
  20.1551735   48.1344541
  20.1540434   48.134849
  20.1523486   48.1352431
  20.1512185   48.1356379
  20.150662    48.1360211
  20.1500882   48.1360266
  20.1501204   48.1375505
  20.1495638   48.1379337
  20.1490153   48.138701
  20.1488892   48.1397478
  20.1485743   48.1399851
  20.1476059   48.1404704
  20.1467787   48.1406244
  20.1456563   48.141397
  20.1450825   48.1414024
  20.144526    48.1417918
  20.1429626   48.1420655
  20.1417006   48.1425805
  20.1407339   48.1428847
  20.139972    48.1432664
  20.1384621   48.1434827
  20.1377446   48.1437576
  20.1365981   48.1433841
  20.1360164   48.1430116
  20.1343134   48.1430275
  20.1314799   48.1434318
  20.130914    48.1438212
  20.1297848   48.1438317
  20.1292188   48.1442149
  20.1280883   48.1446095
  20.1269576   48.144998
  20.126393    48.1450032
  20.1240847   48.1435003
  20.1218078   48.1435212
  20.1206709   48.1431537
  20.1200814   48.142397
  20.118943    48.1424075
  20.118904    48.1405057
  20.1183316   48.1401268
  20.1166194   48.1401425
  20.1149088   48.1397802
  20.1126321   48.139801
  20.1120599   48.1394282
  20.1114953   48.1394334
  20.1109292   48.1398165
  20.110357    48.1394437
  20.1097832   48.139449
  20.108637    48.1390752
  20.1078939   48.139082
  20.1069341   48.1390907
  20.106362    48.1387179
  20.1060564   48.1387207
  20.1035115   48.1387438
  20.1012287   48.1380023
  20.1006549   48.1380075
  20.0984012   48.1391679
  20.0984701   48.1425937
  20.0979208   48.1433608
  20.0967824   48.143371
  20.0962102   48.1429982
  20.0956364   48.1430033
  20.0945055   48.1433914
  20.0933671   48.1434017
  20.0922316   48.1430445
  20.091661    48.1426494
  20.0905249   48.142289
  20.0887758   48.14115
  20.0882245   48.1403994
  20.0847481   48.1381168
  20.0847481   48.1373855
  20.08299     48.1366382
  20.0807532   48.1374202
  20.0790447   48.1370595
  20.0784439   48.136305
  20.0789787   48.1351476
  20.0790051   48.1340198
  20.0783846   48.1332533
  20.0789523   48.1324867
  20.0789212   48.1313408
  20.0771771   48.1305956
  20.0766203   48.129833
  20.0766254   48.1294614
  20.0783142   48.1282881
  20.0782711   48.1267841
  20.0765636   48.1268015
  20.0748191   48.1260508
  20.074223    48.1241445
  20.0742068   48.1237763
  20.0736498   48.1230183
  20.0736101   48.1226357
  20.0713246   48.1211363
  20.070775    48.1215178
  20.0702039   48.1215236
  20.0690819   48.122293
  20.0673896   48.123073
  20.066239    48.1230766
  20.0645406   48.1227212
  20.0639745   48.1230991
  20.0600089   48.1231291
  20.0588561   48.1239093
  20.057172    48.123915
  20.0560041   48.1231638
  20.0526104   48.1231906
  20.0503534   48.1239756
  20.0480652   48.1232402
  20.0474949   48.123227
  20.0474301   48.1205827
  20.0468671   48.120587
  20.0468531   48.1190401
  20.047965    48.1182841
  20.0479545   48.1178963
  20.0473419   48.1175297
  20.047376    48.1171621
  20.0484825   48.1160066
  20.0496094   48.1152404
  20.0490529   48.1145047
  20.0478488   48.1133482
  20.0472891   48.1133482
  20.0461484   48.1125796
  20.0461484   48.1122129
  20.0455886   48.112227
  20.0455569   48.1114583
  20.0444057   48.1107038
  20.0443846   48.1103371
  20.0438354   48.1103441
  20.0426731   48.1088256
  20.0426419   48.1084612
  20.0420716   48.1073117
  20.0420574   48.1069109
  20.041554    48.1065711
  20.0403333   48.1061782
  20.0392173   48.106194
  20.0363365   48.1066064
  20.0358401   48.1069802
  20.0352381   48.1069731
  20.0341186   48.1073681
  20.0324147   48.1077647
  20.0301262   48.1070296
  20.029577    48.1070296
  20.0295665   48.1066628
  20.0272429   48.1059011
  20.0261022   48.1051394
  20.0232505   48.1040251
  20.0226822   48.1036692
  20.0215522   48.1040448
  20.0209847   48.1044315
  20.0198454   48.1036837
  20.0192709   48.1029389
  20.0186856   48.1025551
  20.0169895   48.1029446
  20.016409    48.1029521
  20.016415    48.1025722
  20.0152685   48.1021954
  20.0112804   48.1022264
  20.0101364   48.1014753
  20.0084354   48.1014916
  20.0061828   48.1022731
  20.005603    48.1022764
  20.00389     48.1015332
  20.0038761   48.1011333
  20.0032846   48.1000217
  20.0032827   48.0996296
  20.0015863   48.0992712
  19.9998396   48.0992721
  19.9987135   48.0985263
  19.9958427   48.0970206
  19.9930016   48.0970562
  19.9912874   48.0963067
  19.9912865   48.0966867
  19.9907171   48.0966853
  19.9889777   48.0940512
  19.9855516   48.0933155
  19.9844016   48.0936962
  19.9838572   48.0936959
  19.9827006   48.0929504
  19.9809887   48.0925812
  19.980427    48.092963
  19.9787289   48.0929802
  19.9775918   48.0937436
  19.9781711   48.0945169
  19.97707     48.0956666
  19.9765192   48.0956665
  19.9747772   48.0945308
  19.9741794   48.0933861
  19.9736134   48.0930319
  19.9718549   48.0911284
  19.9701809   48.0911414
  19.9690356   48.0907773
  19.9684584   48.0900142
  19.9684322   48.0892541
  19.9701067   48.0881109
  19.9712462   48.0877082
  19.9723791   48.0876978
  19.9729378   48.0873173
  19.9734774   48.0857867
  19.9734689   48.0850265
  19.9746246   48.0850188
  19.974591    48.0842533
  19.973438    48.0838901
  19.9723099   48.0831449
  19.972236    48.0793008
  19.9727783   48.077766
  19.9733408   48.0773989
  19.975619    48.0773665
  19.9779082   48.0781121
  19.9784899   48.0773302
  19.9795943   48.0769684
  19.9823948   48.0750288
  19.9835191   48.0750173
  19.9857936   48.0753869
  19.986935    48.0753778
  19.9869145   48.0746386
  19.9874739   48.073872
  19.9874603   48.0731162
  19.9868803   48.0727367
  19.9874397   48.0719701
  19.9874329   48.0715921
  19.987426    48.071208
  19.9868462   48.0708347
  19.9862824   48.0708393
  19.9862687   48.0700773
  19.9873988   48.0696902
  19.9885219   48.068919
  19.9896426   48.0685258
  19.9919094   48.0681295
  19.9924825   48.0681248
  19.9930463   48.0681202
  19.9936123   48.0677315
  19.9936055   48.0673536
  19.9941555   48.066587
  19.9947055   48.0658204
  19.9941349   48.065447
  19.9952509   48.0642917
  19.9952441   48.0639138
  19.9975037   48.0631332
  19.9991834   48.0619794
  20.0008838   48.0619655
  20.0020135   48.0615721
  20.0019996   48.0608101
  20.0025725   48.0608054
  20.0025795   48.0611895
  20.0037209   48.0619422
  20.0054166   48.0611662
  20.0054026   48.0604042
  20.004266    48.0604135
  20.0036862   48.0600403
  20.0036791   48.0596562
  20.0042452   48.0592736
  20.0059245   48.0581135
  20.0065045   48.0584929
  20.0065114   48.0588708
  20.0070751   48.0588661
  20.0082047   48.0584788
  20.0081768   48.0569548
  20.0087404   48.0569502
  20.009877    48.0569408
  20.009884    48.0573187
  20.0110205   48.0573093
  20.0115865   48.0569266
  20.0121432   48.0565441
  20.0126998   48.0561553
  20.0138294   48.0557679
  20.0143882   48.0550012
  20.0155176   48.0546076
  20.0160812   48.0546029
  20.0177603   48.0534488
  20.0183331   48.0534441
  20.0149723   48.0531008
  20.013771    48.0530825
  20.0121448   48.054243
  20.00926     48.0535304
  20.0086368   48.0523671
  20.0080942   48.0520087
  20.0086368   48.0512375
  20.0102708   48.0497064
  20.0108294   48.0489688
  20.0114233   48.04777
  20.0108284   48.0466652
  20.0113856   48.0458902
  20.0113683   48.0455005
  20.0125029   48.0451433
  20.0136404   48.0443386
  20.0130168   48.0435821
  20.0107317   48.0420875
  20.0107139   48.041333
  20.01129     48.0409445
  20.011274    48.0401974
  20.0118283   48.0398159
  20.012387    48.0397575
  20.012387    48.0386603
  20.0135019   48.0378517
  20.0129182   48.0367483
  20.013484    48.0367367
  20.0128988   48.0359783
  20.0128838   48.0352247
  20.0134536   48.0348213
  20.0140145   48.0340718
  20.0139716   48.0325417
  20.0145365   48.0321449
  20.0151031   48.0321593
  20.0156645   48.0313615
  20.0155947   48.0305793
  20.0150571   48.029901
  20.0133615   48.0287974
  20.0133522   48.0271894
  20.0138194   48.0260586
  20.0138194   48.0249199
  20.0133104   48.0242155
  20.0155396   48.0215271
  20.0154343   48.0183572
  20.0160153   48.0176405
  20.0181374   48.0169835
  20.0187341   48.0157624
  20.0199628   48.0154571
  20.0226835   48.015375
  20.0240297   48.0149632
  20.0267127   48.0153305
  20.0267018   48.0130037
  20.028416    48.0130207
  20.0289344   48.0126319
  20.029487    48.0118583
  20.0306081   48.0114507
  20.0305616   48.0106835
  20.0322979   48.0095406
  20.0317074   48.0084214
  20.0316758   48.0076467
  20.0299662   48.0076698
  20.0288316   48.0080681
  20.0265276   48.0084471
  20.0242758   48.0076933
  20.0231452   48.0069454
  20.0225503   48.0069598
  20.0219751   48.006599
  20.0219841   48.0062262
  20.0208338   48.006581
  20.0202946   48.0062322
  20.0197734   48.0062202
  20.0191438   48.0055225
  20.0174297   48.0055169
  20.0157507   48.0058828
  20.0129146   48.0059161
  20.0123615   48.0062722
  20.0054516   48.0044703
  20.0036599   48.0044781
  20.0026601   48.0048164
  20.0001494   48.0051969
  19.9981484   48.0059602
  19.998201    48.0067705
  19.9965328   48.0072475
  19.9942166   48.0045392
  19.990662    47.9992275
  19.9878591   47.9992401
  19.9821507   47.9988705
  19.9805151   47.9981971
  19.9799393   47.9973984
  19.9798832   47.9970132
  19.9804589   47.9962238
  19.9803932   47.9943274
  19.9770607   47.9921831
  19.9758043   47.9909837
  19.975811    47.9890255
  19.9768782   47.9883112
  19.976882    47.9874877
  19.9780437   47.9871835
  19.9802483   47.986441
  19.9813438   47.9856472
  19.9813944   47.9841118
  19.9864118   47.9821197
  19.9863987   47.9802001
  19.9857893   47.9790906
  19.9835201   47.9790909
  19.9790687   47.9780757
  19.978375    47.9776633
  19.9772573   47.9757539
  19.9771731   47.974654
  19.9759678   47.9735155
  19.9737749   47.9738549
  19.9703767   47.9734695
  19.9680975   47.9735229
  19.9669291   47.9731644
  19.9653194   47.9727855
  19.9640899   47.9716724
  19.9640914   47.9694131
  19.9645977   47.9685832
  19.9645802   47.966339
  19.9650586   47.9656083
  19.9673498   47.9640558
  19.9679272   47.9629289
  19.9678299   47.9586687
  19.9694457   47.9560394
  19.9694898   47.9536443
  19.968922    47.9529558
  19.9682455   47.9510412
  19.9683192   47.9502693
  19.9647732   47.9484195
  19.9630738   47.948045
  19.9614124   47.9473097
  19.9586018   47.9466382
  19.9551581   47.9469807
  19.9524304   47.9469807
  19.95018     47.946661
  19.9489526   47.9455191
  19.9471114   47.9450851
  19.9467363   47.9444228
  19.9443837   47.9437148
  19.9432585   47.9439889
  19.9409475   47.9440413
  19.9409414   47.943666
  19.940372    47.9432836
  19.9403602   47.9428935
  19.939793    47.9425237
  19.9397903   47.9421446
  19.9392239   47.9421484
  19.9392148   47.9414028
  19.9397504   47.9413878
  19.9397253   47.9398646
  19.9391449   47.9394662
  19.9380137   47.9391107
  19.9368266   47.9360793
  19.9368126   47.9353401
  19.9351219   47.9341967
  19.9350809   47.9334313
  19.9361591   47.9326838
  19.936241    47.9311374
  19.9350529   47.9299972
  19.9350948   47.9296322
  19.9333491   47.9273302
  19.9327222   47.9262413
  19.9332198   47.9254607
  19.9309873   47.9247092
  19.9304077   47.9239323
  19.9275867   47.9239674
  19.925293    47.923195
  19.9229992   47.9216962
  19.9229657   47.9186671
  19.9218305   47.9183068
  19.9224659   47.9232355
  19.9202311   47.9232599
  19.9207789   47.9236319
  19.9202238   47.9236368
  19.9167427   47.9194811
  19.9161827   47.9194683
  19.915571    47.9164372
  19.9144244   47.9160652
  19.9122776   47.916963
  19.9121749   47.9183707
  19.9105079   47.9191379
  19.908236    47.9184
  19.9037068   47.9184327
  19.9031499   47.9180528
  19.9002752   47.9169296
  19.8986043   47.9169485
  19.8968914   47.9173372
  19.8963305   47.9173397
  19.8951774   47.9169682
  19.8940673   47.9177173
  19.8932872   47.9186279
  19.8924058   47.9196568
  19.8895848   47.9215717
  19.888478    47.922739
  19.8879598   47.9234866
  19.8862621   47.9238862
  19.8851228   47.9242631
  19.8834576   47.9265779
  19.8834607   47.9269503
  19.8812228   47.9300182
  19.8806815   47.9303968
  19.8789807   47.9304146
  19.8772647   47.9296547
  19.8755866   47.9300585
  19.8721604   47.9300836
  19.8710527   47.9304657
  19.8693342   47.9297164
  19.8670562   47.928978
  19.8664813   47.9286022
  19.8653408   47.9282295
  19.8647752   47.9278474
  19.8636534   47.9274778
  19.8613937   47.9278705
  19.859703    47.9278769
  19.8585582   47.9275193
  19.8568465   47.9279035
  19.8551815   47.9290696
  19.8534813   47.9294538
  19.8529055   47.9294538
  19.8517733   47.9290843
  19.8512153   47.9290905
  19.8500695   47.9287068
  19.8494907   47.9279517
  19.8472179   47.9279712
  19.8460961   47.9287386
  19.8444251   47.9287503
  19.8432741   47.9291496
  19.8409954   47.9291575
  19.8410071   47.9287738
  19.8359112   47.92881
  19.834212    47.928441
  19.833613    47.9280478
  19.833061    47.9276855
  19.8321761   47.9275418
  19.830794    47.9273174
  19.8302156   47.9273253
  19.8302156   47.9269416
  19.8290646   47.9269533
  19.8285037   47.9265814
  19.8273936   47.9265853
  19.8273702   47.9262134
  19.8268035   47.9262016
  19.8251235   47.9258623
  19.8244862   47.9262173
  19.8233807   47.926225
  19.8222825   47.9266197
  19.8205536   47.925484
  19.8194245   47.9254865
  19.8182966   47.9247379
  19.8182863   47.9243618
  19.8177027   47.9235787
  19.8165626   47.9232246
  19.8165754   47.9228457
  19.815987    47.9228513
  19.8148727   47.9236158
  19.813207    47.9233681
  19.8114683   47.9232557
  19.8103312   47.9225183
  19.8097606   47.9228939
  19.8092025   47.9228954
  19.8102731   47.9190871
  19.8097107   47.9187102
  19.8102512   47.9171781
  19.8108063   47.9164195
  19.8107781   47.9149415
  19.8107697   47.9145006
  19.8113394   47.9137468
  19.811883    47.9133346
  19.8095749   47.9091912
  19.8095511   47.9088128
  19.8118243   47.9084079
  19.8118302   47.908032
  19.8129345   47.9080163
  19.8140778   47.9072492
  19.8135012   47.9072604
  19.81065     47.9053765
  19.8097631   47.9047907
  19.8094989   47.9046245
  19.8117367   47.9027013
  19.8134428   47.9019218
  19.8157039   47.9019062
  19.8158951   47.9018036
  19.8207202   47.8992156
  19.8212837   47.8980478
  19.8212837   47.8977031
  19.8224037   47.8969211
  19.8259267   47.8968193
  19.8287967   47.8965866
  19.8303224   47.8964809
  19.8303341   47.8961048
  19.8326016   47.8960929
  19.8348428   47.8964575
  19.8317597   47.8985649
  19.8320811   47.8987568
  19.8337754   47.8998967
  19.8343305   47.8998889
  19.834902    47.8991209
  19.8354623   47.8994962
  19.8371759   47.8994933
  19.8371876   47.9002532
  19.8377485   47.9006253
  19.8377427   47.9002493
  19.8383094   47.9002362
  19.8384045   47.9009412
  19.8394515   47.9013699
  19.840592    47.9013648
  19.8411879   47.901319
  19.8523146   47.8933404
  19.8551442   47.8909889
  19.8545749   47.8906089
  19.8534447   47.8902443
  19.8522879   47.8906321
  19.850611    47.8906439
  19.8494775   47.8902717
  19.849468    47.8898769
  19.8488991   47.8891198
  19.8477481   47.8879954
  19.8477481   47.8876114
  19.8471697   47.8872274
  19.8471691   47.8868622
  19.8477169   47.8860893
  19.8482628   47.8856915
  19.8482494   47.8841835
  19.8482412   47.88305
  19.8476478   47.8819096
  19.8453541   47.8792462
  19.8447721   47.8784961
  19.8441673   47.8773481
  19.8436081   47.8766056
  19.8413061   47.8758442
  19.8407872   47.8758647
  19.8385049   47.8754851
  19.8362043   47.8743583
  19.8316944   47.8743951
  19.8311476   47.8740163
  19.8305624   47.8747809
  19.8294669   47.8751728
  19.8288735   47.8751789
  19.8266186   47.8763117
  19.8255614   47.8755658
  19.8244064   47.8767166
  19.823285    47.8782408
  19.8204597   47.8802078
  19.8193541   47.8805591
  19.8193845   47.8809371
  19.8199259   47.8816912
  19.8188469   47.8824531
  19.8165131   47.8836577
  19.8160121   47.884387
  19.813779    47.8855561
  19.8131529   47.8855833
  19.8115637   47.8857974
  19.8103549   47.8859602
  19.8069458   47.8859684
  19.8046976   47.8863863
  19.8035613   47.8867632
  19.8024562   47.886391
  19.8002133   47.8875335
  19.799077    47.8887133
  19.7973668   47.8898521
  19.7979872   47.8905678
  19.7974397   47.8909829
  19.7968898   47.8921053
  19.7940429   47.8940634
  19.7906827   47.8959887
  19.7895708   47.8967178
  19.7895831   47.8971274
  19.7884101   47.8971192
  19.7885078   47.8974961
  19.7862107   47.8990607
  19.7845245   47.8998144
  19.7845123   47.9005762
  19.7839624   47.9009776
  19.7839869   47.9013544
  19.7828628   47.9017394
  19.7816898   47.902534
  19.7806145   47.9028944
  19.7806145   47.9032794
  19.7789039   47.9036808
  19.7772499   47.9048217
  19.7766752   47.9048319
  19.7760922   47.9044561
  19.7749616   47.9044669
  19.7743934   47.9040884
  19.7716076   47.9037362
  19.7681544   47.9029914
  19.7675331   47.9008872
  19.7674826   47.8964556
  19.7658289   47.8957138
  19.7634424   47.8934737
  19.7617719   47.8931216
  19.7595224   47.8912638
  19.7594111   47.8882042
  19.7640346   47.8892886
  19.7657194   47.8888971
  19.7656534   47.8865956
  19.7667438   47.8843421
  19.7627574   47.8801395
  19.7638646   47.8771196
  19.7632444   47.8756299
  19.7632222   47.8721524
  19.7642668   47.8694826
  19.7630994   47.8679472
  19.7626064   47.8668965
  19.7602556   47.864545
  19.7574504   47.8630904
  19.7507672   47.8601696
  19.7505941   47.8600939
  19.7488283   47.8577799
  19.7459451   47.8558916
  19.7443448   47.8551788
  19.7437378   47.8547808
  19.7420272   47.8532719
  19.7363423   47.8502498
  19.7317083   47.845699
  19.7299911   47.8426762
  19.7277491   47.8411715
  19.725459    47.8411715
  19.7249094   47.8407898
  19.7261159   47.8400167
  19.7219236   47.8345699
  19.7222416   47.8305058
  19.719331    47.8292396
  19.7193066   47.8274682
  19.7185004   47.8266317
  19.7164237   47.8256147
  19.7156652   47.8235213
  19.7171172   47.8214116
  19.7203311   47.8182101
  19.720209    47.8180075
  19.7168705   47.8183852
  19.709963    47.8157703
  19.7087577   47.8155835
  19.7074133   47.8162996
  19.706347    47.8162684
  19.7042029   47.8158404
  19.6965306   47.8189767
  19.6906198   47.8199884
  19.6865055   47.8202607
  19.684101    47.8113083
  19.6762153   47.8108592
  19.6756862   47.8108291
  19.6667602   47.8103208
  19.6678073   47.8027739
  19.6657259   47.8004241
  19.6638671   47.8001646
  19.6624423   47.8002534
  19.6618376   47.8015295
  19.6626985   47.8030379
  19.6577206   47.8028619
  19.6586813   47.8051496
  19.6569783   47.8050909
  19.656629    47.8070558
  19.6527428   47.8083169
  19.6537908   47.8106336
  19.6561089   47.8112719
  19.6532933   47.8134134
  19.6487838   47.81191
  19.6325441   47.805837
  19.6356721   47.8017
  19.6356583   47.8009402
  19.6361798   47.7975097
  19.6395569   47.7936915
  19.6412019   47.7913805
  19.6411964   47.7883428
  19.6422387   47.7845342
  19.6428126   47.7841337
  19.6428236   47.783014
  19.6433975   47.7830288
  19.6427816   47.7826341
  19.6456007   47.7803237
  19.6427648   47.7780699
  19.6421873   47.7765346
  19.6410652   47.7731949
  19.6392751   47.7712017
  19.6387175   47.7693351
  19.6426087   47.7681475
  19.640947    47.7662913
  19.6403588   47.7655006
  19.6392002   47.7632055
  19.6352151   47.7598258
  19.6346458   47.7594561
  19.6312534   47.7553139
  19.6294993   47.754138
  19.6272193   47.7553108
  19.6261291   47.7560398
  19.6255664   47.7575803
  19.6227727   47.7594929
  19.6216792   47.7598827
  19.617703    47.7614351
  19.6143322   47.762218
  19.6132224   47.7625965
  19.612077    47.7622227
  19.6114746   47.7599251
  19.6109535   47.7595645
  19.6086801   47.7588139
  19.6075175   47.7576604
  19.6058155   47.756907
  19.602972    47.7557864
  19.6018321   47.7553974
  19.60127     47.7542702
  19.6006887   47.7534885
  19.5995471   47.7516191
  19.5989648   47.7512367
  19.5978517   47.7512306
  19.5972608   47.7508553
  19.5961555   47.7505021
  19.5939121   47.7493837
  19.5927931   47.7489819
  19.5921939   47.7489864
  19.5910558   47.7486111
  19.5899067   47.7478679
  19.5876577   47.7467318
  19.5853519   47.745942
  19.5774285   47.739529
  19.5709386   47.7349031
END
END
