polygon
1
  19.1311876   60.3006638
  19.1310237   60.3011597
  19.1315965   60.3013486
  19.1322422   60.3009449
  19.1329295   60.3005526
  19.1333527   60.3005019
  19.1336575   60.3010408
  19.1323183   60.3012365
  19.1323479   60.3013497
  19.1415741   60.3366088
  19.1508003   60.3718297
  19.1525262   60.378414
  19.1600264   60.4070124
  19.1692526   60.442157
  19.1784787   60.4772635
  19.1877049   60.5123319
  19.1969311   60.5473624
  19.2015442   60.5648633
  19.2079288   60.5890695
  19.2084638   60.5910969
  19.2107703   60.5998367
  19.2130769   60.6085741
  19.2134721   60.610071
  19.2266918   60.612911
  19.2337471   60.6144588
  19.4732807   60.6658111
  19.5455668   60.6811389
  19.5588652   60.6838014
  19.570993    60.6860791
  19.5825458   60.6879322
  19.5940557   60.689655
  19.605866    60.6911592
  19.6162687   60.6924553
  19.6262095   60.693503
  19.6355526   60.6943753
  19.7978092   60.7083873
  19.8947807   60.7165812
  20.0251664   60.7275545
  20.1061431   60.7620138
  20.2018026   60.8025689
  20.3001002   60.8440587
  20.3413847   60.8614488
  20.3775366   60.87665
  20.4280523   60.8547748
  20.487018    60.829206
  20.571132    60.7926233
  20.6586064   60.7544252
  20.7049142   60.7340992
  20.7300025   60.7230903
  20.778834    60.7210596
  20.825281    60.7191193
  20.8992306   60.7159633
  20.9699615   60.7128806
  20.989533    60.6971095
  21.0164688   60.6753484
  21.047267    60.6504954
  21.0617939   60.6387498
  21.1046213   60.5917498
  21.1080695   60.5878616
  21.1137343   60.5814193
  21.1343873   60.5579378
  21.1438223   60.5474077
  21.1462191   60.5382831
  21.1497489   60.5138356
  21.1513357   60.498668
  21.1482554   60.494004
  21.1286431   60.4589113
  21.1224998   60.4309097
  21.1155425   60.3990249
  21.1122252   60.3838264
  21.1175459   60.3677233
  21.1134976   60.3294148
  21.1105794   60.3213518
  21.104582    60.3041623
  21.0910078   60.2652039
  21.0956727   60.2525595
  21.084504    60.2018915
  21.0514828   60.1955708
  21.0449575   60.1787696
  21.0238303   60.1239251
  21.0630067   60.1039591
  21.1149417   60.0774513
  21.1304298   60.0526329
  21.1329769   60.0411961
  21.1435671   59.9871267
  21.1713636   59.9501608
  21.2305417   59.9379727
  21.2685743   59.9206828
  21.3456452   59.8855663
  21.3245477   59.8553352
  21.3218702   59.8514936
  21.3070534   59.8302341
  21.2966303   59.8141952
  21.2805698   59.7893983
  21.2627767   59.7618949
  21.2502409   59.7223944
  21.2405442   59.6919788
  21.2231291   59.6370274
  20.813152    59.472654
  20.3839584   59.4576178
  20.3782707   59.456567
  20.3724113   59.4557342
  20.3658069   59.4549658
  20.3598353   59.454523
  20.3531439   59.454212
  20.3471496   59.4541578
  20.3397726   59.4543007
  20.333906    59.4546854
  20.3261763   59.4553841
  20.3198411   59.4562679
  20.3136192   59.4572917
  20.3069034   59.4587339
  20.3016639   59.4600574
  20.2949231   59.4620801
  20.2889918   59.4641746
  20.2843364   59.4660819
  20.2118795   59.4973827
  20.1394226   59.5286546
  20.0669657   59.5598974
  19.9945088   59.5911113
  19.9406472   59.5950639
  19.9288197   59.6033564
  19.871104    59.6437593
  19.8132483   59.6841366
  19.6971185   59.7648146
  19.6582833   59.7916833
  19.607368    59.827593
  19.4918792   59.9086831
  19.423519    59.9564474
  19.375827    59.98967
  19.3251963   60.0248456
  19.2786826   60.0570802
  19.2446673   60.0806014
  19.1811414   60.1244188
  19.0832      60.1916833
  19.1027      60.23525
  19.1319277   60.3002465
  19.1319649   60.3003291
  19.1320351   60.300485
  19.1321373   60.3007121
  19.1312327   60.3005275
  19.1311876   60.3006638
END
END
