polygon
1
  96.7203878   1.4586943
  95.7834513   2.3808549
  95.2648325   2.8098449
  95.2327169   2.8451547
  95.2080587   2.8860085
  95.2002809   2.9043431
  95.1896251   2.941682
  95.1844002   2.9801544
  95.1626163   4.8361915
  95.017017    5.1985882
  94.7890119   5.7120818
  94.7717124   5.7969898
  94.7925937   5.8810841
  94.9325937   6.1632608
  95.0065462   6.2444431
  95.1125      6.2744496
  95.1197222   6.2744496
  95.1880529   6.2626005
  95.2482273   6.2282762
  95.4606151   6.0522538
  95.9736239   5.6873624
  96.8562616   5.4743623
  97.5017978   5.4508024
  97.6020739   5.4194279
  97.6559628   5.3852706
  97.681138    5.3658844
  98.0464157   5.0429042
  98.0698319   5.0180231
  98.4170802   4.5837177
  98.6866758   4.4395487
  98.4393658   4.2824719
  98.2858233   4.2788263
  98.2626701   4.2842946
  98.2559921   4.2857447
  98.2530151   4.2899171
  98.251918    4.2904065
  98.2478023   4.2933943
  98.2458944   4.2939309
  98.2450551   4.2939549
  98.2438678   4.2939887
  98.2426762   4.2935089
  98.2420809   4.2927902
  98.2412473   4.2918919
  98.2395204   4.2902148
  98.2387473   4.2884788
  98.2383314   4.2871021
  98.2383936   4.2845292
  98.237858    4.2836312
  98.2368451   4.2832711
  98.235176    4.2835088
  98.2337451   4.2838664
  98.2298692   4.2854781
  98.2294513   4.2861957
  98.2301616   4.2911627
  98.2298032   4.2919402
  98.2284317   4.2924774
  98.2259894   4.2910388
  98.2243217   4.2898404
  98.2225947   4.288283
  98.2216411   4.2882222
  98.220747    4.2882811
  98.2200311   4.2889385
  98.2188972   4.2903136
  98.2181817   4.290612
  98.217288    4.2902521
  98.2166331   4.2895334
  98.2159784   4.2885754
  98.2156217   4.2876775
  98.2146088   4.2873174
  98.2138335   4.2877953
  98.2128185   4.2894696
  98.2114446   4.2924002
  98.2102502   4.2946727
  98.2103085   4.2959293
  98.2112013   4.2971269
  98.2117367   4.2981447
  98.2114381   4.2986829
  98.2095305   4.2989801
  98.2078617   4.2987988
  98.2060741   4.2983183
  98.204644    4.2978979
  98.2019615   4.2981943
  98.2008282   4.2990308
  98.1999317   4.3013036
  98.1993942   4.3023202
  98.1987923   4.3025467
  98.1982028   4.3016608
  98.1980264   4.299327
  98.1983853   4.2981307
  98.1986258   4.2961564
  98.1983882   4.2953185
  98.197554    4.2951381
  98.196003    4.2963332
  98.1949288   4.2975886
  98.1943331   4.2972887
  98.1940957   4.2963311
  98.1939781   4.2947753
  98.1930849   4.2939367
  98.1923104   4.2936367
  98.1909399   4.2932762
  98.1889135   4.2930945
  98.1875197   4.2928309
  98.18521     4.2923108
  98.1781938   4.2907308
  98.1773003   4.2905296
  98.1759016   4.2902146
  98.1749549   4.2900014
  98.1741928   4.2898298
  98.1735302   4.2897641
  98.173143    4.2897256
  98.1649733   4.2889151
  98.1638542   4.288953
  98.1567214   4.2891948
  98.1547406   4.2891298
  98.1536327   4.2882118
  98.1536092   4.2880877
  98.1534737   4.2873701
  98.1527376   4.2834719
  98.1524387   4.2818889
  98.1523891   4.2816264
  98.1526306   4.2788145
  98.1526676   4.2785292
  98.152777    4.2776854
  98.1528711   4.2769599
  98.1530079   4.2763351
  98.1530543   4.2761237
  98.1532904   4.2750456
  98.153709    4.2737896
  98.1536132   4.273558
  98.1531146   4.2723529
  98.1526497   4.2719922
  98.152126    4.2715859
  98.1515035   4.2713836
  98.1510178   4.2712257
  98.1502684   4.2698247
  98.1501618   4.2691425
  98.1508069   4.2678867
  98.1518452   4.2668108
  98.1518877   4.266283
  98.1503805   4.265445
  98.1484478   4.2644773
  98.1483468   4.2644268
  98.1481118   4.2643091
  98.1471663   4.2615641
  98.1455095   4.2605815
  98.145165    4.2603772
  98.143771    4.2597653
  98.1391677   4.2581653
  98.1380505   4.2587896
  98.1353872   4.2579706
  98.1311114   4.2566115
  98.1266108   4.2560556
  98.1263296   4.256041
  98.1243759   4.2559393
  98.1221939   4.2558256
  98.1195782   4.255418
  98.1150485   4.2555324
  98.1129631   4.2549915
  98.1127045   4.2548557
  98.1079501   4.2525192
  98.107295    4.2520996
  98.10652     4.2522782
  98.1051839   4.252542
  98.1024658   4.25353
  98.0998351   4.2540196
  98.0992158   4.2541169
  98.0986071   4.2541189
  98.0966136   4.2544393
  98.0959777   4.2545529
  98.0944281   4.2545511
  98.0924627   4.2533521
  98.0915688   4.2532912
  98.0890052   4.2540062
  98.0881356   4.2545837
  98.0866791   4.2554394
  98.0836404   4.2547178
  98.0787551   4.2532162
  98.0743468   4.2514757
  98.0720238   4.2503959
  98.0708935   4.2486594
  98.0701203   4.2473421
  98.0695436   4.2452484
  98.0719144   4.2421986
  98.0728701   4.2404048
  98.0735876   4.2384311
  98.0751399   4.2360995
  98.076751    4.2344859
  98.0793742   4.2337112
  98.0827126   4.2328775
  98.0827357   4.2328601
  98.08486     4.2312646
  98.0865896   4.2301896
  98.0891681   4.2292776
  98.0917766   4.2284605
  98.0925549   4.2254099
  98.0928008   4.2189482
  98.0923286   4.2150585
  98.0921975   4.2134406
  98.0939455   4.2103694
  98.0947485   4.2085897
  98.094637    4.2079322
  98.0944075   4.2065789
  98.0928648   4.2049113
  98.0915509   4.2031291
  98.091324    4.2015205
  98.0914404   4.19974
  98.0914423   4.1981317
  98.0909287   4.1969823
  98.0911013   4.1961783
  98.0917892   4.1950303
  98.0916186   4.1940536
  98.091189    4.1935758
  98.0894474   4.1916386
  98.0875616   4.1897983
  98.0849815   4.1883956
  98.0821856   4.1882986
  98.0804117   4.1885837
  98.0762618   4.1911739
  98.0746688   4.1909396
  98.0729542   4.1895016
  98.0723564   4.1889751
  98.0714302   4.1881595
  98.0689442   4.1871162
  98.0657105   4.1870518
  98.0639947   4.186571
  98.0625177   4.1858513
  98.0619941   4.1851327
  98.0616722   4.1837001
  98.0625673   4.1812169
  98.0631272   4.1796638
  98.0640537   4.1770935
  98.0642569   4.176758
  98.0658211   4.1741758
  98.0669202   4.1719752
  98.0679717   4.1697268
  98.0692148   4.1666169
  98.070172    4.1635067
  98.0716049   4.1611629
  98.0724164   4.1603023
  98.0723939   4.1591348
  98.0722974   4.1587913
  98.0722151   4.1584978
  98.0718479   4.1571903
  98.0710877   4.1550354
  98.0713765   4.1526424
  98.0724757   4.1502982
  98.0740509   4.1486247
  98.0751378   4.1473081
  98.0748267   4.1452317
  98.0748177   4.1451712
  98.0725791   4.1433976
  98.0691383   4.1413609
  98.0671006   4.1401362
  98.0653864   4.1389586
  98.0653226   4.1389147
  98.0642433   4.1375959
  98.0629571   4.1367327
  98.0607652   4.1359164
  98.0582872   4.1350997
  98.0573577   4.1347497
  98.0569539   4.1338536
  98.0570045   4.1313646
  98.0570209   4.129311
  98.0569619   4.1270566
  98.0520469   4.114095
  98.0525468   4.1115904
  98.0528346   4.1100112
  98.0527573   4.1092359
  98.0526104   4.1077629
  98.0524588   4.1053677
  98.0505555   4.1023499
  98.0486519   4.0997149
  98.047665    4.0975161
  98.0465603   4.0947343
  98.0455628   4.0917654
  98.045231    4.0901376
  98.0452161   4.0882261
  98.045284    4.0855903
  98.0451426   4.0842985
  98.0450482   4.0834361
  98.0444489   4.0803711
  98.0452958   4.0756341
  98.0453839   4.0740831
  98.043695    4.071365
  98.0451419   4.0674189
  98.0449089   4.0644211
  98.0438814   4.0623734
  98.0438189   4.0557235
  98.042942    4.0505015
  98.0421343   4.0482987
  98.0418678   4.046396
  98.0422819   4.0443738
  98.0415687   4.0428412
  98.040236    4.0411643
  98.0406196   4.0392022
  98.0423861   4.036811
  98.0455823   4.0345651
  98.047626    4.0331186
  98.0481123   4.031361
  98.047066    4.0293494
  98.0468196   4.0282047
  98.0465919   4.0271469
  98.0465466   4.0251844
  98.0462571   4.0241272
  98.0458652   4.0226966
  98.0538602   4.0149871
  98.0563792   4.0133728
  98.0585249   4.0126573
  98.0606692   4.0131863
  98.0627179   4.0139545
  98.0638145   4.0137164
  98.0644826   4.0130471
  98.0654244   4.0116559
  98.0669637   4.0108002
  98.0680608   4.0100355
  98.0686825   4.0082173
  98.069446    4.0074523
  98.0714963   4.0067845
  98.0725459   4.005972
  98.0732613   4.0055898
  98.0733082   4.0062122
  98.0734026   4.0070739
  98.0755954   4.0068849
  98.0769886   4.0075632
  98.0778359   4.0066481
  98.0790755   4.0063623
  98.0796958   4.0057407
  98.08022     4.0058371
  98.0816037   4.0045941
  98.0825573   4.0043079
  98.0833215   4.0029206
  98.0836559   4.002203
  98.0845144   4.0017253
  98.0849438   4.0013429
  98.0851264   3.9995207
  98.0859468   3.999525
  98.0867565   4.0000046
  98.0873291   3.9994787
  98.0875209   3.9984258
  98.0879983   3.9977562
  98.087713    3.9970858
  98.0867599   3.996989
  98.086474    3.9968451
  98.0865223   3.9962707
  98.0877147   3.9956019
  98.0878583   3.9950277
  98.087144    3.9944046
  98.0859528   3.9940682
  98.0859538   3.9931587
  98.0866699   3.9921543
  98.0871949   3.9915326
  98.0871958   3.990671
  98.0879341   3.990098
  98.0886739   3.9902419
  98.089674    3.990961
  98.0907705   3.9907707
  98.0912961   3.9896225
  98.092059    3.9893361
  98.0929649   3.9890978
  98.0932513   3.9887152
  98.0930616   3.9878055
  98.0933487   3.9868006
  98.0935407   3.9855563
  98.0941609   3.9850304
  98.0950249   3.9845301
  98.0957348   3.9840748
  98.0953551   3.9826862
  98.0952611   3.9814416
  98.0945946   3.9807228
  98.0949292   3.9798137
  98.095816    3.9797405
  98.0937583   3.978796
  98.0937404   3.9786964
  98.0936956   3.9785245
  98.0936237   3.9783254
  98.0934708   3.9781624
  98.0928408   3.9776914
  98.0924983   3.97789
  98.0922646   3.9774917
  98.0925439   3.9773744
  98.0924362   3.9769944
  98.0924095   3.9767592
  98.0923828   3.9763973
  98.0920945   3.9764603
  98.0920324   3.9756461
  98.0923116   3.9756284
  98.0915925   3.9742617
  98.0916198   3.9740717
  98.091161    3.9735737
  98.0907832   3.9730939
  98.0906036   3.9726052
  98.0905858   3.9724333
  98.0907031   3.9721711
  98.0907862   3.9720047
  98.092028    3.9714641
  98.0921723   3.9712381
  98.0923798   3.970967
  98.0926323   3.9706597
  98.0933537   3.9699369
  98.0936333   3.9695753
  98.093805    3.9690056
  98.0938052   3.9688428
  98.0937875   3.9685805
  98.0937067   3.9683361
  98.0935989   3.9680737
  98.0933559   3.9679287
  98.0930137   3.9678469
  98.0924192   3.9678463
  98.092102    3.9680329
  98.0916877   3.9679872
  98.0915703   3.9682042
  98.0912997   3.9686381
  98.0910922   3.9689454
  98.0907947   3.969135
  98.0904344   3.969198
  98.0899931   3.9691703
  98.0896149   3.9690342
  98.0893808   3.9689254
  98.0891289   3.9686538
  98.0883645   3.9676398
  98.0878339   3.9668464
  98.0879634   3.9659133
  98.088009    3.9654158
  98.0879193   3.9650358
  98.0876226   3.9645832
  98.0874067   3.9642754
  98.0871819   3.9639766
  98.0864076   3.9636863
  98.085282    3.9633956
  98.0844811   3.9632249
  98.0839197   3.9629602
  98.0832914   3.9628236
  98.0825972   3.9626545
  98.0815502   3.9625308
  98.0810553   3.9623404
  98.0807006   3.9619252
  98.0804842   3.9613982
  98.0802653   3.9609699
  98.0797704   3.9605511
  98.0794135   3.9603084
  98.0792279   3.9600942
  98.0792279   3.9597801
  98.0797133   3.958638
  98.0800274   3.9579813
  98.0805556   3.9577671
  98.0810553   3.9574816
  98.0816121   3.9569676
  98.082271    3.9562621
  98.08264     3.9559111
  98.08274     3.9557255
  98.0828542   3.9553543
  98.0830112   3.9548832
  98.0830826   3.9544977
  98.082897    3.9540552
  98.0826543   3.9538981
  98.0822688   3.9538267
  98.0818262   3.9537268
  98.0811838   3.9536269
  98.0806556   3.9535697
  98.080113    3.953427
  98.0794706   3.95317
  98.0786568   3.9528845
  98.0780001   3.9527274
  98.0776289   3.9526989
  98.0771582   3.95287
  98.0767723   3.9529701
  98.0765296   3.9528702
  98.0764439   3.9525418
  98.0764011   3.9519707
  98.0765438   3.9514425
  98.0769579   3.9509714
  98.0775004   3.9504289
  98.0777003   3.9500434
  98.0777145   3.9496008
  98.0776003   3.9493724
  98.0772741   3.9494092
  98.0764748   3.9497389
  98.0756853   3.9500803
  98.0750035   3.9504092
  98.074488    3.9505288
  98.073974    3.9507858
  98.07356     3.9511713
  98.0734164   3.9520748
  98.0734601   3.9535555
  98.0736516   3.9548992
  98.073892    3.9553593
  98.0743167   3.9557255
  98.0747021   3.9559111
  98.0752875   3.956111
  98.0754971   3.9566762
  98.0758015   3.9569962
  98.0757037   3.9574994
  98.0751304   3.9574959
  98.0743452   3.9573674
  98.0737028   3.9572103
  98.0720752   3.9567677
  98.0702335   3.9562395
  98.0684132   3.95544
  98.0680135   3.9552473
  98.067578    3.9550046
  98.0668571   3.9546833
  98.066402    3.9545617
  98.0657176   3.9540163
  98.0656507   3.9536768
  98.0656221   3.9532771
  98.0655793   3.9519636
  98.0655365   3.9515353
  98.0655579   3.9510142
  98.0656721   3.950643
  98.0656435   3.9503075
  98.0655079   3.9500791
  98.0652366   3.9499791
  98.0648869   3.9499577
  98.0645871   3.9500006
  98.0642944   3.9500791
  98.0639874   3.9501933
  98.0638375   3.9503503
  98.063709    3.9505788
  98.0635306   3.9511784
  98.0634966   3.9513506
  98.0627239   3.951828
  98.0625312   3.9518779
  98.0624098   3.9518137
  98.0623385   3.9516495
  98.062367    3.9513854
  98.0624527   3.9510499
  98.0625669   3.9506858
  98.0626454   3.9504717
  98.0625812   3.9502575
  98.0624741   3.9500434
  98.0623099   3.9499292
  98.0618459   3.9496936
  98.0615318   3.9494866
  98.0611535   3.9491939
  98.0608108   3.9489798
  98.0602184   3.9487728
  98.0598543   3.9486585
  98.0594617   3.9485158
  98.0591405   3.9484087
  98.0588835   3.9482945
  98.0586693   3.9481303
  98.0584766   3.9479947
  98.0581625   3.9475806
  98.0578484   3.9472523
  98.0575129   3.9466527
  98.0573773   3.9465027
  98.0572274   3.9464742
  98.0570632   3.9465027
  98.0569062   3.9465813
  98.0566653   3.946861
  98.0564636   3.9471452
  98.0561067   3.9475878
  98.0558568   3.9476806
  98.0555427   3.9476734
  98.0552626   3.947507
  98.0548095   3.9471384
  98.0547558   3.9465385
  98.0551501   3.9460173
  98.05535     3.9456747
  98.0554928   3.9453749
  98.0556355   3.9450037
  98.0556498   3.9447895
  98.0555213   3.9445468
  98.0551644   3.9441043
  98.0549074   3.9439758
  98.054679    3.9439187
  98.054422    3.9438187
  98.0540508   3.9438187
  98.0536796   3.9437759
  98.0533798   3.9437045
  98.0529127   3.9439636
  98.0514976   3.9448665
  98.0493524   3.9463475
  98.0483514   3.94745
  98.0483945   3.9490782
  98.0482496   3.9497927
  98.0474298   3.9499998
  98.0468247   3.9514192
  98.0458242   3.9520875
  98.0449149   3.9517517
  98.043961    3.9509908
  98.0431508   3.9507004
  98.0424389   3.9509348
  98.0424381   3.9517036
  98.0420139   3.9524087
  98.0411932   3.9533756
  98.0403829   3.9530943
  98.0394385   3.9519896
  98.0389622   3.9510302
  98.0378635   3.9509837
  98.0369543   3.9505485
  98.0361448   3.9495887
  98.0350557   3.9489633
  98.033857    3.9496855
  98.0341891   3.95069
  98.0353865   3.9510713
  98.0366818   3.952502
  98.0364736   3.9534244
  98.0356177   3.9536586
  98.0342401   3.9532771
  98.0329524   3.9530313
  98.0321421   3.95275
  98.0318102   3.9516008
  98.031189    3.9513559
  98.0302881   3.951599
  98.0292785   3.9523124
  98.0286385   3.9527368
  98.0277554   3.9531248
  98.0269898   3.9531239
  98.0263771   3.9533583
  98.0258      3.9539818
  98.0249439   3.9543607
  98.0240339   3.9546039
  98.0228908   3.9539784
  98.0227021   3.9535982
  98.0218909   3.9541219
  98.0213224   3.9550348
  98.0202586   3.9558296
  98.0196016   3.9554579
  98.0193145   3.9544535
  98.0181266   3.9536833
  98.0175598   3.9531127
  98.0162724   3.952677
  98.0136971   3.9521041
  98.0130758   3.9520038
  98.0126982   3.9514516
  98.0123207   3.9507094
  98.0116459   3.9501387
  98.0106461   3.9501828
  98.0098363   3.9495124
  98.0102699   3.9484637
  98.0109377   3.9473609
  98.0118482   3.9466384
  98.0129925   3.9462598
  98.0138039   3.9455914
  98.0137058   3.9447772
  98.012897    3.9431933
  98.0124204   3.9425776
  98.0129975   3.9420446
  98.0136641   3.9419549
  98.0140877   3.941666
  98.0140798   3.9406981
  98.0130896   3.940326
  98.0113798   3.9390305
  98.0109039   3.9378811
  98.0102842   3.9363517
  98.0102864   3.9345336
  98.0103333   3.9329054
  98.0112442   3.9318482
  98.0121453   3.9314693
  98.0132453   3.9304214
  98.0133633   3.9296617
  98.0123922   3.9283127
  98.011772    3.9272537
  98.0118178   3.9266386
  98.0119178   3.9258246
  98.0122527   3.924432
  98.0123983   3.9231387
  98.0119674   3.9218989
  98.0108786   3.9211288
  98.0095903   3.9214619
  98.0080596   3.9211254
  98.0078716   3.9201211
  98.0073955   3.9190623
  98.0069733   3.9181572
  98.006443    3.917243
  98.005796    3.9160482
  98.0055011   3.9140397
  98.0060251   3.9127016
  98.0075487   3.9114099
  98.008216    3.9106871
  98.0086499   3.9092584
  98.0081297   3.9074396
  98.0081767   3.9057572
  98.0085568   3.9041837
  98.0085583   3.9028902
  98.0078031   3.901831
  98.0065154   3.9016938
  98.004416    3.9024511
  98.0026052   3.9029736
  98.000795    3.9029714
  98.000128    3.9034048
  97.9987398   3.9044615
  97.9975504   3.9049304
  97.9970825   3.9045771
  97.9949332   3.9019152
  97.9937456   3.9009549
  97.990837    3.9006167
  97.9897827   3.9011401
  97.9885939   3.9011387
  97.987117    3.9010464
  97.9855953   3.9007551
  97.9841646   3.8997041
  97.9828322   3.8992683
  97.9811412   3.8975386
  97.9803571   3.8979718
  97.9797805   3.8981611
  97.9778267   3.8977788
  97.9767284   3.8973975
  97.9756833   3.8977309
  97.9735402   3.8974389
  97.9703432   3.8973355
  97.9683434   3.897722
  97.9651005   3.898333
  97.9634339   3.8987199
  97.9619213   3.8984377
  97.9608158   3.8965639
  97.9589634   3.8943093
  97.9571462   3.8926789
  97.9554366   3.8914828
  97.9533614   3.8901333
  97.9529935   3.8899126
  97.9511982   3.8889862
  97.9500681   3.8887805
  97.9485761   3.8897966
  97.9470472   3.8930017
  97.9462831   3.8942931
  97.9454712   3.895396
  97.9438844   3.8968232
  97.9421364   3.8974994
  97.9401828   3.8969632
  97.9385121   3.8967244
  97.9368921   3.8964352
  97.9359396   3.8959553
  97.9352734   3.8951408
  97.9345541   3.8944437
  97.9339394   3.8948519
  97.9328891   3.8963344
  97.9284487   3.9029819
  97.9263019   3.9047023
  97.9231569   3.9068024
  97.9220578   3.9080478
  97.9187677   3.910341
  97.9140893   3.9136727
  97.9132787   3.9141146
  97.9116578   3.9135881
  97.9098483   3.9130611
  97.9068496   3.9128582
  97.9053194   3.9122411
  97.9033661   3.9114245
  97.9020879   3.9109434
  97.9006203   3.9109053
  97.9004597   3.9106452
  97.9004582   3.9106444
  97.9004476   3.9106408
  97.9001733   3.9100464
  97.9001913   3.9093829
  97.9008398   3.9075995
  97.901083    3.9060593
  97.901083    3.9046001
  97.9006777   3.9030599
  97.9006777   3.9008712
  97.9013262   3.8992499
  97.9014072   3.8961695
  97.9021368   3.8926838
  97.90238     3.890495
  97.9015694   3.8883063
  97.90238     3.8854691
  97.9033528   3.8838478
  97.9043255   3.882794
  97.9057036   3.8816591
  97.907406    3.8806053
  97.9089462   3.8791461
  97.9092787   3.8785286
  97.9094754   3.8781632
  97.9095136   3.8780923
  97.9095136   3.8767142
  97.9090272   3.8754172
  97.9090272   3.8736338
  97.9095947   3.8720125
  97.9095947   3.8704723
  97.908784    3.8689321
  97.9091083   3.8679593
  97.9105674   3.8669866
  97.9121887   3.8650411
  97.9134047   3.8634198
  97.9146206   3.8617174
  97.9150715   3.8606654
  97.9153502   3.8600151
  97.9148638   3.8571779
  97.9146206   3.854746
  97.9149449   3.8519087
  97.9162419   3.8498822
  97.9172147   3.8481798
  97.9183495   3.8472881
  97.9194844   3.8474502
  97.9208625   3.8468828
  97.9219163   3.84591
  97.9219163   3.8446941
  97.9211057   3.8429917
  97.9197276   3.8414515
  97.9180253   3.8393439
  97.9158366   3.8367498
  97.9153502   3.835696
  97.9155123   3.8345611
  97.9157555   3.8329399
  97.9152691   3.831886
  97.9141342   3.8306701
  97.912513    3.8290488
  97.9115402   3.8273465
  97.9101621   3.8249956
  97.9095136   3.8232933
  97.9093515   3.8215909
  97.9093515   3.8198075
  97.908703    3.8184295
  97.9075681   3.817862
  97.9058657   3.8176999
  97.9040013   3.8179431
  97.9018936   3.8181863
  97.9005966   3.8175378
  97.9001102   3.8163218
  97.8993807   3.8136467
  97.897234    3.8099456
  97.8970298   3.8095935
  97.8963813   3.8083776
  97.8951653   3.8071616
  97.8933009   3.8060267
  97.892166    3.8047297
  97.8906258   3.8036759
  97.8881939   3.8023789
  97.8851135   3.8008387
  97.8835732   3.7984878
  97.8821952   3.7960559
  97.8800875   3.7945968
  97.8775745   3.7938672
  97.8758722   3.7933808
  97.8741699   3.7915974
  97.8723054   3.7892466
  97.8701167   3.7876253
  97.866712    3.7863283
  97.8635505   3.7854366
  97.8612807   3.7847881
  97.8602269   3.783491
  97.859092    3.7816266
  97.8573086   3.7772491
  97.8560116   3.7753036
  97.8544714   3.7748172
  97.8517963   3.774493
  97.8493644   3.7744119
  97.8473378   3.7729528
  97.8456355   3.7714936
  97.8416633   3.7690617
  97.8394746   3.7675215
  97.8385829   3.7651707
  97.8367185   3.7632251
  97.8342055   3.7602258
  97.8308008   3.7569022
  97.8278015   3.7534164
  97.8258461   3.75075
  97.8249144   3.7505666
  97.8251264   3.7497686
  97.8248048   3.7494503
  97.8237465   3.7484027
  97.8220441   3.7466193
  97.8202607   3.744998
  97.8179099   3.7425661
  97.8160454   3.7381076
  97.8152348   3.7364863
  97.8139378   3.7351893
  97.8127218   3.7338923
  97.8112627   3.7328385
  97.8098035   3.7312983
  97.8081822   3.7300012
  97.8063988   3.7285421
  97.8055071   3.7275693
  97.8038048   3.7260291
  97.801221    3.7233123
  97.8005015   3.7225557
  97.8021669   3.7205862
  97.8038859   3.7168689
  97.8042101   3.7152477
  97.8043722   3.7132211
  97.8044533   3.7113566
  97.8054261   3.7099785
  97.806561    3.7085194
  97.8076148   3.7068981
  97.8082191   3.7058754
  97.8086686   3.7051147
  97.8098035   3.7034124
  97.8111005   3.7019532
  97.8132892   3.6993592
  97.8150726   3.6968462
  97.8188016   3.6918203
  97.8204228   3.6878481
  97.8208512   3.6866949
  97.8214527   3.6850753
  97.8214767   3.6850109
  97.8221252   3.6826601
  97.8232601   3.6806335
  97.8249624   3.6777152
  97.8265026   3.6751212
  97.8288535   3.6729324
  97.8303937   3.6715544
  97.8325013   3.6705005
  97.8356628   3.6695278
  97.837203    3.6691225
  97.8385      3.6686361
  97.8389864   3.6679065
  97.8399592   3.6668527
  97.8409319   3.6656367
  97.8425532   3.6639344
  97.8438502   3.6620699
  97.8447419   3.6606108
  97.8451473   3.6591516
  97.8454715   3.6575304
  97.8459579   3.6552606
  97.8466875   3.6531529
  97.8477413   3.6512885
  97.8487951   3.6495051
  97.8501732   3.6472353
  97.8517945   3.6444791
  97.8531726   3.6422093
  97.8539832   3.6401017
  97.8542264   3.6387236
  97.8539021   3.6372644
  97.8534968   3.634184
  97.8532536   3.6317521
  97.8528483   3.6293202
  97.8537361   3.6268407
  97.8549585   3.6258425
  97.8555639   3.6253481
  97.8571852   3.6234836
  97.8588065   3.6221055
  97.8609952   3.6211328
  97.8622922   3.6204843
  97.8629559   3.6200826
  97.8643135   3.6192609
  97.8653726   3.6186198
  97.8675614   3.6169175
  97.8695069   3.6152962
  97.8705607   3.6139992
  97.8717767   3.6126211
  97.8720199   3.611162
  97.8716956   3.6092164
  97.8706418   3.607352
  97.8695069   3.6058928
  97.8675614   3.6039473
  97.8649673   3.6017586
  97.8638324   3.599813
  97.8635082   3.5974622
  97.8635892   3.5955977
  97.8640756   3.5931658
  97.8644934   3.5919962
  97.8648301   3.5910534
  97.8648863   3.590896
  97.8660211   3.5888695
  97.8669128   3.5863565
  97.867156    3.5837624
  97.867075    3.5811684
  97.8669128   3.5792229
  97.8669128   3.5766288
  97.8672371   3.5736295
  97.8681288   3.5711165
  97.8695879   3.5697384
  97.8710591   3.5686685
  97.872263    3.5677929
  97.8737758   3.5668063
  97.8741275   3.566577
  97.875967    3.5656572
  97.8767215   3.5652799
  97.8794777   3.5637397
  97.882396    3.5625238
  97.8862871   3.5607404
  97.887831    3.5602508
  97.8895398   3.559709
  97.8896107   3.5596865
  97.8924479   3.5592002
  97.8945555   3.5597676
  97.897717    3.5603351
  97.8981966   3.5602665
  97.8994194   3.5600919
  97.9010406   3.5595244
  97.9030672   3.5583895
  97.9046074   3.5567683
  97.906634    3.555228
  97.9085796   3.5520666
  97.9097144   3.5499589
  97.9103969   3.5485416
  97.9107683   3.5477702
  97.91166     3.5455004
  97.9123419   3.543379
  97.9123861   3.5432414
  97.9127949   3.5407177
  97.9127138   3.5382857
  97.9123895   3.5362592
  97.9123895   3.5341515
  97.9125214   3.5338331
  97.913565    3.5313143
  97.9151052   3.528477
  97.9164022   3.5262883
  97.9182667   3.5238564
  97.9203743   3.5206139
  97.9211783   3.5187866
  97.921266    3.5185873
  97.9221577   3.5161554
  97.9227422   3.5148112
  97.9229683   3.5142909
  97.9236979   3.5125075
  97.923779    3.5101567
  97.9236979   3.5083733
  97.9226441   3.504158
  97.9209418   3.5011586
  97.9206175   3.4996995
  97.9210337   3.4988077
  97.9211849   3.4984835
  97.9221521   3.4977236
  97.9221996   3.4976862
  97.9223198   3.4975918
  97.9235358   3.4962137
  97.9253192   3.4954841
  97.926373    3.4948356
  97.9274268   3.4938629
  97.930183    3.4924848
  97.9323717   3.4921605
  97.9343983   3.4918363
  97.9368302   3.491431
  97.9385326   3.4907825
  97.940316    3.4903771
  97.9432343   3.4897286
  97.9449366   3.4896476
  97.9460715   3.4893233
  97.9469632   3.4883505
  97.9481791   3.4869725
  97.949314    3.4855133
  97.9511785   3.4843784
  97.9536104   3.4834057
  97.9541721   3.4833121
  97.9555182   3.4830877
  97.9555559   3.4830814
  97.9576636   3.4831625
  97.9587985   3.4832435
  97.9588369   3.4831188
  97.9591227   3.4821897
  97.9590968   3.48193
  97.9590417   3.4813791
  97.9580689   3.4803252
  97.9566503   3.4789472
  97.9549479   3.4772448
  97.952516    3.4754614
  97.952222    3.4751949
  97.9509638   3.4740547
  97.949922    3.4731106
  97.9489492   3.4712461
  97.9485439   3.4696248
  97.9479765   3.467274
  97.9468416   3.4649232
  97.9459499   3.4633019
  97.9439233   3.46087
  97.9421399   3.4577085
  97.9414277   3.4564621
  97.9405186   3.4548713
  97.9393837   3.4535742
  97.9377625   3.4521962
  97.9376691   3.4520969
  97.9364654   3.4508181
  97.9354927   3.4485483
  97.9345729   3.4469059
  97.9343578   3.4465217
  97.9338714   3.4447383
  97.9335471   3.4422253
  97.9335471   3.4410398
  97.9335471   3.4394692
  97.9339525   3.4377668
  97.9345425   3.4364393
  97.934601    3.4363077
  97.9357359   3.434119
  97.938492    3.4299847
  97.9404662   3.4274791
  97.9405997   3.4273096
  97.943599    3.4233375
  97.948625    3.4169335
  97.949922    3.414988
  97.9502076   3.4141946
  97.9506516   3.4129614
  97.9511129   3.4107316
  97.951138    3.4106105
  97.9516243   3.408665
  97.9513001   3.4067195
  97.9507202   3.4053857
  97.9505869   3.4050791
  97.9504894   3.404855
  97.9495977   3.4026663
  97.9482197   3.3986942
  97.9478814   3.3963685
  97.9476404   3.3947117
  97.9475712   3.3942357
  97.9479765   3.3914795
  97.948347    3.3907385
  97.948706    3.3900204
  97.9496788   3.389534
  97.9523539   3.3880748
  97.9528823   3.3877967
  97.9554343   3.3864536
  97.9597307   3.3841838
  97.9645135   3.3816708
  97.964708    3.3815487
  97.9658696   3.3808199
  97.9686477   3.3790768
  97.9714039   3.3772934
  97.9730251   3.3759153
  97.9744032   3.3745372
  97.9758624   3.3729159
  97.9778079   3.371781
  97.9795197   3.3714564
  97.9798719   3.3714417
  97.9800385   3.3714348
  97.9814558   3.3713757
  97.9831581   3.3713757
  97.9858332   3.3711325
  97.9860795   3.3711325
  97.9868311   3.3711325
  97.9872923   3.3711325
  97.9894      3.3706462
  97.9912645   3.370484
  97.9923183   3.370484
  97.9928047   3.3709704
  97.9936964   3.3723485
  97.9946691   3.3729159
  97.9948621   3.3729159
  97.9956419   3.3729159
  97.9971821   3.3726727
  97.9986412   3.3718621
  97.9999383   3.3708083
  98.0013974   3.3699976
  98.003424    3.3689438
  98.0038552   3.3685126
  98.0045584   3.3678094
  98.0049642   3.3674036
  98.0063423   3.3658634
  98.006504    3.3656208
  98.0076393   3.3639179
  98.0084187   3.3627488
  98.00935     3.3613518
  98.0094227   3.3612428
  98.0103955   3.3593783
  98.0112061   3.357676
  98.0115208   3.3568019
  98.0119357   3.3556494
  98.0127463   3.3534607
  98.013673    3.3510077
  98.0141244   3.3498128
  98.015354    3.3481529
  98.0157457   3.3476241
  98.0172859   3.3461649
  98.0180763   3.345638
  98.018745    3.3451922
  98.0205284   3.3444626
  98.0222308   3.3435709
  98.0227982   3.3428413
  98.0234467   3.3415443
  98.023631    3.3401928
  98.0236899   3.3397609
  98.0247437   3.3374101
  98.0250028   3.336961
  98.0259597   3.3353024
  98.0266082   3.3342486
  98.027662    3.3329516
  98.0283712   3.3316908
  98.0283916   3.3316545
  98.0292549   3.3307542
  98.0231554   3.3231592
  98.022563    3.3224216
  98.0204492   3.319794
  98.0189557   3.3169151
  98.0154637   3.3131138
  98.009854    3.3065481
  97.9999964   3.2982753
  97.9998669   3.2981735
  97.9994798   3.2979451
  97.9993574   3.29788
  97.9992763   3.2978247
  97.9992015   3.2977591
  97.9991156   3.297718
  97.9989001   3.2976453
  97.9983666   3.2976016
  97.9982433   3.2975555
  97.9981033   3.2974815
  97.9979876   3.2974598
  97.9978677   3.2974583
  97.9977922   3.2974457
  97.9974695   3.2972594
  97.9972084   3.2970885
  97.9970664   3.2970166
  97.9969417   3.2969907
  97.9967622   3.2969745
  97.9965523   3.2969172
  97.9962231   3.2969133
  97.9960096   3.2969626
  97.9959548   3.2969953
  97.9958702   3.2970321
  97.995715    3.2970431
  97.9953227   3.2970406
  97.9950594   3.2970083
  97.9948308   3.2969628
  97.9947137   3.2969021
  97.9946528   3.2968595
  97.9945911   3.296803
  97.9944811   3.2966197
  97.9944244   3.2965758
  97.9943378   3.296527
  97.9942879   3.2964837
  97.9942478   3.2964217
  97.9942153   3.2963088
  97.9941815   3.2962357
  97.9941427   3.2961764
  97.9940797   3.2960976
  97.9939246   3.2960014
  97.9938214   3.2959671
  97.9937507   3.2959545
  97.9934194   3.2959472
  97.9933307   3.2959353
  97.993258    3.2959234
  97.9931277   3.2958891
  97.9930716   3.2958647
  97.9924482   3.295529
  97.9921947   3.2954382
  97.9920888   3.2953434
  97.9919061   3.295027
  97.9918134   3.2948883
  97.9917372   3.2948158
  97.9916597   3.2947558
  97.9914872   3.2946672
  97.9914013   3.2946504
  97.9912149   3.2946369
  97.9910798   3.2946368
  97.9910285   3.29465
  97.9908655   3.2947139
  97.9908094   3.2947159
  97.9907443   3.2947068
  97.9905704   3.2946488
  97.9904616   3.2945902
  97.9902761   3.2944451
  97.9901521   3.2943301
  97.9900711   3.2942708
  97.9899194   3.2941808
  97.9895454   3.2939324
  97.9892455   3.2937699
  97.9890024   3.2936603
  97.9886609   3.293476
  97.9885502   3.2933826
  97.9884872   3.2932711
  97.9884154   3.2930217
  97.9882903   3.2926858
  97.9882516   3.2926105
  97.9882031   3.2925381
  97.9881429   3.2924774
  97.9880376   3.2924042
  97.9879884   3.2923832
  97.9878991   3.2923518
  97.9876912   3.292314
  97.9876406   3.2922986
  97.9875263   3.2922407
  97.9873982   3.2921507
  97.9873546   3.2921297
  97.9870955   3.2920556
  97.9870352   3.2920305
  97.986984    3.2919859
  97.9869639   3.2919496
  97.9869556   3.2919134
  97.986953    3.2917483
  97.9869448   3.2916975
  97.9868943   3.2915957
  97.9868617   3.2915581
  97.9867849   3.2915176
  97.9866165   3.2914464
  97.9864676   3.2913536
  97.9863845   3.2912783
  97.9862406   3.2911194
  97.9861783   3.2910615
  97.986055    3.2909708
  97.9859372   3.2909108
  97.9858257   3.2908661
  97.9856643   3.2908471
  97.9853774   3.2907772
  97.9853386   3.2907535
  97.985286    3.2907026
  97.985259    3.29066
  97.9851588   3.2904378
  97.9850972   3.2903548
  97.984974    3.2902251
  97.9849166   3.2901053
  97.9849076   3.2900488
  97.9848851   3.2896797
  97.9848727   3.2896205
  97.9848451   3.2895438
  97.9847558   3.2893954
  97.984706    3.2893271
  97.9846506   3.2892608
  97.9845426   3.2891555
  97.9843612   3.2889945
  97.9842975   3.2889087
  97.9842643   3.2888432
  97.9842368   3.2886614
  97.984219    3.2884698
  97.9841035   3.2881974
  97.9839935   3.2880092
  97.9838191   3.2877674
  97.9837693   3.2877123
  97.9836426   3.2876139
  97.9834819   3.2875323
  97.9833489   3.2874507
  97.9831813   3.287314
  97.9830948   3.2872226
  97.9830035   3.2870923
  97.9827882   3.2868246
  97.9826699   3.2866587
  97.9824498   3.2863945
  97.9823764   3.2863199
  97.9823307   3.2862864
  97.9822836   3.2862697
  97.982224    3.2862564
  97.9821595   3.2862528
  97.9819669   3.2862533
  97.9815808   3.2862892
  97.98147     3.2862884
  97.9813813   3.2862771
  97.9813293   3.2862617
  97.9812677   3.2862268
  97.9809373   3.2859911
  97.9808882   3.2859715
  97.9808355   3.2859652
  97.9807108   3.2859672
  97.9805111   3.2860331
  97.9804003   3.2860323
  97.9803283   3.2860232
  97.980259    3.2859974
  97.9801579   3.2859381
  97.9800928   3.2858739
  97.9799688   3.2857853
  97.9799249   3.2857581
  97.9797548   3.2856716
  97.9796814   3.2856492
  97.9795131   3.2855815
  97.9794493   3.2855542
  97.9793891   3.2855187
  97.9793149   3.2854893
  97.979175    3.2854523
  97.9790544   3.2854424
  97.9789699   3.2854277
  97.9788798   3.2853997
  97.9788002   3.2853565
  97.9787115   3.2852867
  97.9786486   3.2852107
  97.9786084   3.2851417
  97.9785746   3.2850595
  97.9785628   3.2850128
  97.9785574   3.2849188
  97.9785644   3.2848596
  97.9785894   3.284799
  97.9786838   3.2846285
  97.9787512   3.2844858
  97.9788393   3.2843723
  97.9789531   3.2842603
  97.9790273   3.2841483
  97.9790448   3.2840062
  97.9790442   3.2839421
  97.9790359   3.2838759
  97.9790117   3.2837944
  97.9789551   3.2836502
  97.9789053   3.2835456
  97.9788581   3.2834718
  97.9787356   3.283317
  97.978557    3.283142
  97.978476    3.2830862
  97.9783832   3.2830415
  97.9780693   3.2829611
  97.9779495   3.2829115
  97.9777348   3.282763
  97.977563    3.2826674
  97.9774771   3.2826401
  97.9772048   3.2825806
  97.9771473   3.2825597
  97.9770864   3.2825269
  97.976905    3.2823895
  97.9768544   3.2823302
  97.9767859   3.2822187
  97.9767396   3.2821769
  97.9766862   3.2821413
  97.9765248   3.2820938
  97.9763662   3.2820567
  97.976281    3.2820197
  97.9762117   3.2819799
  97.9760337   3.2818411
  97.9755351   3.2814945
  97.9753848   3.2813312
  97.9753114   3.2812875
  97.9752747   3.2812749
  97.9751879   3.281263
  97.9751545   3.2812647
  97.9751136   3.2812797
  97.9750802   3.2813099
  97.9749205   3.2815623
  97.9748494   3.2816436
  97.9747467   3.2817022
  97.9746599   3.2817222
  97.9744862   3.2817408
  97.974412    3.2816895
  97.9743728   3.2816316
  97.9743362   3.2815258
  97.9743246   3.2814159
  97.974309    3.2810544
  97.9742557   3.280961
  97.9742073   3.2808997
  97.9741062   3.2808271
  97.9740133   3.2808033
  97.973838    3.2807774
  97.9737584   3.2807474
  97.9736898   3.2806944
  97.9735909   3.2805452
  97.9733802   3.2803743
  97.9733176   3.2802844
  97.9732843   3.2802089
  97.9731788   3.2797289
  97.9731446   3.2796626
  97.9731155   3.2796298
  97.9730529   3.2796046
  97.973007    3.2795995
  97.9728709   3.2796036
  97.9727682   3.2795959
  97.9727123   3.2795791
  97.9726673   3.2795455
  97.9726423   3.2794968
  97.9726283   3.2793508
  97.972641    3.2791369
  97.9726361   3.2790085
  97.9726203   3.2789204
  97.9725987   3.2788793
  97.9725486   3.2788347
  97.9724861   3.2787994
  97.9722141   3.2786943
  97.9719361   3.2786378
  97.9717542   3.2786149
  97.9716858   3.2785922
  97.9716349   3.2785678
  97.9715965   3.2785384
  97.9715331   3.278462
  97.9715082   3.2784091
  97.9714999   3.278368
  97.9714926   3.2780777
  97.971471    3.2779963
  97.971451    3.2779678
  97.9713693   3.2779182
  97.9712666   3.2778904
  97.9711982   3.2778643
  97.9711456   3.2778349
  97.9711073   3.277803
  97.9710956   3.2777568
  97.9710957   3.2777149
  97.9711107   3.2776746
  97.9711375   3.2776319
  97.9712411   3.2775204
  97.9713481   3.2773838
  97.9713782   3.2773074
  97.9713866   3.2772403
  97.9713867   3.2771673
  97.9713717   3.2771061
  97.9712909   3.2769885
  97.9710882   3.2767613
  97.9709784   3.2765779
  97.9708819   3.2764672
  97.9708357   3.2763973
  97.9707933   3.2762944
  97.9707645   3.2761799
  97.9707414   3.2760702
  97.9707204   3.2758558
  97.9706743   3.2756569
  97.9706492   3.275587
  97.9705395   3.2753512
  97.9704778   3.2752541
  97.9704045   3.2751725
  97.9702232   3.2750287
  97.9701142   3.2749636
  97.9700235   3.2749335
  97.969926    3.2749334
  97.9698777   3.2749488
  97.9696827   3.2749545
  97.9696094   3.2749369
  97.9695467   3.274866
  97.9695101   3.2747961
  97.9695086   3.2744304
  97.9694961   3.2743664
  97.969446    3.2742489
  97.9694065   3.2742013
  97.9693901   3.2741994
  97.9693331   3.2741974
  97.9692144   3.2742293
  97.9691487   3.2742282
  97.969087    3.2742049
  97.9690455   3.2741534
  97.9690244   3.2740777
  97.9690235   3.2739953
  97.9690641   3.273877
  97.96907     3.273842
  97.9690633   3.2738003
  97.9690382   3.2737469
  97.9690074   3.2737139
  97.9689639   3.2737042
  97.9688327   3.2736982
  97.9687303   3.273734
  97.9686251   3.2737455
  97.9684861   3.2737464
  97.9684253   3.273758
  97.9683673   3.2737802
  97.9682427   3.2738693
  97.9680553   3.2740496
  97.9678832   3.2742997
  97.9678262   3.2743336
  97.9677635   3.27435
  97.9677123   3.2743538
  97.9676409   3.2743402
  97.9675792   3.2743023
  97.9675088   3.2742314
  97.9674693   3.2741664
  97.9674172   3.2741071
  97.9673632   3.2740644
  97.9673015   3.2740342
  97.9672291   3.2740157
  97.9671219   3.274035
  97.9670234   3.274066
  97.9669288   3.2740765
  97.9668333   3.2740648
  97.9667532   3.2740337
  97.9666693   3.2740113
  97.9665602   3.2740053
  97.9664386   3.2740169
  97.9661933   3.2740768
  97.965784    3.2741462
  97.9655591   3.2741547
  97.965423    3.2741526
  97.9652859   3.2741437
  97.9651364   3.2741096
  97.9649572   3.2740445
  97.964749    3.2739392
  97.9644951   3.2738744
  97.9644069   3.2738134
  97.964342    3.273756
  97.9642903   3.273696
  97.9642441   3.2736019
  97.9641649   3.2734738
  97.9641489   3.2734594
  97.964116    3.2734361
  97.9640563   3.2734092
  97.9639448   3.2734055
  97.9639443   3.2734055
  97.9638834   3.2734296
  97.9636614   3.2736327
  97.9635918   3.2736818
  97.9635205   3.273714
  97.9633602   3.2737004
  97.9632996   3.2736788
  97.9631607   3.2736044
  97.9631126   3.2735676
  97.9630645   3.2735094
  97.9628752   3.2731151
  97.9627702   3.2729574
  97.9626928   3.2728758
  97.9625663   3.2728139
  97.962405    3.2728155
  97.9622179   3.2728709
  97.9621581   3.2729004
  97.9621234   3.2729326
  97.9620779   3.2729952
  97.9620198   3.2731133
  97.9618769   3.2735117
  97.9618304   3.2735958
  97.9617831   3.273662
  97.9617091   3.2737094
  97.9616156   3.2737201
  97.9615559   3.2737155
  97.9614953   3.2736985
  97.9613608   3.2736473
  97.9611862   3.2736417
  97.9611229   3.273664
  97.9610489   3.2737204
  97.9609088   3.273962
  97.9608161   3.2740031
  97.9607475   3.2739914
  97.9606219   3.2739223
  97.9605578   3.2738748
  97.9604937   3.2738103
  97.9604128   3.2736526
  97.9604004   3.2735845
  97.9603996   3.2735146
  97.9604112   3.2734555
  97.9604469   3.2733911
  97.9606387   3.2732462
  97.9606565   3.2731952
  97.9606503   3.2731648
  97.9606263   3.2731155
  97.9605809   3.273093
  97.9604954   3.2730867
  97.9604232   3.2731
  97.9602708   3.2731518
  97.9602334   3.2731563
  97.9599696   3.2731426
  97.9598137   3.2731684
  97.9594876   3.2731841
  97.9594029   3.273227
  97.9593868   3.2732628
  97.9593787   3.2733479
  97.9593892   3.2734984
  97.9593837   3.2736488
  97.9593409   3.2737392
  97.959249    3.2737973
  97.9591715   3.2737963
  97.9590949   3.2737819
  97.9586451   3.273665
  97.9584135   3.2736156
  97.9582068   3.2735482
  97.9580225   3.2734334
  97.9579415   3.2733697
  97.9578534   3.2732514
  97.9578      3.2732075
  97.9577092   3.2731823
  97.957596    3.2731822
  97.957375    3.2732393
  97.9572627   3.27324
  97.957171    3.2732292
  97.9569813   3.2731538
  97.9568753   3.2731259
  97.9567265   3.2731132
  97.9565928   3.2731363
  97.9564983   3.2731703
  97.9564395   3.2732186
  97.9563663   3.2733
  97.9563066   3.2733501
  97.9562353   3.2733858
  97.9561773   3.2733902
  97.9560945   3.2733597
  97.9560402   3.2733104
  97.9559655   3.2731679
  97.9559255   3.2730568
  97.9558393   3.2728884
  97.9557842   3.2727558
  97.9557309   3.2725766
  97.9557088   3.2723975
  97.9556893   3.2723411
  97.9556564   3.2722909
  97.9555397   3.2722514
  97.9554319   3.272254
  97.9553303   3.2722243
  97.9552618   3.272183
  97.9550242   3.2719213
  97.9549707   3.2719078
  97.954895    3.2719274
  97.9548414   3.2720375
  97.9548528   3.2722014
  97.9549639   3.2725069
  97.9550064   3.2727022
  97.9550134   3.2728714
  97.9549936   3.2729986
  97.9549615   3.2730934
  97.954899    3.2731901
  97.9548196   3.2732617
  97.9547448   3.2732813
  97.9546503   3.2732839
  97.9545764   3.2732605
  97.9543876   3.2731734
  97.9541249   3.2730353
  97.9537723   3.272785
  97.9536129   3.2727338
  97.9534909   3.2726853
  97.9533511   3.2725983
  97.9531276   3.2724324
  97.9530653   3.2723625
  97.9530048   3.2722729
  97.9527485   3.2719879
  97.9526764   3.2719179
  97.9525331   3.2717467
  97.9521034   3.2711391
  97.9519843   3.2709187
  97.9515603   3.2699789
  97.9514545   3.2696707
  97.9513621   3.26947
  97.9513221   3.269359
  97.95126     3.2691538
  97.951244    3.2690356
  97.951212    3.2689845
  97.9511835   3.2689693
  97.9511434   3.268971
  97.9510917   3.268988
  97.951007    3.2690353
  97.9507156   3.2691622
  97.9504456   3.2691977
  97.9503681   3.2691815
  97.9503075   3.2691412
  97.9502541   3.269065
  97.950223    3.2689835
  97.9501967   3.2689177
  97.9501502   3.2688034
  97.9500995   3.2687192
  97.9500398   3.2686788
  97.9499499   3.2686465
  97.9498313   3.2686544
  97.9497841   3.2686794
  97.9497538   3.2687188
  97.9497297   3.2687689
  97.9496913   3.2688119
  97.9496458   3.2688441
  97.9495023   3.2688905
  97.9492243   3.2689126
  97.9491352   3.2689134
  97.9489784   3.2688873
  97.9489072   3.2688558
  97.9488261   3.2688307
  97.9487201   3.2688162
  97.9486168   3.2688116
  97.9485321   3.2688169
  97.9483869   3.2688642
  97.9483208   3.2689627
  97.9483144   3.2691185
  97.9483222   3.2693433
  97.9483034   3.2694229
  97.9482614   3.2695026
  97.9482124   3.2695482
  97.9481554   3.2695607
  97.9481055   3.2695535
  97.9480547   3.2695266
  97.9479354   3.2694414
  97.9478517   3.2694055
  97.9477555   3.2693749
  97.947662    3.269373
  97.9475327   3.2694024
  97.9474427   3.2694068
  97.947334    3.2694022
  97.9472574   3.2693905
  97.9471728   3.2693465
  97.9471194   3.2692838
  97.9470101   3.2690544
  97.9469496   3.2689765
  97.9467421   3.2688231
  97.9465774   3.2687217
  97.9464946   3.268642
  97.9464306   3.2685532
  97.9463344   3.2684833
  97.9462516   3.2684411
  97.9461839   3.2684339
  97.9461545   3.2684383
  97.9461224   3.2684687
  97.9461204   3.2687051
  97.9460971   3.2687741
  97.9460588   3.2688224
  97.9459892   3.2688519
  97.9459278   3.2688518
  97.9458476   3.268815
  97.9456945   3.268642
  97.9456696   3.2686026
  97.9456306   3.2684951
  97.9456075   3.2683768
  97.9455961   3.2682407
  97.9455953   3.2680804
  97.9455706   3.2679237
  97.945543    3.2678332
  97.945487    3.2677024
  97.9454025   3.2676146
  97.9453295   3.2675778
  97.9452297   3.2675956
  97.9451155   3.2677513
  97.9450013   3.2678765
  97.944921    3.2679364
  97.9448256   3.2679865
  97.9446617   3.2679836
  97.9446136   3.2679549
  97.9445763   3.2679011
  97.9445496   3.2678357
  97.9445303   3.2675554
  97.9445152   3.2674784
  97.9444814   3.2674211
  97.9443816   3.2674281
  97.944329    3.2674612
  97.9442104   3.2675775
  97.9441516   3.2676025
  97.9440571   3.2676105
  97.9439663   3.2675763
  97.9438666   3.2674965
  97.9437873   3.2674543
  97.9435049   3.2674514
  97.9433891   3.2674369
  97.9433312   3.2674207
  97.9432867   3.2673893
  97.9432395   3.2673374
  97.9432119   3.2672908
  97.9431416   3.2672146
  97.9430615   3.2671088
  97.9430117   3.2670076
  97.9430002   3.2669583
  97.9429994   3.2668705
  97.9430226   3.2668285
  97.9430556   3.2667954
  97.9431234   3.2667614
  97.9431965   3.2667391
  97.9433524   3.2667258
  97.9435369   3.2666714
  97.9435922   3.2666357
  97.943602    3.2665855
  97.9436021   3.2665282
  97.9435879   3.2664807
  97.9435345   3.2664225
  97.9434712   3.2663875
  97.9433492   3.2663515
  97.9432771   3.2663407
  97.9430473   3.2662097
  97.9429886   3.2661461
  97.942969    3.2661013
  97.9429709   3.2660422
  97.9430013   3.2659688
  97.9430031   3.2659061
  97.9429924   3.2658738
  97.9429702   3.2658416
  97.9429382   3.2658129
  97.9428954   3.2658048
  97.9428268   3.2658038
  97.9427742   3.2658127
  97.9426896   3.2658296
  97.9426539   3.2658618
  97.9426066   3.265946
  97.9425199   3.2661805
  97.9424494   3.2662959
  97.9424164   3.2663201
  97.9423692   3.2663263
  97.9423033   3.266303
  97.942281    3.2662877
  97.9422427   3.2662447
  97.9422241   3.266199
  97.9422179   3.2661488
  97.9422288   3.2659832
  97.9422511   3.2659232
  97.9423698   3.2657263
  97.9424903   3.2654739
  97.9425332   3.265405
  97.942683    3.2652359
  97.9431861   3.2647314
  97.9432218   3.2646643
  97.9432441   3.2646052
  97.9432451   3.2645353
  97.9432175   3.2644637
  97.9431811   3.2644332
  97.9431374   3.2644116
  97.943084    3.2644026
  97.9429316   3.2643962
  97.942757    3.2644041
  97.9427258   3.2643978
  97.9426492   3.2643278
  97.9426118   3.2643144
  97.9424925   3.2643035
  97.9422658   3.2645768
  97.9420121   3.2647402
  97.9417943   3.2649996
  97.9417349   3.2650837
  97.9415914   3.2654097
  97.941546    3.2654962
  97.9414877   3.2655651
  97.941426    3.2656141
  97.9413212   3.2657251
  97.941157    3.2659471
  97.9411023   3.2659914
  97.9410348   3.2660252
  97.9409789   3.2660322
  97.9408545   3.2660145
  97.9407778   3.2659841
  97.9406615   3.2658986
  97.9405301   3.2658377
  97.9404511   3.2658235
  97.9403813   3.2658317
  97.9402823   3.2658666
  97.9402136   3.2659308
  97.9401496   3.2660418
  97.9400598   3.2662276
  97.9399723   3.2664403
  97.939942    3.2664953
  97.939871    3.2665653
  97.9398396   3.2665723
  97.9398082   3.2665688
  97.9397675   3.2665278
  97.9396166   3.2662096
  97.9395076   3.2658635
  97.9394507   3.2657757
  97.9393984   3.2657219
  97.9393368   3.2656751
  97.9392682   3.2656528
  97.9389043   3.2655612
  97.9386554   3.265527
  97.9385809   3.2655036
  97.9384926   3.2654649
  97.938374    3.2653782
  97.9383426   3.2653443
  97.938244    3.265163
  97.938114    3.2648437
  97.9380944   3.2647408
  97.9380979   3.2646508
  97.9381259   3.2645724
  97.9381749   3.2645152
  97.9382214   3.2645024
  97.93834     3.264506
  97.938447    3.2645202
  97.9385739   3.2644876
  97.9387345   3.2644036
  97.938859    3.264302
  97.9389394   3.2642191
  97.9390116   3.2641163
  97.9390687   3.2639947
  97.9390921   3.2638895
  97.9390852   3.263817
  97.9390434   3.2637527
  97.9389841   3.2636989
  97.9389132   3.2636777
  97.938812    3.263673
  97.93847     3.2637217
  97.9382885   3.263732
  97.9381222   3.2637225
  97.9379768   3.263699
  97.9375362   3.2635044
  97.9373211   3.2633919
  97.9372176   3.263324
  97.9371375   3.2632234
  97.9369226   3.2628654
  97.9366069   3.2622595
  97.9364826   3.2621525
  97.9363826   3.2620663
  97.936271    3.2620311
  97.9361721   3.262024
  97.9361093   3.2620497
  97.9358322   3.2622224
  97.9356146   3.2623309
  97.9355378   3.2623554
  97.9354308   3.2623751
  97.9352307   3.2623854
  97.9351143   3.2624216
  97.9349235   3.2625207
  97.9348303   3.2625861
  97.9347617   3.2626118
  97.9346791   3.262628
  97.9346023   3.262628
  97.9344883   3.2626126
  97.9343103   3.2626148
  97.93418     3.2626334
  97.9339113   3.2626974
  97.9338101   3.2627054
  97.9336914   3.262703
  97.9335926   3.2626772
  97.9335077   3.2626186
  97.9334589   3.2625472
  97.9334404   3.2624397
  97.9334359   3.2623426
  97.9334418   3.2622538
  97.9334593   3.2621895
  97.9334745   3.2620843
  97.9334619   3.2619884
  97.9334119   3.2619182
  97.9333189   3.2618491
  97.9331469   3.2617016
  97.9328889   3.2615155
  97.9327413   3.2614276
  97.9325808   3.261348
  97.9324041   3.2612846
  97.9322308   3.2612529
  97.9318295   3.2612302
  97.9315282   3.2612416
  97.9313572   3.2612718
  97.9312246   3.2613208
  97.9309523   3.2614
  97.9308336   3.2614197
  97.9306102   3.2614709
  97.9303905   3.2614859
  97.9299053   3.2614831
  97.9297902   3.2614771
  97.929682    3.2614524
  97.9294506   3.2613528
  97.92921     3.2612169
  97.929074    3.2611221
  97.9288284   3.2608761
  97.9287156   3.2607959
  97.9286758   3.2607751
  97.928627    3.2607649
  97.928569    3.2607634
  97.9283472   3.2607778
  97.9282706   3.2607696
  97.9282061   3.2607513
  97.9281588   3.2607259
  97.9280586   3.2606478
  97.9279589   3.260591
  97.9281299   3.260216
  97.9282078   3.2598642
  97.9281795   3.2597225
  97.9280557   3.2594457
  97.9276791   3.2595015
  97.9268685   3.2605824
  97.9263821   3.2614471
  97.9253553   3.2622577
  97.923734    3.2627981
  97.922437    3.2629062
  97.9209779   3.2633926
  97.9203294   3.2633385
  97.9192226   3.2634861
  97.9185319   3.2633248
  97.918282    3.2632097
  97.9174967   3.2627852
  97.9173397   3.2625768
  97.9170903   3.261995
  97.9169479   3.2616071
  97.9168267   3.2613629
  97.9165698   3.2611113
  97.9160562   3.2604646
  97.915785    3.2601627
  97.915614    3.2598251
  97.9154069   3.25971
  97.9149713   3.2596162
  97.9139497   3.2597084
  97.9136282   3.2597152
  97.9132924   3.2598082
  97.9129493   3.2599873
  97.9122847   3.2602307
  97.9120275   3.2602448
  97.9116847   3.2602014
  97.9113132   3.2602225
  97.9104559   3.2602934
  97.9101558   3.2603289
  97.9095987   3.2602422
  97.9090059   3.2601769
  97.9079987   3.2601327
  97.907563    3.2601323
  97.9070664   3.2598548
  97.907012    3.2596937
  97.9069049   3.2596146
  97.9061695   3.2592835
  97.9059911   3.2590967
  97.9058413   3.2588883
  97.9056059   3.2586224
  97.9053917   3.2585216
  97.9047561   3.2583486
  97.9046541   3.258143
  97.9046421   3.2581187
  97.9046352   3.2578674
  97.9047289   3.2570849
  97.9047077   3.2568623
  97.9045522   3.2566856
  97.9046082   3.2560993
  97.9047041   3.2559181
  97.9049128   3.2555655
  97.9051435   3.255227
  97.9053953   3.254904
  97.9056671   3.2545979
  97.9058102   3.2544516
  97.9059579   3.2543099
  97.9062664   3.2540412
  97.9067868   3.2536424
  97.9069866   3.2534977
  97.9073981   3.253226
  97.9078246   3.2529787
  97.908043    3.2528644
  97.9084892   3.2526551
  97.9087166   3.2525603
  97.9092419   3.2523701
  97.9095075   3.2522837
  97.9100441   3.2521285
  97.9105869   3.2519971
  97.9108603   3.2519403
  97.9111556   3.2518433
  97.9151548   3.2477225
  97.9191541   3.2436014
  97.9193183   3.2435145
  97.9195448   3.2432096
  97.9197297   3.2429286
  97.9201683   3.242454
  97.9202399   3.2423249
  97.9202864   3.2421885
  97.9204188   3.242002
  97.9205653   3.2418908
  97.920712    3.2416792
  97.92088     3.241543
  97.9209909   3.2414067
  97.9210303   3.2412739
  97.9210198   3.2410836
  97.9210092   3.2409615
  97.9209558   3.2407963
  97.9209488   3.2406671
  97.9209597   3.2405091
  97.9210098   3.2404087
  97.9210708   3.2401575
  97.9210854   3.2398667
  97.9210704   3.2396996
  97.9210799   3.2396635
  97.9212742   3.2395446
  97.9214538   3.2394041
  97.9216161   3.2392438
  97.9217591   3.2390659
  97.9218813   3.2389839
  97.9219365   3.238935
  97.9219871   3.2388813
  97.9220729   3.2387615
  97.9221075   3.2386962
  97.9221586   3.2385577
  97.9223735   3.2385434
  97.922445    3.2384765
  97.9227311   3.238113
  97.9228885   3.2378355
  97.9229363   3.237692
  97.9229365   3.2375532
  97.9230037   3.2370124
  97.9229325   3.2367586
  97.9228565   3.2365766
  97.9228234   3.2364282
  97.9228807   3.2362512
  97.9229523   3.2360742
  97.9230192   3.2358445
  97.9232245   3.2353852
  97.9232867   3.2350885
  97.9233821   3.2349354
  97.9235013   3.2347728
  97.9235729   3.2346484
  97.923604    3.2342718
  97.9236339   3.2340863
  97.9236222   3.2339038
  97.9235661   3.2334999
  97.9235692   3.2333414
  97.9236467   3.2332577
  97.9237837   3.2331741
  97.9239267   3.2330695
  97.9242603   3.2328605
  97.9243377   3.2328486
  97.924424    3.2328517
  97.9246382   3.2329297
  97.9247542   3.2329418
  97.9248971   3.2329389
  97.92504     3.2328882
  97.9251502   3.2328315
  97.9252099   3.2327298
  97.9252487   3.2326252
  97.9252637   3.2324906
  97.9252965   3.2324308
  97.9253027   3.2322244
  97.9252701   3.2320418
  97.9252286   3.2318623
  97.9251574   3.2316229
  97.9251011   3.2314553
  97.9250565   3.2313535
  97.924949    3.2312563
  97.9248865   3.2311692
  97.9247509   3.2310143
  97.9246561   3.23085
  97.9245984   3.2306734
  97.9246094   3.2306587
  97.9243826   3.2293704
  97.9243361   3.2283053
  97.9241462   3.2276948
  97.9240092   3.2270672
  97.9241447   3.2269031
  97.9243355   3.2266722
  97.9251477   3.2263317
  97.9261241   3.2262011
  97.9267194   3.2261778
  97.9272927   3.2260811
  97.9273393   3.2259739
  97.927375    3.2258388
  97.9273841   3.2257315
  97.927382    3.2255158
  97.9273906   3.2253206
  97.9274028   3.2252285
  97.9274475   3.2251231
  97.9274231   3.2249882
  97.9274434   3.2248702
  97.9274602   3.2244719
  97.9274717   3.2243451
  97.9275224   3.2240965
  97.927515    3.2239734
  97.9274747   3.2238668
  97.927408    3.2237437
  97.9273568   3.223578
  97.9273019   3.2234325
  97.9272751   3.2232696
  97.9272499   3.2231985
  97.9271743   3.2230932
  97.9271151   3.2229383
  97.9271029   3.222881
  97.9271387   3.2228067
  97.9277872   3.2211854
  97.9283817   3.219294
  97.9289221   3.2177267
  97.9295706   3.2163757
  97.930027    3.2152093
  97.930057    3.2151327
  97.9305974   3.2134033
  97.9315161   3.2118361
  97.9322457   3.210431
  97.933534    3.2093728
  97.9339533   3.2093519
  97.9340409   3.2094247
  97.9341646   3.2094574
  97.9342465   3.2095187
  97.9344597   3.2096243
  97.9348424   3.2097702
  97.934911    3.209776
  97.9351537   3.2097099
  97.9353909   3.2096245
  97.9356027   3.2095068
  97.9359955   3.2093454
  97.9363885   3.2092769
  97.9365477   3.2092612
  97.9367485   3.2092557
  97.9372583   3.2094444
  97.9374341   3.2094345
  97.9375955   3.2094002
  97.9376842   3.2093242
  97.9377843   3.2092195
  97.9378902   3.2092172
  97.9379677   3.2091973
  97.9381516   3.2091294
  97.9383085   3.2090473
  97.9385761   3.2089302
  97.938749    3.2088356
  97.9388308   3.208829
  97.938929    3.2088506
  97.9390862   3.2088382
  97.9391534   3.2087875
  97.9392245   3.2086242
  97.9393138   3.2084931
  97.9393631   3.2084754
  97.9394186   3.2085162
  97.9394459   3.2085633
  97.9395309   3.2088744
  97.9396195   3.2091383
  97.9396484   3.2091943
  97.939707    3.2092668
  97.9397321   3.2092747
  97.9397844   3.2092783
  97.9398353   3.2092653
  97.9398966   3.2092179
  97.9400222   3.2091498
  97.9401037   3.2091305
  97.9401872   3.2091347
  97.9402277   3.2091456
  97.940309    3.2091861
  97.9404348   3.2092217
  97.9405652   3.2092306
  97.9407801   3.20921
  97.9412866   3.2091002
  97.9413949   3.2090929
  97.9416153   3.2090639
  97.9419038   3.2090587
  97.9419838   3.2090684
  97.9421796   3.2091122
  97.9423266   3.2091312
  97.9423575   3.2091296
  97.9424534   3.2090893
  97.9424888   3.2090282
  97.942515    3.2089757
  97.942522    3.2089454
  97.9425208   3.2088361
  97.9424957   3.2087363
  97.9424245   3.2085366
  97.9423367   3.2083593
  97.9422304   3.2081974
  97.9421524   3.2080279
  97.942135    3.2079748
  97.9421009   3.2078046
  97.9421185   3.2076945
  97.9421871   3.2075283
  97.942211    3.2074134
  97.9422138   3.2073323
  97.9422377   3.2072225
  97.9422679   3.2071143
  97.9422843   3.2070835
  97.9423305   3.2070315
  97.942426    3.2070078
  97.9425161   3.2070012
  97.9426268   3.207011
  97.9427343   3.2070397
  97.9429223   3.2071183
  97.9431115   3.2071665
  97.9432078   3.2071828
  97.9433139   3.2072108
  97.9436768   3.2072389
  97.9438186   3.2072736
  97.9439438   3.2073192
  97.9442651   3.2074631
  97.9446901   3.2075751
  97.9447803   3.2073794
  97.9448173   3.2072781
  97.9448744   3.2070702
  97.9449087   3.2068573
  97.9449171   3.2067498
  97.9449197   3.206642
  97.9449029   3.2065323
  97.9449136   3.2064219
  97.944951    3.2063175
  97.9450129   3.2062256
  97.9450447   3.2060811
  97.9450766   3.2056606
  97.9450844   3.2052023
  97.9450757   3.2051077
  97.9450972   3.2050574
  97.9451354   3.2050261
  97.9451635   3.2049716
  97.9452348   3.2048722
  97.9454051   3.2045639
  97.9454583   3.2044272
  97.945569    3.2042952
  97.9455957   3.2042455
  97.945611    3.2041966
  97.9456295   3.204022
  97.9456125   3.2036127
  97.9456183   3.2035246
  97.9456377   3.2034422
  97.9457251   3.2033137
  97.9458413   3.2032121
  97.9460111   3.2030447
  97.9461183   3.2029581
  97.9462226   3.2028804
  97.9465233   3.2027371
  97.9466067   3.2026864
  97.9466455   3.2026445
  97.9466545   3.2025398
  97.9466903   3.2024172
  97.946762    3.2022288
  97.9468871   3.2021033
  97.9469769   3.2016337
  97.9471439   3.2012928
  97.9472661   3.2011254
  97.9476354   3.2009164
  97.9477188   3.2007968
  97.9477606   3.2006353
  97.947761    3.2002972
  97.9477701   3.2001208
  97.9476991   3.1997437
  97.9475894   3.1992979
  97.9475479   3.1990735
  97.9475213   3.1988939
  97.9475274   3.1987414
  97.9475603   3.1986337
  97.947605    3.198553
  97.9476676   3.1984962
  97.9477599   3.1984335
  97.9478433   3.1984096
  97.9479415   3.1984127
  97.9480555   3.1985044
  97.9480483   3.1983176
  97.94816     3.1980162
  97.9481796   3.1976744
  97.9483522   3.1973537
  97.9484453   3.1970292
  97.9484525   3.1964979
  97.9484267   3.196362
  97.9484025   3.1960807
  97.948491    3.1959584
  97.9487421   3.1957183
  97.9488924   3.1954327
  97.9488861   3.1950864
  97.9487401   3.1947654
  97.948544    3.1943924
  97.9481953   3.1938086
  97.9481623   3.1935014
  97.9481844   3.1929365
  97.9481939   3.1924357
  97.9482714   3.1921134
  97.9483876   3.1917665
  97.9485037   3.1914503
  97.9485248   3.1911607
  97.9484525   3.1906592
  97.9484084   3.19023
  97.9484854   3.1897622
  97.948764    3.1887931
  97.94915     3.1881017
  97.9485694   3.1871033
  97.9481547   3.1863235
  97.9481428   3.1859904
  97.9483332   3.1857227
  97.9486247   3.1854014
  97.9487437   3.1851576
  97.9487258   3.1850386
  97.9485176   3.1848423
  97.9481428   3.1845567
  97.9478811   3.1843426
  97.9476967   3.1840987
  97.9476313   3.1838845
  97.9476788   3.1836525
  97.9480179   3.1833492
  97.9482916   3.1831529
  97.9484403   3.1828673
  97.9482428   3.1823189
  97.947686    3.1818334
  97.9472006   3.1812338
  97.9460013   3.1805914
  97.9444452   3.1800203
  97.9435029   3.179749
  97.9420181   3.1796919
  97.9410473   3.1797776
  97.9406362   3.1795773
  97.9406643   3.1793052
  97.9407844   3.1790906
  97.9408132   3.1785998
  97.9409115   3.1780733
  97.9412121   3.1776101
  97.9414771   3.1774294
  97.9432658   3.1764025
  97.9434363   3.175347
  97.943008    3.1752519
  97.9414375   3.1756326
  97.9409188   3.1752757
  97.9407951   3.174638
  97.9406713   3.1742287
  97.9404433   3.1738701
  97.9401383   3.1734673
  97.9399919   3.1730164
  97.9399634   3.1726452
  97.9401109   3.1720123
  97.9405915   3.17107
  97.9406867   3.1708035
  97.9407987   3.1705504
  97.9410151   3.170004
  97.9411007   3.1695043
  97.9412197   3.1692616
  97.9415528   3.1689999
  97.9419383   3.1686525
  97.9421192   3.1683812
  97.9421192   3.1679958
  97.9419716   3.1676389
  97.9419436   3.16734
  97.9419002   3.1666823
  97.9420406   3.1658131
  97.942043    3.1653736
  97.9420762   3.1650023
  97.9420954   3.1647883
  97.9423666   3.1640554
  97.9427235   3.1637461
  97.9430674   3.1637937
  97.9436991   3.1639745
  97.9445319   3.1638079
  97.9454599   3.1631845
  97.946307    3.162542
  97.9469733   3.1622089
  97.9481344   3.1613333
  97.9490053   3.1607955
  97.9502236   3.1595772
  97.9503949   3.1589966
  97.9504806   3.1584113
  97.9507756   3.1576023
  97.9512923   3.1567936
  97.9519987   3.1562127
  97.9525174   3.1559795
  97.9529885   3.1555322
  97.9530028   3.1548278
  97.9531075   3.1543186
  97.952939    3.1533461
  97.9528104   3.1526038
  97.9527465   3.1522347
  97.9529967   3.1520644
  97.953241    3.1517386
  97.953399    3.1514874
  97.9537408   3.1510704
  97.9539054   3.1507978
  97.9541556   3.1505395
  97.9541702   3.1502667
  97.9541777   3.1498575
  97.9544282   3.1494054
  97.9544999   3.1490895
  97.9556078   3.14838
  97.9576826   3.1456346
  97.9578556   3.1456013
  97.9586569   3.1455515
  97.9595858   3.1456212
  97.9597745   3.1455426
  97.9598926   3.1454792
  97.960159    3.1452234
  97.9602985   3.1450526
  97.9603789   3.1449188
  97.9609888   3.1443194
  97.9611714   3.1442116
  97.9615108   3.1441279
  97.9616658   3.1440459
  97.9619882   3.1438236
  97.9622864   3.1437639
  97.9624094   3.1437485
  97.9625384   3.143691
  97.9627574   3.1435673
  97.963249    3.1433452
  97.963426    3.1432107
  97.963563    3.1430637
  97.9639903   3.1427546
  97.9641879   3.1426611
  97.9643647   3.1426345
  97.9645567   3.1426261
  97.9647648   3.1426053
  97.9649997   3.1425454
  97.9653667   3.1423814
  97.9656025   3.1423195
  97.9660103   3.1423094
  97.9662479   3.1423383
  97.9674216   3.1419673
  97.9685622   3.1407163
  97.9705618   3.1384465
  97.9720209   3.1366631
  97.9747771   3.1329342
  97.9762362   3.1308806
  97.9770469   3.1290972
  97.9781818   3.1269895
  97.9791005   3.1249899
  97.9798571   3.1229363
  97.9802765   3.1217545
  97.9802997   3.121689
  97.9804516   3.121261
  97.9821809   3.1160729
  97.9823408   3.1136748
  97.982343    3.113641
  97.9821809   3.1118576
  97.9821066   3.1111522
  97.9819647   3.109804
  97.9815864   3.108507
  97.9812081   3.1066155
  97.9806137   3.1048862
  97.9803435   3.1031568
  97.9800192   3.100833
  97.9800192   3.1000036
  97.9800192   3.0994279
  97.9801813   3.0974823
  97.9802354   3.0965096
  97.9807218   3.0953206
  97.9814784   3.0933211
  97.982289    3.0912134
  97.9829375   3.0897002
  97.9831471   3.088862
  97.9833698   3.0879709
  97.983532    3.0862956
  97.9838129   3.0861383
  97.9837622   3.0856418
  97.983661    3.0856812
  97.9834997   3.0857275
  97.9832758   3.0857725
  97.9830369   3.0858095
  97.9828971   3.0858141
  97.9827918   3.085801
  97.9827347   3.0857834
  97.9827108   3.085769
  97.9826393   3.0856817
  97.9824796   3.0855487
  97.9823248   3.0853867
  97.98197     3.0850991
  97.9819528   3.0849498
  97.9819551   3.0847835
  97.981975    3.0845908
  97.9820172   3.0844591
  97.9820696   3.0843297
  97.9822307   3.0839864
  97.9823007   3.0837396
  97.9823123   3.0835024
  97.9822881   3.08331
  97.9822678   3.0832338
  97.9822467   3.0831848
  97.9821541   3.0830018
  97.9821091   3.0829372
  97.9819596   3.0827724
  97.9818239   3.0826613
  97.9815698   3.0824147
  97.9813753   3.0822006
  97.9813127   3.0821038
  97.9813166   3.0819605
  97.9813337   3.0817991
  97.9813718   3.0816512
  97.9813851   3.0815696
  97.9813992   3.0813543
  97.9813916   3.0809995
  97.9813494   3.0807406
  97.9813217   3.080493
  97.9813133   3.0802949
  97.9812866   3.0800922
  97.9812306   3.0798828
  97.9811703   3.079712
  97.9810918   3.0795337
  97.9810451   3.079453
  97.9809694   3.0793486
  97.980914    3.0792814
  97.9807478   3.0791413
  97.9805461   3.0790169
  97.980475    3.0789836
  97.9803295   3.0789353
  97.980252    3.0789225
  97.9799114   3.0788951
  97.9797323   3.0789009
  97.9795853   3.0789272
  97.9795153   3.0789466
  97.9793207   3.079048
  97.9791085   3.0792081
  97.9790088   3.0793044
  97.9788761   3.0794544
  97.9787077   3.0794992
  97.9782228   3.0795999
  97.9780692   3.0796248
  97.9777622   3.0796412
  97.9777285   3.0796351
  97.9776731   3.0796015
  97.9776152   3.0795492
  97.9774897   3.0794636
  97.9774123   3.0793775
  97.9766673   3.0786632
  97.9765189   3.0784777
  97.9761423   3.0781079
  97.9760499   3.0779899
  97.9759872   3.0778956
  97.9759527   3.0778142
  97.9758836   3.0775956
  97.9758559   3.0773489
  97.9758204   3.0771821
  97.9757961   3.0768817
  97.9757993   3.0766978
  97.9758068   3.0766059
  97.975958    3.0762647
  97.9760119   3.0760557
  97.9760235   3.0758843
  97.9760236   3.0757642
  97.9760098   3.0755807
  97.9759304   3.0751709
  97.9759093   3.0747926
  97.975898    3.0747279
  97.9758011   3.0743644
  97.9757529   3.0741377
  97.9757096   3.0739738
  97.9755945   3.0736415
  97.9754748   3.0733928
  97.9753441   3.0731962
  97.9751924   3.073038
  97.97492     3.0729868
  97.9731686   3.0725012
  97.9727134   3.0722416
  97.9724499   3.0721527
  97.9722144   3.0720334
  97.9719238   3.0719156
  97.9718977   3.0718018
  97.9718679   3.0716076
  97.9717598   3.0712424
  97.9717111   3.071046
  97.9716579   3.0706414
  97.9716091   3.0704246
  97.9715564   3.0702438
  97.9714857   3.0700495
  97.9714536   3.0699807
  97.9713583   3.0698185
  97.9712481   3.0696528
  97.9711592   3.069514
  97.9710318   3.0693547
  97.9709194   3.069243
  97.9708073   3.0691453
  97.970616    3.0690229
  97.9705449   3.0689896
  97.9704727   3.0689698
  97.9703202   3.0689436
  97.9702029   3.0689488
  97.9701272   3.0689692
  97.9699601   3.0690467
  97.9698959   3.0690919
  97.9697645   3.0692252
  97.9696388   3.0693657
  97.9695117   3.0695237
  97.9693814   3.0694558
  97.9691045   3.0692379
  97.9688767   3.0690904
  97.9685955   3.0689697
  97.9682867   3.0688887
  97.9675208   3.0688244
  97.9672926   3.0688308
  97.9670404   3.0688589
  97.9668309   3.0688976
  97.9666397   3.068943
  97.9662275   3.0690699
  97.9660428   3.0691341
  97.9658191   3.0692422
  97.9654603   3.0693787
  97.9652026   3.069419
  97.9651759   3.0692447
  97.9651197   3.0689855
  97.965015    3.0686091
  97.9650042   3.0685202
  97.9650022   3.0681677
  97.9649489   3.0679283
  97.9648147   3.0676338
  97.9646565   3.0673638
  97.9642409   3.0668927
  97.964199    3.0668521
  97.9640549   3.066746
  97.9639031   3.0666493
  97.9637565   3.0665705
  97.9635369   3.0664661
  97.9632818   3.0663722
  97.9630233   3.0663112
  97.9626928   3.0662497
  97.9626176   3.0662224
  97.9623153   3.0660154
  97.9620163   3.065717
  97.9617161   3.0653667
  97.9615839   3.0652427
  97.9614439   3.065124
  97.9612672   3.0650086
  97.9610803   3.0649318
  97.9610046   3.0649114
  97.9607541   3.0648982
  97.9606602   3.0649048
  97.9605838   3.0649254
  97.9603869   3.0649999
  97.9603147   3.0650426
  97.9601613   3.0651552
  97.9597995   3.0654819
  97.9597616   3.0655061
  97.959692    3.0655239
  97.9595963   3.0655217
  97.9590408   3.0653719
  97.9585227   3.0652746
  97.9582919   3.0652398
  97.95804     3.065216
  97.9577666   3.0652142
  97.957488    3.0652408
  97.9572873   3.0652858
  97.9570882   3.0653174
  97.9568898   3.0653672
  97.9565837   3.0654055
  97.9563433   3.0654242
  97.9560985   3.0654766
  97.9559407   3.0654983
  97.9553506   3.0655373
  97.9549269   3.0655413
  97.9547706   3.0655319
  97.954699    3.0655221
  97.9545557   3.0654681
  97.9543382   3.065319
  97.9542487   3.0652738
  97.953941    3.0651564
  97.9536634   3.0650791
  97.9531955   3.0650207
  97.9529995   3.0650078
  97.9527308   3.0650045
  97.9525579   3.0650261
  97.9524618   3.0650496
  97.952271    3.0651391
  97.9522139   3.0651784
  97.9520616   3.065305
  97.9519332   3.0654738
  97.9518378   3.0656571
  97.9517606   3.0657649
  97.9516743   3.0658758
  97.9515687   3.0659911
  97.951488    3.0660481
  97.9514248   3.0660756
  97.9512726   3.0661098
  97.9511593   3.0661481
  97.9510883   3.0661815
  97.9509014   3.066327
  97.9507943   3.0664675
  97.9506581   3.066429
  97.9506282   3.0664082
  97.950548    3.06614
  97.950454    3.0659402
  97.9502397   3.0656407
  97.9500721   3.0654265
  97.949972    3.0653135
  97.9499011   3.0652567
  97.9498112   3.0651984
  97.9497214   3.0651537
  97.9496457   3.0651333
  97.9495927   3.0651271
  97.9494758   3.0651212
  97.9493977   3.0651281
  97.9492007   3.0651828
  97.9491312   3.0652096
  97.9489677   3.0652894
  97.9487927   3.0653866
  97.9485866   3.0655153
  97.9483465   3.0657442
  97.9482385   3.0658828
  97.9478604   3.0663232
  97.9477139   3.0665351
  97.947509    3.0668516
  97.9473406   3.0671687
  97.9473203   3.0672448
  97.9472855   3.0675001
  97.9472859   3.067765
  97.9473552   3.0680694
  97.9474352   3.0682619
  97.947583    3.0685111
  97.9476529   3.0685978
  97.9478031   3.0687417
  97.9478673   3.0687869
  97.9482289   3.0689699
  97.9483563   3.0690454
  97.9485205   3.0691937
  97.9487617   3.0694474
  97.9489235   3.0695844
  97.9491425   3.0697348
  97.9490981   3.0699195
  97.949052    3.0701777
  97.9490426   3.0706958
  97.9490484   3.0707716
  97.9490809   3.070971
  97.9491685   3.0712797
  97.9492686   3.0717599
  97.9493901   3.0722108
  97.9494637   3.0724175
  97.9494964   3.0725382
  97.9494973   3.0727121
  97.9495205   3.0730234
  97.9495343   3.0731025
  97.9496533   3.0734304
  97.9497566   3.0736831
  97.9499143   3.0740251
  97.9499506   3.0741584
  97.9499611   3.0743119
  97.9499621   3.0745009
  97.9499478   3.0748149
  97.9499067   3.0748355
  97.9497847   3.0748435
  97.9496287   3.0748441
  97.9494456   3.0748243
  97.949323    3.0747116
  97.9490255   3.0743534
  97.9488496   3.0742039
  97.948787    3.0741601
  97.9486053   3.0740629
  97.9485181   3.0740277
  97.9482906   3.0739787
  97.9479726   3.0739496
  97.9475245   3.0739639
  97.947319    3.0739562
  97.9468818   3.0739878
  97.9465773   3.0740251
  97.946348    3.074075
  97.9462601   3.0741041
  97.9460541   3.0742141
  97.9457604   3.0744232
  97.9456808   3.0744629
  97.945599    3.0744889
  97.9454814   3.0745003
  97.9453158   3.074512
  97.944591    3.0745891
  97.9444372   3.0745972
  97.9443237   3.0745921
  97.944201    3.0745581
  97.9441267   3.0744598
  97.9440811   3.0743189
  97.9439815   3.0741403
  97.9439245   3.0740616
  97.9437843   3.0739124
  97.9436483   3.0738133
  97.9433239   3.0736415
  97.9431084   3.073317
  97.9429824   3.0731618
  97.9429148   3.0730962
  97.942783    3.072994
  97.9426317   3.0729068
  97.9424311   3.0728233
  97.942196    3.0727664
  97.9419655   3.0727615
  97.9418509   3.072787
  97.9416651   3.0728597
  97.9416072   3.0728929
  97.9414613   3.0730056
  97.9413929   3.0730719
  97.9412649   3.0732409
  97.941183    3.0733312
  97.9410186   3.0734469
  97.9406331   3.0737411
  97.9404977   3.0738267
  97.9402805   3.0740386
  97.9401533   3.0742006
  97.9401065   3.0742737
  97.9399865   3.0745084
  97.9399639   3.0745605
  97.9399436   3.0746366
  97.9398929   3.0750258
  97.9398947   3.0754478
  97.9398892   3.0755637
  97.9398219   3.0757741
  97.939784    3.0758659
  97.9397565   3.0759036
  97.9396736   3.0759617
  97.9395774   3.076013
  97.9391116   3.076143
  97.9389159   3.076185
  97.938774    3.0761981
  97.9386764   3.0761899
  97.9386361   3.07617
  97.9383861   3.0759304
  97.9383149   3.0758894
  97.9381545   3.0758158
  97.9377849   3.0755586
  97.9375142   3.0753884
  97.9372882   3.0752183
  97.9371896   3.0751218
  97.9370163   3.0749964
  97.9364514   3.0742576
  97.9347052   3.0672395
  97.9320381   3.0607503
  97.9301135   3.0547726
  97.9301027   3.0547183
  97.930526    3.0544241
  97.9308533   3.0542755
  97.9312739   3.0540982
  97.9313639   3.0540473
  97.9317179   3.0537881
  97.9319714   3.0535441
  97.9324755   3.0532532
  97.9325407   3.0532071
  97.9330325   3.0527935
  97.9335951   3.0522936
  97.9338106   3.0521303
  97.9340433   3.0519956
  97.9344471   3.0517958
  97.9347581   3.0516145
  97.9356004   3.0512611
  97.9358576   3.0511841
  97.9362164   3.0511427
  97.9365524   3.0510871
  97.9368991   3.0509458
  97.9372104   3.0508769
  97.9377455   3.0507217
  97.9381978   3.0505252
  97.9389147   3.0501515
  97.9397261   3.0497512
  97.9401929   3.0495497
  97.9405743   3.049342
  97.940874    3.0491477
  97.9410833   3.049001
  97.9413246   3.0488178
  97.9417149   3.0485619
  97.94241     3.0478849
  97.9427788   3.047514
  97.943073    3.0470761
  97.9431067   3.047016
  97.9431311   3.0469507
  97.943277    3.0464304
  97.9434122   3.0461402
  97.9435819   3.04538
  97.943685    3.0450995
  97.9438001   3.0446592
  97.943878    3.0440803
  97.9438874   3.0435994
  97.9438806   3.0435209
  97.943772    3.0430584
  97.9436254   3.0427159
  97.9435945   3.0426568
  97.9433946   3.0423422
  97.9430764   3.0420004
  97.9428459   3.0417909
  97.9425249   3.0412972
  97.9423738   3.0409682
  97.9423389   3.0409057
  97.9419238   3.0403593
  97.9413842   3.0398484
  97.9408963   3.0395356
  97.9408617   3.0394792
  97.9407168   3.0391278
  97.9403024   3.0385507
  97.9401817   3.0383542
  97.9397745   3.0377385
  97.9394072   3.0372978
  97.9390584   3.0370053
  97.9388381   3.0368056
  97.9387602   3.0366942
  97.938701    3.0365817
  97.9386157   3.0361467
  97.9385389   3.0356853
  97.9382927   3.0350355
  97.9381925   3.0347491
  97.9381106   3.0344221
  97.9380606   3.0341137
  97.9379793   3.0337679
  97.9379353   3.0334984
  97.9379135   3.033118
  97.9379026   3.0322631
  97.9378725   3.0314232
  97.9378491   3.0311776
  97.9377797   3.0307978
  97.9377134   3.0298618
  97.9376097   3.0292479
  97.937641    3.0290067
  97.9377221   3.0286031
  97.9377988   3.0281176
  97.937863    3.0276163
  97.9378871   3.0271297
  97.9379402   3.0267447
  97.9380391   3.0263805
  97.9381096   3.0260791
  97.938141    3.0258147
  97.9382304   3.0254174
  97.9383186   3.0252317
  97.9384161   3.0249174
  97.9386186   3.0244067
  97.9387434   3.0242076
  97.9388553   3.0239385
  97.938942    3.0235439
  97.9389953   3.0233728
  97.9391631   3.0230994
  97.9393838   3.0226463
  97.9395382   3.0221678
  97.9396104   3.0217943
  97.9396772   3.0213339
  97.9397645   3.0209209
  97.9398856   3.020628
  97.9400456   3.0203814
  97.9404094   3.0198734
  97.9405514   3.0196215
  97.9406496   3.0193798
  97.9407718   3.0191619
  97.9410282   3.0187885
  97.9412804   3.0184435
  97.9416575   3.0177917
  97.9418518   3.017529
  97.9420102   3.0172781
  97.9421658   3.0169943
  97.9423193   3.0167427
  97.9424708   3.0165375
  97.9426458   3.0163203
  97.9428177   3.016136
  97.9430487   3.0158515
  97.9433115   3.0154097
  97.9433454   3.0153048
  97.9434084   3.0149782
  97.943415    3.0149153
  97.9434284   3.0145165
  97.9434037   3.01402
  97.9434348   3.0138756
  97.9435568   3.0135635
  97.9436418   3.0132599
  97.9437373   3.0129267
  97.9439504   3.0123819
  97.9440452   3.0121633
  97.9441575   3.0119704
  97.9442747   3.0117229
  97.9444149   3.0114577
  97.9447588   3.0109865
  97.9449623   3.0106837
  97.945187    3.0103681
  97.9454672   3.0100376
  97.9461387   3.0093608
  97.9464078   3.0090515
  97.9469812   3.008309
  97.9471916   3.0079347
  97.9472221   3.007868
  97.9473587   3.0074895
  97.9473789   3.0074137
  97.9474176   3.0068951
  97.9474113   3.0065557
  97.9474046   3.0064883
  97.9473066   3.0060936
  97.9471125   3.005576
  97.9470812   3.0055094
  97.9468314   3.0051264
  97.9466256   3.0047876
  97.9461845   3.0042675
  97.94602     3.0040618
  97.9458038   3.0038411
  97.945627    3.0035718
  97.9454152   3.0032702
  97.9451233   3.0029215
  97.9447255   3.0023869
  97.9445359   3.0020717
  97.9443737   3.0017423
  97.9442268   3.0013071
  97.9440796   3.0010156
  97.943875    3.0007079
  97.9437363   3.0004289
  97.9436339   3.0001985
  97.9435076   2.9998089
  97.9434692   2.9997424
  97.9432459   2.9994183
  97.9431189   2.9992052
  97.9429964   2.9988262
  97.9428942   2.9981242
  97.9428728   2.9980378
  97.9427512   2.9976997
  97.942301    2.9968685
  97.9421454   2.9965551
  97.9420936   2.9964074
  97.9418252   2.9955206
  97.9416323   2.9949268
  97.9414335   2.9943788
  97.9413764   2.9942702
  97.9402609   2.9927053
  97.9401906   2.9926274
  97.9380242   2.9907258
  97.9370003   2.990017
  97.9368101   2.9898517
  97.9367167   2.9897402
  97.9366862   2.9896475
  97.9362415   2.9895165
  97.9361875   2.9895006
  97.937328    2.98928
  97.937814    2.988479
  97.938689    2.987918
  97.939174    2.98771
  97.940041    2.987676
  97.941081    2.987955
  97.942121    2.9882
  97.942953    2.988236
  97.94382     2.988167
  97.945033    2.987855
  97.94597     2.987368
  97.946837    2.98702
  97.948029    2.986833
  97.949035    2.986799
  97.950144    2.986731
  97.95108     2.986697
  97.952121    2.986349
  97.952884    2.985862
  97.953543    2.985305
  97.954098    2.984539
  97.954584    2.983948
  97.955036    2.982938
  97.955175    2.982345
  97.95528     2.981161
  97.955075    2.978652
  97.955077    2.976017
  97.955147    2.975041
  97.954976    2.972707
  97.954942    2.971418
  97.9555      2.968805
  97.955953    2.965511
  97.956197    2.964257
  97.956233    2.963282
  97.956373    2.961783
  97.95634     2.960215
  97.955995    2.958403
  97.955267    2.955667
  97.954956    2.954935
  97.954229    2.953471
  97.95371     2.952251
  97.953399    2.95124
  97.953296    2.95016
  97.953195    2.947686
  97.95295     2.943169
  97.952848    2.941601
  97.952641    2.939754
  97.9522465   2.938012
  97.951882    2.935782
  97.951433    2.934353
  97.950914    2.933446
  97.950317    2.93294
  97.949416    2.932381
  97.94848     2.932032
  97.947371    2.931404
  97.946505    2.93102
  97.945951    2.930566
  97.945535    2.930078
  97.945258    2.92966
  97.944982    2.928823
  97.94481     2.927394
  97.944881    2.925827
  97.945194    2.924329
  97.94568     2.923075
  97.946132    2.922065
  97.947035    2.920532
  97.948114    2.918873
  97.948358    2.918037
  97.948359    2.916295
  97.948118    2.915389
  97.947563    2.914796
  97.946524    2.913959
  97.945658    2.913331
  97.945083    2.9126683
  97.943198    2.909267
  97.942471    2.907664
  97.942057    2.905956
  97.94185     2.904736
  97.941851    2.90397
  97.942164    2.90289
  97.942928    2.901532
  97.943493    2.900334
  97.943875    2.899742
  97.944674    2.898768
  97.945368    2.897827
  97.946235    2.897097
  97.947137    2.896401
  97.948698    2.895461
  97.950432    2.894627
  97.954192    2.893306
  97.955024    2.893063
  97.957382    2.892438
  97.964921    2.89091
  97.966586    2.890598
  97.968319    2.890356
  97.970538    2.889939
  97.973325    2.889028
  97.974088    2.88861
  97.974851    2.888437
  97.976272    2.887811
  97.977868    2.887116
  97.979289    2.886734
  97.980781    2.886073
  97.981648    2.88576
  97.982633    2.885044
  97.983466    2.884209
  97.984576    2.883199
  97.98527     2.882643
  97.987176    2.882679
  97.989014    2.88275
  97.991025    2.882613
  97.991961    2.88237
  97.99255     2.881917
  97.993383    2.880942
  97.994182    2.879933
  97.995154    2.878435
  97.99616     2.876729
  97.996751    2.875266
  97.997133    2.874604
  97.997827    2.874152
  97.998437    2.873864
  97.99906     2.873831
  98           2.874124
  98.002464    2.874778
  98.003722    2.874585
  98.009044    2.87067
  98.014464    2.866659
  98.017464    2.8642
  98.019948    2.862194
  98.024669    2.858395
  98.027623    2.856266
  98.029038    2.854888
  98.030204    2.852341
  98.030996    2.850962
  98.032328    2.849459
  98.034408    2.848333
  98.036197    2.847791
  98.037819    2.847667
  98.039482    2.847794
  98.039856    2.847669
  98.040649    2.844118
  98.041193    2.840859
  98.04238     2.836265
  98.045088    2.830167
  98.047129    2.826158
  98.048711    2.823527
  98.051374    2.821774
  98.0522382   2.8212084
  98.05412     2.819979
  98.058238    2.818395
  98.062381    2.817283
  98.064543    2.817368
  98.070365    2.818042
  98.078847    2.819553
  98.084585    2.820727
  98.0867787   2.8208552
  98.087495    2.820897
  98.090143    2.821198
  98.094426    2.822037
  98.097087    2.822833
  98.099207    2.823044
  98.099415    2.823002
  98.098336    2.820327
  98.098337    2.818739
  98.09888     2.816316
  98.101006    2.809298
  98.101799    2.80558
  98.1025565   2.8015875
  98.103181    2.79894
  98.10363     2.7967632
  98.1039313   2.7953028
  98.104224    2.793884
  98.105058    2.790835
  98.10664     2.789582
  98.113337    2.78683
  98.116913    2.7850396
  98.115069    2.783127
  98.110914    2.77953
  98.109709    2.777607
  98.108088    2.776269
  98.106716    2.77585
  98.103065    2.775453
  98.09716     2.774947
  98.095248    2.774821
  98.087016    2.772056
  98.080988    2.769795
  98.074878    2.767492
  98.073151    2.766601
  98.070986    2.765756
  98.069573    2.764752
  98.069365    2.764167
  98.06974     2.763248
  98.072947    2.756941
  98.076385    2.750477
  98.076424    2.75
  98.076317    2.74961
  98.075863    2.748942
  98.073905    2.747113
  98.073661    2.746129
  98.07251     2.742438
  98.072021    2.74068
  98.071884    2.737947
  98.071605    2.735909
  98.072026    2.734327
  98.0731836   2.7313685
  98.073428    2.730744
  98.07483     2.727581
  98.07511     2.726633
  98.078058    2.721308
  98.080719    2.717092
  98.081805    2.715511
  98.084265    2.710878
  98.085141    2.708946
  98.085808    2.706556
  98.086438    2.705081
  98.089379    2.701568
  98.091305    2.699145
  98.093587    2.696942
  98.098033    2.692587
  98.100658    2.689391
  98.102059    2.686967
  98.102621    2.685503
  98.10316     2.684237
  98.1039581   2.6824174
  98.104002    2.681461
  98.103619    2.678156
  98.10369     2.676786
  98.104463    2.672358
  98.104924    2.667727
  98.104961    2.664389
  98.104719    2.661295
  98.103882    2.65785
  98.103425    2.655504
  98.103392    2.65336
  98.103708    2.650373
  98.104656    2.645981
  98.104937    2.643731
  98.106761    2.636985
  98.107112    2.634595
  98.107113    2.633224
  98.106415    2.631607
  98.105576    2.629814
  98.105473    2.628337
  98.105264    2.626299
  98.106003    2.62263
  98.106004    2.620451
  98.106355    2.619537
  98.107685    2.618132
  98.109018    2.617092
  98.109264    2.615722
  98.1093      2.614632
  98.11007     2.613508
  98.11042     2.612841
  98.110701    2.61133
  98.110178    2.608728
  98.1095096   2.6065736
  98.10948     2.606478
  98.108637    2.605154
  98.1085847   2.6051254
  98.107414    2.604485
  98.105735    2.604308
  98.102902    2.603814
  98.100139    2.603215
  98.095768    2.60279
  98.0926716   2.6030585
  98.09255     2.603069
  98.090136    2.603875
  98.087498    2.603627
  98.084665    2.603485
  98.084481    2.603335
  98.084058    2.602718
  98.084001    2.602157
  98.084273    2.60145
  98.0841347   2.6011136
  98.083664    2.5964014
  98.0833431   2.5933648
  98.0827145   2.5913897
  98.0815802   2.5879593
  98.0800578   2.5857911
  98.0795653   2.5851876
  98.078489    2.5823037
  98.077954    2.5798449
  98.0775432   2.5785112
  98.0773677   2.5777536
  98.0769408   2.5759778
  98.0766049   2.5747809
  98.0766021   2.5747535
  98.0766034   2.5731326
  98.0765176   2.5724038
  98.0764961   2.5716535
  98.0765819   2.5711391
  98.0767536   2.5706889
  98.0772042   2.5698958
  98.0773973   2.569467
  98.0784917   2.5675807
  98.0785346   2.5662302
  98.0784273   2.5658015
  98.0782771   2.5653727
  98.0779552   2.5640437
  98.0777192   2.5636578
  98.077333    2.5613427
  98.0774402   2.5608926
  98.0776763   2.5604853
  98.0780411   2.5601852
  98.0796289   2.5594563
  98.0804443   2.5590276
  98.0817961   2.5568626
  98.0820966   2.5544403
  98.0820107   2.5532827
  98.0817532   2.5517178
  98.081603    2.5512891
  98.0811883   2.5490789
  98.0813777   2.54787
  98.0815172   2.5471626
  98.0822038   2.5459729
  98.0824184   2.545094
  98.0823326   2.5441936
  98.0821824   2.5402707
  98.0816889   2.5380628
  98.0812382   2.5363693
  98.0811524   2.5359191
  98.0811524   2.5354689
  98.0811095   2.5350402
  98.0811524   2.5314388
  98.0813241   2.5293166
  98.0813992   2.5258117
  98.0812704   2.522907
  98.0813134   2.5218459
  98.0812383   2.5191877
  98.0813885   2.5177621
  98.0818927   2.514643
  98.0824935   2.5107415
  98.0839097   2.5060789
  98.0848539   2.5034207
  98.085562    2.5020916
  98.0862164   2.5004731
  98.0872893   2.4989725
  98.0899179   2.4939454
  98.0903772   2.4930138
  98.0913341   2.4910728
  98.0920314   2.4890792
  98.0949404   2.4842692
  98.0952075   2.4838275
  98.0978744   2.4795628
  98.1026902   2.4732225
  98.1069388   2.468315
  98.1089377   2.4660786
  98.109024    2.465982
  98.112723    2.461268
  98.115271    2.457907
  98.11767     2.454798
  98.122385    2.449137
  98.126183    2.444322
  98.129232    2.440359
  98.13158     2.43745
  98.134329    2.433839
  98.1363159   2.4314779
  98.1367948   2.4309167
  98.1412      2.427626
  98.145846    2.424669
  98.147544    2.423265
  98.148644    2.420706
  98.150595    2.415488
  98.1517058   2.4128878
  98.1525517   2.4109075
  98.157704    2.396875
  98.160605    2.388597
  98.162956    2.382526
  98.167468    2.371695
  98.171318    2.362664
  98.173518    2.356744
  98.178433    2.344554
  98.182283    2.335122
  98.1842181   2.3305919
  98.1842364   2.3305512
  98.186342    2.326847
  98.1904236   2.3208926
  98.1906625   2.3205509
  98.1910305   2.3200745
  98.196486    2.313053
  98.1965285   2.3129546
  98.1970688   2.311842
  98.1971215   2.311552
  98.1883634   2.2962378
  98.18816     2.295811
  98.187961    2.293803
  98.186562    2.285477
  98.1862399   2.2838439
  98.1859004   2.2816587
  98.182427    2.263109
  98.1817811   2.2596746
  98.1809556   2.2581964
  98.180432    2.2578718
  98.179684    2.257286
  98.179185    2.256483
  98.17883     2.2550113
  98.1787541   2.2545007
  98.1783594   2.2536975
  98.178288    2.253522
  98.176641    2.251965
  98.1765507   2.2519006
  98.1763376   2.2516993
  98.1749336   2.2507365
  98.1740872   2.250603
  98.173983    2.250582
  98.1738169   2.2505819
  98.1726624   2.2505548
  98.1724448   2.250506
  98.1723888   2.250243
  98.1727079   2.250037
  98.1741369   2.2495
  98.1752679   2.248544
  98.1786039   2.242388
  98.1787497   2.2405646
  98.1788019   2.239912
  98.1469323   2.1892658
  98.1316888   2.1652014
  98.1284165   2.1609819
  98.1295122   2.1599599
  98.1306561   2.1585773
  98.1322777   2.1568321
  98.1338096   2.155388
  98.1360831   2.1537615
  98.1407526   2.1506999
  98.1422168   2.1495794
  98.1440001   2.1480472
  98.1466649   2.1451402
  98.1483583   2.143824
  98.150146    2.1428761
  98.1534103   2.1416767
  98.1558715   2.1407756
  98.1570976   2.1401215
  98.1584746   2.1391789
  98.1606907   2.1372663
  98.1657699   2.1308426
  98.1682172   2.1273519
  98.1693132   2.1261154
  98.1709575   2.1246777
  98.1764091   2.1207232
  98.1785558   2.1186546
  98.1830175   2.1144177
  98.1875114   2.1107029
  98.1896708   2.1093207
  98.1919462   2.1078271
  98.1939031   2.1066783
  98.1976503   2.1048505
  98.1786343   2.0776775
  98.0732342   2.0478278
  97.9650875   2.0193499
  97.8593438   1.9915581
  97.7507609   1.9609367
  97.6437379   1.9106572
  96.7203878   1.4586943
END
END
