polygon
1
  19.6526744   47.5478376
  19.6542592   47.5502888
  19.654632    47.5510176
  19.6577476   47.5572881
  19.6585719   47.5591693
  19.6519435   47.5614894
  19.6510411   47.5618948
  19.6552471   47.566162
  19.6556234   47.5667058
  19.6571296   47.5747242
  19.6576843   47.576084
  19.659213    47.5782401
  19.6615222   47.5808389
  19.6630544   47.5832127
  19.6630407   47.584534
  19.6641959   47.5868289
  19.6663277   47.5885507
  19.6756683   47.5911615
  19.6791947   47.5917446
  19.6845503   47.590804
  19.691856    47.5880366
  19.6958591   47.5850329
  19.6983286   47.5859629
  19.7047698   47.5858114
  19.7022184   47.6065723
  19.7129736   47.6114589
  19.7259631   47.6134562
  19.7420066   47.6201559
  19.7583725   47.6210568
  19.7682795   47.6160855
  19.7727966   47.6161891
  19.8100965   47.5985339
  19.8185615   47.5939211
  19.8299392   47.603629
  19.8364233   47.6058191
  19.8450547   47.6211986
  19.8540157   47.6255488
  19.8569319   47.6267451
  19.8720156   47.6308774
  19.8691811   47.6400853
  19.8748645   47.6658428
  19.8766224   47.6681287
  19.8849331   47.665628
  19.8863202   47.6630726
  19.8896034   47.6614051
  19.8999177   47.6585565
  19.9039376   47.6567894
  19.9114121   47.6544481
  19.9177683   47.6571999
  19.9311644   47.6616286
  19.9406879   47.6634757
  19.9489639   47.6657081
  19.9568482   47.6662658
  19.9618403   47.6673209
  19.9693213   47.675929
  19.9707164   47.6766661
  19.9721308   47.6767737
  19.973383    47.6761752
  19.9738867   47.6750011
  19.9739255   47.6738791
  19.9743701   47.6734
  19.9755803   47.6734668
  19.976185    47.6740362
  19.977097    47.6741773
  19.9771676   47.6741882
  19.9784573   47.6739878
  19.9807042   47.6730383
  19.9822221   47.6731107
  19.9831321   47.6734851
  19.9849773   47.673434
  19.9875556   47.6739447
  19.9896728   47.6740264
  19.9934127   47.6731864
  19.9972794   47.6710096
  19.999891    47.6675432
  20.0000198   47.6632075
  20.002991    47.6611334
  20.0037133   47.6585992
  20.000928    47.6548063
  20.0034832   47.6540569
  20.0069224   47.6283705
  20.0134617   47.6202086
  20.0190928   47.6155965
  20.0170233   47.6122199
  20.0093295   47.6000027
  20.0081868   47.5960169
  20.0052841   47.5941688
  20.0114377   47.5899967
  20.0165765   47.5845884
  20.019091    47.580968
  20.0359105   47.5762783
  20.045098    47.5701617
  20.0522297   47.5699624
  20.0764388   47.5632389
  20.0830394   47.5621936
  20.1010625   47.5573167
  20.1123158   47.5533075
  20.1161598   47.5578273
  20.1214247   47.5611529
  20.1318103   47.5651827
  20.1167973   47.5718841
  20.1103792   47.5793365
  20.1101203   47.5797934
  20.1083743   47.5828755
  20.1079401   47.5862034
  20.1029847   47.58975
  20.1068456   47.5904386
  20.1078954   47.5906333
  20.1086191   47.5909029
  20.1123226   47.5923231
  20.120735    47.5955487
  20.1360441   47.5986181
  20.138802    47.5999722
  20.1577645   47.6021543
  20.1670909   47.6060803
  20.1745153   47.6073784
  20.2086437   47.6076595
  20.2098462   47.5964994
  20.214232    47.5834672
  20.2261369   47.5798252
  20.2265492   47.5738024
  20.2317095   47.570479
  20.2284542   47.5668113
  20.2287696   47.5662268
  20.2311555   47.5617278
  20.2351216   47.5624127
  20.2361971   47.5618759
  20.2425256   47.5587176
  20.2485738   47.5571477
  20.2603215   47.5558133
  20.2552443   47.5474025
  20.2653581   47.545061
  20.2862024   47.5432663
  20.2933819   47.5339806
  20.2970647   47.5281586
  20.3033951   47.5181498
  20.301451    47.5175667
  20.3021127   47.5093984
  20.2874206   47.4866872
  20.2977986   47.477388
  20.2985064   47.4755626
  20.336853    47.4425798
  20.3520271   47.4403801
  20.3633695   47.4407608
  20.3803705   47.4461829
  20.3808043   47.4451112
  20.3820142   47.4441081
  20.3815849   47.4429202
  20.3803359   47.4421283
  20.380171    47.4416674
  20.3820849   47.4401416
  20.3818425   47.4393219
  20.3812885   47.4389237
  20.3813695   47.4370266
  20.3807691   47.4365581
  20.3774102   47.4366987
  20.3767869   47.4360428
  20.38115     47.4330623
  20.3805991   47.4263322
  20.3815075   47.4242873
  20.3857048   47.4221788
  20.3890858   47.4210713
  20.3924132   47.420454
  20.398075    47.4204358
  20.4029922   47.4210122
  20.4072252   47.4219427
  20.4140169   47.422306
  20.4206419   47.4232862
  20.4218933   47.4237224
  20.4269629   47.4254894
  20.4332914   47.4288102
  20.4387246   47.4319228
  20.4479818   47.4389515
  20.4481278   47.4391952
  20.4482365   47.4394431
  20.4482924   47.439691
  20.448307    47.4399315
  20.4472626   47.4453465
  20.4473971   47.4470018
  20.4477612   47.4485971
  20.4484119   47.4498069
  20.4492348   47.4509611
  20.4511285   47.4533736
  20.4591796   47.4587067
  20.4635382   47.460964
  20.4675293   47.4637348
  20.4694819   47.4649098
  20.4705876   47.4652463
  20.4716645   47.4653831
  20.4735947   47.4654253
  20.4764942   47.4648322
  20.4815799   47.4635076
  20.4841739   47.4628319
  20.4868841   47.4628136
  20.4898325   47.4631606
  20.4965727   47.4650067
  20.4999333   47.4663541
  20.506833    47.4704792
  20.5110658   47.4750724
  20.5121263   47.4762231
  20.5144122   47.4799254
  20.5155353   47.483174
  20.5154563   47.4855249
  20.5185916   47.4907501
  20.521484    47.5007565
  20.5259469   47.501721
  20.5405419   47.504994
  20.5473392   47.507605
  20.5578372   47.5090402
  20.5636743   47.5107316
  20.571132    47.5128333
  20.574545    47.5134818
  20.5789245   47.5151453
  20.5801562   47.5162209
  20.5815337   47.517763
  20.5843081   47.5199782
  20.5876541   47.5217357
  20.5937236   47.5233997
  20.5962108   47.5241791
  20.5980525   47.5250614
  20.599801    47.5259941
  20.6105812   47.5333387
  20.612498    47.5344661
  20.6202059   47.5374374
  20.6267719   47.5393768
  20.634337    47.5409391
  20.6438368   47.544049
  20.6558801   47.5500194
  20.6566769   47.5502799
  20.6574862   47.5504606
  20.6617512   47.5513759
  20.6647396   47.5521792
  20.6673049   47.5536606
  20.6679312   47.5547737
  20.6686801   47.5563735
  20.6686273   47.561103
  20.6676641   47.5646896
  20.6630827   47.5692864
  20.6629893   47.5696478
  20.6630726   47.5699946
  20.6633567   47.5703368
  20.6638305   47.5705874
  20.6645088   47.570652
  20.667524    47.5705472
  20.6758285   47.5690266
  20.680458    47.5689088
  20.6850874   47.5690834
  20.6882181   47.569509
  20.6904604   47.5699956
  20.6978891   47.5728601
  20.7018088   47.5746832
  20.7051699   47.5769334
  20.7073403   47.5794354
  20.7090877   47.5844542
  20.7092657   47.5871025
  20.7085705   47.5884151
  20.7074235   47.5894159
  20.7019274   47.5907728
  20.6993945   47.5914798
  20.6980376   47.5925739
  20.6972941   47.5929778
  20.695928    47.5955386
  20.6958068   47.5978942
  20.6970404   47.6001496
  20.6971755   47.6003966
  20.6996105   47.6023311
  20.7030994   47.6039239
  20.7094587   47.6051959
  20.7138068   47.6057289
  20.7153087   47.6062457
  20.7160253   47.6066197
  20.7164777   47.6070464
  20.7170175   47.6080691
  20.7170616   47.6085776
  20.7171111   47.6091473
  20.7160025   47.6117515
  20.7158687   47.6132097
  20.7159066   47.6132905
  20.7165615   47.6146879
  20.7183967   47.6162633
  20.7202039   47.6185217
  20.7206366   47.6195629
  20.7207604   47.6204306
  20.7205342   47.6211936
  20.7192328   47.6228091
  20.7153327   47.6281034
  20.7144656   47.6305768
  20.7145212   47.6321468
  20.7148817   47.6335882
  20.7154121   47.6345483
  20.7164915   47.6354835
  20.7173653   47.6361993
  20.7184609   47.6367907
  20.7192019   47.6370814
  20.7260406   47.639764
  20.7304631   47.642404
  20.7328157   47.6429554
  20.7399845   47.6425429
  20.7442932   47.641609
  20.7493752   47.6405074
  20.7524605   47.6404906
  20.7549791   47.6404768
  20.7586793   47.6413593
  20.7613495   47.6433234
  20.764844    47.6486325
  20.7712291   47.6538528
  20.77175     47.6544101
  20.7717749   47.6551722
  20.7717875   47.6555563
  20.7669031   47.6613376
  20.7647217   47.6636571
  20.7641903   47.6648055
  20.7642398   47.6663295
  20.7648455   47.667461
  20.7660108   47.6685903
  20.7683412   47.6708366
  20.7729563   47.6741955
  20.7746689   47.6749323
  20.7792566   47.6771509
  20.7843915   47.6789767
  20.7929401   47.6818914
  20.7963503   47.6826022
  20.7997352   47.682551
  20.8014105   47.6821475
  20.8052916   47.6801858
  20.8080188   47.677479
  20.8096647   47.6759292
  20.8118609   47.674371
  20.8162842   47.6716381
  20.8190615   47.6704551
  20.82242     47.6696413
  20.8235351   47.6692398
  20.8267007   47.6690254
  20.8305676   47.6689878
  20.8299896   47.6673544
  20.8293647   47.6663867
  20.828699    47.6655028
  20.8285207   47.6651248
  20.8277791   47.6626812
  20.8276185   47.6619272
  20.827599    47.6614575
  20.8276009   47.6605352
  20.8276312   47.6600869
  20.8276748   47.6598697
  20.827745    47.6597432
  20.8279707   47.6590164
  20.8277962   47.6570082
  20.8260441   47.6482639
  20.8255559   47.6441511
  20.82477     47.6415226
  20.824534    47.6414314
  20.8243503   47.6414015
  20.8240606   47.6414178
  20.8238326   47.6414558
  20.8236663   47.6414377
  20.8234799   47.6413518
  20.8232452   47.6411467
  20.8232036   47.6409895
  20.8232626   47.6407862
  20.8235899   47.6400886
  20.8238313   47.6397127
  20.8239788   47.6393892
  20.8245662   47.6387892
  20.8256417   47.6378638
  20.8258429   47.6376361
  20.8260843   47.637253
  20.8262675   47.6369119
  20.8263169   47.6366921
  20.826222    47.6362474
  20.8260779   47.636117
  20.8254179   47.6358282
  20.8252168   47.6356697
  20.824993    47.6354294
  20.8249475   47.634747
  20.8250006   47.6337412
  20.8268662   47.625965
  20.8335918   47.6110311
  20.8371216   47.6068213
  20.8423572   47.5967082
  20.8490413   47.5948484
  20.8549637   47.5950863
  20.855028    47.5950121
  20.866567    47.5868332
  20.882928    47.5820133
  20.8884537   47.5824169
  20.8956357   47.5822583
  20.901267    47.5834444
  20.9158178   47.5854835
  20.9233962   47.5876426
  20.9253743   47.5881554
  20.9288961   47.5892915
  20.9293842   47.5894887
  20.9339976   47.5910824
  20.9362105   47.5917661
  20.9372914   47.5921695
  20.9388578   47.5928026
  20.9403296   47.5934782
  20.9418772   47.594284
  20.9456249   47.5960797
  20.9468198   47.5953686
  20.9507883   47.5938138
  20.952462    47.5934556
  20.9562492   47.5921858
  20.9603852   47.5900838
  20.9640504   47.5887033
  20.96626     47.5878373
  20.971452    47.5860189
  20.974098    47.5855386
  20.9760077   47.5835884
  20.976716    47.5828764
  20.9771074   47.5825263
  20.9777512   47.5818235
  20.9788039   47.580775
  20.9822586   47.5769111
  20.9838411   47.5750917
  20.9858235   47.5733754
  20.986199    47.5730606
  20.9902892   47.5703525
  20.9944929   47.5670592
  20.9943199   47.5544028
  20.9943668   47.5534833
  20.9945097   47.5525328
  20.9949237   47.5497797
  20.9956656   47.5448451
  20.9962492   47.5409626
  20.9964867   47.5393829
  20.9918171   47.5244691
  20.9832146   47.519495
  20.9857666   47.5173551
  20.9869648   47.5148538
  20.9903416   47.5119845
  20.9884898   47.5088943
  20.9899059   47.5056568
  20.9933916   47.5028605
  20.9921933   47.4981508
  20.9934412   47.4956854
  20.9980755   47.4953541
  21.0079151   47.4906658
  20.9981793   47.4847316
  20.9920224   47.4736966
  21.0038801   47.4309078
  21.0179362   47.3847404
  21.0195827   47.37889
  21.0222074   47.3737791
  21.0222202   47.3736465
  21.0222312   47.3734155
  21.022309    47.37319
  21.0225078   47.3727969
  21.0233434   47.3712034
  21.024604    47.3685716
  21.0254132   47.3668641
  21.0255153   47.3666733
  21.0264809   47.3646199
  21.0303463   47.3569621
  21.0305028   47.3565358
  21.0305648   47.3562291
  21.0305524   47.3558971
  21.0269672   47.327056
  21.0254273   47.3146966
  21.0239938   47.3048312
  21.0237667   47.3012302
  21.023304    47.2973723
  21.0219652   47.2880572
  21.0211729   47.2818951
  21.0209934   47.2803457
  21.0193351   47.2675604
  21.0190585   47.2655414
  21.0188845   47.2641356
  21.0179467   47.2566429
  21.0170137   47.2493901
  21.0169813   47.2492824
  21.0169643   47.2492368
  21.0169371   47.2491829
  21.0169055   47.249138
  21.0168711   47.2490971
  21.0167808   47.2490172
  21.0111342   47.2452091
  21.0019902   47.2388171
  20.998505    47.2365667
  20.9950138   47.2340932
  20.9939346   47.2333701
  20.9927554   47.2324701
  20.9926004   47.2323818
  20.9924225   47.2322982
  20.9922675   47.2322379
  20.992091    47.2321926
  20.9876348   47.2259335
  20.9773062   47.2305421
  20.9674911   47.22551
  20.9628326   47.2187263
  20.9552279   47.2089404
  20.9550889   47.208416
  20.9532821   47.2032745
  20.9464834   47.1896346
  20.9460035   47.187401
  20.9454357   47.1870322
  20.945422    47.1866481
  20.9448542   47.1862794
  20.943173    47.1863072
  20.9331626   47.187613
  20.9326083   47.1876221
  20.926371    47.1850589
  20.9263172   47.1835347
  20.9263039   47.1831568
  20.9257361   47.1827817
  20.9240417   47.1824313
  20.9223697   47.1824587
  20.9195665   47.1821202
  20.9184356   47.1817605
  20.9178587   47.1813856
  20.9109622   47.1757884
  20.9103813   47.1750353
  20.9097781   47.1739045
  20.9097515   47.1731424
  20.8941643   47.1745354
  20.8843556   47.1690114
  20.8474773   47.1482375
  20.856094    47.1389579
  20.8566052   47.1374249
  20.8598559   47.1347078
  20.86038     47.1335588
  20.8609209   47.1331721
  20.8608819   47.1320259
  20.8601858   47.1278462
  20.860147    47.1267062
  20.8601341   47.1263282
  20.8617137   47.1236375
  20.8622415   47.1228666
  20.8644353   47.121685
  20.8649852   47.1212981
  20.8655389   47.1212893
  20.8666682   47.1216495
  20.8683125   47.120867
  20.8666164   47.1201315
  20.8542805   47.1184175
  20.8531641   47.1184352
  20.8514813   47.1180835
  20.8475529   47.1173829
  20.8464238   47.1170225
  20.8447409   47.1166646
  20.8445997   47.1124761
  20.8456261   47.1097943
  20.8456134   47.1094164
  20.8450251   47.1086631
  20.847129    47.1048237
  20.8476439   47.1036688
  20.8475155   47.0998645
  20.8462967   47.0968336
  20.8445376   47.0941956
  20.8439586   47.0934422
  20.8500784   47.0929677
  20.852288    47.0925485
  20.8510693   47.0895239
  20.8481561   47.0857635
  20.845256    47.0823809
  20.8434718   47.0789808
  20.8444974   47.0762928
  20.8461277   47.0751265
  20.8477579   47.0739601
  20.8499373   47.0724008
  20.8614543   47.0668873
  20.8597341   47.0653895
  20.8613378   47.0634609
  20.861325    47.063083
  20.8562464   47.061254
  20.8569247   47.0646715
  20.8525025   47.0658883
  20.8486421   47.0670898
  20.8486291   47.0667057
  20.8437047   47.069455
  20.8413203   47.0649174
  20.8405883   47.0595975
  20.8384091   47.0611567
  20.8349579   47.0577825
  20.8326641   47.0559152
  20.8292681   47.0544432
  20.8258559   47.0522088
  20.8202305   47.0507773
  20.8117937   47.048236
  20.8123216   47.0474715
  20.8089518   47.046761
  20.8028085   47.046093
  20.8114543   47.0379629
  20.8064049   47.0368939
  20.7606991   47.0360633
  20.7595723   47.035702
  20.7599018   47.0459815
  20.7562357   47.0532707
  20.7461369   47.05114
  20.7314589   47.0452634
  20.7275013   47.0434124
  20.7260695   47.0365631
  20.7259895   47.0360417
  20.7260567   47.0354104
  20.7257867   47.0340298
  20.7252183   47.0333349
  20.724424    47.0323403
  20.7230283   47.0304771
  20.7215489   47.0307295
  20.7205478   47.0312515
  20.7204397   47.0313286
  20.7197505   47.0317076
  20.7192655   47.0321641
  20.7174518   47.0340262
  20.7162375   47.0344436
  20.7155238   47.0344504
  20.7141763   47.034014
  20.71371     47.033863
  20.7130208   47.033797
  20.7116402   47.0338018
  20.7099477   47.0341473
  20.7089235   47.034661
  20.7081004   47.035134
  20.7076863   47.0341068
  20.7072845   47.0328352
  20.7065364   47.0303895
  20.7050863   47.0254599
  20.7021292   47.0156016
  20.7020348   47.012553
  20.7108759   47.0119804
  20.7119705   47.0097431
  20.7135897   47.0081945
  20.7157585   47.0062597
  20.7164134   47.0055307
  20.7165116   47.0051772
  20.7165845   47.0047041
  20.7162398   47.0039714
  20.7156397   47.0024552
  20.7156039   47.0013089
  20.7161328   47.0005449
  20.7172347   47.0001444
  20.7183487   47.0001281
  20.7137951   46.9967666
  20.7132219   46.9963968
  20.7132209   46.9945017
  20.7130082   46.9920633
  20.7127909   46.9909463
  20.7128174   46.9898275
  20.7126955   46.9893304
  20.7125948   46.9883905
  20.7125047   46.9870999
  20.7123493   46.9861252
  20.7117642   46.9853712
  20.7111765   46.9842392
  20.7099681   46.9812068
  20.7099089   46.9793045
  20.7096396   46.9781533
  20.7203544   46.9753395
  20.7142351   46.975429
  20.7136593   46.9746811
  20.7136118   46.9731568
  20.714152    46.9727646
  20.7146897   46.9720004
  20.7163194   46.9708298
  20.7185104   46.9696571
  20.7201638   46.9692485
  20.7212771   46.9692322
  20.7223668   46.9684599
  20.7234441   46.9672973
  20.725587    46.9646001
  20.7266165   46.9619193
  20.7265448   46.9596329
  20.7248349   46.9585174
  20.7237099   46.9581558
  20.7226178   46.95855
  20.7193024   46.9593611
  20.7171118   46.9605338
  20.7138082   46.961729
  20.7127278   46.9625072
  20.7116146   46.9625235
  20.7099284   46.9621637
  20.7071384   46.9618262
  20.7054495   46.9610882
  20.7043128   46.9603422
  20.7042656   46.9588179
  20.705355    46.9580396
  20.7058834   46.9572695
  20.7080859   46.9564749
  20.7097274   46.9556947
  20.7108404   46.9556785
  20.7125025   46.9552699
  20.7169455   46.955205
  20.7186224   46.9555648
  20.7208603   46.9559101
  20.7258643   46.9558366
  20.7269415   46.9546802
  20.7274696   46.9539099
  20.7274098   46.9520076
  20.7256732   46.9497457
  20.7256136   46.9478434
  20.7261624   46.947451
  20.7261506   46.947073
  20.7267025   46.9470649
  20.7277914   46.9462864
  20.7277674   46.9455242
  20.7271707   46.9443924
  20.7270511   46.9405816
  20.725339    46.939088
  20.7236386   46.9379662
  20.7213776   46.9368588
  20.7213658   46.9364808
  20.720802    46.9361047
  20.7202055   46.9349728
  20.7201461   46.9330705
  20.7206592   46.931538
  20.7093067   46.9240853
  20.7042231   46.9214936
  20.7036505   46.9211176
  20.7036388   46.9207396
  20.6990459   46.9158531
  20.6936189   46.9111598
  20.6931656   46.9107678
  20.68455     46.9117388
  20.6806155   46.9130748
  20.6728627   46.9139481
  20.6666811   46.9117486
  20.6627359   46.9099015
  20.6413386   46.9002966
  20.6068335   46.9175359
  20.6062597   46.9167813
  20.6056991   46.916789
  20.6045869   46.9168042
  20.6034856   46.9171973
  20.6012923   46.9179897
  20.6007316   46.9179974
  20.5990544   46.9183984
  20.5987218   46.9182372
  20.5973818   46.9172805
  20.5963722   46.9167495
  20.5916515   46.9139793
  20.5891838   46.912902
  20.5887053   46.9127527
  20.5874288   46.912302
  20.5861152   46.912102
  20.5827787   46.912147
  20.5810773   46.9121407
  20.5794465   46.9122727
  20.5609924   46.9131997
  20.5601001   46.9133028
  20.5596157   46.913451
  20.5591321   46.9136469
  20.5587184   46.9138704
  20.5570206   46.9154509
  20.5549793   46.916678
  20.5541858   46.9168796
  20.5533871   46.9169359
  20.5517438   46.9166292
  20.5466018   46.9148655
  20.5459771   46.9142448
  20.5457598   46.9135235
  20.5460077   46.9123832
  20.5466405   46.9105565
  20.5465784   46.9092007
  20.5464772   46.9078092
  20.5457832   46.9061915
  20.5448544   46.9048527
  20.5404093   46.9020417
  20.5391067   46.9009665
  20.5376938   46.9001677
  20.5369414   46.8998619
  20.5361235   46.8995761
  20.50042     46.8910977
  20.4974709   46.8905785
  20.4965123   46.8904703
  20.4951968   46.8906692
  20.4938207   46.8908225
  20.4913172   46.8909961
  20.4913111   46.8909965
  20.4895177   46.8908548
  20.4862735   46.8913279
  20.4778138   46.8937071
  20.4761518   46.8941122
  20.4750704   46.8952664
  20.4740082   46.8968046
  20.4734681   46.8975738
  20.4602842   46.9030689
  20.4597036   46.9023137
  20.459142    46.9019363
  20.458       46.9008099
  20.4568781   46.9004456
  20.4546474   46.8998647
  20.4540828   46.8997177
  20.4535122   46.8993404
  20.4531917   46.8991285
  20.4518189   46.8982207
  20.4514133   46.8977526
  20.4512475   46.8974653
  20.451779    46.8966963
  20.4523104   46.8959273
  20.4528609   46.8955424
  20.4523005   46.8955493
  20.4466509   46.8918128
  20.4438164   46.8895602
  20.4415136   46.8865386
  20.4386105   46.8816275
  20.4374594   46.8801167
  20.4368786   46.8789832
  20.4351476   46.8767169
  20.4328746   46.8744573
  20.4311735   46.8733374
  20.4272196   46.8707199
  20.4215938   46.8677381
  20.4176602   46.8658825
  20.4170709   46.864749
  20.4137074   46.8632645
  20.4108862   46.8617734
  20.4075039   46.8595327
  20.408528    46.8560926
  20.4095809   46.8537927
  20.4100835   46.8518836
  20.4106054   46.8507368
  20.4127011   46.8457589
  20.4142269   46.8404097
  20.4152598   46.8373475
  20.4168623   46.8346628
  20.4168137   46.8327603
  20.4172477   46.8281866
  20.4182413   46.8236
  20.4181537   46.8201731
  20.4213675   46.8155659
  20.4218889   46.814419
  20.4218498   46.8128946
  20.4239234   46.8071543
  20.4243859   46.8037207
  20.4248282   46.7991469
  20.4169516   46.7946735
  20.4169224   46.7935271
  20.4146933   46.7931758
  20.4124738   46.7932024
  20.4108041   46.7928443
  20.4085749   46.7924867
  20.4068956   46.7917443
  20.4046185   46.7894904
  20.4040302   46.7883506
  20.4007103   46.7883902
  20.3890251   46.7866256
  20.3801667   46.7871079
  20.3695925   46.7857126
  20.3623564   46.7842716
  20.3523886   46.7847645
  20.3461615   46.779505
  20.3455287   46.7764686
  20.3453076   46.7673281
  20.3413565   46.7643296
  20.3369014   46.7632335
  20.3361571   46.763268
  20.3352332   46.7632524
  20.3324376   46.7621434
  20.3269374   46.7637304
  20.3203097   46.7645672
  20.3158731   46.7646168
  20.3109041   46.7654283
  20.290451    46.767563
  20.2845302   46.7752395
  20.2780052   46.7806473
  20.275262    46.7818175
  20.2649593   46.7922117
  20.2429272   46.7985385
  20.2357259   46.7989921
  20.2307275   46.7986661
  20.226814    46.7971819
  20.223426    46.7945516
  20.2233926   46.7930271
  20.2183782   46.7919383
  20.2177946   46.7904195
  20.2177697   46.7892792
  20.2183034   46.7885113
  20.2199558   46.7877319
  20.2221494   46.7869468
  20.2232423   46.7861731
  20.2232256   46.7854109
  20.2232174   46.7850329
  20.2232007   46.7842706
  20.2226254   46.783136
  20.2209406   46.7820129
  20.2198144   46.7812621
  20.2159024   46.7797775
  20.2153432   46.7797833
  20.2142337   46.7797947
  20.2131242   46.779806
  20.2120319   46.7801953
  20.2087447   46.7821381
  20.2085584   46.7825438
  20.2032379   46.7840971
  20.2021374   46.7841083
  20.2010359   46.7844976
  20.1999182   46.7841308
  20.1993425   46.7833743
  20.1987678   46.7822395
  20.1982012   46.7814829
  20.1936898   46.7781007
  20.1925478   46.7765873
  20.1925316   46.7758251
  20.1936329   46.7754359
  20.1891232   46.7716692
  20.1868076   46.7671241
  20.1851069   46.7656163
  20.1816757   46.7603199
  20.1754601   46.7546668
  20.1342681   46.7725911
  20.1315452   46.7748981
  20.1282631   46.7772166
  20.1260748   46.7787622
  20.1211565   46.7818522
  20.1189678   46.7833976
  20.1173141   46.7841756
  20.1156694   46.7849534
  20.1106881   46.7853782
  20.1090282   46.7853937
  20.1073607   46.7850312
  20.1056842   46.7846625
  20.1045596   46.7839106
  20.1039868   46.7827754
  20.1028548   46.7816454
  20.1022672   46.7797479
  20.1022372   46.7782234
  20.1022072   46.7766989
  20.1032328   46.7728836
  20.1043196   46.7717268
  20.1065158   46.7705658
  20.1065083   46.7701878
  20.1070525   46.7694203
  20.1070374   46.768658
  20.1070298   46.7682738
  20.1064632   46.767901
  20.1041996   46.7656349
  20.1019678   46.7645151
  20.0997419   46.7641514
  20.0908403   46.7623306
  20.0897608   46.7638653
  20.089246    46.7661572
  20.089283    46.7680597
  20.0904219   46.7695741
  20.091583    46.7722287
  20.0916052   46.773369
  20.0910772   46.7745144
  20.0883452   46.7764485
  20.0867134   46.7783664
  20.0861927   46.7798959
  20.0835483   46.7863912
  20.0829962   46.7867743
  20.0819087   46.7879309
  20.0802633   46.7887082
  20.0775008   46.7891114
  20.0758481   46.7895106
  20.0719522   46.7891615
  20.0708516   46.7891714
  20.0691898   46.7895707
  20.0680872   46.7899587
  20.0669847   46.7903466
  20.0664416   46.7907358
  20.0659057   46.791503
  20.0648176   46.7926532
  20.0642726   46.7934205
  20.0637511   46.79495
  20.0627062   46.798387
  20.0616466   46.8010617
  20.0613373   46.8029762
  20.0611681   46.8048718
  20.0611969   46.8063963
  20.0617546   46.8067694
  20.0612976   46.811726
  20.0613121   46.8124882
  20.0602162   46.8132604
  20.0585679   46.8144155
  20.057481    46.8151876
  20.0530614   46.8163672
  20.0503116   46.8175382
  20.0486649   46.8183151
  20.0470091   46.819092
  20.04592     46.8202421
  20.044838    46.8217764
  20.043779    46.8240666
  20.0437862   46.8244508
  20.0399041   46.8244848
  20.0376761   46.8241199
  20.0354412   46.8233769
  20.0343167   46.8226243
  20.0326417   46.8218826
  20.0315102   46.8207457
  20.0314963   46.8199834
  20.0309156   46.818848
  20.0314544   46.8177028
  20.031984    46.8165516
  20.0325298   46.8157906
  20.033626    46.8150188
  20.0379947   46.8115531
  20.0385402   46.810786
  20.0401586   46.8084847
  20.0406881   46.8073396
  20.0406387   46.8046748
  20.0400459   46.8023928
  20.0394743   46.8012573
  20.0377626   46.798985
  20.0366317   46.7978543
  20.0355077   46.7971017
  20.033283    46.7963586
  20.0299533   46.7963874
  20.0277544   46.7975469
  20.0244685   46.7994843
  20.0222901   46.8017839
  20.0206504   46.8029446
  20.0195473   46.8033322
  20.0178846   46.8037245
  20.014591    46.8052773
  20.011841    46.8064473
  20.0041654   46.8118427
  20.0014622   46.8156711
  20.0009454   46.8175783
  20.0015503   46.8206228
  20.0021303   46.8217584
  20.0032543   46.8225113
  20.0049221   46.8228754
  20.013824    46.8243249
  20.0155058   46.8254573
  20.0182982   46.826574
  20.0188648   46.8269473
  20.0222011   46.8276811
  20.0244431   46.8288086
  20.0327677   46.8287368
  20.0360972   46.829086
  20.0383253   46.8294448
  20.0416782   46.8305622
  20.0428171   46.832077
  20.0434244   46.8351151
  20.0434456   46.8362554
  20.0434598   46.8370177
  20.052932    46.8388373
  20.0534901   46.8392166
  20.0568295   46.8395652
  20.0590564   46.8403078
  20.0612923   46.8410503
  20.0674189   46.842136
  20.0707586   46.8424904
  20.0757236   46.8409208
  20.0784887   46.8405177
  20.0934707   46.840381
  20.1001113   46.8395574
  20.1034285   46.8387643
  20.1079077   46.8410099
  20.1146012   46.8428502
  20.114659    46.8430562
  20.1148709   46.8438638
  20.1152066   46.8451255
  20.1125172   46.8493408
  20.1113987   46.8489732
  20.1070829   46.8554845
  20.0988381   46.8593729
  20.098278    46.8593781
  20.0944231   46.8609322
  20.0890316   46.8689837
  20.0895828   46.8689787
  20.0858082   46.8747218
  20.0869197   46.8747116
  20.0880386   46.8750857
  20.093073    46.8769425
  20.0953332   46.8788246
  20.0998378   46.8822108
  20.1048959   46.8852135
  20.1138789   46.8900761
  20.1150059   46.8908279
  20.1178038   46.8919484
  20.1206246   46.8942028
  20.1223275   46.8957116
  20.1228943   46.8964686
  20.1234777   46.8976036
  20.1235007   46.8987501
  20.1235236   46.8998904
  20.1230549   46.904463
  20.1230778   46.9056033
  20.1230855   46.9059875
  20.1242052   46.906355
  20.1269964   46.907091
  20.1292361   46.9078322
  20.1364685   46.9081476
  20.140372    46.9088664
  20.1425952   46.9092294
  20.1459551   46.9103376
  20.1481875   46.9107003
  20.150987    46.9118138
  20.1537867   46.9129271
  20.1554753   46.9136731
  20.1571709   46.9151814
  20.1588823   46.917452
  20.1594587   46.9182025
  20.1594825   46.919349
  20.1600579   46.9204839
  20.1600896   46.9220084
  20.1595853   46.9242943
  20.1590641   46.9262085
  20.1585519   46.9281164
  20.1580069   46.9288841
  20.1563898   46.9311808
  20.1547648   46.9331057
  20.1515053   46.9369431
  20.1504082   46.9377161
  20.148775    46.9392567
  20.146565    46.9400404
  20.1443548   46.9408179
  20.1404878   46.9420017
  20.1338428   46.9432057
  20.1299599   46.9436269
  20.1282951   46.9436427
  20.1260693   46.9436638
  20.1215946   46.9425593
  20.1204742   46.9421917
  20.1165531   46.9407038
  20.1149579   46.939184
  20.1126943   46.9373023
  20.1110145   46.9365555
  20.1104627   46.9365607
  20.1099018   46.9365659
  20.108789    46.9365763
  20.1082523   46.9373437
  20.1071546   46.9381163
  20.1066087   46.9388837
  20.1059795   46.94004
  20.1049043   46.9419529
  20.1043976   46.9442447
  20.1038741   46.9461525
  20.1033898   46.9495846
  20.1034123   46.9507249
  20.103987    46.9518663
  20.1045706   46.9530013
  20.1051377   46.9537585
  20.1057139   46.9545155
  20.106833    46.9552675
  20.1090745   46.9560091
  20.1124367   46.9571182
  20.1185776   46.9582012
  20.122477    46.9585488
  20.127482    46.9585016
  20.1285952   46.958491
  20.1302681   46.9588532
  20.1308357   46.9596103
  20.132541    46.9611188
  20.1331086   46.9618758
  20.1337006   46.9633888
  20.1337239   46.9645352
  20.133747    46.9656755
  20.1326646   46.9672106
  20.1321188   46.9679782
  20.1299151   46.9691396
  20.1282725   46.9702957
  20.1277357   46.9710631
  20.1271976   46.9722149
  20.1266914   46.9745007
  20.1278511   46.9767769
  20.1306846   46.9794153
  20.1346321   46.982043
  20.1391438   46.983859
  20.1292806   46.9923768
  20.1281437   46.9929437
  20.1160519   46.9989724
  20.0945144   47.007552
  20.1126537   47.0329531
  20.1080063   47.0396139
  20.1027412   47.042041
  20.0918724   47.0440919
  20.081603    47.0707955
  20.0796649   47.0755412
  20.0765001   47.0805092
  20.0753187   47.0839532
  20.0647999   47.0891441
  20.0661576   47.0937087
  20.0532655   47.1056336
  20.0586075   47.108493
  20.0559484   47.1148032
  20.0477077   47.1250606
  20.0554292   47.1418591
  20.0558343   47.1456452
  20.0635709   47.1490774
  20.0710254   47.1562019
  20.0758001   47.1590496
  20.0846453   47.1648483
  20.0872152   47.1676465
  20.0942026   47.1761258
  20.0987174   47.1810291
  20.0989508   47.1814601
  20.0988341   47.1815143
  20.0986712   47.1814866
  20.0985409   47.181494
  20.0985436   47.1818556
  20.0955525   47.1884559
  20.0895703   47.1971541
  20.0849901   47.2077102
  20.0849625   47.2079764
  20.0846821   47.208047
  20.080167    47.2101504
  20.0797818   47.2151007
  20.079792    47.2161296
  20.0795586   47.2204027
  20.0763004   47.2214164
  20.0657636   47.2247097
  20.058857    47.229064
  20.0544166   47.2313037
  20.0505324   47.234929
  20.0446657   47.2382317
  20.0426607   47.2391291
  20.0337575   47.2427939
  20.0316408   47.2432375
  20.0311644   47.2433648
  20.0233537   47.2450704
  20.0106856   47.2479745
  20.0079616   47.2485257
  20.0036088   47.2499565
  19.9975116   47.2516091
  19.9914024   47.2524683
  19.98827     47.2530607
  19.9899138   47.2564308
  19.9905688   47.2584577
  19.9937898   47.264146
  20.0005764   47.2776079
  20.0034322   47.283379
  20.0057211   47.2859208
  20.0092149   47.2903884
  20.0117934   47.2932059
  20.0132977   47.295039
  20.0165686   47.2995059
  20.0175947   47.3038896
  20.0121685   47.3070069
  20.0038067   47.3172791
  20.0030154   47.3182836
  19.9998988   47.3222889
  19.9938292   47.3273546
  19.9920271   47.3287868
  19.9892372   47.3339861
  19.9896421   47.3356986
  19.9902572   47.3375465
  19.9917718   47.341223
  19.9922869   47.3423847
  19.9904682   47.3466309
  19.9872861   47.3486912
  19.9814618   47.3521017
  19.9802223   47.3537961
  19.978595    47.35468
  19.9765772   47.3564282
  19.9751421   47.3579872
  19.9727074   47.3602041
  19.9707992   47.3621055
  19.9687507   47.3643699
  19.9668798   47.3658566
  19.9667427   47.3658728
  19.9650856   47.3672238
  19.9610125   47.3692779
  19.9541922   47.372065
  19.9502128   47.3740794
  19.9452178   47.3756653
  19.9407708   47.3769004
  19.9378645   47.3776926
  19.9370574   47.3779183
  19.9338628   47.3788117
  19.9322208   47.3792048
  19.9318005   47.3793857
  19.9306251   47.3800731
  19.9286661   47.3807701
  19.9260471   47.3810753
  19.9221516   47.3827091
  19.9151847   47.386382
  19.9121144   47.3875034
  19.9092186   47.3885403
  19.9013045   47.3927507
  19.8968441   47.3943176
  19.8927881   47.3964245
  19.8776474   47.404291
  19.8666895   47.4083604
  19.8584069   47.412117
  19.8550383   47.4136792
  19.854515    47.4137492
  19.8538064   47.414273
  19.8529985   47.4147653
  19.851084    47.415968
  19.8427713   47.422061
  19.8394699   47.424255
  19.8379496   47.4254128
  19.8350948   47.4263053
  19.8246123   47.4288263
  19.8265601   47.4323636
  19.8259935   47.4332735
  19.8242509   47.4359346
  19.8239087   47.4363313
  19.823563    47.4369538
  19.8229387   47.4380545
  19.8203919   47.4421435
  19.8199562   47.4429343
  19.8191469   47.4443918
  19.8184048   47.4453302
  19.8176304   47.4464886
  19.8151688   47.4493018
  19.8144846   47.4500801
  19.8141901   47.4504167
  19.8131579   47.451359
  19.8126991   47.451785
  19.8106304   47.4537037
  19.809557    47.4546529
  19.8070834   47.4561373
  19.8050992   47.4579902
  19.8037689   47.4596934
  19.7980468   47.4628329
  19.7896464   47.4670159
  19.7774126   47.4723008
  19.7704875   47.4757765
  19.7667072   47.4777351
  19.7587644   47.4811281
  19.7583136   47.4814728
  19.7578492   47.4817724
  19.7575192   47.4820141
  19.7568881   47.4824132
  19.7565629   47.4825641
  19.755419    47.4831655
  19.7545792   47.4835482
  19.7541666   47.4837724
  19.7537638   47.4840436
  19.753424    47.4842382
  19.7523583   47.4850134
  19.7517216   47.4856884
  19.7511404   47.4862296
  19.7499872   47.4870785
  19.7469639   47.4889348
  19.747799    47.4893726
  19.7505777   47.491541
  19.752739    47.49361
  19.754718    47.4953712
  19.7587026   47.4979515
  19.7611207   47.4991875
  19.7616977   47.4995876
  19.7621127   47.5001929
  19.7634793   47.5010888
  19.7638286   47.5014136
  19.7648004   47.5028702
  19.7656558   47.5043302
  19.7661088   47.5052261
  19.7667016   47.5062652
  19.7672224   47.5078294
  19.7672754   47.5082998
  19.7690494   47.5114761
  19.7689635   47.5130498
  19.7695326   47.5139757
  19.7695648   47.5149933
  19.7699299   47.5164388
  19.7713793   47.5171688
  19.7724996   47.5176353
  19.7755838   47.5194357
  19.7781854   47.5219292
  19.7792817   47.5230941
  19.7806203   47.5242469
  19.7841958   47.5267108
  19.7866097   47.5274503
  19.7899334   47.5313719
  19.7903328   47.5318205
  19.7910815   47.5324751
  19.7772497   47.5388348
  19.7737451   47.5359051
  19.7678599   47.5303541
  19.7651783   47.5317961
  19.7571614   47.5357966
  19.7547889   47.5338167
  19.7539418   47.5339536
  19.7521614   47.5344279
  19.7515612   47.5339075
  19.7484786   47.5329684
  19.7460906   47.5320441
  19.7444194   47.5336181
  19.7402425   47.5360616
  19.7395251   47.5375747
  19.737812    47.5387559
  19.7375689   47.5385173
  19.7370695   47.5382558
  19.7368256   47.5383129
  19.7364029   47.5385107
  19.7362475   47.5388811
  19.7349255   47.5365572
  19.7336696   47.5350498
  19.7302871   47.5328285
  19.7289634   47.5318672
  19.7269278   47.530782
  19.7237131   47.5295728
  19.7201814   47.5279354
  19.7189829   47.5275542
  19.7178424   47.5273945
  19.7158711   47.5253009
  19.7139391   47.5230393
  19.7116346   47.5199187
  19.7107488   47.5183957
  19.7027093   47.5172407
  19.7004262   47.5189592
  19.6981846   47.5208907
  19.6972251   47.5224258
  19.6932845   47.5247602
  19.6912945   47.5268687
  19.6846561   47.5319432
  19.6823318   47.5334913
  19.6803222   47.5343383
  19.6763816   47.5361623
  19.6743366   47.5377447
  19.6714342   47.5397837
  19.6654172   47.5419182
  19.6605406   47.5434739
  19.6558528   47.5459693
  19.6526744   47.5478376
END
END
