polygon
1
  22.6589293   59.6110023
  22.7421872   59.7429717
  22.7655418   59.7768877
  22.8077136   59.8472992
  22.8106447   59.8512115
  22.8142882   59.8775741
  22.8208779   59.9230803
  22.8229078   59.9328681
  22.8093251   59.9448679
  22.7922212   59.959825
  22.7908073   59.9773883
  22.7885176   60.0002144
  22.7883255   60.0020174
  22.7945225   60.0133074
  22.7989449   60.0213846
  22.8013167   60.0253755
  22.8181633   60.0272164
  22.8477993   60.0301879
  22.8478882   60.0277876
  22.8509617   59.9952099
  22.9174972   59.9980887
  22.9254493   59.9982381
  22.9535253   59.9994619
  22.9590587   60.006848
  22.979809    60.0340263
  22.9835232   60.0425999
  22.9733975   60.0642776
  22.9598891   60.0709139
  22.9635719   60.0744006
  22.9873523   60.0955396
  23.0198171   60.105296
  23.0280389   60.1018138
  23.0288528   60.1014791
  23.0314236   60.1002808
  23.0564517   60.0886127
  23.0635951   60.0929649
  23.0699718   60.0967934
  23.0729205   60.0911895
  23.0868184   60.0928734
  23.1058463   60.0952008
  23.1064471   60.0952015
  23.1334747   60.0986079
  23.1391956   60.0993243
  23.1438368   60.0999181
  23.148649    60.1004409
  23.1498872   60.1010282
  23.1522592   60.1021206
  23.1564961   60.1040717
  23.1668102   60.10887
  23.1722779   60.111371
  23.1952078   60.1218283
  23.1972647   60.122805
  23.1974893   60.1229137
  23.1974857   60.1230498
  23.1974675   60.1232857
  23.1961868   60.1318233
  23.1961844   60.1318695
  23.1958042   60.1340988
  23.1957825   60.1341649
  23.196795    60.1339484
  23.1973904   60.1338976
  23.1979637   60.1338377
  23.1984526   60.1338602
  23.1990277   60.1340135
  23.199971    60.1342189
  23.200248    60.1342284
  23.2017733   60.1338842
  23.2022253   60.1336468
  23.2029968   60.1334417
  23.2036187   60.1331483
  23.2040442   60.1329972
  23.204175    60.1329141
  23.2043775   60.1324144
  23.2045085   60.1322881
  23.2052708   60.1319689
  23.2059148   60.1316047
  23.2070056   60.1313142
  23.2077857   60.1311857
  23.2084275   60.1311577
  23.2088435   60.1312235
  23.2092434   60.1314009
  23.2097111   60.1316933
  23.2104241   60.1318568
  23.2107961   60.1318941
  23.2113057   60.1318807
  23.2118475   60.1319555
  23.2123728   60.1319691
  23.2128239   60.1320624
  23.213258    60.1320598
  23.2134193   60.1321051
  23.2135749   60.1322227
  23.2143259   60.1323883
  23.215351    60.1328043
  23.215608    60.1329413
  23.2157576   60.1331603
  23.2157797   60.1333447
  23.2157341   60.1336292
  23.215671    60.1338055
  23.215435    60.1340893
  23.2151936   60.1344306
  23.2151305   60.1345071
  23.2148007   60.1349201
  23.2147162   60.1350483
  23.2146643   60.1351617
  23.2146035   60.1353588
  23.2146085   60.1356134
  23.2150712   60.1362742
  23.2241213   60.1379009
  23.22717     60.1393153
  23.2275591   60.1393559
  23.227565    60.1393565
  23.2329877   60.1399215
  23.2412482   60.1437471
  23.2484252   60.1463761
  23.2532327   60.1481602
  23.2552635   60.1488035
  23.2645784   60.1517884
  23.2683      60.1533032
  23.2689504   60.1535675
  23.2691047   60.1536203
  23.2701641   60.1539046
  23.2715014   60.1542878
  23.2736869   60.1535996
  23.2743705   60.1534033
  23.2755889   60.1533481
  23.276138    60.1534248
  23.2776555   60.1536613
  23.2780372   60.1547087
  23.2782801   60.1549024
  23.2784504   60.1551302
  23.2784504   60.155374
  23.2784646   60.1557873
  23.2785497   60.1561511
  23.2786491   60.1565467
  23.2785923   60.1569035
  23.2781593   60.1569776
  23.2775205   60.1571472
  23.2765552   60.1575887
  23.2758098   60.1579985
  23.2754123   60.1582598
  23.2753272   60.1584718
  23.2760086   60.1585989
  23.2767539   60.1586696
  23.277194    60.1587579
  23.2774424   60.1589627
  23.2778192   60.1594071
  23.2780847   60.1597301
  23.278141    60.1598635
  23.278133    60.1599903
  23.2780807   60.1600564
  23.2780083   60.1601118
  23.2776006   60.1602586
  23.2772721   60.1604002
  23.2770547   60.1604841
  23.2767624   60.1606957
  23.2763828   60.1609846
  23.2762514   60.1610647
  23.2757458   60.1615398
  23.2757056   60.1616432
  23.2756573   60.161838
  23.2756318   60.1620542
  23.2755634   60.1621837
  23.275495    60.1623198
  23.2754856   60.1624199
  23.2755084   60.1626067
  23.2755353   60.1626674
  23.2756184   60.1627642
  23.2756372   60.1628663
  23.275672    60.1629737
  23.2757257   60.1630558
  23.2757565   60.1631479
  23.2757673   60.1632499
  23.2757351   60.1633427
  23.2757324   60.1634388
  23.2756801   60.1635095
  23.2755621   60.1636169
  23.2753864   60.163719
  23.275204    60.1637904
  23.2750551   60.1638651
  23.2748111   60.1640139
  23.27474     60.1641007
  23.2747091   60.1641767
  23.2747293   60.1642855
  23.2747601   60.1643589
  23.2748473   60.164453
  23.2749881   60.1645677
  23.2752724   60.1648333
  23.2753167   60.164902
  23.2753663   60.1650154
  23.2754186   60.1651062
  23.2754548   60.1651916
  23.2754736   60.165267
  23.2755044   60.1654925
  23.2754856   60.1655805
  23.2755259   60.1656673
  23.2757512   60.1656973
  23.2761012   60.1656679
  23.2763386   60.1656072
  23.2765733   60.1655885
  23.2767007   60.1655919
  23.2768308   60.1656046
  23.2770748   60.1657046
  23.2772802   60.1658348
  23.2774866   60.1659628
  23.2776394   60.1660969
  23.2777548   60.1662037
  23.2778138   60.1663158
  23.2778011   60.1664128
  23.2776998   60.1664696
  23.2776408   60.1664976
  23.2775563   60.1665396
  23.2774202   60.166588
  23.2773793   60.1666117
  23.2773183   60.166661
  23.2772224   60.1667177
  23.276981    60.1669299
  23.2769454   60.1669699
  23.2768288   60.1671721
  23.276812    60.1672231
  23.2767959   60.1673192
  23.2768178   60.1674843
  23.2769917   60.1678663
  23.2772157   60.1680854
  23.2772961   60.1681465
  23.2773846   60.1681798
  23.2775469   60.1682279
  23.2776301   60.1682739
  23.2776743   60.1683266
  23.2778348   60.1685523
  23.2779318   60.1687109
  23.2779638   60.1688319
  23.2778272   60.1691378
  23.2777832   60.1694237
  23.2779481   60.1698193
  23.2780252   60.1702118
  23.2778081   60.1706535
  23.2778163   60.1709956
  23.2777084   60.1712793
  23.2776259   60.1723819
  23.2775746   60.172485
  23.2775264   60.172649
  23.2778896   60.1729325
  23.2786488   60.1731968
  23.279253    60.1735004
  23.2795549   60.1735605
  23.279801    60.1736398
  23.2799808   60.1738225
  23.2801026   60.174816
  23.2802979   60.1749983
  23.2805697   60.1753255
  23.2807098   60.1758002
  23.2809205   60.1761486
  23.2811455   60.1763532
  23.2814813   60.1764593
  23.2817904   60.1765952
  23.2819468   60.1767134
  23.2820208   60.1769429
  23.2820399   60.1771913
  23.2821262   60.1773312
  23.2825816   60.1775445
  23.2831636   60.1776948
  23.2839515   60.1778007
  23.2842922   60.1778784
  23.2845264   60.1779913
  23.2847678   60.1781638
  23.2849178   60.1783866
  23.2850862   60.178543
  23.2853569   60.1787019
  23.2858001   60.1788374
  23.2860921   60.1789675
  23.2861955   60.1791611
  23.2863598   60.1792132
  23.2869561   60.1792277
  23.2877167   60.1792882
  23.2878313   60.1792754
  23.2879087   60.179247
  23.2879418   60.1792186
  23.2881619   60.1788481
  23.2882166   60.1788069
  23.2883178   60.1787657
  23.2883873   60.1787438
  23.2885138   60.1787387
  23.2887875   60.1787436
  23.2890016   60.178789
  23.2891634   60.1788405
  23.2894433   60.1789646
  23.2897597   60.1792351
  23.2905228   60.1798439
  23.2908418   60.1800254
  23.2908866   60.1801566
  23.290838    60.1803623
  23.2909733   60.1807952
  23.2910636   60.1809084
  23.2915833   60.1811051
  23.2921578   60.1814773
  23.2925409   60.1822265
  23.2927299   60.1824099
  23.2939725   60.183026
  23.2945191   60.1833334
  23.2949072   60.1836559
  23.2957153   60.184652
  23.2964776   60.1856416
  23.2967825   60.1859139
  23.2977186   60.1864558
  23.2984922   60.1867669
  23.2990074   60.1870283
  23.2992953   60.1872056
  23.2999166   60.1874276
  23.3006031   60.1876007
  23.3013215   60.1876351
  23.3018166   60.1877139
  23.3024592   60.1877954
  23.3028559   60.1878772
  23.3035544   60.1880556
  23.3043723   60.1882311
  23.3050491   60.18844
  23.3059083   60.1886578
  23.3066069   60.1887243
  23.3077084   60.1887202
  23.3096338   60.1885931
  23.3110748   60.1885668
  23.3115763   60.1884987
  23.313752    60.1880586
  23.314165    60.1880418
  23.3145855   60.187983
  23.3155708   60.1877212
  23.3164352   60.1873205
  23.317165    60.1871657
  23.317792    60.1871693
  23.3181533   60.1872474
  23.318505    60.1873738
  23.3191063   60.1877168
  23.3194276   60.1877986
  23.3206395   60.1880072
  23.3214808   60.1880769
  23.3220273   60.1881859
  23.3223432   60.1882461
  23.3228185   60.1882657
  23.3234064   60.1882246
  23.3244301   60.1883883
  23.325691    60.1885123
  23.3258602   60.1885289
  23.3263367   60.1875635
  23.3264569   60.1872456
  23.3265522   60.1870091
  23.3265924   60.1869479
  23.3266421   60.1868918
  23.3267172   60.1868238
  23.3268057   60.1867598
  23.3272352   60.186481
  23.3273106   60.1864194
  23.3273649   60.1863622
  23.327386    60.1863255
  23.3273938   60.1862979
  23.3273926   60.1862593
  23.327383    60.1862302
  23.3273629   60.186196
  23.3273297   60.1861603
  23.3272915   60.1861297
  23.3272449   60.186098
  23.3269975   60.1859673
  23.3268566   60.1858773
  23.3266193   60.1857006
  23.3259963   60.1853055
  23.3257408   60.1851321
  23.3253908   60.1848568
  23.3246586   60.184316
  23.3243883   60.1841256
  23.3242743   60.1840579
  23.3241469   60.1839832
  23.323871    60.183845
  23.3229567   60.1834651
  23.3223116   60.183182
  23.3219827   60.1830158
  23.3216404   60.1828189
  23.3210314   60.1824195
  23.3206701   60.1821701
  23.3201273   60.1818135
  23.3194085   60.1813622
  23.3193669   60.1813345
  23.3192861   60.1812895
  23.3191627   60.1812307
  23.3191081   60.1812015
  23.3190688   60.181173
  23.3190377   60.1811435
  23.3190179   60.1811151
  23.3190035   60.1810814
  23.3190021   60.1810493
  23.3190075   60.1810148
  23.3190849   60.1808305
  23.3191909   60.1804539
  23.319215    60.1803162
  23.3192191   60.1803012
  23.3192408   60.1802435
  23.3192375   60.1802147
  23.319215    60.1801866
  23.3191795   60.1801591
  23.3191369   60.1801315
  23.3190856   60.180104
  23.3190112   60.1800696
  23.3187544   60.1799686
  23.3183822   60.1797997
  23.3181318   60.1797048
  23.3180754   60.1796801
  23.3180375   60.1796566
  23.3180127   60.1796293
  23.3179933   60.1795926
  23.3177217   60.1789097
  23.3175836   60.1786432
  23.316224    60.1754628
  23.3160639   60.1750601
  23.3169583   60.1740711
  23.3155525   60.1726163
  23.3155451   60.1719623
  23.3160755   60.1716514
  23.3159551   60.1715847
  23.3455253   60.1580176
  23.3629433   60.1499023
  23.3791754   60.1670464
  23.4153886   60.1651986
  23.4254121   60.1681581
  23.4445871   60.1699917
  23.4702032   60.1726022
  23.4755052   60.1745739
  23.5005753   60.1838951
  23.5385939   60.1982927
  23.5432142   60.1988491
  23.5495279   60.2008787
  23.5536231   60.2021951
  23.5874086   60.1995472
  23.6070723   60.1916709
  23.6084771   60.1914766
  23.6204355   60.1941517
  23.6489433   60.2015641
  23.6430583   60.2085264
  23.643167    60.2085769
  23.643313    60.2085689
  23.6436374   60.2086454
  23.6437513   60.2087697
  23.6437972   60.2091245
  23.643511    60.2096036
  23.6435732   60.2098248
  23.6438387   60.2100889
  23.6474953   60.211073
  23.6372282   60.2192952
  23.6326994   60.2300416
  23.6325202   60.2329731
  23.6334268   60.2347576
  23.6414087   60.2353052
  23.6457552   60.2363438
  23.6330029   60.2433839
  23.6123553   60.2491661
  23.6127682   60.2500214
  23.6121057   60.250652
  23.6112197   60.2505165
  23.6104884   60.249681
  23.6070417   60.2506751
  23.6052548   60.2508342
  23.603335    60.250836
  23.6023988   60.2506131
  23.6010413   60.2506781
  23.6007737   60.250772
  23.5994602   60.2517936
  23.598487    60.2530638
  23.5988459   60.2551572
  23.5979869   60.2555699
  23.5956294   60.2560641
  23.5953326   60.2562333
  23.5946022   60.2563567
  23.5936827   60.2564353
  23.5927869   60.256488
  23.5920855   60.2566615
  23.5893363   60.2577608
  23.5886114   60.2580507
  23.5881273   60.2580503
  23.5876916   60.2581631
  23.587458    60.2580911
  23.5872243   60.2581381
  23.5871726   60.2582537
  23.5869937   60.2583484
  23.587057    60.258456
  23.5870314   60.2585417
  23.5869242   60.2585891
  23.5866408   60.2585615
  23.5864977   60.2586355
  23.5864986   60.2587327
  23.5863067   60.2588564
  23.5863479   60.2589911
  23.5870459   60.259507
  23.5874753   60.2597013
  23.5878416   60.2599895
  23.5879426   60.2601148
  23.5883278   60.260403
  23.5887636   60.2606724
  23.5891046   60.260995
  23.5895529   60.2612206
  23.589796    60.261468
  23.5907662   60.2621773
  23.5909138   60.2622104
  23.5911979   60.2621979
  23.5913353   60.2622211
  23.5916879   60.2624548
  23.5918294   60.262627
  23.5921735   60.2627036
  23.5923978   60.2628369
  23.5928145   60.2629559
  23.5931186   60.2631496
  23.5930919   60.2633092
  23.5928885   60.2634388
  23.5930108   60.2635776
  23.5931962   60.2636097
  23.5954519   60.2640013
  23.5957004   60.26445
  23.5958323   60.2645633
  23.5961299   60.2647131
  23.5961677   60.2648634
  23.5960369   60.2650179
  23.5956626   60.2651735
  23.5952705   60.265406
  23.5951511   60.2654084
  23.5945278   60.2658863
  23.5939702   60.2660411
  23.5934334   60.2661382
  23.593142    60.2661472
  23.5929503   60.2662807
  23.5931886   60.2663517
  23.5932438   60.2663911
  23.5934531   60.2664717
  23.593687    60.2665811
  23.5936701   60.2667242
  23.5933999   60.2668755
  23.5933103   60.2670709
  23.5933922   60.2672334
  23.5936484   60.2672541
  23.5934678   60.2670817
  23.5935309   60.2668751
  23.5937488   60.2667887
  23.5939246   60.2666766
  23.5939123   60.2665598
  23.5935246   60.2664337
  23.593466    60.26633
  23.5935493   60.2662697
  23.5944407   60.2660332
  23.5950376   60.2658092
  23.5989213   60.2663903
  23.6018925   60.2638126
  23.6024361   60.2638157
  23.6025824   60.2638419
  23.6026561   60.2638472
  23.6029243   60.2638426
  23.6033092   60.2638718
  23.6035406   60.2639197
  23.6036311   60.2639301
  23.6038095   60.2639294
  23.6039919   60.2639144
  23.604124    60.2638931
  23.6042252   60.2638609
  23.6042782   60.2638549
  23.6046691   60.2638472
  23.6051539   60.2637817
  23.6052307   60.2637649
  23.605565    60.2636916
  23.6059351   60.263628
  23.6060035   60.2636064
  23.6061309   60.2635815
  23.6063891   60.2635057
  23.6065688   60.2634607
  23.6066499   60.2634481
  23.6067049   60.2634458
  23.6068451   60.2634591
  23.6069436   60.2634764
  23.6070395   60.263504
  23.6071388   60.263509
  23.6074533   60.26351
  23.6076484   60.2634894
  23.6077825   60.2634607
  23.6079897   60.2633949
  23.6082733   60.2632685
  23.6086153   60.2630902
  23.6089868   60.2629904
  23.6092175   60.2629053
  23.6093938   60.2628278
  23.6096775   60.2626322
  23.6097854   60.2625314
  23.6098444   60.2624543
  23.6099672   60.2623415
  23.6099879   60.2623129
  23.6100399   60.2621418
  23.6101536   60.2620112
  23.6102468   60.2619557
  23.6107095   60.2617834
  23.6108087   60.2617345
  23.6110119   60.2616131
  23.6112653   60.2614341
  23.6114601   60.2613274
  23.611781    60.2612086
  23.6120278   60.2611374
  23.6124532   60.2610428
  23.6126688   60.2610293
  23.6128424   60.2609991
  23.6128908   60.2609761
  23.6129447   60.2609244
  23.6130765   60.26086
  23.6131322   60.2608216
  23.6131941   60.2607931
  23.6144877   60.2703017
  23.6144454   60.270305
  23.6143948   60.2703121
  23.6143224   60.2703248
  23.6142175   60.2703504
  23.6141749   60.2703672
  23.6141246   60.2703981
  23.6138859   60.2705531
  23.6137336   60.2706309
  23.6136699   60.2706708
  23.6136143   60.2707123
  23.6135378   60.2708058
  23.6134815   60.270865
  23.6134721   60.2708849
  23.6134728   60.2709089
  23.6134835   60.2709315
  23.6135104   60.270976
  23.6136066   60.2710956
  23.6136639   60.2711558
  23.6136924   60.2711772
  23.6137343   60.2711987
  23.6137833   60.2712173
  23.6138708   60.2712419
  23.6139241   60.2712524
  23.6139724   60.2712583
  23.6140441   60.2712622
  23.6141149   60.2712595
  23.6141983   60.2712489
  23.6142667   60.2712329
  23.6143874   60.2711915
  23.6144475   60.2711656
  23.6145547   60.2710949
  23.614589    60.2710508
  23.6160524   60.2710642
  23.6162134   60.2710748
  23.6164226   60.2710675
  23.616662    60.2710701
  23.6167894   60.2710864
  23.6169007   60.2710947
  23.6170086   60.2711207
  23.6171635   60.2711416
  23.6173747   60.2711849
  23.6175355   60.2712001
  23.6176778   60.2712048
  23.6178153   60.2712238
  23.6180279   60.2712304
  23.6183028   60.2712244
  23.6184396   60.2712191
  23.618571    60.2712105
  23.6189251   60.2711716
  23.6191289   60.2711549
  23.6192054   60.2711553
  23.6193616   60.2711426
  23.6195742   60.2710858
  23.6196405   60.2710605
  23.6197177   60.2710146
  23.6197619   60.270994
  23.6198726   60.2709451
  23.6199302   60.2709099
  23.6200281   60.2708194
  23.6200878   60.2707446
  23.6200932   60.270723
  23.6201569   60.2707163
  23.6201958   60.2707037
  23.6203064   60.2706588
  23.6205585   60.2705787
  23.6206242   60.2705547
  23.6206665   60.2705424
  23.620763    60.2705248
  23.6209179   60.2704849
  23.6211801   60.2703911
  23.6212881   60.2703705
  23.621392    60.2703233
  23.6214309   60.2702977
  23.6215483   60.2701743
  23.6215644   60.270152
  23.6215744   60.2701151
  23.6215664   60.2700868
  23.6216287   60.2700656
  23.6216582   60.2700423
  23.6217239   60.2699771
  23.6217836   60.2699299
  23.6218151   60.2698973
  23.6218742   60.2698208
  23.6219087   60.2697882
  23.6219417   60.2697663
  23.6214656   60.2696876
  23.6198122   60.2705366
  23.6204834   60.2613161
  23.6207744   60.2612668
  23.6208294   60.2612562
  23.6210849   60.2611817
  23.6212116   60.2611315
  23.6218178   60.2609472
  23.6218762   60.2609302
  23.6219345   60.2609079
  23.6221035   60.2608091
  23.6222      60.2607326
  23.622255    60.2606708
  23.6223033   60.2606002
  23.6223281   60.2605813
  23.6223891   60.260555
  23.6224455   60.2605314
  23.6225051   60.2605118
  23.6225722   60.2605011
  23.6226346   60.2604848
  23.622717    60.2604555
  23.622774    60.2604296
  23.622827    60.260406
  23.6228853   60.260386
  23.6229524   60.2603711
  23.6230966   60.2603574
  23.6231891   60.2603574
  23.6232354   60.2603624
  23.6232743   60.2603714
  23.6233071   60.2603827
  23.6233507   60.2603983
  23.6234265   60.260419
  23.6235137   60.2604319
  23.6235955   60.2604336
  23.6236444   60.2604289
  23.6237279   60.2604153
  23.6238429   60.2603933
  23.6239535   60.2603697
  23.6240239   60.2603568
  23.624152    60.2603232
  23.6242137   60.2603092
  23.6243016   60.2602946
  23.6244149   60.2602846
  23.6245698   60.260265
  23.624671    60.2602433
  23.6247683   60.2602294
  23.6249185   60.2602174
  23.6251941   60.2602027
  23.6252765   60.2601941
  23.6253671   60.2601931
  23.6254093   60.2601964
  23.6254475   60.2602027
  23.6254824   60.2602157
  23.6255488   60.2602495
  23.6256252   60.2603089
  23.6256514   60.2603498
  23.6256789   60.2603937
  23.6258056   60.260545
  23.6258281   60.2605861
  23.6258559   60.2606079
  23.6258934   60.2606199
  23.6259947   60.2606308
  23.6261174   60.2606275
  23.6263736   60.2606039
  23.6268195   60.2605487
  23.6270327   60.2605314
  23.6271708   60.2605251
  23.6261631   60.2692965
  23.6294792   60.2826671
  23.6429719   60.2828085
  23.6474025   60.2856219
  23.6474784   60.2857805
  23.6476194   60.2858934
  23.6476682   60.2860386
  23.6476899   60.2861622
  23.6477441   60.2862778
  23.6478201   60.2863477
  23.6479556   60.2864149
  23.6480695   60.286474
  23.6481834   60.2865654
  23.6481997   60.2865869
  23.6481726   60.2866407
  23.6484058   60.2869122
  23.6484383   60.2869874
  23.6485901   60.287095
  23.6486932   60.2871971
  23.6487311   60.2872616
  23.6488071   60.2873584
  23.6489643   60.2874605
  23.6489752   60.2875358
  23.6490511   60.2875976
  23.6522996   60.2905703
  23.6547833   60.2914546
  23.6562422   60.2924248
  23.6656241   60.2982482
  23.6739486   60.3030604
  23.6862606   60.2938554
  23.6866257   60.2936601
  23.6897856   60.2936892
  23.6947324   60.2974364
  23.7012821   60.2983256
  23.7168225   60.3030058
  23.7277892   60.3077347
  23.7307379   60.3134209
  23.7301971   60.3171548
  23.7311041   60.3174512
  23.7309572   60.3178731
  23.7301163   60.3180295
  23.7288631   60.3289909
  23.7353147   60.3379311
  23.7337675   60.343245
  23.733909    60.353005
  23.7339481   60.3557029
  23.7312427   60.3588981
  23.7234156   60.3598425
  23.7232316   60.3599703
  23.7226001   60.3599531
  23.7234466   60.3618817
  23.7236704   60.3626096
  23.7243447   60.3638344
  23.723627    60.3659035
  23.723551    60.367121
  23.7231792   60.3687584
  23.741665    60.3700029
  23.7423058   60.3702501
  23.7456866   60.3715547
  23.751563    60.3738759
  23.7533047   60.374851
  23.7543224   60.3754638
  23.7548041   60.3757633
  23.7616464   60.3797018
  23.7624628   60.3802089
  23.7641539   60.3811882
  23.765277    60.3818408
  23.7717018   60.3856267
  23.775123    60.3876371
  23.7755494   60.3878671
  23.7755064   60.3878632
  23.7755507   60.38789
  23.7738238   60.3877424
  23.773575    60.3876064
  23.7720769   60.3867976
  23.7716958   60.3869479
  23.769183    60.3867175
  23.7668848   60.386127
  23.7665302   60.3875409
  23.7664999   60.3876597
  23.7666355   60.3878958
  23.7670823   60.388546
  23.771635    60.3881983
  23.7724607   60.3881342
  23.7728294   60.3881141
  23.7737562   60.3880259
  23.7743551   60.387983
  23.7744996   60.387976
  23.7745341   60.3879746
  23.7747225   60.3879566
  23.77584     60.3879102
  23.7760251   60.3879137
  23.7761049   60.3879122
  23.7761578   60.3879046
  23.776194    60.3878958
  23.7762138   60.3878856
  23.7762326   60.3878514
  23.7762289   60.3878092
  23.7762192   60.3877364
  23.7762272   60.3876998
  23.7762376   60.3876796
  23.7762816   60.3876303
  23.7762896   60.3876016
  23.7763033   60.3875822
  23.7763587   60.3875683
  23.7764334   60.3875582
  23.7765025   60.3875622
  23.776551    60.3875673
  23.776815    60.387508
  23.7770348   60.3874837
  23.7771469   60.3874643
  23.7772113   60.3874549
  23.777363    60.3874372
  23.7774403   60.3874212
  23.7774862   60.3874039
  23.7774966   60.3873849
  23.7774973   60.3873422
  23.7774991   60.3873275
  23.7775154   60.387263
  23.7775231   60.3872182
  23.777573    60.3871314
  23.7776129   60.3870917
  23.7776911   60.3870439
  23.7779552   60.3869363
  23.7797569   60.3862096
  23.7802574   60.3859836
  23.7814389   60.385548
  23.7866565   60.3861071
  23.7884406   60.3869624
  23.7880717   60.3876618
  23.7896913   60.3877835
  23.7898338   60.3877942
  23.7904868   60.3878254
  23.7900091   60.3890515
  23.7898773   60.3894279
  23.7897427   60.3898151
  23.789026    60.3917812
  23.7887247   60.392559
  23.7878211   60.3952106
  23.7843857   60.404837
  23.790945    60.4235722
  23.7930733   60.4277711
  23.7933418   60.4279423
  23.7934968   60.4282373
  23.7938585   60.428485
  23.7940577   60.4289148
  23.794827    60.4292776
  23.7952239   60.4293446
  23.7953408   60.4293145
  23.7962516   60.4297145
  23.7923861   60.4308072
  23.7922043   60.4312195
  23.7866104   60.4441725
  23.7841401   60.4501868
  23.7827081   60.4501849
  23.779299    60.450174
  23.737873    60.4500947
  23.7116389   60.4500171
  23.7050039   60.4499775
  23.6994678   60.4499206
  23.6947634   60.4499079
  23.6922296   60.4499015
  23.6925128   60.4501878
  23.6926268   60.4503697
  23.6926704   60.4504196
  23.6927254   60.4504606
  23.6927971   60.4504934
  23.6928836   60.4505261
  23.693349    60.4506776
  23.6936004   60.4507487
  23.693805    60.4507989
  23.6939692   60.4508257
  23.6941563   60.4508466
  23.6946083   60.45088
  23.694733    60.4508945
  23.6948508   60.4509189
  23.6949275   60.4509438
  23.6950213   60.4509828
  23.695258    60.4511105
  23.6955243   60.4512447
  23.6956644   60.4513013
  23.6957697   60.4513327
  23.6959004   60.4513591
  23.696406    60.4514279
  23.6968325   60.4515162
  23.6971801   60.4515652
  23.7151715   60.4648374
  23.709431    60.4728391
  23.7206695   60.4798636
  23.7374847   60.4903698
  23.8230239   60.4946358
  23.8376276   60.4912811
  23.8524514   60.497987
  23.8675144   60.5049792
  23.8677591   60.5051323
  23.8683376   60.5055043
  23.8718494   60.5079347
  23.8645767   60.5214948
  23.8612965   60.5239557
  23.8607185   60.5230429
  23.8601166   60.5242002
  23.858968    60.5242039
  23.8588829   60.5252495
  23.8580344   60.5257019
  23.8564312   60.5260725
  23.8565178   60.5275317
  23.8552082   60.5284967
  23.8537303   60.5288282
  23.8522246   60.52949
  23.851551    60.5305982
  23.8548136   60.5321562
  23.8537411   60.5327508
  23.8583568   60.5341766
  23.8594555   60.534438
  23.8653735   60.535899
  23.8644605   60.5387437
  23.8459938   60.5540264
  23.8455496   60.5546294
  23.844492    60.5564236
  23.8599792   60.5571804
  23.8624475   60.5573353
  23.887509    60.5585098
  23.8877642   60.5613237
  23.8889511   60.5719651
  23.8890641   60.573008
  23.8891128   60.5738481
  23.8890699   60.5741048
  23.8891492   60.5742019
  23.8894857   60.5744801
  23.9082692   60.5868689
  23.9174294   60.6012842
  23.9205482   60.6060876
  23.9094267   60.6087553
  23.9046139   60.6098607
  23.8976552   60.6114592
  23.8975705   60.6115084
  23.8883268   60.6136113
  23.8789513   60.615759
  23.8758136   60.6165047
  23.8664062   60.6186398
  23.8824578   60.6335909
  23.8850885   60.635976
  23.8930763   60.6431737
  23.9005068   60.6497568
  23.9171835   60.6538563
  23.9177464   60.6537632
  23.9182922   60.6535214
  23.9185402   60.6531568
  23.9192518   60.6528682
  23.9197929   60.652772
  23.9203969   60.6528636
  23.920803    60.6528171
  23.9216763   60.6527505
  23.9219677   60.6526485
  23.921926    60.6522404
  23.9219885   60.6520364
  23.9225088   60.6518324
  23.9225505   60.6516284
  23.9229404   60.6510863
  23.92347     60.6505039
  23.9239693   60.6500431
  23.9247688   60.6497729
  23.9260715   60.6497269
  23.9267376   60.649533
  23.9278466   60.6493835
  23.9286916   60.6486209
  23.9294849   60.6483617
  23.9301094   60.6482404
  23.9304171   60.6481051
  23.9304171   60.6476356
  23.9305601   60.6474534
  23.9307888   60.6473553
  23.9309032   60.6472502
  23.9308003   60.6469391
  23.9309104   60.6468769
  23.9308842   60.6468215
  23.9307375   60.6468085
  23.9307406   60.6467075
  23.9307933   60.6466731
  23.9307172   60.6465927
  23.9308118   60.6465408
  23.9307992   60.6464434
  23.9309434   60.6464387
  23.931051    60.6463659
  23.9310158   60.6462454
  23.9311429   60.6462236
  23.9316095   60.6462922
  23.9318148   60.646283
  23.9319268   60.6460909
  23.9322814   60.645917
  23.9326361   60.6457615
  23.9326548   60.6455053
  23.9328041   60.6454229
  23.9331774   60.6453772
  23.933486    60.6457207
  23.9337138   60.6457243
  23.9339105   60.6456554
  23.9340777   60.645714
  23.9342154   60.6456937
  23.9343117   60.6456398
  23.9345044   60.6455588
  23.9346343   60.6455653
  23.9346304   60.6456673
  23.934719    60.6457034
  23.9348754   60.6456767
  23.9349403   60.6456395
  23.9350559   60.6456611
  23.9352497   60.6456999
  23.9356633   60.6455965
  23.9358994   60.6455587
  23.9362302   60.6455787
  23.9367121   60.6456906
  23.9369262   60.6456993
  23.9371864   60.645646
  23.9374701   60.6456197
  23.9377947   60.6455083
  23.9381304   60.645335
  23.9381925   60.6452417
  23.9382331   60.6450037
  23.9394989   60.6445465
  23.9434273   60.6434598
  23.9439393   60.6434369
  23.9443583   60.6432658
  23.944847    60.6432087
  23.9453823   60.6430034
  23.9467466   60.6423785
  23.9598307   60.6383368
  23.9616647   60.6381645
  23.9619779   60.6385832
  23.96236     60.6385457
  23.9625992   60.6383362
  23.9629685   60.6383445
  23.9633085   60.638577
  23.9636872   60.638598
  23.9637547   60.6382819
  23.9649056   60.6381574
  23.9666766   60.6377457
  23.9667675   60.6378606
  23.9670705   60.6377922
  23.9713235   60.6382005
  24.0054436   60.6435351
  24.0410725   60.6445216
  24.0467482   60.6423245
  24.0472419   60.6418086
  24.0474147   60.641728
  24.0647922   60.6353114
  24.0656934   60.6349699
  24.0671258   60.6344465
  24.0722685   60.6325341
  24.0723856   60.6324777
  24.0741707   60.6318308
  24.0842858   60.6280903
  24.1049283   60.6289382
  24.1058814   60.6287521
  24.1347811   60.6231174
  24.174943    60.6280826
  24.1798435   60.6272522
  24.1870027   60.625986
  24.1903025   60.6254236
  24.1997396   60.6237759
  24.2063143   60.6225559
  24.216906    60.6210425
  24.2372637   60.618066
  24.2371467   60.617307
  24.2368773   60.6158465
  24.2357798   60.6105625
  24.2349727   60.6063867
  24.234741    60.6054026
  24.2339792   60.601684
  24.2367195   60.5989015
  24.2383143   60.5976324
  24.238793    60.5971977
  24.2409698   60.5951581
  24.2449801   60.5916399
  24.2468436   60.5900132
  24.2475193   60.5894367
  24.2516157   60.5872719
  24.253055    60.5864853
  24.2544412   60.5857467
  24.2585125   60.5835093
  24.2652739   60.5798211
  24.2691664   60.5770199
  24.2703438   60.5761891
  24.274695    60.5730595
  24.2853867   60.5654106
  24.2920724   60.5673037
  24.2934913   60.5677395
  24.3055756   60.5710475
  24.3043095   60.5724191
  24.302483    60.5743065
  24.3015567   60.5754041
  24.3008849   60.5761272
  24.3005097   60.5765492
  24.3004678   60.5765813
  24.2988427   60.5783674
  24.2933244   60.5843559
  24.3030372   60.5864676
  24.3061034   60.5871499
  24.306169    60.5871525
  24.309212    60.5890176
  24.3177022   60.5940515
  24.3337054   60.6037156
  24.3380568   60.6063771
  24.3477235   60.6121537
  24.3609795   60.608943
  24.3619759   60.6086783
  24.3636409   60.6082972
  24.3724618   60.6061432
  24.3763873   60.6051942
  24.3824138   60.6037224
  24.3828878   60.603616
  24.3852187   60.6030377
  24.3900257   60.6009668
  24.3980251   60.5974663
  24.399906    60.5966656
  24.4031446   60.5952701
  24.4063356   60.5938811
  24.4074293   60.5933925
  24.4086074   60.592904
  24.4104224   60.592122
  24.4099151   60.5916408
  24.4089884   60.5903629
  24.408638    60.5900733
  24.4085656   60.5898302
  24.4057135   60.5862677
  24.4052936   60.5857144
  24.4035831   60.5836236
  24.401682    60.5811288
  24.3984472   60.5771774
  24.4041708   60.5716041
  24.4070886   60.5687263
  24.4116037   60.5643256
  24.4236803   60.5524915
  24.4274164   60.5527206
  24.5489547   60.5598406
  24.5539491   60.564425
  24.5555412   60.5658863
  24.5590028   60.5690632
  24.5594362   60.569461
  24.5602155   60.5701761
  24.5610647   60.5709574
  24.5616071   60.5714564
  24.5723891   60.581375
  24.5743829   60.5832525
  24.5747048   60.5834949
  24.5772594   60.5858115
  24.5642478   60.6009218
  24.5643754   60.6010336
  24.5647333   60.6012015
  24.5661605   60.6015627
  24.5669938   60.6019106
  24.5667184   60.6022832
  24.5655897   60.6018541
  24.5646308   60.6018865
  24.5642274   60.6018487
  24.5636432   60.6016635
  24.5629319   60.6024612
  24.5630539   60.6035994
  24.5631105   60.6043768
  24.5654213   60.6260847
  24.5645445   60.6360426
  24.6056333   60.6609475
  24.6078343   60.6641709
  24.6167234   60.6670343
  24.6390829   60.6587681
  24.6516402   60.6602155
  24.6717278   60.6547562
  24.6766518   60.6534179
  24.6914426   60.6493974
  24.7124237   60.6501793
  24.7398895   60.6477392
  24.7417778   60.6502634
  24.7460694   60.6492537
  24.7493101   60.6495801
  24.7505771   60.6522777
  24.7517532   60.6548414
  24.7572576   60.6543664
  24.7604122   60.6560093
  24.7615106   60.6571517
  24.7641233   60.6599113
  24.7702749   60.6575027
  24.7744778   60.6558147
  24.7769456   60.6548164
  24.7792716   60.6538955
  24.7806672   60.6549011
  24.7815712   60.6555034
  24.7822288   60.6558521
  24.7834694   60.6565025
  24.7846854   60.6572495
  24.7870368   60.6587494
  24.7899328   60.6605899
  24.7936486   60.6629154
  24.7943342   60.6633414
  24.7955425   60.6640922
  24.799136    60.6663195
  24.8030783   60.6688016
  24.8036104   60.6691366
  24.8062238   60.6707899
  24.8094535   60.672833
  24.810533    60.6722727
  24.8124029   60.6713594
  24.8183161   60.6684711
  24.82342     60.6677988
  24.8235737   60.6677786
  24.823791    60.6677518
  24.8239328   60.6677337
  24.8294676   60.6670269
  24.8343572   60.6663945
  24.8350451   60.6663164
  24.835078    60.6658175
  24.8355533   60.6592806
  24.836734    60.6592949
  24.8381386   60.6593103
  24.8383316   60.6593143
  24.8387443   60.6593229
  24.83823     60.6633824
  24.8376383   60.6633734
  24.8373544   60.6648545
  24.8379066   60.6648648
  24.8376614   60.6665887
  24.8387768   60.6665849
  24.8389422   60.6649157
  24.8394316   60.6649397
  24.8395046   60.6641601
  24.8395722   60.6634115
  24.839103    60.6633974
  24.8397601   60.6593441
  24.8509477   60.6594679
  24.8655518   60.659679
  24.8672001   60.6597175
  24.8730958   60.6598066
  24.8811557   60.6597705
  24.891015    60.6600376
  24.8938413   60.6601142
  24.8938706   60.660115
  24.8939573   60.6601102
  24.8941789   60.6600994
  24.8943286   60.6604785
  24.8943804   60.6605475
  24.8944108   60.660588
  24.8945191   60.6607776
  24.8945415   60.6608373
  24.8949363   60.6618902
  24.8949429   60.6630727
  24.8949479   60.6640697
  24.8950703   60.6640723
  24.8964991   60.664
  24.8992397   60.6638788
  24.902566    60.663783
  24.9202032   60.6632749
  24.9205465   60.6661343
  24.9287862   60.6688253
  24.9298162   60.6678162
  24.9346227   60.6689935
  24.9318761   60.6721887
  24.9386567   60.673204
  24.9883525   60.6806291
  24.9974008   60.6814087
  24.9990122   60.6815166
  25.0023452   60.6817393
  25.0173635   60.6821087
  25.0290365   60.6816043
  25.0293798   60.6831173
  25.0352163   60.6846302
  25.0437994   60.6816043
  25.0437994   60.6800913
  25.055129    60.67841
  25.0633688   60.6678162
  25.1124256   60.661559
  25.1132143   60.6626322
  25.1127032   60.6632441
  25.0944249   60.6862869
  25.0842126   60.6992085
  25.0933055   60.7016846
  25.1042278   60.7046668
  25.1240528   60.7100304
  25.1319922   60.7122193
  25.1460446   60.7164659
  25.1595511   60.7187563
  25.1861163   60.7234999
  25.1897155   60.7241493
  25.1930584   60.7247831
  25.1863266   60.7257249
  25.1794844   60.7266927
  25.1454685   60.7314753
  25.1188995   60.7466178
  25.1187749   60.7466676
  25.118686    60.7466846
  25.1186396   60.7466828
  25.1186142   60.7466527
  25.1186576   60.7465524
  25.1186692   60.7464376
  25.1187349   60.7464461
  25.1186271   60.7462977
  25.1185074   60.7461426
  25.1183643   60.745965
  25.1182901   60.7459313
  25.1178995   60.7455448
  25.1177002   60.7453664
  25.1177959   60.7453094
  25.1190863   60.7451361
  25.1186974   60.7448163
  25.1177104   60.74475
  25.1179302   60.7436873
  25.116331    60.7433622
  25.1166834   60.7425802
  25.117481    60.7423168
  25.1143648   60.7403278
  25.1135787   60.7404483
  25.1134392   60.740505
  25.1132645   60.7405173
  25.1129477   60.7405064
  25.1127859   60.7404874
  25.1125322   60.7404448
  25.1123443   60.7403722
  25.112285    60.740327
  25.1122371   60.740229
  25.1122024   60.7400651
  25.1121805   60.7400177
  25.1119802   60.7398302
  25.1118188   60.7397267
  25.1114195   60.7394887
  25.1108917   60.7392236
  25.1106798   60.7391265
  25.1103912   60.739039
  25.1100063   60.738945
  25.1098393   60.7388831
  25.1097424   60.7388139
  25.1096435   60.7386576
  25.1096371   60.7386475
  25.1095466   60.7384445
  25.1095017   60.7383325
  25.1096001   60.7383181
  25.1096765   60.7383022
  25.1111989   60.7372637
  25.1112336   60.7370471
  25.1110711   60.7368926
  25.1109125   60.7367778
  25.1106896   60.7366671
  25.1103978   60.7365818
  25.110042    60.7365199
  25.1096786   60.7365257
  25.1094718   60.7365438
  25.1091647   60.7365899
  25.1086629   60.7366871
  25.1085144   60.7367083
  25.1083383   60.736713
  25.1081166   60.736674
  25.1079002   60.7366087
  25.1075652   60.7365612
  25.1072174   60.7365493
  25.1067591   60.7365691
  25.1065846   60.7365686
  25.1063415   60.7365017
  25.1061437   60.7364343
  25.1059752   60.7363611
  25.1058616   60.7362971
  25.105552    60.7360715
  25.1054365   60.7359287
  25.1053172   60.7357075
  25.1051643   60.7355081
  25.1050011   60.7352952
  25.1048983   60.7351451
  25.1047681   60.7350107
  25.1044697   60.7348629
  25.1041313   60.7347757
  25.1036278   60.7347325
  25.1033587   60.7347139
  25.1031611   60.7346777
  25.1028644   60.7345819
  25.1027454   60.7345017
  25.102629    60.734352
  25.1025363   60.7342636
  25.1024051   60.7341804
  25.1021857   60.7340396
  25.1018698   60.7338608
  25.1010643   60.7334282
  25.1001763   60.7329513
  25.0991212   60.7321906
  25.0990374   60.7321241
  25.0989713   60.7319828
  25.0988754   60.7317318
  25.0987511   60.7315081
  25.0985279   60.7312503
  25.0983288   60.7310777
  25.09803     60.7309357
  25.0976623   60.7308292
  25.0972122   60.7307786
  25.0970037   60.7307689
  25.0968398   60.7307312
  25.0966311   60.7307024
  25.0964383   60.7306538
  25.0962394   60.7306216
  25.0959911   60.7305747
  25.0959629   60.7305686
  25.0959416   60.7305267
  25.095882    60.7304983
  25.0957718   60.730432
  25.0956551   60.7303414
  25.0953556   60.7301277
  25.0952721   60.7301065
  25.0953275   60.7300514
  25.0951829   60.730009
  25.0951323   60.7299521
  25.0951511   60.7298693
  25.094972    60.7298101
  25.0948047   60.7298214
  25.094469    60.729695
  25.0944105   60.7296554
  25.0942147   60.7296438
  25.093912    60.7295541
  25.0935835   60.7293608
  25.0935627   60.7293495
  25.0935199   60.7293418
  25.0934065   60.7293222
  25.0933124   60.7292816
  25.0932235   60.7292156
  25.0930458   60.7292072
  25.0929614   60.7291811
  25.0928078   60.7291981
  25.0927087   60.7291592
  25.092561    60.7291375
  25.092477    60.7290653
  25.0923156   60.7291184
  25.0922027   60.7290932
  25.0921684   60.7290481
  25.0920636   60.7290383
  25.0920201   60.7290043
  25.0920246   60.7289978
  25.0919667   60.7289801
  25.0917317   60.7289144
  25.0914821   60.7288266
  25.0912906   60.7287528
  25.0911286   60.7287033
  25.0909016   60.7286363
  25.090744    60.7285776
  25.0905986   60.728501
  25.0904054   60.7283762
  25.0902531   60.7282702
  25.0901004   60.72818
  25.0899541   60.7281099
  25.0898472   60.7280417
  25.0897486   60.7279727
  25.0896393   60.7278841
  25.0895765   60.7278077
  25.0894232   60.7277484
  25.0893318   60.727582
  25.089201    60.7273995
  25.0890351   60.7272706
  25.0885062   60.7268859
  25.0882425   60.7266706
  25.0879697   60.7264727
  25.0876478   60.7263381
  25.087214    60.7262208
  25.0866376   60.7260977
  25.0862945   60.7259784
  25.0857935   60.7257743
  25.0854522   60.7256095
  25.0852603   60.7254753
  25.0851537   60.7253175
  25.0850937   60.7251213
  25.0852564   60.7250018
  25.0855679   60.7248287
  25.085686    60.7246978
  25.0856778   60.7246032
  25.0855807   60.7245226
  25.0854051   60.7244564
  25.0850314   60.7244011
  25.0846266   60.7243579
  25.0841336   60.7243205
  25.0839714   60.7243026
  25.0838381   60.7242559
  25.0836917   60.7241825
  25.0835249   60.7240513
  25.0834021   60.7239576
  25.0831691   60.72373
  25.0827699   60.7233791
  25.0826622   60.7232058
  25.0825761   60.7230178
  25.0825242   60.722893
  25.0825358   60.7228107
  25.082564    60.7227379
  25.0823371   60.722499
  25.0823162   60.722272
  25.0820201   60.7220231
  25.0817907   60.7215857
  25.0815068   60.721126
  25.0811137   60.7207121
  25.0807442   60.7205262
  25.0801823   60.7203822
  25.0795364   60.7203121
  25.0786966   60.7202263
  25.0781682   60.7201212
  25.0777736   60.7199812
  25.0773979   60.7198635
  25.07724     60.7197706
  25.077197    60.7197058
  25.0772007   60.7196035
  25.0713003   60.7163909
  25.067916    60.7145537
  25.0671502   60.7153801
  25.0668019   60.715759
  25.0651175   60.717563
  25.0605024   60.72251
  25.0582103   60.7250215
  25.0757047   60.7419393
  25.0746525   60.7437034
  25.0791399   60.7452497
  25.0881421   60.7539936
  25.0904892   60.7622993
  25.09063     60.7629354
  25.1007081   60.7637965
  25.1078596   60.7644396
  25.1284394   60.7661754
  25.1284252   60.7662873
  25.1283394   60.7665138
  25.1299335   60.7666583
  25.1300325   60.7663963
  25.1443952   60.7676587
  25.14533     60.7667549
  25.147654    60.7667827
  25.1479516   60.7679721
  25.1524376   60.7683654
  25.1548677   60.7783836
  25.1376302   60.7890159
  25.128882    60.7941644
  25.1144118   60.8026109
  25.102067    60.8097655
  25.1060646   60.813773
  25.11098     60.8185831
  25.1132851   60.8180268
  25.1168966   60.8173112
  25.1210036   60.8163988
  25.1721822   60.8195897
  25.1729878   60.8179909
  25.1835873   60.8182543
  25.189263    60.8203449
  25.1842966   60.8250912
  25.1894376   60.8310897
  25.1882226   60.8344708
  25.192363    60.8353416
  25.1971851   60.8363901
  25.1960558   60.839724
  25.2091043   60.840852
  25.221158    60.8040374
  25.2626501   60.7858396
  25.2832886   60.7768578
  25.2847227   60.7762283
  25.288021    60.7702781
  25.2930272   60.7611563
  25.2981098   60.7519555
  25.3128141   60.7582729
  25.3190844   60.7609665
  25.33456     60.7591189
  25.3347446   60.7591018
  25.336447    60.7588811
  25.3370135   60.7590918
  25.3374044   60.7593149
  25.3405942   60.7596107
  25.3410834   60.7589372
  25.3407425   60.7588562
  25.34042     60.7587337
  25.3398641   60.7584673
  25.3441099   60.757959
  25.3753277   60.7542346
  25.3756306   60.7534263
  25.3779467   60.7531135
  25.3780589   60.7533763
  25.3781299   60.75345
  25.3778928   60.7539112
  25.382176    60.7534013
  25.3878511   60.7570525
  25.3941345   60.7620085
  25.4055862   60.7710473
  25.4138591   60.7775389
  25.4174131   60.7803702
  25.4312775   60.7905274
  25.4332924   60.7954493
  25.4574084   60.7952562
  25.4674887   60.7937436
  25.4745166   60.792689
  25.4776999   60.7888714
  25.4826915   60.7826937
  25.4829484   60.7824101
  25.4831978   60.7821349
  25.4834189   60.7818423
  25.4935015   60.7697407
  25.4949593   60.7679804
  25.4957042   60.7671086
  25.4993116   60.7633464
  25.5061169   60.7560942
  25.5066406   60.7561152
  25.5076401   60.755253
  25.5074735   60.7550878
  25.508334    60.7537805
  25.5136402   60.7481216
  25.5148295   60.745216
  25.5172722   60.7392842
  25.5230573   60.7251449
  25.5236169   60.7237503
  25.5254155   60.7194267
  25.5192681   60.7039018
  25.592916    60.6779144
  25.5943374   60.6779673
  25.5979117   60.6775846
  25.5982192   60.6776742
  25.601911    60.6759535
  25.6105954   60.6716512
  25.6108614   60.6714701
  25.6112867   60.6716846
  25.61156     60.6719
  25.6117719   60.6721201
  25.611908    60.6723375
  25.612022    60.6726972
  25.6121661   60.6730771
  25.6121788   60.6735026
  25.6121364   60.6737787
  25.6120135   60.6741025
  25.6116367   60.6750346
  25.6111362   60.6761409
  25.611009    60.6765415
  25.6109836   60.6767823
  25.6110133   60.677075
  25.6111319   60.6775005
  25.6112633   60.6777952
  25.6114197   60.6780148
  25.6116829   60.6782809
  25.6120008   60.6784739
  25.612395    60.6786607
  25.6129544   60.6788973
  25.6147133   60.6795262
  25.6153914   60.6798354
  25.6159551   60.6800741
  25.6162857   60.6801903
  25.616629    60.6802692
  25.6169257   60.6803169
  25.6172139   60.6803398
  25.6175774   60.6803395
  25.6178496   60.6803086
  25.6181887   60.680236
  25.6185362   60.6801384
  25.6187609   60.680016
  25.6190279   60.6798956
  25.6192864   60.6797939
  25.6195831   60.6797317
  25.619884    60.6797005
  25.6202697   60.6796922
  25.6206469   60.6797026
  25.6209902   60.679742
  25.6212827   60.6798001
  25.6218271   60.6799587
  25.6223761   60.680153
  25.6231984   60.6805058
  25.6234993   60.6805992
  25.6245589   60.6807901
  25.6249869   60.6808192
  25.6258176   60.6808213
  25.626216    60.6808482
  25.6267458   60.6808897
  25.6272205   60.6809479
  25.6281868   60.681089
  25.6292416   60.681225
  25.629844    60.6812758
  25.6303399   60.681282
  25.6310689   60.6812488
  25.632459    60.6811637
  25.6330736   60.6811741
  25.6333745   60.6811637
  25.6337265   60.681132
  25.6339509   60.6810848
  25.6342052   60.6810101
  25.6344595   60.6808752
  25.6349743   60.6805874
  25.6354767   60.6802879
  25.6360574   60.6799786
  25.6364346   60.6798064
  25.6368669   60.6796445
  25.6373755   60.6794951
  25.6387826   60.679163
  25.6390793   60.6790654
  25.6393166   60.678943
  25.6397447   60.6785901
  25.6399566   60.6783494
  25.6400371   60.6782518
  25.6401727   60.6781771
  25.6404016   60.6781045
  25.6406305   60.6780733
  25.6408551   60.6780816
  25.6411221   60.6781211
  25.6413679   60.6781875
  25.6415968   60.6782601
  25.6419232   60.6784262
  25.6421176   60.6785019
  25.6423258   60.678559
  25.6426564   60.678615
  25.6432625   60.678723
  25.6434913   60.6787935
  25.6436778   60.6788745
  25.6438813   60.6790198
  25.6441249   60.6792237
  25.6442627   60.6792875
  25.6448179   60.6794328
  25.6455596   60.6796466
  25.6458182   60.6797005
  25.6460216   60.6797337
  25.6464666   60.6797856
  25.6466107   60.6798105
  25.6467167   60.6798624
  25.6467463   60.6799288
  25.6467379   60.6800015
  25.6466955   60.6800969
  25.64667     60.6802547
  25.6466567   60.680428
  25.6466277   60.6805909
  25.6465471   60.6806739
  25.6464285   60.6807279
  25.6461955   60.6807999
  25.6457842   60.6808648
  25.645496    60.6809167
  25.6452714   60.6809935
  25.6449959   60.6811824
  25.6448561   60.6812737
  25.6446018   60.6813525
  25.6442966   60.6814044
  25.6440042   60.6814335
  25.6438304   60.681475
  25.6436227   60.6815601
  25.643432    60.6817303
  25.6432837   60.6818818
  25.6431268   60.6819917
  25.6429064   60.6821163
  25.6425886   60.6822346
  25.6423258   60.6822968
  25.6420969   60.6823176
  25.6417875   60.6823425
  25.641618    60.6823778
  25.6414824   60.6824649
  25.6414442   60.68255
  25.6414569   60.6826247
  25.6415332   60.6827306
  25.6416095   60.6828281
  25.6416095   60.6829132
  25.6416053   60.6830522
  25.6416307   60.6831788
  25.6417016   60.6833059
  25.6418765   60.6834403
  25.6420723   60.6835273
  25.6423767   60.6836291
  25.6430929   60.6838076
  25.6434489   60.6838719
  25.6441059   60.6839404
  25.6443856   60.6839902
  25.6446272   60.6840587
  25.6448433   60.6841874
  25.644979    60.6843409
  25.6450129   60.6845277
  25.6449747   60.6846812
  25.6449239   60.6848223
  25.6448052   60.6849282
  25.6446526   60.6850568
  25.644428    60.6851668
  25.6441016   60.6852934
  25.6438855   60.6853847
  25.643699    60.6854905
  25.6436058   60.6855922
  25.6435379   60.685725
  25.643521    60.6858723
  25.6435168   60.6865094
  25.6434871   60.6867418
  25.6434829   60.6868974
  25.6435507   60.6869949
  25.6436693   60.6870738
  25.6438601   60.6871443
  25.6443771   60.6872792
  25.6445467   60.6873394
  25.644623    60.6874161
  25.6446865   60.6875344
  25.6447126   60.6877506
  25.6446781   60.6878955
  25.6446187   60.688076
  25.6445047   60.6882287
  25.6443729   60.6883685
  25.6441822   60.6885138
  25.6424529   60.6897545
  25.6421054   60.6900346
  25.6419867   60.6901695
  25.6419147   60.6903064
  25.6418638   60.6904537
  25.6418384   60.6905928
  25.6418808   60.6907193
  25.6419698   60.6908583
  25.6421054   60.6909641
  25.6425968   60.6913095
  25.6426818   60.6914496
  25.6427157   60.6916156
  25.6428005   60.6917131
  25.6429107   60.6917753
  25.6430972   60.691821
  25.643432    60.6918749
  25.6436058   60.6919289
  25.6436948   60.6920243
  25.6437117   60.6921094
  25.6437583   60.6922608
  25.6438959   60.6923814
  25.6441864   60.6925616
  25.6443983   60.6926177
  25.6446653   60.6926301
  25.6448942   60.6925803
  25.6451655   60.6924952
  25.6453986   60.6924558
  25.6456868   60.6924621
  25.6460682   60.6925367
  25.6465174   60.6926569
  25.6475686   60.6930824
  25.6478652   60.6932214
  25.6481874   60.6934309
  25.6485222   60.6937296
  25.648662    60.6939516
  25.6487056   60.6941963
  25.648691    60.6942912
  25.6490731   60.6942998
  25.657196    60.6907495
  25.6795195   60.6915666
  25.6973767   60.707867
  25.7230007   60.7184231
  25.7336729   60.7137367
  25.7346589   60.7133849
  25.7356689   60.712882
  25.7467482   60.7080612
  25.767071    60.7085341
  25.7693672   60.7086591
  25.7993767   60.7116223
  25.8311872   60.7139523
  25.8348717   60.7149699
  25.8593705   60.7320284
  25.9149228   60.7358691
  25.9305366   60.7106199
  25.9335084   60.7059447
  25.9652674   60.7097228
  26.0277425   60.7165475
  26.109009    60.68646
  26.141805    60.6904688
  26.1625321   60.7004451
  26.2140908   60.7162363
  26.2238532   60.7292257
  26.2109214   60.7532266
  26.2083537   60.75799
  26.2140339   60.7552152
  26.2151522   60.7546522
  26.2154554   60.7545018
  26.2169781   60.7537461
  26.2226059   60.7510168
  26.2234151   60.7506273
  26.2291505   60.7478661
  26.2293114   60.7478294
  26.234075    60.7478924
  26.2419393   60.7479762
  26.2531445   60.7480871
  26.2532153   60.7489618
  26.2533333   60.7515096
  26.2534433   60.7549972
  26.2536487   60.7600237
  26.2537088   60.7609911
  26.2538054   60.761075
  26.2539556   60.7610907
  26.2541701   60.7610278
  26.2543847   60.7610278
  26.2545027   60.7611693
  26.2547602   60.7611484
  26.2549104   60.7611012
  26.2553289   60.7612532
  26.255243    60.7614051
  26.2553503   60.7614942
  26.2557258   60.7615257
  26.2557151   60.76162
  26.256037    60.7614785
  26.2561121   60.761599
  26.2560906   60.761751
  26.2563159   60.7617615
  26.2564125   60.7618611
  26.2565198   60.7619082
  26.2567451   60.7619187
  26.2570133   60.7620707
  26.2571313   60.7620392
  26.2572815   60.7620497
  26.257539    60.7620759
  26.2577536   60.7620183
  26.2576892   60.762165
  26.2578394   60.7622174
  26.2580754   60.7620969
  26.2583222   60.762144
  26.2583973   60.7622646
  26.2584402   60.762317
  26.2586333   60.7623013
  26.259041    60.7623013
  26.2592663   60.7623013
  26.2594809   60.7622331
  26.2596418   60.7622384
  26.2596526   60.7623432
  26.2597921   60.7623484
  26.2602749   60.7621231
  26.2604572   60.7619606
  26.2606074   60.7619239
  26.2608864   60.762034
  26.2610044   60.7619449
  26.2611224   60.7619187
  26.2613263   60.7619711
  26.2615409   60.7619554
  26.2615945   60.7618296
  26.2616911   60.7617877
  26.261852    60.7617982
  26.2619593   60.7618244
  26.2624528   60.7618139
  26.2627103   60.7618715
  26.2628069   60.7617825
  26.2629356   60.7617458
  26.2629463   60.7616724
  26.2630643   60.7616357
  26.2632897   60.7616619
  26.2634935   60.7617039
  26.2637403   60.7616514
  26.2640085   60.761599
  26.2644269   60.7615519
  26.2649526   60.7614785
  26.2651457   60.7614785
  26.2656071   60.7615047
  26.2658109   60.761489
  26.2661543   60.7613213
  26.2665362   60.7611463
  26.2671676   60.7610053
  26.2680211   60.7608444
  26.2683537   60.7607396
  26.2689867   60.7606191
  26.2696411   60.76053
  26.2704458   60.7604252
  26.2707891   60.7603832
  26.2709828   60.7603201
  26.2710144   60.7602784
  26.2710573   60.7601893
  26.2710251   60.7599849
  26.2713363   60.7598434
  26.2715079   60.7596233
  26.2718298   60.7592408
  26.2720444   60.759225
  26.2720658   60.7591517
  26.2720015   60.7591202
  26.2719907   60.7590468
  26.2721517   60.7589787
  26.2722053   60.7587691
  26.2724092   60.7587272
  26.2726452   60.7587219
  26.2727203   60.7586119
  26.2726667   60.7584337
  26.2727847   60.7583655
  26.2729349   60.7583603
  26.2731065   60.7582555
  26.2731602   60.7581035
  26.273128    60.7578624
  26.273364    60.7576475
  26.2733211   60.7574483
  26.2735679   60.7573016
  26.2735571   60.757071
  26.2736108   60.7569924
  26.273761    60.75694
  26.273761    60.7568299
  26.273879    60.7566884
  26.2738897   60.7565102
  26.2740399   60.7563949
  26.2743511   60.7562586
  26.274394    60.756159
  26.2745335   60.7560437
  26.2746729   60.7560018
  26.2748446   60.7558393
  26.2749412   60.7556768
  26.2752308   60.7555458
  26.275542    60.7555248
  26.2756707   60.7554462
  26.2758317   60.7553361
  26.2760784   60.7552627
  26.2762501   60.7551369
  26.2761857   60.7550635
  26.2762286   60.7549011
  26.2764217   60.7548277
  26.2765183   60.7547648
  26.2765827   60.7546285
  26.2768938   60.7545079
  26.2772908   60.7540467
  26.2774732   60.7539576
  26.2777843   60.7538999
  26.2779452   60.7539418
  26.2781491   60.753837
  26.2783208   60.7538318
  26.2785139   60.7538527
  26.278707    60.7539366
  26.2788572   60.7538947
  26.2788036   60.7537374
  26.2789108   60.7537112
  26.279104    60.7537531
  26.2790074   60.7539261
  26.279061    60.7539785
  26.2791898   60.7539628
  26.2792863   60.7539052
  26.2794151   60.7539052
  26.2796404   60.7539943
  26.2799193   60.7539838
  26.2799945   60.7540414
  26.2802734   60.7540467
  26.2806275   60.7539471
  26.2808849   60.7539523
  26.2810566   60.7540362
  26.2811746   60.7540414
  26.2813034   60.7539943
  26.2814321   60.7538789
  26.2815179   60.7537112
  26.2818505   60.7536169
  26.282505    60.7536116
  26.2825694   60.7536693
  26.2824192   60.7537846
  26.2826337   60.7538527
  26.2829663   60.7538999
  26.2831702   60.7538527
  26.2833418   60.7538632
  26.2834599   60.7539052
  26.2836101   60.7538789
  26.283771    60.7536431
  26.2839427   60.7534072
  26.2841143   60.7531346
  26.2841358   60.7529145
  26.2842753   60.7527257
  26.2843933   60.7526995
  26.284522    60.7527467
  26.2847366   60.7528096
  26.2849083   60.7527205
  26.2851872   60.7525108
  26.2853696   60.7522382
  26.2856378   60.7519814
  26.2857988   60.7519342
  26.2860133   60.7519395
  26.2862172   60.7520233
  26.2863245   60.7521701
  26.2865176   60.7522435
  26.2867      60.7522435
  26.2869253   60.752102
  26.2870326   60.7519185
  26.2870455   60.751751
  26.287054    60.7516407
  26.2872579   60.7513628
  26.2875476   60.7513052
  26.2877514   60.7513104
  26.2880625   60.7511217
  26.2881484   60.7510221
  26.2882986   60.7509697
  26.2884488   60.7509697
  26.2885882   60.7510378
  26.2887706   60.7510431
  26.2892749   60.7509854
  26.2896289   60.7510378
  26.2898006   60.7510273
  26.2901225   60.7510693
  26.2903585   60.751064
  26.2905838   60.7509959
  26.290734    60.7508019
  26.2910022   60.7506761
  26.2911739   60.7504874
  26.2913885   60.7504874
  26.2915387   60.7504612
  26.2917318   60.7503354
  26.2920966   60.750262
  26.2926867   60.75022
  26.2928369   60.7501624
  26.2929442   60.7500261
  26.2930944   60.7499894
  26.2932875   60.7499946
  26.2934377   60.7499579
  26.2935021   60.749874
  26.2936952   60.7497063
  26.2937488   60.7495542
  26.2938025   60.7492974
  26.2939312   60.7492082
  26.2941351   60.749182
  26.2944355   60.7491296
  26.2945106   60.7490195
  26.2944998   60.7489147
  26.2947681   60.7489042
  26.2950148   60.7489356
  26.2952187   60.7489881
  26.295444    60.7489461
  26.2955942   60.7488832
  26.2957873   60.7487364
  26.296077    60.7486683
  26.2962701   60.7486788
  26.2964954   60.7486892
  26.2968602   60.7486683
  26.2971499   60.7486001
  26.2973108   60.7485949
  26.2974395   60.7488098
  26.2976756   60.7488885
  26.2979653   60.7489356
  26.2981906   60.7489671
  26.2985017   60.7490824
  26.2987055   60.7491086
  26.2991883   60.7490982
  26.2995301   60.7491821
  26.3000883   60.7492343
  26.3003946   60.7487032
  26.3004442   60.7485428
  26.3004705   60.7483517
  26.3005319   60.7482095
  26.3007256   60.7479872
  26.3010839   60.7477996
  26.3014919   60.7476899
  26.3018165   60.7475392
  26.3019068   60.7474658
  26.3019428   60.7473763
  26.3018773   60.7472453
  26.301706    60.7471428
  26.3013876   60.7470424
  26.301078    60.746923
  26.300923    60.7468251
  26.3008592   60.7467081
  26.3008906   60.7465429
  26.3010037   60.7462876
  26.3010598   60.746099
  26.3010349   60.7458844
  26.3008474   60.7455478
  26.3004649   60.745109
  26.3003563   60.7448941
  26.3002074   60.7444997
  26.30008     60.7440545
  26.3000159   60.7436796
  26.3000277   60.743331
  26.3001004   60.7429907
  26.3000784   60.7424556
  26.3000156   60.7421859
  26.2999067   60.741964
  26.299712    60.741736
  26.2995559   60.7415436
  26.2994811   60.7413861
  26.2994234   60.7412291
  26.2993818   60.7410687
  26.2994749   60.7403708
  26.2995559   60.7400716
  26.2995698   60.7397815
  26.2995232   60.7395871
  26.2994958   60.7390156
  26.2993998   60.7387426
  26.2992469   60.7383362
  26.2991474   60.7380821
  26.2990956   60.7378276
  26.29913     60.7373322
  26.2990286   60.7369845
  26.2987421   60.736433
  26.2985316   60.7360334
  26.2984283   60.7356876
  26.2982451   60.7352325
  26.2981067   60.7347185
  26.2980522   60.734397
  26.2979817   60.7333307
  26.2978859   60.7329814
  26.2979128   60.7324339
  26.2979304   60.7323794
  26.29803     60.7320703
  26.2981625   60.7316355
  26.2980662   60.7309339
  26.2983575   60.7309187
  26.3004593   60.7309424
  26.3064414   60.7273023
  26.3067166   60.727125
  26.312928    60.7233916
  26.3132317   60.7231015
  26.3229327   60.7171737
  26.3288357   60.7135153
  26.3309374   60.7122404
  26.3314782   60.7119124
  26.3310187   60.7109795
  26.3309128   60.7106606
  26.3308645   60.7093967
  26.3304182   60.7094277
  26.3302868   60.7091125
  26.3274787   60.7023788
  26.3250817   60.6966297
  26.3297026   60.689487
  26.3336539   60.6833102
  26.338438    60.6758299
  26.3557597   60.670262
  26.3620886   60.6682274
  26.3584602   60.6665592
  26.3470895   60.6613555
  26.3530419   60.6605186
  26.3862412   60.6558206
  26.4119121   60.6522278
  26.4313956   60.649547
  26.443825    60.6447292
  26.4584291   60.6390857
  26.461932    60.6353143
  26.464017    60.6330947
  26.4744743   60.6220207
  26.4753635   60.6210789
  26.4775361   60.6188303
  26.4779631   60.6183834
  26.4782649   60.6180441
  26.481848    60.6142189
  26.4818351   60.6124016
  26.4818308   60.6117887
  26.4818812   60.6094094
  26.4829627   60.6008427
  26.4834471   60.5968459
  26.494582    60.5976776
  26.5123066   60.598978
  26.5181683   60.5981297
  26.5185014   60.5980892
  26.5300548   60.5964418
  26.5372892   60.5953702
  26.5387514   60.5951735
  26.5391398   60.5949455
  26.5417866   60.5750065
  26.5453807   60.5590288
  26.5442896   60.554889
  26.5391518   60.5534413
  26.536889    60.5531218
  26.5259419   60.5517539
  26.5169269   60.5506289
  26.5148824   60.5531444
  26.5089183   60.554186
  26.5059721   60.5502881
  26.5071469   60.5487292
  26.5006105   60.545442
  26.4973299   60.5462425
  26.4931898   60.5444749
  26.4882152   60.5435199
  26.4880582   60.540915
  26.4908926   60.5393666
  26.4973514   60.5391622
  26.4994863   60.5385267
  26.5015875   60.538593
  26.5023291   60.5382338
  26.5035426   60.5361944
  26.5034864   60.5357854
  26.5066101   60.534365
  26.5109136   60.530645
  26.5112057   60.5273116
  26.5083629   60.5249454
  26.5063292   60.5242432
  26.5035988   60.5246966
  26.4985986   60.5246247
  26.4962727   60.5240829
  26.494812    60.5230213
  26.4945648   60.5218547
  26.4918007   60.5207322
  26.4913625   60.519372
  26.4935648   60.5166623
  26.4938569   60.5156669
  26.492511    60.5145871
  26.4895686   60.5135222
  26.4847567   60.5144338
  26.4757216   60.5146127
  26.4729522   60.5144338
  26.470529    60.5144593
  26.4688155   60.5129684
  26.4670277   60.5117421
  26.466484    60.5118115
  26.4657188   60.5114744
  26.4657289   60.511068
  26.4675613   60.5099777
  26.4668364   60.5090805
  26.4667156   60.5082875
  26.466828    60.5068839
  26.4681463   60.50514
  26.4677335   60.504091
  26.4655097   60.5035337
  26.4627      60.5018815
  26.4617812   60.5010488
  26.4609956   60.4997833
  26.4617945   60.4988259
  26.4628332   60.4979735
  26.4639784   60.4975326
  26.4639384   60.49718
  26.4629397   60.4964324
  26.4596566   60.496344
  26.4575247   60.496097
  26.4557882   60.4956496
  26.4530592   60.4956192
  26.4514199   60.4952176
  26.4490545   60.4935407
  26.4482454   60.492986
  26.448021    60.4924522
  26.448044    60.4922907
  26.4481605   60.4914745
  26.4498556   60.4906713
  26.4518819   60.4904547
  26.455009    60.4861893
  26.4558273   60.485073
  26.4561017   60.4846987
  26.4774941   60.4555026
  26.4886521   60.4242532
  26.4713143   60.401038
  26.5519952   60.3671476
  26.5795284   60.2872587
  26.5804361   60.2797889
  26.6447447   60.1891919
  26.6561488   60.1712626
  26.6110136   60.1617532
  26.4919587   60.1535162
  26.4262093   60.1178906
  26.3604599   60.0822265
  26.2947105   60.0465237
  26.2712854   60.0446916
  26.1885563   60.0382204
  26.0750701   60.0140664
  26.0173046   59.9767969
  25.9180553   59.9656036
  25.818806    59.9544065
  25.7195566   59.9432056
  25.6203073   59.9320009
  25.5826893   59.9281997
  25.4712671   59.9313134
  25.413615    59.934434
  25.3290779   59.9375507
  25.2492148   59.9404948
  25.1693516   59.9434386
  25.0895598   59.9360766
  25.0097679   59.928713
  24.9423061   59.922486
  24.9299761   59.9213478
  24.8579328   59.9064917
  24.831625    59.9010905
  24.7853726   59.8920593
  24.6863541   59.86708
  24.5873355   59.8420819
  24.488317    59.817065
  24.4102228   59.806939
  24.3321287   59.7968099
  24.2815873   59.7915557
  24.206091    59.7837058
  24.1684459   59.7781246
  24.094752    59.7671988
  23.983413    59.7506836
  23.8868346   59.7363512
  23.8017983   59.7237266
  23.6875729   59.7067611
  23.6053998   59.6946316
  23.5245995   59.6825953
  23.4566746   59.6724736
  23.3520495   59.6568771
  23.3111362   59.6551606
  23.2700574   59.6534371
  23.2274161   59.651648
  23.2154172   59.6511692
  23.1490126   59.6482972
  23.1173185   59.6469264
  23.0523505   59.6440982
  23.0149013   59.6425092
  22.9873824   59.6412698
  22.9224144   59.6384411
  22.8574463   59.6356122
  22.788144    59.6269362
  22.7188416   59.6182579
  22.6589293   59.6110023
END
END
