polygon
1
  20.3775366   60.87665
  20.437595    60.9018075
  20.5198626   60.9576673
  20.5433047   60.9735094
  20.5691938   60.990996
  20.6205506   61.02572
  20.6673884   61.0571954
  20.7205734   61.092847
  20.7714495   61.1269079
  20.7731388   61.1334796
  21.0736635   61.1151297
  21.2497218   61.1040578
  21.2718137   61.1026239
  21.2746753   61.1027223
  21.3160315   61.1035621
  21.3274344   61.0957796
  21.3334382   61.0916799
  21.3397533   61.0873656
  21.3452554   61.0859768
  21.3488771   61.0814732
  21.3630191   61.0781192
  21.3702033   61.0748367
  21.3708429   61.0745096
  21.374058    61.0737995
  21.3782751   61.0750026
  21.3893833   61.0701875
  21.3889099   61.0660605
  21.3956425   61.0634402
  21.417079    61.0551975
  21.4199612   61.0473506
  21.4203092   61.0464083
  21.4203583   61.0462794
  21.4204102   61.0461349
  21.4222659   61.0462929
  21.4233025   61.0434583
  21.4214344   61.0433037
  21.4271613   61.0273994
  21.4457243   61.0190392
  21.4464159   61.0187167
  21.4489754   61.0175775
  21.4491754   61.0175126
  21.4503638   61.017132
  21.4535262   61.0162194
  21.4533051   61.0164797
  21.4545302   61.0166771
  21.4547695   61.016568
  21.457677    61.0158842
  21.4588623   61.0155778
  21.4597672   61.0153871
  21.4604491   61.0151383
  21.4606004   61.0150648
  21.4615365   61.0143701
  21.4632478   61.0154754
  21.4652037   61.014377
  21.4668248   61.0134479
  21.4656921   61.0122069
  21.467163    61.0116903
  21.4683211   61.01132
  21.4698115   61.0108313
  21.474707    61.0091961
  21.4776063   61.0090207
  21.4768708   61.0078959
  21.4783245   61.0070043
  21.4798106   61.0061291
  21.4798382   61.0058392
  21.4798578   61.0054292
  21.4819254   61.0037123
  21.4811483   61.0033896
  21.4799564   61.0033339
  21.4801477   61.0003044
  21.4802069   60.9994788
  21.5276537   61.0051137
  21.5306664   61.0050758
  21.5308209   61.0048095
  21.5325036   61.0047771
  21.5325316   61.0050513
  21.550661    61.0048018
  21.5524838   61.0053751
  21.5568164   61.0065933
  21.5583541   61.0070481
  21.5658301   61.0091142
  21.565845    61.0091231
  21.5661571   61.0092071
  21.5663182   61.0092181
  21.5663571   61.0092224
  21.5992799   61.0095371
  21.5996487   61.0090903
  21.6009615   61.0089139
  21.6029294   61.0069269
  21.6034459   61.0069255
  21.6038626   61.0078629
  21.6034558   61.0095785
  21.6060455   61.0096051
  21.6055626   61.0102486
  21.6055584   61.0104352
  21.6070125   61.0107048
  21.6060607   61.011805
  21.6013375   61.0171631
  21.5954321   61.0239376
  21.594501    61.0249719
  21.5931791   61.0264757
  21.5920872   61.0277186
  21.5918361   61.0279945
  21.5911756   61.0288134
  21.5911411   61.0288256
  21.5912649   61.028971
  21.5913498   61.0290704
  21.5914268   61.0291652
  21.5914589   61.0292133
  21.5914774   61.029248
  21.5914889   61.0292765
  21.5914982   61.0293121
  21.5915025   61.0293479
  21.5914997   61.0294218
  21.5914853   61.0295067
  21.5914689   61.0295574
  21.5914097   61.0296796
  21.591385    61.0297876
  21.5916538   61.0300263
  21.6071872   61.0337697
  21.607706    61.0367119
  21.6079308   61.0377277
  21.6080991   61.0387334
  21.6084702   61.041158
  21.6087205   61.0412843
  21.6114511   61.0427752
  21.6113964   61.0428168
  21.6145376   61.0456214
  21.6151684   61.0461749
  21.6202398   61.0506826
  21.6212164   61.051787
  21.6215731   61.0516448
  21.6248331   61.0479487
  21.6255338   61.047109
  21.6265491   61.0459474
  21.6266958   61.0457792
  21.6276476   61.0446763
  21.628172    61.0440734
  21.6338749   61.0376085
  21.6345424   61.0367832
  21.6366818   61.0374131
  21.6368274   61.0379401
  21.6377236   61.0385246
  21.6385293   61.0373622
  21.6378173   61.0372884
  21.6364748   61.0371484
  21.6347888   61.0364833
  21.635391    61.0357885
  21.6358324   61.0352821
  21.6362513   61.0347853
  21.6410179   61.0292983
  21.6494968   61.0195843
  21.6514043   61.017362
  21.6522091   61.0131602
  21.6526692   61.0105454
  21.6531497   61.0079734
  21.6531728   61.0078509
  21.6531779   61.0078242
  21.6531782   61.0078015
  21.6526791   61.0076877
  21.6528955   61.0064373
  21.6534191   61.0064581
  21.6546434   60.9999165
  21.6655924   60.9963322
  21.6658331   60.9965918
  21.6676707   60.9967129
  21.6680882   60.9964108
  21.6687573   60.9965503
  21.6728414   60.9973779
  21.6720706   60.9976363
  21.6728514   60.9987732
  21.6730938   60.9989214
  21.6737549   60.9990907
  21.6764386   60.9986511
  21.6760141   60.9982733
  21.6762766   60.9980888
  21.6775579   60.998312
  21.6899657   61.0009351
  21.6905739   61.0010796
  21.6910214   61.0011519
  21.6911387   61.0012421
  21.6915762   61.001195
  21.6918286   61.0014116
  21.6920811   61.0014569
  21.691576    61.0025917
  21.691625    61.0030935
  21.6933146   61.0035538
  21.6939909   61.0035175
  21.7018214   61.0031819
  21.7019795   61.0032376
  21.702045    61.0032035
  21.7021351   61.0031629
  21.7022203   61.0031285
  21.7023097   61.0030968
  21.7024063   61.0030663
  21.7025347   61.0030309
  21.7027303   61.0029849
  21.7030505   61.0029202
  21.7035654   61.0028211
  21.7038593   61.0027759
  21.7043009   61.0027204
  21.7045135   61.0026902
  21.7046185   61.002673
  21.7047342   61.0026517
  21.7050238   61.0025903
  21.70519     61.0025513
  21.7052765   61.0025278
  21.7053696   61.0024986
  21.7055285   61.0024415
  21.7061981   61.0021878
  21.706609    61.0020523
  21.7067343   61.0020143
  21.7077304   61.0017313
  21.708672    61.0014442
  21.7095001   61.0011745
  21.7102177   61.0009347
  21.7102942   61.0009111
  21.7105802   61.000829
  21.7106666   61.0008062
  21.7111992   61.0006778
  21.7115932   61.0005794
  21.7122018   61.0004222
  21.7129132   61.0002227
  21.7130564   61.0001728
  21.7131859   61.0001495
  21.7133023   61.0001119
  21.7134184   61.0000676
  21.7134981   61.0000333
  21.7135783   60.9999963
  21.7137446   60.999916
  21.7138783   60.9998542
  21.7139567   60.9998135
  21.7140482   60.9997572
  21.7142986   60.9995822
  21.7142211   60.9994477
  21.7141474   60.9993488
  21.714043    60.9992736
  21.7137961   60.9991307
  21.7136368   60.9990342
  21.7222782   60.9997898
  21.7232138   60.999899
  21.7237085   61.0002514
  21.7277627   61.0010475
  21.7304444   61.0005592
  21.7312166   61.0006223
  21.7319068   61.0010536
  21.7324662   61.0010974
  21.7327577   61.0007465
  21.7343852   61.0008914
  21.7422917   61.0040386
  21.749723    61.0070418
  21.7535042   61.0085545
  21.7562039   61.009663
  21.7600797   61.0112432
  21.7638701   61.0127999
  21.7660291   61.0136953
  21.7658261   61.0138712
  21.7651469   61.0144509
  21.7589623   61.0208264
  21.7587726   61.0210341
  21.7532484   61.02656
  21.7571035   61.027853
  21.7659155   61.0308139
  21.7697028   61.0320515
  21.7698782   61.0321192
  21.7757539   61.0341078
  21.79209     61.0341242
  21.7958974   61.0341543
  21.7992066   61.0341664
  21.8161021   61.0341823
  21.8179575   61.0341809
  21.8229643   61.0341646
  21.8250082   61.0341745
  21.8252136   61.0341737
  21.8250103   61.0340392
  21.819299    61.0300812
  21.8190262   61.0298891
  21.8152809   61.0271828
  21.8099291   61.0234814
  21.8049756   61.0201
  21.8056531   61.0194899
  21.8065664   61.0191656
  21.8089041   61.0190056
  21.8107484   61.0184783
  21.811228    61.0181866
  21.8120799   61.017825
  21.8127284   61.0179654
  21.8153214   61.0172373
  21.818829    61.0162863
  21.8200003   61.0159579
  21.8229217   61.0151576
  21.8260969   61.0142721
  21.826655    61.0141296
  21.8286058   61.0135917
  21.8311852   61.012884
  21.8339384   61.0121252
  21.833668    61.0117986
  21.8331371   61.0117976
  21.8322079   61.0110513
  21.8330512   61.0110491
  21.8334465   61.0109843
  21.8347706   61.0107373
  21.8355229   61.011004
  21.8347614   61.0114552
  21.8345945   61.0119317
  21.835525    61.0116864
  21.8397164   61.0105712
  21.8440946   61.0094061
  21.8445891   61.0090699
  21.8443432   61.0089279
  21.8446087   61.008692
  21.8451449   61.0087204
  21.8465331   61.0078427
  21.8475094   61.0072105
  21.8470707   61.0069363
  21.8472621   61.0068346
  21.8478345   61.0070215
  21.8490595   61.0062447
  21.850824    61.0050897
  21.8527913   61.0037941
  21.8544431   61.0027085
  21.8551054   61.0022754
  21.8569894   61.0010311
  21.8620752   60.9976953
  21.864008    60.9964304
  21.8646187   60.9956595
  21.8648748   60.9953572
  21.8653821   60.994715
  21.8672371   60.9923938
  21.8701061   60.992641
  21.8716288   60.9919016
  21.8724012   60.9917
  21.8726254   60.9914509
  21.8730298   60.9910247
  21.8719617   60.9898864
  21.8722967   60.989571
  21.8735449   60.9889716
  21.8728623   60.9882501
  21.8729489   60.988155
  21.873308    60.9877757
  21.8717991   60.9863109
  21.8720969   60.9861888
  21.8740331   60.9863261
  21.8764481   60.9843252
  21.8776898   60.9832881
  21.8770446   60.982775
  21.8784697   60.9822206
  21.8805927   60.9810843
  21.8838352   60.9825656
  21.8844943   60.9826294
  21.8848011   60.9825635
  21.8850673   60.9825014
  21.8851828   60.9824709
  21.8855004   60.9823797
  21.8855572   60.982365
  21.8856909   60.9823346
  21.8859531   60.9822836
  21.8863256   60.9822053
  21.8867377   60.9821086
  21.8869766   60.9820609
  21.8870578   60.9820461
  21.887097    60.9820421
  21.8871338   60.9820412
  21.8871705   60.982043
  21.8874876   60.9820828
  21.8875959   60.9820938
  21.8876709   60.9820999
  21.8877808   60.9821064
  21.887928    60.9821111
  21.8882285   60.9821126
  21.8884301   60.9821152
  21.8885039   60.9821141
  21.8885791   60.9821104
  21.8886874   60.9820993
  21.8890042   60.9820461
  21.8891602   60.9820232
  21.8891936   60.9820156
  21.8892268   60.9820048
  21.8892533   60.9819924
  21.8892756   60.9819781
  21.8892941   60.9819626
  21.8893376   60.9819153
  21.88945     60.9818023
  21.8894701   60.9817784
  21.8895129   60.9817098
  21.8895582   60.9816262
  21.8896237   60.9815234
  21.8896665   60.9814106
  21.8896886   60.9813648
  21.8949719   60.9832846
  21.9029692   60.9861598
  21.9057323   60.9849665
  21.9112051   60.9826148
  21.9175675   60.9798606
  21.9199656   60.9800624
  21.9200874   60.9800633
  21.9200896   60.9800824
  21.9207068   60.9800276
  21.9215713   60.9796457
  21.9220204   60.9795268
  21.9219841   60.9794849
  21.9217713   60.9792131
  21.921446    60.9791797
  21.9206147   60.9792309
  21.9203573   60.9790058
  21.9201104   60.9787657
  21.9206876   60.9785326
  21.926154    60.9761536
  21.9476559   60.9768351
  21.9513652   60.9769361
  21.9509072   60.9749961
  21.9502325   60.9720192
  21.9492863   60.9682782
  21.9489602   60.9666872
  21.9482504   60.9636846
  21.9476662   60.9612362
  21.9474157   60.9601631
  21.9473689   60.9599627
  21.9466495   60.9569602
  21.9441714   60.946519
  21.9538463   60.9395043
  21.954277    60.9391812
  21.9677161   60.930771
  21.9680953   60.9305359
  21.9689554   60.9308008
  21.9696392   60.9299014
  21.9695237   60.9295999
  21.9723467   60.927846
  21.9745866   60.9264407
  21.9795112   60.9233572
  21.9853577   60.9196825
  21.9967571   60.9125495
  21.9965131   60.9122318
  21.9949282   60.9107112
  21.9939365   60.9096902
  21.9933001   60.909081
  21.9897795   60.9055283
  21.9852143   60.9010018
  21.9980802   60.8972532
  21.9981236   60.8973514
  21.9981461   60.8973855
  21.9982262   60.8974685
  21.9982853   60.8975343
  21.9983262   60.8975704
  21.9983674   60.8976002
  21.9984748   60.8976682
  21.9985724   60.897743
  21.9985942   60.8977575
  21.998673    60.8978006
  21.9987185   60.8978284
  21.9987388   60.8978433
  21.9988728   60.8979606
  21.9989281   60.8980017
  21.9989724   60.8980304
  21.9990947   60.8980971
  21.9991391   60.8981256
  21.9992179   60.8981988
  21.9992378   60.8982139
  21.9993125   60.8982574
  21.9993273   60.8982678
  21.9993629   60.8982991
  21.9994276   60.8983635
  21.9995357   60.8984393
  21.9996633   60.8985367
  21.9997115   60.8985662
  21.9998111   60.898619
  21.999867    60.8986572
  21.9999004   60.8986852
  21.9999849   60.8987648
  22.0000213   60.898796
  22.0001082   60.89886
  22.0002009   60.8989576
  22.0002787   60.8990159
  22.0003158   60.8990469
  22.0003628   60.899105
  22.0003938   60.8991375
  22.0004221   60.8991576
  22.0005175   60.8992122
  22.0005394   60.8992267
  22.0005955   60.899273
  22.0006891   60.8993787
  22.0008683   60.8996331
  22.0065776   60.8978644
  22.0081004   60.8974508
  22.0081489   60.8974401
  22.0084365   60.8977362
  22.0087443   60.8980279
  22.0093498   60.8986116
  22.0098806   60.8991282
  22.0117754   60.9009507
  22.0179062   60.9011045
  22.0198723   60.9011586
  22.0288083   60.9013878
  22.0323382   60.9014583
  22.0432298   60.9017388
  22.052819    60.9019666
  22.0564363   60.9020837
  22.0608878   60.9021692
  22.0613959   60.9021828
  22.0616675   60.9021982
  22.0670193   60.9023799
  22.0705506   60.9024827
  22.0743093   60.9025787
  22.0832856   60.9028496
  22.0866471   60.9029584
  22.096774    60.9032671
  22.1001873   60.9033692
  22.1007402   60.9033869
  22.1033743   60.9034654
  22.1050335   60.9035127
  22.1139749   60.903773
  22.1198599   60.9039487
  22.1284673   60.9042054
  22.130708    60.9020265
  22.1336913   60.8990955
  22.1414718   60.891074
  22.1475872   60.8849256
  22.1603116   60.8720007
  22.1678954   60.874952
  22.1668471   60.8756293
  22.1709649   60.8771717
  22.186159    60.8944431
  22.1888533   60.8974704
  22.1992697   60.8950276
  22.2139253   60.8915622
  22.2150196   60.8929087
  22.2181524   60.8952468
  22.2166483   60.895682
  22.2115199   60.8941164
  22.2000829   60.8975397
  22.1887533   60.9010149
  22.1957056   60.9042079
  22.2028661   60.907468
  22.2079579   60.9097897
  22.2218196   60.9161112
  22.228171    60.9189794
  22.2288362   60.9196051
  22.228922    60.9202309
  22.2311107   60.920794
  22.2339861   60.9220768
  22.2376553   60.9225356
  22.2394599   60.9233626
  22.2401659   60.9241415
  22.2412602   60.9238078
  22.2636223   60.9268677
  22.2689216   60.9234589
  22.2697448   60.9229293
  22.2710864   60.9220663
  22.2885958   60.9195217
  22.2900979   60.9193235
  22.2981002   60.9181615
  22.3004833   60.9178261
  22.3131016   60.9160157
  22.3151132   60.9162294
  22.3159343   60.9163167
  22.3199884   60.9167474
  22.3297516   60.9199597
  22.3528637   60.9278254
  22.3645345   60.931805
  22.4146811   60.935808
  22.4198653   60.9370776
  22.4203631   60.9371996
  22.4203379   60.9372759
  22.420177    60.9373072
  22.4200804   60.9378388
  22.4202911   60.93788
  22.4212901   60.9380751
  22.4218909   60.9381794
  22.4216549   60.9378041
  22.4214188   60.937554
  22.4213437   60.9374445
  22.4278003   60.9390122
  22.4313001   60.9398366
  22.4504103   60.9423775
  22.4502008   60.9425633
  22.4494232   60.9432529
  22.446932    60.9442815
  22.446696    60.9445316
  22.4466101   60.9447921
  22.446505    60.9450766
  22.4451746   60.9456081
  22.4440135   60.9454543
  22.4439944   60.9454518
  22.443179    60.9458165
  22.4437584   60.946275
  22.443164    60.9466449
  22.4436082   60.9469107
  22.4444862   60.9465127
  22.4452175   60.9461812
  22.4451532   60.9458373
  22.447256    60.9450871
  22.4474706   60.9444514
  22.4482216   60.9441492
  22.4488224   60.94417
  22.4495927   60.9437083
  22.4499382   60.9436073
  22.4521462   60.9430935
  22.4526848   60.9426693
  22.4652354   60.9443024
  22.481157    60.946324
  22.4921648   60.9478766
  22.4967138   60.948283
  22.5068821   60.9495488
  22.5090868   60.9498233
  22.5097853   60.9499102
  22.5099276   60.949928
  22.5110261   60.9500647
  22.5112857   60.9498595
  22.5115217   60.9497923
  22.5135173   60.9492239
  22.5143388   60.9481839
  22.5147189   60.9477026
  22.5142683   60.9477859
  22.5140516   60.9476057
  22.5138821   60.9470253
  22.5144185   60.9463271
  22.5164119   60.9461677
  22.516648    60.9466991
  22.5162107   60.9469853
  22.5155129   60.9474421
  22.516918    60.9477809
  22.5170127   60.9478037
  22.5171801   60.9481569
  22.5178947   60.947911
  22.517723    60.9483486
  22.5163637   60.949562
  22.5167123   60.949773
  22.5168625   60.9499397
  22.5169019   60.9502264
  22.5169269   60.9504085
  22.516369    60.9507107
  22.519652    60.9511066
  22.5524512   60.9451074
  22.5728209   60.9413093
  22.5862308   60.9387909
  22.5833265   60.9405403
  22.5777282   60.9437997
  22.5717543   60.9472849
  22.5721406   60.9476288
  22.5714969   60.9479831
  22.570939    60.9478059
  22.5667118   60.9502441
  22.5665515   60.9502542
  22.562593    60.9526936
  22.5634942   60.9531207
  22.5632955   60.9533676
  22.5623205   60.9539858
  22.5623626   60.9541367
  22.5618347   60.9541259
  22.5609061   60.9542559
  22.5589154   60.9548228
  22.5589112   60.9548957
  22.558617    60.9550664
  22.5582186   60.9551001
  22.5583429   60.955915
  22.5583573   60.9563287
  22.5583718   60.9566242
  22.558711    60.9574235
  22.558482    60.9578204
  22.5586298   60.9579963
  22.5586965   60.9582749
  22.5587574   60.958652
  22.55874     60.9590896
  22.5595748   60.9593654
  22.5652013   60.9582285
  22.5656419   60.9587139
  22.5601893   60.960221
  22.5589777   60.9609611
  22.5578687   60.9615267
  22.5566877   60.9621289
  22.5561514   60.9624933
  22.5552992   60.9628479
  22.5548238   60.9630111
  22.5545571   60.9632433
  22.5542035   60.9632714
  22.5532817   60.9638426
  22.5522352   60.9641156
  22.5507134   60.9646572
  22.550438    60.9646108
  22.5501945   60.9646882
  22.5496322   60.9649428
  22.5490089   60.9654873
  22.5484785   60.9658967
  22.5479393   60.966171
  22.5474726   60.9664735
  22.5472407   60.9668322
  22.5473538   60.9670939
  22.5480351   60.9669851
  22.5484814   60.9669138
  22.5490031   60.9668772
  22.5495162   60.9667168
  22.5497945   60.9667703
  22.5505134   60.9667506
  22.5510033   60.9666184
  22.5511076   60.9663736
  22.5518062   60.9662793
  22.55247     60.9662934
  22.553157    60.9663469
  22.5532788   60.9661499
  22.5541861   60.9660036
  22.554473    60.9661668
  22.5544557   60.9665227
  22.5553601   60.966873
  22.5563601   60.9664707
  22.5585291   60.9654122
  22.558846    60.9652236
  22.5590626   60.9649352
  22.559679    60.9642465
  22.5607285   60.9640339
  22.5616793   60.9641808
  22.56188     60.9640123
  22.5614118   60.9638028
  22.561614    60.9635292
  22.5615169   60.9633243
  22.562369    60.9632207
  22.5630204   60.9630035
  22.5628898   60.9632532
  22.5632703   60.9633301
  22.5634228   60.963668
  22.5638159   60.9638927
  22.5640602   60.9639868
  22.5642714   60.9638673
  22.5668094   60.964245
  22.5668524   60.9640799
  22.5672865   60.964095
  22.5693557   60.9637928
  22.5682455   60.9621755
  22.5693594   60.9619922
  22.5695428   60.9622627
  22.5702926   60.9623032
  22.5711646   60.9623661
  22.5715586   60.9628401
  22.5720863   60.9634352
  22.5722853   60.9636596
  22.5716758   60.964041
  22.5708722   60.9641464
  22.5699563   60.9643402
  22.5683216   60.9645098
  22.5675081   60.9646285
  22.5670638   60.9650003
  22.5665822   60.9648949
  22.5658784   60.9650136
  22.5656538   60.9649422
  22.5645108   60.9641609
  22.5623171   60.9641864
  22.5620575   60.964511
  22.5613288   60.964511
  22.5601758   60.9646273
  22.5592674   60.9655708
  22.5587658   60.9656665
  22.5565596   60.9668135
  22.5567942   60.9669286
  22.5565796   60.9671987
  22.5559706   60.9672072
  22.555484    60.967298
  22.5551011   60.9673217
  22.5548334   60.9673383
  22.5546429   60.9673501
  22.5542661   60.9667348
  22.5541014   60.966581
  22.5536447   60.9665265
  22.5521448   60.9665519
  22.5511715   60.9669988
  22.5510891   60.9669819
  22.5509107   60.9669914
  22.5489428   60.9670957
  22.5488455   60.9671115
  22.5475927   60.96747
  22.5467916   60.9676226
  22.5461851   60.9675802
  22.545963    60.9676093
  22.5453316   60.9681858
  22.5448774   60.9684982
  22.5438667   60.9689803
  22.5441537   60.9693508
  22.5439241   60.9694853
  22.5434374   60.9691365
  22.5428434   60.9690008
  22.5419026   60.9693678
  22.5414059   60.9696851
  22.541089    60.9699382
  22.541089    60.9701925
  22.5403453   60.970201
  22.5401182   60.9707424
  22.5392622   60.9711238
  22.5388254   60.9713636
  22.5385185   60.9714593
  22.5370211   60.9717996
  22.5367116   60.9721762
  22.5364296   60.9723409
  22.5359155   60.9724995
  22.5352966   60.9724995
  22.5352941   60.9725564
  22.5352766   60.9725928
  22.5352092   60.9726303
  22.5350794   60.9726594
  22.5348673   60.9726691
  22.5346727   60.9726727
  22.5345354   60.972663
  22.5344381   60.9726509
  22.5343283   60.9726243
  22.5340987   60.9725262
  22.5336045   60.9726703
  22.5335496   60.9727296
  22.5337642   60.9729246
  22.5334099   60.9730505
  22.53335     60.9729185
  22.5328458   60.9730735
  22.5322369   60.9729851
  22.5324989   60.9731837
  22.5323093   60.97326
  22.5319324   60.9730662
  22.5309416   60.9734102
  22.5312885   60.9738025
  22.5307794   60.9740096
  22.5303577   60.9738255
  22.5300856   60.9739066
  22.5302853   60.9740701
  22.530148    60.9742336
  22.5295915   60.9743123
  22.5286955   60.9743232
  22.5272031   60.9745835
  22.5269511   60.9744273
  22.5266042   60.9744394
  22.5265717   60.9744007
  22.5265143   60.9743644
  22.5264245   60.9743256
  22.5263322   60.9743074
  22.5264969   60.9741682
  22.5273179   60.9741864
  22.5287604   60.9738679
  22.5298719   60.9736966
  22.5308259   60.9733357
  22.5307686   60.9732986
  22.530708    60.9732515
  22.5306889   60.9732159
  22.5306666   60.9731054
  22.5306619   60.9729988
  22.5306634   60.9729393
  22.5306794   60.9728775
  22.5307064   60.9728326
  22.5307542   60.9727793
  22.5308179   60.9727438
  22.5308976   60.972719
  22.5310138   60.9726912
  22.5311842   60.9726595
  22.5313776   60.9726368
  22.5316133   60.9725437
  22.5320342   60.972431
  22.5325089   60.9726859
  22.5329196   60.9726123
  22.53295     60.972431
  22.5337513   60.9722513
  22.5346116   60.972283
  22.5349532   60.9721662
  22.5348716   60.972112
  22.5348221   60.9720619
  22.5347899   60.9720108
  22.5347856   60.9719545
  22.5348135   60.9719128
  22.5349253   60.9718774
  22.5350563   60.971868
  22.5351595   60.9718784
  22.5352583   60.9719139
  22.53534     60.971965
  22.5359674   60.9718263
  22.5367279   60.9716334
  22.5367963   60.9715749
  22.5371295   60.9714742
  22.5372658   60.971447
  22.5373179   60.9713812
  22.537431    60.9713262
  22.537534    60.9712881
  22.5381135   60.9711671
  22.5386677   60.9709864
  22.5394808   60.9704552
  22.5395671   60.9699901
  22.5403029   60.9696837
  22.541334    60.9691988
  22.541979    60.9690334
  22.5446136   60.968079
  22.5451586   60.9673471
  22.5457401   60.9669547
  22.5481611   60.9657555
  22.5488243   60.9645827
  22.549442    60.9646576
  22.5502324   60.9643776
  22.5506003   60.9645518
  22.5532076   60.963628
  22.5534938   60.9634539
  22.5536618   60.9633811
  22.5538526   60.963326
  22.5555105   60.9624
  22.5554742   60.9618312
  22.5557377   60.9595117
  22.5559148   60.959591
  22.556955    60.9588458
  22.5575364   60.9577917
  22.5573788   60.9557148
  22.5549755   60.9571315
  22.5536022   60.9560585
  22.5520144   60.9566315
  22.5523063   60.9575309
  22.5524693   60.9580329
  22.5526366   60.9585482
  22.5521512   60.9588344
  22.5404476   60.9657337
  22.5390743   60.9665668
  22.5307384   60.9715023
  22.5306462   60.9715569
  22.5295204   60.9722228
  22.5287689   60.9726672
  22.5285945   60.9727703
  22.5262896   60.9741335
  22.5248489   60.9749707
  22.5253854   60.9748458
  22.5256858   60.9753143
  22.5254498   60.9753767
  22.5251923   60.975231
  22.5240765   60.9761783
  22.5234542   60.9764594
  22.5225744   60.9763345
  22.5224242   60.9764282
  22.5253414   60.9771663
  22.5278734   60.9778222
  22.5294827   60.9782594
  22.5308215   60.978602
  22.5334696   60.9792795
  22.5345682   60.9795606
  22.5357269   60.9799353
  22.5369929   60.9796855
  22.5385808   60.9803829
  22.5381731   60.9805599
  22.5388168   60.9809867
  22.5396322   60.9807681
  22.5404047   60.9811845
  22.5415699   60.9814874
  22.5454902   60.9825064
  22.5493662   60.9835439
  22.5690346   60.9879283
  22.5718402   60.988574
  22.5791358   60.9902182
  22.5896819   60.9899464
  22.5989198   60.9897083
  22.6036155   60.9895869
  22.6109506   60.9893974
  22.6112716   60.9893891
  22.6148156   60.9893222
  22.6208965   60.9891523
  22.6231858   60.9890801
  22.6246991   60.9890324
  22.626557    60.9889738
  22.6386862   60.9886555
  22.6478505   60.988415
  22.6490623   60.9883726
  22.649315    60.9883911
  22.6593186   60.9880794
  22.6664216   60.987897
  22.6671916   60.9878733
  22.6696805   60.9877968
  22.6715831   60.9877644
  22.6721178   60.9877497
  22.6741672   60.9876935
  22.6767284   60.9876232
  22.6841898   60.9874184
  22.7013552   60.9869474
  22.7015521   60.9869359
  22.7093965   60.9825919
  22.7504829   60.9894023
  22.7543624   60.9854019
  22.7567872   60.9862137
  22.7556252   60.9902088
  22.770946    60.9927374
  22.7726873   60.9930402
  22.7797683   60.9942055
  22.7840813   60.9962448
  22.7861614   60.9982323
  22.78627     60.998336
  22.7870607   60.9981789
  22.7878793   60.9978153
  22.7879323   60.9977555
  22.7881282   60.9974792
  22.7883235   60.9976056
  22.7927899   61.0003547
  22.7944625   60.9994476
  22.7951867   60.9989779
  22.7959163   60.9985409
  22.7969795   60.9981659
  22.7979644   60.9979406
  22.7988442   60.9977326
  22.79996     60.9974101
  22.8013977   60.9969627
  22.8026637   60.9964945
  22.804037    60.9959639
  22.8053244   60.9954645
  22.8064155   60.9950681
  22.8075957   60.9946623
  22.8086933   60.994372
  22.8098305   60.9941327
  22.8111148   60.9939028
  22.8123593   60.9937571
  22.814312    60.9935282
  22.8150201   60.9934658
  22.8159663   60.9934174
  22.8160854   60.9939319
  22.8172431   60.9965174
  22.8182634   60.9981903
  22.818257    60.9983334
  22.8186496   60.9990746
  22.8208165   61.0031837
  22.8228435   61.0068932
  22.8223586   61.0070518
  22.8233242   61.0089031
  22.8238821   61.0088615
  22.8246578   61.0104849
  22.8264388   61.0136253
  22.8259238   61.0182107
  22.8255161   61.0210905
  22.8254732   61.0221093
  22.8259452   61.0222549
  22.8266319   61.0233776
  22.8252983   61.0233661
  22.8253015   61.0239181
  22.8248938   61.0265064
  22.8179168   61.0322008
  22.815903    61.0326176
  22.8154063   61.0342169
  22.8148484   61.0346741
  22.8134354   61.0349973
  22.810603    61.0373353
  22.8112253   61.0375743
  22.8078103   61.0403266
  22.8066301   61.0403474
  22.8062868   61.0402331
  22.8065657   61.0397136
  22.8063082   61.039485
  22.8067159   61.0393396
  22.806526    61.0392887
  22.8061183   61.0393926
  22.8058576   61.0394227
  22.8058394   61.0398497
  22.8058823   61.040203
  22.8063329   61.0404108
  22.8065872   61.0406175
  22.8068265   61.0407744
  22.8072341   61.0408575
  22.8074273   61.0409718
  22.8074058   61.0411588
  22.8072341   61.0415848
  22.8074487   61.0417718
  22.8076172   61.0419993
  22.823689    61.0420409
  22.8270396   61.0455324
  22.8242898   61.0520752
  22.8362664   61.0601449
  22.8368886   61.0691147
  22.8271032   61.0740862
  22.8267574   61.0742619
  22.8256416   61.0748016
  22.8163107   61.0788084
  22.8191002   61.0870882
  22.8196978   61.0869523
  22.8201699   61.087388
  22.8195509   61.0874513
  22.8198051   61.0880001
  22.8193974   61.088052
  22.8208598   61.092275
  22.8235817   61.1006747
  22.8238821   61.1014317
  22.8478932   61.09228
  22.8532394   61.0902419
  22.8647589   61.0857904
  22.8646302   61.0872635
  22.8659853   61.0875758
  22.867763    61.0855414
  22.8685816   61.0850444
  22.8686428   61.0841719
  22.8698444   61.0837776
  22.8728997   61.078009
  22.8760285   61.0721005
  22.8803372   61.0637882
  22.8821826   61.0605592
  22.8822583   61.0601496
  22.8823328   61.0598324
  22.8822223   61.0595822
  22.8819895   61.0593652
  22.8820324   61.0592198
  22.8823113   61.0590225
  22.8829121   61.0588045
  22.8841814   61.0585044
  22.8847575   61.0583476
  22.8853798   61.0582437
  22.8857445   61.0581607
  22.8860482   61.0580475
  22.8862842   61.0578502
  22.8866704   61.0576529
  22.8869247   61.0574857
  22.8873142   61.0573518
  22.8880405   61.0572261
  22.8884482   61.0571015
  22.8887915   61.0569353
  22.889181    61.0568118
  22.8895211   61.0568107
  22.8899749   61.0568948
  22.8903579   61.0570496
  22.8908118   61.0570921
  22.8912163   61.05706
  22.8914523   61.0569457
  22.8914952   61.0567277
  22.8916025   61.0565304
  22.8918847   61.0562614
  22.8921636   61.0561368
  22.8924393   61.0560631
  22.8928041   61.0560631
  22.8931721   61.0560849
  22.8935369   61.0562199
  22.8939199   61.056385
  22.8943094   61.0564172
  22.8947139   61.0563538
  22.8952074   61.05625
  22.8958082   61.0561254
  22.8961333   61.0559706
  22.8962803   61.0557619
  22.8965378   61.0553257
  22.8967738   61.0551596
  22.8970957   61.0550869
  22.8974819   61.0550661
  22.897807    61.0551606
  22.8982973   61.0553154
  22.8986653   61.0553476
  22.8990268   61.0552946
  22.8992843   61.0550973
  22.8994592   61.0549945
  22.8998669   61.0549114
  22.9002102   61.0549841
  22.9005321   61.0551295
  22.9008078   61.0553257
  22.9010042   61.0554203
  22.9013657   61.0553984
  22.9016694   61.0552852
  22.9021414   61.0550256
  22.9025062   61.0549529
  22.9030823   61.0548896
  22.9040265   61.0548792
  22.9046702   61.0548792
  22.9051208   61.0549727
  22.9053998   61.0550661
  22.9057216   61.0550454
  22.9058075   61.0548896
  22.9059824   61.0546829
  22.9063471   61.0545375
  22.9067302   61.0545053
  22.9072881   61.054578
  22.9079103   61.054578
  22.9084897   61.0544742
  22.9092622   61.0543184
  22.9100776   61.0542873
  22.9106569   61.0542146
  22.9114079   61.0540796
  22.9120302   61.0540276
  22.9126954   61.0539653
  22.913146    61.0538511
  22.9134067   61.0536133
  22.9135966   61.0533318
  22.9139431   61.0531875
  22.9146826   61.0529921
  22.915295    61.0528136
  22.9157027   61.0526474
  22.9161395   61.0523921
  22.9164782   61.0522526
  22.9169869   61.0521894
  22.917459    61.0520336
  22.9178238   61.051909
  22.9183388   61.0517636
  22.9186821   61.0517324
  22.9189213   61.0518269
  22.9190481   61.0519644
  22.9191756   61.0521582
  22.9194546   61.0522309
  22.9198408   61.0522206
  22.9201663   61.0521734
  22.9219007   61.0533422
  22.9227161   61.0533526
  22.9230412   61.0536548
  22.923789    61.0535707
  22.9243254   61.0539861
  22.9247117   61.0541315
  22.9257663   61.0544441
  22.9260882   61.0546725
  22.9262781   61.0549
  22.9266032   61.0549633
  22.9270291   61.0549311
  22.9275259   61.0548179
  22.9280805   61.0547027
  22.9285955   61.0546507
  22.9290032   61.0545053
  22.9290032   61.05436
  22.9289421   61.0541533
  22.9285558   61.0539248
  22.9283842   61.0537587
  22.9283595   61.0536018
  22.9285311   61.0535291
  22.9289818   61.053498
  22.9297113   61.0535499
  22.9302263   61.0535291
  22.9305482   61.0534045
  22.9306801   61.0532705
  22.9306125   61.0529995
  22.9305482   61.0527502
  22.9305911   61.0526048
  22.9308303   61.0525228
  22.9311275   61.0524906
  22.9313882   61.0525643
  22.9317283   61.0526879
  22.9321393   61.0528759
  22.93293     61.0528645
  22.9331875   61.0527502
  22.9330802   61.0525944
  22.9326939   61.0523244
  22.9323109   61.0521385
  22.9320749   61.0520658
  22.9317927   61.0518986
  22.9317316   61.0517646
  22.9319676   61.0516296
  22.9322036   61.0514946
  22.9322219   61.0513481
  22.9319429   61.0511716
  22.9314526   61.0509753
  22.9311737   61.050861
  22.9309162   61.0507883
  22.9304838   61.0507873
  22.9300761   61.0508081
  22.9298433   61.0507364
  22.9299259   61.0505899
  22.9301222   61.0504767
  22.9304838   61.0504238
  22.9311093   61.050456
  22.9316211   61.0504861
  22.932136    61.0500706
  22.9323292   61.0499356
  22.932268    61.049812
  22.9320717   61.0496655
  22.931149    61.0494786
  22.9306672   61.0493823
  22.9301651   61.0492615
  22.9296931   61.0490538
  22.9294141   61.0488253
  22.9291781   61.0485344
  22.9287489   61.0483267
  22.9285955   61.0481387
  22.9287243   61.0479102
  22.9289603   61.047744
  22.9292178   61.047744
  22.9295214   61.0478489
  22.9297113   61.0481075
  22.9299044   61.0483256
  22.9302048   61.0483776
  22.9303765   61.0483776
  22.9305482   61.0482529
  22.9306769   61.0480244
  22.9308486   61.0477544
  22.9310417   61.0475258
  22.9312992   61.0474116
  22.9316243   61.0473191
  22.9320073   61.0472558
  22.9323077   61.0472765
  22.9328044   61.0474126
  22.9331016   61.0474739
  22.9334879   61.0474531
  22.9336381   61.0473493
  22.9334879   61.0471934
  22.9331692   61.0469452
  22.9327369   61.0466429
  22.9326972   61.0464258
  22.9328656   61.0461339
  22.9329729   61.0459158
  22.9332518   61.0458223
  22.933534    61.045761
  22.9339632   61.0458233
  22.9345608   61.0457496
  22.9351616   61.0456872
  22.9353976   61.0455314
  22.9354405   61.0452405
  22.935462    61.045012
  22.9356583   61.0448053
  22.9360628   61.0447627
  22.9365166   61.0448157
  22.9367924   61.0447835
  22.9371389   61.0447014
  22.9376292   61.0447315
  22.9381903   61.0448676
  22.9387879   61.0448666
  22.9391742   61.0447107
  22.9395389   61.04469
  22.9402041   61.04469
  22.9413843   61.0447731
  22.9417705   61.0448354
  22.9420742   61.045013
  22.9424143   61.0450328
  22.9426964   61.0449715
  22.9429754   61.0447014
  22.943295    61.0444868
  22.9436406   61.0444105
  22.9439993   61.0444334
  22.9444527   61.0446173
  22.9450782   61.0447845
  22.9455256   61.0446588
  22.9460438   61.0445456
  22.9466017   61.044556
  22.9474815   61.0447326
  22.9481467   61.0448364
  22.9487904   61.0448468
  22.9491091   61.0447939
  22.9492593   61.0447004
  22.9492163   61.0445445
  22.9487904   61.0442339
  22.9487074   61.0440763
  22.9487872   61.043942
  22.9493269   61.0437664
  22.9498418   61.0436522
  22.9501819   61.0436823
  22.9503568   61.0438288
  22.9506111   61.0442537
  22.9506969   61.0444926
  22.9510005   61.0446495
  22.9516196   61.0446173
  22.952052    61.0445248
  22.9523062   61.0444199
  22.9523062   61.0442121
  22.9522204   61.0439732
  22.9520702   61.0437238
  22.9520917   61.0435784
  22.9522419   61.0434953
  22.9527354   61.0433914
  22.9532289   61.0433602
  22.9536828   61.0433925
  22.9539799   61.0434641
  22.9542374   61.0436304
  22.9544552   61.0437768
  22.9545411   61.0439534
  22.9544123   61.0440885
  22.9541334   61.0441508
  22.9538544   61.0441404
  22.9535723   61.0442121
  22.9532075   61.0443783
  22.9530777   61.0445362
  22.9532933   61.0447627
  22.9535755   61.0448157
  22.9537654   61.0448873
  22.9541731   61.0448873
  22.9546451   61.044877
  22.9548168   61.0448042
  22.955099    61.0447014
  22.9553747   61.0446796
  22.9557212   61.0447637
  22.9559541   61.0449289
  22.9562545   61.0452198
  22.956365    61.045387
  22.956601    61.0455844
  22.9568767   61.0457807
  22.9572018   61.0458545
  22.9577565   61.0459158
  22.958382    61.0461038
  22.9590472   61.0462492
  22.9594517   61.0462793
  22.9597124   61.0462804
  22.9600557   61.0461869
  22.9604816   61.0458846
  22.9607852   61.045709
  22.9611039   61.0456457
  22.9617691   61.0456145
  22.9622412   61.0456041
  22.9625416   61.0455626
  22.9626703   61.0454587
  22.9626059   61.0453133
  22.9623517   61.0451896
  22.9623484   61.0450328
  22.9624557   61.0449185
  22.9627132   61.0449081
  22.963078    61.0449912
  22.9633387   61.0449299
  22.9634213   61.0447211
  22.963593    61.0444718
  22.9639792   61.0442641
  22.9643687   61.0440677
  22.9646659   61.0439732
  22.9649877   61.0440043
  22.965374    61.0440147
  22.9656315   61.0439108
  22.965889    61.043807
  22.9662967   61.0437238
  22.9666003   61.043621
  22.96664     61.0434849
  22.9665756   61.0432564
  22.9666185   61.043059
  22.9669007   61.0428315
  22.9670048   61.0426226
  22.9673266   61.0425084
  22.9675444   61.0426133
  22.9676517   61.0428626
  22.9679307   61.0430808
  22.9681667   61.0432158
  22.96851     61.0432574
  22.9690501   61.043186
  22.9694364   61.0430717
  22.9697797   61.0429263
  22.9701874   61.0428224
  22.9707378   61.0427164
  22.9709309   61.042706
  22.9711959   61.0427705
  22.9715317   61.0428099
  22.9725402   61.0428203
  22.9835233   61.0376904
  22.9907449   61.0343065
  22.9975491   61.0311458
  23.0162999   61.0223913
  23.0260557   61.0245411
  23.0356689   61.026661
  23.0401963   61.0276594
  23.0414194   61.0271501
  23.0423066   61.0268507
  23.0435726   61.0263206
  23.0442593   61.0261127
  23.0450886   61.0259131
  23.0461615   61.0256533
  23.0469629   61.0254891
  23.0478352   61.0253622
  23.0485648   61.0252895
  23.0487868   61.0254994
  23.0487364   61.0256949
  23.0472204   61.0261335
  23.0464909   61.0263102
  23.0458396   61.0264121
  23.0449384   61.0265368
  23.0439299   61.0269941
  23.043122    61.0273288
  23.0414408   61.0279192
  23.0553454   61.0309852
  23.0763954   61.0321388
  23.0831868   61.0325113
  23.1074081   61.0338872
  23.1196969   61.0330845
  23.1300707   61.0325098
  23.1365931   61.0321153
  23.1480479   61.0314175
  23.1580418   61.0232209
  23.1588158   61.0212888
  23.1602949   61.0175965
  23.1623817   61.0120132
  23.1638354   61.0081233
  23.1643074   61.0072809
  23.165037    61.0054504
  23.1658095   61.0053568
  23.1871245   61.0024069
  23.1903002   61.0019263
  23.1954093   61.0012194
  23.2131835   60.9883837
  23.254967    60.96361
  23.293419    60.954611
  23.2926039   60.9438274
  23.290672    60.918253
  23.252563    60.919421
  23.2635056   60.8959916
  23.2636222   60.8957417
  23.2656616   60.8913732
  23.266665    60.8891121
  23.2661979   60.8891273
  23.261323    60.8892986
  23.2596093   60.8893607
  23.2572099   60.8894457
  23.2528399   60.8896056
  23.2466351   60.8898071
  23.225319    60.8904928
  23.2210225   60.8906152
  23.2141997   60.8907823
  23.205247    60.8910158
  23.1997542   60.8911919
  23.195535    60.8913263
  23.191893    60.8914514
  23.1890524   60.891567
  23.1842467   60.891755
  23.1808459   60.8918814
  23.1809903   60.8918129
  23.179674    60.8918267
  23.1769795   60.8919185
  23.1645787   60.8922849
  23.161535    60.8923305
  23.1552436   60.8924298
  23.1462589   60.8905653
  23.1447512   60.8895682
  23.1379971   60.8850921
  23.1356415   60.8835182
  23.1365411   60.8823703
  23.1364989   60.8819184
  23.1366848   60.881694
  23.1367818   60.881118
  23.1371174   60.8802829
  23.1375066   60.8792718
  23.137208    60.8790248
  23.1367095   60.8789908
  23.1366289   60.878377
  23.1365392   60.8776602
  23.1365063   60.8770251
  23.1365055   60.8767156
  23.1364785   60.8760038
  23.1364555   60.8754879
  23.1363499   60.8754918
  23.1363887   60.8751125
  23.1366346   60.8746521
  23.1368774   60.8738148
  23.1367832   60.8730105
  23.1371539   60.8726639
  23.1377588   60.8720838
  23.137805    60.8700831
  23.1369975   60.8694467
  23.1365148   60.8682695
  23.1366873   60.862934
  23.1433538   60.8604289
  23.1368136   60.8599021
  23.1370336   60.8556824
  23.1388338   60.8557992
  23.1393703   60.8547659
  23.1370944   60.853321
  23.1371218   60.8501186
  23.1408179   60.849549
  23.1423063   60.848191
  23.140832    60.8460247
  23.1387246   60.8456885
  23.1384799   60.8448064
  23.1382094   60.8437453
  23.1379665   60.8427919
  23.1374514   60.8407703
  23.1378952   60.840633
  23.138118    60.8405663
  23.1383247   60.8404814
  23.1386251   60.840358
  23.1388932   60.8402241
  23.1391257   60.8400905
  23.1399281   60.8395931
  23.1422629   60.8383277
  23.1426325   60.8378185
  23.221235    60.829812
  23.229389    60.825586
  23.2042589   60.8174856
  23.1991091   60.8179041
  23.154716    60.77425
  23.18271     60.7578997
  23.237627    60.7351988
  23.2366228   60.7340324
  23.2400045   60.7329834
  23.2419786   60.7335792
  23.2431888   60.7328365
  23.2454462   60.7333442
  23.2524156   60.7304069
  23.2510216   60.7299001
  23.2582178   60.7265837
  23.277626    60.711327
  23.2788686   60.7184448
  23.2770576   60.7191249
  23.2786369   60.7258408
  23.2864633   60.7256811
  23.333244    60.718045
  23.4082831   60.739553
  23.454266    60.748676
  23.4795      60.746411
  23.487568    60.748173
  23.4895847   60.7450912
  23.5021362   60.7439892
  23.5004013   60.7423609
  23.5001585   60.7422192
  23.4983063   60.7415018
  23.4993988   60.740496
  23.5016103   60.7400609
  23.50076     60.7318062
  23.5003283   60.7274575
  23.5003268   60.7274449
  23.5130343   60.7235185
  23.5294505   60.7183898
  23.5314033   60.7156569
  23.5330302   60.7132247
  23.5352334   60.710075
  23.5371651   60.7071918
  23.5392459   60.7043232
  23.5608712   60.6983983
  23.5691252   60.6961509
  23.5742403   60.6947533
  23.575885    60.6943165
  23.5828973   60.6949434
  23.5896219   60.6956157
  23.6117809   60.6945321
  23.6133893   60.6944363
  23.6206932   60.6941564
  23.6229468   60.6939976
  23.6242312   60.6938857
  23.6259201   60.6937971
  23.6427343   60.6906076
  23.6434956   60.6896288
  23.6441471   60.690334
  23.6815574   60.6832278
  23.6775065   60.6768977
  23.6766455   60.6769969
  23.674026    60.67272
  23.6730319   60.6709872
  23.6729503   60.6708559
  23.6729186   60.6708186
  23.6729018   60.6707705
  23.6728933   60.6707301
  23.6729007   60.6706919
  23.6729376   60.6706752
  23.6730157   60.6706676
  23.6730775   60.6706734
  23.6731436   60.670704
  23.6732009   60.6707042
  23.6732337   60.6706605
  23.6733056   60.6706046
  23.6733998   60.6705903
  23.6735309   60.6705649
  23.6736443   60.6704979
  23.6736246   60.6704293
  23.6736004   60.6703954
  23.6735909   60.670382
  23.673507    60.6703143
  23.6734803   60.6702626
  23.6734947   60.6702188
  23.6735852   60.6701472
  23.673696    60.6700926
  23.6738045   60.670048
  23.6738719   60.6699853
  23.6738822   60.669909
  23.6738551   60.6698752
  23.6738282   60.6698369
  23.6737946   60.6697806
  23.6737361   60.6697052
  23.6736935   60.6696387
  23.6736372   60.6695644
  23.6735583   60.669472
  23.67347     60.6693942
  23.673377    60.669322
  23.673264    60.6692092
  23.6731439   60.66911
  23.6730745   60.6690014
  23.6746256   60.6691993
  23.67692     60.6662858
  23.6820157   60.6599765
  23.6815829   60.6582502
  23.6834994   60.6580547
  23.684154    60.6572421
  23.7123829   60.6634467
  23.7126877   60.6635131
  23.7138347   60.6637915
  23.7173556   60.6625929
  23.7311278   60.6584051
  23.7313059   60.6583451
  23.7340947   60.6568071
  23.7359237   60.6569318
  23.7360682   60.6569416
  23.7441453   60.6544212
  23.7464344   60.6516503
  23.7478276   60.6531633
  23.7479291   60.653282
  23.7482428   60.6532344
  23.763969    60.6539099
  23.7641373   60.6538992
  23.7715179   60.6542158
  23.7717147   60.6542305
  23.7721886   60.6540619
  23.7720605   60.6540449
  23.7740041   60.6534953
  23.775902    60.6527971
  23.7766145   60.6536099
  23.7753931   60.653838
  23.7733878   60.6543145
  23.7983909   60.6553349
  23.7974456   60.6561237
  23.793561    60.6570908
  23.7947326   60.6580908
  23.8006872   60.6572432
  23.8004284   60.6554213
  23.8142061   60.6560392
  23.815397    60.6559323
  23.8583066   60.6520794
  23.8654219   60.6514582
  23.8654864   60.6515226
  23.8655793   60.6515915
  23.8658356   60.651726
  23.8659421   60.6517368
  23.8662102   60.6517249
  23.8663246   60.6517544
  23.8663636   60.6517934
  23.8663997   60.6519364
  23.8664861   60.6521033
  23.8665331   60.6523317
  23.8665097   60.6524603
  23.8664215   60.65255
  23.8660623   60.6527846
  23.866011    60.6528748
  23.8660791   60.6529033
  23.8662909   60.6529155
  23.8663989   60.652945
  23.8670257   60.6533707
  23.8672809   60.6534968
  23.8674419   60.6535323
  23.8677622   60.6535289
  23.8684956   60.6533303
  23.8688062   60.653302
  23.8690551   60.6533093
  23.8692063   60.6533393
  23.8693464   60.6533883
  23.8697044   60.6535667
  23.8699992   60.6537447
  23.8703563   60.6538755
  23.8709243   60.6539914
  23.8711407   60.654007
  23.8713396   60.6540006
  23.8717969   60.6539497
  23.8723157   60.6538583
  23.8724065   60.6538286
  23.8724623   60.6537761
  23.8724651   60.6536733
  23.8725062   60.6536155
  23.8727956   60.6534853
  23.8728651   60.6534349
  23.8728636   60.6532042
  23.8729135   60.6530985
  23.873356    60.652743
  23.8733689   60.652737
  23.8734107   60.6527214
  23.8734628   60.6527077
  23.8737125   60.6526784
  23.8738628   60.6526079
  23.8740445   60.6525958
  23.874307    60.6525107
  23.8745426   60.6524631
  23.8748199   60.6524382
  23.8751781   60.6523664
  23.8754312   60.6522845
  23.8754775   60.6522573
  23.8754897   60.6521767
  23.8755371   60.6521424
  23.8757366   60.6520922
  23.8760574   60.6520377
  23.8763032   60.6519204
  23.8766304   60.6515829
  23.8768738   60.6513855
  23.8770058   60.6513288
  23.8771621   60.651311
  23.8772519   60.6513601
  23.8774373   60.6513475
  23.8775764   60.6513872
  23.8777046   60.6513832
  23.877864    60.6514345
  23.8779709   60.6514401
  23.8780657   60.6514094
  23.8780084   60.6513476
  23.8780899   60.6512995
  23.8785913   60.6512194
  23.8789385   60.6511859
  23.8794066   60.6510985
  23.879488    60.6511152
  23.8796552   60.6512176
  23.8798371   60.6512744
  23.8800081   60.6512778
  23.8802031   60.6512533
  23.8803922   60.6512753
  23.8804482   60.6512698
  23.8806696   60.6511731
  23.880929    60.6511115
  23.8810921   60.6510548
  23.8816088   60.6508138
  23.882084    60.6506997
  23.8824378   60.6505772
  23.8828747   60.6503476
  23.8830303   60.6503374
  23.8833601   60.6504018
  23.8835766   60.6503979
  23.8836346   60.650352
  23.8837359   60.65017
  23.8838351   60.6501197
  23.883938    60.650102
  23.8841408   60.6501105
  23.8846028   60.6501991
  23.8847118   60.6502018
  23.8847885   60.6501739
  23.8847639   60.6501043
  23.8847808   60.6500703
  23.8849371   60.6500394
  23.8849545   60.6499573
  23.885025    60.6499121
  23.8850835   60.6499049
  23.8851133   60.6499148
  23.8853096   60.6500564
  23.885421    60.6500582
  23.8856025   60.6499854
  23.8857776   60.6499529
  23.8858826   60.6498718
  23.8860283   60.6498905
  23.8861155   60.6498796
  23.8865876   60.6496835
  23.8868016   60.6496456
  23.9005068   60.6497568
  23.8930763   60.6431737
  23.8850885   60.635976
  23.8824578   60.6335909
  23.8664062   60.6186398
  23.8758136   60.6165047
  23.8789513   60.615759
  23.8883268   60.6136113
  23.8975705   60.6115084
  23.8976552   60.6114592
  23.9046139   60.6098607
  23.9094267   60.6087553
  23.9205482   60.6060876
  23.9174294   60.6012842
  23.9082692   60.5868689
  23.8894857   60.5744801
  23.8891492   60.5742019
  23.8890699   60.5741048
  23.8891128   60.5738481
  23.8890641   60.573008
  23.8889511   60.5719651
  23.8877642   60.5613237
  23.887509    60.5585098
  23.8624475   60.5573353
  23.8599792   60.5571804
  23.844492    60.5564236
  23.8455496   60.5546294
  23.8459938   60.5540264
  23.8644605   60.5387437
  23.8653735   60.535899
  23.8594555   60.534438
  23.8583568   60.5341766
  23.8537411   60.5327508
  23.8548136   60.5321562
  23.851551    60.5305982
  23.8522246   60.52949
  23.8537303   60.5288282
  23.8552082   60.5284967
  23.8565178   60.5275317
  23.8564312   60.5260725
  23.8580344   60.5257019
  23.8588829   60.5252495
  23.858968    60.5242039
  23.8601166   60.5242002
  23.8607185   60.5230429
  23.8612965   60.5239557
  23.8645767   60.5214948
  23.8718494   60.5079347
  23.8683376   60.5055043
  23.8677591   60.5051323
  23.8675144   60.5049792
  23.8524514   60.497987
  23.8376276   60.4912811
  23.8230239   60.4946358
  23.7374847   60.4903698
  23.7206695   60.4798636
  23.709431    60.4728391
  23.7151715   60.4648374
  23.6971801   60.4515652
  23.6968325   60.4515162
  23.696406    60.4514279
  23.6959004   60.4513591
  23.6957697   60.4513327
  23.6956644   60.4513013
  23.6955243   60.4512447
  23.695258    60.4511105
  23.6950213   60.4509828
  23.6949275   60.4509438
  23.6948508   60.4509189
  23.694733    60.4508945
  23.6946083   60.45088
  23.6941563   60.4508466
  23.6939692   60.4508257
  23.693805    60.4507989
  23.6936004   60.4507487
  23.693349    60.4506776
  23.6928836   60.4505261
  23.6927971   60.4504934
  23.6927254   60.4504606
  23.6926704   60.4504196
  23.6926268   60.4503697
  23.6925128   60.4501878
  23.6922296   60.4499015
  23.6947634   60.4499079
  23.6994678   60.4499206
  23.7050039   60.4499775
  23.7116389   60.4500171
  23.737873    60.4500947
  23.779299    60.450174
  23.7827081   60.4501849
  23.7841401   60.4501868
  23.7866104   60.4441725
  23.7922043   60.4312195
  23.7923861   60.4308072
  23.7962516   60.4297145
  23.7953408   60.4293145
  23.7952239   60.4293446
  23.794827    60.4292776
  23.7940577   60.4289148
  23.7938585   60.428485
  23.7934968   60.4282373
  23.7933418   60.4279423
  23.7930733   60.4277711
  23.790945    60.4235722
  23.7843857   60.404837
  23.7878211   60.3952106
  23.7887247   60.392559
  23.789026    60.3917812
  23.7897427   60.3898151
  23.7898773   60.3894279
  23.7900091   60.3890515
  23.7904868   60.3878254
  23.7898338   60.3877942
  23.7896913   60.3877835
  23.7880717   60.3876618
  23.7884406   60.3869624
  23.7866565   60.3861071
  23.7814389   60.385548
  23.7802574   60.3859836
  23.7797569   60.3862096
  23.7779552   60.3869363
  23.7776911   60.3870439
  23.7776129   60.3870917
  23.777573    60.3871314
  23.7775231   60.3872182
  23.7775154   60.387263
  23.7774991   60.3873275
  23.7774973   60.3873422
  23.7774966   60.3873849
  23.7774862   60.3874039
  23.7774403   60.3874212
  23.777363    60.3874372
  23.7772113   60.3874549
  23.7771469   60.3874643
  23.7770348   60.3874837
  23.776815    60.387508
  23.776551    60.3875673
  23.7765025   60.3875622
  23.7764334   60.3875582
  23.7763587   60.3875683
  23.7763033   60.3875822
  23.7762896   60.3876016
  23.7762816   60.3876303
  23.7762376   60.3876796
  23.7762272   60.3876998
  23.7762192   60.3877364
  23.7762289   60.3878092
  23.7762326   60.3878514
  23.7762138   60.3878856
  23.776194    60.3878958
  23.7761578   60.3879046
  23.7761049   60.3879122
  23.7760251   60.3879137
  23.77584     60.3879102
  23.7747225   60.3879566
  23.7745341   60.3879746
  23.7744996   60.387976
  23.7743551   60.387983
  23.7737562   60.3880259
  23.7728294   60.3881141
  23.7724607   60.3881342
  23.771635    60.3881983
  23.7670823   60.388546
  23.7666355   60.3878958
  23.7664999   60.3876597
  23.7665302   60.3875409
  23.7668848   60.386127
  23.769183    60.3867175
  23.7716958   60.3869479
  23.7720769   60.3867976
  23.773575    60.3876064
  23.7738238   60.3877424
  23.7755507   60.38789
  23.7755064   60.3878632
  23.7755494   60.3878671
  23.775123    60.3876371
  23.7717018   60.3856267
  23.765277    60.3818408
  23.7641539   60.3811882
  23.7624628   60.3802089
  23.7616464   60.3797018
  23.7548041   60.3757633
  23.7543224   60.3754638
  23.7533047   60.374851
  23.751563    60.3738759
  23.7456866   60.3715547
  23.7423058   60.3702501
  23.741665    60.3700029
  23.7231792   60.3687584
  23.723551    60.367121
  23.723627    60.3659035
  23.7243447   60.3638344
  23.7236704   60.3626096
  23.7234466   60.3618817
  23.7226001   60.3599531
  23.7232316   60.3599703
  23.7234156   60.3598425
  23.7312427   60.3588981
  23.7339481   60.3557029
  23.733909    60.353005
  23.7337675   60.343245
  23.7353147   60.3379311
  23.7288631   60.3289909
  23.7301163   60.3180295
  23.7309572   60.3178731
  23.7311041   60.3174512
  23.7301971   60.3171548
  23.7307379   60.3134209
  23.7277892   60.3077347
  23.7168225   60.3030058
  23.7012821   60.2983256
  23.6947324   60.2974364
  23.6897856   60.2936892
  23.6866257   60.2936601
  23.6862606   60.2938554
  23.6739486   60.3030604
  23.6656241   60.2982482
  23.6562422   60.2924248
  23.6547833   60.2914546
  23.6522996   60.2905703
  23.6490511   60.2875976
  23.6489752   60.2875358
  23.6489643   60.2874605
  23.6488071   60.2873584
  23.6487311   60.2872616
  23.6486932   60.2871971
  23.6485901   60.287095
  23.6484383   60.2869874
  23.6484058   60.2869122
  23.6481726   60.2866407
  23.6481997   60.2865869
  23.6481834   60.2865654
  23.6480695   60.286474
  23.6479556   60.2864149
  23.6478201   60.2863477
  23.6477441   60.2862778
  23.6476899   60.2861622
  23.6476682   60.2860386
  23.6476194   60.2858934
  23.6474784   60.2857805
  23.6474025   60.2856219
  23.6429719   60.2828085
  23.6294792   60.2826671
  23.6261631   60.2692965
  23.6271708   60.2605251
  23.6270327   60.2605314
  23.6268195   60.2605487
  23.6263736   60.2606039
  23.6261174   60.2606275
  23.6259947   60.2606308
  23.6258934   60.2606199
  23.6258559   60.2606079
  23.6258281   60.2605861
  23.6258056   60.260545
  23.6256789   60.2603937
  23.6256514   60.2603498
  23.6256252   60.2603089
  23.6255488   60.2602495
  23.6254824   60.2602157
  23.6254475   60.2602027
  23.6254093   60.2601964
  23.6253671   60.2601931
  23.6252765   60.2601941
  23.6251941   60.2602027
  23.6249185   60.2602174
  23.6247683   60.2602294
  23.624671    60.2602433
  23.6245698   60.260265
  23.6244149   60.2602846
  23.6243016   60.2602946
  23.6242137   60.2603092
  23.624152    60.2603232
  23.6240239   60.2603568
  23.6239535   60.2603697
  23.6238429   60.2603933
  23.6237279   60.2604153
  23.6236444   60.2604289
  23.6235955   60.2604336
  23.6235137   60.2604319
  23.6234265   60.260419
  23.6233507   60.2603983
  23.6233071   60.2603827
  23.6232743   60.2603714
  23.6232354   60.2603624
  23.6231891   60.2603574
  23.6230966   60.2603574
  23.6229524   60.2603711
  23.6228853   60.260386
  23.622827    60.260406
  23.622774    60.2604296
  23.622717    60.2604555
  23.6226346   60.2604848
  23.6225722   60.2605011
  23.6225051   60.2605118
  23.6224455   60.2605314
  23.6223891   60.260555
  23.6223281   60.2605813
  23.6223033   60.2606002
  23.622255    60.2606708
  23.6222      60.2607326
  23.6221035   60.2608091
  23.6219345   60.2609079
  23.6218762   60.2609302
  23.6218178   60.2609472
  23.6212116   60.2611315
  23.6210849   60.2611817
  23.6208294   60.2612562
  23.6207744   60.2612668
  23.6204834   60.2613161
  23.6198122   60.2705366
  23.6214656   60.2696876
  23.6219417   60.2697663
  23.6219087   60.2697882
  23.6218742   60.2698208
  23.6218151   60.2698973
  23.6217836   60.2699299
  23.6217239   60.2699771
  23.6216582   60.2700423
  23.6216287   60.2700656
  23.6215664   60.2700868
  23.6215744   60.2701151
  23.6215644   60.270152
  23.6215483   60.2701743
  23.6214309   60.2702977
  23.621392    60.2703233
  23.6212881   60.2703705
  23.6211801   60.2703911
  23.6209179   60.2704849
  23.620763    60.2705248
  23.6206665   60.2705424
  23.6206242   60.2705547
  23.6205585   60.2705787
  23.6203064   60.2706588
  23.6201958   60.2707037
  23.6201569   60.2707163
  23.6200932   60.270723
  23.6200878   60.2707446
  23.6200281   60.2708194
  23.6199302   60.2709099
  23.6198726   60.2709451
  23.6197619   60.270994
  23.6197177   60.2710146
  23.6196405   60.2710605
  23.6195742   60.2710858
  23.6193616   60.2711426
  23.6192054   60.2711553
  23.6191289   60.2711549
  23.6189251   60.2711716
  23.618571    60.2712105
  23.6184396   60.2712191
  23.6183028   60.2712244
  23.6180279   60.2712304
  23.6178153   60.2712238
  23.6176778   60.2712048
  23.6175355   60.2712001
  23.6173747   60.2711849
  23.6171635   60.2711416
  23.6170086   60.2711207
  23.6169007   60.2710947
  23.6167894   60.2710864
  23.616662    60.2710701
  23.6164226   60.2710675
  23.6162134   60.2710748
  23.6160524   60.2710642
  23.614589    60.2710508
  23.6145547   60.2710949
  23.6144475   60.2711656
  23.6143874   60.2711915
  23.6142667   60.2712329
  23.6141983   60.2712489
  23.6141149   60.2712595
  23.6140441   60.2712622
  23.6139724   60.2712583
  23.6139241   60.2712524
  23.6138708   60.2712419
  23.6137833   60.2712173
  23.6137343   60.2711987
  23.6136924   60.2711772
  23.6136639   60.2711558
  23.6136066   60.2710956
  23.6135104   60.270976
  23.6134835   60.2709315
  23.6134728   60.2709089
  23.6134721   60.2708849
  23.6134815   60.270865
  23.6135378   60.2708058
  23.6136143   60.2707123
  23.6136699   60.2706708
  23.6137336   60.2706309
  23.6138859   60.2705531
  23.6141246   60.2703981
  23.6141749   60.2703672
  23.6142175   60.2703504
  23.6143224   60.2703248
  23.6143948   60.2703121
  23.6144454   60.270305
  23.6144877   60.2703017
  23.6131941   60.2607931
  23.6131322   60.2608216
  23.6130765   60.26086
  23.6129447   60.2609244
  23.6128908   60.2609761
  23.6128424   60.2609991
  23.6126688   60.2610293
  23.6124532   60.2610428
  23.6120278   60.2611374
  23.611781    60.2612086
  23.6114601   60.2613274
  23.6112653   60.2614341
  23.6110119   60.2616131
  23.6108087   60.2617345
  23.6107095   60.2617834
  23.6102468   60.2619557
  23.6101536   60.2620112
  23.6100399   60.2621418
  23.6099879   60.2623129
  23.6099672   60.2623415
  23.6098444   60.2624543
  23.6097854   60.2625314
  23.6096775   60.2626322
  23.6093938   60.2628278
  23.6092175   60.2629053
  23.6089868   60.2629904
  23.6086153   60.2630902
  23.6082733   60.2632685
  23.6079897   60.2633949
  23.6077825   60.2634607
  23.6076484   60.2634894
  23.6074533   60.26351
  23.6071388   60.263509
  23.6070395   60.263504
  23.6069436   60.2634764
  23.6068451   60.2634591
  23.6067049   60.2634458
  23.6066499   60.2634481
  23.6065688   60.2634607
  23.6063891   60.2635057
  23.6061309   60.2635815
  23.6060035   60.2636064
  23.6059351   60.263628
  23.605565    60.2636916
  23.6052307   60.2637649
  23.6051539   60.2637817
  23.6046691   60.2638472
  23.6042782   60.2638549
  23.6042252   60.2638609
  23.604124    60.2638931
  23.6039919   60.2639144
  23.6038095   60.2639294
  23.6036311   60.2639301
  23.6035406   60.2639197
  23.6033092   60.2638718
  23.6029243   60.2638426
  23.6026561   60.2638472
  23.6025824   60.2638419
  23.6024361   60.2638157
  23.6018925   60.2638126
  23.5989213   60.2663903
  23.5950376   60.2658092
  23.5944407   60.2660332
  23.5935493   60.2662697
  23.593466    60.26633
  23.5935246   60.2664337
  23.5939123   60.2665598
  23.5939246   60.2666766
  23.5937488   60.2667887
  23.5935309   60.2668751
  23.5934678   60.2670817
  23.5936484   60.2672541
  23.5933922   60.2672334
  23.5933103   60.2670709
  23.5933999   60.2668755
  23.5936701   60.2667242
  23.593687    60.2665811
  23.5934531   60.2664717
  23.5932438   60.2663911
  23.5931886   60.2663517
  23.5929503   60.2662807
  23.593142    60.2661472
  23.5934334   60.2661382
  23.5939702   60.2660411
  23.5945278   60.2658863
  23.5951511   60.2654084
  23.5952705   60.265406
  23.5956626   60.2651735
  23.5960369   60.2650179
  23.5961677   60.2648634
  23.5961299   60.2647131
  23.5958323   60.2645633
  23.5957004   60.26445
  23.5954519   60.2640013
  23.5931962   60.2636097
  23.5930108   60.2635776
  23.5928885   60.2634388
  23.5930919   60.2633092
  23.5931186   60.2631496
  23.5928145   60.2629559
  23.5923978   60.2628369
  23.5921735   60.2627036
  23.5918294   60.262627
  23.5916879   60.2624548
  23.5913353   60.2622211
  23.5911979   60.2621979
  23.5909138   60.2622104
  23.5907662   60.2621773
  23.589796    60.261468
  23.5895529   60.2612206
  23.5891046   60.260995
  23.5887636   60.2606724
  23.5883278   60.260403
  23.5879426   60.2601148
  23.5878416   60.2599895
  23.5874753   60.2597013
  23.5870459   60.259507
  23.5863479   60.2589911
  23.5863067   60.2588564
  23.5864986   60.2587327
  23.5864977   60.2586355
  23.5866408   60.2585615
  23.5869242   60.2585891
  23.5870314   60.2585417
  23.587057    60.258456
  23.5869937   60.2583484
  23.5871726   60.2582537
  23.5872243   60.2581381
  23.587458    60.2580911
  23.5876916   60.2581631
  23.5881273   60.2580503
  23.5886114   60.2580507
  23.5893363   60.2577608
  23.5920855   60.2566615
  23.5927869   60.256488
  23.5936827   60.2564353
  23.5946022   60.2563567
  23.5953326   60.2562333
  23.5956294   60.2560641
  23.5979869   60.2555699
  23.5988459   60.2551572
  23.598487    60.2530638
  23.5994602   60.2517936
  23.6007737   60.250772
  23.6010413   60.2506781
  23.6023988   60.2506131
  23.603335    60.250836
  23.6052548   60.2508342
  23.6070417   60.2506751
  23.6104884   60.249681
  23.6112197   60.2505165
  23.6121057   60.250652
  23.6127682   60.2500214
  23.6123553   60.2491661
  23.6330029   60.2433839
  23.6457552   60.2363438
  23.6414087   60.2353052
  23.6334268   60.2347576
  23.6325202   60.2329731
  23.6326994   60.2300416
  23.6372282   60.2192952
  23.6474953   60.211073
  23.6438387   60.2100889
  23.6435732   60.2098248
  23.643511    60.2096036
  23.6437972   60.2091245
  23.6437513   60.2087697
  23.6436374   60.2086454
  23.643313    60.2085689
  23.643167    60.2085769
  23.6430583   60.2085264
  23.6489433   60.2015641
  23.6204355   60.1941517
  23.6084771   60.1914766
  23.6070723   60.1916709
  23.5874086   60.1995472
  23.5536231   60.2021951
  23.5495279   60.2008787
  23.5432142   60.1988491
  23.5385939   60.1982927
  23.5005753   60.1838951
  23.4755052   60.1745739
  23.4702032   60.1726022
  23.4445871   60.1699917
  23.4254121   60.1681581
  23.4153886   60.1651986
  23.3791754   60.1670464
  23.3629433   60.1499023
  23.3455253   60.1580176
  23.3159551   60.1715847
  23.3160755   60.1716514
  23.3155451   60.1719623
  23.3155525   60.1726163
  23.3169583   60.1740711
  23.3160639   60.1750601
  23.316224    60.1754628
  23.3175836   60.1786432
  23.3177217   60.1789097
  23.3179933   60.1795926
  23.3180127   60.1796293
  23.3180375   60.1796566
  23.3180754   60.1796801
  23.3181318   60.1797048
  23.3183822   60.1797997
  23.3187544   60.1799686
  23.3190112   60.1800696
  23.3190856   60.180104
  23.3191369   60.1801315
  23.3191795   60.1801591
  23.319215    60.1801866
  23.3192375   60.1802147
  23.3192408   60.1802435
  23.3192191   60.1803012
  23.319215    60.1803162
  23.3191909   60.1804539
  23.3190849   60.1808305
  23.3190075   60.1810148
  23.3190021   60.1810493
  23.3190035   60.1810814
  23.3190179   60.1811151
  23.3190377   60.1811435
  23.3190688   60.181173
  23.3191081   60.1812015
  23.3191627   60.1812307
  23.3192861   60.1812895
  23.3193669   60.1813345
  23.3194085   60.1813622
  23.3201273   60.1818135
  23.3206701   60.1821701
  23.3210314   60.1824195
  23.3216404   60.1828189
  23.3219827   60.1830158
  23.3223116   60.183182
  23.3229567   60.1834651
  23.323871    60.183845
  23.3241469   60.1839832
  23.3242743   60.1840579
  23.3243883   60.1841256
  23.3246586   60.184316
  23.3253908   60.1848568
  23.3257408   60.1851321
  23.3259963   60.1853055
  23.3266193   60.1857006
  23.3268566   60.1858773
  23.3269975   60.1859673
  23.3272449   60.186098
  23.3272915   60.1861297
  23.3273297   60.1861603
  23.3273629   60.186196
  23.327383    60.1862302
  23.3273926   60.1862593
  23.3273938   60.1862979
  23.327386    60.1863255
  23.3273649   60.1863622
  23.3273106   60.1864194
  23.3272352   60.186481
  23.3268057   60.1867598
  23.3267172   60.1868238
  23.3266421   60.1868918
  23.3265924   60.1869479
  23.3265522   60.1870091
  23.3264569   60.1872456
  23.3263367   60.1875635
  23.3258602   60.1885289
  23.325691    60.1885123
  23.3244301   60.1883883
  23.3234064   60.1882246
  23.3228185   60.1882657
  23.3223432   60.1882461
  23.3220273   60.1881859
  23.3214808   60.1880769
  23.3206395   60.1880072
  23.3194276   60.1877986
  23.3191063   60.1877168
  23.318505    60.1873738
  23.3181533   60.1872474
  23.317792    60.1871693
  23.317165    60.1871657
  23.3164352   60.1873205
  23.3155708   60.1877212
  23.3145855   60.187983
  23.314165    60.1880418
  23.313752    60.1880586
  23.3115763   60.1884987
  23.3110748   60.1885668
  23.3096338   60.1885931
  23.3077084   60.1887202
  23.3066069   60.1887243
  23.3059083   60.1886578
  23.3050491   60.18844
  23.3043723   60.1882311
  23.3035544   60.1880556
  23.3028559   60.1878772
  23.3024592   60.1877954
  23.3018166   60.1877139
  23.3013215   60.1876351
  23.3006031   60.1876007
  23.2999166   60.1874276
  23.2992953   60.1872056
  23.2990074   60.1870283
  23.2984922   60.1867669
  23.2977186   60.1864558
  23.2967825   60.1859139
  23.2964776   60.1856416
  23.2957153   60.184652
  23.2949072   60.1836559
  23.2945191   60.1833334
  23.2939725   60.183026
  23.2927299   60.1824099
  23.2925409   60.1822265
  23.2921578   60.1814773
  23.2915833   60.1811051
  23.2910636   60.1809084
  23.2909733   60.1807952
  23.290838    60.1803623
  23.2908866   60.1801566
  23.2908418   60.1800254
  23.2905228   60.1798439
  23.2897597   60.1792351
  23.2894433   60.1789646
  23.2891634   60.1788405
  23.2890016   60.178789
  23.2887875   60.1787436
  23.2885138   60.1787387
  23.2883873   60.1787438
  23.2883178   60.1787657
  23.2882166   60.1788069
  23.2881619   60.1788481
  23.2879418   60.1792186
  23.2879087   60.179247
  23.2878313   60.1792754
  23.2877167   60.1792882
  23.2869561   60.1792277
  23.2863598   60.1792132
  23.2861955   60.1791611
  23.2860921   60.1789675
  23.2858001   60.1788374
  23.2853569   60.1787019
  23.2850862   60.178543
  23.2849178   60.1783866
  23.2847678   60.1781638
  23.2845264   60.1779913
  23.2842922   60.1778784
  23.2839515   60.1778007
  23.2831636   60.1776948
  23.2825816   60.1775445
  23.2821262   60.1773312
  23.2820399   60.1771913
  23.2820208   60.1769429
  23.2819468   60.1767134
  23.2817904   60.1765952
  23.2814813   60.1764593
  23.2811455   60.1763532
  23.2809205   60.1761486
  23.2807098   60.1758002
  23.2805697   60.1753255
  23.2802979   60.1749983
  23.2801026   60.174816
  23.2799808   60.1738225
  23.279801    60.1736398
  23.2795549   60.1735605
  23.279253    60.1735004
  23.2786488   60.1731968
  23.2778896   60.1729325
  23.2775264   60.172649
  23.2775746   60.172485
  23.2776259   60.1723819
  23.2777084   60.1712793
  23.2778163   60.1709956
  23.2778081   60.1706535
  23.2780252   60.1702118
  23.2779481   60.1698193
  23.2777832   60.1694237
  23.2778272   60.1691378
  23.2779638   60.1688319
  23.2779318   60.1687109
  23.2778348   60.1685523
  23.2776743   60.1683266
  23.2776301   60.1682739
  23.2775469   60.1682279
  23.2773846   60.1681798
  23.2772961   60.1681465
  23.2772157   60.1680854
  23.2769917   60.1678663
  23.2768178   60.1674843
  23.2767959   60.1673192
  23.276812    60.1672231
  23.2768288   60.1671721
  23.2769454   60.1669699
  23.276981    60.1669299
  23.2772224   60.1667177
  23.2773183   60.166661
  23.2773793   60.1666117
  23.2774202   60.166588
  23.2775563   60.1665396
  23.2776408   60.1664976
  23.2776998   60.1664696
  23.2778011   60.1664128
  23.2778138   60.1663158
  23.2777548   60.1662037
  23.2776394   60.1660969
  23.2774866   60.1659628
  23.2772802   60.1658348
  23.2770748   60.1657046
  23.2768308   60.1656046
  23.2767007   60.1655919
  23.2765733   60.1655885
  23.2763386   60.1656072
  23.2761012   60.1656679
  23.2757512   60.1656973
  23.2755259   60.1656673
  23.2754856   60.1655805
  23.2755044   60.1654925
  23.2754736   60.165267
  23.2754548   60.1651916
  23.2754186   60.1651062
  23.2753663   60.1650154
  23.2753167   60.164902
  23.2752724   60.1648333
  23.2749881   60.1645677
  23.2748473   60.164453
  23.2747601   60.1643589
  23.2747293   60.1642855
  23.2747091   60.1641767
  23.27474     60.1641007
  23.2748111   60.1640139
  23.2750551   60.1638651
  23.275204    60.1637904
  23.2753864   60.163719
  23.2755621   60.1636169
  23.2756801   60.1635095
  23.2757324   60.1634388
  23.2757351   60.1633427
  23.2757673   60.1632499
  23.2757565   60.1631479
  23.2757257   60.1630558
  23.275672    60.1629737
  23.2756372   60.1628663
  23.2756184   60.1627642
  23.2755353   60.1626674
  23.2755084   60.1626067
  23.2754856   60.1624199
  23.275495    60.1623198
  23.2755634   60.1621837
  23.2756318   60.1620542
  23.2756573   60.161838
  23.2757056   60.1616432
  23.2757458   60.1615398
  23.2762514   60.1610647
  23.2763828   60.1609846
  23.2767624   60.1606957
  23.2770547   60.1604841
  23.2772721   60.1604002
  23.2776006   60.1602586
  23.2780083   60.1601118
  23.2780807   60.1600564
  23.278133    60.1599903
  23.278141    60.1598635
  23.2780847   60.1597301
  23.2778192   60.1594071
  23.2774424   60.1589627
  23.277194    60.1587579
  23.2767539   60.1586696
  23.2760086   60.1585989
  23.2753272   60.1584718
  23.2754123   60.1582598
  23.2758098   60.1579985
  23.2765552   60.1575887
  23.2775205   60.1571472
  23.2781593   60.1569776
  23.2785923   60.1569035
  23.2786491   60.1565467
  23.2785497   60.1561511
  23.2784646   60.1557873
  23.2784504   60.155374
  23.2784504   60.1551302
  23.2782801   60.1549024
  23.2780372   60.1547087
  23.2776555   60.1536613
  23.276138    60.1534248
  23.2755889   60.1533481
  23.2743705   60.1534033
  23.2736869   60.1535996
  23.2715014   60.1542878
  23.2701641   60.1539046
  23.2691047   60.1536203
  23.2689504   60.1535675
  23.2683      60.1533032
  23.2645784   60.1517884
  23.2552635   60.1488035
  23.2532327   60.1481602
  23.2484252   60.1463761
  23.2412482   60.1437471
  23.2329877   60.1399215
  23.227565    60.1393565
  23.2275591   60.1393559
  23.22717     60.1393153
  23.2241213   60.1379009
  23.2150712   60.1362742
  23.2146085   60.1356134
  23.2146035   60.1353588
  23.2146643   60.1351617
  23.2147162   60.1350483
  23.2148007   60.1349201
  23.2151305   60.1345071
  23.2151936   60.1344306
  23.215435    60.1340893
  23.215671    60.1338055
  23.2157341   60.1336292
  23.2157797   60.1333447
  23.2157576   60.1331603
  23.215608    60.1329413
  23.215351    60.1328043
  23.2143259   60.1323883
  23.2135749   60.1322227
  23.2134193   60.1321051
  23.213258    60.1320598
  23.2128239   60.1320624
  23.2123728   60.1319691
  23.2118475   60.1319555
  23.2113057   60.1318807
  23.2107961   60.1318941
  23.2104241   60.1318568
  23.2097111   60.1316933
  23.2092434   60.1314009
  23.2088435   60.1312235
  23.2084275   60.1311577
  23.2077857   60.1311857
  23.2070056   60.1313142
  23.2059148   60.1316047
  23.2052708   60.1319689
  23.2045085   60.1322881
  23.2043775   60.1324144
  23.204175    60.1329141
  23.2040442   60.1329972
  23.2036187   60.1331483
  23.2029968   60.1334417
  23.2022253   60.1336468
  23.2017733   60.1338842
  23.200248    60.1342284
  23.199971    60.1342189
  23.1990277   60.1340135
  23.1984526   60.1338602
  23.1979637   60.1338377
  23.1973904   60.1338976
  23.196795    60.1339484
  23.1957825   60.1341649
  23.1958042   60.1340988
  23.1961844   60.1318695
  23.1961868   60.1318233
  23.1974675   60.1232857
  23.1974857   60.1230498
  23.1974893   60.1229137
  23.1972647   60.122805
  23.1952078   60.1218283
  23.1722779   60.111371
  23.1668102   60.10887
  23.1564961   60.1040717
  23.1522592   60.1021206
  23.1498872   60.1010282
  23.148649    60.1004409
  23.1438368   60.0999181
  23.1391956   60.0993243
  23.1334747   60.0986079
  23.1064471   60.0952015
  23.1058463   60.0952008
  23.0868184   60.0928734
  23.0729205   60.0911895
  23.0699718   60.0967934
  23.0635951   60.0929649
  23.0564517   60.0886127
  23.0314236   60.1002808
  23.0288528   60.1014791
  23.0280389   60.1018138
  23.0198171   60.105296
  22.9873523   60.0955396
  22.9635719   60.0744006
  22.9598891   60.0709139
  22.9733975   60.0642776
  22.9835232   60.0425999
  22.979809    60.0340263
  22.9590587   60.006848
  22.9535253   59.9994619
  22.9254493   59.9982381
  22.9174972   59.9980887
  22.8509617   59.9952099
  22.8478882   60.0277876
  22.8477993   60.0301879
  22.8181633   60.0272164
  22.8013167   60.0253755
  22.7989449   60.0213846
  22.7945225   60.0133074
  22.7883255   60.0020174
  22.7885176   60.0002144
  22.7908073   59.9773883
  22.7922212   59.959825
  22.8093251   59.9448679
  22.8229078   59.9328681
  22.8208779   59.9230803
  22.8142882   59.8775741
  22.8106447   59.8512115
  22.8077136   59.8472992
  22.7655418   59.7768877
  22.7421872   59.7429717
  22.6589293   59.6110023
  22.6345729   59.6079549
  22.5602852   59.5784222
  22.5000001   59.5544163
  22.4790465   59.5460684
  22.3965563   59.5130947
  22.2886676   59.5088278
  22.1806196   59.504467
  22.0980848   59.5010825
  22.0718017   59.4999776
  22.016825    59.4976905
  21.9648942   59.4954882
  21.893909    59.4924595
  21.8572872   59.490862
  21.8499618   59.4905426
  21.7493841   59.4861562
  21.6414734   59.4813397
  21.5335894   59.4764519
  21.5208631   59.4759645
  21.5088897   59.4757041
  21.4964013   59.4756616
  21.4878397   59.4757259
  21.4816599   59.475825
  21.4718538   59.476092
  21.4639788   59.4764184
  21.4585468   59.4766571
  21.4475658   59.4772985
  21.4345682   59.4782658
  21.4118367   59.4801476
  21.3799935   59.4827993
  21.354697    59.4848788
  21.3223281   59.4875502
  21.2871483   59.4904301
  21.2554767   59.4930385
  21.2101367   59.4967337
  20.813152    59.472654
  21.2231291   59.6370274
  21.2405442   59.6919788
  21.2502409   59.7223944
  21.2627767   59.7618949
  21.2805698   59.7893983
  21.2966303   59.8141952
  21.3070534   59.8302341
  21.3218702   59.8514936
  21.3245477   59.8553352
  21.3456452   59.8855663
  21.2685743   59.9206828
  21.2305417   59.9379727
  21.1713636   59.9501608
  21.1435671   59.9871267
  21.1329769   60.0411961
  21.1304298   60.0526329
  21.1149417   60.0774513
  21.0630067   60.1039591
  21.0238303   60.1239251
  21.0449575   60.1787696
  21.0514828   60.1955708
  21.084504    60.2018915
  21.0956727   60.2525595
  21.0910078   60.2652039
  21.104582    60.3041623
  21.1105794   60.3213518
  21.1134976   60.3294148
  21.1175459   60.3677233
  21.1122252   60.3838264
  21.1155425   60.3990249
  21.1224998   60.4309097
  21.1286431   60.4589113
  21.1482554   60.494004
  21.1513357   60.498668
  21.1497489   60.5138356
  21.1462191   60.5382831
  21.1438223   60.5474077
  21.1343873   60.5579378
  21.1137343   60.5814193
  21.1080695   60.5878616
  21.1046213   60.5917498
  21.0617939   60.6387498
  21.047267    60.6504954
  21.0164688   60.6753484
  20.989533    60.6971095
  20.9699615   60.7128806
  20.8992306   60.7159633
  20.825281    60.7191193
  20.778834    60.7210596
  20.7300025   60.7230903
  20.7049142   60.7340992
  20.6586064   60.7544252
  20.571132    60.7926233
  20.487018    60.829206
  20.4280523   60.8547748
  20.3775366   60.87665
END
END
