polygon
1
  -56.6130911  6.173
  -56.6036291  5.9463833
  -56.6031751  5.7622065
  -56.6031716  5.7604131
  -56.6033499  5.7601994
  -56.6039152  5.7596621
  -56.6040107  5.7592662
  -56.603929   5.758844
  -56.6042662  5.7572137
  -56.6045722  5.7560154
  -56.6051779  5.7541472
  -56.6059435  5.7526407
  -56.6065199  5.7511385
  -56.6068798  5.749279
  -56.6070942  5.7472645
  -56.6068453  5.7456256
  -56.6060538  5.7429097
  -56.6048392  5.7406509
  -56.6041882  5.7397124
  -56.6034109  5.7390639
  -56.6029791  5.7386024
  -56.6017471  5.736492
  -56.6012422  5.7354284
  -56.6002503  5.7330209
  -56.59886    5.73039
  -56.5967032  5.7272026
  -56.5956545  5.7259168
  -56.5945436  5.7248165
  -56.5933963  5.7231377
  -56.5924815  5.7222563
  -56.5913972  5.7215344
  -56.5901172  5.7207507
  -56.5895477  5.7204763
  -56.5887543  5.720235
  -56.587665   5.7201851
  -56.5865117  5.7204213
  -56.5855242  5.720204
  -56.5837142  5.720015
  -56.5823236  5.7195361
  -56.5814413  5.7188326
  -56.5805221  5.7179524
  -56.5789231  5.7161002
  -56.5756345  5.7117932
  -56.5738831  5.709693
  -56.5718623  5.7078609
  -56.569572   5.7062969
  -56.5668775  5.7025433
  -56.5654854  5.6997728
  -56.565665   5.6977173
  -56.5668775  5.6965554
  -56.5702905  5.6951702
  -56.5714581  5.6948127
  -56.5726706  5.6936955
  -56.5730299  5.6911931
  -56.5730299  5.6883778
  -56.5730299  5.6840879
  -56.5730748  5.6817642
  -56.5718623  5.6791723
  -56.5690331  5.6780551
  -56.5674164  5.6764464
  -56.5664284  5.6722905
  -56.5653506  5.6685367
  -56.5648117  5.6672407
  -56.5645423  5.6659448
  -56.5649914  5.6643807
  -56.5660243  5.6633081
  -56.5674164  5.6616993
  -56.5681349  5.6600459
  -56.5679553  5.656426
  -56.5671919  5.6526274
  -56.5657997  5.6488288
  -56.5645423  5.6464156
  -56.5630603  5.644762
  -56.5618029  5.644628
  -56.560276   5.6448961
  -56.5582552  5.6454324
  -56.5564589  5.6450302
  -56.5543931  5.6435107
  -56.5501269  5.638997
  -56.5484204  5.6363602
  -56.5481958  5.6348855
  -56.5488695  5.6324721
  -56.5493185  5.6305057
  -56.5491389  5.6288522
  -56.5477468  5.625545
  -56.5463097  5.6233104
  -56.5446032  5.6217015
  -56.5425375  5.6206736
  -56.540337   5.6198244
  -56.5391694  5.61902
  -56.5360258  5.6154893
  -56.5341397  5.6130312
  -56.5329272  5.6107966
  -56.533511   5.6090536
  -56.5349031  5.606953
  -56.5352175  5.6052547
  -56.5352175  5.6035563
  -56.5343642  5.601277
  -56.5319841  5.5976568
  -56.5281221  5.593679
  -56.5269994  5.5927405
  -56.525248   5.5922488
  -56.523272   5.592517
  -56.5206224  5.5928745
  -56.5179729  5.591936
  -56.5152895  5.5903614
  -56.5139761  5.5892096
  -56.5117756  5.5875112
  -56.510114   5.5850977
  -56.5097548  5.5839803
  -56.5097098  5.5822373
  -56.5089464  5.5801366
  -56.507689   5.5780806
  -56.505264   5.5765163
  -56.5033778  5.5758905
  -56.5014019  5.5747285
  -56.4999648  5.5734323
  -56.4974949  5.5692756
  -56.4950699  5.5650295
  -56.4943514  5.5635545
  -56.4934532  5.5603364
  -56.493094   5.5581015
  -56.4932736  5.5560455
  -56.4946208  5.5539
  -56.4951148  5.5517992
  -56.4949352  5.5500561
  -56.494037   5.547553
  -56.4927347  5.5457651
  -56.4910282  5.5440219
  -56.4904444  5.5418317
  -56.4899953  5.5387922
  -56.4901262  5.5378657
  -56.4903995  5.5359316
  -56.4915671  5.5335179
  -56.4921301  5.5329144
  -56.4927347  5.5322664
  -56.4947555  5.5315512
  -56.4968662  5.5318194
  -56.4994709  5.5332497
  -56.5018959  5.5344119
  -56.5053538  5.5354399
  -56.5088566  5.5360657
  -56.5102487  5.5369597
  -56.5117756  5.5378984
  -56.5130779  5.5388816
  -56.5146946  5.5399991
  -56.5164909  5.5416976
  -56.5172544  5.5432173
  -56.5174789  5.5450499
  -56.5177483  5.5467037
  -56.5189159  5.5480894
  -56.5208021  5.5488045
  -56.5227331  5.5497879
  -56.5243947  5.5510841
  -56.5262808  5.5516205
  -56.5289304  5.5508159
  -56.5302327  5.5499667
  -56.5318943  5.5481788
  -56.5328823  5.546525
  -56.5331517  5.5442454
  -56.5329721  5.5429491
  -56.5329721  5.5414294
  -56.5335559  5.5396862
  -56.5351726  5.5374961
  -56.5371036  5.5361998
  -56.5385407  5.534993
  -56.5392592  5.5334285
  -56.5402472  5.5320429
  -56.5418638  5.5312383
  -56.5439745  5.5309701
  -56.5459954  5.5315959
  -56.5473426  5.5328921
  -56.5482408  5.534993
  -56.5492736  5.5367809
  -56.5509801  5.537809
  -56.5530459  5.5382559
  -56.5553811  5.5381665
  -56.5584797  5.5378537
  -56.5600964  5.5379431
  -56.5625663  5.5393286
  -56.5643627  5.5405801
  -56.5652608  5.5406695
  -56.566653   5.5404907
  -56.5692127  5.5396862
  -56.5710539  5.5388369
  -56.572491   5.5368256
  -56.5732993  5.5333391
  -56.5737484  5.5308807
  -56.5751405  5.5292715
  -56.5787332  5.5268578
  -56.5825054  5.5255168
  -56.5852448  5.5228796
  -56.5869962  5.5204211
  -56.5866369  5.5170686
  -56.584661   5.5147442
  -56.5821911  5.5130456
  -56.579811   5.5110341
  -56.5787332  5.5067429
  -56.5776554  5.5030327
  -56.5757243  5.5003059
  -56.573434   5.4978027
  -56.5721317  5.4974451
  -56.5696169  5.4977133
  -56.5675062  5.4988308
  -56.5660243  5.499993
  -56.5642279  5.5001718
  -56.5610844  5.4997248
  -56.557851   5.4992778
  -56.5553811  5.4982497
  -56.5540339  5.4972663
  -56.5511598  5.4942266
  -56.5497227  5.4930643
  -56.5477019  5.4924385
  -56.5447829  5.4918574
  -56.5435703  5.4912762
  -56.5419537  5.489667
  -56.5404717  5.4872531
  -56.5401124  5.4848839
  -56.5401573  5.4821123
  -56.5405615  5.480056
  -56.5405615  5.4784467
  -56.539843   5.4760328
  -56.5388999  5.4734847
  -56.5380916  5.4706237
  -56.5377772  5.4695061
  -56.535936   5.4663321
  -56.533017   5.4629794
  -56.5313105  5.46137
  -56.5290202  5.4602524
  -56.527673   5.4595819
  -56.5264156  5.4588219
  -56.5251132  5.4575702
  -56.5235415  5.454575
  -56.5230924  5.4534574
  -56.5234516  5.4522056
  -56.525248   5.4497469
  -56.5287957  5.4458575
  -56.5322536  5.4420576
  -56.5366096  5.438347
  -56.5415495  5.4340106
  -56.5427171  5.4329823
  -56.5450523  5.4317305
  -56.5477019  5.4316411
  -56.5494084  5.4316411
  -56.5507107  5.432267
  -56.5547973  5.4347706
  -56.5560098  5.4351282
  -56.5569529  5.4347706
  -56.5579858  5.4337423
  -56.5604557  5.4290035
  -56.5610395  5.4272152
  -56.5607251  5.4259634
  -56.5591983  5.4228786
  -56.5566834  5.4204198
  -56.5534501  5.4179609
  -56.5498574  5.4152337
  -56.5478815  5.4132219
  -56.5468935  5.4115677
  -56.5459954  5.4080358
  -56.5452314  5.4035993
  -56.545187   5.4033414
  -56.5450972  5.3994965
  -56.544689   5.3971559
  -56.5448016  5.3955644
  -56.5454829  5.394774
  -56.5474945  5.3942827
  -56.5511048  5.3944322
  -56.5541089  5.394288
  -56.5565389  5.3940156
  -56.5586686  5.3933267
  -56.5613294  5.3921304
  -56.5642208  5.3911957
  -56.5654492  5.3905976
  -56.566565   5.3902184
  -56.5671068  5.388755
  -56.5672839  5.3874305
  -56.5670103  5.3846106
  -56.5664578  5.3824049
  -56.5662807  5.380776
  -56.5664309  5.378645
  -56.5663129  5.3775127
  -56.5657443  5.3754405
  -56.5651649  5.3741106
  -56.564768   5.3735241
  -56.5641189  5.3730211
  -56.5625364  5.372973
  -56.5601867  5.3732614
  -56.5565389  5.3740465
  -56.5545809  5.3746607
  -56.5536958  5.3753337
  -56.5531755  5.3767116
  -56.5526122  5.3791257
  -56.5522206  5.3804448
  -56.551609   5.381481
  -56.5506488  5.3822981
  -56.5491736  5.3830191
  -56.5464968  5.3837775
  -56.5428436  5.3845465
  -56.5407515  5.3843703
  -56.5379083  5.3834677
  -56.5356294  5.3823981
  -56.5340352  5.3812804
  -56.5313185  5.3782638
  -56.5291911  5.3757075
  -56.5272094  5.3736586
  -56.5253907  5.3723173
  -56.5239536  5.3719596
  -56.5219327  5.3710207
  -56.5199748  5.3702357
  -56.517627   5.3693609
  -56.5162307  5.3688725
  -56.5143297  5.3687532
  -56.5132206  5.3693664
  -56.5112896  5.3705289
  -56.5098525  5.3718702
  -56.5088197  5.3735692
  -56.5081011  5.375
  -56.508146   5.3772355
  -56.5091789  5.3796051
  -56.5107276  5.3819862
  -56.5120748  5.383864
  -56.5135568  5.3860995
  -56.5144998  5.3885138
  -56.5155327  5.3909728
  -56.5159369  5.3932083
  -56.5159369  5.3959802
  -56.515892   5.397545
  -56.5158022  5.3998698
  -56.5161165  5.4017028
  -56.5172841  5.4034464
  -56.5187212  5.4057266
  -56.5194397  5.407649
  -56.5195295  5.4092585
  -56.5187212  5.4114045
  -56.5176883  5.4129245
  -56.516386   5.4139975
  -56.513916   5.4146681
  -56.5107725  5.4147128
  -56.507865   5.414543
  -56.5048562  5.4133806
  -56.5023414  5.4116817
  -56.5007247  5.4101169
  -56.5004103  5.4071662
  -56.499602   5.4046625
  -56.4988386  5.4026059
  -56.4975362  5.40122
  -56.4961441  5.4005941
  -56.494258   5.4005941
  -56.4916533  5.4013988
  -56.4890936  5.4023824
  -56.4868482  5.4025165
  -56.4838393  5.4011753
  -56.481549   5.3995658
  -56.4788995  5.3989846
  -56.4750374  5.3973304
  -56.4721184  5.3954527
  -56.470367   5.3934855
  -56.470367   5.3912053
  -56.4710858  5.3898073
  -56.472356   5.3884795
  -56.4750869  5.3866459
  -56.4774368  5.385002
  -56.479469   5.383358
  -56.4815649  5.3815244
  -56.4826554  5.380084
  -56.4840526  5.37844
  -56.4850053  5.3762902
  -56.4850688  5.3738243
  -56.4858309  5.3714215
  -56.4863389  5.3698407
  -56.4881172  5.3678174
  -56.4897684  5.3659837
  -56.4914832  5.363075
  -56.4919913  5.3611781
  -56.4926899  5.3583327
  -56.4914197  5.3569416
  -56.4888793  5.3569416
  -56.4848782  5.3575107
  -56.4816393  5.3577636
  -56.4772571  5.3575739
  -56.4743992  5.357068
  -56.4709062  5.3559931
  -56.4686834  5.3555505
  -56.4651904  5.3556137
  -56.4616338  5.3566886
  -56.4596016  5.3579533
  -56.4580773  5.3580797
  -56.4566801  5.3578268
  -56.455791   5.3556769
  -56.455918   5.3540961
  -56.4568707  5.3515668
  -56.4573787  5.3488478
  -56.4569132  5.3467879
  -56.4564237  5.3443865
  -56.4559975  5.3424761
  -56.4558293  5.3408814
  -56.456016   5.3394788
  -56.4562521  5.3385793
  -56.4566603  5.3368735
  -56.4567497  5.3362674
  -56.4569436  5.3357079
  -56.4569443  5.3351911
  -56.4565703  5.3349555
  -56.4562124  5.3350351
  -56.4559167  5.3348838
  -56.4558116  5.3345587
  -56.4559498  5.3341364
  -56.4558804  5.3337968
  -56.4556842  5.3335692
  -56.4552493  5.3335012
  -56.4543445  5.3335608
  -56.4533822  5.333464
  -56.4524671  5.3337893
  -56.4518983  5.3339188
  -56.4513748  5.3342012
  -56.4510731  5.3344728
  -56.4505263  5.3346859
  -56.4494905  5.3347107
  -56.4490019  5.3348704
  -56.4480761  5.3350085
  -56.4476172  5.3352039
  -56.4471531  5.335517
  -56.4467959  5.3356225
  -56.4463493  5.3355081
  -56.4459876  5.3352445
  -56.4456656  5.3352205
  -56.4450669  5.3354976
  -56.4446212  5.3356193
  -56.4441834  5.3355446
  -56.4438786  5.3356574
  -56.443287   5.3361373
  -56.4428344  5.3361493
  -56.4424177  5.3359334
  -56.4418903  5.3357957
  -56.4409768  5.3355992
  -56.4405441  5.3357563
  -56.4402164  5.3361013
  -56.4399325  5.3362877
  -56.4394587  5.3362834
  -56.4388973  5.3360263
  -56.4385118  5.3359294
  -56.4381816  5.33602
  -56.4381781  5.3362347
  -56.4382803  5.3364685
  -56.4384849  5.3368979
  -56.4383194  5.3371778
  -56.4380192  5.3372278
  -56.437786   5.3371235
  -56.4376958  5.3369639
  -56.4376569  5.3366392
  -56.4375614  5.3362124
  -56.4374345  5.3360297
  -56.4372059  5.3360166
  -56.4369596  5.3361269
  -56.4366955  5.3363621
  -56.4363887  5.3364332
  -56.4360923  5.3363165
  -56.4357752  5.3360799
  -56.4354114  5.3358972
  -56.4351738  5.3359421
  -56.4349843  5.3361115
  -56.4348141  5.3362761
  -56.4345765  5.336412
  -56.4333164  5.3363336
  -56.4328172  5.3363297
  -56.4320082  5.3361091
  -56.4312143  5.3357815
  -56.4304493  5.335521
  -56.4301779  5.3356207
  -56.4298584  5.3355887
  -56.4295258  5.3353136
  -56.4291453  5.3351741
  -56.4285949  5.3351095
  -56.4280772  5.3347469
  -56.4276556  5.3346416
  -56.4272431  5.3345837
  -56.4270674  5.3344151
  -56.427018   5.3340894
  -56.4267998  5.3337626
  -56.4263327  5.3336133
  -56.4257624  5.3335284
  -56.4252721  5.3336193
  -56.4250761  5.3338391
  -56.4249756  5.3341097
  -56.4247601  5.3341802
  -56.4242543  5.3343292
  -56.4228611  5.3348153
  -56.4224157  5.3350776
  -56.4222532  5.3353204
  -56.4220379  5.3358139
  -56.4218046  5.3360444
  -56.4215184  5.3361158
  -56.421304   5.3360866
  -56.4210589  5.3359837
  -56.4207842  5.3359388
  -56.4205421  5.3360461
  -56.4203008  5.3362553
  -56.4200174  5.3362997
  -56.4190558  5.3361822
  -56.4189133  5.3362128
  -56.4188201  5.336317
  -56.4187287  5.336611
  -56.4186497  5.3368743
  -56.4184318  5.3369601
  -56.4182015  5.3369661
  -56.4177833  5.3367989
  -56.4175716  5.3368587
  -56.417414   5.3369552
  -56.4173052  5.3373193
  -56.4171454  5.3374949
  -56.4169269  5.3375777
  -56.4160907  5.3376408
  -56.4153524  5.3379464
  -56.4149957  5.3382262
  -56.4143805  5.3383982
  -56.4141104  5.338521
  -56.4138978  5.3386349
  -56.4138319  5.3387654
  -56.413266   5.3389287
  -56.4128356  5.3387436
  -56.4123173  5.3382912
  -56.4117872  5.3382932
  -56.4111364  5.3384683
  -56.4108512  5.3386943
  -56.4104357  5.3391255
  -56.4101246  5.3391639
  -56.4098118  5.3390069
  -56.4097012  5.3386845
  -56.4096162  5.337962
  -56.4085707  5.3369134
  -56.4081951  5.336185
  -56.4079376  5.3358746
  -56.4076384  5.3358382
  -56.4074068  5.3360101
  -56.4071948  5.3363272
  -56.4070385  5.3368427
  -56.406633   5.3368972
  -56.4058268  5.3365677
  -56.4051546  5.3365648
  -56.4047471  5.3365496
  -56.4045423  5.3363117
  -56.4046093  5.3358983
  -56.4050121  5.3355187
  -56.4053363  5.3350494
  -56.4053068  5.3347863
  -56.4051338  5.3345391
  -56.4047654  5.3344812
  -56.4044449  5.3342486
  -56.404494   5.3339667
  -56.4047898  5.3338163
  -56.4049054  5.3333233
  -56.4047845  5.3330432
  -56.4044275  5.3328074
  -56.4040851  5.3326329
  -56.4035844  5.3326151
  -56.403072   5.3324727
  -56.4027228  5.3320377
  -56.4028312  5.3315159
  -56.4026882  5.331081
  -56.4022854  5.3308661
  -56.4016232  5.3306481
  -56.4009778  5.3304618
  -56.4006989  5.330117
  -56.4006618  5.3297599
  -56.4008554  5.3292574
  -56.4008561  5.3288401
  -56.4003847  5.3284283
  -56.3996542  5.3284229
  -56.3991956  5.328134
  -56.3986829  5.3275342
  -56.3982184  5.3270652
  -56.3979233  5.3270631
  -56.3977238  5.3272038
  -56.3971648  5.3272929
  -56.3966522  5.3271163
  -56.3966247  5.3267388
  -56.3968682  5.3264327
  -56.3975673  5.3257693
  -56.3979698  5.3251778
  -56.3979626  5.3248137
  -56.39778    5.3245449
  -56.3972878  5.3244097
  -56.3962102  5.324493
  -56.3950539  5.3241915
  -56.3945761  5.3240656
  -56.3945174  5.3240511
  -56.393601   5.3237018
  -56.3930524  5.3236792
  -56.3921678  5.3236443
  -56.3916131  5.3233366
  -56.3909292  5.3232352
  -56.390453   5.3233652
  -56.3901442  5.3237652
  -56.3889915  5.3245471
  -56.3874209  5.3248532
  -56.3862527  5.3252732
  -56.3854291  5.3261896
  -56.3842983  5.32754
  -56.3827777  5.3285088
  -56.3813479  5.3290465
  -56.3804878  5.3296521
  -56.3801249  5.330359
  -56.3800513  5.3320736
  -56.3797616  5.3329224
  -56.3789648  5.3341933
  -56.3778331  5.3359409
  -56.3763177  5.3386354
  -56.3755014  5.3401516
  -56.3752169  5.3412645
  -56.3749407  5.3417912
  -56.3745873  5.3419614
  -56.3740993  5.3418961
  -56.3725286  5.3415829
  -56.370266   5.3416644
  -56.3698756  5.3419147
  -56.3695793  5.342564
  -56.3694     5.3432411
  -56.3680071  5.3462558
  -56.366716   5.3507367
  -56.3665145  5.3523855
  -56.3664737  5.3530549
  -56.3662753  5.3536011
  -56.3658631  5.3538486
  -56.3652727  5.3537467
  -56.3643972  5.3538272
  -56.3635145  5.3544067
  -56.3629292  5.354975
  -56.3619089  5.3561831
  -56.3592075  5.3583975
  -56.3582997  5.3592543
  -56.3561344  5.3598902
  -56.3535154  5.3597818
  -56.3529107  5.3599005
  -56.3525378  5.3604489
  -56.3522279  5.3614982
  -56.3515695  5.3624608
  -56.351118   5.3626549
  -56.3506982  5.3625488
  -56.3503159  5.3621583
  -56.3497145  5.3613751
  -56.3489368  5.360835
  -56.3479517  5.3603901
  -56.3459873  5.3594846
  -56.3455839  5.3594047
  -56.3451547  5.3594935
  -56.344758   5.3596066
  -56.344567   5.3597011
  -56.3441612  5.3602379
  -56.3439496  5.3610669
  -56.3438052  5.3620472
  -56.3435517  5.3634095
  -56.343216   5.3642708
  -56.3431358  5.3652004
  -56.3433637  5.3658154
  -56.3446953  5.3688638
  -56.3445901  5.3695914
  -56.3443095  5.3703826
  -56.3442994  5.3714738
  -56.3445907  5.3720155
  -56.3445815  5.373308
  -56.3445907  5.3741988
  -56.3444737  5.3747953
  -56.3440075  5.3752538
  -56.343431   5.3753334
  -56.3428546  5.3751995
  -56.3423247  5.3751809
  -56.3418162  5.3753119
  -56.3413661  5.3756757
  -56.3412775  5.3765111
  -56.3408241  5.3770688
  -56.3400712  5.3772668
  -56.3394873  5.377442
  -56.339086   5.3777786
  -56.3388351  5.3781912
  -56.3386308  5.3799084
  -56.3383805  5.3805079
  -56.3380233  5.3806939
  -56.3374585  5.3808724
  -56.3369259  5.3813179
  -56.336499   5.3822416
  -56.3365226  5.3831866
  -56.3370026  5.3837123
  -56.3371179  5.3842381
  -56.3369134  5.384756
  -56.3363978  5.3851029
  -56.3360286  5.3851174
  -56.3350801  5.3844056
  -56.3343418  5.3844987
  -56.3321683  5.3855096
  -56.3314147  5.3877176
  -56.3301772  5.3888912
  -56.3283698  5.389824
  -56.3271571  5.3911322
  -56.3263347  5.3916634
  -56.3254882  5.3919453
  -56.3246654  5.3917572
  -56.3242328  5.3914073
  -56.323298   5.3903724
  -56.322856   5.390293
  -56.322391   5.3905609
  -56.3212756  5.3915412
  -56.3199314  5.3925162
  -56.3194886  5.3939843
  -56.3191849  5.3967217
  -56.3187783  5.3971369
  -56.3179715  5.3972289
  -56.3164923  5.3974625
  -56.3151921  5.3981009
  -56.3145086  5.3984226
  -56.313653   5.3983243
  -56.3133361  5.3978485
  -56.3133472  5.3966622
  -56.3133098  5.3955563
  -56.3124448  5.3945358
  -56.3115322  5.3934811
  -56.3109584  5.3920333
  -56.3104181  5.3915224
  -56.3092451  5.3914782
  -56.3085899  5.3909837
  -56.3075795  5.3900976
  -56.3063963  5.3898459
  -56.3042665  5.3904094
  -56.3018039  5.3906235
  -56.29811    5.39019
  -56.297325   5.3897293
  -56.296907   5.3886096
  -56.2959209  5.3870034
  -56.294974   5.3858457
  -56.2938309  5.3850785
  -56.2910881  5.3850727
  -56.2897254  5.3847022
  -56.2891568  5.3838914
  -56.288644   5.3816105
  -56.2880032  5.3803018
  -56.287056   5.3789501
  -56.2858755  5.3779665
  -56.2843014  5.3772592
  -56.2835535  5.3762155
  -56.2835062  5.3752748
  -56.2836584  5.3736854
  -56.2826232  5.3718509
  -56.2823797  5.3704235
  -56.2818376  5.3701681
  -56.2812105  5.3702807
  -56.279922   5.3709834
  -56.2781763  5.371083
  -56.2756661  5.3701027
  -56.2741405  5.3695908
  -56.2736084  5.3690196
  -56.27353    5.3685881
  -56.2736825  5.3679011
  -56.2735311  5.3669677
  -56.2730861  5.3667617
  -56.2723927  5.3669374
  -56.2717453  5.3673512
  -56.2709419  5.3695668
  -56.2709565  5.3702873
  -56.2712567  5.3721043
  -56.27101    5.3729559
  -56.2706476  5.3730816
  -56.2702606  5.3729876
  -56.2684476  5.3715386
  -56.2677085  5.3705756
  -56.2668891  5.3689897
  -56.2661347  5.3681567
  -56.2648789  5.3670793
  -56.2646579  5.3661923
  -56.2641522  5.3653429
  -56.2622634  5.363662
  -56.2614701  5.3620945
  -56.2610365  5.3602439
  -56.2602665  5.3592873
  -56.2597573  5.3579695
  -56.2589884  5.3573355
  -56.2584892  5.3564086
  -56.2575421  5.3549629
  -56.2569147  5.3538468
  -56.2567308  5.3525387
  -56.2562115  5.351406
  -56.2554573  5.3507099
  -56.2549145  5.3497817
  -56.2548811  5.3472241
  -56.2543495  5.3449666
  -56.2535624  5.3437429
  -56.2521877  5.3424925
  -56.25064    5.3398929
  -56.2500834  5.3369112
  -56.2499097  5.336291
  -56.249823   5.3359812
  -56.2490963  5.3354334
  -56.2484552  5.3352723
  -56.2476738  5.3351642
  -56.2472193  5.3350584
  -56.2464065  5.3350228
  -56.2451346  5.3339945
  -56.2448089  5.3335742
  -56.2441463  5.33337
  -56.2434368  5.3336399
  -56.2433168  5.3352749
  -56.2419601  5.3373385
  -56.2415361  5.3383252
  -56.2413563  5.3398168
  -56.2406557  5.3409581
  -56.2392385  5.3413305
  -56.2377294  5.340865
  -56.2339809  5.3403612
  -56.2309466  5.3400173
  -56.2264938  5.3390919
  -56.2200096  5.3379092
  -56.2184538  5.3379454
  -56.2165374  5.3383186
  -56.2143488  5.3400882
  -56.2108878  5.3422174
  -56.2079037  5.3431971
  -56.2059347  5.3437685
  -56.2039746  5.3443931
  -56.2018975  5.3444052
  -56.2002271  5.3430494
  -56.1988665  5.3400172
  -56.1966111  5.3372923
  -56.1944772  5.3349613
  -56.1943936  5.3336832
  -56.1946689  5.3320878
  -56.1957509  5.3297356
  -56.1958067  5.3288439
  -56.1954543  5.328142
  -56.1944682  5.32746
  -56.1927712  5.3269042
  -56.1915477  5.3269419
  -56.1901493  5.3277108
  -56.1880612  5.3288819
  -56.186737   5.3289291
  -56.1851035  5.3279017
  -56.183646   5.3269508
  -56.1822566  5.3264538
  -56.1813462  5.3265281
  -56.180594   5.3279904
  -56.1801682  5.3296358
  -56.1797376  5.3308379
  -56.1787931  5.3311814
  -56.1779898  5.3308485
  -56.1769579  5.3295847
  -56.1753857  5.327055
  -56.1738757  5.3270395
  -56.1713018  5.3283676
  -56.1697879  5.3287084
  -56.1682466  5.3286701
  -56.1667763  5.328007
  -56.165048   5.3256271
  -56.1632038  5.323326
  -56.1612181  5.3213332
  -56.1594509  5.3206898
  -56.1554426  5.3209594
  -56.1534503  5.3209805
  -56.152244   5.3210835
  -56.1517948  5.3215659
  -56.1516116  5.3221001
  -56.1511358  5.3247328
  -56.1493508  5.3317815
  -56.1484827  5.3355504
  -56.1477637  5.3369341
  -56.146429   5.3383553
  -56.1451495  5.3399434
  -56.1445235  5.3408849
  -56.1438003  5.3440259
  -56.142988   5.3458875
  -56.1414591  5.3470953
  -56.1397218  5.3479368
  -56.1385212  5.3478963
  -56.1374452  5.3469349
  -56.1361281  5.3453239
  -56.1342093  5.3444141
  -56.1330067  5.3451068
  -56.1325693  5.3464112
  -56.13267    5.3476979
  -56.1328901  5.3509566
  -56.1329968  5.3536721
  -56.1327136  5.3553756
  -56.1317578  5.3563365
  -56.1306466  5.3573468
  -56.1303672  5.3586451
  -56.1308729  5.3604427
  -56.1319932  5.3624071
  -56.1326177  5.3635573
  -56.1326752  5.3645669
  -56.1319911  5.3655214
  -56.1303918  5.3660146
  -56.1269873  5.366023
  -56.1242654  5.3658021
  -56.12281    5.3663487
  -56.1222294  5.3671245
  -56.1213752  5.3692908
  -56.1206813  5.3714735
  -56.1199636  5.3741872
  -56.1188868  5.3758729
  -56.1173704  5.3764542
  -56.1153295  5.3770518
  -56.1111774  5.3776369
  -56.10853    5.377441
  -56.1051741  5.3764432
  -56.1044344  5.3765395
  -56.1038095  5.3771417
  -56.1035097  5.3779789
  -56.1034142  5.3801655
  -56.1027958  5.3828591
  -56.1018675  5.3846263
  -56.1011055  5.3853627
  -56.0997203  5.3857734
  -56.0978225  5.3854908
  -56.0962481  5.3846466
  -56.094643   5.3835398
  -56.0930706  5.3826317
  -56.0917802  5.3822894
  -56.090722   5.3822917
  -56.0893665  5.3828295
  -56.0868543  5.3841512
  -56.0851639  5.3857066
  -56.0844072  5.3867816
  -56.0837623  5.3883505
  -56.0832682  5.3905376
  -56.0831311  5.3923115
  -56.0829045  5.3943395
  -56.0823656  5.3954816
  -56.0815092  5.3960657
  -56.080667   5.3959932
  -56.0793391  5.3950095
  -56.0773746  5.3927209
  -56.0765863  5.3907061
  -56.0760888  5.3879284
  -56.0762433  5.3857586
  -56.0770013  5.3824608
  -56.0768276  5.3814046
  -56.0758753  5.3804686
  -56.0736603  5.3798992
  -56.0715723  5.3796211
  -56.068976   5.3795633
  -56.0647852  5.3800515
  -56.0611927  5.3805852
  -56.0575476  5.3809073
  -56.0556376  5.3812119
  -56.0545871  5.3818605
  -56.0537693  5.3828705
  -56.0533758  5.3838887
  -56.052927   5.3854391
  -56.0531483  5.3867043
  -56.0546494  5.3887378
  -56.0560184  5.3912654
  -56.0572286  5.3932903
  -56.0578668  5.3955767
  -56.0578841  5.3970555
  -56.0570441  5.3980464
  -56.0547002  5.398724
  -56.0527472  5.3986552
  -56.0508888  5.3975474
  -56.0488352  5.3962773
  -56.0477433  5.3960637
  -56.046471   5.3964826
  -56.0457924  5.3975213
  -56.0454841  5.3993772
  -56.0457698  5.4015382
  -56.0464071  5.4031757
  -56.0487745  5.4048591
  -56.0518612  5.4057015
  -56.0526122  5.4068665
  -56.0527446  5.4083249
  -56.0518556  5.4094883
  -56.0494291  5.4106509
  -56.0465405  5.4124572
  -56.0448373  5.4134769
  -56.0443414  5.4143329
  -56.0442164  5.415399
  -56.0447644  5.4176798
  -56.0457591  5.4203751
  -56.0473026  5.4233533
  -56.0482302  5.426052
  -56.0488527  5.4297606
  -56.0491117  5.4324464
  -56.0491575  5.4339687
  -56.0490837  5.4354517
  -56.0485389  5.4370248
  -56.0476779  5.4382044
  -56.0467895  5.4391644
  -56.0456899  5.4398827
  -56.0446574  5.4403541
  -56.0438849  5.4403063
  -56.0425142  5.4400013
  -56.0407792  5.4392501
  -56.0398962  5.4389662
  -56.039032   5.4385522
  -56.0377891  5.4374081
  -56.03719    5.4359698
  -56.0368312  5.4352799
  -56.0365024  5.434986
  -56.0360241  5.4348596
  -56.034565   5.4342722
  -56.0342128  5.4352119
  -56.033535   5.4361093
  -56.0322154  5.4371239
  -56.0306704  5.4378822
  -56.0286641  5.4381493
  -56.026808   5.4380104
  -56.0245872  5.4373909
  -56.0219479  5.4362268
  -56.0189331  5.4348062
  -56.0163045  5.4339518
  -56.0139227  5.4335887
  -56.0118413  5.4336955
  -56.0100604  5.434315
  -56.0091591  5.4352121
  -56.00873    5.436622
  -56.00873    5.4383949
  -56.0090947  5.4410437
  -56.0101247  5.4458072
  -56.0108114  5.4496735
  -56.0111762  5.4528135
  -56.0113692  5.4549495
  -56.0108543  5.4570856
  -56.0098672  5.4587196
  -56.0082793  5.4600547
  -56.005683   5.4612829
  -56.0015846  5.4621693
  -55.9969712  5.4628956
  -55.9936238  5.4637927
  -55.9914565  5.4646471
  -55.9897828  5.4659287
  -55.987959   5.467723
  -55.9852982  5.4716105
  -55.9827233  5.475199
  -55.9802342  5.4783175
  -55.978024   5.4803253
  -55.9755135  5.4818631
  -55.9732819  5.4826962
  -55.9707553  5.4834951
  -55.967896   5.4832835
  -55.9656966  5.4827068
  -55.9629607  5.4816709
  -55.9600639  5.4801437
  -55.9580898  5.4793213
  -55.95662    5.4791184
  -55.9552145  5.4793427
  -55.9541631  5.4799301
  -55.9531868  5.4808913
  -55.952704   5.4816709
  -55.952307   5.4828991
  -55.9515882  5.4857719
  -55.9512878  5.4883991
  -55.9510732  5.4906632
  -55.9512878  5.4928205
  -55.9515667  5.494102
  -55.9524679  5.4965797
  -55.9535194  5.4984379
  -55.9546566  5.4999117
  -55.9556115  5.5011825
  -55.9564376  5.5019942
  -55.958004   5.5031048
  -55.959903   5.5044291
  -55.9619737  5.5056145
  -55.9635079  5.5065115
  -55.9652138  5.507462
  -55.9665334  5.5084979
  -55.9675205  5.5095765
  -55.9685826  5.5108473
  -55.9694409  5.5122783
  -55.9702885  5.513955
  -55.970825   5.5152685
  -55.9712219  5.5167102
  -55.9713292  5.5180771
  -55.9712005  5.519412
  -55.9703636  5.5212275
  -55.9683252  5.5233419
  -55.9642053  5.526268
  -55.9605789  5.5286173
  -55.9576178  5.5298561
  -55.95397    5.5305823
  -55.9501934  5.5310308
  -55.9426403  5.5308172
  -55.9374476  5.5309026
  -55.9327913  5.5308599
  -55.9294653  5.5311162
  -55.9253349  5.5316947
  -55.9223306  5.5322481
  -55.9194553  5.5329957
  -55.9175778  5.5336364
  -55.9154749  5.5345761
  -55.9136725  5.5357295
  -55.9116769  5.5374381
  -55.9103036  5.5388904
  -55.9094238  5.5400864
  -55.9087157  5.5414105
  -55.9082092  5.5426488
  -55.9080259  5.5435874
  -55.9078733  5.5448986
  -55.9079092  5.5463822
  -55.908072   5.5479779
  -55.9084583  5.5494195
  -55.9094238  5.5519824
  -55.9104538  5.5544811
  -55.9114838  5.5568731
  -55.9125352  5.5593718
  -55.9141553  5.5623191
  -55.9156573  5.5647537
  -55.9169018  5.5663875
  -55.9182215  5.5680106
  -55.9197557  5.5694948
  -55.9212716  5.5705826
  -55.9244657  5.5727197
  -55.9282637  5.5749621
  -55.9336925  5.5778451
  -55.9396363  5.5807068
  -55.9454727  5.5836113
  -55.9494853  5.5861099
  -55.9520602  5.5878824
  -55.9548068  5.5903597
  -55.9566951  5.5926661
  -55.9575803  5.5944304
  -55.958519   5.5976205
  -55.9596777  5.6023187
  -55.9602571  5.6047318
  -55.9613514  5.6087679
  -55.962596   5.6127399
  -55.9637976  5.6160713
  -55.9652567  5.6200005
  -55.9669304  5.6243568
  -55.9687329  5.6292683
  -55.9699345  5.6326423
  -55.9707499  5.6353329
  -55.9714365  5.6385359
  -55.9715653  5.6418885
  -55.9711892  5.6457253
  -55.970428   5.6481237
  -55.9691406  5.6506648
  -55.9675956  5.6532059
  -55.9651923  5.6557255
  -55.9628749  5.6574338
  -55.9596133  5.6592061
  -55.9556866  5.6606154
  -55.9508157  5.6617685
  -55.945859   5.6621315
  -55.940516   5.6620674
  -55.9346581  5.6618966
  -55.9281993  5.6612346
  -55.9231138  5.6605513
  -55.9182215  5.6598894
  -55.913415   5.6591634
  -55.9097672  5.658779
  -55.9074712  5.6588217
  -55.9053898  5.6594944
  -55.9032516  5.6608087
  -55.9013772  5.662313
  -55.9000254  5.6637329
  -55.8986306  5.6653558
  -55.8974076  5.6671707
  -55.8956695  5.6704591
  -55.8937812  5.6745801
  -55.8916569  5.6803026
  -55.8898545  5.6864093
  -55.8878375  5.6939679
  -55.8855629  5.7020388
  -55.8834601  5.710195
  -55.8821726  5.716942
  -55.8810997  5.7246283
  -55.8806706  5.7306491
  -55.8808852  5.7354743
  -55.8820868  5.7408118
  -55.8838034  5.7464482
  -55.8873654  5.7538352
  -55.8902932  5.7588608
  -55.894146   5.7657055
  -55.8967818  5.770707
  -55.8981865  5.7733725
  -55.8983088  5.7736046
  -55.9018524  5.7804098
  -55.9019995  5.7806923
  -55.9072352  5.7898721
  -55.9142733  5.8003754
  -55.9209252  5.8094695
  -55.925603   5.8151479
  -55.9307845  5.8198562
  -55.9858398  5.8619476
  -56.0584504  6.033
  -56.059091   6.033
  -56.0632905  6.034
  -56.0668557  6.035
  -56.0697536  6.036
  -56.0748417  6.038
  -56.0775491  6.039
  -56.0863257  6.042
  -56.0918671  6.044
  -56.0979878  6.046
  -56.1013237  6.047
  -56.104889   6.048
  -56.1087339  6.049
  -56.1129303  6.05
  -56.1175828  6.051
  -56.1244841  6.053
  -56.128329   6.054
  -56.1325255  6.055
  -56.1371837  6.056
  -56.1424887  6.057
  -56.1483049  6.058
  -56.1546158  6.059
  -56.1618868  6.06
  -56.1687882  6.062
  -56.1726332  6.063
  -56.1768297  6.064
  -56.181488   6.065
  -56.1867931  6.066
  -56.193104   6.067
  -56.1989536  6.068
  -56.203612   6.069
  -56.2089171  6.07
  -56.2152281  6.071
  -56.2234649  6.072
  -56.2304652  6.073
  -56.2343103  6.074
  -56.2385069  6.075
  -56.2431445  6.076
  -56.2482329  6.078
  -56.2509405  6.079
  -56.2567526  6.081
  -56.2598958  6.082
  -56.2667975  6.084
  -56.2706426  6.085
  -56.2748393  6.086
  -56.2794978  6.087
  -56.2848031  6.088
  -56.2911143  6.089
  -56.299215   6.09
  -56.3045203  6.091
  -56.3108316  6.092
  -56.3190687  6.093
  -56.324103   6.094
  -56.3276686  6.095
  -56.3315138  6.096
  -56.3357106  6.097
  -56.3468499  6.1
  -56.3510467  6.101
  -56.3557054  6.102
  -56.3610108  6.103
  -56.3673222  6.104
  -56.3832688  6.106
  -56.3895803  6.107
  -56.3978176  6.108
  -56.4155195  6.109
  -56.42569    6.11
  -56.4339273  6.111
  -56.4461398  6.112
  -56.4543772  6.113
  -56.4720793  6.114
  -56.4854429  6.114
  -56.4887863  6.117
  -56.4922863  6.12
  -56.4959558  6.123
  -56.4985037  6.125
  -56.5024911  6.128
  -56.5052685  6.13
  -56.5111415  6.134
  -56.5174991  6.138
  -56.520888   6.14
  -56.5244363  6.142
  -56.5281619  6.144
  -56.5320871  6.146
  -56.5384111  6.149
  -56.5453745  6.152
  -56.5504636  6.154
  -56.5531716  6.155
  -56.5589845  6.157
  -56.5713746  6.161
  -56.5817534  6.164
  -56.589315   6.166
  -56.5951281  6.168
  -56.5982718  6.169
  -56.6051745  6.171
  -56.6130911  6.173
END
END
