polygon
1
  8.4840482    53.2225836
  8.4881437    53.2195148
  8.4892675    53.2186799
  8.4897848    53.2181751
  8.4901533    53.2177974
  8.4905198    53.2175286
  8.4910275    53.2171562
  8.4913944    53.2166993
  8.4919384    53.2156654
  8.4919604    53.2155504
  8.4921096    53.2152278
  8.4923133    53.2147875
  8.4919794    53.2146885
  8.4929172    53.2136586
  8.4937941    53.2126977
  8.494224     53.2128577
  8.4954359    53.2112589
  8.4949879    53.2110719
  8.4960088    53.209981
  8.4956578    53.2098551
  8.4959708    53.2094781
  8.4974026    53.2083032
  8.4978865    53.2085472
  8.4985291    53.208069
  8.498684     53.2079537
  8.4987074    53.2079363
  8.4995662    53.2072884
  8.4989893    53.2068994
  8.5000992    53.2060325
  8.5007781    53.2063425
  8.5015599    53.2057015
  8.5017029    53.2053422
  8.5017525    53.2052177
  8.5019169    53.2048046
  8.5021659    53.2044307
  8.5027048    53.2036148
  8.5032107    53.2029739
  8.5036515    53.2023992
  8.5040159    53.201924
  8.5040378    53.2018954
  8.5042406    53.201665
  8.5062953    53.2000212
  8.5079122    53.1992307
  8.5089928    53.1986744
  8.5095988    53.1983734
  8.5124373    53.1969196
  8.5141101    53.1975525
  8.514405     53.1976675
  8.5154398    53.1980034
  8.5162407    53.1973965
  8.5163147    53.1973435
  8.5183204    53.1958707
  8.5187044    53.1955887
  8.5201441    53.1945199
  8.521259     53.1936699
  8.5219079    53.19317
  8.5229327    53.1924491
  8.5264862    53.1906103
  8.528072     53.1898284
  8.5293422    53.1891423
  8.5296547    53.1889735
  8.5324703    53.1875927
  8.5339491    53.1868528
  8.5359857    53.1865058
  8.5383706    53.186107
  8.5386833    53.1860669
  8.5397132    53.1859029
  8.5402741    53.1857119
  8.5411979    53.1854869
  8.5414579    53.1854219
  8.5418351    53.1853227
  8.5436016    53.184858
  8.5442285    53.184694
  8.5457562    53.1843121
  8.547619     53.1837891
  8.5501656    53.1831292
  8.5546939    53.1819434
  8.5556037    53.1817064
  8.5558227    53.1816494
  8.5578321    53.181079
  8.5621117    53.1797496
  8.5639185    53.1791397
  8.5653453    53.1786628
  8.5662841    53.1783418
  8.5693256    53.1773199
  8.5708404    53.176793
  8.5713953    53.176603
  8.573348     53.1759161
  8.5747498    53.1754541
  8.5763006    53.1750192
  8.5785902    53.1743783
  8.5789812    53.1742723
  8.5793511    53.1741803
  8.5826206    53.1733754
  8.5841104    53.1730664
  8.5848833    53.1729635
  8.5851652    53.1729255
  8.5864062    53.1727869
  8.5879268    53.1726235
  8.5900125    53.1724525
  8.5913893    53.1723295
  8.5918212    53.1722915
  8.5949967    53.1720366
  8.5963215    53.1719336
  8.5999979    53.1716206
  8.6055541    53.1710977
  8.605858     53.1710677
  8.606118     53.1710407
  8.6077418    53.1708683
  8.6083654    53.1708021
  8.6093095    53.1707008
  8.6109432    53.1704648
  8.6114612    53.1703888
  8.6118611    53.1703158
  8.6131279    53.1700799
  8.6137258    53.1699569
  8.6144477    53.1697319
  8.6148496    53.1696329
  8.6154645    53.1694499
  8.6157625    53.1693579
  8.6167524    53.168874
  8.6170483    53.168717
  8.6173813    53.168538
  8.6182351    53.1680311
  8.618807     53.1677051
  8.6199286    53.1669347
  8.6207466    53.1661946
  8.6210853    53.1658736
  8.6216304    53.1653617
  8.6223042    53.1645922
  8.6228347    53.1639864
  8.6233774    53.1630717
  8.6239243    53.1613709
  8.6242063    53.1593791
  8.6243613    53.1583832
  8.6247022    53.1565184
  8.6249632    53.1546946
  8.6252172    53.1531038
  8.6254341    53.151742
  8.6254581    53.151509
  8.6256131    53.1506361
  8.6261321    53.1476834
  8.626305     53.1466955
  8.626563     53.1455167
  8.6277928    53.1434029
  8.6282168    53.142675
  8.6282478    53.142564
  8.6290977    53.1411222
  8.6300665    53.1394284
  8.6306134    53.1384595
  8.6316463    53.1373336
  8.633434     53.1353848
  8.633839     53.1349729
  8.6341999    53.1346069
  8.6347448    53.13405
  8.6353827    53.133599
  8.6373175    53.1322302
  8.6381723    53.1316273
  8.6389222    53.1311463
  8.640508     53.1301284
  8.6410419    53.1298075
  8.6420507    53.1292015
  8.6434385    53.1284956
  8.6446143    53.1278871
  8.6448243    53.1277937
  8.6455212    53.1274497
  8.6484078    53.125108
  8.6489647    53.1236202
  8.6492504    53.1235345
  8.6497646    53.1233802
  8.6507724    53.1220184
  8.6511044    53.1220904
  8.6513734    53.1220404
  8.6506535    53.1207895
  8.6501746    53.1199616
  8.6499806    53.1184738
  8.6503006    53.1177039
  8.6510674    53.116838
  8.6514554    53.1170089
  8.6519313    53.116506
  8.6521973    53.116296
  8.6526332    53.116265
  8.653681     53.116269
  8.653708     53.1161011
  8.654118     53.116193
  8.6543569    53.1163
  8.6546439    53.116426
  8.6554268    53.1171049
  8.6550748    53.1172309
  8.6553558    53.1175779
  8.6569775    53.1180778
  8.6572755    53.1175969
  8.6572185    53.1175129
  8.6564936    53.1172649
  8.6562646    53.1171889
  8.6560507    53.1170669
  8.6559007    53.11686
  8.6557337    53.11662
  8.6554608    53.1160211
  8.6548849    53.1151552
  8.653972     53.1128784
  8.6535511    53.1118255
  8.6534451    53.1110276
  8.6534371    53.1102537
  8.6536081    53.1097348
  8.65403      53.1090858
  8.654229     53.1088996
  8.6548229    53.1090249
  8.6551749    53.1086509
  8.6559818    53.1082579
  8.6582874    53.107377
  8.6596382    53.1068621
  8.6599432    53.1066641
  8.6602871    53.1064882
  8.6602691    53.1064192
  8.66112      53.1061412
  8.6626667    53.1055463
  8.6632307    53.1053283
  8.6670031    53.1039325
  8.6682509    53.1034515
  8.669879     53.1027205
  8.6704666    53.1024566
  8.6702856    53.1022347
  8.6701496    53.1020667
  8.6693867    53.1011058
  8.6691478    53.1008048
  8.6687058    53.0998129
  8.6681765    53.0995023
  8.667905     53.099343
  8.6668881    53.098752
  8.6661773    53.0980961
  8.6664202    53.0979781
  8.6662602    53.0974432
  8.6658583    53.0960893
  8.6652604    53.0957954
  8.6648715    53.0956124
  8.6649015    53.0950934
  8.6649715    53.0945745
  8.6649955    53.0944645
  8.6651074    53.0941896
  8.6654464    53.0933546
  8.6659483    53.0925037
  8.6661953    53.0920958
  8.6665183    53.0916568
  8.6672191    53.0909509
  8.6677301    53.09052
  8.6688079    53.0898101
  8.6692099    53.0896011
  8.6694128    53.0894821
  8.6698788    53.0892531
  8.6710146    53.0886732
  8.6716135    53.0883642
  8.6729263    53.0876853
  8.6731363    53.0875673
  8.6733712    53.0874413
  8.6742831    53.0865374
  8.674607     53.0862245
  8.674927     53.0865714
  8.6753309    53.0864455
  8.6756609    53.0863925
  8.6774466    53.0862095
  8.6781695    53.0861335
  8.6793363    53.0861135
  8.68129      53.0860835
  8.681575     53.0859345
  8.6825948    53.0858965
  8.6828808    53.0858925
  8.6835397    53.0859305
  8.6844175    53.0859995
  8.6857803    53.0860035
  8.6870091    53.0859195
  8.6874421    53.0858466
  8.6879114    53.0857967
  8.6889988    53.0855646
  8.6909295    53.0852286
  8.6922803    53.0848857
  8.6925783    53.0848287
  8.6928662    53.0847557
  8.694113     53.0845237
  8.6955548    53.0842488
  8.6961447    53.0841188
  8.6966107    53.0840158
  8.6979085    53.0837258
  8.6996302    53.0831459
  8.7004301    53.0828939
  8.700825     53.0829359
  8.7029797    53.081945
  8.7039155    53.0815131
  8.7038486    53.0814451
  8.7036176    53.0813111
  8.7033116    53.0812651
  8.7030437    53.0813191
  8.7026997    53.0815361
  8.7023998    53.0816011
  8.7015129    53.0815781
  8.7016269    53.0809182
  8.7019768    53.0808462
  8.7027547    53.0806592
  8.7032717    53.0805672
  8.7037406    53.0802052
  8.7041535    53.0799263
  8.7045875    53.0797853
  8.7047434    53.0793963
  8.704722     53.0790973
  8.7047054    53.0788664
  8.7050254    53.0785874
  8.7052564    53.0784044
  8.7055733    53.0781185
  8.7061312    53.0778515
  8.7064182    53.0775195
  8.7065902    53.0771766
  8.7064022    53.0769246
  8.7061572    53.0761467
  8.707845     53.0759627
  8.7088548    53.0759137
  8.7088558    53.0752878
  8.7088798    53.0748759
  8.7090028    53.0748679
  8.7091138    53.0748799
  8.7091768    53.0745899
  8.7093648    53.0740409
  8.7097687    53.0726561
  8.7098737    53.0722701
  8.7099089    53.0721092
  8.7100417    53.0715032
  8.7102487    53.0702944
  8.7104026    53.0696949
  8.7104536    53.0692108
  8.7103973    53.0684701
  8.7101741    53.0670944
  8.709952     53.0659727
  8.7096999    53.065169
  8.7094478    53.0637458
  8.709083     53.0619802
  8.7087954    53.0600737
  8.7086908    53.0594395
  8.708428     53.0583305
  8.7083542    53.0577342
  8.7084709    53.0570869
  8.7083475    53.0567442
  8.7078739    53.056122
  8.7072543    53.0539372
  8.7070473    53.0533953
  8.7068223    53.0524344
  8.7068683    53.0520754
  8.7070163    53.0517245
  8.7071243    53.0514765
  8.7078002    53.0504846
  8.7081896    53.0494603
  8.7083491    53.0491957
  8.7085341    53.0487258
  8.7088091    53.0480009
  8.7091791    53.0472522
  8.709201     53.047208
  8.7092132    53.047186
  8.709281     53.047063
  8.709443     53.0464681
  8.7096369    53.0460291
  8.7099349    53.0455222
  8.7102819    53.0452282
  8.7109308    53.0447972
  8.7113757    53.0445453
  8.7115987    53.0441943
  8.7122993    53.0438113
  8.7150091    53.0421766
  8.7167509    53.0411697
  8.7188436    53.0399748
  8.7197494    53.0395059
  8.7200607    53.0392845
  8.7207243    53.0391359
  8.7211397    53.0389237
  8.7215587    53.0386881
  8.722353     53.03819
  8.7238228    53.0373351
  8.7241638    53.0371371
  8.7247671    53.0367546
  8.7247434    53.0367134
  8.7248808    53.0366852
  8.7252537    53.0364922
  8.7255992    53.0363227
  8.7258165    53.0362211
  8.726568     53.0358287
  8.7267193    53.0357541
  8.7267305    53.0356667
  8.7268269    53.035701
  8.7269191    53.0356555
  8.7273194    53.0354561
  8.7279423    53.0351528
  8.7287256    53.0347262
  8.728735     53.0346847
  8.7287992    53.0346936
  8.7293752    53.0344385
  8.7300688    53.0340602
  8.7300804    53.0340087
  8.730165     53.0340165
  8.7306897    53.0337896
  8.7307672    53.0337609
  8.7308432    53.033743
  8.7309721    53.0337138
  8.7313817    53.0336592
  8.7318857    53.0336432
  8.7322176    53.0336266
  8.7335166    53.0335938
  8.7339588    53.0336058
  8.734166     53.0338307
  8.7345365    53.0344899
  8.7348763    53.0350569
  8.734819     53.0351628
  8.7347374    53.0351997
  8.7343928    53.0352641
  8.7339712    53.0354076
  8.7336791    53.0355582
  8.7331062    53.0360547
  8.7322731    53.0363813
  8.7324474    53.0366791
  8.7325165    53.0367972
  8.7327424    53.0370382
  8.7330114    53.0372212
  8.7331958    53.0372731
  8.7333244    53.0373092
  8.7336983    53.0373122
  8.7338773    53.0372742
  8.7349921    53.0370192
  8.7352731    53.0369542
  8.735589     53.0369612
  8.735862     53.0370342
  8.7361835    53.0370613
  8.736239     53.037066
  8.7366727    53.037076
  8.7371072    53.0371245
  8.7375149    53.0372149
  8.7377732    53.0372955
  8.7379441    53.037409
  8.7379333    53.0376045
  8.7379012    53.0377122
  8.7378904    53.0378269
  8.7379022    53.0379384
  8.7380674    53.0379867
  8.7382431    53.0380164
  8.7385073    53.0380854
  8.7387005    53.0382275
  8.738948     53.038457
  8.7392384    53.03856
  8.7395641    53.0386441
  8.739699     53.0387586
  8.7397412    53.0389307
  8.7397465    53.0390463
  8.7397733    53.0392439
  8.7398593    53.0395023
  8.7394261    53.0399452
  8.7392721    53.0402083
  8.7393251    53.0401986
  8.7416775    53.0393091
  8.74198      53.0397849
  8.742196     53.0397039
  8.7430638    53.0407308
  8.7451576    53.0400961
  8.7486253    53.0389693
  8.74887      53.0388793
  8.7491209    53.0387991
  8.749264     53.0391206
  8.7493503    53.0392059
  8.7494406    53.0392013
  8.7494613    53.0390898
  8.7496547    53.0387938
  8.7498401    53.0386398
  8.7502439    53.0384874
  8.7512306    53.0381875
  8.7516601    53.038073
  8.7517284    53.0380541
  8.7519014    53.0381392
  8.7533942    53.0384651
  8.7538032    53.0385711
  8.7539202    53.0386061
  8.7543701    53.0387161
  8.754881     53.0387621
  8.7557279    53.038831
  8.7559808    53.038873
  8.7561198    53.038896
  8.7564288    53.039021
  8.7566247    53.039105
  8.7567317    53.039224
  8.7568517    53.039361
  8.7570187    53.039639
  8.7570747    53.039731
  8.7571626    53.0399829
  8.7571776    53.0401129
  8.7571246    53.0404599
  8.7571356    53.0406618
  8.7571896    53.0407798
  8.7572626    53.0409598
  8.7572228    53.0410054
  8.7571796    53.0410548
  8.7570787    53.0411118
  8.7567797    53.0412038
  8.7565517    53.0412718
  8.7563798    53.0413298
  8.7562258    53.0414778
  8.7558138    53.0418867
  8.7555309    53.0420697
  8.7552819    53.0424016
  8.7552529    53.0426036
  8.754966     53.0428596
  8.7552369    53.0430306
  8.7555749    53.0429506
  8.7557188    53.0433245
  8.7557958    53.0434885
  8.7558828    53.0436715
  8.7560718    53.0438895
  8.7562448    53.0440075
  8.7564587    53.0440725
  8.7567357    53.0440765
  8.7573366    53.0438205
  8.7576185    53.0437055
  8.7579315    53.0437255
  8.7581885    53.0438085
  8.7583804    53.0439315
  8.7584644    53.0440225
  8.7586264    53.0441985
  8.7590973    53.0447514
  8.7592453    53.0448764
  8.7595405    53.0451633
  8.7601701    53.0455713
  8.7603137    53.0456254
  8.760211     53.0458027
  8.7608544    53.0458981
  8.7614427    53.0460829
  8.7617521    53.0460431
  8.762111     53.0460187
  8.7625534    53.0460765
  8.7628879    53.0461662
  8.7630231    53.0462215
  8.7633506    53.0465212
  8.7639087    53.0471496
  8.762603     53.0476157
  8.7624986    53.0476732
  8.7623764    53.0477641
  8.7619917    53.0481994
  8.7617891    53.0484871
  8.7618942    53.0485163
  8.7614017    53.0492695
  8.7609201    53.0499819
  8.7607505    53.0503199
  8.7611309    53.0504638
  8.7615391    53.0506363
  8.7618158    53.0507553
  8.7621126    53.0508796
  8.7624117    53.05101
  8.7651087    53.0521765
  8.7660747    53.052597
  8.766309     53.0522387
  8.7667923    53.0513625
  8.7678128    53.0518202
  8.7685595    53.0521694
  8.7690551    53.0524128
  8.7695571    53.0526456
  8.7705319    53.0530802
  8.7708174    53.0520186
  8.7712424    53.0500418
  8.7714114    53.0491879
  8.7714294    53.048745
  8.7714354    53.048581
  8.7714174    53.0480431
  8.7714624    53.0478871
  8.7715324    53.0476391
  8.7716184    53.0474251
  8.7717813    53.0472691
  8.7720293    53.0470282
  8.7724002    53.0466392
  8.7725872    53.0463683
  8.7726472    53.0461393
  8.7726362    53.0453994
  8.7726442    53.0451744
  8.7726492    53.0450454
  8.7727122    53.0449494
  8.7728342    53.0448584
  8.7730961    53.0447394
  8.7733951    53.0446364
  8.773853     53.0445485
  8.773983     53.0445105
  8.774333     53.0444005
  8.7744539    53.0443435
  8.7748569    53.0441485
  8.7755208    53.0437856
  8.7756388    53.0437026
  8.7759887    53.0434386
  8.7762317    53.0432636
  8.7764586    53.0430496
  8.7764996    53.0429586
  8.7765976    53.0427257
  8.7767166    53.0422297
  8.7769086    53.0413748
  8.7770106    53.0409749
  8.7770486    53.0408299
  8.7771576    53.0405019
  8.7772725    53.040154
  8.7773765    53.039956
  8.7775055    53.039716
  8.7776905    53.039517
  8.7778535    53.0393991
  8.7782564    53.0392161
  8.7787343    53.0390441
  8.7800171    53.0385862
  8.7813329    53.0382582
  8.7816249    53.0381172
  8.7817669    53.0380832
  8.7819628    53.0380372
  8.7825807    53.0378812
  8.7828767    53.0378462
  8.7829977    53.0378462
  8.7832336    53.0378432
  8.7834866    53.0379262
  8.7838175    53.0380642
  8.7842675    53.0382132
  8.7847154    53.0383272
  8.7850284    53.0383652
  8.7854413    53.0384412
  8.7858362    53.0384262
  8.7861152    53.0383462
  8.7863362    53.0382552
  8.7864991    53.0381022
  8.7868421    53.0379652
  8.7872868    53.0378413
  8.7882049    53.0374693
  8.7883678    53.0374193
  8.7885291    53.0374086
  8.7886818    53.0374043
  8.7891068    53.0373824
  8.7894426    53.03735
  8.7896392    53.0373318
  8.7897566    53.0373203
  8.7900336    53.0371943
  8.7909954    53.0367174
  8.7917631    53.0363399
  8.7922763    53.0360845
  8.7930086    53.0357327
  8.7931779    53.0356728
  8.7935318    53.0355464
  8.793951     53.0353993
  8.7981914    53.0341577
  8.7999791    53.0336658
  8.8000969    53.0336343
  8.8024377    53.0329749
  8.8039145    53.0325629
  8.8058092    53.031983
  8.807049     53.031606
  8.807172     53.03156
  8.807844     53.0313323
  8.8083346    53.0311691
  8.8084945    53.0311196
  8.8085713    53.031096
  8.8088085    53.0310198
  8.8088529    53.0310036
  8.808904     53.0309774
  8.809117     53.0308679
  8.8094456    53.0306101
  8.8095516    53.0305181
  8.8097006    53.0303892
  8.8099286    53.0301182
  8.8100985    53.0297862
  8.8101115    53.0294433
  8.8102065    53.0290763
  8.8104535    53.0288053
  8.8107605    53.0286534
  8.8122832    53.0279015
  8.8130391    53.0275585
  8.813738     53.0272455
  8.8154038    53.0265396
  8.8156667    53.0263566
  8.8161996    53.0258187
  8.8165936    53.0254337
  8.8171825    53.0248688
  8.8172355    53.0246938
  8.8173175    53.0244269
  8.8173664    53.024029
  8.817401     53.0237993
  8.8174245    53.0236599
  8.8174291    53.0235726
  8.8175447    53.0234684
  8.8175423    53.0229769
  8.817619     53.0227088
  8.8177491    53.0224727
  8.8190022    53.0219281
  8.820692     53.0213533
  8.8220631    53.0208541
  8.8232202    53.02066
  8.8237691    53.0205583
  8.8242361    53.0205231
  8.8245924    53.0206043
  8.8259392    53.0207793
  8.827361     53.0209623
  8.8290507    53.0212143
  8.8293996    53.0212643
  8.8298136    53.0212942
  8.8302575    53.0212913
  8.8304675    53.0212643
  8.8308904    53.0212143
  8.8314463    53.0211153
  8.8317603    53.0210203
  8.8319272    53.0209663
  8.8322992    53.0207913
  8.8323892    53.0207493
  8.8329211    53.0202414
  8.8332299    53.019976
  8.8340554    53.0196055
  8.834871     53.0192727
  8.8362906    53.0187553
  8.8376934    53.0182156
  8.8381621    53.0181266
  8.8382813    53.0182316
  8.8384383    53.0183606
  8.8393871    53.0192685
  8.8397945    53.0196215
  8.8400294    53.0198075
  8.8402512    53.0199302
  8.8404553    53.0200476
  8.8404952    53.0201143
  8.8405241    53.0206539
  8.8406131    53.0207412
  8.8410584    53.0209432
  8.841608     53.0212137
  8.8422996    53.0213553
  8.8427576    53.0214663
  8.8428716    53.0215193
  8.8431205    53.0216343
  8.8436167    53.0221516
  8.8441029    53.0224271
  8.8442126    53.0225158
  8.844244     53.0227818
  8.8442816    53.0229837
  8.8443287    53.0231082
  8.8444165    53.0232421
  8.8445702    53.0233893
  8.8446486    53.023627
  8.8448014    53.0237291
  8.8448243    53.023731
  8.845185     53.0237613
  8.8456524    53.0242774
  8.8468255    53.024451
  8.8488166    53.02414
  8.8491936    53.024098
  8.8493525    53.024045
  8.8495955    53.023915
  8.8497405    53.023705
  8.8498265    53.0235181
  8.8498145    53.0233581
  8.8498641    53.0230859
  8.8498452    53.0227098
  8.849454     53.0216805
  8.8492062    53.0213584
  8.8488011    53.0208509
  8.8487206    53.0203796
  8.8486838    53.0196698
  8.8481686    53.0189751
  8.8478114    53.0178901
  8.8472769    53.0178077
  8.8474385    53.0175979
  8.8479651    53.0165436
  8.8507791    53.0165759
  8.8508216    53.0165821
  8.8508401    53.016596
  8.8508578    53.0166193
  8.8514869    53.0177046
  8.8513252    53.0181233
  8.8514522    53.018882
  8.851614     53.0191765
  8.85178      53.0194993
  8.8520355    53.0197093
  8.8527976    53.0204495
  8.8530573    53.0204725
  8.8534193    53.0205288
  8.8536534    53.0206723
  8.8541218    53.0207261
  8.8541686    53.020662
  8.8542623    53.0206031
  8.8544624    53.0206082
  8.8545305    53.0207389
  8.8545561    53.0209489
  8.8548913    53.0210926
  8.8557771    53.021311
  8.8570581    53.0215944
  8.85785      53.0216886
  8.859503     53.021568
  8.8611041    53.0215046
  8.8619524    53.0215375
  8.86241      53.0215991
  8.8629158    53.0216933
  8.8637843    53.0219313
  8.8639033    53.0219473
  8.8641003    53.0219733
  8.8643422    53.0219582
  8.8645822    53.0219433
  8.8647712    53.0219353
  8.8656447    53.0218598
  8.8667778    53.0217816
  8.8683899    53.0236056
  8.8691345    53.0247451
  8.8679576    53.0253689
  8.8672148    53.0257159
  8.8667878    53.0260668
  8.8665559    53.0263418
  8.8659559    53.0266928
  8.865503     53.0271807
  8.8649858    53.0277209
  8.8648066    53.0280383
  8.8646011    53.0286495
  8.8644601    53.0295081
  8.8643657    53.0301809
  8.8643559    53.030391
  8.864377     53.0305494
  8.8644929    53.0309702
  8.863937     53.0334642
  8.8627121    53.034193
  8.8619665    53.0356485
  8.86217      53.0369516
  8.8624849    53.0380988
  8.8629125    53.0396533
  8.8634139    53.0406285
  8.8663281    53.0407028
  8.8661178    53.0395213
  8.8657349    53.0377705
  8.865354     53.0360227
  8.865269     53.0353938
  8.8655869    53.0343029
  8.8663708    53.033357
  8.8668508    53.0327771
  8.8672887    53.0324331
  8.8686335    53.0314682
  8.8714461    53.0299804
  8.8726409    53.0294585
  8.8739917    53.0288625
  8.8751985    53.0283666
  8.8764783    53.0278407
  8.8771802    53.0274817
  8.8781521    53.0268758
  8.8795408    53.0260209
  8.8812156    53.02514
  8.8820935    53.024674
  8.8833083    53.0239421
  8.8839772    53.0235342
  8.8848511    53.0229042
  8.8860299    53.0220503
  8.8872527    53.0208975
  8.8886035    53.0189637
  8.8892514    53.0181588
  8.8896444    53.0174299
  8.8908152    53.0157671
  8.8913981    53.0152291
  8.8929809    53.0141842
  8.8940707    53.0136193
  8.8950946    53.0133104
  8.8956355    53.0131504
  8.8959982    53.0130904
  8.8970503    53.0129134
  8.898998     53.0127344
  8.9008401    53.0126949
  8.9031793    53.0126545
  8.9044111    53.0124975
  8.905353     53.0123755
  8.9070117    53.0121125
  8.9080156    53.0119525
  8.9086385    53.0118756
  8.9098923    53.0117236
  8.911539     53.0115286
  8.9160835    53.0111644
  8.9162764    53.0116255
  8.9176957    53.0133249
  8.9212453    53.0122882
  8.9212503    53.0121592
  8.9213861    53.012153
  8.9214168    53.0123984
  8.9217319    53.0147563
  8.921779     53.0148247
  8.9240028    53.0139685
  8.9253489    53.0136304
  8.928523     53.0128454
  8.9287911    53.0140835
  8.9358489    53.0135925
  8.9368064    53.0178682
  8.9382706    53.0240665
  8.938248     53.0247879
  8.9388875    53.0248414
  8.9392152    53.0248343
  8.939555     53.0247592
  8.939875     53.0246712
  8.9401459    53.0246031
  8.940416     53.0245551
  8.9406923    53.0245185
  8.9409371    53.0244927
  8.941159     53.0244906
  8.9414647    53.0245198
  8.9417088    53.0245311
  8.9419376    53.0245093
  8.9422648    53.0244516
  8.9426886    53.0244145
  8.9433055    53.0244081
  8.9439059    53.0244263
  8.9445031    53.0244625
  8.9447788    53.0245103
  8.9453157    53.0246442
  8.9454177    53.0246702
  8.9457592    53.0248747
  8.9460886    53.0252162
  8.9461416    53.0253002
  8.9463099    53.025616
  8.9463435    53.0259061
  8.9461725    53.0262151
  8.9457896    53.026521
  8.9453577    53.026963
  8.9449037    53.0273069
  8.9448437    53.0274099
  8.9447947    53.0274939
  8.9450167    53.0279479
  8.9453956    53.0283938
  8.9456436    53.0286838
  8.9458696    53.0289468
  8.9461375    53.0292217
  8.9462235    53.0295537
  8.9460965    53.0298547
  8.9458676    53.0301256
  8.9457536    53.0303466
  8.9457276    53.0304686
  8.9457816    53.0306066
  8.9459965    53.0307056
  8.9463475    53.0307706
  8.9464875    53.0308005
  8.9466214    53.0308615
  8.9473773    53.0307016
  8.9475703    53.0308006
  8.9487811    53.0306216
  8.949423     53.0308616
  8.9498689    53.0310635
  8.9503159    53.0312855
  8.9507484    53.0313525
  8.9511295    53.031432
  8.9513224    53.0323545
  8.9514325    53.0324123
  8.9514864    53.0323991
  8.9517209    53.0333167
  8.9529481    53.033707
  8.9531794    53.0334697
  8.9536255    53.0336053
  8.9539519    53.0339603
  8.953812     53.0340058
  8.9600295    53.0359507
  8.963531     53.0371111
  8.9654239    53.0363621
  8.9655449    53.0363856
  8.9656863    53.0364164
  8.9665244    53.0366576
  8.966673     53.0367837
  8.9668172    53.0369002
  8.9667957    53.0369147
  8.9670114    53.0370746
  8.9672785    53.0372808
  8.9677762    53.0376612
  8.9682166    53.0379129
  8.9688608    53.0381765
  8.9690883    53.038291
  8.9698947    53.0386269
  8.9700305    53.0386896
  8.9702996    53.0387796
  8.9705577    53.0388807
  8.9708376    53.0389907
  8.9710196    53.0391017
  8.9712436    53.0392347
  8.9764497    53.0442021
  8.9767097    53.0444531
  8.9774915    53.045205
  8.9777035    53.045407
  8.9782745    53.0457459
  8.9784422    53.0458258
  8.9785363    53.0458626
  8.9786583    53.045918
  8.9801568    53.0465834
  8.9802995    53.0468292
  8.9765652    53.051495
  8.9736015    53.0511794
  8.97261      53.0528874
  8.9723206    53.0533832
  8.9720797    53.0537792
  8.9719717    53.0540001
  8.97177      53.0543393
  8.9715688    53.0546784
  8.971406     53.0549575
  8.9712293    53.0552514
  8.9710002    53.0556332
  8.9709458    53.0558239
  8.9707225    53.0559204
  8.9704959    53.0562152
  8.9701511    53.0564719
  8.9700544    53.0565344
  8.9700077    53.0565669
  8.9698976    53.0566403
  8.9695971    53.0567652
  8.9695881    53.0567896
  8.9694623    53.0568595
  8.9692372    53.0569875
  8.9690758    53.0570781
  8.9683287    53.0574958
  8.967979     53.0576907
  8.9667835    53.0575726
  8.9660194    53.0574856
  8.9659488    53.057725
  8.9658993    53.0578913
  8.9657825    53.0582062
  8.9655439    53.0585566
  8.9653891    53.0586344
  8.965231     53.0588475
  8.9651152    53.0589062
  8.9650148    53.0590598
  8.9648378    53.0591495
  8.9646746    53.0593524
  8.9642384    53.0595491
  8.9641273    53.0596164
  8.9640266    53.059695
  8.9637339    53.0599887
  8.9636952    53.0600886
  8.9636811    53.0602901
  8.963708     53.0604097
  8.9638277    53.0605849
  8.9640246    53.0608354
  8.9643221    53.0612277
  8.9644331    53.0614963
  8.9645766    53.0618159
  8.9646727    53.0620074
  8.9647566    53.0622513
  8.9649309    53.0622882
  8.9651633    53.0623601
  8.965263     53.0623955
  8.9654486    53.0624534
  8.965854     53.0626183
  8.9662376    53.0628372
  8.9663449    53.0630839
  8.9663615    53.0633589
  8.966359     53.063731
  8.9662845    53.0640713
  8.9658476    53.0646006
  8.9650694    53.0653753
  8.9646632    53.0658759
  8.9644058    53.0664445
  8.9643777    53.066596
  8.9644117    53.0669146
  8.9644421    53.0672115
  8.9642329    53.0676674
  8.9642115    53.068088
  8.9641226    53.0682765
  8.9641184    53.0686833
  8.9640481    53.069143
  8.9639465    53.0693324
  8.9638324    53.0694759
  8.9636156    53.0698221
  8.9633529    53.070103
  8.9639257    53.0705561
  8.9644311    53.0709567
  8.9648074    53.0712582
  8.9648313    53.0712873
  8.9648182    53.0713099
  8.9647307    53.0713568
  8.9646146    53.0713982
  8.9645171    53.0714202
  8.9644182    53.0714357
  8.9642877    53.0714413
  8.9640196    53.0714292
  8.963859     53.0714391
  8.9636999    53.0714744
  8.9636231    53.0715033
  8.9635809    53.0715377
  8.9635515    53.071592
  8.9635278    53.0718298
  8.9635513    53.0723815
  8.9644225    53.072792
  8.9644508    53.072826
  8.9642996    53.0733449
  8.9641838    53.0737397
  8.9640472    53.0743405
  8.964097     53.0747169
  8.9641766    53.0752423
  8.9642653    53.0755706
  8.9643207    53.0757293
  8.9644408    53.0760502
  8.9647349    53.0765137
  8.9647927    53.0766149
  8.9647898    53.0767308
  8.9647137    53.0771051
  8.9646076    53.0775844
  8.9645028    53.0779283
  8.9642173    53.0786642
  8.9641853    53.0787812
  8.9643416    53.079317
  8.9643164    53.0795492
  8.9642567    53.0798352
  8.9642275    53.0799695
  8.9642031    53.0800324
  8.9641971    53.0802603
  8.9643555    53.0805741
  8.9644002    53.080647
  8.9647262    53.081063
  8.9649791    53.0813942
  8.9652188    53.0817288
  8.9652501    53.0817564
  8.9653007    53.0817861
  8.9654157    53.081841
  8.9654684    53.0818673
  8.9654885    53.0818853
  8.9655025    53.0819097
  8.9655076    53.0819762
  8.9655078    53.0821002
  8.965519     53.082143
  8.9655691    53.0822809
  8.9655824    53.0823396
  8.9656114    53.0824025
  8.965657     53.0824533
  8.9657407    53.0825113
  8.9658631    53.082598
  8.9659462    53.0826762
  8.9659642    53.0827248
  8.9658679    53.0828087
  8.9657094    53.0829107
  8.9654054    53.0830854
  8.9640313    53.0837714
  8.9631251    53.0842117
  8.9626217    53.0844479
  8.9623415    53.0844917
  8.9623349    53.08454
  8.9623607    53.0846399
  8.9623162    53.0847138
  8.9619395    53.0847969
  8.9616367    53.0849456
  8.9614617    53.084993
  8.9613659    53.0850015
  8.9611197    53.0850442
  8.9631034    53.0873717
  8.9634131    53.087746
  8.9632085    53.0877873
  8.9630676    53.0878649
  8.9631005    53.0879131
  8.9631464    53.0878752
  8.9631618    53.0879293
  8.9635086    53.0883543
  8.9642301    53.0892585
  8.9644528    53.0893559
  8.9654131    53.0898037
  8.9656488    53.0899414
  8.9669092    53.0902771
  8.9672332    53.0903722
  8.9682896    53.0905931
  8.9697022    53.0907016
  8.9712933    53.0908252
  8.9717654    53.0909114
  8.9722684    53.0910244
  8.9743184    53.0913815
  8.9755331    53.0916627
  8.9769099    53.0920921
  8.9771468    53.0921648
  8.9793721    53.0925087
  8.9814339    53.0928503
  8.9820658    53.0929959
  8.9823052    53.0930837
  8.9826793    53.0931756
  8.9834794    53.0933317
  8.9841858    53.0935805
  8.9845715    53.0937543
  8.9848631    53.0939038
  8.985077     53.0940283
  8.9852538    53.0941888
  8.98569      53.0946838
  8.9859183    53.0950085
  8.9860742    53.0951916
  8.9864832    53.0954226
  8.986464     53.0954447
  8.989216     53.0961715
  8.99083      53.0965981
  8.9907616    53.0966959
  8.9907394    53.0966908
  8.9899218    53.0978894
  8.9896303    53.0983322
  8.9895265    53.0984064
  8.9886291    53.0983811
  8.9880776    53.0982996
  8.9879265    53.0979742
  8.9876443    53.0979909
  8.9874116    53.0979296
  8.9865128    53.0976336
  8.9859974    53.0975782
  8.9853819    53.0975915
  8.9851466    53.0975629
  8.9850196    53.0975041
  8.9847768    53.0973688
  8.9832551    53.0966444
  8.9817595    53.0963936
  8.9793438    53.0979551
  8.9785918    53.0984399
  8.9790021    53.0995641
  8.9703476    53.1016846
  8.9700687    53.1013238
  8.9690157    53.1006365
  8.9686814    53.1006708
  8.9684624    53.1006858
  8.9683145    53.1006978
  8.9680295    53.1006858
  8.9675846    53.1006668
  8.9674746    53.1006858
  8.9671746    53.1007437
  8.9670666    53.1007697
  8.9666437    53.1010027
  8.9664817    53.1010907
  8.9663158    53.1011207
  8.9661238    53.1011477
  8.9659418    53.1011357
  8.9654259    53.1011057
  8.9653159    53.1011017
  8.9651689    53.1010677
  8.965042     53.1010367
  8.964873     53.1009337
  8.964713     53.1008307
  8.964514     53.1006977
  8.9644221    53.1006367
  8.9642981    53.1006017
  8.9639737    53.1005199
  8.9637362    53.100474
  8.9635892    53.1004418
  8.9632442    53.1004308
  8.9630973    53.1005298
  8.9630003    53.1005947
  8.9627313    53.1009607
  8.9626521    53.1010611
  8.9623386    53.1014688
  8.9623419    53.1018179
  8.9621394    53.1020596
  8.9620324    53.1023335
  8.961955     53.1026925
  8.9617734    53.1029485
  8.9616705    53.1030665
  8.9616005    53.1033754
  8.9615525    53.1034744
  8.9614495    53.1037034
  8.9612795    53.1040354
  8.9612065    53.1044513
  8.9612765    53.1046803
  8.9612865    53.1049622
  8.9611875    53.1055692
  8.9611355    53.1060841
  8.9611265    53.1061871
  8.9610245    53.1063361
  8.9608776    53.1065531
  8.9607336    53.1066941
  8.9605356    53.1066671
  8.9603016    53.1065911
  8.9600837    53.1065911
  8.9599827    53.1066481
  8.9598537    53.106946
  8.9596727    53.107415
  8.9593568    53.1082359
  8.9595227    53.1085328
  8.9594138    53.1087808
  8.9592098    53.1090558
  8.9590773    53.1092292
  8.9590378    53.1092808
  8.9586709    53.1097197
  8.9586069    53.1097877
  8.9582583    53.110143
  8.9582429    53.1103446
  8.957831     53.1108256
  8.957763     53.1110396
  8.9569261    53.1117565
  8.9553224    53.1126874
  8.9533087    53.1131603
  8.951414     53.1136602
  8.950807     53.1140112
  8.950488     53.114159
  8.949894     53.1143703
  8.9494751    53.1147487
  8.9488579    53.1151706
  8.9486064    53.1152831
  8.9484772    53.1153645
  8.9480522    53.1156781
  8.9472416    53.1161889
  8.949301     53.1175243
  8.9494214    53.117722
  8.9497101    53.1176576
  8.9500428    53.117689
  8.9515104    53.1181591
  8.9520463    53.1182925
  8.9523378    53.1183477
  8.9532226    53.1184857
  8.9535184    53.1185654
  8.9539757    53.1186913
  8.9547974    53.1187027
  8.9551989    53.1187075
  8.9571965    53.1189312
  8.957684     53.1188485
  8.9584778    53.1188762
  8.9594431    53.119246
  8.9596969    53.1193726
  8.960308     53.1196975
  8.9605168    53.1197222
  8.9607955    53.1197245
  8.96151      53.119649
  8.9622954    53.1198382
  8.9626533    53.119978
  8.9635798    53.120586
  8.9642266    53.120871
  8.9649572    53.1211507
  8.9660123    53.1216469
  8.9666701    53.1220156
  8.9671498    53.1221383
  8.9692465    53.122152
  8.9694694    53.1221879
  8.9700291    53.1223205
  8.9709598    53.1224643
  8.9717497    53.1224723
  8.9730535    53.1225133
  8.9749071    53.1231489
  8.9753627    53.1233002
  8.9754054    53.1233158
  8.9755004    53.1233405
  8.9758252    53.1233862
  8.9766261    53.1234393
  8.9777296    53.1235021
  8.9780948    53.123566
  8.9782119    53.1235949
  8.9785227    53.123689
  8.9787696    53.1237989
  8.9793432    53.1240476
  8.9797297    53.1242177
  8.9801729    53.1244201
  8.980842     53.1247836
  8.9815511    53.1251746
  8.9818597    53.1253283
  8.9825488    53.1255203
  8.9827727    53.1255501
  8.9831541    53.1255936
  8.9832813    53.1256263
  8.9831822    53.1257184
  8.9829535    53.1259207
  8.9824957    53.1263197
  8.9819818    53.1268946
  8.9815897    53.1272411
  8.9812622    53.127521
  8.9808257    53.1279132
  8.9805804    53.1281723
  8.9803891    53.1284092
  8.9792495    53.129952
  8.9787215    53.1306404
  8.9786201    53.1307841
  8.9782194    53.1308882
  8.9765221    53.131336
  8.9763503    53.1313794
  8.9760849    53.131449
  8.9755452    53.1315919
  8.975218     53.1316773
  8.9749739    53.1318023
  8.9746839    53.1319527
  8.9743664    53.132114
  8.9731081    53.1327636
  8.9726082    53.133019
  8.9724107    53.1331256
  8.9723561    53.1331522
  8.9722993    53.1331784
  8.9715789    53.1335492
  8.9712596    53.1337156
  8.9708771    53.1339121
  8.9707685    53.1339671
  8.9699515    53.1346114
  8.9686043    53.1356764
  8.9676709    53.136425
  8.9648953    53.1386228
  8.9646593    53.1388252
  8.9643425    53.1390763
  8.9609187    53.1417712
  8.9602698    53.1422986
  8.9597253    53.143027
  8.9596212    53.1431684
  8.9586859    53.1443936
  8.9586337    53.1444644
  8.9582304    53.1449949
  8.9581416    53.1451118
  8.9580765    53.1451998
  8.9579865    53.1453142
  8.9578591    53.1454819
  8.9574931    53.1459624
  8.9572467    53.1462874
  8.956969     53.146656
  8.9569064    53.1467401
  8.9568301    53.1468401
  8.956529     53.1472334
  8.9564712    53.1473133
  8.9561253    53.1474023
  8.9555769    53.1475456
  8.9536042    53.1480498
  8.9532052    53.1481525
  8.9528821    53.1482334
  8.9521949    53.1484142
  8.9518369    53.1485066
  8.9515766    53.1485703
  8.9513394    53.1486315
  8.9505902    53.1488248
  8.9498515    53.1490188
  8.9472593    53.1497932
  8.9469042    53.1498872
  8.9471383    53.1500214
  8.9474724    53.1502379
  8.947484     53.150338
  8.9474569    53.1503873
  8.9474039    53.1504255
  8.9473294    53.1504568
  8.947243     53.1504798
  8.9471779    53.1504893
  8.9470428    53.1504924
  8.9469747    53.1504917
  8.9468811    53.1505086
  8.9468266    53.1505381
  8.9467373    53.1506608
  8.9464955    53.1507907
  8.9463165    53.1508174
  8.9461309    53.1508444
  8.9459049    53.1508726
  8.9457416    53.1510196
  8.9458629    53.151188
  8.9458066    53.1512845
  8.9457365    53.151374
  8.9455912    53.1515366
  8.9454309    53.1516924
  8.9454292    53.1517439
  8.9453002    53.1518405
  8.9452242    53.1518821
  8.9450833    53.1519744
  8.9449839    53.1520327
  8.9447878    53.1521466
  8.9446588    53.1521517
  8.9444675    53.1521592
  8.9443693    53.1521642
  8.9440616    53.1521863
  8.9438338    53.1522042
  8.943442     53.1522231
  8.942913     53.1522598
  8.9429539    53.1523466
  8.9428682    53.1523699
  8.9428037    53.1523826
  8.9427388    53.1523918
  8.9426771    53.1523915
  8.9426261    53.1523778
  8.9425635    53.1523504
  8.9424226    53.1522747
  8.9423739    53.1521916
  8.9423608    53.1521382
  8.9423512    53.1520981
  8.9423284    53.1520071
  8.9423015    53.1518949
  8.9422878    53.1518388
  8.9419719    53.1518439
  8.9419351    53.151845
  8.9418424    53.1518457
  8.9414672    53.1518346
  8.9414011    53.151832
  8.9413727    53.1518317
  8.9411773    53.1518232
  8.9410399    53.1519041
  8.9408482    53.1520319
  8.9405411    53.15219
  8.9403829    53.1521756
  8.940247     53.1521629
  8.9401033    53.1518772
  8.9399464    53.1515589
  8.9398601    53.1513655
  8.9399117    53.1513014
  8.9400043    53.151226
  8.9400776    53.1511346
  8.9401041    53.1510471
  8.9401044    53.1509856
  8.9400398    53.1508744
  8.939941     53.150809
  8.9397835    53.1508067
  8.9393677    53.1508535
  8.9389685    53.150901
  8.9385116    53.1509537
  8.9377779    53.1510401
  8.9375393    53.1510703
  8.9371333    53.1511407
  8.9369939    53.1511752
  8.9368013    53.1509645
  8.9365648    53.1507006
  8.935773     53.1498268
  8.935526     53.1498676
  8.9351299    53.1499215
  8.9347382    53.1499601
  8.934618     53.1499639
  8.9345613    53.1499554
  8.9344266    53.1499052
  8.9339403    53.149495
  8.9337684    53.1493877
  8.9336834    53.1493286
  8.9335453    53.1492419
  8.9334196    53.1491431
  8.9332491    53.1490171
  8.9330616    53.1489124
  8.9328896    53.148815
  8.9328039    53.1487883
  8.93271      53.1487798
  8.9325367    53.1488392
  8.9322589    53.1490093
  8.9318978    53.1492329
  8.9316661    53.1489193
  8.9313619    53.148482
  8.9312659    53.1483082
  8.9311389    53.1480408
  8.9310648    53.1477464
  8.9309146    53.1476966
  8.9279086    53.1467434
  8.9274426    53.1465965
  8.9241274    53.1455386
  8.9235951    53.1453714
  8.9220196    53.1448679
  8.9209624    53.1445316
  8.9212457    53.1443381
  8.921413     53.1442176
  8.9214512    53.144166
  8.921712     53.1439919
  8.9223548    53.1435687
  8.9227305    53.1433543
  8.9226898    53.1431539
  8.9226937    53.1428599
  8.9227506    53.1426066
  8.9227079    53.1425425
  8.9225207    53.14238
  8.922242     53.1421169
  8.9221367    53.1420121
  8.9219957    53.1418787
  8.9219167    53.1417995
  8.9215323    53.1415008
  8.9213218    53.1413351
  8.9208181    53.1408693
  8.9205796    53.1406758
  8.920418     53.1405662
  8.9202127    53.1405418
  8.9198883    53.1404643
  8.9197246    53.1403978
  8.9192368    53.140191
  8.9187419    53.139976
  8.9182176    53.1397621
  8.917869     53.1396143
  8.9176148    53.1395307
  8.9173856    53.139465
  8.9171449    53.1393988
  8.9169598    53.1393452
  8.9167816    53.1392955
  8.9167659    53.1392874
  8.9167624    53.1392835
  8.9169815    53.1391297
  8.9170762    53.1390605
  8.91736      53.1388329
  8.9177336    53.1385643
  8.9178936    53.1384388
  8.9179306    53.1383749
  8.9179288    53.1383069
  8.9178508    53.1382063
  8.9175959    53.1379631
  8.917264     53.1376466
  8.9170219    53.1374118
  8.9169537    53.1373447
  8.9164991    53.1369046
  8.9160014    53.1364133
  8.9154417    53.1358707
  8.9147196    53.1352739
  8.9143395    53.1349761
  8.9141168    53.134804
  8.9139775    53.1346758
  8.9132623    53.1338127
  8.9132392    53.133786
  8.9131907    53.1338015
  8.9130962    53.1336725
  8.9128594    53.1333461
  8.912814     53.1333043
  8.9128829    53.1332518
  8.9127505    53.1332443
  8.9126935    53.1331931
  8.9125817    53.133095
  8.9124466    53.1329765
  8.9123096    53.1327715
  8.9121398    53.1325421
  8.9118319    53.132615
  8.9116759    53.1325061
  8.9115088    53.1325335
  8.911218     53.132577
  8.9106611    53.132661
  8.9105601    53.132657
  8.9099922    53.132638
  8.9096533    53.132699
  8.9091923    53.1328779
  8.9091023    53.1329169
  8.9089514    53.1329809
  8.9088854    53.1331339
  8.9088884    53.1331473
  8.9090437    53.133406
  8.9089314    53.1335309
  8.9087764    53.1337248
  8.9086614    53.1338698
  8.9081565    53.1341978
  8.9080475    53.1344578
  8.907951     53.1347744
  8.9073445    53.1354152
  8.9072516    53.1357436
  8.9072176    53.1360866
  8.9071076    53.1367275
  8.9069916    53.1368535
  8.9067067    53.1370745
  8.9067167    53.1373724
  8.9065557    53.1374174
  8.9062967    53.1375744
  8.9054639    53.1380813
  8.9048709    53.1380743
  8.90461      53.1381883
  8.904346     53.1383413
  8.904241     53.1384023
  8.9041051    53.1384783
  8.9031609    53.1384591
  8.9031277    53.1384325
  8.9028862    53.1382276
  8.9018835    53.1374398
  8.9015052    53.1371381
  8.9005866    53.1364084
  8.900024     53.1359624
  8.8996511    53.1356652
  8.8992392    53.1353387
  8.8990838    53.1352135
  8.8987087    53.1349178
  8.8985873    53.13482
  8.8983432    53.1345822
  8.8981666    53.1344048
  8.8977931    53.1340308
  8.8972402    53.1339958
  8.8968082    53.1339308
  8.894323     53.1339005
  8.8901343    53.1338438
  8.8895454    53.1337668
  8.8881246    53.1333778
  8.8863799    53.1329389
  8.8861029    53.1329239
  8.885426     53.1330458
  8.8847816    53.133174
  8.8841682    53.1333858
  8.8831665    53.1334789
  8.882485     53.1335049
  8.8816727    53.133517
  8.8802388    53.1334998
  8.8795636    53.1335066
  8.8760634    53.1334928
  8.8743387    53.1333947
  8.87225      53.1331068
  8.8711072    53.1329278
  8.8671378    53.1323019
  8.8662894    53.1320864
  8.8652405    53.1316426
  8.8649487    53.1315412
  8.8644113    53.131432
  8.8639679    53.1313895
  8.863572     53.1313894
  8.863219     53.131423
  8.8626949    53.1315283
  8.8622823    53.1317145
  8.8619576    53.1319229
  8.8617061    53.1322777
  8.8615943    53.1328109
  8.8614335    53.1333121
  8.8611388    53.1337834
  8.8607371    53.1343619
  8.8605777    53.134932
  8.8606068    53.1357238
  8.860787     53.1360422
  8.8613038    53.136605
  8.8616425    53.1369925
  8.8619469    53.1373707
  8.8618701    53.1376722
  8.8615312    53.1379768
  8.861204     53.1381729
  8.8606892    53.1382423
  8.8602281    53.1381886
  8.859864     53.1379217
  8.8593266    53.1376308
  8.8590486    53.1374965
  8.8587658    53.1374911
  8.8585229    53.1376449
  8.8584299    53.1378863
  8.8582933    53.1380728
  8.8580512    53.1382195
  8.8576455    53.1382648
  8.8568367    53.1382425
  8.8563236    53.1383433
  8.8560985    53.1384209
  8.8559305    53.1385898
  8.8558761    53.1388609
  8.8559438    53.139115
  8.8561877    53.1393246
  8.8567411    53.139512
  8.8572461    53.1396652
  8.8575192    53.139815
  8.8576172    53.1400114
  8.8576112    53.1402199
  8.8573555    53.1403453
  8.8570147    53.1403331
  8.8561762    53.1401296
  8.8557051    53.1400661
  8.8553039    53.1401243
  8.854862     53.1403093
  8.8546679    53.1405966
  8.8542434    53.1410879
  8.8538585    53.1415134
  8.8531807    53.1419989
  8.8529264    53.1423247
  8.8529102    53.1426285
  8.8529018    53.142981
  8.8530659    53.1432805
  8.8530833    53.1435109
  8.8530178    53.1436965
  8.8526831    53.1438487
  8.8520389    53.1437414
  8.851118     53.1434923
  8.8502916    53.1435584
  8.8497759    53.1437025
  8.8493493    53.1439198
  8.8487639    53.1442718
  8.8477074    53.1448166
  8.8464821    53.1452423
  8.8454515    53.1455336
  8.8448878    53.1457976
  8.8447645    53.1460703
  8.8449       53.1463553
  8.8453762    53.1470332
  8.8454195    53.1472444
  8.8451736    53.1475018
  8.8446119    53.1476275
  8.8437726    53.1476448
  8.8421735    53.1475542
  8.8415525    53.1476278
  8.841142     53.1477588
  8.8409477    53.1480521
  8.8410374    53.1486788
  8.8411794    53.1504939
  8.8412675    53.1520076
  8.8411642    53.152564
  8.8407376    53.1533841
  8.8404474    53.1544965
  8.8402886    53.1557537
  8.8400587    53.1566108
  8.8402203    53.1574326
  8.8401046    53.1576374
  8.8398613    53.1578506
  8.8394465    53.1579689
  8.8389382    53.15801
  8.8377707    53.1579085
  8.8372495    53.1577689
  8.8365937    53.1574553
  8.8359955    53.1570846
  8.8353242    53.1568512
  8.8348431    53.1568
  8.8344839    53.1569249
  8.8341577    53.1571279
  8.8334517    53.158048
  8.8323681    53.1591533
  8.831433     53.1597287
  8.8308132    53.1599516
  8.8300134    53.1601819
  8.8279627    53.1606918
  8.8273916    53.160911
  8.8269434    53.1612865
  8.8267891    53.1615351
  8.8268668    53.1618089
  8.827327     53.1622567
  8.8279406    53.1624311
  8.8292401    53.1628572
  8.8297325    53.1630608
  8.8300498    53.1632825
  8.830129     53.1635221
  8.8301354    53.1637266
  8.8300065    53.163911
  8.829627     53.1641849
  8.82926      53.1642765
  8.8287921    53.1642929
  8.8283102    53.1641392
  8.8278172    53.1638797
  8.8271154    53.1634074
  8.826358     53.1631789
  8.8259783    53.163119
  8.8252708    53.1631087
  8.8246838    53.1632105
  8.8236936    53.1635375
  8.8231013    53.1636731
  8.8225582    53.1637359
  8.8217832    53.1636357
  8.8213168    53.1634821
  8.8207355    53.1631948
  8.8200818    53.1626623
  8.8195463    53.1622683
  8.8187992    53.1618704
  8.818548     53.161806
  8.8181578    53.1618216
  8.8176316    53.1620107
  8.8171761    53.1622485
  8.8168406    53.1626558
  8.8164227    53.1631631
  8.8160261    53.1635507
  8.8154596    53.1638715
  8.8147302    53.1640134
  8.8142522    53.1638165
  8.8140155    53.1635274
  8.8138518    53.1624173
  8.8135889    53.1615532
  8.8134703    53.1613711
  8.8132709    53.1612245
  8.8126364    53.1611472
  8.8122478    53.1611607
  8.8119307    53.1612737
  8.811275     53.1617978
  8.8106988    53.1623791
  8.8102826    53.1626778
  8.8100547    53.1628508
  8.8098145    53.1629342
  8.8095366    53.162999
  8.8089609    53.1630517
  8.8086002    53.1629569
  8.8084042    53.1626561
  8.8082906    53.1614937
  8.8081417    53.1611414
  8.8080078    53.1608515
  8.8079398    53.1607105
  8.8075798    53.1603215
  8.8074179    53.1602795
  8.8070776    53.1602146
  8.806705     53.1602145
  8.8065342    53.1602589
  8.806231     53.1603905
  8.8060451    53.1605885
  8.8058721    53.1607945
  8.8056091    53.1611034
  8.8051102    53.1617294
  8.8048222    53.1619233
  8.8044855    53.1620592
  8.8040517    53.1621904
  8.8037685    53.1621509
  8.8032214    53.1620424
  8.8021337    53.1614424
  8.8008679    53.1608634
  8.800063     53.1607215
  8.7995901    53.1606645
  8.7986679    53.1606635
  8.7983003    53.1607215
  8.7978003    53.1608824
  8.7974744    53.1611224
  8.7974224    53.1614424
  8.7975844    53.1618513
  8.7981423    53.1628082
  8.7980473    53.1631902
  8.7978213    53.1634232
  8.7975774    53.1635871
  8.7971804    53.1636061
  8.7969285    53.1634951
  8.7960626    53.1623503
  8.7952827    53.1615454
  8.7949811    53.1613664
  8.7944399    53.1612594
  8.7940819    53.1612784
  8.793677     53.1615453
  8.7931521    53.1622743
  8.7923292    53.1631252
  8.7918462    53.1633271
  8.7913103    53.1633731
  8.7909784    53.1632931
  8.7907854    53.1631102
  8.7907382    53.1619012
  8.7905965    53.1613594
  8.7904515    53.1610384
  8.7900116    53.1606264
  8.7896076    53.1603215
  8.7892347    53.1602255
  8.7886798    53.1602145
  8.7880383    53.1604348
  8.7877119    53.1607254
  8.787249     53.1624532
  8.786978     53.1627852
  8.7863921    53.1631102
  8.7859512    53.1631861
  8.7854712    53.1631901
  8.7846464    53.1631901
  8.7840525    53.1632091
  8.7829546    53.1634421
  8.7825387    53.1634611
  8.7821617    53.1634421
  8.7819168    53.1633797
  8.7817108    53.1633011
  8.7814039    53.1630721
  8.7811219    53.1626632
  8.780844     53.1621942
  8.780459     53.1619043
  8.7801061    53.1617943
  8.7798171    53.1617403
  8.7795962    53.1617063
  8.7769776    53.1618433
  8.7762657    53.1618363
  8.7757348    53.1617063
  8.7755158    53.1615153
  8.7753648    53.1613363
  8.7754108    53.1611303
  8.7757428    53.1607904
  8.7766576    53.1601875
  8.7771666    53.1597985
  8.7775375    53.1594245
  8.7776105    53.1590736
  8.7775055    53.1587036
  8.7773945    53.1585586
  8.7771036    53.1583377
  8.7766545    53.1582116
  8.7761597    53.1581967
  8.7756418    53.1582957
  8.774156     53.1587876
  8.7724063    53.1590356
  8.772071     53.1591232
  8.7708565    53.1594405
  8.7693588    53.1602984
  8.7684929    53.1607064
  8.767634     53.1611113
  8.7661752    53.1617862
  8.7652834    53.1622512
  8.7648384    53.1625411
  8.7642745    53.1629951
  8.7634706    53.163907
  8.7630727    53.1643609
  8.7624798    53.1648269
  8.7620948    53.1650589
  8.7616949    53.1651848
  8.761198     53.1652268
  8.7604691    53.1651548
  8.7596632    53.1649909
  8.7578685    53.1643079
  8.7564577    53.16372
  8.7558918    53.163507
  8.7551209    53.163472
  8.754702     53.163552
  8.7538011    53.163861
  8.7535782    53.163938
  8.7524293    53.1644829
  8.7520195    53.1646411
  8.7519324    53.1646747
  8.7518181    53.1647169
  8.7515015    53.1648339
  8.7491209    53.1657917
  8.7485989    53.1659477
  8.748045     53.1659407
  8.7473801    53.1657537
  8.7462743    53.1651658
  8.7455824    53.1646589
  8.7448465    53.1642539
  8.7442016    53.1639949
  8.7434967    53.1638419
  8.7427469    53.1637739
  8.742051     53.1638579
  8.741568     53.1640409
  8.7411421    53.1643039
  8.7408381    53.1646658
  8.7406852    53.1650708
  8.7406602    53.1656547
  8.7408401    53.1666076
  8.7411351    53.1677105
  8.7411851    53.1678975
  8.741379     53.1684924
  8.741676     53.1689614
  8.7420119    53.1694923
  8.7431537    53.1706362
  8.7434697    53.1711661
  8.7434977    53.1714641
  8.7432867    53.171781
  8.7431637    53.171899
  8.7429468    53.171895
  8.7422799    53.171731
  8.74126      53.1715021
  8.7402232    53.1711781
  8.7401322    53.1711441
  8.7393206    53.1708689
  8.7388994    53.1710981
  8.7387974    53.1711821
  8.7387201    53.171288
  8.7381934    53.1718238
  8.7380115    53.172002
  8.7373447    53.1727347
  8.7371365    53.1729265
  8.7370182    53.1730595
  8.7368851    53.1733287
  8.7367655    53.1733163
  8.7367276    53.1733669
  8.7355054    53.1731375
  8.7356882    53.172701
  8.7356552    53.1725468
  8.7354583    53.1724631
  8.735227     53.1724291
  8.7351704    53.1724284
  8.7350938    53.1725243
  8.7349195    53.1727399
  8.7348332    53.1728895
  8.7347064    53.1729
  8.7345039    53.1729049
  8.7342594    53.173431
  8.734242     53.1734675
  8.7345477    53.1737066
  8.7344381    53.1738187
  8.7342018    53.1739291
  8.7335013    53.1741665
  8.7333191    53.1741437
  8.7333144    53.1739959
  8.7332993    53.1739971
  8.7329296    53.1743325
  8.7324112    53.1743323
  8.7320591    53.1744771
  8.7317907    53.1747113
  8.7316287    53.1750358
  8.7313784    53.1753204
  8.7309046    53.1753743
  8.7304562    53.1753886
  8.7304509    53.1755538
  8.7305386    53.1759535
  8.730594     53.1764522
  8.7303676    53.1771922
  8.730111     53.1782214
  8.7300833    53.1783074
  8.7298727    53.1790282
  8.7297111    53.1795904
  8.7295775    53.1798329
  8.7293173    53.1802068
  8.729015     53.1804513
  8.7290468    53.1804488
  8.7289474    53.1806135
  8.7283626    53.1806649
  8.7274924    53.1807637
  8.7255831    53.181024
  8.7228523    53.1813453
  8.7201666    53.1816763
  8.7199005    53.1817127
  8.7197655    53.1817303
  8.7177569    53.1821456
  8.7169417    53.1823394
  8.716587     53.1823983
  8.7163671    53.1824275
  8.7162073    53.1824349
  8.7157176    53.1826108
  8.7153233    53.1827495
  8.7142681    53.1832578
  8.7140583    53.1829354
  8.7135099    53.1821702
  8.7131898    53.1817032
  8.7130367    53.1814397
  8.7129416    53.18131
  8.7130019    53.1811834
  8.7129818    53.1811408
  8.7129805    53.1811065
  8.7129257    53.1809097
  8.7119981    53.1804348
  8.7112828    53.179954
  8.7110517    53.1799571
  8.7108908    53.1799592
  8.7108364    53.1798859
  8.7101859    53.1803387
  8.7100782    53.1803005
  8.7104418    53.1799361
  8.7105918    53.1795985
  8.7106892    53.1789856
  8.7106234    53.1789219
  8.7105651    53.1788023
  8.7104209    53.1785153
  8.7102086    53.1782169
  8.7098184    53.1778994
  8.7096811    53.1779737
  8.7093746    53.1781395
  8.7091047    53.1779852
  8.7085882    53.1776901
  8.7070517    53.1770249
  8.7054496    53.1756943
  8.7050083    53.1760575
  8.7048767    53.176215
  8.7043398    53.1764486
  8.7028679    53.1773125
  8.7019433    53.1778595
  8.701364     53.17791
  8.7010039    53.1781494
  8.7011867    53.1782482
  8.7016898    53.1786936
  8.7015127    53.1790573
  8.7013156    53.1792327
  8.7011267    53.1793247
  8.7009885    53.1794211
  8.7010403    53.1796721
  8.7012012    53.1800565
  8.7014221    53.1802116
  8.7020983    53.1807179
  8.7024108    53.1809466
  8.7027161    53.1812012
  8.7025337    53.1814364
  8.7019834    53.1818816
  8.7017015    53.1823
  8.7011733    53.1828661
  8.700822     53.1833034
  8.7007417    53.1834183
  8.7003964    53.1839181
  8.700709     53.18404
  8.700321     53.1844363
  8.699482     53.1854267
  8.6994163    53.1854889
  8.6994194    53.185443
  8.6984406    53.1838967
  8.6983374    53.1836528
  8.6974323    53.1829561
  8.6968318    53.1826797
  8.6964109    53.1825187
  8.6962339    53.1824507
  8.6961636    53.1824547
  8.6952404    53.1821909
  8.694253     53.1818716
  8.6931599    53.1816166
  8.6930599    53.181635
  8.6918206    53.1814926
  8.6915066    53.1813808
  8.6912848    53.1812886
  8.6910396    53.1811843
  8.6907125    53.1809187
  8.6903336    53.1806494
  8.68995      53.1803948
  8.6886053    53.1795323
  8.6884058    53.1794007
  8.6882186    53.1793088
  8.6879024    53.1791931
  8.6874303    53.1790233
  8.6869793    53.1789212
  8.6866549    53.178875
  8.6859574    53.1786663
  8.6852648    53.1785434
  8.6846235    53.1784164
  8.6841634    53.1783394
  8.6839005    53.1782913
  8.68344      53.1782781
  8.6831707    53.1782516
  8.6823969    53.178205
  8.6821396    53.1781488
  8.6819977    53.1781324
  8.6819734    53.1781189
  8.6808507    53.1781488
  8.6807959    53.1781606
  8.6807173    53.1781327
  8.6797219    53.178163
  8.678572     53.1775086
  8.6784863    53.1774705
  8.6786037    53.1774037
  8.6789076    53.1771807
  8.679865     53.1763088
  8.6758396    53.1751081
  8.6755436    53.175673
  8.6754643    53.1758865
  8.6753992    53.1760644
  8.6753145    53.1766217
  8.6752656    53.1769235
  8.674997     53.1780177
  8.6747472    53.1788854
  8.6717493    53.1789727
  8.671754     53.1789498
  8.6712094    53.1789902
  8.6706711    53.177804
  8.6704934    53.1774074
  8.6703754    53.1771533
  8.6701897    53.1771628
  8.6692163    53.1772158
  8.6683145    53.1772613
  8.6681488    53.1772715
  8.6679427    53.1772794
  8.6678582    53.1770435
  8.6678032    53.1770385
  8.6670905    53.1770557
  8.6662888    53.177074
  8.666191     53.1764947
  8.6653208    53.17646
  8.66579      53.1760089
  8.6659976    53.1757804
  8.665823     53.1757297
  8.6656335    53.1759521
  8.6651177    53.176451
  8.6646521    53.1769109
  8.664316     53.1772474
  8.6639965    53.1775109
  8.6636287    53.1777507
  8.6633449    53.1779044
  8.6630593    53.178042
  8.6627698    53.1782029
  8.6628316    53.1777949
  8.6628559    53.1777106
  8.6620931    53.1776068
  8.6621217    53.1774392
  8.662081     53.177437
  8.6619714    53.1774541
  8.6618993    53.1774938
  8.6616875    53.1775653
  8.6616166    53.17762
  8.661589     53.1776738
  8.659736     53.1775647
  8.6593714    53.177173
  8.6592104    53.1772262
  8.6589576    53.1773571
  8.6589129    53.17756
  8.6587758    53.1779531
  8.6587416    53.1780788
  8.6586155    53.1782373
  8.6585647    53.178373
  8.6584943    53.178414
  8.6583346    53.1787302
  8.6583143    53.1788092
  8.6582691    53.1789343
  8.6582568    53.1790857
  8.6582593    53.1794172
  8.6583142    53.179413
  8.6583198    53.1797747
  8.6583025    53.1798694
  8.6582612    53.1803238
  8.6581803    53.1809173
  8.6581563    53.1812074
  8.6580277    53.1815227
  8.6580176    53.1815953
  8.6579776    53.1816486
  8.6579555    53.1817268
  8.6577748    53.1818744
  8.6577568    53.1819165
  8.6576415    53.1819238
  8.6576135    53.1819321
  8.6575792    53.1820071
  8.6575678    53.1822287
  8.6574531    53.1822088
  8.657088     53.1822
  8.6568691    53.1822373
  8.6566997    53.1823158
  8.656494     53.1824253
  8.6562778    53.1825049
  8.6561659    53.1825578
  8.6559657    53.1826231
  8.6557268    53.1826855
  8.6551655    53.1827739
  8.6549485    53.1828534
  8.6547276    53.1829982
  8.6545643    53.1831321
  8.6540507    53.1832273
  8.6536815    53.1832044
  8.653255     53.1840965
  8.6531218    53.1843782
  8.6522758    53.1841833
  8.6523069    53.184284
  8.6523118    53.1844539
  8.6523562    53.1845007
  8.6524662    53.1845798
  8.6524082    53.1846803
  8.6524253    53.1847275
  8.6524521    53.1847493
  8.6525218    53.184871
  8.6528332    53.1852128
  8.6530911    53.1853944
  8.6532421    53.1854803
  8.6532509    53.1855197
  8.6533078    53.1855774
  8.6533012    53.1855944
  8.6531889    53.1856473
  8.6530874    53.1857318
  8.6529162    53.1858065
  8.6529079    53.185909
  8.6529362    53.1859827
  8.6529734    53.1860326
  8.6530123    53.1860689
  8.653098     53.1861103
  8.6535128    53.1862427
  8.6537252    53.1862246
  8.6542043    53.1863011
  8.6542046    53.1863464
  8.654632     53.1863662
  8.6549093    53.1863954
  8.6550105    53.186362
  8.6551796    53.1863258
  8.6555026    53.1863478
  8.6554336    53.1865433
  8.6554162    53.1866991
  8.6553501    53.186806
  8.6552596    53.186883
  8.6551383    53.1870218
  8.6549681    53.1871466
  8.6548648    53.1872062
  8.6547732    53.1872281
  8.6545266    53.1873742
  8.6544529    53.187405
  8.6543968    53.1874324
  8.6540311    53.1876776
  8.6538358    53.1877838
  8.6535578    53.1878464
  8.653421     53.1879035
  8.6532563    53.1879459
  8.6528438    53.1881972
  8.6526279    53.1883111
  8.6525131    53.188344
  8.6524609    53.1883774
  8.6523656    53.1884111
  8.6522814    53.1884535
  8.6520737    53.1885082
  8.651743     53.1885549
  8.6513249    53.1886121
  8.6511344    53.1886223
  8.650948     53.1886461
  8.6508705    53.1886666
  8.6504872    53.1886807
  8.6502597    53.1886703
  8.6493402    53.1887326
  8.6491945    53.1887306
  8.6490459    53.1887689
  8.6489363    53.1887345
  8.6489247    53.1885855
  8.6485143    53.1883346
  8.6477497    53.1878607
  8.6475104    53.1879383
  8.6457689    53.1884784
  8.6441859    53.1889692
  8.6429416    53.1893626
  8.6420004    53.1896623
  8.6424101    53.1900309
  8.6423321    53.1900591
  8.642258     53.1900854
  8.63758      53.1917497
  8.6388077    53.1929704
  8.6370348    53.1937562
  8.6365818    53.1939573
  8.637341     53.1947022
  8.6376641    53.1950162
  8.6361519    53.1957004
  8.6357838    53.1954501
  8.6345749    53.1959447
  8.634289     53.1960676
  8.6342542    53.1960245
  8.63412      53.1956677
  8.6321925    53.1955111
  8.6321324    53.1954453
  8.6316808    53.195668
  8.6311318    53.1959458
  8.6302254    53.1964681
  8.6296172    53.1967505
  8.6293202    53.1971219
  8.6294082    53.1973808
  8.6295295    53.1976336
  8.6295077    53.1976733
  8.6293261    53.1978599
  8.6288914    53.1980931
  8.627948     53.198289
  8.6272214    53.1978898
  8.6270537    53.1976798
  8.6268799    53.1974933
  8.6265992    53.1973413
  8.6260566    53.1971058
  8.624076     53.1971328
  8.6216557    53.1971091
  8.621932     53.1961755
  8.6222263    53.1952676
  8.6213272    53.1951031
  8.6188238    53.1947725
  8.6180227    53.1947028
  8.6156552    53.1945064
  8.6156732    53.1945372
  8.615587     53.1945547
  8.6155707    53.1945171
  8.6154589    53.1944839
  8.6141771    53.1942304
  8.613909     53.1941783
  8.6138791    53.1941884
  8.613863     53.1941694
  8.6127775    53.193981
  8.6127155    53.1939825
  8.6126707    53.1939633
  8.6087171    53.1932263
  8.6089848    53.1915666
  8.6090391    53.1912423
  8.6090035    53.1910437
  8.6089803    53.1907498
  8.6089826    53.190617
  8.6090148    53.1904072
  8.6091451    53.189881
  8.6091904    53.1894624
  8.6089118    53.1894132
  8.6091835    53.1888401
  8.6090163    53.1887696
  8.6090987    53.1886167
  8.6087289    53.1884052
  8.6083886    53.1886007
  8.6079603    53.1884853
  8.6078627    53.1883496
  8.606939     53.188175
  8.6067103    53.1878424
  8.6068344    53.1876714
  8.6062065    53.1875649
  8.6051471    53.1873658
  8.604082     53.1871431
  8.6041332    53.1869997
  8.6042326    53.1866951
  8.603511     53.186578
  8.6034219    53.1869624
  8.6026561    53.1868118
  8.6018381    53.1867166
  8.5998367    53.1865397
  8.5999487    53.1862918
  8.5996869    53.1862511
  8.5994697    53.1861622
  8.599206     53.1860846
  8.5991442    53.1860585
  8.5990373    53.1859929
  8.5992307    53.1858258
  8.5974744    53.1855454
  8.597447     53.1855186
  8.5975167    53.1852642
  8.5976397    53.184892
  8.5974649    53.1848958
  8.5974844    53.1848397
  8.5961461    53.1848882
  8.5958348    53.1848975
  8.5950426    53.1849249
  8.5948948    53.184902
  8.5946647    53.184837
  8.594172     53.1846195
  8.5939206    53.1845097
  8.5932241    53.1842002
  8.5928999    53.1840261
  8.5926995    53.1839302
  8.5926626    53.183958
  8.5928564    53.1840457
  8.5930598    53.1841769
  8.5927909    53.184344
  8.5925915    53.1847805
  8.5920727    53.1847371
  8.5919601    53.1849981
  8.5918081    53.1854285
  8.5916115    53.1862253
  8.5914872    53.1867291
  8.5911819    53.186669
  8.5908499    53.1866263
  8.5907158    53.1867333
  8.590783     53.1867714
  8.5908868    53.1868155
  8.5910462    53.1868624
  8.5911354    53.1869005
  8.5914801    53.1869922
  8.5919669    53.1871037
  8.5920842    53.1871298
  8.5921959    53.187169
  8.5922726    53.1872012
  8.5923394    53.1872377
  8.5924435    53.1873009
  8.5926536    53.18746
  8.5927387    53.1875232
  8.5927338    53.1875789
  8.5926238    53.1876352
  8.5924925    53.1876761
  8.590871     53.1879277
  8.5906345    53.1879905
  8.5904645    53.1880828
  8.590333     53.1882196
  8.5902427    53.1883775
  8.5901999    53.1885306
  8.5902232    53.1887315
  8.5902537    53.188835
  8.5902505    53.1889113
  8.5901385    53.1890656
  8.5900945    53.1890987
  8.5898704    53.1892804
  8.5895769    53.1894297
  8.5893158    53.1895578
  8.5890263    53.1897038
  8.58879      53.1898808
  8.5886326    53.1897176
  8.5887366    53.1892061
  8.5840463    53.1895266
  8.5839809    53.189724
  8.5839882    53.1899006
  8.5843077    53.1903763
  8.5839033    53.1904615
  8.5837664    53.1904853
  8.5834482    53.1905233
  8.5834314    53.1904885
  8.5832516    53.1904949
  8.5830874    53.1905376
  8.5830168    53.1905626
  8.5828755    53.1906155
  8.5826511    53.1906808
  8.5824933    53.1907098
  8.582417     53.1906703
  8.5822419    53.1906373
  8.5820926    53.1904955
  8.5814441    53.1903304
  8.581292     53.1900363
  8.5812113    53.1900172
  8.5808659    53.1899915
  8.5804852    53.190038
  8.5804931    53.1900609
  8.5804043    53.1904899
  8.5803764    53.1905688
  8.5803493    53.1905671
  8.5803443    53.1906727
  8.5802442    53.1908916
  8.5801801    53.1909667
  8.5802852    53.1910307
  8.5805944    53.1911697
  8.5807109    53.1912472
  8.5808563    53.1913931
  8.5810349    53.191459
  8.5811383    53.1915292
  8.5812581    53.191653
  8.5813046    53.1917681
  8.5813236    53.1921549
  8.5813366    53.1921665
  8.5813197    53.1923383
  8.5812758    53.1924547
  8.5812323    53.1925295
  8.5811376    53.1926491
  8.5802466    53.1930412
  8.5801618    53.1930876
  8.5802463    53.1931979
  8.5803162    53.1932484
  8.5803906    53.1933522
  8.5806913    53.1936148
  8.581012     53.193914
  8.5811507    53.1940775
  8.5813368    53.194242
  8.5816453    53.1943294
  8.5819039    53.1944375
  8.5820536    53.1945414
  8.5821942    53.1946556
  8.5825325    53.194867
  8.5827204    53.194997
  8.5828856    53.1951256
  8.582942     53.1952463
  8.5830246    53.1955446
  8.5831197    53.1956918
  8.5832184    53.1957903
  8.5833596    53.1958742
  8.5835242    53.1959697
  8.5835905    53.1959889
  8.5837388    53.1960512
  8.5839576    53.1960856
  8.5843367    53.1959456
  8.5845042    53.1960005
  8.5847508    53.1960273
  8.5850182    53.1960899
  8.5850105    53.1962818
  8.5849401    53.1962846
  8.5849235    53.1963064
  8.5847215    53.1963721
  8.584573     53.1963908
  8.5845429    53.1964209
  8.5843684    53.1967405
  8.5841799    53.196949
  8.5838067    53.1970976
  8.5834215    53.197139
  8.5833161    53.1971867
  8.5830693    53.1973405
  8.5828981    53.1973761
  8.5826582    53.1974807
  8.5823943    53.1976081
  8.5822227    53.1977046
  8.5821485    53.1977622
  8.5819592    53.1978507
  8.5817477    53.1979762
  8.5815067    53.1982264
  8.5815217    53.1982612
  8.5815021    53.1982871
  8.5814203    53.1983403
  8.5813369    53.1984044
  8.5813215    53.1985697
  8.5813723    53.1988299
  8.5814256    53.1989344
  8.5814757    53.1991198
  8.5814946    53.1993138
  8.5814907    53.1994787
  8.5815653    53.1995807
  8.5815865    53.1998152
  8.5815411    53.1998887
  8.5815965    53.1999703
  8.5816311    53.2001364
  8.5817183    53.2002129
  8.5818436    53.2003042
  8.5819172    53.2003436
  8.5821219    53.2004419
  8.582278     53.2004772
  8.5823992    53.200482
  8.5824384    53.2005631
  8.582498     53.2006174
  8.5825411    53.2007079
  8.5827117    53.200814
  8.5829009    53.2008566
  8.5830292    53.2008542
  8.5831661    53.2008653
  8.5833717    53.2009354
  8.5835122    53.2010027
  8.5835302    53.2009932
  8.5837365    53.2011567
  8.5839834    53.2012213
  8.5841254    53.2012746
  8.5842038    53.2013279
  8.5842805    53.2013538
  8.5844093    53.2013711
  8.584538     53.2014817
  8.5846652    53.2015713
  8.5847877    53.2016091
  8.584914     53.2016208
  8.5850505    53.2016581
  8.5852458    53.2016812
  8.5854116    53.2016761
  8.5857035    53.2018358
  8.5858686    53.2018783
  8.5861291    53.2020119
  8.5865497    53.2021427
  8.5867807    53.2021223
  8.5869867    53.2022059
  8.5875029    53.2021933
  8.5878112    53.202331
  8.5880246    53.2024589
  8.5880857    53.2025112
  8.5881912    53.2026922
  8.5881002    53.2028047
  8.5881144    53.2029119
  8.5880634    53.2030114
  8.5880873    53.2031021
  8.5882231    53.2031777
  8.5882681    53.2032472
  8.5889946    53.2034192
  8.5889856    53.2035633
  8.5890768    53.2036514
  8.5890806    53.203798
  8.5891099    53.2038255
  8.5894257    53.2039208
  8.5896436    53.2039573
  8.5898324    53.2039013
  8.5899779    53.2039557
  8.5901542    53.2040056
  8.5903717    53.2043109
  8.5904754    53.2043765
  8.5905932    53.2044323
  8.5906607    53.2044877
  8.5907392    53.2045366
  8.5908265    53.2045544
  8.5909864    53.2045254
  8.5910346    53.2045349
  8.5913083    53.2046435
  8.5916714    53.204817
  8.5920842    53.2051016
  8.5922401    53.2051652
  8.5924979    53.2053317
  8.5927543    53.2054185
  8.5932589    53.2054224
  8.5937763    53.2054639
  8.5940633    53.2054474
  8.5950134    53.2061927
  8.59513      53.2062935
  8.5956747    53.2067309
  8.5969324    53.2076497
  8.5961557    53.2082652
  8.5965361    53.2084765
  8.5966854    53.2086003
  8.5967954    53.2086648
  8.5968837    53.2086648
  8.5972783    53.2087278
  8.5974925    53.2087231
  8.5975718    53.2087805
  8.5976551    53.2088678
  8.5980611    53.2095214
  8.5981706    53.2097341
  8.5982036    53.2098927
  8.5982959    53.2100595
  8.5983259    53.2101394
  8.5988456    53.2105309
  8.5989822    53.2105585
  8.599089     53.21059
  8.5992031    53.2106459
  8.5992585    53.2107114
  8.5992973    53.2108817
  8.5992786    53.2110659
  8.5990629    53.2113675
  8.5991127    53.2113544
  8.5988827    53.2122074
  8.598876     53.2122894
  8.598903     53.2124754
  8.5989167    53.2126554
  8.5987739    53.2126104
  8.598595     53.2127232
  8.5985484    53.2129248
  8.5954538    53.2136651
  8.5943136    53.2138545
  8.5929548    53.2140965
  8.5920342    53.2143338
  8.590516     53.2147723
  8.590452     53.2148267
  8.589761     53.2149808
  8.5860324    53.2157944
  8.5851177    53.2159903
  8.5817626    53.2167292
  8.5789266    53.2172178
  8.5752622    53.2137544
  8.5733939    53.212097
  8.5721579    53.2108202
  8.5681736    53.2127183
  8.5662079    53.2136548
  8.5600748    53.2107101
  8.558973     53.2102212
  8.5550737    53.2082602
  8.5540199    53.2077822
  8.546666     53.2129671
  8.5435858    53.213072
  8.5407246    53.2153579
  8.5371142    53.2145649
  8.53665      53.2148969
  8.5358974    53.2153084
  8.5333862    53.2154148
  8.5334385    53.2155613
  8.5302067    53.2158798
  8.530249     53.215918
  8.5259918    53.2219105
  8.5232526    53.2216012
  8.523021     53.2231197
  8.5229355    53.2231593
  8.5205609    53.2228998
  8.5210084    53.2263824
  8.521009     53.2264309
  8.5187416    53.2260934
  8.5174171    53.2285079
  8.5173257    53.2285336
  8.5158831    53.2283279
  8.5159558    53.2281852
  8.514677     53.2279973
  8.5118046    53.2275872
  8.5116684    53.227615
  8.5113376    53.227673
  8.5113148    53.2276736
  8.5113815    53.2278056
  8.5111724    53.2277697
  8.5111238    53.2277784
  8.5098848    53.2277632
  8.508445     53.2278248
  8.5080877    53.2278054
  8.5073284    53.2277674
  8.5068434    53.2276691
  8.5065922    53.2279195
  8.5063416    53.228155
  8.5058558    53.2279245
  8.5051137    53.2283918
  8.5050258    53.2284471
  8.5047005    53.2289101
  8.5039839    53.2288095
  8.500681     53.2283552
  8.4980894    53.2279914
  8.4963289    53.2277725
  8.4963029    53.2278086
  8.494843     53.227613
  8.4936879    53.2274318
  8.4922728    53.2272324
  8.4920323    53.2271658
  8.4919017    53.2270966
  8.4916736    53.2268911
  8.4914882    53.2267121
  8.4913956    53.2267432
  8.4908655    53.226921
  8.4904954    53.2268123
  8.4900386    53.2266781
  8.4897386    53.2266402
  8.4895787    53.2267011
  8.4894917    53.2268611
  8.4895397    53.2275077
  8.4895792    53.2276825
  8.489662     53.2278954
  8.489803     53.2280927
  8.4893807    53.2282634
  8.4887657    53.2283292
  8.4886553    53.2281081
  8.4884229    53.228039
  8.4876208    53.2277985
  8.4876508    53.2275701
  8.4853046    53.2271475
  8.4843095    53.2270101
  8.4826109    53.2267042
  8.4825435    53.2266921
  8.4821438    53.2265521
  8.4815929    53.2264612
  8.4820938    53.2250413
  8.4827347    53.2235792
  8.4840482    53.2225836
END
2
  8.4925956    53.4724672
  8.4926085    53.4751372
  8.493219     53.4761192
  8.4942419    53.4777745
  8.494316     53.4783868
  8.4949526    53.4793666
  8.4958628    53.4807676
  8.4967126    53.4822474
  8.4983696    53.4852006
  8.4987303    53.485776
  8.4988313    53.485887
  8.4993482    53.4867649
  8.5009219    53.4894496
  8.5016218    53.4907354
  8.5017938    53.4910524
  8.5018958    53.4911364
  8.5046643    53.4938711
  8.5060091    53.494985
  8.5073429    53.4961029
  8.5080878    53.4966898
  8.5102434    53.4984946
  8.5104134    53.4985676
  8.5116692    53.4994785
  8.512754     53.5001614
  8.5148377    53.5012903
  8.5189       53.5032361
  8.5206707    53.504091
  8.5208747    53.504125
  8.5270387    53.5068067
  8.5294383    53.5078066
  8.5295793    53.5078406
  8.5358893    53.5103893
  8.537834     53.5110753
  8.5452418    53.513559
  8.5454568    53.513605
  8.5496611    53.5150658
  8.5527176    53.5161607
  8.550536     53.5179615
  8.5480307    53.5199887
  8.5501775    53.5208508
  8.5522622    53.5221111
  8.5539845    53.5233939
  8.5546949    53.5241535
  8.5558171    53.5252518
  8.5565881    53.5262845
  8.557058     53.527592
  8.5573536    53.5307331
  8.5569992    53.5311063
  8.5575604    53.534565
  8.5571362    53.5357909
  8.5570812    53.5359741
  8.5563901    53.5379448
  8.5556542    53.5400811
  8.553179     53.5456525
  8.5485404    53.5506908
  8.5454242    53.5539214
  8.5340668    53.5656328
  8.5323531    53.5673996
  8.5309306    53.5688446
  8.5284409    53.5713475
  8.5272012    53.572583
  8.523592     53.5762283
  8.5216316    53.5779986
  8.5185003    53.5808114
  8.515368     53.5836361
  8.5132762    53.5854862
  8.5112919    53.5873131
  8.5096505    53.5887863
  8.508042     53.5901415
  8.5069814    53.5913125
  8.5052314    53.5933591
  8.5040482    53.5946832
  8.5032761    53.595586
  8.503073     53.5957195
  8.5023262    53.5961503
  8.5011188    53.5970033
  8.4994273    53.5981252
  8.4989768    53.5984979
  8.4948923    53.6003835
  8.4930536    53.6012819
  8.4923879    53.6018703
  8.4941022    53.6021357
  8.4954563    53.6023446
  8.502051     53.6034227
  8.5092238    53.6045907
  8.5126721    53.6050397
  8.5205101    53.6062422
  8.5226098    53.6065651
  8.5226119    53.6065262
  8.5230441    53.6065927
  8.5231085    53.606606
  8.5231581    53.6065212
  8.5232016    53.6064203
  8.5232292    53.6063737
  8.5232179    53.6059992
  8.5232487    53.6057664
  8.5233256    53.6054644
  8.5233885    53.6053867
  8.524396     53.6046087
  8.5251723    53.6038975
  8.5254325    53.6036752
  8.5255658    53.6035362
  8.5268398    53.6052305
  8.527219     53.6056564
  8.5276276    53.6057143
  8.5339864    53.6043681
  8.5339757    53.6043492
  8.5340478    53.6043355
  8.5340664    53.6043823
  8.534046     53.6043861
  8.5352461    53.6069577
  8.5352957    53.607031
  8.5355182    53.6069949
  8.5363999    53.6068116
  8.5364056    53.6068208
  8.5368525    53.6067394
  8.5388623    53.6063439
  8.540462     53.6060146
  8.5410395    53.6058849
  8.5419422    53.6057077
  8.5427615    53.6055386
  8.5432682    53.6054177
  8.5434717    53.6053814
  8.5439225    53.605289
  8.545759     53.6049336
  8.5464864    53.6047792
  8.5472326    53.604629
  8.5479106    53.6044737
  8.5490789    53.6042385
  8.5505548    53.6039527
  8.5513523    53.6037808
  8.5519265    53.6036669
  8.5533588    53.6033738
  8.5536787    53.6032476
  8.5538956    53.6031813
  8.5540577    53.6031551
  8.5543616    53.603133
  8.5546876    53.6031606
  8.5549157    53.6031445
  8.5552802    53.6030408
  8.555666     53.6029696
  8.5559523    53.6029442
  8.556145     53.602919
  8.5565477    53.6028407
  8.55721      53.6026787
  8.5572936    53.6026547
  8.5574376    53.6026836
  8.5577816    53.6029584
  8.5581261    53.6031907
  8.5581897    53.6031613
  8.5584244    53.6030267
  8.5585106    53.6028996
  8.5585924    53.6028281
  8.5600556    53.6020549
  8.5603723    53.6019758
  8.560575     53.6019134
  8.5609352    53.6018424
  8.5615034    53.601718
  8.561782     53.6016473
  8.5621602    53.6015185
  8.5623218    53.6014806
  8.5624012    53.6014763
  8.5626202    53.6014389
  8.5629166    53.6013948
  8.5632453    53.6013202
  8.5634628    53.601277
  8.5637423    53.6012073
  8.5643123    53.6010847
  8.5647441    53.6010012
  8.5654593    53.6008536
  8.5660288    53.6007313
  8.5677443    53.6003892
  8.5691262    53.6001054
  8.5691315    53.600114
  8.5704558    53.5998428
  8.5706442    53.599813
  8.5708219    53.5997685
  8.5726088    53.5993862
  8.5731747    53.5992604
  8.576868     53.5984641
  8.5774553    53.5983484
  8.5776154    53.5983473
  8.5776845    53.5982963
  8.5778423    53.5982749
  8.5783524    53.5983779
  8.5796607    53.5982061
  8.5812798    53.5979838
  8.581025     53.5973568
  8.5859207    53.5966156
  8.5849225    53.5956332
  8.5862448    53.5954303
  8.5876114    53.5951898
  8.5876819    53.5951974
  8.5877218    53.595234
  8.5877137    53.5951748
  8.5909245    53.5943993
  8.5909344    53.5940741
  8.5909343    53.593722
  8.5909798    53.5933646
  8.5912734    53.5933252
  8.5928986    53.5930812
  8.5977635    53.5944793
  8.601508     53.5955713
  8.6067436    53.5987924
  8.6091478    53.6004413
  8.6126908    53.602889
  8.613111     53.6029384
  8.6162928    53.6036839
  8.6196947    53.6044892
  8.6232711    53.6053047
  8.6257262    53.6054045
  8.6258722    53.6053955
  8.6336286    53.6049165
  8.6388842    53.6046113
  8.6411329    53.6042393
  8.6423791    53.6037385
  8.642642     53.6032513
  8.6426535    53.6029018
  8.6456241    53.6016831
  8.6456836    53.6017037
  8.645811     53.601725
  8.6460637    53.6018977
  8.6463138    53.6023536
  8.6466908    53.6028045
  8.6474189    53.6032149
  8.6472961    53.6033615
  8.6469925    53.6036425
  8.6469128    53.603772
  8.6468184    53.603988
  8.6467834    53.6041419
  8.646759     53.6041946
  8.6469393    53.6041929
  8.6469685    53.6041846
  8.646995     53.6041552
  8.6470436    53.604164
  8.6471039    53.6041577
  8.6471104    53.6041382
  8.6472299    53.6040257
  8.6472826    53.6040245
  8.6473666    53.6040312
  8.6474398    53.6040052
  8.6475068    53.6039132
  8.64756      53.6039063
  8.6476729    53.6039269
  8.6478054    53.6039052
  8.6480517    53.6038722
  8.6481407    53.6038343
  8.6483234    53.603823
  8.6484623    53.6037508
  8.6485678    53.6037689
  8.6485838    53.6038036
  8.6486381    53.6038599
  8.6486793    53.6038811
  8.6488671    53.603813
  8.6489994    53.6036795
  8.6490696    53.6036754
  8.6491188    53.6036972
  8.649177     53.6038227
  8.6492005    53.6038902
  8.6492751    53.6039951
  8.6494096    53.6039728
  8.6495796    53.6038269
  8.650072     53.603941
  8.6506016    53.6039816
  8.6506796    53.6040023
  8.6509327    53.604004
  8.6509559    53.603976
  8.6509412    53.6038948
  8.6508553    53.6037594
  8.6508522    53.6036839
  8.65096      53.6035806
  8.6508248    53.6034051
  8.6508365    53.603306
  8.6509245    53.6032301
  8.6510165    53.6032205
  8.6510371    53.6031567
  8.6511941    53.602959
  8.6513355    53.6029514
  8.6514588    53.6029323
  8.6515175    53.6028829
  8.6519041    53.6028053
  8.6520295    53.6028097
  8.6522199    53.6028853
  8.6522954    53.6028713
  8.6523258    53.6028515
  8.6523908    53.6027689
  8.652392     53.6027421
  8.6524512    53.6026639
  8.6525015    53.6026913
  8.6526959    53.6027628
  8.6527819    53.6028122
  8.6528181    53.6028399
  8.6529301    53.6027822
  8.6530763    53.6027177
  8.6525923    53.602422
  8.6522484    53.6022273
  8.6439369    53.5975922
  8.6385754    53.5946227
  8.6409356    53.5935354
  8.6372737    53.5914854
  8.6276546    53.5860999
  8.6247533    53.5826953
  8.6230382    53.580612
  8.6227041    53.5802062
  8.6225015    53.5799508
  8.6224322    53.5799039
  8.6213553    53.5786656
  8.6208651    53.5781819
  8.6206502    53.5780115
  8.6204063    53.5777036
  8.6203752    53.5776198
  8.6202829    53.5775239
  8.6200869    53.5773627
  8.6199631    53.5771076
  8.6198915    53.5766304
  8.6198406    53.5764513
  8.6198598    53.576357
  8.6198416    53.5761641
  8.6198473    53.5761101
  8.6198826    53.5760423
  8.6198234    53.5758005
  8.6197741    53.5753483
  8.6197759    53.5752486
  8.6196894    53.5748544
  8.6196793    53.5747197
  8.6196998    53.5746386
  8.6196893    53.5742794
  8.6196976    53.5741715
  8.6197261    53.57404
  8.6199189    53.5737433
  8.6199536    53.5736193
  8.6200266    53.5734909
  8.6201699    53.5733518
  8.620419     53.5730042
  8.6207033    53.5726366
  8.6213346    53.5718885
  8.6214904    53.5717331
  8.6216252    53.5715769
  8.621691     53.5714416
  8.6218097    53.5713304
  8.6218454    53.5712651
  8.6218569    53.571224
  8.6219553    53.5710757
  8.6219922    53.5709946
  8.6223356    53.5706459
  8.6224335    53.5705553
  8.6225468    53.5704701
  8.6226385    53.5703457
  8.6226984    53.5703043
  8.6228549    53.5701613
  8.6229072    53.5701067
  8.6230271    53.5699346
  8.6233941    53.5694842
  8.6236054    53.5692875
  8.6236873    53.5692488
  8.6237863    53.5691743
  8.6239891    53.5690533
  8.6240065    53.5689965
  8.6240547    53.5689614
  8.6241907    53.568892
  8.6243153    53.5687939
  8.6243093    53.5687417
  8.6242875    53.5687049
  8.6243694    53.5685837
  8.6244089    53.568502
  8.6244607    53.5684603
  8.6245359    53.5683291
  8.6245757    53.5682787
  8.6246943    53.5681758
  8.6247097    53.5681381
  8.6247083    53.568037
  8.6247269    53.56796
  8.6248571    53.5677552
  8.6250428    53.5677674
  8.625138     53.5677554
  8.6251647    53.5677294
  8.6251902    53.5676898
  8.625225     53.5676017
  8.6253097    53.5675246
  8.625393     53.5674913
  8.625424     53.5674707
  8.625461     53.5673872
  8.625471     53.5672976
  8.6254547    53.5672017
  8.6254713    53.5670809
  8.6254518    53.5670164
  8.6254105    53.5669506
  8.6254019    53.5669058
  8.6254161    53.5668606
  8.625525     53.5667276
  8.6255362    53.5666651
  8.6255359    53.5666245
  8.6256043    53.5664889
  8.6256211    53.5663364
  8.6256181    53.5662685
  8.6256562    53.5661818
  8.6256699    53.566137
  8.6256795    53.5660627
  8.6257111    53.5660121
  8.6257526    53.5659635
  8.6257929    53.5658766
  8.6258926    53.5657353
  8.6259264    53.5656756
  8.6259529    53.5656525
  8.6260045    53.565587
  8.6260809    53.5653931
  8.6261872    53.5652246
  8.6262504    53.5651043
  8.6262959    53.5650518
  8.626338     53.56497
  8.6264107    53.564804
  8.6264459    53.5647446
  8.6265387    53.5646257
  8.6266104    53.5644938
  8.6266209    53.5644101
  8.6267122    53.564219
  8.6267609    53.5641386
  8.6268319    53.5640488
  8.6269268    53.5638923
  8.6269599    53.5638035
  8.627085     53.5635527
  8.6271461    53.5634607
  8.6272054    53.563349
  8.627346     53.5631692
  8.6274039    53.5630572
  8.6275986    53.5627163
  8.627674     53.5626373
  8.6277414    53.5625792
  8.6277871    53.5624886
  8.6278589    53.5624064
  8.627895     53.5621619
  8.6279166    53.5620808
  8.627915     53.5620306
  8.6279551    53.5619115
  8.6279985    53.5618345
  8.6280823    53.5617493
  8.6280999    53.5617056
  8.6281291    53.5615711
  8.6281879    53.561413
  8.6282347    53.5613272
  8.6282437    53.5612545
  8.6282589    53.5612012
  8.6283239    53.5610625
  8.6283115    53.5609775
  8.6284111    53.5608068
  8.6284937    53.5607094
  8.6285563    53.5604758
  8.6286904    53.5602852
  8.6288038    53.5601475
  8.6289135    53.5600283
  8.6290493    53.5598477
  8.629075     53.5597915
  8.6290081    53.5595776
  8.6290169    53.5595324
  8.6291027    53.5594338
  8.629166     53.5593165
  8.6293379    53.5591183
  8.6293493    53.5590876
  8.6293565    53.5589562
  8.629383     53.5588999
  8.6294164    53.5587561
  8.6294269    53.5586477
  8.6294554    53.5585806
  8.6295435    53.5584272
  8.6296316    53.5582972
  8.6296613    53.5582275
  8.6297185    53.5581297
  8.6299908    53.5577374
  8.6300723    53.5576334
  8.6301794    53.5574213
  8.6302314    53.5573445
  8.6302873    53.557218
  8.6303824    53.5570463
  8.6304528    53.5568409
  8.6307729    53.5561874
  8.6309627    53.5558582
  8.6310097    53.5557157
  8.6310606    53.5555867
  8.6313815    53.5555626
  8.631798     53.5554399
  8.6322479    53.5552543
  8.6325706    53.555055
  8.6332715    53.5544615
  8.6335246    53.5543045
  8.6338651    53.5541519
  8.6347384    53.5538491
  8.6351407    53.5537317
  8.6354605    53.5536807
  8.635822     53.5536352
  8.6370711    53.5536327
  8.6373864    53.5536245
  8.6376387    53.5536475
  8.6378669    53.5536855
  8.6380722    53.5537467
  8.6391507    53.5541514
  8.6402306    53.5546637
  8.6405462    53.5547741
  8.640776     53.5548458
  8.6410674    53.5549154
  8.6413901    53.5549444
  8.6416545    53.5549367
  8.6423223    53.5547806
  8.6425786    53.5546622
  8.6426374    53.5546485
  8.6426902    53.5546568
  8.642709     53.5546756
  8.6427332    53.5547469
  8.6430309    53.554775
  8.6433298    53.5548621
  8.6435775    53.5549067
  8.6452422    53.5552769
  8.6462434    53.5554881
  8.6465531    53.555573
  8.6467454    53.5556156
  8.6445181    53.5495102
  8.6454374    53.5405279
  8.6453854    53.540447
  8.6420569    53.5418526
  8.6419937    53.541835
  8.6413989    53.5368498
  8.6416009    53.5366279
  8.6392181    53.5352656
  8.639149     53.5351747
  8.6390243    53.5351728
  8.6382968    53.5348801
  8.6382486    53.5348244
  8.6383479    53.533041
  8.6384098    53.5330063
  8.6384538    53.5329265
  8.638386     53.5328802
  8.6387067    53.5309547
  8.6387652    53.5308158
  8.6394723    53.5266669
  8.6392484    53.5266627
  8.6394059    53.5258891
  8.6396026    53.5249223
  8.6399185    53.525044
  8.6400166    53.5249802
  8.6400794    53.5250043
  8.6400679    53.5249471
  8.6434041    53.5227683
  8.6435097    53.5227663
  8.6436846    53.5227134
  8.6436493    53.5226414
  8.6457172    53.5186075
  8.6492484    53.5194004
  8.6492906    53.5194547
  8.6494229    53.5194842
  8.6506819    53.5173545
  8.6514995    53.516598
  8.6519958    53.5161107
  8.6520471    53.5159908
  8.6510795    53.5155704
  8.648084     53.514317
  8.648067     53.5143029
  8.6480688    53.5142856
  8.6493102    53.5125252
  8.6493981    53.5125218
  8.6499255    53.5127368
  8.6510221    53.5108512
  8.6504892    53.5106049
  8.6497461    53.5103056
  8.6492492    53.5101269
  8.6489003    53.5099853
  8.6481477    53.5097282
  8.6479091    53.5096716
  8.6477734    53.5096794
  8.6474421    53.5096676
  8.6468861    53.5096089
  8.6465119    53.5095114
  8.6462563    53.5094911
  8.6455859    53.5093935
  8.6454382    53.5096087
  8.6452191    53.509537
  8.6445543    53.5093072
  8.6437141    53.5089817
  8.6437204    53.508976
  8.6427113    53.5085383
  8.6404609    53.5075196
  8.637309     53.505737
  8.6365134    53.5057483
  8.6365147    53.5057405
  8.6365313    53.505739
  8.6368111    53.5052292
  8.63713      53.5046837
  8.6372323    53.504435
  8.6373756    53.5042437
  8.6374713    53.5040894
  8.6375854    53.5038536
  8.6377206    53.5036485
  8.6376413    53.5036511
  8.6375812    53.5036551
  8.6374368    53.5035924
  8.6371702    53.5033011
  8.636988     53.5032308
  8.636751     53.5031224
  8.6366131    53.5030125
  8.6361102    53.5028163
  8.6357754    53.5027787
  8.6354131    53.5025769
  8.6350854    53.502529
  8.6348869    53.5023128
  8.6345115    53.5021231
  8.6342949    53.5020857
  8.6338056    53.5020177
  8.6335187    53.5019277
  8.6325216    53.5017199
  8.6320137    53.5016826
  8.6316169    53.5016422
  8.6311561    53.5016872
  8.6305669    53.5016867
  8.6296226    53.5017441
  8.6295777    53.5017443
  8.6292423    53.5016844
  8.6288641    53.5017022
  8.6287531    53.5017032
  8.6287225    53.5014986
  8.6286953    53.5012409
  8.6285679    53.5007314
  8.6284311    53.5002231
  8.6282922    53.4997465
  8.6282112    53.4994914
  8.6281284    53.4991955
  8.6281078    53.4990608
  8.6281145    53.4989266
  8.6280473    53.4987974
  8.6282025    53.4987584
  8.6283504    53.4987131
  8.6284869    53.4986655
  8.6286041    53.4986058
  8.6294639    53.4981201
  8.629552     53.4980619
  8.629627     53.4980026
  8.6296877    53.4979384
  8.6298115    53.4977653
  8.6300163    53.4974783
  8.6301081    53.4973945
  8.6292916    53.4960367
  8.6292791    53.4959653
  8.6293143    53.4958971
  8.6293945    53.495843
  8.6294976    53.4958057
  8.6275504    53.496188
  8.6272949    53.4957251
  8.6272167    53.4956988
  8.627161     53.4956563
  8.6271245    53.4956072
  8.6269671    53.4953546
  8.6267282    53.4949285
  8.6264992    53.4945004
  8.6262821    53.4940706
  8.6260053    53.4934911
  8.6249944    53.4936631
  8.6249936    53.4937529
  8.6249719    53.4938422
  8.6249212    53.4939265
  8.6248615    53.4940092
  8.6247874    53.4940876
  8.6247023    53.4941616
  8.6246331    53.4942078
  8.6232439    53.4932316
  8.6230764    53.4930949
  8.622912     53.4930086
  8.6227692    53.4929165
  8.6219616    53.4923363
  8.6201005    53.4910239
  8.6199314    53.4908975
  8.6198161    53.4908257
  8.6197689    53.4907653
  8.6188936    53.4904816
  8.6186322    53.4903884
  8.618455     53.4903459
  8.6181149    53.490236
  8.6178023    53.4901271
  8.616984     53.4898972
  8.6164901    53.489743
  8.61633      53.4896734
  8.6159063    53.4895752
  8.6156932    53.4895036
  8.6155465    53.4894427
  8.6151187    53.4893101
  8.6147893    53.4892013
  8.6145822    53.4891464
  8.6144341    53.4890831
  8.6143415    53.489053
  8.6141907    53.4890266
  8.6140625    53.488983
  8.6139313    53.48892
  8.6138247    53.4888865
  8.6137025    53.4888325
  8.6135062    53.4887883
  8.6126635    53.4885031
  8.6106447    53.4879803
  8.6105836    53.4879565
  8.6105673    53.487916
  8.6105653    53.4878164
  8.6104908    53.4875061
  8.6033443    53.4871368
  8.6033929    53.4868887
  8.6036144    53.486312
  8.603591     53.4861962
  8.6034354    53.485229
  8.603269     53.4843066
  8.6032628    53.4842984
  8.603119     53.4843567
  8.6028103    53.4844508
  8.6024537    53.4845351
  8.602095     53.4845999
  8.6019449    53.4846082
  8.6017218    53.4846053
  8.6012106    53.4848105
  8.6010711    53.4848453
  8.600903     53.4849091
  8.6007952    53.4849188
  8.6005135    53.4849841
  8.5999571    53.4851474
  8.5994376    53.4852897
  8.599398     53.4853146
  8.5987704    53.4854483
  8.5985545    53.4854903
  8.5980112    53.4856494
  8.597843     53.4856848
  8.5975923    53.4857199
  8.5971914    53.4856745
  8.5970365    53.485691
  8.5968833    53.4856986
  8.5965115    53.4856597
  8.596416     53.4856344
  8.5961895    53.4856078
  8.5958124    53.4856081
  8.5952695    53.4856222
  8.5947869    53.4856767
  8.5945078    53.4856949
  8.5943193    53.4856772
  8.5940776    53.4856208
  8.5936453    53.4854606
  8.5934581    53.485308
  8.5933848    53.4852946
  8.5931578    53.4852418
  8.5929642    53.4851761
  8.5929092    53.4851632
  8.5928288    53.4851628
  8.5921258    53.4854076
  8.5919365    53.4850751
  8.5919351    53.4848932
  8.5917855    53.4848417
  8.5915993    53.4849871
  8.5897734    53.4854162
  8.5875028    53.4859362
  8.5863038    53.4862445
  8.5856324    53.4863338
  8.5851561    53.4863351
  8.585162     53.4863528
  8.5847645    53.4866877
  8.5844657    53.4870282
  8.583821     53.4868847
  8.5829282    53.4866089
  8.5808281    53.4858954
  8.5801368    53.4857079
  8.5791907    53.4855547
  8.5786015    53.4855499
  8.5768355    53.4858078
  8.5766778    53.4858307
  8.5761749    53.4859527
  8.5757024    53.4861441
  8.5753234    53.4863735
  8.5751275    53.486534
  8.5749439    53.486825
  8.5747806    53.4872594
  8.5745302    53.4877671
  8.573921     53.4886294
  8.5736915    53.4885357
  8.5735927    53.488458
  8.5735061    53.4883785
  8.5734171    53.4883117
  8.5728563    53.4880725
  8.5725833    53.4878805
  8.5724244    53.4877033
  8.5723378    53.4876744
  8.57216      53.4876622
  8.5721083    53.4876587
  8.5720559    53.4876559
  8.5712747    53.4882841
  8.56851      53.487034
  8.5656461    53.4861233
  8.5629757    53.4854774
  8.5547268    53.483578
  8.5522526    53.4831001
  8.5508685    53.4828191
  8.5478308    53.4823759
  8.5450182    53.4820137
  8.5445835    53.4819066
  8.5433506    53.4817566
  8.5411821    53.48151
  8.5407348    53.4814004
  8.5398944    53.4812635
  8.5392395    53.4810973
  8.5390902    53.4810417
  8.5389863    53.4810331
  8.5396017    53.4805623
  8.5380389    53.4801106
  8.5378886    53.4800278
  8.5376856    53.4802454
  8.5376342    53.4802399
  8.5368128    53.4802371
  8.5361241    53.4802119
  8.534621     53.4801483
  8.533407     53.4801582
  8.5318737    53.4802552
  8.5306564    53.4802828
  8.5297633    53.4801964
  8.5286307    53.4799172
  8.5272026    53.4792974
  8.5241417    53.4780742
  8.5231028    53.4775564
  8.5218919    53.4767579
  8.521077     53.476271
  8.5209189    53.4761836
  8.5200229    53.4755673
  8.5192704    53.4748879
  8.5184706    53.474215
  8.5176368    53.4735593
  8.5170776    53.4732416
  8.5169242    53.4733498
  8.5168302    53.4734348
  8.5152029    53.4750535
  8.5151095    53.475129
  8.5149469    53.4752335
  8.5147554    53.475322
  8.5145472    53.4753892
  8.5143203    53.4754378
  8.514092     53.4754676
  8.5139288    53.4754758
  8.5137046    53.4754683
  8.5105508    53.4752619
  8.5103528    53.4752626
  8.5101629    53.4752929
  8.5099924    53.4753499
  8.5097999    53.4754516
  8.5097916    53.4754935
  8.5095983    53.4754838
  8.5087706    53.4746948
  8.5087903    53.474593
  8.5080332    53.4739679
  8.507186     53.4732899
  8.5070133    53.4731163
  8.5066166    53.4724833
  8.5063036    53.4720031
  8.5058769    53.4713714
  8.505775     53.4712833
  8.5048382    53.4712627
  8.5006252    53.4716451
  8.4925956    53.4724672
END
3
  8.613366     53.1973718
  8.6121258    53.1962225
  8.6155036    53.1945709
  8.6166764    53.1957599
  8.613366     53.1973718
END
4
  8.6538355    53.6024412
  8.6539411    53.6025654
  8.6539112    53.6026269
  8.6538579    53.6026813
  8.6538422    53.6027131
  8.6537608    53.6028238
  8.6536329    53.6028754
  8.6534571    53.6029176
  8.6533333    53.6029696
  8.6530866    53.6030871
  8.6528837    53.6031596
  8.6522511    53.6034697
  8.6520567    53.6035224
  8.6518668    53.6035833
  8.6517634    53.6036065
  8.6514954    53.6036112
  8.6515267    53.6038211
  8.6515661    53.6040001
  8.6516262    53.6042231
  8.6504422    53.6043046
  8.6484463    53.6044355
  8.6478865    53.6045166
  8.6477536    53.6043551
  8.6476714    53.6042912
  8.6469387    53.6045439
  8.6467718    53.6044364
  8.6464969    53.6044242
  8.6462698    53.6044264
  8.6460295    53.6044493
  8.6456066    53.6045695
  8.6450129    53.6047242
  8.6444649    53.604924
  8.6443443    53.605016
  8.6441186    53.6052218
  8.6439939    53.6053519
  8.6438882    53.605587
  8.6438654    53.6056685
  8.6438815    53.605766
  8.6439983    53.6057474
  8.6446144    53.6065438
  8.6446882    53.6066141
  8.6448195    53.6068094
  8.6448795    53.6068731
  8.644981     53.6072627
  8.645035     53.6073471
  8.6450723    53.607423
  8.6450017    53.6077278
  8.644989     53.6078641
  8.6450656    53.6080259
  8.6450862    53.6080459
  8.6450466    53.6080996
  8.6449774    53.6081301
  8.6450059    53.6081651
  8.6449885    53.6082477
  8.6449603    53.6082533
  8.6449325    53.6082466
  8.6447123    53.6081294
  8.644171     53.607951
  8.6440109    53.6079676
  8.6438501    53.6080056
  8.6437282    53.6080193
  8.6435281    53.6080877
  8.6433238    53.6081338
  8.6432808    53.6082222
  8.6432057    53.6083172
  8.6429353    53.6086205
  8.6427666    53.6087596
  8.6425513    53.6089148
  8.6424936    53.6090548
  8.6427691    53.6093358
  8.6428152    53.6093998
  8.6429987    53.6096146
  8.6431086    53.6098084
  8.643154     53.6098754
  8.6432032    53.6100148
  8.6437673    53.6099657
  8.6439121    53.6099729
  8.6442829    53.6100654
  8.6443657    53.6100654
  8.6449283    53.6100286
  8.6454124    53.6100266
  8.6454863    53.6100461
  8.6456428    53.6101375
  8.6461297    53.6101279
  8.6463254    53.6101303
  8.6466937    53.6101484
  8.6470253    53.6101833
  8.6473723    53.6101955
  8.6473096    53.6100321
  8.6474541    53.6100132
  8.6494714    53.6100081
  8.6516008    53.6100738
  8.6517803    53.610083
  8.6518782    53.6096556
  8.651978     53.6093287
  8.6520052    53.6092546
  8.6520388    53.6091343
  8.6521637    53.6088476
  8.6522024    53.608681
  8.6522077    53.6086007
  8.6522168    53.6085577
  8.653424     53.6086117
  8.6534019    53.6083027
  8.6552128    53.608311
  8.6552287    53.6083513
  8.655309     53.6084306
  8.6558624    53.6086654
  8.6561272    53.6090471
  8.6562306    53.6090758
  8.6564726    53.6090254
  8.656831     53.6090082
  8.6569642    53.6090751
  8.65713      53.6091496
  8.6573605    53.6092297
  8.6579591    53.6093901
  8.6579453    53.6093668
  8.6580468    53.6091979
  8.658049     53.6091513
  8.6580226    53.6091346
  8.6577592    53.609029
  8.6575155    53.6089562
  8.6573618    53.6088987
  8.6572054    53.608827
  8.6569719    53.6087008
  8.6569273    53.6085493
  8.6569098    53.6084463
  8.6569065    53.6082772
  8.6569234    53.6080385
  8.6572752    53.6080161
  8.6574803    53.6080206
  8.6591759    53.6080925
  8.6590813    53.6078675
  8.6580368    53.6075992
  8.6580117    53.6072231
  8.6586646    53.6071697
  8.6584818    53.6061657
  8.6581338    53.6058788
  8.6580505    53.6057341
  8.6580241    53.6056881
  8.6575521    53.6056802
  8.6571451    53.6030914
  8.6538355    53.6024412
END
END
