polygon
1
  26.0682559   62.8893981
  26.0398283   62.9360968
  26.089358    62.9400876
  26.089726    62.9401586
  26.0898631   62.940203
  26.0900741   62.9402713
  26.1243093   62.9528968
  26.149101    62.9533592
  26.169585    62.9536769
  26.1721859   62.9537054
  26.1813348   62.9538523
  26.1964843   62.954075
  26.2091154   62.954237
  26.2210263   62.9543841
  26.2221895   62.9543984
  26.2547263   62.9397679
  26.2663805   62.9345171
  26.272658    62.9250563
  26.2869245   62.9364615
  26.2929011   62.9412189
  26.3033575   62.9496153
  26.3078872   62.9531432
  26.3141013   62.9586233
  26.3181906   62.9642423
  26.3242969   62.9724658
  26.3325474   62.983546
  26.2898488   62.9821482
  26.2803581   62.9883845
  26.2802282   62.9884839
  26.278896    62.9893484
  26.2783577   62.9896977
  26.2620922   63.0002506
  26.2506285   63.0076542
  26.2300291   63.0210155
  26.2225844   63.0258668
  26.2239877   63.0274187
  26.2362153   63.0409348
  26.2389437   63.043909
  26.312227    63.0371324
  26.3342758   63.0350931
  26.3299107   63.0418756
  26.3294783   63.0429004
  26.3031734   63.0489205
  26.2961331   63.0520441
  26.2892988   63.0551819
  26.2855212   63.0569626
  26.2613116   63.0635883
  26.2499777   63.0672682
  26.2500549   63.0674635
  26.2503339   63.0676093
  26.2504626   63.0676385
  26.2508274   63.0678232
  26.2509776   63.0682216
  26.2508488   63.0683577
  26.2504047   63.0685302
  26.2498725   63.0685365
  26.2437077   63.0707873
  26.2445371   63.0748928
  26.2273795   63.0839788
  26.2215634   63.0870846
  26.2189724   63.089635
  26.2196687   63.0917457
  26.2204701   63.09214
  26.187698    63.12193
  26.1909595   63.1325563
  26.1635152   63.146977
  26.1619584   63.1544693
  26.160833    63.1586657
  26.1570779   63.1734642
  26.155438    63.1796921
  26.1507479   63.1980527
  26.1495505   63.2022883
  26.148983    63.2048987
  26.1477438   63.2100264
  26.1848656   63.2131792
  26.1799678   63.2285234
  26.1758748   63.2413613
  26.1714331   63.2425844
  26.1716648   63.2455138
  26.1419094   63.2746849
  26.1339786   63.3088236
  26.1332357   63.3120194
  26.1331266   63.3123872
  26.1289041   63.330217
  26.0867511   63.3537348
  26.0705543   63.3547837
  26.0749392   63.3592713
  26.0753031   63.3596437
  26.1206698   63.4060313
  26.1661116   63.4326722
  26.1767036   63.4388594
  26.1539917   63.4499436
  26.1387455   63.45755
  26.1386459   63.4575875
  26.139878    63.4586386
  26.1417094   63.4602796
  26.1606165   63.4768567
  26.1654186   63.480857
  26.1895429   63.5021878
  26.1882251   63.5047582
  26.1913124   63.509233
  26.1951025   63.5693098
  26.2038502   63.5722667
  26.222225    63.5766499
  26.2359209   63.579253
  26.2917736   63.5900068
  26.2919688   63.6007653
  26.2915628   63.6021606
  26.291543    63.6022703
  26.2915109   63.602416
  26.291499    63.6025039
  26.29149     63.602735
  26.2914822   63.6028266
  26.2746337   63.6740873
  26.2741298   63.6762158
  26.2734018   63.6792908
  26.2732764   63.6798202
  26.2683589   63.7009949
  26.2529819   63.7010395
  26.2521369   63.7045204
  26.2673925   63.7050902
  26.2602294   63.7359219
  26.2573009   63.7478298
  26.2595654   63.7471715
  26.2602827   63.747759
  26.2567188   63.7499518
  26.2537482   63.7623074
  26.2480276   63.7851828
  26.2464145   63.7919295
  26.2428327   63.8065584
  26.2181722   63.8315549
  26.2434595   63.8410421
  26.2881585   63.857589
  26.3500804   63.8805778
  26.3392298   63.8859536
  26.3564701   63.886886
  26.3670135   63.8913516
  26.3677572   63.8911954
  26.3681917   63.8909703
  26.3686261   63.8908187
  26.3681802   63.8904512
  26.3681033   63.8899735
  26.3685274   63.8896795
  26.3699494   63.8897161
  26.3710792   63.8896609
  26.3716233   63.8898124
  26.3721249   63.8897688
  26.3724188   63.8896265
  26.3725013   63.8894679
  26.3736311   63.8893484
  26.426734    63.9091004
  26.462624    63.9239058
  26.5259496   63.949948
  26.5164405   63.9630924
  26.5390253   63.9654707
  26.5462328   63.9582546
  26.559438    63.9636759
  26.5980247   63.9795278
  26.8703971   64.0369676
  26.8725757   64.0352067
  26.973287    64.009041
  27.0126024   63.9989408
  27.0185655   63.9985829
  27.1102037   63.9937859
  27.1119225   63.9944214
  27.1193114   63.9907806
  27.1219615   63.9918308
  27.1312382   63.997633
  27.2504501   63.9900199
  27.261143    63.989333
  27.3771834   63.9710581
  27.3794284   63.9707044
  27.3815318   63.9703298
  27.3864123   63.9691612
  27.4186433   63.966454
  27.4189547   63.9652776
  27.4224946   63.9647619
  27.4239623   63.9623268
  27.422895    63.9619149
  27.4233747   63.9590367
  27.4174541   63.956747
  27.4159039   63.9557518
  27.4226449   63.9562782
  27.4274925   63.9516677
  27.427516    63.9514815
  27.4285382   63.951076
  27.4286236   63.9504842
  27.4289097   63.9497224
  27.4282143   63.9488398
  27.4283738   63.9486057
  27.4285718   63.9478656
  27.4492452   63.9443534
  27.4970053   63.949704
  27.4777655   63.9614706
  27.4955401   63.959949
  27.5404207   63.9565025
  27.5717085   63.9457038
  27.5757211   63.9443979
  27.5800547   63.9428188
  27.6012904   63.9354769
  27.6180931   63.9298806
  27.6502902   63.9187415
  27.6638598   63.9230122
  27.7404336   63.9092236
  27.8159915   63.8787787
  27.8911624   63.8509944
  27.8928104   63.8491032
  27.9098887   63.8521182
  27.925918    63.8447118
  28.0611125   63.7815591
  28.1251327   63.7379855
  28.1444522   63.7247583
  28.1587763   63.7195921
  28.1680549   63.7158916
  28.1998359   63.7107554
  28.2146532   63.7030713
  28.215595    63.702409
  28.2203231   63.6991418
  28.2361747   63.6882947
  28.2562938   63.6744498
  28.2739236   63.6688119
  28.2866031   63.6811007
  28.2943566   63.6888856
  28.2962054   63.6908107
  28.3012374   63.6960496
  28.3017347   63.6965673
  28.3027109   63.6975835
  28.3597294   63.755004
  28.3854625   63.743631
  28.4241944   63.7264934
  28.4565458   63.7021364
  28.4612286   63.6986071
  28.4808338   63.6950607
  28.4908266   63.693253
  28.4911019   63.6933424
  28.4912577   63.6934755
  28.491221    63.6935362
  28.4911417   63.6935884
  28.4908915   63.69372
  28.4908344   63.693856
  28.4908836   63.6938821
  28.4909871   63.6938772
  28.4911668   63.6938555
  28.491286    63.6938859
  28.4913208   63.6939318
  28.4912687   63.6940249
  28.4911739   63.6942503
  28.4909997   63.6945103
  28.4936898   63.6975197
  28.499183    63.6973064
  28.5066643   63.6971599
  28.5123365   63.6969717
  28.5167297   63.6968543
  28.5173563   63.6968401
  28.5260167   63.6971264
  28.5262078   63.6971498
  28.5305809   63.6977712
  28.5477858   63.7001532
  28.5510317   63.7005991
  28.5570957   63.6979743
  28.5582299   63.6974871
  28.5684506   63.6931084
  28.5838383   63.6886439
  28.5847614   63.6883462
  28.5992215   63.6792706
  28.6064627   63.6746626
  28.5937082   63.6697823
  28.5858704   63.6590943
  28.5949366   63.6363479
  28.5933867   63.6326343
  28.5954282   63.6325418
  28.5949921   63.6316536
  28.5947519   63.6316096
  28.6067738   63.5754547
  28.6130116   63.5776464
  28.6179932   63.5761688
  28.620097    63.5729553
  28.613458    63.570221
  28.6184643   63.5672351
  28.6344448   63.5628596
  28.6387279   63.5630991
  28.6438201   63.5618929
  28.6535976   63.5596616
  28.6598844   63.5580873
  28.6618515   63.5587884
  28.6619439   63.558822
  28.668494    63.561206
  28.677293    63.5566451
  28.6849631   63.5526688
  28.6825025   63.5517878
  28.6823458   63.5517317
  28.6822175   63.5516858
  28.6675885   63.5464477
  28.6673157   63.54635
  28.6654046   63.5456656
  28.6651446   63.5455725
  28.664849    63.5454667
  28.6617132   63.5443437
  28.6585432   63.5432084
  28.6575741   63.5428613
  28.6538489   63.5415271
  28.6525615   63.5410661
  28.6505006   63.5403279
  28.6431098   63.5445021
  28.6367454   63.5480962
  28.636099    63.5478674
  28.6357631   63.5477485
  28.6311806   63.5461263
  28.6308343   63.5460037
  28.6223564   63.5430023
  28.6201209   63.5422109
  28.6135697   63.5398913
  28.6148441   63.5389163
  28.6083585   63.5351725
  28.6079939   63.534962
  28.6052992   63.5334063
  28.6050723   63.5332753
  28.6068105   63.5303096
  28.6049008   63.5292862
  28.6033131   63.5273921
  28.6045146   63.526101
  28.6077513   63.5238299
  28.6106086   63.5218249
  28.6109297   63.5194571
  28.6112094   63.517395
  28.6179754   63.5128634
  28.6203402   63.5092496
  28.620513    63.5089854
  28.6267069   63.499518
  28.6406304   63.4782239
  28.6435617   63.4769544
  28.6411707   63.4763343
  28.6496828   63.4721671
  28.6660716   63.4232056
  28.6905198   63.4124714
  28.6955391   63.4102373
  28.6957396   63.4101481
  28.6962897   63.4102183
  28.7050351   63.4113345
  28.7145381   63.4061897
  28.7501637   63.3871781
  28.755798    63.3880809
  28.7559883   63.3881131
  28.7567896   63.3882486
  28.7585334   63.3877984
  28.7594577   63.3877905
  28.7520082   63.3656834
  28.7508965   63.3616248
  28.7478206   63.3503642
  28.746533    63.3477137
  28.7367887   63.3113115
  28.7067207   63.2981114
  28.7172316   63.2941543
  28.6834556   63.2839578
  28.7029531   63.2842688
  28.7053883   63.2772388
  28.7060404   63.2753562
  28.7068337   63.2730655
  28.7071344   63.2721971
  28.6796423   63.2654328
  28.6767216   63.2563674
  28.6479572   63.2501068
  28.648382    63.2493117
  28.6463568   63.2484001
  28.6614946   63.2416743
  28.6107996   63.2038343
  28.653959    63.196834
  28.671491    63.191395
  28.673       63.190933
  28.691423    63.185225
  28.694032    63.184389
  28.698009    63.183113
  28.707487    63.170414
  28.7624182   63.1366925
  28.8130995   63.1053469
  28.8205197   63.100698
  28.8253876   63.0976478
  28.8265777   63.096902
  28.8313301   63.0939236
  28.8310593   63.0935932
  28.831054    63.0933384
  28.8310915   63.0931975
  28.8311559   63.0930155
  28.831687    63.0928116
  28.8317996   63.0926732
  28.8315207   63.0923139
  28.8314456   63.0919352
  28.8313007   63.0916487
  28.8313007   63.0914399
  28.8320142   63.0908864
  28.8321966   63.090697
  28.8324594   63.0903158
  28.8327169   63.0895753
  28.8326311   63.0894139
  28.8324326   63.0893568
  28.8322529   63.089335
  28.8320196   63.0893289
  28.8317353   63.0892925
  28.8315073   63.0891978
  28.8313919   63.0890375
  28.8315743   63.0886223
  28.8316709   63.0884682
  28.8318211   63.0883589
  28.8326767   63.0880299
  28.8329986   63.0878114
  28.8332373   63.0875552
  28.8335565   63.0871364
  28.8337415   63.0868001
  28.8339615   63.0859636
  28.834337    63.0853176
  28.834455    63.0849413
  28.8347554   63.0846256
  28.8354515   63.084367
  28.8356996   63.0842601
  28.8388807   63.0824995
  28.8397068   63.0826306
  28.839875    63.0822254
  28.8399428   63.0820697
  28.8404524   63.0811832
  28.8406241   63.0810326
  28.8409286   63.0808558
  28.8414878   63.0806926
  28.8420564   63.0804279
  28.8423407   63.080349
  28.8425633   63.0803344
  28.8431293   63.0803526
  28.8434619   63.0802822
  28.8436711   63.080168
  28.8441324   63.0797527
  28.8445401   63.0792135
  28.8451356   63.0789998
  28.8455325   63.0788517
  28.8461816   63.0785116
  28.8472223   63.0775061
  28.8479492   63.0769207
  28.8481101   63.0767009
  28.8483328   63.0763219
  28.8484669   63.0760268
  28.8486895   63.0757001
  28.8493171   63.075139
  28.8497597   63.0746179
  28.8499126   63.074245
  28.8500708   63.0737386
  28.8503994   63.0716518
  28.8503766   63.071263
  28.8501459   63.0708452
  28.8498509   63.070663
  28.84958     63.0705816
  28.8492259   63.0705646
  28.8485125   63.0706192
  28.8480967   63.0705609
  28.8479438   63.0703775
  28.8482121   63.069962
  28.8484722   63.069498
  28.8488987   63.0688894
  28.8490623   63.0685298
  28.8492876   63.0682662
  28.8500494   63.0675421
  28.8503149   63.0671995
  28.850567    63.0668496
  28.8508004   63.066654
  28.8521549   63.0658582
  28.8525116   63.065676
  28.8527209   63.0655278
  28.852922    63.0653054
  28.8530311   63.0651036
  28.8538635   63.0634124
  28.8547486   63.0625303
  28.8549095   63.0621779
  28.8550073   63.0617778
  28.8553025   63.0616828
  28.8554808   63.0615284
  28.8555238   63.061379
  28.8555372   63.0612508
  28.8556015   63.0612022
  28.8557705   63.0612089
  28.8559395   63.0612532
  28.8560535   63.0612496
  28.8561138   63.0612064
  28.8560629   63.0610977
  28.8559516   63.06093
  28.8559449   63.0607356
  28.85602     63.0606207
  28.8561219   63.0605411
  28.8565953   63.0602343
  28.8570392   63.0598752
  28.8575166   63.0595325
  28.8577527   63.0593733
  28.8578787   63.0591825
  28.8581376   63.0587499
  28.8583092   63.0587068
  28.8585949   63.058711
  28.8588859   63.0587177
  28.8590334   63.0586758
  28.8592038   63.0584953
  28.8592359   63.0583446
  28.8592654   63.0581909
  28.8593647   63.0581605
  28.8595042   63.0581672
  28.8598448   63.0581872
  28.8599534   63.0581593
  28.8600084   63.0581265
  28.8600849   63.0579904
  28.8600822   63.0576841
  28.8601761   63.0576629
  28.8607863   63.0576498
  28.8608627   63.0575626
  28.8607071   63.0574186
  28.8603638   63.0573232
  28.8603652   63.0572016
  28.86062     63.0571263
  28.8609552   63.0570746
  28.8612127   63.0571087
  28.8613884   63.0571555
  28.8618028   63.0571591
  28.8620831   63.0571567
  28.8620912   63.0569835
  28.8618819   63.0568784
  28.862       63.0566548
  28.8621837   63.0565891
  28.8624841   63.0566049
  28.8629776   63.0568273
  28.8631761   63.0569701
  28.863266    63.0571804
  28.8634591   63.0572454
  28.8636977   63.0572451
  28.8639191   63.0572332
  28.8641658   63.0571786
  28.8644421   63.0570716
  28.8648927   63.0568067
  28.8653305   63.0566076
  28.8664538   63.0560969
  28.8679558   63.0554187
  28.872199    63.0554358
  28.8767266   63.0533695
  28.8842958   63.0523607
  28.8847116   63.0523327
  28.8850871   63.052295
  28.8853767   63.0522318
  28.8855135   63.0521723
  28.8855645   63.0520969
  28.8856316   63.05203
  28.886227    63.0519741
  28.8864738   63.0518817
  28.8866508   63.0518453
  28.8870263   63.0518477
  28.8873213   63.0518696
  28.8877827   63.0518574
  28.8880938   63.0517991
  28.8883387   63.0517123
  28.8898855   63.0508826
  28.8903952   63.0506905
  28.8907841   63.0506054
  28.8915512   63.0505252
  28.8918596   63.0504255
  28.8927689   63.0500207
  28.8929996   63.0498931
  28.8931122   63.0497034
  28.893528    63.0494664
  28.8937023   63.0493351
  28.8939571   63.0491929
  28.8942441   63.0490543
  28.8945445   63.0488695
  28.894228    63.0487637
  28.8943273   63.0486288
  28.8946143   63.0485315
  28.8952392   63.0484975
  28.8954297   63.0483747
  28.895604    63.0483164
  28.8956952   63.0482519
  28.8957462   63.0480076
  28.8957462   63.0477511
  28.8959205   63.047593
  28.8959473   63.0474253
  28.8960278   63.0473864
  28.8964328   63.0473572
  28.8969558   63.047114
  28.8969585   63.0470143
  28.896811    63.0469219
  28.8969398   63.0468514
  28.897157    63.0468733
  28.8974011   63.0469499
  28.8974816   63.0469122
  28.8975996   63.0463141
  28.8977793   63.046218
  28.8976988   63.0461086
  28.8973716   63.0459129
  28.897377    63.0458545
  28.8974199   63.0457974
  28.8975728   63.0458095
  28.8976935   63.0458521
  28.8978446   63.0459588
  28.8985115   63.0459749
  28.898879    63.0460527
  28.8992465   63.04606
  28.8995951   63.0460053
  28.8999894   63.0460138
  28.9003998   63.0460709
  28.9006117   63.0460855
  28.9008021   63.0461718
  28.9009336   63.0461828
  28.9010221   63.0461426
  28.9012125   63.0460247
  28.90147     63.0460296
  28.9015692   63.0461949
  28.9017168   63.0461767
  28.9018643   63.0459992
  28.902154    63.0459895
  28.9019582   63.0461354
  28.9019555   63.0462448
  28.9021084   63.046308
  28.9022881   63.0463092
  28.902398    63.0462217
  28.9024436   63.0459822
  28.9025778   63.0459895
  28.9026582   63.0460138
  28.9027333   63.0462727
  28.9028594   63.0463797
  28.9030927   63.046404
  28.9031652   63.0464247
  28.9031276   63.0464879
  28.9029586   63.0464952
  28.9028916   63.0465499
  28.9027119   63.0466095
  28.9026663   63.0467457
  28.9027977   63.0468636
  28.903141    63.0470277
  28.9036667   63.0470557
  28.9039806   63.0472842
  28.9043078   63.0473377
  28.9044955   63.0474216
  28.9049435   63.0475347
  28.9050856   63.0475043
  28.905091    63.0473912
  28.9049649   63.0472733
  28.9050829   63.0471943
  28.905378    63.0472089
  28.9057884   63.0472855
  28.9060217   63.0475067
  28.9064831   63.04748
  28.906239    63.0472186
  28.9062403   63.0471256
  28.9066386   63.0473086
  28.9070034   63.0473693
  28.9078349   63.0473523
  28.9081169   63.0472525
  28.9083472   63.0471554
  28.9084464   63.0470156
  28.9089775   63.0469207
  28.909231    63.0468733
  28.9098385   63.0465961
  28.9102194   63.0462156
  28.9110723   63.0458229
  28.9112896   63.0457609
  28.9118019   63.0455834
  28.9120325   63.04548
  28.9122015   63.0454022
  28.9122659   63.0452867
  28.9122766   63.0450557
  28.9123437   63.0449244
  28.9125019   63.0448867
  28.9126682   63.0448843
  28.9131607   63.0447016
  28.914351    63.04426
  28.9256927   63.0360487
  28.9372399   63.0335944
  28.9392654   63.0331571
  28.9572074   63.0292673
  29.0380133   63.0108552
  29.0648234   62.986576
  29.0675124   62.9841623
  29.0292263   62.9740983
  28.9907912   62.9638632
  28.9970881   62.957045
  28.9938855   62.9564499
  28.9881179   62.9631421
  28.9717898   62.9587575
  28.9773496   62.9551221
  28.9627859   62.9458066
  28.981963    62.942897
  28.9807397   62.9410959
  28.9909052   62.9421611
  28.9928739   62.9373123
  28.989175    62.9373033
  28.9845343   62.9394848
  28.9828289   62.9386091
  28.9957345   62.9276377
  28.9796047   62.9239776
  28.9632575   62.9248993
  28.9608359   62.9261552
  28.9345164   62.9392982
  28.9309099   62.9366223
  28.9385204   62.9159248
  28.9421801   62.9151838
  28.9431444   62.9158708
  28.9437467   62.9163479
  28.9497874   62.9152925
  28.9556485   62.913419
  28.9557439   62.9114799
  28.9672144   62.9100221
  28.9628395   62.9073043
  28.9683285   62.904667
  28.9687184   62.903656
  28.9687344   62.9034507
  28.9688632   62.9032833
  28.9688551   62.9031367
  28.9688417   62.9030121
  28.9690107   62.9028239
  28.9689485   62.9026518
  28.9690885   62.9025698
  28.9692172   62.9024146
  28.9695847   62.9022949
  28.9696491   62.9021886
  28.9697893   62.9021653
  28.9699709   62.9021813
  28.9700836   62.9022314
  28.9704618   62.9022301
  28.9706227   62.9021862
  28.9709446   62.9021923
  28.9719792   62.9022455
  28.9719686   62.9011104
  28.9728737   62.9008675
  28.9759044   62.9014082
  28.9773468   62.8997152
  28.9854336   62.8980362
  28.9843302   62.8969506
  28.9856837   62.8964228
  28.9895113   62.8963678
  29.0004051   62.8802112
  29.0041675   62.8809974
  29.0046921   62.8796234
  29.007592    62.8800002
  29.007112    62.8816476
  29.0125963   62.8827544
  29.0133256   62.8800215
  29.0051401   62.8781039
  29.0113091   62.8753547
  29.010258    62.8735256
  29.0312111   62.8702475
  29.0471649   62.860182
  29.0486348   62.8606959
  29.0448958   62.8640041
  29.0471542   62.8645325
  29.0518319   62.8617921
  29.0551686   62.8628981
  29.0682578   62.8563644
  29.0722395   62.8569407
  29.0723348   62.8568134
  29.0723871   62.8566972
  29.0726204   62.8565889
  29.072898    62.8563521
  29.0730429   62.8563252
  29.0733808   62.8563521
  29.073523    62.8563356
  29.0736517   62.8562634
  29.0737295   62.8560437
  29.0737617   62.8559752
  29.073869    62.8559752
  29.0740943   62.8561759
  29.0742834   62.8561857
  29.0745288   62.8560437
  29.0752636   62.8562615
  29.0847647   62.8504472
  29.0846224   62.8503033
  29.0847575   62.8502328
  29.0848899   62.8501772
  29.0850589   62.8500661
  29.0851676   62.849976
  29.0852509   62.849842
  29.0853032   62.8497006
  29.0854199   62.8495617
  29.085542    62.8493965
  29.0855956   62.8491908
  29.0857753   62.8489901
  29.0858839   62.8489436
  29.0860564   62.8489368
  29.0861548   62.8489565
  29.0862004   62.8489993
  29.086187    62.8491786
  29.0862836   62.849268
  29.0864843   62.8493426
  29.0870105   62.8494277
  29.0871283   62.8494919
  29.0871258   62.8495825
  29.0869704   62.8497506
  29.0870413   62.8498769
  29.0872546   62.8500238
  29.0876675   62.8503118
  29.0878768   62.8503714
  29.0880645   62.8503735
  29.088145    62.8502863
  29.0882      62.8501205
  29.0883467   62.8500152
  29.0885393   62.8499632
  29.0888634   62.8499647
  29.0893542   62.8501735
  29.0897503   62.8501908
  29.0899423   62.8501562
  29.0901477   62.850044
  29.0904378   62.8500267
  29.090964    62.8501472
  29.0912122   62.85014
  29.0913593   62.8500669
  29.0914428   62.8499528
  29.0915992   62.849908
  29.0918447   62.8499319
  29.097603    62.8455882
  29.0940376   62.8444618
  29.0855275   62.8417768
  29.0566814   62.8325859
  29.0279087   62.8232547
  28.966325    62.8030286
  28.9662256   62.8029959
  28.9428722   62.7748975
  28.9426957   62.7737669
  28.9316106   62.7730599
  28.9296812   62.7729368
  28.9305215   62.7746266
  28.8986624   62.789697
  28.9008342   62.7953761
  28.8860125   62.7985097
  28.8858381   62.7985103
  28.8855547   62.7985251
  28.8854513   62.798557
  28.8848534   62.7988822
  28.8845633   62.7989112
  28.8843092   62.7990265
  28.85927     62.8066838
  28.8481566   62.8084489
  28.830862    62.8196106
  28.8361505   62.8233985
  28.833329    62.8249218
  28.823237    62.8239396
  28.809513    62.8301205
  28.7900885   62.8337975
  28.7858548   62.8311011
  28.7746696   62.8282884
  28.7739179   62.8278929
  28.7739344   62.827781
  28.7739223   62.8277246
  28.7738754   62.8276749
  28.7737134   62.827598
  28.7731163   62.8274716
  28.7444122   62.8123732
  28.7476874   62.799108
  28.7170176   62.7733352
  28.7108793   62.7752541
  28.7002055   62.7726429
  28.6951595   62.7741405
  28.6950764   62.7741925
  28.69239     62.7760662
  28.6901095   62.7753988
  28.6875131   62.775986
  28.6805607   62.776315
  28.6425684   62.7607894
  28.6327043   62.7439792
  28.6440199   62.7282008
  28.7028821   62.6942572
  28.6550245   62.6682705
  28.6551462   62.6570223
  28.6428463   62.6489127
  28.6424327   62.6377298
  28.6383123   62.6276213
  28.6377202   62.6261618
  28.6363663   62.6256741
  28.6353567   62.6244442
  28.6336783   62.6211597
  28.6144746   62.6157945
  28.5987573   62.6104379
  28.6036805   62.6104184
  28.6217874   62.6059755
  28.6260179   62.6061002
  28.6242434   62.5997117
  28.6144696   62.5964897
  28.6037809   62.5882949
  28.5979026   62.5886562
  28.577663    62.5800724
  28.5706167   62.5872713
  28.5607996   62.5969859
  28.5575616   62.5946745
  28.5408708   62.5872029
  28.53675     62.5841727
  28.5241073   62.5857427
  28.5115418   62.5851538
  28.4996279   62.5872706
  28.4868301   62.5884841
  28.4773037   62.5873632
  28.4770222   62.5873301
  28.4745413   62.5870382
  28.4669757   62.5831553
  28.4757672   62.5816047
  28.4947622   62.5776678
  28.5021679   62.5768372
  28.5056198   62.5767094
  28.5094246   62.5780602
  28.5148694   62.5762543
  28.5155628   62.5746381
  28.518823    62.5742925
  28.5245895   62.5725836
  28.5266464   62.5726654
  28.5355456   62.5701178
  28.5386173   62.5703251
  28.545454    62.5683905
  28.5207886   62.5484634
  28.5165167   62.5500479
  28.512547    62.5524712
  28.5072255   62.5541427
  28.4985566   62.5585039
  28.486433    62.562647
  28.4774101   62.565786
  28.4754784   62.5670008
  28.4621179   62.5628541
  28.416577    62.5773657
  28.4028273   62.5709623
  28.4122808   62.5663841
  28.396298    62.5547287
  28.4080726   62.534281
  28.3907704   62.5131038
  28.3885725   62.5104126
  28.3876606   62.5087623
  28.3807055   62.5090056
  28.3783621   62.5098687
  28.3751511   62.510229
  28.3714465   62.5088277
  28.3701092   62.507677
  28.3706357   62.5057249
  28.3686476   62.5046434
  28.3677324   62.5033207
  28.3683086   62.5018849
  28.3704607   62.5011082
  28.3690158   62.5001226
  28.3724565   62.4963303
  28.3784292   62.4940273
  28.378617    62.4939538
  28.3903515   62.4893626
  28.3878619   62.4882708
  28.3933581   62.484891
  28.3817028   62.4617171
  28.369942    62.462826
  28.3545445   62.4613264
  28.3464841   62.4648132
  28.3454124   62.4660082
  28.3424187   62.4665835
  28.3402114   62.4679619
  28.33412     62.4695951
  28.3322787   62.4699008
  28.3297258   62.4704756
  28.3249378   62.4722097
  28.3232947   62.4726575
  28.3165585   62.4708243
  28.31086     62.4699621
  28.3073981   62.4696892
  28.3040672   62.4703354
  28.3022309   62.4706284
  28.3007901   62.4707302
  28.2997449   62.4712119
  28.2985359   62.471436
  28.2940377   62.4728699
  28.2938287   62.4746965
  28.2902089   62.4754319
  28.2849371   62.4749171
  28.2863311   62.4731601
  28.2765295   62.4639265
  28.2766986   62.4624409
  28.2809015   62.4623199
  28.2918861   62.4592115
  28.2923233   62.4576725
  28.2946954   62.4569979
  28.2951521   62.4561926
  28.295255    62.4560884
  28.3003849   62.4505604
  28.2973441   62.441876
  28.286396    62.4430396
  28.2732505   62.4388246
  28.2507989   62.431502
  28.2447178   62.4240743
  28.2484877   62.4229957
  28.2490889   62.4216432
  28.2630864   62.4171588
  28.2634508   62.4192425
  28.2849904   62.4123686
  28.2878338   62.3951299
  28.2842114   62.3948008
  28.2842621   62.3932408
  28.2934806   62.3893
  28.3030862   62.3863519
  28.3094029   62.384929
  28.3234361   62.3826375
  28.323146    62.3812233
  28.3247314   62.3803373
  28.3259417   62.3799365
  28.3272176   62.3786233
  28.3297037   62.3777621
  28.3299152   62.3770529
  28.3291755   62.3763437
  28.3294672   62.3754728
  28.3290386   62.3750583
  28.3271676   62.3741888
  28.3266189   62.3727337
  28.3252255   62.3717554
  28.3207282   62.3695356
  28.3187747   62.3680455
  28.3196744   62.3650496
  28.3179722   62.3630511
  28.3183179   62.3611457
  28.3188073   62.3608117
  28.3192639   62.3603713
  28.3189191   62.3599303
  28.320007    62.3596126
  28.3206029   62.3596144
  28.3213684   62.3590855
  28.3226751   62.3587619
  28.3234242   62.3580124
  28.3189244   62.3564175
  28.316926    62.3549576
  28.3150261   62.3545325
  28.3328916   62.3533879
  28.3632218   62.3525137
  28.3634551   62.352598
  28.364452    62.3526131
  28.3654587   62.3524877
  28.3738497   62.3571988
  28.3743482   62.3573664
  28.3835541   62.3553907
  28.3846635   62.3557
  28.3858888   62.3555608
  28.3864829   62.3556208
  28.3873749   62.3554907
  28.3878924   62.3557404
  28.3886045   62.3565938
  28.3889687   62.3567853
  28.3907487   62.3570082
  28.3933027   62.3568922
  28.3960328   62.3573873
  28.3972725   62.3574676
  28.3985562   62.3571291
  28.3995046   62.3567561
  28.4007231   62.3566395
  28.40205     62.3563128
  28.4036158   62.3559243
  28.4044366   62.3558642
  28.4057799   62.3554329
  28.4069019   62.3552963
  28.4337868   62.3485744
  28.4377559   62.3463712
  28.4321239   62.344299
  28.429199    62.3418261
  28.4305184   62.3356449
  28.4284103   62.3319892
  28.4263084   62.3303001
  28.4229857   62.3288852
  28.4272274   62.324498
  28.4378004   62.3168761
  28.4823078   62.3114385
  28.4829681   62.311633
  28.4817814   62.311867
  28.4812077   62.3131552
  28.481658    62.3136931
  28.4813494   62.313894
  28.4803713   62.3139119
  28.4806731   62.3141402
  28.4799117   62.314826
  28.4788787   62.3146296
  28.4778896   62.3150711
  28.4769028   62.3151638
  28.4763098   62.3154943
  28.4759204   62.3162858
  28.4749227   62.3166292
  28.4742007   62.3165153
  28.4734262   62.3168181
  28.4739249   62.3175334
  28.4750405   62.3175735
  28.4744535   62.318367
  28.4991951   62.3164133
  28.5011041   62.3150763
  28.5010833   62.3130256
  28.5055302   62.3122479
  28.5082387   62.3106715
  28.5120216   62.3106718
  28.5184222   62.3092628
  28.5211997   62.3094276
  28.5223587   62.3086683
  28.5285954   62.3035929
  28.5391747   62.301122
  28.5409835   62.2987607
  28.5399175   62.2968388
  28.5415925   62.2951979
  28.5442126   62.2948751
  28.5485077   62.2930946
  28.5514569   62.2923181
  28.5538153   62.2936657
  28.5582566   62.2936875
  28.5613731   62.2934741
  28.5623631   62.2943775
  28.5661151   62.2922845
  28.5670534   62.2912043
  28.5686646   62.2909938
  28.5692519   62.2896113
  28.5689056   62.288399
  28.5666847   62.2876921
  28.5664209   62.2868808
  28.5658027   62.2864907
  28.5664881   62.2859142
  28.56648     62.2852653
  28.5657539   62.2851411
  28.565259    62.2847495
  28.5640657   62.2844551
  28.5640759   62.283978
  28.5649408   62.2835327
  28.5651663   62.2828488
  28.5668276   62.2825191
  28.5800062   62.2781279
  28.5830679   62.2694727
  28.6014952   62.261957
  28.6082237   62.2521467
  28.6376977   62.2402078
  28.6528224   62.231333
  28.6588213   62.2113278
  28.658232    62.2037965
  28.64513     62.2044269
  28.6315807   62.2096429
  28.6295677   62.2010199
  28.6339008   62.1993651
  28.6320413   62.1955856
  28.640895    62.1942328
  28.6517317   62.1911955
  28.646614    62.1854889
  28.6476938   62.1840977
  28.6465064   62.1826371
  28.6431963   62.182166
  28.6420226   62.1749896
  28.6504268   62.1715158
  28.6542217   62.1678284
  28.6489163   62.1663158
  28.6316853   62.1692751
  28.6270372   62.1680476
  28.6316109   62.1564855
  28.6129796   62.1579791
  28.6235376   62.142702
  28.6161906   62.1410322
  28.5840288   62.1616547
  28.5854987   62.1654073
  28.5801782   62.167608
  28.5624914   62.1703828
  28.5534695   62.1850698
  28.5406806   62.1897929
  28.5235534   62.1849222
  28.5185984   62.18925
  28.5187425   62.1892625
  28.5186635   62.1893731
  28.5182877   62.1895214
  28.5045281   62.2015358
  28.4707841   62.2012483
  28.4470038   62.2069328
  28.3890148   62.2144416
  28.327656    62.2222126
  28.3268227   62.221204
  28.319123    62.2210553
  28.3140608   62.2260906
  28.3165555   62.2268546
  28.3167155   62.2268289
  28.3169408   62.2269439
  28.3171876   62.2269989
  28.3172841   62.2270789
  28.3175524   62.2270939
  28.3178206   62.2269689
  28.3179134   62.2269778
  28.3179922   62.2270389
  28.3178086   62.227126
  28.3176811   62.2272088
  28.3179064   62.2273538
  28.3178683   62.2274284
  28.3177562   62.2275088
  28.3176576   62.2275357
  28.3174822   62.2275372
  28.3173273   62.2275252
  28.3047671   62.2321368
  28.3002474   62.2315146
  28.2875444   62.2274356
  28.2694598   62.2303644
  28.2433383   62.216553
  28.1810048   62.2255879
  28.1653865   62.2255819
  28.1409086   62.2246155
  28.133282    62.2292581
  28.1283704   62.231648
  28.12464     62.2337888
  28.1228248   62.2321895
  28.1232589   62.2316297
  28.1238158   62.2311288
  28.1241579   62.2309674
  28.1245425   62.2309248
  28.1249608   62.2307354
  28.1256764   62.2306713
  28.1272067   62.230375
  28.1278465   62.2301187
  28.1279029   62.2298465
  28.1283769   62.2295083
  28.1288718   62.2292079
  28.1288408   62.2290933
  28.1286398   62.2290182
  28.1286627   62.2288022
  28.1294021   62.2283832
  28.1294511   62.2281784
  28.1292121   62.2281996
  28.1289731   62.2284713
  28.128642    62.2283276
  28.1284384   62.2283553
  28.1283072   62.228602
  28.1277088   62.2286773
  28.1267876   62.2286154
  28.1263327   62.2287276
  28.1252773   62.2289244
  28.1244865   62.2254689
  28.1083316   62.2263483
  28.1006744   62.2304206
  28.0919004   62.2311401
  28.0923446   62.2344493
  28.0910694   62.2340949
  28.0905394   62.2340329
  28.0815535   62.2358784
  28.0778419   62.2323188
  28.0723669   62.2327629
  28.0767159   62.2368535
  28.0761982   62.2366911
  28.0730766   62.2380574
  28.0721593   62.238324
  28.069866    62.2391661
  28.0684434   62.2396556
  28.0664237   62.2407639
  28.0650676   62.2410748
  28.0647248   62.2414965
  28.063227    62.2414505
  28.0611161   62.2420974
  28.0598743   62.2435324
  28.0489206   62.2352931
  28.0688324   62.2300149
  28.0759717   62.2238214
  28.0909044   62.2133119
  28.092058    62.2088125
  28.0882447   62.2066803
  28.026974    62.2053026
  28.0366099   62.2003302
  28.0425149   62.2006327
  28.0468672   62.1975076
  28.0468674   62.1971109
  28.0465785   62.1964561
  28.0463805   62.1959818
  28.0455869   62.1948203
  28.036357    62.1939924
  28.0308489   62.1904808
  28.0313907   62.1893776
  28.0344729   62.1876067
  28.0387239   62.1875199
  28.0407563   62.1868102
  28.042134    62.1848013
  28.0422737   62.1846483
  28.0408839   62.1805725
  28.0339234   62.1760916
  28.0330691   62.1730334
  28.0320692   62.1733062
  28.0268829   62.1703445
  28.0343276   62.1634178
  28.0594913   62.1376536
  28.0660377   62.1307491
  28.080091    62.1164372
  28.0417788   62.1130486
  28.0436709   62.1070237
  28.0434773   62.1069254
  28.0429262   62.1068478
  28.0425363   62.10699
  28.0423739   62.1070198
  28.042221    62.1070008
  28.0421166   62.1068022
  28.0416893   62.1066516
  28.0408863   62.1066553
  28.0401792   62.1068211
  28.0399036   62.1069275
  28.0392723   62.1071484
  28.0387692   62.1072636
  28.0386494   62.1073293
  28.0386334   62.1074465
  28.0385029   62.1075588
  28.0384434   62.1076293
  28.0381138   62.1076487
  28.0379578   62.1076811
  28.0377572   62.107673
  28.0376385   62.1075403
  28.0376243   62.1074661
  28.0378388   62.1073157
  28.0378318   62.1070271
  28.0382542   62.1068812
  28.0389555   62.1067253
  28.0394753   62.1065727
  28.0402514   62.1062706
  28.0403314   62.1061701
  28.0407096   62.1059981
  28.0410674   62.1058985
  28.0411672   62.1058425
  28.041212    62.1057599
  28.0411533   62.1055907
  28.0411532   62.1055164
  28.0412487   62.1054357
  28.0416419   62.1052672
  28.0421529   62.1051414
  28.0426082   62.1049779
  28.0430521   62.1048886
  28.0437619   62.1046141
  28.0439745   62.1045504
  28.0442261   62.1045182
  28.0448697   62.1045206
  28.0450062   62.1045415
  28.0450627   62.1045711
  28.0472768   62.1053816
  28.0474627   62.1053228
  28.0478074   62.105305
  28.0481374   62.1053363
  28.0484145   62.105328
  28.0486593   62.105251
  28.0491904   62.1052352
  28.0493256   62.1050992
  28.0493359   62.1050399
  28.0493354   62.1049584
  28.0493175   62.1048857
  28.0493336   62.104844
  28.0494039   62.104812
  28.0495044   62.104801
  28.049611    62.1048143
  28.0496878   62.1048473
  28.0497385   62.1048879
  28.0497493   62.1049481
  28.0497083   62.1050167
  28.049685    62.1050842
  28.0497021   62.105146
  28.0497673   62.1051868
  28.0501979   62.1051902
  28.0503337   62.1051544
  28.0504234   62.1050849
  28.0504607   62.1049821
  28.0505258   62.1049387
  28.050675    62.1049356
  28.0508106   62.1049733
  28.0510934   62.1051057
  28.0513044   62.1051417
  28.051729    62.1051526
  28.0519117   62.1051411
  28.0520787   62.1051004
  28.0521976   62.1050368
  28.0524366   62.1048269
  28.0526285   62.1046986
  28.0528643   62.104614
  28.0532282   62.1045396
  28.0530998   62.1043819
  28.0483615   62.0998833
  28.0293695   62.1066681
  28.028999    62.1064633
  28.0256029   62.1047375
  28.0179218   62.1031646
  28.0210834   62.1012207
  28.0146619   62.0974248
  28.0118804   62.0981055
  28.0106798   62.0983993
  28.0063766   62.0994523
  28.0061062   62.0995184
  28.0052713   62.0997227
  27.9824909   62.1052965
  27.9780986   62.1028216
  27.977485    62.1024759
  27.9746969   62.1009602
  27.9741897   62.1006844
  27.9905922   62.0932325
  27.991562    62.0923648
  27.9985931   62.0860726
  27.9937005   62.0821796
  27.9904186   62.076418
  27.9902798   62.0761743
  27.9906487   62.0759842
  27.9900335   62.0756479
  27.9895105   62.0754722
  27.9894907   62.0753594
  27.9910368   62.0748881
  27.9916073   62.0748822
  27.9925821   62.0739266
  27.9926348   62.0738749
  27.9933612   62.0738806
  27.9937607   62.0738837
  27.9944042   62.0733622
  27.9949608   62.0733283
  27.9958798   62.0729694
  27.9964821   62.0723469
  27.9975065   62.0719709
  27.9982985   62.0718167
  27.9990803   62.0717332
  27.9997929   62.0709402
  28.0007673   62.0703923
  28.0008602   62.07035
  28.0010251   62.0702956
  28.0023655   62.0700531
  28.0032762   62.069842
  28.003538    62.0697628
  28.0036733   62.0696849
  28.0037158   62.0696131
  28.0036875   62.0695494
  28.0035772   62.0694337
  28.003616    62.0693649
  28.0036804   62.069335
  28.0038291   62.0693242
  28.0040878   62.0693298
  28.004252    62.069296
  28.0044056   62.0692409
  28.0046048   62.0691137
  28.0049223   62.0689577
  28.0050367   62.0688404
  28.0050122   62.068654
  28.0050773   62.0685553
  28.0052697   62.0684516
  28.0053997   62.0683444
  28.0055443   62.0682744
  28.0057273   62.068219
  28.0059937   62.0681772
  28.0063134   62.0681514
  28.0066166   62.0681153
  28.0070656   62.0681059
  28.0075421   62.0680259
  28.0074057   62.0679403
  27.9987221   62.0614243
  27.967339    62.0742959
  27.9593871   62.0839986
  27.9467368   62.0881447
  27.9413682   62.0873443
  27.9386465   62.086398
  27.9269872   62.0823517
  27.9349759   62.0660279
  27.9447244   62.058634
  27.9425512   62.0569131
  27.936373    62.0522697
  27.9340924   62.0505306
  27.9343288   62.0503811
  27.9342813   62.0501504
  27.9344308   62.0500219
  27.9346703   62.0498909
  27.9347211   62.0497763
  27.9345596   62.0496379
  27.9347609   62.0494299
  27.9350477   62.0492364
  27.9351499   62.0489806
  27.9353355   62.0488045
  27.9355636   62.0486743
  27.9358285   62.0486047
  27.9360681   62.0484769
  27.9361858   62.048349
  27.9363637   62.0482414
  27.9371526   62.046442
  27.934428    62.0474147
  27.9260657   62.0506934
  27.9229197   62.048957
  27.9228464   62.0490008
  27.9216663   62.0494259
  27.9139815   62.0525003
  27.9099791   62.0508034
  27.9114285   62.0494675
  27.9098454   62.0484193
  27.8989678   62.0492121
  27.8936595   62.0519863
  27.8888212   62.0484972
  27.894823    62.039339
  27.8738048   62.0369369
  27.8702407   62.0387251
  27.8667709   62.0404292
  27.8613264   62.0390959
  27.8863771   62.0149061
  27.8789404   62.0105833
  27.8771718   62.0095552
  27.8751887   62.0084023
  27.8718485   62.0064604
  27.8684733   62.0077573
  27.8665156   62.0085095
  27.8650593   62.0090691
  27.8513534   62.0143348
  27.8512885   62.014299
  27.8502925   62.0137499
  27.8497691   62.0134614
  27.8492824   62.0131966
  27.8480395   62.0125207
  27.8357971   62.0057571
  27.7936101   61.9877601
  27.7933241   61.9879591
  27.7931548   61.9880251
  27.7927128   61.9881306
  27.7926365   61.9882528
  27.792403    61.9884372
  27.792112    61.9885835
  27.7916815   61.9887454
  27.7912342   61.9891017
  27.7910095   61.9891824
  27.7908489   61.9892905
  27.7902225   61.9902058
  27.7897      61.9903996
  27.7894161   61.9905698
  27.789365    61.9908102
  27.7891126   61.990999
  27.7888013   61.9910628
  27.7878343   61.9917475
  27.7871007   61.9922861
  27.7862611   61.9924993
  27.7854536   61.9928476
  27.7850577   61.9929427
  27.7843871   61.9933243
  27.783253    61.9933846
  27.7822791   61.9937218
  27.7821988   61.9939105
  27.781959    61.9940165
  27.7814723   61.9943811
  27.7811968   61.9945173
  27.780962    61.9945282
  27.7807596   61.9944607
  27.780619    61.9943493
  27.7805465   61.9941836
  27.7803937   61.9941279
  27.7801851   61.9941388
  27.7798744   61.9942065
  27.7795761   61.9943961
  27.7791493   61.9946026
  27.7786109   61.9950497
  27.777665    61.995612
  27.7765308   61.9958093
  27.776163    61.9960363
  27.776065    61.9962452
  27.7757853   61.9963895
  27.7756975   61.9965773
  27.7755066   61.9966781
  27.7749924   61.9967547
  27.7748914   61.996837
  27.7749396   61.9971343
  27.7750806   61.9972683
  27.7753687   61.9973429
  27.7755581   61.9974387
  27.7755017   61.9975679
  27.7748743   61.9977834
  27.7746138   61.997956
  27.774174    61.99811
  27.7737454   61.9983606
  27.7734812   61.9985497
  27.7733831   61.9987235
  27.773043    61.9988895
  27.7727039   61.9992598
  27.7723522   61.9994888
  27.771988    61.9996303
  27.7715044   61.9996212
  27.7712993   61.9996612
  27.7710952   61.9998787
  27.7709027   62.0002632
  27.7706262   62.0005848
  27.7703557   62.000713
  27.7699479   62.000747
  27.7698282   62.0008823
  27.7694511   62.0011582
  27.7690992   62.0013136
  27.7689285   62.0015755
  27.7688514   62.0016555
  27.7684514   62.0017924
  27.7673842   62.0020838
  27.7671735   62.0020976
  27.7666782   62.0018984
  27.7665661   62.0016993
  27.7663474   62.0016403
  27.7658422   62.0017087
  27.7655337   62.0018382
  27.7651869   62.0019029
  27.7640689   62.0018813
  27.763564    62.0020186
  27.7633563   62.0022967
  27.7634257   62.0026362
  27.763075    62.0027728
  27.7606785   62.002909
  27.7599745   62.0025227
  27.7596467   62.0024584
  27.75936     62.0023215
  27.7591208   62.00233
  27.7591338   62.0024101
  27.7583048   62.0027011
  27.7578074   62.002837
  27.7572655   62.0031164
  27.7570071   62.0029194
  27.7572364   62.0025755
  27.7570404   62.0022115
  27.7571257   62.0020825
  27.7574503   62.0019851
  27.757519    62.0017733
  27.7575062   62.0015031
  27.7573395   62.001296
  27.7567639   62.0008544
  27.7564815   62.0004859
  27.7558625   62.000067
  27.7557222   61.9995502
  27.7542479   61.9987875
  27.7477688   62.0013438
  27.7451005   62.0034222
  27.6998523   62.0085546
  27.6766907   62.0182746
  27.6724623   62.0201049
  27.6717515   62.0203731
  27.6716879   62.0204229
  27.6715915   62.0204367
  27.6712783   62.0206304
  27.6709936   62.0206667
  27.6706923   62.0207345
  27.6705864   62.02079
  27.6703733   62.0208325
  27.6699241   62.0210087
  27.6698179   62.0210927
  27.6695461   62.0213574
  27.669257    62.0213691
  27.6692836   62.0214288
  27.6694876   62.0215158
  27.6692922   62.0216802
  27.6692744   62.0220077
  27.6691842   62.0221506
  27.6690775   62.0221682
  27.6690113   62.0221322
  27.6688991   62.0221163
  27.668869    62.0221967
  27.6689228   62.022319
  27.6687773   62.0224817
  27.6683941   62.0226837
  27.6681537   62.0228319
  27.6679944   62.022896
  27.6676711   62.0231123
  27.667457    62.0231995
  27.6668669   62.0233749
  27.6665121   62.0233786
  27.6660712   62.023492
  27.6659806   62.0235487
  27.665876    62.0235237
  27.6647054   62.0236167
  27.6643075   62.0237803
  27.6640826   62.0237928
  27.6639516   62.0238601
  27.6637844   62.023873
  27.6634507   62.0239871
  27.6632773   62.0239799
  27.6628128   62.0241028
  27.6626464   62.0241229
  27.6622629   62.0242839
  27.6622345   62.0243309
  27.6613869   62.0245129
  27.6609587   62.0245567
  27.660832    62.0246545
  27.660649    62.0246804
  27.6605293   62.0247331
  27.6602811   62.0247971
  27.6601037   62.0248707
  27.6598731   62.0249105
  27.659338    62.0250857
  27.6590324   62.0251146
  27.6589828   62.0251527
  27.6587797   62.0254092
  27.6587689   62.0255826
  27.6588013   62.0256872
  27.6586401   62.0259281
  27.6586542   62.0259852
  27.6583178   62.0261264
  27.6580386   62.0263559
  27.6569169   62.026722
  27.6565139   62.0267908
  27.6560577   62.0271097
  27.6559448   62.0272229
  27.6557151   62.0272861
  27.6556358   62.0273592
  27.6554758   62.0274213
  27.6554161   62.0274921
  27.6553017   62.0275062
  27.6552334   62.0275433
  27.6551701   62.0276464
  27.6547663   62.0277013
  27.654406    62.027678
  27.6530806   62.027763
  27.6574716   62.0297233
  27.6397419   62.0384872
  27.6439526   62.0403634
  27.6400862   62.0422817
  27.638198    62.0414292
  27.6381405   62.0375016
  27.6380719   62.0375285
  27.6379917   62.037582
  27.6379577   62.0376356
  27.6379361   62.0376932
  27.6379324   62.0377418
  27.6379257   62.0377955
  27.6379014   62.0378513
  27.6378568   62.0378818
  27.637751    62.0379176
  27.6375819   62.0379632
  27.6374343   62.0379892
  27.6372927   62.0380068
  27.6371466   62.0380438
  27.6370638   62.0380773
  27.6370097   62.0381237
  27.6369944   62.0381758
  27.636997    62.0382424
  27.6369788   62.0383226
  27.6368667   62.0383938
  27.6363234   62.0385992
  27.6361976   62.0386245
  27.63609     62.0386089
  27.6360175   62.0385793
  27.6359183   62.0385189
  27.6358291   62.0384814
  27.6356948   62.0384669
  27.6355577   62.0384823
  27.6354211   62.0384788
  27.635381    62.0384398
  27.6352391   62.0384043
  27.6347342   62.0383614
  27.6345505   62.0383344
  27.6342578   62.0382381
  27.6336165   62.038127
  27.6332847   62.0380993
  27.6326625   62.0381122
  27.6325232   62.0380966
  27.6322329   62.0380161
  27.6318772   62.0379506
  27.6314881   62.0379357
  27.6312893   62.037986
  27.6311311   62.0380569
  27.6309043   62.038232
  27.6307034   62.0382956
  27.630323    62.0383021
  27.6298914   62.0382286
  27.6286961   62.0385947
  27.6283759   62.038797
  27.6276652   62.0391239
  27.6271519   62.0394699
  27.6260054   62.0398872
  27.6256815   62.0398901
  27.6255947   62.039957
  27.6255712   62.0400322
  27.6257466   62.0401036
  27.6255589   62.0401649
  27.6255665   62.0402711
  27.625702    62.0403507
  27.6257435   62.0403997
  27.6256604   62.0404309
  27.6255453   62.0404257
  27.625535    62.0405211
  27.6256588   62.0406254
  27.6257279   62.0407642
  27.6258566   62.0408563
  27.6260602   62.0409219
  27.6262912   62.0409631
  27.6268534   62.041379
  27.6271087   62.0414715
  27.6274834   62.0415245
  27.6279699   62.0417483
  27.6280663   62.04196
  27.6278992   62.0422225
  27.627655    62.0425763
  27.6282407   62.0438167
  27.6282338   62.0440445
  27.6281344   62.0442711
  27.6280606   62.0445215
  27.6278203   62.044731
  27.6275709   62.0448788
  27.6272326   62.0450339
  27.6262809   62.0453664
  27.6259418   62.0455732
  27.6258176   62.0457006
  27.6255551   62.0458256
  27.6252581   62.0458983
  27.6248184   62.0461622
  27.6241628   62.0464474
  27.623783    62.0465723
  27.6237207   62.0466688
  27.6225578   62.0473743
  27.6223753   62.0474429
  27.6220962   62.0475908
  27.6218492   62.0477497
  27.6218143   62.0478054
  27.621667    62.0478948
  27.6213211   62.0480912
  27.621208    62.0481794
  27.620937    62.0482694
  27.6208036   62.0483618
  27.6207723   62.0484151
  27.6205445   62.0485544
  27.6204536   62.0486198
  27.620206    62.0487077
  27.6197821   62.0487861
  27.6195663   62.0487989
  27.6193328   62.0488718
  27.6189464   62.0490079
  27.6188112   62.0490341
  27.6186504   62.0490225
  27.6185722   62.0489756
  27.618375    62.0490064
  27.6183411   62.0490709
  27.6184501   62.0492866
  27.6185057   62.0493631
  27.6184988   62.0495089
  27.6182589   62.049685
  27.6180215   62.0498089
  27.6157842   62.0505533
  27.6199465   62.0530718
  27.6199817   62.0530781
  27.6200159   62.0530876
  27.6200383   62.0531038
  27.6200509   62.0531231
  27.6200801   62.0531516
  27.6201116   62.0531749
  27.6216661   62.0550033
  27.6389428   62.064341
  27.6386834   62.0645252
  27.6382835   62.0647585
  27.6376256   62.0652065
  27.6374314   62.0652323
  27.6373245   62.0652678
  27.6371951   62.0653557
  27.6371466   62.0654164
  27.636909    62.0654851
  27.6368616   62.0655555
  27.6363442   62.0657908
  27.6359089   62.0659866
  27.6355616   62.066103
  27.6349791   62.0662858
  27.6343886   62.0663874
  27.6340477   62.0665587
  27.6329585   62.0672539
  27.6325705   62.0674507
  27.6312085   62.0677617
  27.6309284   62.0680864
  27.6303427   62.0682238
  27.6294825   62.0681656
  27.6287556   62.0676613
  27.6283828   62.067623
  27.6281796   62.0675885
  27.6279804   62.0675907
  27.6274357   62.0676222
  27.6273284   62.0676422
  27.6269297   62.0676578
  27.6267274   62.0676715
  27.6265251   62.0677028
  27.6263943   62.0677218
  27.6261706   62.0677925
  27.6260283   62.0678136
  27.6256571   62.0679539
  27.6255294   62.068081
  27.6255495   62.0683139
  27.6256483   62.0684674
  27.6255877   62.0685954
  27.6255573   62.0691328
  27.6255394   62.0691644
  27.6255037   62.0691999
  27.6254842   62.0692272
  27.6254499   62.0692671
  27.625377    62.069323
  27.6253196   62.069366
  27.6252361   62.0694437
  27.6252071   62.0694774
  27.6251766   62.0695244
  27.6251541   62.0695517
  27.6251213   62.0695677
  27.6250687   62.0695715
  27.6249819   62.0695783
  27.6248949   62.0695997
  27.6248287   62.0696235
  27.6247547   62.0696609
  27.6246761   62.069715
  27.6246234   62.0697459
  27.6245567   62.069788
  27.6244516   62.069838
  27.6243508   62.069896
  27.6242757   62.0699405
  27.6241994   62.0700166
  27.6241473   62.0700478
  27.6240681   62.070088
  27.6240042   62.0701277
  27.6239448   62.0701877
  27.6238963   62.070215
  27.6238461   62.070248
  27.6238154   62.0702811
  27.6238076   62.0703174
  27.6237916   62.0703566
  27.6237642   62.0703877
  27.6237156   62.0704211
  27.6236554   62.0704495
  27.6235873   62.0704675
  27.6235041   62.0704808
  27.6234132   62.0704869
  27.6233004   62.0704853
  27.6231646   62.0704793
  27.6227283   62.0704806
  27.6226558   62.0704877
  27.6225861   62.0705054
  27.6224776   62.0705343
  27.6222039   62.0705925
  27.6218953   62.0709186
  27.6181518   62.072975
  27.6162286   62.0744172
  27.6145926   62.0751675
  27.6143646   62.0754054
  27.6141059   62.0763286
  27.6145704   62.0764883
  27.614641    62.0765053
  27.6147009   62.0765273
  27.6147342   62.076546
  27.6196086   62.0781924
  27.6197975   62.0782535
  27.6209982   62.0803123
  27.6327889   62.0847484
  27.6365212   62.083604
  27.6365799   62.0836307
  27.6366423   62.0836496
  27.6367393   62.0836698
  27.6368248   62.0836999
  27.6369886   62.083791
  27.6370216   62.0838296
  27.6370338   62.0838796
  27.6370506   62.0839368
  27.6370945   62.0840124
  27.6371468   62.0840975
  27.6371658   62.0841669
  27.6371896   62.0842088
  27.6372469   62.0842626
  27.6373262   62.0843328
  27.6374199   62.0844051
  27.6375119   62.0844972
  27.6375865   62.0845935
  27.6376902   62.084672
  27.6380451   62.0849586
  27.6385574   62.0852871
  27.6388615   62.0855203
  27.6390841   62.0857272
  27.6392779   62.0859589
  27.6392315   62.0861875
  27.6390814   62.0865603
  27.6391004   62.0866771
  27.6391014   62.0867682
  27.6392855   62.087115
  27.6413573   62.088425
  27.6458303   62.0880129
  27.6436375   62.0899041
  27.6408972   62.0921283
  27.6394558   62.0932987
  27.6379529   62.0944749
  27.6366021   62.0955397
  27.6338617   62.0973005
  27.6278195   62.10118
  27.6251966   62.1028618
  27.6263314   62.1037724
  27.6267821   62.1039586
  27.6279675   62.1044685
  27.6284131   62.1046681
  27.6285502   62.1047322
  27.6293272   62.1051356
  27.6304298   62.1053118
  27.6314833   62.1054789
  27.6325247   62.1056713
  27.6325697   62.1056714
  27.6333198   62.1058028
  27.6341122   62.1059193
  27.6341708   62.1059221
  27.6349043   62.1060091
  27.6358114   62.1061237
  27.6363192   62.1061738
  27.6369069   62.1062455
  27.637197    62.1062746
  27.6374597   62.1063326
  27.6378956   62.1064699
  27.6382647   62.106544
  27.6384998   62.1065797
  27.639571    62.1068495
  27.6409913   62.1075405
  27.6245729   62.1156921
  27.6267123   62.1168223
  27.6321461   62.1197261
  27.6381835   62.1229574
  27.6383011   62.1230203
  27.6384545   62.1231024
  27.6391433   62.1238387
  27.6369929   62.1243397
  27.6368484   62.1243764
  27.6367501   62.124408
  27.6366526   62.1244595
  27.6363479   62.1246605
  27.6360175   62.1248434
  27.635799    62.1249706
  27.6357307   62.1250051
  27.635668    62.1250284
  27.6356014   62.1250451
  27.6354931   62.1250665
  27.635266    62.1251073
  27.6350499   62.1251531
  27.6348971   62.1251931
  27.634754    62.1252373
  27.6346561   62.1252791
  27.6345418   62.1253256
  27.6344276   62.1253719
  27.634287    62.1254234
  27.6341511   62.1254698
  27.6340392   62.1254999
  27.6338779   62.1255391
  27.6337593   62.1255688
  27.6337077   62.125587
  27.6336039   62.1256298
  27.6334149   62.1257105
  27.6333328   62.125752
  27.6332672   62.1257713
  27.6332024   62.1257777
  27.6331109   62.1257782
  27.6330117   62.1257735
  27.6325853   62.1258086
  27.6325239   62.1258161
  27.6324681   62.1258305
  27.6324215   62.1258451
  27.632368    62.1258765
  27.6323118   62.1259213
  27.6321513   62.1260501
  27.6319866   62.1262123
  27.6318419   62.1263363
  27.6316664   62.1265051
  27.6315159   62.1266401
  27.6313062   62.1268023
  27.6312034   62.1268798
  27.6311068   62.126956
  27.6310293   62.1270283
  27.6309859   62.1270743
  27.6309376   62.1271325
  27.6308879   62.1272242
  27.6307883   62.1274516
  27.6309216   62.1276139
  27.6309882   62.1276784
  27.6310487   62.1277445
  27.6311502   62.1278239
  27.635616    62.1310576
  27.6346247   62.1328565
  27.63415     62.1337036
  27.633717    62.1339755
  27.6329327   62.1344681
  27.632182    62.1349419
  27.6320805   62.1349623
  27.6320212   62.1349776
  27.6319688   62.1349961
  27.6319359   62.1350104
  27.6318393   62.1350627
  27.6316194   62.1351812
  27.6314266   62.1353077
  27.6313061   62.135385
  27.6312157   62.135434
  27.6311294   62.1354767
  27.6310259   62.1355238
  27.6309198   62.1355654
  27.6305547   62.1356864
  27.6304217   62.1357379
  27.6303561   62.1357642
  27.6302546   62.1358106
  27.6301514   62.1358672
  27.6299822   62.1359753
  27.6299048   62.1360411
  27.6297784   62.1361824
  27.6296576   62.1363331
  27.6295919   62.136423
  27.6295357   62.1365222
  27.6294729   62.1366061
  27.6293968   62.1366795
  27.6292936   62.1367705
  27.6292293   62.1368281
  27.6291529   62.1369016
  27.6290907   62.1369587
  27.6290162   62.1370113
  27.6289155   62.1370703
  27.6287798   62.137135
  27.6286711   62.1371703
  27.6285316   62.1372069
  27.6284477   62.1372345
  27.628379    62.1372673
  27.6282304   62.1373466
  27.6280914   62.1374081
  27.627958    62.1374625
  27.6278772   62.1375071
  27.6277964   62.1375748
  27.6277381   62.1376451
  27.6276479   62.137784
  27.6275916   62.1378535
  27.6275412   62.1378974
  27.6275245   62.1379097
  27.6274914   62.1379317
  27.6272181   62.1380285
  27.6270526   62.1380882
  27.6269488   62.1381317
  27.6268879   62.1381683
  27.6268289   62.1382145
  27.6267263   62.1382873
  27.6266313   62.1383413
  27.6265415   62.1383813
  27.626437    62.138424
  27.6259786   62.1385833
  27.6255346   62.1387291
  27.62514     62.1388598
  27.6249214   62.1389412
  27.6247981   62.1389951
  27.6246896   62.1390445
  27.6246117   62.1390904
  27.6241541   62.1394308
  27.6240024   62.1395402
  27.6239241   62.1396007
  27.6238267   62.1396657
  27.6236788   62.1397495
  27.6231691   62.1399725
  27.6229819   62.1400631
  27.6228737   62.1401096
  27.6227819   62.1401425
  27.6227125   62.1401583
  27.6226179   62.1401769
  27.6225375   62.1401851
  27.6224492   62.1401895
  27.622354    62.1401934
  27.621865    62.1402335
  27.6209988   62.1402657
  27.6207227   62.1402718
  27.6205268   62.1402654
  27.6203448   62.1402383
  27.6200641   62.1401734
  27.6188911   62.139926
  27.6181907   62.139806
  27.6142572   62.1379009
  27.6120034   62.1432853
  27.6156111   62.1448028
  27.6183239   62.1435002
  27.624687    62.1472394
  27.6277998   62.1490695
  27.6307961   62.1490575
  27.6309339   62.1502056
  27.6141743   62.154439
  27.6063458   62.1553226
  27.601578    62.157071
  27.6014825   62.1570422
  27.6014358   62.1569993
  27.6013992   62.1569428
  27.6013024   62.1569021
  27.6012333   62.156839
  27.6012168   62.1567634
  27.6010907   62.1567071
  27.6009001   62.1566615
  27.6008218   62.1566552
  27.6007276   62.1566492
  27.600585    62.1566455
  27.6005108   62.1566408
  27.6004259   62.1566015
  27.6003024   62.1565031
  27.6002232   62.1564903
  27.6001409   62.1564833
  27.5999717   62.1564795
  27.5998026   62.156483
  27.5996399   62.1564896
  27.5995698   62.156497
  27.5994755   62.1565223
  27.5993755   62.156564
  27.5993129   62.1566241
  27.5992748   62.1566923
  27.5992404   62.1567232
  27.599084    62.1567516
  27.5985854   62.1567589
  27.5983351   62.1567942
  27.5980812   62.1567579
  27.5979444   62.1567868
  27.5978304   62.1567953
  27.5973147   62.15675
  27.5969479   62.1566696
  27.596776    62.1566779
  27.5966099   62.1567048
  27.596497    62.1567425
  27.5963587   62.156742
  27.5962257   62.1566988
  27.5960624   62.1567148
  27.5958953   62.1567154
  27.5957336   62.1566967
  27.5955539   62.1567156
  27.5953264   62.156762
  27.5951346   62.1567621
  27.5949219   62.1567331
  27.5947769   62.1567551
  27.5946901   62.1567966
  27.5945391   62.1567227
  27.5944521   62.1566378
  27.5944161   62.1565759
  27.5942913   62.1565088
  27.5941485   62.1563969
  27.5940157   62.1563252
  27.5939334   62.156297
  27.593616    62.1562323
  27.5934759   62.156219
  27.5933907   62.1562004
  27.5932987   62.1561682
  27.5930699   62.1561532
  27.5928347   62.1561504
  27.5926202   62.156162
  27.5923137   62.1561444
  27.5921873   62.1561527
  27.5920485   62.1561436
  27.5917315   62.1561563
  27.5914662   62.1561643
  27.5912819   62.1561634
  27.5908408   62.1561266
  27.5907235   62.1561238
  27.5904939   62.1560968
  27.5902641   62.1560903
  27.5901509   62.1560392
  27.5900253   62.1560281
  27.5898664   62.1559955
  27.5870401   62.1554158
  27.5827886   62.1545773
  27.5808409   62.1537699
  27.5757374   62.1516437
  27.5726154   62.1503424
  27.5706567   62.1495266
  27.5676627   62.1482679
  27.5661677   62.1476443
  27.5658918   62.147976
  27.5655858   62.1481575
  27.5654458   62.1482508
  27.5651902   62.148522
  27.5649428   62.1487967
  27.5646378   62.1490903
  27.564479    62.1491513
  27.5641592   62.1492814
  27.5639173   62.1494137
  27.5632558   62.1498669
  27.5630594   62.1501195
  27.5629316   62.1502596
  27.5628629   62.1504066
  27.5627197   62.1505292
  27.5624247   62.1517927
  27.5617918   62.1530561
  27.5597063   62.1571792
  27.5578274   62.1609229
  27.5529139   62.1673551
  27.5503773   62.1706304
  27.5502608   62.1707529
  27.5501267   62.1708467
  27.5499581   62.1709228
  27.5498045   62.1709704
  27.5495807   62.1709904
  27.5494961   62.1709911
  27.5494114   62.171008
  27.5493543   62.1709919
  27.5493003   62.1709547
  27.5492275   62.1708862
  27.5491649   62.1708364
  27.5490377   62.1707843
  27.5489253   62.1707531
  27.5488538   62.1707512
  27.5487975   62.1707784
  27.5487798   62.1708214
  27.5488009   62.1709456
  27.548855    62.1710083
  27.5488636   62.1710661
  27.5488534   62.171134
  27.5488588   62.1711784
  27.548828    62.1712101
  27.5487668   62.1712227
  27.5486896   62.1712146
  27.5485446   62.1711798
  27.5484367   62.1711664
  27.5482916   62.1711645
  27.5482073   62.1711843
  27.54816     62.1712259
  27.5481516   62.1712597
  27.5481468   62.1713125
  27.5481644   62.1713414
  27.5482059   62.1713981
  27.5481943   62.1719171
  27.5480755   62.1720493
  27.5479775   62.1721134
  27.5476696   62.1722571
  27.5474924   62.1723635
  27.5474116   62.1723988
  27.54733     62.1724234
  27.5472209   62.1724344
  27.5471191   62.1724325
  27.5469927   62.1725174
  27.5469376   62.1725704
  27.546904    62.1726327
  27.546912    62.1726849
  27.5469315   62.172761
  27.5469681   62.1727942
  27.5470144   62.1728594
  27.5470746   62.1729347
  27.5471012   62.1729863
  27.5471306   62.1730949
  27.5471913   62.1731827
  27.547279    62.1732783
  27.5473656   62.1733406
  27.547455    62.1734125
  27.5475747   62.1735326
  27.5476754   62.1736131
  27.5477576   62.1737011
  27.5477903   62.173747
  27.5477914   62.1737725
  27.5477703   62.1737935
  27.5476982   62.1738171
  27.5476277   62.1738348
  27.5475904   62.1738571
  27.5475793   62.1738759
  27.5475733   62.1739195
  27.5475324   62.173932
  27.547442    62.1739352
  27.5473617   62.1739312
  27.5472791   62.1739369
  27.5471846   62.1739468
  27.5470815   62.1739512
  27.5470072   62.1739537
  27.5469519   62.1739682
  27.5469      62.1739959
  27.5468736   62.174021
  27.5468772   62.1740602
  27.5469332   62.1741173
  27.5469713   62.1741648
  27.5470536   62.1742709
  27.5470991   62.1743096
  27.5471501   62.1743372
  27.5472395   62.174373
  27.5473645   62.1744026
  27.5474343   62.1744246
  27.5474807   62.1744613
  27.5474873   62.1744972
  27.5474612   62.1745282
  27.547403    62.1745531
  27.5471175   62.1745977
  27.5469842   62.1746198
  27.5468173   62.1746363
  27.5466636   62.1746648
  27.5465282   62.1747025
  27.5465281   62.1747281
  27.5466503   62.174776
  27.5466927   62.1748143
  27.5466873   62.1748714
  27.5466161   62.1750116
  27.5465994   62.1751024
  27.5466156   62.1751827
  27.5466778   62.1752583
  27.5466932   62.1753066
  27.546676    62.1753365
  27.546631    62.1753647
  27.5465463   62.1753816
  27.5464615   62.175378
  27.5463523   62.1753522
  27.5462568   62.1753516
  27.5461902   62.1753713
  27.5461226   62.1753993
  27.5460768   62.1754303
  27.5460604   62.1754695
  27.5460745   62.1755059
  27.5461249   62.1755305
  27.5462091   62.1755591
  27.546254    62.175587
  27.5462682   62.175627
  27.5462705   62.1756831
  27.5462577   62.1757495
  27.5462519   62.1758139
  27.5462571   62.1758759
  27.5462832   62.1759737
  27.5471685   62.1764517
  27.5448956   62.1796221
  27.5459817   62.1900306
  27.5335892   62.1971205
  27.5262611   62.2056145
  27.5208943   62.2117414
  27.5193711   62.2134648
  27.5174162   62.2156856
  27.5143808   62.2191257
  27.5122451   62.2215338
  27.5101955   62.2238636
  27.5068288   62.2276696
  27.5040297   62.2308538
  27.5024864   62.2325997
  27.5014526   62.2337737
  27.504897    62.2343904
  27.508248    62.2349901
  27.5097338   62.2352569
  27.5100641   62.235145
  27.5101626   62.2351111
  27.5102613   62.2350795
  27.5103626   62.2350578
  27.5104903   62.2350408
  27.5106227   62.2350318
  27.5107198   62.2350194
  27.5109035   62.2349732
  27.5112306   62.2348747
  27.5114508   62.2348216
  27.5116339   62.2347757
  27.5118104   62.234758
  27.5121114   62.2347508
  27.5124285   62.2347798
  27.5128796   62.2348192
  27.5130833   62.2348219
  27.5132656   62.2348106
  27.5134143   62.2347836
  27.5137289   62.2347174
  27.5139161   62.2346726
  27.5141004   62.2345996
  27.5142645   62.2345427
  27.5144849   62.2344901
  27.5146285   62.2344596
  27.5148409   62.2344289
  27.5150091   62.2343865
  27.5151291   62.2343393
  27.5152043   62.2342961
  27.5152827   62.2342344
  27.5156531   62.2339215
  27.5158104   62.2337869
  27.5159226   62.2337033
  27.5160581   62.2336323
  27.5161978   62.2335778
  27.5163458   62.2335293
  27.5164956   62.2335038
  27.5166627   62.2334702
  27.5169876   62.2333726
  27.5176335   62.2331326
  27.5180338   62.2329749
  27.5182269   62.2329211
  27.5183943   62.2328687
  27.518536    62.2328457
  27.5186985   62.2328472
  27.5188286   62.2328629
  27.5236764   62.2307695
  27.5271211   62.2292738
  27.5286548   62.2286139
  27.5327326   62.226871
  27.5412327   62.2304813
  27.5443893   62.2283004
  27.5474557   62.2261605
  27.5500744   62.2266619
  27.5544049   62.2275494
  27.560594    62.228782
  27.5627882   62.2292277
  27.5635777   62.2293658
  27.5611625   62.2306349
  27.5564327   62.2330863
  27.5537014   62.2345211
  27.5547231   62.2352035
  27.5557973   62.2359285
  27.5565653   62.2364418
  27.5575002   62.2370705
  27.557438    62.2370895
  27.5573486   62.2371374
  27.5570048   62.2372946
  27.5569494   62.2373135
  27.5567307   62.2374224
  27.5566728   62.2374394
  27.5565586   62.2374867
  27.556158    62.2376668
  27.5560908   62.2376875
  27.5559999   62.2377164
  27.5559142   62.2377932
  27.5558138   62.2378376
  27.5553758   62.2380639
  27.555216    62.238165
  27.55512     62.2382038
  27.5549368   62.2382794
  27.5548525   62.2383053
  27.5547519   62.2383395
  27.5546695   62.2383786
  27.5545959   62.2384301
  27.5544598   62.2385039
  27.5544278   62.2385394
  27.5543993   62.2386897
  27.5544018   62.23877
  27.5543739   62.2388604
  27.554376    62.2389056
  27.5543872   62.2389545
  27.5543835   62.2390642
  27.5543606   62.2391196
  27.5543036   62.239189
  27.5542422   62.2392283
  27.554192    62.2392605
  27.5539383   62.2393605
  27.553718    62.2394346
  27.5533319   62.2395908
  27.5528457   62.2397895
  27.5526896   62.2398473
  27.5525283   62.2399229
  27.5523572   62.2399849
  27.5522357   62.2400322
  27.5521584   62.2400682
  27.5520979   62.2401106
  27.5519303   62.2402557
  27.5517136   62.2404149
  27.5514804   62.240601
  27.551157    62.240859
  27.5510395   62.2409647
  27.5509912   62.2410081
  27.5505984   62.2412906
  27.550271    62.2415758
  27.5500835   62.2417221
  27.5499994   62.2417938
  27.5499182   62.2418923
  27.5498169   62.2419812
  27.5497683   62.2420232
  27.5497128   62.2421022
  27.5494486   62.2422602
  27.549288    62.2423486
  27.5491052   62.2424502
  27.5490012   62.2425174
  27.5488543   62.2426275
  27.5485724   62.2428162
  27.5484758   62.2428829
  27.5483125   62.2430224
  27.548215    62.2430886
  27.5480701   62.2431666
  27.5477822   62.2433148
  27.5474224   62.243494
  27.5473567   62.2435206
  27.5472051   62.2435829
  27.5469701   62.2436855
  27.5468267   62.2437656
  27.5466587   62.2438634
  27.5465211   62.243923
  27.5461084   62.2441007
  27.5458844   62.2442049
  27.5456768   62.2442791
  27.5456189   62.2443048
  27.5455698   62.2443305
  27.5455007   62.2443788
  27.5452343   62.2444402
  27.5450131   62.2445059
  27.5447975   62.2445828
  27.5445416   62.2446608
  27.5442006   62.2447585
  27.5437697   62.2448957
  27.5433973   62.2449935
  27.5427603   62.2451815
  27.5421288   62.2453861
  27.5417088   62.2454974
  27.5416289   62.2455105
  27.5415805   62.2455423
  27.5414841   62.2456498
  27.5414458   62.2456838
  27.5412593   62.245813
  27.5409344   62.246056
  27.5407074   62.2462123
  27.5404361   62.2463991
  27.5402186   62.2465293
  27.5401334   62.2465802
  27.5400464   62.2466248
  27.5399605   62.2466626
  27.5397372   62.2467403
  27.5396496   62.24677
  27.5394443   62.2468604
  27.5391999   62.2469779
  27.5386696   62.2472426
  27.5383327   62.2473923
  27.5381749   62.2474793
  27.5380561   62.247557
  27.5379222   62.2476537
  27.5378226   62.2477109
  27.5377227   62.2477701
  27.5376109   62.247855
  27.5374954   62.2479385
  27.5371532   62.2481074
  27.5368501   62.2482157
  27.5366116   62.248307
  27.5362405   62.248468
  27.5360412   62.24859
  27.5357575   62.2487261
  27.5356263   62.2487853
  27.5354405   62.248877
  27.5352881   62.2489706
  27.5351928   62.249034
  27.5350994   62.2491064
  27.5350145   62.2491924
  27.5349253   62.2492889
  27.5348884   62.2493894
  27.5348732   62.2494742
  27.5348641   62.2495033
  27.5348368   62.2495598
  27.5347407   62.2496689
  27.53452     62.2498803
  27.5339766   62.2501166
  27.5333033   62.2504732
  27.5326545   62.2508179
  27.5314766   62.2514443
  27.5300747   62.2521812
  27.5289572   62.2527588
  27.527265    62.2536407
  27.5267195   62.2539293
  27.5258868   62.2543671
  27.5249965   62.2548175
  27.524081    62.2557613
  27.5236498   62.2562037
  27.5232064   62.2566575
  27.5228358   62.2570393
  27.5224786   62.257407
  27.5224367   62.2574488
  27.5221259   62.2576747
  27.5220514   62.2577285
  27.5216653   62.2580073
  27.5208184   62.2586251
  27.5204324   62.2589055
  27.5199837   62.2592314
  27.5192571   62.2597612
  27.5190288   62.2599276
  27.5187782   62.2601097
  27.518332    62.2604341
  27.5176876   62.2609011
  27.5170253   62.2613892
  27.5166026   62.2616927
  27.5161299   62.262032
  27.5157058   62.2623358
  27.5152773   62.2626433
  27.5147454   62.2630259
  27.5142098   62.2634096
  27.5136838   62.2637854
  27.5131791   62.2641467
  27.5127694   62.2644439
  27.5125071   62.2646305
  27.5122804   62.2647924
  27.5117759   62.2651588
  27.510618    62.2659862
  27.5096595   62.2666763
  27.5089256   62.2672036
  27.5082516   62.2676916
  27.5075106   62.268247
  27.5066768   62.2688459
  27.5057923   62.2694786
  27.5050644   62.2700038
  27.5049939   62.2700516
  27.5049234   62.2701029
  27.504885    62.2701338
  27.5048315   62.2701879
  27.5047793   62.2702496
  27.5046237   62.2703896
  27.5045289   62.2704774
  27.5044549   62.2705628
  27.5044026   62.2706274
  27.504349    62.2706832
  27.5043098   62.2707139
  27.5042442   62.2707559
  27.5041658   62.2708008
  27.5040838   62.2708436
  27.5038994   62.2709438
  27.5037086   62.2710435
  27.5035172   62.2711273
  27.5034317   62.2711726
  27.5033369   62.2712424
  27.5032522   62.2713164
  27.503223    62.2713502
  27.5032156   62.2713801
  27.5032251   62.2714099
  27.5032749   62.2714357
  27.5033058   62.271461
  27.5033002   62.2714946
  27.503281    62.2715206
  27.503254    62.27154
  27.5032176   62.2715548
  27.5031859   62.2715699
  27.5031642   62.2715892
  27.5031606   62.2716076
  27.5031641   62.2716298
  27.5031957   62.2716697
  27.5032164   62.2717372
  27.5032111   62.2717888
  27.5031898   62.2718196
  27.5031421   62.2718633
  27.5030883   62.2718917
  27.5030397   62.2719007
  27.5030044   62.2719066
  27.5029137   62.271909
  27.5028593   62.2719169
  27.5028283   62.2719298
  27.5027803   62.2719681
  27.5027292   62.2719954
  27.5026545   62.2720502
  27.5025983   62.2720737
  27.5025261   62.2720886
  27.5024443   62.2720944
  27.5023569   62.2720874
  27.5022673   62.2720731
  27.502212    62.2720761
  27.5021381   62.2721055
  27.502079    62.2721179
  27.5019989   62.2721541
  27.5018638   62.2722021
  27.5017951   62.2722249
  27.5015208   62.2722277
  27.5014108   62.2722271
  27.5013631   62.2722315
  27.5013189   62.2722452
  27.5012626   62.2722755
  27.5011661   62.2723147
  27.5010585   62.2723574
  27.5009487   62.2723828
  27.5008289   62.2724105
  27.5007741   62.2724149
  27.5007263   62.27241
  27.5007039   62.2724
  27.5006829   62.2723836
  27.5006572   62.2723512
  27.5006248   62.2723392
  27.5005877   62.2723343
  27.5005309   62.2723473
  27.5005046   62.2723696
  27.5004807   62.2724148
  27.5004642   62.2724366
  27.5004403   62.2724584
  27.5004237   62.2724973
  27.5004      62.2725172
  27.5003579   62.272536
  27.5002976   62.2725529
  27.500197    62.2725658
  27.5000859   62.2725788
  27.4999733   62.272595
  27.4998861   62.2726189
  27.4997983   62.2726575
  27.4997356   62.2726917
  27.4996981   62.2727247
  27.4996795   62.2727507
  27.4996727   62.2727728
  27.4996652   62.2728208
  27.4996441   62.2728427
  27.4996098   62.2728601
  27.499553    62.2728656
  27.4995039   62.2728663
  27.4994417   62.2728631
  27.499388    62.2728662
  27.499335    62.2728741
  27.4992742   62.2728893
  27.4992174   62.272911
  27.4991365   62.2729615
  27.4990844   62.2729826
  27.4989842   62.2730054
  27.498899    62.273025
  27.4988607   62.2730434
  27.4988015   62.2730839
  27.4987627   62.2731049
  27.4986257   62.2731324
  27.4984713   62.2731621
  27.4983604   62.2731661
  27.4982908   62.2731754
  27.4982041   62.2732008
  27.498043    62.2732468
  27.497921    62.2732943
  27.4978477   62.2733261
  27.4978138   62.2733515
  27.4977807   62.2733883
  27.4977375   62.2734145
  27.4976967   62.2734247
  27.4976429   62.2734299
  27.497547    62.2734053
  27.497491    62.273406
  27.4974434   62.2734172
  27.497399    62.2734405
  27.4972435   62.2735545
  27.4971818   62.27357
  27.4971114   62.2735819
  27.497042    62.2735988
  27.4969888   62.2736223
  27.4969541   62.273652
  27.4969047   62.2736894
  27.4968319   62.2737272
  27.4967389   62.2737581
  27.4966449   62.273779
  27.4965518   62.2737907
  27.4964511   62.2738069
  27.4963804   62.2738222
  27.4963469   62.2738387
  27.4963193   62.2738569
  27.4962921   62.2738879
  27.4962428   62.2739294
  27.496161    62.2739759
  27.4959938   62.2740469
  27.4958628   62.2740947
  27.4957594   62.2741358
  27.4955768   62.2742302
  27.4954995   62.274255
  27.4953601   62.274288
  27.4951884   62.2743196
  27.4949994   62.2743359
  27.4949183   62.2743461
  27.4948101   62.2743821
  27.4947235   62.2744302
  27.494635    62.2744683
  27.4943321   62.2745612
  27.4942476   62.2745948
  27.4937212   62.2747879
  27.4941784   62.274927
  27.496352    62.2755774
  27.4967441   62.2756981
  27.4974843   62.2759205
  27.4987938   62.2763123
  27.5002297   62.2767624
  27.5014816   62.2771423
  27.5025084   62.2774539
  27.503054    62.2776188
  27.5042955   62.2779941
  27.5048713   62.2781689
  27.5068368   62.2787655
  27.5074054   62.2789381
  27.5092057   62.2794853
  27.5111527   62.2800754
  27.5125274   62.2794688
  27.5138913   62.2788673
  27.5149242   62.2784145
  27.5176565   62.2802287
  27.5183254   62.2806722
  27.5186499   62.280887
  27.5195945   62.2815129
  27.5207202   62.2822571
  27.520596    62.2825698
  27.520358    62.283211
  27.5198011   62.2847024
  27.5197282   62.2848798
  27.5195106   62.285449
  27.5192901   62.2860105
  27.5190305   62.2866724
  27.5186771   62.2875913
  27.520183    62.287923
  27.5204544   62.287752
  27.5214506   62.2870068
  27.5220601   62.2865528
  27.5225857   62.2861502
  27.5231023   62.2857505
  27.5237309   62.2852022
  27.5240187   62.2849439
  27.5242944   62.2846959
  27.5244061   62.2846278
  27.5245695   62.2845833
  27.5248123   62.2846108
  27.524953    62.2847104
  27.5250251   62.2848316
  27.5251562   62.2851033
  27.5252131   62.2851917
  27.525312    62.2853272
  27.5253708   62.2854444
  27.5254686   62.2855685
  27.5255958   62.2856884
  27.5258375   62.285818
  27.5261643   62.2859298
  27.5264272   62.2860015
  27.5267099   62.2860574
  27.5272241   62.2860997
  27.5277657   62.2860577
  27.5279913   62.2860178
  27.5282176   62.2859931
  27.5283736   62.2859586
  27.5284598   62.2858767
  27.5285019   62.2857812
  27.5285886   62.285691
  27.5287525   62.2854127
  27.5290491   62.2851312
  27.5291233   62.2850315
  27.5292399   62.2847331
  27.5293489   62.2846616
  27.5294629   62.2846158
  27.5297912   62.2845585
  27.5301842   62.2844556
  27.530507    62.2843297
  27.5307712   62.2842263
  27.5309945   62.2841196
  27.5311651   62.2840061
  27.5312621   62.2839582
  27.531661    62.2837603
  27.5316235   62.2836291
  27.531439    62.2835058
  27.5312132   62.2833699
  27.5311815   62.2831921
  27.5313147   62.2828489
  27.531335    62.2827377
  27.5313917   62.2824322
  27.5312485   62.2821401
  27.5314103   62.2819373
  27.5317846   62.2816462
  27.5321236   62.2815474
  27.532642    62.281518
  27.5330016   62.2813789
  27.5330718   62.2813266
  27.5331374   62.2812666
  27.5331994   62.2811951
  27.5332309   62.2811394
  27.5332848   62.2810446
  27.533316    62.2809577
  27.5334746   62.2808709
  27.5336845   62.2808109
  27.5341677   62.2806254
  27.5344092   62.2805053
  27.5351622   62.2801583
  27.535345    62.2800441
  27.5356444   62.2799055
  27.5358032   62.2798526
  27.5455029   62.2822605
  27.5478314   62.2828385
  27.5490235   62.2831338
  27.5495639   62.283266
  27.5495738   62.2832545
  27.5495067   62.283087
  27.5495068   62.2830158
  27.5495467   62.282924
  27.549607    62.2828697
  27.5496989   62.2828013
  27.5498091   62.2827524
  27.5498176   62.2827167
  27.5497775   62.2826759
  27.5496373   62.2826046
  27.5495531   62.2825492
  27.5495234   62.2824894
  27.5495489   62.2824458
  27.5495846   62.2824153
  27.5497183   62.2823303
  27.5498472   62.2823126
  27.5500222   62.2822994
  27.5501296   62.2822797
  27.5501935   62.2822361
  27.5502412   62.2821895
  27.5502406   62.2821124
  27.5502388   62.282047
  27.5502131   62.2819922
  27.5501747   62.2819561
  27.5500698   62.281892
  27.5499684   62.281846
  27.549924    62.2818092
  27.5499173   62.2817775
  27.5499416   62.2817479
  27.550046    62.2816717
  27.5503261   62.2815398
  27.5503766   62.2815284
  27.5504899   62.281504
  27.5505839   62.2814953
  27.5506836   62.2814734
  27.5507819   62.2814391
  27.5508661   62.2813998
  27.5510698   62.281286
  27.5512955   62.2811329
  27.5513263   62.2811194
  27.5513718   62.2810663
  27.5513699   62.2810181
  27.5513345   62.2809869
  27.5512952   62.2809695
  27.5512197   62.280956
  27.5510799   62.2809592
  27.5508503   62.2809815
  27.5507062   62.281002
  27.550427    62.2810272
  27.5502577   62.2810107
  27.5502081   62.2809984
  27.5501498   62.2809388
  27.5501464   62.2809036
  27.5501736   62.2808634
  27.5502313   62.280805
  27.5503033   62.2807543
  27.5503423   62.280662
  27.550335    62.2806273
  27.5502689   62.2805459
  27.5502506   62.2804867
  27.5503187   62.2804162
  27.550398    62.2803727
  27.5505142   62.2803342
  27.5506389   62.2803363
  27.5508304   62.2804014
  27.5510311   62.2804281
  27.5511773   62.2804255
  27.551262    62.280411
  27.5513523   62.2803841
  27.5513801   62.2803653
  27.5513946   62.2803417
  27.5513571   62.2802442
  27.5513514   62.280216
  27.5513644   62.2801871
  27.5513812   62.2801642
  27.5515289   62.2800557
  27.5515891   62.2800222
  27.5516615   62.2800035
  27.5517527   62.2799871
  27.5518907   62.2799643
  27.5520172   62.2799562
  27.5521661   62.2799627
  27.5523401   62.2799803
  27.5524529   62.2799741
  27.5525283   62.2799593
  27.5525886   62.2799289
  27.5526372   62.2798685
  27.5526619   62.2798128
  27.5526624   62.2797684
  27.5526795   62.2796412
  27.552749    62.2795831
  27.5528192   62.2795383
  27.5529855   62.2794866
  27.553098    62.2794594
  27.5531653   62.279462
  27.5533134   62.2795007
  27.5534295   62.2794906
  27.5535578   62.2794627
  27.5537941   62.2793935
  27.5542951   62.2793233
  27.5544477   62.2792756
  27.5545271   62.2792461
  27.5546229   62.2791965
  27.5548526   62.2789732
  27.5549516   62.2788831
  27.555031    62.2788219
  27.5552369   62.2787171
  27.5554231   62.2786445
  27.5554652   62.2786112
  27.5555004   62.278568
  27.5555121   62.2783583
  27.5555304   62.2782907
  27.5555514   62.2782562
  27.555683    62.2780796
  27.5557949   62.2779574
  27.5558767   62.2778775
  27.5559453   62.2778211
  27.5560417   62.277757
  27.5561507   62.2776602
  27.5562011   62.2776033
  27.5562411   62.2774941
  27.5562451   62.2774368
  27.5562378   62.2774001
  27.5562245   62.2773015
  27.5562285   62.2772777
  27.5562315   62.2772412
  27.5562822   62.2771514
  27.5566399   62.2773572
  27.5569008   62.2774888
  27.5571106   62.2775717
  27.5572757   62.2776556
  27.5575712   62.2778035
  27.5577679   62.2779317
  27.557796    62.2780256
  27.5578187   62.2780652
  27.5578448   62.2780916
  27.5578713   62.2781443
  27.5578463   62.2782304
  27.5578523   62.2782614
  27.5579442   62.2783376
  27.5579797   62.2783861
  27.5580071   62.2784952
  27.5580976   62.2786173
  27.558101    62.2786451
  27.5580568   62.2786767
  27.5580141   62.2787097
  27.5580077   62.2787432
  27.5580395   62.2787745
  27.558114    62.2788015
  27.5582225   62.2788387
  27.5582759   62.2788763
  27.5582904   62.2789278
  27.558309    62.2789619
  27.5583877   62.2789904
  27.5584615   62.2789983
  27.558532    62.2790027
  27.558622    62.279005
  27.5587071   62.2790189
  27.5587526   62.279038
  27.5587813   62.2790634
  27.5587882   62.2790871
  27.5589521   62.279176
  27.5590773   62.2792339
  27.5592618   62.279294
  27.5594733   62.2793393
  27.5597443   62.2793942
  27.5598755   62.2794157
  27.5600767   62.2794469
  27.5601296   62.2794843
  27.5601713   62.2795356
  27.5601984   62.2795996
  27.5602102   62.2796356
  27.560279    62.2796808
  27.5603183   62.2797223
  27.5603645   62.2797973
  27.5603689   62.2798469
  27.5603368   62.2799337
  27.5603347   62.2799752
  27.5603611   62.2800068
  27.5605542   62.2801071
  27.5605213   62.2802636
  27.5606839   62.2804857
  27.5606399   62.2807015
  27.560905    62.2809125
  27.5608373   62.2810055
  27.5605559   62.2811249
  27.5604464   62.2812227
  27.5604587   62.2814392
  27.5602658   62.2816531
  27.5602924   62.2817835
  27.5605177   62.2820045
  27.5607534   62.2820436
  27.5610885   62.2823376
  27.5610893   62.2824537
  27.561161    62.2825124
  27.5612076   62.2826819
  27.5614708   62.2829477
  27.5616117   62.2830425
  27.5618038   62.2830826
  27.5620478   62.2831057
  27.5622847   62.2830589
  27.5690287   62.2838993
  27.5693175   62.2837063
  27.5698711   62.2836937
  27.5700649   62.2837247
  27.5705133   62.2836895
  27.5707306   62.2836205
  27.5716729   62.2835284
  27.572693    62.2831765
  27.5735775   62.2846766
  27.5735169   62.2848305
  27.5734102   62.2850208
  27.588086    62.2904181
  27.5953237   62.2855656
  27.6058966   62.2784756
  27.6318771   62.2829642
  27.6323384   62.28273
  27.6323438   62.2822709
  27.6322955   62.2821354
  27.6324028   62.2820401
  27.6329982   62.2820071
  27.6338994   62.2817125
  27.6354122   62.2810896
  27.6359862   62.2807327
  27.6362544   62.2805024
  27.63641     62.2803107
  27.6368552   62.2802087
  27.6377028   62.2798076
  27.6386899   62.279444
  27.6395804   62.2790168
  27.6398647   62.2788545
  27.6407337   62.2784541
  27.6407766   62.2783306
  27.6407605   62.2782129
  27.6411629   62.2781701
  27.6415062   62.2780522
  27.6452162   62.2795301
  27.6465198   62.2800494
  27.6473682   62.2803874
  27.6487826   62.2809508
  27.6498371   62.2813708
  27.646002    62.2832128
  27.6435405   62.284395
  27.6420158   62.2851272
  27.6448214   62.2863509
  27.6442116   62.2866745
  27.6437363   62.2864839
  27.6424531   62.2859968
  27.6423785   62.2859651
  27.6412862   62.2855011
  27.6323438   62.2898367
  27.630578    62.2894424
  27.6275319   62.2887623
  27.6272693   62.2888905
  27.6270728   62.2889865
  27.6266705   62.289183
  27.6264727   62.2892796
  27.62594     62.2895397
  27.6258985   62.28956
  27.6245507   62.2902081
  27.6213183   62.2917965
  27.6211611   62.2918733
  27.6206789   62.2921087
  27.6201023   62.2923903
  27.6186257   62.2931113
  27.6164329   62.2941819
  27.6181901   62.2947629
  27.6251785   62.2970733
  27.6342642   62.3000769
  27.6268184   62.3046719
  27.6359715   62.3117565
  27.6408153   62.3153891
  27.6477399   62.3205656
  27.6471965   62.321835
  27.6537443   62.3224903
  27.664139    62.3252863
  27.6659126   62.3257633
  27.692947    62.3330338
  27.6928504   62.3331891
  27.6931003   62.3333007
  27.6925924   62.3340466
  27.6754582   62.3521557
  27.6910195   62.3682451
  27.6897986   62.3728474
  27.6919028   62.3747627
  27.6909514   62.3768501
  27.685597    62.3885958
  27.6525142   62.3999481
  27.6433681   62.4082108
  27.6424449   62.4087939
  27.6416031   62.4092011
  27.6400341   62.4102367
  27.6317997   62.4174989
  27.6298937   62.4196853
  27.6054939   62.4310083
  27.6011569   62.4347688
  27.5851334   62.4412623
  27.5723287   62.4482154
  27.560559    62.4522264
  27.556231    62.4541278
  27.5559799   62.4541948
  27.5557776   62.4542488
  27.5515436   62.4553784
  27.5513801   62.4547344
  27.5466539   62.4562366
  27.5446994   62.4565097
  27.5446179   62.4564742
  27.5445385   62.4564639
  27.5444406   62.4564288
  27.5443574   62.4564265
  27.5442092   62.4564053
  27.5439418   62.4564067
  27.5438054   62.4563988
  27.5437205   62.4564248
  27.5437061   62.4564868
  27.543753    62.4565307
  27.543837    62.4565572
  27.5439696   62.4565545
  27.544126    62.4565897
  27.5431811   62.4567262
  27.5290742   62.4567917
  27.4883205   62.466925
  27.4828246   62.4667312
  27.4765502   62.4688975
  27.4646584   62.4708352
  27.4646366   62.470859
  27.4646603   62.4708959
  27.4648364   62.4709408
  27.4649823   62.470993
  27.465125    62.4710279
  27.4650786   62.4712998
  27.4650265   62.471639
  27.4653384   62.4722004
  27.4653692   62.4726639
  27.4653349   62.472764
  27.4652913   62.4727927
  27.4651731   62.4730506
  27.4650755   62.4731785
  27.4650443   62.4733168
  27.4649409   62.4734177
  27.4649282   62.473534
  27.464909    62.4735639
  27.464935    62.4736222
  27.4649366   62.4737259
  27.4648992   62.4737907
  27.4649085   62.473914
  27.4648321   62.4740057
  27.4647721   62.4741458
  27.4647717   62.4742258
  27.4647492   62.4742717
  27.4646589   62.474365
  27.464662    62.4744755
  27.4646378   62.4745378
  27.4645952   62.4745999
  27.4648023   62.4753141
  27.4638324   62.4767075
  27.4634665   62.4771909
  27.4631172   62.4773918
  27.4612738   62.4794993
  27.4607795   62.4818026
  27.4595818   62.482287
  27.4594681   62.4840081
  27.4510252   62.48301
  27.4487754   62.4829287
  27.4433706   62.4850285
  27.4412571   62.4850079
  27.4158229   62.4952787
  27.4114468   62.5004341
  27.4085112   62.5038833
  27.3930069   62.5029187
  27.3856022   62.5054636
  27.3842976   62.5142826
  27.3634533   62.5300191
  27.3576742   62.5293064
  27.3444959   62.5228725
  27.3568463   62.5179483
  27.3568741   62.5179193
  27.3570351   62.5177661
  27.3571316   62.517642
  27.3573623   62.5175281
  27.3574106   62.5175554
  27.3573637   62.5176323
  27.3572174   62.5178079
  27.3574987   62.5177062
  27.3667118   62.5149711
  27.3695784   62.5160742
  27.3714429   62.5131095
  27.3677937   62.5103874
  27.3653251   62.5075607
  27.3515134   62.5086577
  27.3474839   62.5084209
  27.3624406   62.4962254
  27.3377057   62.4971487
  27.3166186   62.4894186
  27.3071035   62.4858856
  27.3026635   62.4858574
  27.2897842   62.4638235
  27.2838737   62.4621801
  27.2762678   62.4654007
  27.2678023   62.4628178
  27.2520952   62.4735354
  27.2514111   62.4740229
  27.2495977   62.476004
  27.2507102   62.4798718
  27.2382803   62.4792209
  27.228941    62.4795332
  27.2287049   62.4799695
  27.2249094   62.4800456
  27.2252512   62.4775124
  27.2252512   62.4765531
  27.2189602   62.4666014
  27.2205062   62.4637331
  27.2064482   62.4615278
  27.2029667   62.4667239
  27.2160258   62.4737896
  27.2176521   62.4746694
  27.2179446   62.4748277
  27.2129878   62.4777055
  27.2128028   62.4778129
  27.2119666   62.4783054
  27.211134    62.4787958
  27.2101757   62.4784064
  27.209033    62.477942
  27.2075436   62.4773169
  27.2034965   62.4757151
  27.2006089   62.4745694
  27.189349    62.4701149
  27.1954086   62.4559228
  27.1847631   62.457194
  27.182032    62.4575167
  27.1792468   62.4578296
  27.1756988   62.4581731
  27.1753005   62.4582221
  27.1750925   62.4582487
  27.1730921   62.4585048
  27.1730767   62.4585063
  27.1722387   62.4585881
  27.1705199   62.4587558
  27.1696678   62.458839
  27.168687    62.4589731
  27.1668637   62.4592225
  27.1668266   62.4592519
  27.1667985   62.4596357
  27.1669243   62.4597927
  27.1671333   62.4598436
  27.167209    62.4598621
  27.1676479   62.4597532
  27.1681503   62.4596196
  27.1684776   62.459561
  27.1687846   62.4595061
  27.1692028   62.4595687
  27.1695003   62.4596264
  27.1697486   62.459743
  27.1700012   62.4598286
  27.1703578   62.4599711
  27.1707205   62.4600538
  27.1711079   62.4601364
  27.1713238   62.4601548
  27.1721548   62.4602257
  27.1727371   62.4602754
  27.1730198   62.4604157
  27.1730511   62.4605352
  27.1736229   62.4611273
  27.1742714   62.4611895
  27.1743066   62.4611852
  27.174765    62.4611288
  27.1749475   62.4611064
  27.1755209   62.4610359
  27.1759215   62.4610945
  27.1765965   62.4611932
  27.1769352   62.4613613
  27.1770056   62.4613963
  27.1770357   62.461629
  27.1770394   62.4616978
  27.1769723   62.4617491
  27.1768406   62.4618499
  27.1761831   62.4623295
  27.1759139   62.4625081
  27.1756949   62.4627106
  27.1764652   62.463082
  27.1763306   62.4633591
  27.1760763   62.4639426
  27.1762296   62.4641253
  27.1762881   62.464195
  27.176136    62.46446
  27.1760825   62.4645533
  27.1757517   62.4646109
  27.1752441   62.4646338
  27.1750024   62.4647693
  27.1747617   62.4649043
  27.1744217   62.4654162
  27.1749673   62.4657598
  27.1750388   62.4660213
  27.1750543   62.4660779
  27.1745324   62.4661437
  27.1735675   62.4659646
  27.1727517   62.466789
  27.1714908   62.4678593
  27.1706984   62.4684955
  27.1700594   62.4687965
  27.1692811   62.4693827
  27.1692951   62.4706104
  27.1694313   62.4711519
  27.1690246   62.4718681
  27.1675375   62.4725317
  27.1701887   62.476132
  27.1630746   62.4824163
  27.1484414   62.4886823
  27.1375388   62.4933294
  27.1332925   62.4973752
  27.1282234   62.4997566
  27.123029    62.5021388
  27.1141402   62.5061883
  27.1124751   62.5054824
  27.1144838   62.5036684
  27.1183682   62.4978568
  27.1097285   62.4959022
  27.1053694   62.4940868
  27.1055585   62.4922796
  27.105055    62.4919529
  27.1051619   62.4915846
  27.1051979   62.4913972
  27.1056887   62.491223
  27.1048817   62.4910331
  27.1050895   62.4905771
  27.1046866   62.4905944
  27.1040562   62.4909006
  27.1037194   62.4907514
  27.1035125   62.4903679
  27.1027654   62.4903916
  27.1026475   62.4898089
  27.1019302   62.4894681
  27.1018932   62.4889312
  27.1021783   62.4883692
  27.1026456   62.4878888
  27.1026736   62.487559
  27.1036541   62.4872095
  27.1032282   62.4865637
  27.1022039   62.4865813
  27.1018904   62.4862442
  27.1014503   62.4857681
  27.1021475   62.4847669
  27.1012622   62.4849413
  27.1010896   62.4849361
  27.1009015   62.4848149
  27.1005299   62.4847315
  27.1004001   62.4846983
  27.1003776   62.4845238
  27.1002345   62.484541
  27.1000431   62.4847143
  27.0998695   62.4847387
  27.0995179   62.4846476
  27.0990842   62.4847321
  27.098983    62.4846977
  27.0989368   62.4845364
  27.0986641   62.4845478
  27.0983194   62.4844467
  27.0979027   62.4843899
  27.0979401   62.4844954
  27.0978015   62.4846083
  27.0978122   62.4848119
  27.0975538   62.4848892
  27.0969817   62.4849096
  27.0967273   62.4849474
  27.0966408   62.4850296
  27.0966645   62.4851907
  27.0965723   62.4852392
  27.0961846   62.4852048
  27.0959968   62.4852222
  27.0960172   62.485366
  27.0962297   62.4855146
  27.0961471   62.4855468
  27.095469    62.4854803
  27.0952957   62.4852773
  27.0951492   62.4852428
  27.0950204   62.4851674
  27.094221    62.4851638
  27.0939814   62.4850524
  27.0937663   62.4850655
  27.0933637   62.4852415
  27.092945    62.485368
  27.0925585   62.4854041
  27.0922631   62.4855045
  27.0917966   62.4858283
  27.0913111   62.4859134
  27.0911315   62.486048
  27.0911963   62.4862011
  27.0912986   62.486327
  27.0905745   62.4867041
  27.0896985   62.4868485
  27.0890432   62.4867551
  27.0887609   62.4868594
  27.0884065   62.4872071
  27.0877886   62.4871904
  27.087764    62.4868801
  27.0863444   62.4870664
  27.0856204   62.4869953
  27.085173    62.4874589
  27.0850347   62.487579
  27.0851219   62.4877376
  27.0846111   62.4880467
  27.0838155   62.487932
  27.0836736   62.4880257
  27.0832757   62.4882367
  27.0827924   62.4879745
  27.0821243   62.4880273
  27.0819609   62.4882769
  27.08177     62.4884836
  27.0812095   62.488454
  27.0807424   62.488224
  27.0799503   62.4880003
  27.0797878   62.4877762
  27.079889    62.487617
  27.0786132   62.4874168
  27.068319    62.4792717
  27.0626966   62.4735726
  27.0612668   62.4713241
  27.0002518   62.4693789
  26.9999953   62.4693915
  26.9971966   62.4695294
  26.9938151   62.4745644
  26.9857417   62.4786008
  26.9791791   62.4795392
  26.9767372   62.4815933
  26.9764154   62.4819354
  26.9759755   62.4820642
  26.9756536   62.4824112
  26.9752567   62.4825897
  26.9751172   62.4832291
  26.9739155   62.4837843
  26.9735937   62.4845476
  26.9734327   62.4853654
  26.9732022   62.4862551
  26.972804    62.4863944
  26.972516    62.4867374
  26.972069    62.487127
  26.9714372   62.4879179
  26.9712496   62.4882797
  26.9714804   62.4885002
  26.9711311   62.4887223
  26.9708438   62.4889969
  26.9701367   62.4890078
  26.9694139   62.4889113
  26.9688014   62.4889166
  26.9687051   62.4884583
  26.9681903   62.488238
  26.9571598   62.4835896
  26.9522212   62.4815061
  26.952504    62.4812367
  26.9519915   62.4808162
  26.9518059   62.4803507
  26.951479    62.4803793
  26.9509137   62.4797823
  26.9513464   62.4799588
  26.9516214   62.4797776
  26.9515938   62.4795709
  26.9507456   62.4793137
  26.9505739   62.479363
  26.9488132   62.4775493
  26.9496563   62.4777553
  26.9502419   62.4776192
  26.9494555   62.4770966
  26.9485012   62.4766433
  26.9479003   62.4766515
  26.9476837   62.4762988
  26.9511859   62.4754571
  26.9672985   62.4601034
  26.9675689   62.4603509
  26.9680088   62.4603161
  26.9684701   62.4604253
  26.9688027   62.4598548
  26.9686418   62.4597159
  26.9694035   62.459453
  26.9700043   62.4591355
  26.9706742   62.4587716
  26.9707708   62.4583126
  26.9699957   62.4578974
  26.9694718   62.4576054
  26.9694786   62.4571907
  26.9707125   62.4560422
  26.970573    62.4557272
  26.9703101   62.4555287
  26.9717424   62.4542685
  26.9706762   62.4539989
  26.9674003   62.4531707
  26.966488    62.4528479
  26.9649189   62.4526907
  26.9639694   62.4521325
  26.9634919   62.4515147
  26.9626898   62.4512106
  26.9622923   62.4508753
  26.961531    62.4508832
  26.9612911   62.4507513
  26.961204    62.4502903
  26.9608794   62.4501873
  26.9610156   62.4497788
  26.9608011   62.4495763
  26.9609278   62.4493562
  26.9616895   62.4492197
  26.9633525   62.4493214
  26.9638487   62.4490323
  26.963787    62.448644
  26.9629126   62.4478276
  26.9619899   62.4472719
  26.962022    62.4466068
  26.962419    62.4460063
  26.9632344   62.4456638
  26.9632773   62.4453015
  26.9622688   62.4450484
  26.9618051   62.4448537
  26.9616588   62.4444677
  26.9610871   62.4443741
  26.9604986   62.4444131
  26.9598472   62.4443947
  26.9590928   62.4441985
  26.9587767   62.4439088
  26.9543052   62.4423623
  26.9515074   62.4426224
  26.9489322   62.4461383
  26.9473979   62.4475943
  26.9473663   62.4482382
  26.9461958   62.4485308
  26.9452943   62.4489844
  26.9431748   62.4506305
  26.9409287   62.4518156
  26.9398057   62.4523716
  26.9394536   62.4531347
  26.9393302   62.4538458
  26.9378615   62.4553998
  26.9369796   62.4563375
  26.9362063   62.4568059
  26.9310384   62.4583546
  26.9301862   62.458577
  26.9054057   62.4657644
  26.8840619   62.4775229
  26.8794804   62.4855058
  26.8742915   62.4825012
  26.8713629   62.4808274
  26.8719823   62.4789326
  26.8721786   62.4787992
  26.8722208   62.4786789
  26.8721963   62.478562
  26.8720269   62.4784555
  26.8714281   62.4783622
  26.8712889   62.4783428
  26.8704927   62.4782095
  26.8701594   62.478188
  26.856624    62.4768095
  26.8458824   62.4697664
  26.8334525   62.4682202
  26.8224028   62.4560986
  26.8176585   62.4552965
  26.8167774   62.4540622
  26.8177445   62.4533782
  26.8263625   62.447312
  26.83253     62.44297
  26.8249924   62.4409817
  26.7754622   62.4279128
  26.7743768   62.4276264
  26.7727127   62.4271872
  26.7606864   62.424013
  26.7574537   62.4258568
  26.7555219   62.4269586
  26.7468409   62.4319092
  26.7459901   62.4323944
  26.7447027   62.4337946
  26.7419239   62.4348571
  26.7401734   62.4365891
  26.7397674   62.4368033
  26.7390994   62.4369852
  26.7385601   62.4369288
  26.7374172   62.4366671
  26.736124    62.4363309
  26.7358437   62.4364131
  26.73522     62.4362174
  26.7348738   62.4359947
  26.7346354   62.4362663
  26.7341181   62.4364089
  26.733547    62.4363182
  26.7332121   62.4364955
  26.731989    62.4434103
  26.7091263   62.4529475
  26.6982024   62.4589997
  26.6848632   62.4633897
  26.6820512   62.4618917
  26.6718427   62.4595995
  26.6331395   62.4507646
  26.6252614   62.4547214
  26.621888    62.4564109
  26.6218103   62.456455
  26.6177925   62.4584767
  26.6152095   62.4597795
  26.6038208   62.4655036
  26.6021302   62.466391
  26.6012127   62.4668725
  26.5982286   62.4683458
  26.597795    62.4685599
  26.5897092   62.4725516
  26.5774987   62.4787115
  26.5699663   62.4816201
  26.5695449   62.4817828
  26.567224    62.4826789
  26.5571128   62.4865722
  26.5359127   62.494789
  26.5235144   62.4996132
  26.5224756   62.5000149
  26.5079608   62.5056279
  26.5057893   62.505661
  26.4982523   62.5087234
  26.4918923   62.5112144
  26.4893723   62.5098107
  26.4886908   62.5094311
  26.4812492   62.5123792
  26.4800551   62.5122256
  26.4754739   62.5155319
  26.4782849   62.5167465
  26.4729891   62.5181689
  26.4707361   62.5189185
  26.4838703   62.5293145
  26.4832319   62.5323532
  26.490174    62.5326499
  26.4957852   62.5328053
  26.5081738   62.5331423
  26.5177343   62.5364497
  26.5244301   62.5415481
  26.5261779   62.5410509
  26.5366106   62.5484124
  26.5424127   62.5524476
  26.5520183   62.5591285
  26.5561467   62.5620024
  26.5581519   62.5654514
  26.5694001   62.5801092
  26.5724106   62.5885215
  26.5941526   62.5906775
  26.5940592   62.5907972
  26.5939272   62.5908933
  26.5937663   62.5909723
  26.5937052   62.5911084
  26.5936054   62.5911946
  26.593555    62.5913109
  26.5935979   62.5914047
  26.5937373   62.5914739
  26.5939412   62.5914887
  26.5941236   62.5915183
  26.5942309   62.5915776
  26.5944991   62.5915726
  26.5950232   62.5920166
  26.5949604   62.5920715
  26.5948821   62.5921626
  26.5948531   62.5923036
  26.5949497   62.5923727
  26.5952287   62.5924764
  26.5953574   62.5925999
  26.5955291   62.5926098
  26.5957222   62.5926394
  26.5958181   62.5926212
  26.5991018   62.5944565
  26.5823251   62.6016019
  26.5763599   62.6040358
  26.576804    62.6042896
  26.5983904   62.6107658
  26.5955612   62.6231738
  26.5926956   62.6356038
  26.5913341   62.6416492
  26.588609    62.6412942
  26.5696189   62.6534208
  26.5704043   62.6583354
  26.570283    62.6583384
  26.5700567   62.65824
  26.5698517   62.6582627
  26.5698979   62.6584477
  26.5702396   62.6584519
  26.5704311   62.6584253
  26.5709461   62.6614311
  26.5693369   62.6658572
  26.5686319   62.6677988
  26.5628565   62.6749383
  26.562216    62.6817069
  26.5526856   62.6887053
  26.5450928   62.6942994
  26.5341462   62.7066872
  26.5260598   62.7158093
  26.5292356   62.7222907
  26.5095589   62.7382865
  26.4923895   62.7521984
  26.4744338   62.7666879
  26.4574607   62.7803828
  26.4465635   62.7891608
  26.424994    62.7833855
  26.3989272   62.7782504
  26.3978399   62.7776739
  26.396901    62.777176
  26.3954389   62.7764007
  26.3942444   62.7757672
  26.3932935   62.7752629
  26.4055802   62.7677268
  26.3998907   62.7661479
  26.3561825   62.7474048
  26.294187    62.7847996
  26.2742013   62.7967704
  26.2473771   62.8129214
  26.2403411   62.8171432
  26.239722    62.8168467
  26.2395289   62.8166898
  26.2395396   62.816533
  26.2396255   62.8163909
  26.2397435   62.8162781
  26.2397328   62.8161458
  26.2396577   62.8160233
  26.2396147   62.8159301
  26.2343029   62.819853
  26.2323277   62.8193198
  26.2229604   62.8256599
  26.2197492   62.8247299
  26.2107574   62.8306696
  26.1977079   62.8265384
  26.1895497   62.8238332
  26.1633821   62.8399096
  26.1543924   62.8453865
  26.1583556   62.8467707
  26.1557249   62.8481955
  26.1660739   62.8514928
  26.1776165   62.8550936
  26.1789512   62.8554907
  26.1824172   62.8565911
  26.1888148   62.86192
  26.1654055   62.8725259
  26.1467395   62.8757701
  26.1332947   62.8781201
  26.124739    62.8795877
  26.0982044   62.884194
  26.0682559   62.8893981
END
END
