polygon
1
  19.3057153   40.0606217
  19.3058002   40.0606091
  19.3200737   40.0583825
  19.3522999   40.0532021
  19.3576644   40.0520254
  19.3848188   40.0458225
  19.390436    40.0445042
  19.3946026   40.0435568
  19.4082138   40.0404496
  19.4181548   40.0388626
  19.4244432   40.0375693
  19.447434    40.0330733
  19.4475878   40.0330373
  19.4674891   40.034085
  19.5135645   40.0323891
  19.5148945   40.0322463
  19.5216316   40.031512
  19.5221754   40.0314484
  19.5431283   40.0273837
  19.5798292   40.0202353
  19.5843593   40.0192668
  19.5886019   40.0183551
  19.5916142   40.0177013
  19.5976387   40.0163868
  19.6044949   40.0149066
  19.6101528   40.0137033
  19.6102106   40.0136912
  19.61368     40.0129643
  19.6222452   40.0113169
  19.6289513   40.0092056
  19.6480301   39.9990243
  19.6510682   39.9969636
  19.6785746   39.9782283
  19.6814918   39.9764157
  19.6864643   39.9732977
  19.6910688   39.9704238
  19.7024383   39.9631652
  19.7217704   39.948481
  19.7317189   39.9409744
  19.7332047   39.9398474
  19.7393287   39.9351628
  19.7490202   39.9277253
  19.7490747   39.9272148
  19.7491242   39.9267272
  19.7496608   39.9216652
  19.749662    39.9216539
  19.7553088   39.9168091
  19.8029773   39.8968304
  19.8093976   39.8941113
  19.8303034   39.8852883
  19.8363298   39.8827449
  19.8450108   39.8791042
  19.8530821   39.8754489
  19.8548153   39.8745765
  19.8561542   39.8738972
  19.8598785   39.8720268
  19.8665337   39.8687319
  19.8734123   39.8653724
  19.8760718   39.864091
  19.8772188   39.8635327
  19.8773824   39.8634571
  19.8813454   39.8618609
  19.8837978   39.8608853
  19.8927299   39.8583581
  19.8943517   39.8578915
  19.9008751   39.8560768
  19.9031724   39.8554265
  19.9067511   39.8544324
  19.9113151   39.8523611
  19.9145168   39.850919
  19.9240052   39.8441865
  19.9265269   39.8423778
  19.9297457   39.8415232
  19.9320886   39.8407615
  19.9348859   39.8398625
  19.9434541   39.8367343
  19.9435661   39.8366828
  19.9458858   39.8356846
  19.9474721   39.834943
  19.9509582   39.8332989
  19.9511221   39.8332497
  19.9559894   39.8291017
  19.9570108   39.8274579
  19.97634     39.7930774
  19.9737897   39.7806083
  19.9717678   39.7754817
  19.9715643   39.7749852
  19.9701389   39.7718928
  19.9697758   39.7710712
  19.969673    39.7708061
  19.9693593   39.7703994
  19.9689662   39.7692557
  19.9686112   39.7682873
  19.9683176   39.7675362
  19.9680082   39.7668031
  19.967571    39.7658627
  19.9673933   39.7655863
  19.9672429   39.7653538
  19.9672407   39.7653506
  19.9665526   39.7637856
  19.9659368   39.7624818
  19.9659081   39.7624334
  19.9653138   39.7615266
  19.9651225   39.7612684
  19.9642018   39.760407
  19.9639634   39.7601782
  19.9609881   39.7572078
  19.9599383   39.7562154
  19.9596293   39.7549431
  19.9596192   39.754892
  19.9595387   39.7527788
  19.9593308   39.7499698
  19.9589371   39.748495
  19.9584472   39.7464758
  19.958044    39.744971
  19.9585876   39.7431934
  19.9589546   39.7418976
  19.9589555   39.7418896
  19.9590853   39.7401698
  19.9591361   39.7391771
  19.959182    39.7384953
  19.9592347   39.7375177
  19.9594062   39.7350536
  19.9596004   39.7318261
  19.9597894   39.7291541
  19.9600014   39.7270906
  19.9581522   39.7248356
  19.9566359   39.7223613
  19.9563205   39.7220173
  19.9556098   39.7212577
  19.9540078   39.7190645
  19.953611    39.7185379
  19.9523229   39.7167974
  19.9512454   39.7153414
  19.9489767   39.7127925
  19.9477989   39.7115186
  19.9456969   39.7092124
  19.9456264   39.709134
  19.9441283   39.7075376
  19.9440506   39.7074578
  19.942872    39.7062141
  19.9424348   39.7057439
  19.9416345   39.7048619
  19.9415658   39.7047817
  19.9413301   39.7045241
  19.9406857   39.7037438
  19.9376377   39.6993966
  19.9360662   39.6971132
  19.9316431   39.6918166
  19.9285587   39.6867079
  19.9285585   39.6867075
  19.9325429   39.6837395
  19.9455823   39.6741517
  19.9543936   39.6677366
  19.9563267   39.6662386
  19.9636541   39.6604095
  19.9661143   39.6584361
  19.9678598   39.6571712
  19.9798621   39.6483961
  19.9832575   39.6459602
  19.9875737   39.6419446
  19.9892239   39.640394
  20.0231036   39.6179831
  20.0477648   39.5917904
  20.0658473   39.5591144
  20.0847987   39.5364466
  20.1098871   39.5069772
  20.1279802   39.4887703
  20.14894     39.4650325
  20.1598898   39.4435105
  20.1698913   39.4209011
  20.1745605   39.4062993
  20.1797261   39.3926415
  20.2008676   39.3543063
  20.2497468   39.2765035
  20.2654798   39.255655
  20.2850235   39.2360396
  20.3207459   39.2111166
  20.3447874   39.1918232
  20.3664167   39.1698676
  20.393923    39.1388813
  20.4054327   39.0626845
  20.4183059   38.9773635
  20.4171424   38.9768318
  20.4154927   38.9757385
  20.4138039   38.9746418
  20.4122976   38.9736791
  20.4114111   38.9731194
  20.4100983   38.9722998
  20.40922     38.9717576
  20.4078969   38.97095
  20.4070111   38.9704153
  20.4056769   38.9696189
  20.4047837   38.9690918
  20.4034385   38.9683068
  20.4025381   38.9677873
  20.401182    38.9670138
  20.4002744   38.966502
  20.3989077   38.96574
  20.397993    38.9652359
  20.3966158   38.9644857
  20.3956941   38.9639894
  20.3943065   38.9632508
  20.393378    38.9627624
  20.3919802   38.9620357
  20.391045    38.9615552
  20.3896372   38.9608404
  20.3886954   38.9603679
  20.3872777   38.9596651
  20.3863293   38.9592006
  20.384902    38.9585099
  20.3839472   38.9580535
  20.3825092   38.9573744
  20.3815342   38.9569197
  20.379916    38.9561748
  20.3783929   38.9554841
  20.3768893   38.9548149
  20.3752584   38.9540998
  20.3742647   38.9536699
  20.3727902   38.9530403
  20.3718052   38.9526251
  20.3703233   38.9520086
  20.3693325   38.9516018
  20.3678421   38.9509979
  20.3668457   38.9505995
  20.3653471   38.9500083
  20.3643452   38.9496184
  20.3628384   38.94904
  20.3618312   38.9486586
  20.3603164   38.9480931
  20.3593039   38.9477203
  20.3577814   38.9471676
  20.3567638   38.9468035
  20.3552337   38.9462637
  20.3542111   38.9459083
  20.3526736   38.9453816
  20.3516461   38.9450348
  20.3501014   38.9445212
  20.3490692   38.9441832
  20.3475174   38.9436828
  20.3464805   38.9433535
  20.3449218   38.9428663
  20.3438805   38.9425459
  20.3423139   38.9420716
  20.3412557   38.9417564
  20.3395625   38.9412605
  20.3380787   38.9408341
  20.3366538   38.9404385
  20.3342729   38.9397983
  20.3328913   38.9394382
  20.331674    38.9391287
  20.3308273   38.9389078
  20.3291802   38.938486
  20.3280739   38.9382081
  20.3262746   38.937765
  20.3249214   38.937438
  20.323657    38.9371382
  20.3225701   38.9368858
  20.3209177   38.9365097
  20.3198305   38.9362673
  20.3182601   38.9359249
  20.3162445   38.9354961
  20.3148228   38.9352008
  20.3134878   38.9349311
  20.3115096   38.9345435
  20.309528    38.9341678
  20.3081275   38.9339094
  20.3064123   38.933601
  20.3048562   38.9333291
  20.3030458   38.9330233
  20.30109     38.9327053
  20.2988425   38.9323544
  20.2962349   38.9319649
  20.2942593   38.9316831
  20.292216    38.9314073
  20.2903224   38.9311629
  20.2891988   38.9310233
  20.2875383   38.9308242
  20.2864313   38.9306963
  20.2847694   38.9305115
  20.2836607   38.930393
  20.2819964   38.9302224
  20.2808938   38.930114
  20.2795127   38.9299838
  20.2787336   38.9299151
  20.277205    38.9297896
  20.2764401   38.9297314
  20.2733788   38.9295162
  20.2719096   38.9294295
  20.2708431   38.9293713
  20.2700755   38.9293138
  20.2690384   38.9292416
  20.2685196   38.9292075
  20.2664781   38.9290816
  20.2659675   38.9290522
  20.264946    38.9289972
  20.2644164   38.9289708
  20.2631598   38.9289136
  20.262       38.9288655
  20.2601544   38.9287972
  20.2580465   38.9287286
  20.2562135   38.9286783
  20.2553662   38.9286589
  20.254047    38.9286343
  20.2532396   38.9286226
  20.2522003   38.9286122
  20.2507993   38.928605
  20.249774    38.9286063
  20.2483546   38.9286163
  20.2470518   38.9286323
  20.2454706   38.9286582
  20.2433877   38.9287007
  20.2419605   38.9287346
  20.2407378   38.9287671
  20.2401738   38.9287846
  20.2390633   38.9288238
  20.2385083   38.9288457
  20.2374879   38.9288903
  20.2367749   38.9289074
  20.2325938   38.9290405
  20.2315343   38.9290827
  20.2294166   38.9291844
  20.2283402   38.9292449
  20.2274077   38.9293052
  20.225609    38.9294273
  20.2245198   38.9295044
  20.2231561   38.9296075
  20.2211461   38.929771
  20.2161578   38.9302073
  20.2156019   38.9302584
  20.2145098   38.9303635
  20.213964    38.9304183
  20.2118086   38.930644
  20.2112561   38.9307042
  20.2101519   38.9308294
  20.209582    38.9308965
  20.2069224   38.9312224
  20.2048246   38.9314925
  20.2031383   38.9317215
  20.2011976   38.9319995
  20.1987031   38.9323721
  20.197151    38.9326137
  20.1948513   38.9329861
  20.1933037   38.9332465
  20.1908253   38.9336792
  20.188946    38.9340187
  20.1871185   38.9343599
  20.185363    38.9346981
  20.183069    38.9351531
  20.1816419   38.9354448
  20.1795305   38.935889
  20.1781266   38.9361927
  20.176025    38.9366599
  20.1746268   38.9369791
  20.1725339   38.9374695
  20.1711339   38.937806
  20.168917    38.9383533
  20.1670077   38.9388399
  20.1641401   38.9395951
  20.1622262   38.9401155
  20.1585692   38.941142
  20.1569462   38.941612
  20.1544805   38.9423447
  20.1528476   38.9428424
  20.1511392   38.9433755
  20.1500933   38.9437076
  20.1485415   38.944208
  20.1475093   38.944546
  20.1459645   38.9450596
  20.1449371   38.9454064
  20.1433995   38.9459331
  20.1423769   38.9462885
  20.1408468   38.9468283
  20.1398292   38.9471924
  20.1383067   38.9477451
  20.1372943   38.9481178
  20.1357795   38.9486834
  20.1347723   38.9490648
  20.1332655   38.9496432
  20.1322636   38.9500331
  20.1307649   38.9506243
  20.1297685   38.9510227
  20.1282782   38.9516265
  20.1272874   38.9520334
  20.1258055   38.9526499
  20.1248204   38.9530651
  20.123346    38.9536947
  20.1223534   38.9541241
  20.1207456   38.9548289
  20.1193055   38.9554693
  20.1180638   38.9560321
  20.1162478   38.9568698
  20.1137463   38.9580444
  20.1130105   38.9583946
  20.1115599   38.9590953
  20.10893     38.9603909
  20.1071732   38.9612759
  20.1045555   38.9626241
  20.1028221   38.9635367
  20.10024     38.9649262
  20.0985306   38.9658661
  20.0959851   38.9672963
  20.0943123   38.9682562
  20.0921059   38.9695475
  20.091405    38.9699632
  20.0902609   38.9706497
  20.0895776   38.9710645
  20.0889295   38.9714621
  20.0880097   38.9720219
  20.0866726   38.9728474
  20.0845691   38.9741676
  20.0835251   38.9748321
  20.0817434   38.9759825
  20.0806574   38.976696
  20.0797021   38.9772236
  20.0790588   38.9775481
  20.0772034   38.9785231
  20.0738803   38.980143
  20.0730679   38.9805706
  20.0716799   38.9813091
  20.070758    38.9818054
  20.0693805   38.9825557
  20.0684656   38.9830598
  20.0671098   38.9838153
  20.0664399   38.9841923
  20.0648444   38.9851281
  20.0620169   38.9868524
  20.0611324   38.9873599
  20.0605589   38.9876922
  20.0597203   38.9881858
  20.0588091   38.9887298
  20.0581056   38.9891557
  20.0570038   38.9898273
  20.056304    38.9902565
  20.0550742   38.9910158
  20.0544877   38.9913836
  20.0533333   38.9921182
  20.0527546   38.9924921
  20.0518325   38.9930977
  20.0511353   38.9935641
  20.0496094   38.9946041
  20.0483884   38.9954469
  20.0477204   38.9959104
  20.0471375   38.996319
  20.0466996   38.9966234
  20.0454712   38.9974451
  20.043418    38.9988619
  20.0423743   38.9996023
  20.0407529   39.000786
  20.0387408   39.0022833
  20.0367352   39.0038084
  20.034751    39.0053505
  20.0327883   39.0069093
  20.0308475   39.0084847
  20.0289287   39.0100765
  20.0270322   39.0116845
  20.0251588   39.0133079
  20.0233184   39.0149379
  20.0222709   39.0159363
  20.0217068   39.0163355
  20.0212597   39.0166554
  20.0200481   39.0171851
  20.0185553   39.0180103
  20.0178184   39.0184073
  20.015753    39.0195083
  20.014388    39.0202486
  20.0123539   39.021371
  20.0110056   39.0221278
  20.0089949   39.0232757
  20.0076624   39.0240493
  20.0056756   39.0252223
  20.0043592   39.0260127
  20.0023969   39.0272105
  20.0011011   39.0280147
  19.9992547   39.0291789
  19.9983177   39.0297773
  19.9967546   39.0307882
  19.995777    39.0314303
  19.9942397   39.0324528
  19.9933122   39.0330773
  19.9920263   39.0339533
  19.9911854   39.0345327
  19.9899278   39.0354086
  19.9890475   39.0360289
  19.9873958   39.0372089
  19.9853956   39.038665
  19.9833703   39.0401712
  19.9813636   39.0416962
  19.980059    39.0427079
  19.9794281   39.0431064
  19.9777798   39.0441601
  19.9758985   39.0453843
  19.9740193   39.046631
  19.9730541   39.0472804
  19.9717651   39.0481584
  19.970924    39.0487377
  19.9696662   39.0496136
  19.9687857   39.050234
  19.9671336   39.0514139
  19.9651331   39.05287
  19.9631073   39.0543762
  19.9611002   39.0559013
  19.9591145   39.0574433
  19.9571504   39.0590021
  19.9552081   39.0605775
  19.9532879   39.0621692
  19.95139     39.0637772
  19.9495153   39.0654007
  19.9476735   39.0670306
  19.945914    39.0686212
  19.9442823   39.0701268
  19.94271     39.071607
  19.9418633   39.0724159
  19.9404409   39.0737957
  19.9387457   39.0754726
  19.9370362   39.0772011
  19.9353488   39.0789461
  19.9336859   39.0807053
  19.9320476   39.0824786
  19.9304342   39.0842656
  19.9288458   39.0860663
  19.9272826   39.0878803
  19.9257448   39.0897074
  19.9242325   39.0915476
  19.9227466   39.0933998
  19.9212946   39.095254
  19.9199147   39.0970586
  19.9186736   39.098719
  19.9174216   39.1004329
  19.9167698   39.1013406
  19.9156995   39.1028569
  19.9145668   39.1044955
  19.9137429   39.1057074
  19.9120938   39.1080902
  19.9113369   39.1092043
  19.9101094   39.1110486
  19.9090384   39.1127017
  19.9084575   39.1135668
  19.9070101   39.1153697
  19.9058231   39.1168796
  19.9051468   39.1177544
  19.9040688   39.1191694
  19.903288    39.1202119
  19.9020988   39.1218325
  19.9013875   39.1228188
  19.8998974   39.1249215
  19.8988665   39.1264117
  19.8973448   39.1286679
  19.8963508   39.1301804
  19.8948907   39.1324612
  19.893938    39.1339897
  19.8925401   39.136294
  19.8916291   39.1378379
  19.8902942   39.1401648
  19.8894254   39.1417234
  19.888153    39.1440736
  19.8873164   39.1456663
  19.8860079   39.1482369
  19.8850344   39.1502085
  19.8842352   39.1518769
  19.8835781   39.1532866
  19.8827279   39.1551586
  19.8818291   39.1572029
  19.8809493   39.1592767
  19.880098    39.1613588
  19.879276    39.1634481
  19.8784832   39.1655443
  19.8777198   39.167647
  19.8769858   39.1697561
  19.8762814   39.1718713
  19.8756066   39.1739923
  19.8749616   39.1761189
  19.8743464   39.1782509
  19.8737612   39.1803873
  19.8732089   39.1825165
  19.872702    39.1845833
  19.8722385   39.1865858
  19.8717315   39.1889277
  19.8712866   39.1911326
  19.8708803   39.1933027
  19.8705059   39.1954687
  19.8701619   39.1976374
  19.8698482   39.1998088
  19.8695651   39.2019828
  19.8693124   39.204159
  19.8690902   39.2063372
  19.8688986   39.2085172
  19.8687375   39.2106987
  19.868607    39.212882
  19.8685068   39.2150758
  19.8684642   39.2163859
  19.867332    39.2165025
  19.8658512   39.2166628
  19.863643    39.2169145
  19.8621648   39.2170916
  19.8602988   39.2173255
  19.8588843   39.2175093
  19.8569393   39.2177717
  19.8547883   39.2180765
  19.8528605   39.2183623
  19.8510582   39.2186403
  19.8491989   39.2189379
  19.8472679   39.2192593
  19.846044    39.2194699
  19.8436615   39.2198734
  19.8422934   39.2201147
  19.8400178   39.220533
  19.8386479   39.2207951
  19.8370604   39.2211104
  19.8359808   39.2213299
  19.8343524   39.2216683
  19.8332684   39.2218985
  19.8316448   39.2222506
  19.8305641   39.22249
  19.8289455   39.2228558
  19.8278681   39.2231043
  19.8262548   39.2234838
  19.825181    39.2237414
  19.823573    39.2241346
  19.8225028   39.2244012
  19.8209004   39.224808
  19.819834    39.2250837
  19.8182361   39.2255043
  19.8171582   39.2257932
  19.8153899   39.226276
  19.8137712   39.2267269
  19.8120943   39.2272061
  19.8103256   39.2277216
  19.8093923   39.2279981
  19.8073535   39.2287033
  19.8054661   39.2292864
  19.8045131   39.2295586
  19.8027286   39.2300978
  19.8018915   39.2303648
  19.8004142   39.2308397
  19.799521    39.2311304
  19.7982494   39.2315604
  19.7968685   39.2320448
  19.7959462   39.2323717
  19.7953717   39.2325767
  19.7940015   39.2330847
  19.7931924   39.2333962
  19.7926435   39.2336088
  19.7919445   39.2338225
  19.7895371   39.2346716
  19.7886524   39.2350055
  19.7871395   39.2355839
  19.7861336   39.2359737
  19.7846288   39.2365649
  19.7836284   39.2369632
  19.782132    39.2375671
  19.7811372   39.2379739
  19.7796493   39.2385903
  19.7786602   39.2390055
  19.7771798   39.2396351
  19.776182    39.2400649
  19.7745444   39.24078
  19.7730342   39.2414494
  19.7715055   39.2421399
  19.7698808   39.2428846
  19.7689018   39.2433393
  19.767458    39.2440183
  19.7664994   39.2444747
  19.7650662   39.2451653
  19.764114    39.2456298
  19.7626906   39.2463325
  19.7617449   39.246805
  19.7603314   39.2475198
  19.7593924   39.2480002
  19.7579889   39.2487269
  19.7570566   39.2492153
  19.7556634   39.2499538
  19.754738    39.25045
  19.7533552   39.2512003
  19.7524368   39.2517043
  19.7510645   39.2524662
  19.7501532   39.252978
  19.7487916   39.2537514
  19.7478875   39.2542709
  19.7465369   39.2550558
  19.7456401   39.2555829
  19.7443004   39.2563792
  19.7434111   39.2569139
  19.7420826   39.2577215
  19.7412008   39.2582636
  19.7398826   39.2590831
  19.7389926   39.2596427
  19.7374833   39.2606033
  19.7358549   39.2616559
  19.7341982   39.2627484
  19.7321795   39.2641019
  19.7309385   39.2649477
  19.7291119   39.266213
  19.7279036   39.2670633
  19.7261041   39.2683499
  19.7249132   39.2692149
  19.72314     39.2705234
  19.7219668   39.2714029
  19.7202203   39.2727329
  19.7190651   39.2736268
  19.7173444   39.2749791
  19.7161932   39.2758986
  19.7143622   39.2773847
  19.7129921   39.2785137
  19.7117677   39.2795376
  19.7107183   39.2804265
  19.7093664   39.2815853
  19.7085299   39.2823111
  19.707296    39.2833951
  19.7064494   39.2841482
  19.7049345   39.285515
  19.7032361   39.2870763
  19.7016459   39.2885683
  19.7007945   39.289379
  19.6993675   39.290759
  19.6976671   39.2924357
  19.6959523   39.2941642
  19.6942597   39.2959091
  19.6925916   39.2976683
  19.6909482   39.2994414
  19.6893298   39.3012284
  19.6877364   39.3030289
  19.6861684   39.3048428
  19.6846258   39.3066699
  19.6831089   39.3085099
  19.6816183   39.3103621
  19.6801618   39.3122162
  19.6787776   39.3140207
  19.6775323   39.3156815
  19.6762767   39.317395
  19.6756212   39.3183049
  19.6745235   39.3198559
  19.6732224   39.3217363
  19.6719187   39.3236696
  19.6706405   39.3256161
  19.6693898   39.3275733
  19.6682648   39.3293806
  19.6678344   39.3298015
  19.6670162   39.3305806
  19.6655909   39.3319581
  19.6638895   39.3336348
  19.6621736   39.3353633
  19.6604801   39.3371082
  19.658811    39.3388673
  19.6571667   39.3406404
  19.6555472   39.3424274
  19.6539529   39.3442279
  19.652384    39.3460418
  19.6508405   39.3478689
  19.6493226   39.3497089
  19.6478312   39.351561
  19.6463738   39.3534151
  19.6449888   39.3552196
  19.6437427   39.3568805
  19.6424864   39.3585938
  19.6418305   39.3595038
  19.6407322   39.3610547
  19.6394303   39.3629351
  19.6381258   39.3648684
  19.6368469   39.3668149
  19.6355954   39.3687721
  19.6343714   39.3707398
  19.633175    39.3727177
  19.6320065   39.3747056
  19.6308659   39.3767033
  19.6297533   39.3787105
  19.628669    39.3807269
  19.6276134   39.3827518
  19.6265918   39.384774
  19.625629    39.3867408
  19.6247245   39.3886478
  19.623699    39.3908879
  19.6227662   39.3929995
  19.6218796   39.3950817
  19.6210253   39.3971642
  19.6202004   39.3992534
  19.6194049   39.4013494
  19.6187139   39.4032415
  19.6184825   39.4038391
  19.6181911   39.4043406
  19.6172992   39.4060823
  19.6165484   39.4072593
  19.6159695   39.4081755
  19.6154574   39.4090536
  19.6147595   39.4102679
  19.6137649   39.4121361
  19.6131734   39.4133707
  19.6121197   39.415192
  19.6114689   39.416469
  19.6103563   39.4187136
  19.6091782   39.4211764
  19.6081132   39.4234981
  19.6071743   39.4256222
  19.6062869   39.4277051
  19.6054322   39.4297875
  19.6046069   39.4318767
  19.603811    39.4339727
  19.6030456   39.4360725
  19.6024764   39.4376963
  19.6021555   39.438564
  19.6014928   39.440373
  19.6010362   39.4416583
  19.6003721   39.4435901
  19.5999432   39.4448807
  19.5993207   39.4468208
  19.598917    39.4481251
  19.5982957   39.4502149
  19.5977706   39.4520771
  19.5970223   39.4548904
  19.5968218   39.4555848
  19.5952891   39.4567221
  19.5933183   39.4582117
  19.5913236   39.4597517
  19.5895446   39.4611537
  19.589089    39.4615176
  19.5884719   39.4618826
  19.587565    39.462402
  19.5862103   39.4631869
  19.5853109   39.463714
  19.5839672   39.4645102
  19.5830752   39.4650448
  19.5817428   39.4658524
  19.5808583   39.4663945
  19.5795346   39.467215
  19.5786205   39.4677881
  19.5769622   39.4688418
  19.5750687   39.4700663
  19.5731787   39.4713125
  19.5722078   39.4719617
  19.5709109   39.4728396
  19.5700647   39.4734189
  19.568803    39.4742921
  19.5679659   39.4748778
  19.5667165   39.4757616
  19.5658877   39.4763544
  19.5646471   39.4772513
  19.5637788   39.4778864
  19.5621502   39.479094
  19.5601788   39.4805835
  19.5581834   39.4821236
  19.5562074   39.4836822
  19.5542537   39.485257
  19.5523418   39.4868318
  19.5507633   39.488157
  19.5495812   39.489152
  19.5487038   39.4898985
  19.5471734   39.4912199
  19.5453632   39.4928128
  19.5435951   39.4944013
  19.5419528   39.4959074
  19.5403714   39.4973868
  19.5395197   39.4981955
  19.5380886   39.4995752
  19.536383    39.5012519
  19.534663    39.5029803
  19.5329654   39.5047251
  19.5312923   39.5064842
  19.5296439   39.5082572
  19.5280206   39.5100441
  19.5264224   39.5118446
  19.5248497   39.5136584
  19.5233024   39.5154854
  19.5220108   39.5169767
  19.5211057   39.517483
  19.519739    39.5182564
  19.5188314   39.5187759
  19.5174756   39.5195607
  19.5165754   39.5200878
  19.5152307   39.5208841
  19.514338    39.5214187
  19.5130045   39.5222262
  19.5121193   39.5227683
  19.5107944   39.5235888
  19.5098796   39.524162
  19.50822     39.5252156
  19.5063249   39.5264401
  19.5044334   39.5276862
  19.5034617   39.5283355
  19.5021638   39.5292133
  19.5013169   39.5297926
  19.5000541   39.5306658
  19.4992164   39.5312515
  19.497966    39.5321353
  19.4971365   39.5327281
  19.4958949   39.533625
  19.4950259   39.5342601
  19.493396    39.5354676
  19.491423    39.5369572
  19.489426    39.5384972
  19.4874483   39.5400558
  19.4855064   39.5416196
  19.4839712   39.5428799
  19.481875    39.5447229
  19.4802212   39.5461447
  19.4784843   39.5476252
  19.4769473   39.5489584
  19.4764656   39.5493809
  19.4756566   39.5501088
  19.475118    39.5506135
  19.474071    39.5516112
  19.473699    39.5519699
  19.4725894   39.5530465
  19.4714824   39.5540337
  19.4704682   39.5549985
  19.4689164   39.5565243
  19.467195    39.5582527
  19.465496    39.5599975
  19.4639184   39.5616536
  19.4623631   39.5620082
  19.4612676   39.56222
  19.4596266   39.5625446
  19.4585341   39.5627655
  19.4568977   39.5631039
  19.4558084   39.5633341
  19.4541769   39.5636862
  19.4530909   39.5639255
  19.4514644   39.5642913
  19.4503818   39.5645398
  19.4487605   39.5649193
  19.4476815   39.5651768
  19.4460656   39.56557
  19.4449902   39.5658366
  19.44338     39.5662433
  19.4423084   39.566519
  19.4407026   39.5669396
  19.4396194   39.5672285
  19.4378424   39.5677112
  19.4362154   39.5681622
  19.4345307   39.5686412
  19.4327534   39.5691567
  19.4316826   39.5694727
  19.4301021   39.5699469
  19.4290514   39.5702673
  19.4274787   39.5707544
  19.4264326   39.5710836
  19.4248669   39.5715839
  19.4238254   39.5719219
  19.4222668   39.5724354
  19.4212301   39.5727821
  19.4196788   39.5733087
  19.4186471   39.5736641
  19.4171032   39.5742037
  19.4160765   39.5745678
  19.4145403   39.5751204
  19.4135188   39.5754931
  19.4119905   39.5760586
  19.4109742   39.5764399
  19.4094539   39.5770182
  19.408443    39.5774081
  19.4069309   39.5779991
  19.4059256   39.5783975
  19.4044218   39.5790012
  19.4034222   39.579408
  19.401927    39.5800244
  19.4009331   39.5804395
  19.3994454   39.581069
  19.3984407   39.5814998
  19.3967582   39.5822311
  19.3950604   39.5829812
  19.3934219   39.58372
  19.3915252   39.5845893
  19.3903622   39.5851304
  19.3886455   39.5859411
  19.3875064   39.5864869
  19.3858046   39.587314
  19.3846747   39.5878711
  19.3829868   39.5887152
  19.3818663   39.5892835
  19.3801926   39.5901444
  19.3790816   39.5907238
  19.3774202   39.5916024
  19.3762948   39.5922061
  19.3744328   39.5932196
  19.373961    39.5934795
  19.3729964   39.5938775
  19.3719535   39.5943137
  19.3703559   39.5949919
  19.3687233   39.5956963
  19.3674478   39.5962545
  19.365929    39.5969285
  19.3640572   39.5977744
  19.3623662   39.5985525
  19.3608207   39.5992756
  19.3591829   39.6000543
  19.3575511   39.6008431
  19.356036    39.6015872
  19.3544713   39.6023675
  19.3530474   39.6030882
  19.3517847   39.6037359
  19.3508894   39.604201
  19.349713    39.604804
  19.3492145   39.6050627
  19.3472139   39.6061142
  19.3467156   39.6063793
  19.3457232   39.606914
  19.3452163   39.6071907
  19.3440737   39.6078225
  19.3431641   39.6083307
  19.3417956   39.6091041
  19.3408869   39.6096235
  19.3395293   39.6104084
  19.3386279   39.6109354
  19.3372814   39.6117317
  19.3363875   39.6122663
  19.3350523   39.6130738
  19.3341659   39.6136159
  19.3328393   39.6144363
  19.3319233   39.6150095
  19.3302615   39.6160631
  19.3283638   39.6172877
  19.3264699   39.6185337
  19.325497    39.6191829
  19.3241974   39.6200608
  19.3233493   39.62064
  19.3220849   39.6215132
  19.3212461   39.6220989
  19.319994    39.6229827
  19.3191635   39.6235754
  19.3179203   39.6244723
  19.3170501   39.6251074
  19.3154181   39.6263149
  19.3134424   39.6278044
  19.3114428   39.6293444
  19.3094626   39.630903
  19.3075043   39.6324781
  19.3055683   39.6340697
  19.3036548   39.6356774
  19.3017646   39.6373007
  19.2999077   39.6389304
  19.2981336   39.6405208
  19.2964876   39.6420271
  19.2949031   39.6435063
  19.2940495   39.6443149
  19.2926154   39.6456946
  19.2909063   39.6473712
  19.2891826   39.6490995
  19.2879445   39.6503673
  19.2866057   39.6507949
  19.285563    39.6511329
  19.2840026   39.6516464
  19.2829648   39.6519931
  19.2814117   39.6525197
  19.2803788   39.6528751
  19.2788332   39.6534147
  19.2778053   39.6537788
  19.2762674   39.6543314
  19.2752447   39.6547041
  19.2737146   39.6552695
  19.2726972   39.6556508
  19.2711751   39.6562291
  19.2701631   39.656619
  19.2686492   39.65721
  19.2676428   39.6576083
  19.2661373   39.6582121
  19.2651365   39.6586188
  19.2636396   39.6592353
  19.2626446   39.6596504
  19.2611552   39.6602799
  19.2601514   39.6607097
  19.2585037   39.6614248
  19.2569836   39.6620945
  19.2554464   39.6627845
  19.253812    39.6635291
  19.2528271   39.6639837
  19.2513746   39.6646626
  19.2504178   39.6651153
  19.249195    39.6656511
  19.2476748   39.6663208
  19.2461375   39.6670108
  19.244503    39.6677554
  19.243518    39.66821
  19.2420654   39.6688889
  19.2411009   39.6693453
  19.239659    39.6700359
  19.238701    39.6705003
  19.2372688   39.6712029
  19.2363174   39.6716754
  19.2348952   39.67239
  19.2339505   39.6728705
  19.2325384   39.673597
  19.2316005   39.6740854
  19.2301987   39.6748238
  19.2292677   39.67532
  19.2278764   39.6760701
  19.2269524   39.6765741
  19.2255717   39.6773359
  19.2246548   39.6778476
  19.2232849   39.678621
  19.2223753   39.6791404
  19.2210163   39.6799253
  19.2201141   39.6804523
  19.2187662   39.6812485
  19.2178714   39.6817831
  19.2165348   39.6825906
  19.2156476   39.6831327
  19.2143178   39.6840435
  19.2134648   39.6845421
  19.2120087   39.6854602
  19.210736    39.6862403
  19.2097756   39.6868488
  19.2084067   39.6877839
  19.2064416   39.689143
  19.206019    39.6894614
  19.2044775   39.6903914
  19.2009543   39.6928272
  19.1992853   39.6940012
  19.1971095   39.6955581
  19.1957646   39.696538
  19.1937877   39.6980042
  19.192482    39.6989898
  19.1905402   39.7004814
  19.189257    39.7014846
  19.1873494   39.7030023
  19.1860978   39.7040156
  19.1844337   39.7053852
  19.1838155   39.7059004
  19.1828059   39.7067518
  19.1822039   39.7072653
  19.1804088   39.7088146
  19.1798091   39.7093382
  19.1788144   39.7102169
  19.1782059   39.7107609
  19.1756174   39.7131053
  19.1742887   39.7143347
  19.1725027   39.7160203
  19.1712923   39.7171846
  19.1697783   39.7186706
  19.1680852   39.7203673
  19.1663842   39.72211
  19.1647058   39.723869
  19.1630523   39.7256419
  19.1614238   39.7274287
  19.1598206   39.7292291
  19.1582429   39.7310428
  19.1566908   39.7328697
  19.1551644   39.7347096
  19.1536747   39.7365488
  19.1525033   39.7380263
  19.1521702   39.7384529
  19.1515523   39.7392556
  19.1512333   39.7396757
  19.150482    39.7407145
  19.1498081   39.7416796
  19.1493587   39.742265
  19.1489423   39.742807
  19.1480003   39.7440487
  19.1476095   39.744576
  19.1468137   39.7456697
  19.1464184   39.7462231
  19.1456165   39.747367
  19.1453158   39.7478023
  19.1447215   39.7486756
  19.1444278   39.7491137
  19.1436672   39.7502654
  19.1429064   39.751416
  19.1422678   39.7524158
  19.1410268   39.7544286
  19.1406439   39.7550727
  19.1396894   39.7565146
  19.1386717   39.7581414
  19.1377428   39.7597184
  19.1366041   39.7617017
  19.1354854   39.7637087
  19.1343949   39.765725
  19.1333333   39.7677497
  19.132306    39.7697718
  19.1313377   39.7717384
  19.1304277   39.7736462
  19.1293968   39.7758852
  19.1284588   39.7779966
  19.1275672   39.7800787
  19.126708    39.782161
  19.1258784   39.78425
  19.1250784   39.7863459
  19.1243835   39.7882378
  19.1233629   39.7914748
  19.1228357   39.7929168
  19.1224446   39.7940472
  19.1222067   39.794779
  19.1216999   39.7963712
  19.1213886   39.7974097
  19.1209028   39.7991343
  19.1205263   39.8006027
  19.120115    39.8023791
  19.1192165   39.8054948
  19.1189742   39.8065218
  19.1187053   39.8075881
  19.1182419   39.8094673
  19.1177751   39.8114655
  19.1172637   39.8138057
  19.1168146   39.8160102
  19.1164045   39.81818
  19.1160266   39.8203458
  19.1156793   39.8225141
  19.1153627   39.8246853
  19.1150768   39.826859
  19.1148216   39.829035
  19.1145973   39.831213
  19.1144037   39.8333927
  19.114241    39.835574
  19.1141316   39.8373601
  19.1139378   39.8388548
  19.1136847   39.8410152
  19.1134603   39.8431932
  19.1132667   39.8453729
  19.113104    39.8475542
  19.1129721   39.8497366
  19.1128712   39.8519195
  19.1128013   39.8540938
  19.1127623   39.8562274
  19.1127535   39.8583535
  19.1127836   39.8610461
  19.1128374   39.8632131
  19.1129122   39.8651698
  19.1130372   39.8676391
  19.1131341   39.86917
  19.1133059   39.8714376
  19.1134389   39.8729473
  19.113666    39.8752102
  19.113836    39.8767177
  19.1141186   39.8789769
  19.114324    39.8804712
  19.1146228   39.8824767
  19.1147443   39.8832451
  19.1149547   39.8845074
  19.1150872   39.8852641
  19.1155034   39.8875329
  19.1156493   39.8882928
  19.1159032   39.8895597
  19.1160654   39.8903352
  19.1167895   39.8936502
  19.1172196   39.8954859
  19.117839    39.8979696
  19.1182752   39.899624
  19.1187794   39.9014426
  19.1191473   39.9027248
  19.1195543   39.904099
  19.120003    39.9055649
  19.1206144   39.9074978
  19.1210078   39.9087005
  19.1216089   39.9104799
  19.1220211   39.9116628
  19.1226571   39.9134335
  19.1230928   39.9146115
  19.1237638   39.9163745
  19.1242252   39.9175529
  19.1249734   39.9194093
  19.1256259   39.9209735
  19.1266237   39.923285
  19.1272484   39.924688
  19.1281963   39.9267585
  19.1288299   39.9281552
  19.1297824   39.930194
  19.1307556   39.932208
  19.1312714   39.9332505
  19.1319781   39.9346499
  19.1324492   39.9355656
  19.1331659   39.9369342
  19.133651    39.9378442
  19.1343895   39.9392059
  19.134889    39.9401113
  19.1356493   39.9414659
  19.1361633   39.9423665
  19.1369457   39.9437148
  19.1374809   39.9446218
  19.1383522   39.9460741
  19.1390399   39.9472021
  19.1398898   39.9485713
  19.1409588   39.9502557
  19.1425422   39.9526916
  19.1436964   39.9544243
  19.1444783   39.9555728
  19.1456708   39.9572874
  19.1471914   39.9594261
  19.1478361   39.9603177
  19.1487773   39.9615999
  19.1494526   39.9625052
  19.1509027   39.9644093
  19.1522229   39.9661048
  19.153994    39.9683278
  19.1551609   39.9697627
  19.1559983   39.970854
  19.1566842   39.9717402
  19.1578757   39.9732538
  19.1593355   39.975069
  19.1608537   39.9769123
  19.1623998   39.9787449
  19.1639718   39.9805644
  19.1655697   39.9823706
  19.1671931   39.9841633
  19.168842    39.9859422
  19.1705161   39.9877072
  19.1722152   39.9894579
  19.1739391   39.9911943
  19.175687    39.9929156
  19.1774493   39.9946125
  19.1791758   39.9962394
  19.1808171   39.9977543
  19.1824344   39.9992173
  19.1833209   40.0000075
  19.1848373   40.0013388
  19.186686    40.0029309
  19.1885985   40.0045429
  19.1905362   40.0061407
  19.1924965   40.0077221
  19.1944768   40.0092851
  19.1964342   40.0107972
  19.1980517   40.0120234
  19.1989143   40.0126684
  19.2001471   40.0135795
  19.2009708   40.0141816
  19.2022128   40.0150796
  19.203045    40.0156748
  19.2042997   40.0165623
  19.2051404   40.0171505
  19.2064077   40.0180274
  19.2072567   40.0186085
  19.2085391   40.0194765
  19.2094331   40.0200747
  19.2110729   40.0211576
  19.2129728   40.0223903
  19.2148994   40.0236161
  19.215901    40.0242444
  19.2172525   40.0250816
  19.2181427   40.0256268
  19.2194822   40.026438
  19.220379    40.026975
  19.22173     40.0277749
  19.2226344   40.0283043
  19.2239967   40.0290928
  19.2249086   40.0296146
  19.2262821   40.0303915
  19.2272014   40.0309057
  19.2285858   40.031671
  19.2295124   40.0321774
  19.2309077   40.0329311
  19.2318414   40.0334296
  19.2332473   40.0341715
  19.2341881   40.0346622
  19.2356046   40.0353922
  19.2365523   40.035875
  19.237979    40.0365931
  19.2389336   40.0370678
  19.2403705   40.0377739
  19.2413318   40.0382405
  19.2427787   40.0389345
  19.2437466   40.0393931
  19.2452045   40.0400754
  19.2461934   40.0405324
  19.2478274   40.0412778
  19.2493464   40.0419606
  19.2508964   40.0426442
  19.2525571   40.0433658
  19.2535645   40.0437976
  19.2550598   40.0444303
  19.2560589   40.0448475
  19.257562    40.045467
  19.2585671   40.0458758
  19.2600789   40.0464827
  19.2610897   40.046883
  19.2626101   40.0474771
  19.2636266   40.0478689
  19.2651554   40.0484502
  19.2661773   40.0488335
  19.2677143   40.0494019
  19.2687417   40.0497765
  19.2702868   40.050332
  19.2713194   40.050698
  19.2728723   40.0512404
  19.2739101   40.0515977
  19.2754706   40.0521271
  19.2765135   40.0524756
  19.2780814   40.0529918
  19.2791292   40.0533316
  19.2807044   40.0538346
  19.281757    40.0541655
  19.2833393   40.0546552
  19.2843965   40.0549773
  19.2859871   40.055454
  19.2870643   40.0557717
  19.2888391   40.056286
  19.2904719   40.0567501
  19.2921718   40.0572211
  19.2939741   40.0577103
  19.2950646   40.0580008
  19.2966807   40.0584236
  19.2977593   40.0587008
  19.2993801   40.0591097
  19.3004626   40.0593778
  19.3020892   40.0597731
  19.3031754   40.060032
  19.3048075   40.0604136
  19.3057153   40.0606217
END
2
  20.2866242   38.5366316
  20.2865118   38.5380631
  20.2862013   38.5402348
  20.2859209   38.542409
  20.2856707   38.5445855
  20.2854508   38.546764
  20.2852611   38.5489442
  20.2851017   38.551126
  20.2849726   38.5533089
  20.2848738   38.5554922
  20.2848056   38.5576639
  20.2847679   38.559768
  20.2847584   38.5618024
  20.2847815   38.564178
  20.284835    38.5664099
  20.2849185   38.5686021
  20.2850323   38.5707861
  20.2851763   38.5729685
  20.2853507   38.5751495
  20.2855553   38.5773289
  20.2857903   38.5795064
  20.2860555   38.5816818
  20.286351    38.5838548
  20.2865319   38.5852199
  20.286522    38.5872537
  20.2865451   38.5896391
  20.2865986   38.5918724
  20.2866822   38.5940647
  20.2867959   38.5962486
  20.28694     38.598431
  20.2871145   38.600612
  20.2873192   38.6027914
  20.2875542   38.604969
  20.2878195   38.6071443
  20.2881151   38.6093173
  20.2884409   38.6114876
  20.2887968   38.613655
  20.2891827   38.6158185
  20.2895963   38.6179665
  20.2900248   38.6200437
  20.2904657   38.6220475
  20.2910147   38.6243847
  20.2915615   38.6265754
  20.2920176   38.6283745
  20.2921052   38.6289364
  20.2924271   38.6308869
  20.2928131   38.6330505
  20.2932267   38.6351984
  20.2933562   38.6358326
  20.2925311   38.6379153
  20.2919215   38.639509
  20.291039    38.6419069
  20.2904717   38.6435103
  20.2896527   38.645922
  20.2891315   38.647523
  20.2884604   38.6496706
  20.2882249   38.6504484
  20.287849    38.6517279
  20.2876298   38.6524969
  20.2869912   38.6548086
  20.2867819   38.6555913
  20.2864432   38.6569014
  20.2862397   38.6577173
  20.2853991   38.661226
  20.2850339   38.6628532
  20.2845589   38.6651078
  20.2842524   38.6666578
  20.2839037   38.6685483
  20.2835398   38.670673
  20.2831989   38.6728392
  20.2828877   38.6750109
  20.2826068   38.677185
  20.2823561   38.6793615
  20.2821357   38.6815399
  20.2819456   38.6837201
  20.2817859   38.6859018
  20.2816565   38.6880847
  20.2815575   38.6902679
  20.2814892   38.6924396
  20.2814513   38.6945436
  20.2814418   38.6965783
  20.2814649   38.6989536
  20.2815184   38.7011854
  20.2816021   38.7033776
  20.281716    38.7055614
  20.2818603   38.7077438
  20.2820349   38.7099248
  20.28224     38.7121041
  20.2824753   38.7142816
  20.282741    38.716457
  20.283037    38.7186299
  20.2833632   38.7208002
  20.2837197   38.7229675
  20.2841062   38.725131
  20.2845203   38.727279
  20.2849495   38.7293561
  20.285391    38.7313601
  20.2859408   38.733697
  20.2864884   38.7358877
  20.2870571   38.7380352
  20.2876536   38.7401704
  20.2882798   38.7422999
  20.2889357   38.7444239
  20.2896212   38.7465422
  20.2903361   38.7486546
  20.2910805   38.7507606
  20.2918542   38.7528602
  20.2926572   38.7549531
  20.2934893   38.7570389
  20.2943502   38.7591169
  20.2952349   38.7611758
  20.2961187   38.7631627
  20.2969972   38.7650733
  20.2980587   38.7673024
  20.2990848   38.7693856
  20.3001217   38.7714231
  20.3011835   38.7734445
  20.3022733   38.7754564
  20.303391    38.7774588
  20.3045367   38.7794516
  20.3057102   38.7814344
  20.3069112   38.7834071
  20.3081398   38.7853694
  20.3093957   38.7873211
  20.3106788   38.7892619
  20.3119885   38.7911911
  20.3133174   38.7930981
  20.3146275   38.7949318
  20.3158464   38.7965984
  20.3171207   38.7983012
  20.3178028   38.7991974
  20.3189748   38.8007114
  20.3204106   38.8025268
  20.3219038   38.8043703
  20.3234244   38.8062032
  20.3249706   38.808023
  20.3265422   38.8098294
  20.3281389   38.8116224
  20.3297606   38.8134015
  20.3314071   38.8151667
  20.3330782   38.8169177
  20.3347737   38.8186543
  20.3364928   38.8203758
  20.338226    38.8220729
  20.3399239   38.8237
  20.3415363   38.8252133
  20.3431285   38.826678
  20.3440006   38.8274686
  20.345492    38.8288001
  20.3473102   38.8303924
  20.3491912   38.8320046
  20.3510968   38.8336026
  20.3530247   38.8351841
  20.3536811   38.8357845
  20.3538686   38.8363054
  20.3545672   38.8381947
  20.3553711   38.8402875
  20.3562044   38.8423739
  20.3570696   38.8444595
  20.3579694   38.8465498
  20.3588469   38.8485205
  20.3593652   38.8496539
  20.3602275   38.8514851
  20.3613639   38.8538279
  20.3621209   38.8553477
  20.3627329   38.8565459
  20.3635414   38.8580908
  20.3646883   38.8602299
  20.3654145   38.8615505
  20.3665106   38.8634954
  20.3672553   38.8647856
  20.3683942   38.8667132
  20.369168    38.867993
  20.3703504   38.8699045
  20.371153    38.8711733
  20.3723785   38.8730682
  20.3732098   38.8743258
  20.3744781   38.8762034
  20.3753348   38.8774451
  20.3765785   38.8792116
  20.3772074   38.880091
  20.3782975   38.8815912
  20.3789458   38.8824671
  20.3799742   38.8838357
  20.3806329   38.8846998
  20.3818044   38.8862112
  20.3832419   38.8880266
  20.3847369   38.8898702
  20.3862593   38.891703
  20.3878074   38.8935228
  20.3893808   38.8953292
  20.3909794   38.8971221
  20.392603    38.8989013
  20.3942515   38.9006664
  20.3959246   38.9024174
  20.3976789   38.9042248
  20.3981149   38.904715
  20.3995551   38.9063279
  20.401179    38.9081071
  20.4028276   38.9098722
  20.4045009   38.9116232
  20.4061987   38.9133598
  20.4079201   38.9150812
  20.4096555   38.9167783
  20.4113557   38.9184054
  20.4129703   38.9199189
  20.4145645   38.9213834
  20.4154378   38.922174
  20.4169311   38.9235055
  20.4179943   38.9244369
  20.4196005   38.9263789
  20.4208438   38.9281084
  20.4214557   38.9289624
  20.4225103   38.9304116
  20.4231499   38.9312749
  20.4241754   38.9326388
  20.4248345   38.9335027
  20.4260067   38.9350141
  20.4274452   38.9368294
  20.4289412   38.938673
  20.4304647   38.9405058
  20.4320138   38.9423256
  20.4335881   38.9441317
  20.435182    38.9459183
  20.4367419   38.947628
  20.4380308   38.9490147
  20.4391338   38.9501566
  20.4408356   38.9518546
  20.4412298   38.952274
  20.4421158   38.9531889
  20.4426697   38.9535605
  20.4435496   38.9545618
  20.4440663   38.9551369
  20.4448392   38.9559321
  20.4461529   38.9572842
  20.5732967   38.9325575
  20.6248745   38.9254659
  20.6575106   38.9236947
  20.6969247   38.9245462
  20.7365833   38.8656417
  20.7281339   38.8537836
  20.7311728   38.8493539
  20.7318432   38.8450788
  20.7298173   38.8407425
  20.7288266   38.8267807
  20.7259396   38.8185364
  20.7281424   38.809049
  20.7283476   38.8081923
  20.7295869   38.806496
  20.7308626   38.8042587
  20.7302026   38.8019055
  20.7282954   38.7987391
  20.728923    38.7954963
  20.7291112   38.7950241
  20.7290478   38.793399
  20.729748    38.7889837
  20.7336951   38.7804202
  20.7424498   38.7643601
  20.7518912   38.7470915
  20.7563544   38.7395938
  20.7604743   38.7341038
  20.7661391   38.7286135
  20.7748938   38.7231227
  20.8273398   38.6955713
  20.8949866   38.6651176
  20.9344204   38.6601172
  20.9500254   38.6605649
  20.9688566   38.6630447
  20.9770363   38.6533999
  20.9786585   38.6395639
  20.979637    38.6109382
  20.9731482   38.583965
  20.9676722   38.5437917
  20.9683931   38.5182102
  21.0048798   38.5040996
  21.0247473   38.4975489
  21.0470312   38.4945141
  21.0605753   38.4831939
  21.0813702   38.4619298
  21.0911911   38.4469573
  21.1042458   38.4292052
  21.106265    38.4250448
  21.108252    38.4219079
  21.1108999   38.4182278
  21.1147987   38.4148872
  21.1146421   38.4089403
  21.1134426   38.3971408
  21.1148073   38.3906122
  21.1111445   38.3863587
  21.1057393   38.3891826
  21.0963795   38.3897057
  21.0835522   38.3892652
  21.0706346   38.3868702
  21.0590561   38.3805122
  21.0711479   38.3660101
  21.0753107   38.3529803
  21.0759544   38.3397933
  21.0893971   38.3271924
  21.1071791   38.3259047
  21.1247959   38.3258189
  21.1296346   38.3040566
  21.1084563   38.2321246
  21.086618    38.2050409
  21.0398288   38.1690472
  20.9678297   38.0979529
  20.941372    38.0562989
  20.9291123   38.0061347
  20.9272063   37.991643
  20.9322844   37.9519417
  20.9438354   37.916833
  20.9702721   37.8743477
  21.0152633   37.8167238
  21.0335393   37.7981512
  21.0519474   37.783591
  21.0706498   37.7738372
  21.1160321   37.750678
  21.1372187   37.7366889
  21.1494021   37.7223753
  21.1547036   37.7032748
  21.1544006   37.6836416
  21.1495216   37.6628085
  21.1023543   37.5187487
  21.1012021   37.5182764
  21.1002589   37.5178966
  21.0987886   37.5173148
  21.097901    37.5169694
  21.0963484   37.5163753
  21.0951895   37.5159389
  21.0936068   37.5153527
  21.0924324   37.5149249
  21.0908633   37.5143627
  21.0899636   37.5140461
  21.0884644   37.5135278
  21.0874968   37.5131996
  21.0858933   37.5126666
  21.0839598   37.5120363
  21.0828642   37.5116851
  21.0816375   37.5113013
  21.0796588   37.5106981
  21.0784711   37.5103452
  21.0769642   37.5098628
  21.0760557   37.5095767
  21.0738571   37.508904
  21.0727707   37.5085835
  21.070864    37.5080485
  21.0680549   37.5072854
  21.0661817   37.5067929
  21.0633638   37.5060761
  21.0614873   37.5056148
  21.0588454   37.5049866
  21.0577149   37.504724
  21.0559685   37.5043272
  21.0547367   37.5040539
  21.05311     37.5037023
  21.0511377   37.5032868
  21.0499869   37.5030504
  21.0485067   37.5027532
  21.047254    37.502498
  21.0461241   37.5022728
  21.0445063   37.5019582
  21.0434378   37.5017553
  21.0418345   37.5014583
  21.0407643   37.5012649
  21.039157    37.5009818
  21.0380842   37.5007977
  21.0364732   37.5005286
  21.035398    37.5003538
  21.0337821   37.5000984
  21.0326913   37.499931
  21.0309354   37.4996696
  21.0294596   37.4994568
  21.0282783   37.4992934
  21.0266367   37.4990751
  21.0241284   37.4987556
  21.0225406   37.4985637
  21.0201821   37.4982939
  21.0186093   37.498124
  21.0162476   37.497884
  21.015225    37.4977481
  21.0136488   37.4967409
  21.0127397   37.4961677
  21.0114394   37.4953573
  21.0105714   37.4948224
  21.009264    37.4940258
  21.0083887   37.4934985
  21.0070705   37.4927132
  21.0061881   37.4921935
  21.0051034   37.491544
  21.0032022   37.4903199
  21.0018985   37.4894943
  20.9999239   37.4882649
  20.9985989   37.487454
  20.9965991   37.4862508
  20.9952575   37.4854575
  20.9932329   37.4842809
  20.9918751   37.4835054
  20.9899975   37.482451
  20.9877078   37.4812734
  20.9868265   37.4807695
  20.9857035   37.4801469
  20.9850906   37.4798172
  20.9832212   37.4788197
  20.9820876   37.4782324
  20.9806099   37.477489
  20.9800695   37.477221
  20.9791026   37.4767482
  20.9778026   37.4761338
  20.9770718   37.4758019
  20.9765652   37.4755297
  20.9739925   37.4742355
  20.9729449   37.4737442
  20.9710103   37.4728892
  20.9693489   37.4721929
  20.9685149   37.4718005
  20.9673586   37.4712613
  20.9668784   37.4710414
  20.9658854   37.470593
  20.9653756   37.4703659
  20.9644907   37.4699777
  20.9635508   37.4695715
  20.9627907   37.4692482
  20.961522    37.4687132
  20.9604351   37.4682634
  20.9596103   37.4679285
  20.9586754   37.4675557
  20.9574134   37.4670606
  20.9566777   37.4667743
  20.9555715   37.4663464
  20.9547699   37.4660434
  20.9531676   37.4654514
  20.9523099   37.4651422
  20.95167     37.464885
  20.9493039   37.4639857
  20.9480884   37.4635394
  20.9473491   37.4632777
  20.945855    37.4627553
  20.9448482   37.4624084
  20.9433345   37.4618946
  20.9423231   37.4615564
  20.9408025   37.4610558
  20.9397864   37.4607265
  20.9382591   37.460239
  20.9372387   37.4599185
  20.9357036   37.459444
  20.9346631   37.4591276
  20.9329184   37.4586065
  20.9311646   37.4580936
  20.929413    37.4575952
  20.9273871   37.4570318
  20.9261827   37.4567038
  20.9252165   37.4564448
  20.9242333   37.4561541
  20.9226739   37.4556977
  20.9210965   37.4552472
  20.9193712   37.4547643
  20.9183193   37.4544753
  20.9167598   37.4540545
  20.9157191   37.4537786
  20.9141553   37.4533717
  20.9131109   37.4531049
  20.9115416   37.4527116
  20.9104936   37.4524539
  20.9089191   37.4520742
  20.9078676   37.4518256
  20.906288    37.4514595
  20.9052333   37.4512201
  20.9036488   37.4508677
  20.9025909   37.4506374
  20.9010016   37.4502989
  20.8999406   37.4500778
  20.8983469   37.449753
  20.897283    37.4495412
  20.8956849   37.4492302
  20.8946181   37.4490276
  20.8930159   37.4487306
  20.8919465   37.4485372
  20.8903403   37.4482541
  20.8892683   37.44807
  20.8876584   37.4478008
  20.8865839   37.447626
  20.8849692   37.4473707
  20.8838792   37.4472032
  20.8821219   37.4469415
  20.8806174   37.4467245
  20.8792394   37.4465349
  20.8772706   37.446276
  20.8745849   37.4459396
  20.8737932   37.445844
  20.8722279   37.4456631
  20.8693711   37.4453525
  20.8674481   37.4451583
  20.8645604   37.4448891
  20.8626331   37.4447245
  20.8597394   37.4444996
  20.8578085   37.4443645
  20.8549099   37.4441841
  20.8529761   37.4440786
  20.8500737   37.4439427
  20.8481463   37.4438671
  20.8454507   37.443781
  20.8443412   37.4437509
  20.8426361   37.4437123
  20.8413808   37.4436899
  20.8399493   37.4436717
  20.8380357   37.4436563
  20.8363366   37.4436515
  20.834714    37.4436572
  20.8328963   37.4436725
  20.8317848   37.4436869
  20.830139    37.4437154
  20.8290429   37.4437392
  20.8273989   37.443782
  20.8263032   37.4438153
  20.8246599   37.4438723
  20.8235647   37.4439151
  20.8219223   37.4439864
  20.8208277   37.4440387
  20.8191863   37.4441242
  20.8180925   37.444186
  20.8164525   37.4442858
  20.8153595   37.4443571
  20.8137209   37.4444711
  20.812629    37.4445518
  20.8109921   37.44468
  20.8099014   37.4447702
  20.8082662   37.4449126
  20.8071774   37.4450122
  20.8055567   37.4451675
  20.8045177   37.4452715
  20.8029588   37.4454341
  20.8018967   37.4455494
  20.8003763   37.4457213
  20.7997455   37.4457948
  20.7989061   37.4458763
  20.7978499   37.4459823
  20.796219    37.4461531
  20.7951326   37.4462716
  20.7935041   37.4464565
  20.7924193   37.4465844
  20.7907922   37.4467836
  20.7896938   37.4469229
  20.7878933   37.4471598
  20.78626     37.4473831
  20.7845235   37.4476322
  20.782708    37.4479023
  20.781615    37.4480702
  20.7800002   37.4483256
  20.7789257   37.4485004
  20.7773158   37.4487695
  20.7762438   37.4489536
  20.7746376   37.4492367
  20.7735682   37.4494301
  20.7719659   37.4497271
  20.7708992   37.4499298
  20.7693011   37.4502407
  20.7682371   37.4504526
  20.7666434   37.4507773
  20.7655824   37.4509984
  20.7639932   37.451337
  20.7629352   37.4515673
  20.7613507   37.4519196
  20.7602959   37.4521591
  20.7587163   37.4525251
  20.7576649   37.4527737
  20.7560903   37.4531534
  20.7550424   37.4534111
  20.7534731   37.4538045
  20.7524286   37.4540712
  20.7508648   37.4544782
  20.7498241   37.454754
  20.7482646   37.4551748
  20.7472127   37.4554639
  20.7454873   37.4559467
  20.7439099   37.4563972
  20.742271    37.4568773
  20.7411182   37.4572168
  20.7395892   37.4576001
  20.7385447   37.4578669
  20.7369808   37.4582738
  20.73594     37.4585496
  20.7343805   37.4589705
  20.7333285   37.4592595
  20.7316031   37.4597424
  20.7300256   37.4601928
  20.7283866   37.4606729
  20.7266599   37.4611888
  20.72562     37.461505
  20.7240849   37.4619795
  20.7230644   37.4623
  20.721537    37.4627874
  20.720521    37.4631168
  20.7190003   37.4636174
  20.7179888   37.4639555
  20.7164751   37.4644693
  20.7154683   37.4648162
  20.7139616   37.4653431
  20.7129595   37.4656987
  20.7114601   37.4662387
  20.710463    37.4666029
  20.708971    37.4671558
  20.7079789   37.4675287
  20.7064946   37.4680946
  20.7055076   37.468476
  20.704031    37.4690547
  20.7030493   37.4694447
  20.7015807   37.4700361
  20.7006044   37.4704347
  20.6991439   37.4710388
  20.6981731   37.4714458
  20.6967209   37.4720625
  20.6957557   37.4724779
  20.6943109   37.4731077
  20.6933371   37.4735378
  20.6917396   37.4742529
  20.6902687   37.4749212
  20.6887737   37.4756134
  20.6871875   37.4763587
  20.686232    37.4768136
  20.684823    37.4774929
  20.6837108   37.4780364
  20.6831022   37.4783169
  20.6823316   37.4786576
  20.6807339   37.4793727
  20.6792629   37.480041
  20.6777678   37.4807332
  20.6761815   37.4814786
  20.675226    37.4819335
  20.6738168   37.4826128
  20.6728812   37.4830694
  20.6714825   37.4837603
  20.6705531   37.484225
  20.6691638   37.484928
  20.6682409   37.4854007
  20.6668613   37.4861158
  20.6659448   37.4865965
  20.6645751   37.4873235
  20.6636652   37.4878121
  20.6623054   37.4885509
  20.6614022   37.4890474
  20.6600526   37.4897979
  20.6591563   37.4903022
  20.657817    37.4910644
  20.6569276   37.4915764
  20.6555987   37.4923502
  20.6547163   37.4928699
  20.6533981   37.4936552
  20.6525229   37.4941825
  20.6512154   37.4949792
  20.6503474   37.4955141
  20.6490471   37.4963244
  20.648137    37.4968984
  20.6464394   37.4979839
  20.6444483   37.4992809
  20.6425611   37.500535
  20.6407145   37.5017869
  20.6397208   37.5024706
  20.6380494   37.5036381
  20.6360507   37.5050611
  20.634027    37.5065331
  20.6320211   37.5080243
  20.6300356   37.5095328
  20.6280708   37.5110585
  20.6261269   37.5126011
  20.6242042   37.5141604
  20.6223029   37.5157364
  20.6204232   37.5173288
  20.6185676   37.5189354
  20.6167734   37.5205224
  20.6153015   37.5218494
  20.6144616   37.5226179
  20.6131409   37.5238421
  20.6122368   37.5246918
  20.610994    37.525878
  20.6102193   37.526627
  20.6086679   37.5281466
  20.6075932   37.5292172
  20.6059911   37.5308412
  20.6049161   37.5319508
  20.6031759   37.5337805
  20.6025376   37.534571
  20.6016773   37.5351386
  20.6012365   37.5354299
  20.5994289   37.5367288
  20.5976356   37.5380875
  20.5972313   37.5383964
  20.5955094   37.5398106
  20.5949487   37.5402992
  20.5934668   37.5412495
  20.5915222   37.5427921
  20.5895987   37.5443515
  20.5876966   37.5459274
  20.5858162   37.5475198
  20.5839575   37.5491283
  20.5821216   37.5507524
  20.580318    37.5523829
  20.5785951   37.5539739
  20.5772385   37.555251
  20.5765114   37.5556324
  20.5751404   37.5563593
  20.5742297   37.5568479
  20.5728686   37.5575867
  20.5719646   37.5580832
  20.5706138   37.5588337
  20.5697166   37.559338
  20.5683755   37.5601005
  20.5675045   37.5606013
  20.5665033   37.5611822
  20.5658872   37.5615289
  20.5645302   37.5623003
  20.5636381   37.5628134
  20.562308    37.5635871
  20.5614248   37.5641068
  20.5601053   37.5648921
  20.5592292   37.5654194
  20.5579206   37.566216
  20.5570517   37.5667509
  20.5557502   37.5675613
  20.5548403   37.5681345
  20.5531635   37.5692054
  20.5513618   37.5703758
  20.5499885   37.5712819
  20.5486126   37.5722058
  20.5471382   37.5732093
  20.5462492   37.573822
  20.54494     37.5747348
  20.5440722   37.5753468
  20.5427772   37.5762708
  20.5419183   37.5768908
  20.5406367   37.5778266
  20.5397868   37.5784544
  20.5385187   37.5794018
  20.5376779   37.5800373
  20.5364222   37.5809975
  20.5355741   37.5816535
  20.5341816   37.5827439
  20.5330497   37.5836413
  20.5320921   37.584411
  20.5308022   37.5854616
  20.5299698   37.5861478
  20.5279756   37.5878133
  20.5265648   37.5890146
  20.524461    37.5908432
  20.5230633   37.5920836
  20.5210185   37.5939351
  20.5203983   37.5945019
  20.5198541   37.5949831
  20.5190274   37.5957224
  20.5176994   37.5969262
  20.5169909   37.5975829
  20.5160341   37.5985176
  20.5153066   37.5992411
  20.5140593   37.6003955
  20.5129184   37.6014418
  20.5123926   37.6019319
  20.511795    37.6025089
  20.5111828   37.6031114
  20.5105223   37.6037756
  20.5093867   37.6049429
  20.508583    37.6057759
  20.5078037   37.6064521
  20.5074311   37.6068092
  20.5067146   37.6075041
  20.5060181   37.6081021
  20.504923    37.6090565
  20.5033221   37.6104744
  20.5022686   37.6114225
  20.5007698   37.612792
  20.5000056   37.6134989
  20.498733    37.614691
  20.4979393   37.6154459
  20.4966777   37.616661
  20.4958782   37.617441
  20.4944864   37.6188191
  20.492825    37.6204965
  20.4911496   37.6222256
  20.4894959   37.6239712
  20.4878662   37.6257311
  20.4862607   37.6275049
  20.4846795   37.6292925
  20.4831228   37.6310938
  20.4815908   37.6329084
  20.4800838   37.6347361
  20.4786018   37.6365769
  20.4771456   37.6384297
  20.4757227   37.6402845
  20.4743705   37.6420895
  20.4731565   37.6437476
  20.4719052   37.6454912
  20.4714323   37.6460256
  20.4698213   37.6477396
  20.4686641   37.6489947
  20.4669514   37.6508907
  20.4658251   37.6521634
  20.4641589   37.6540854
  20.4630637   37.6553752
  20.4614446   37.6573225
  20.460381    37.658629
  20.4588096   37.6606009
  20.4577816   37.6619188
  20.4563391   37.663807
  20.4556431   37.6647329
  20.4547279   37.6659038
  20.4528961   37.6671623
  20.4516024   37.6680663
  20.4498592   37.669307
  20.4478707   37.6707508
  20.4458628   37.6722402
  20.4438729   37.6737486
  20.4419038   37.6752742
  20.4399556   37.6768168
  20.4380287   37.6783761
  20.4361265   37.6799492
  20.4343334   37.6814633
  20.4333876   37.6822735
  20.4327322   37.6828361
  20.4317428   37.6836964
  20.4311687   37.6842014
  20.4294563   37.6857249
  20.4288847   37.6862393
  20.4278779   37.6871567
  20.4269491   37.6880185
  20.4261924   37.6887439
  20.4249853   37.6899302
  20.4243891   37.6905277
  20.4239888   37.6909222
  20.4230747   37.6917678
  20.4224026   37.6923986
  20.4216535   37.6931125
  20.421229    37.6935231
  20.420407    37.694329
  20.41998     37.6947535
  20.41928     37.6954596
  20.4182367   37.6965236
  20.4178434   37.6969303
  20.4170872   37.6977225
  20.4167121   37.6981205
  20.4156351   37.6992792
  20.4150719   37.6998926
  20.4140119   37.7010622
  20.4135299   37.7016036
  20.4125772   37.7026928
  20.4119557   37.7034193
  20.41061     37.7048787
  20.4092349   37.7064281
  20.4080215   37.7078682
  20.4065239   37.7096829
  20.4050422   37.7115214
  20.4036168   37.7133321
  20.4024529   37.7148424
  20.4017901   37.7157169
  20.4007373   37.7171264
  20.399984    37.718152
  20.3988572   37.7197168
  20.3981793   37.7206743
  20.3967711   37.7226973
  20.3957972   37.724129
  20.3943586   37.7262961
  20.3934181   37.7277485
  20.3920353   37.7299384
  20.3911321   37.7314057
  20.3898056   37.7336175
  20.3889402   37.7350991
  20.3876706   37.7373319
  20.3868433   37.7388272
  20.3856311   37.74108
  20.3848454   37.7425824
  20.3837604   37.7447146
  20.3832619   37.745715
  20.3823421   37.7476032
  20.3813738   37.7496513
  20.3806355   37.751262
  20.3797978   37.7531435
  20.3789175   37.7551862
  20.378055    37.7572603
  20.3772204   37.7593431
  20.3764145   37.761433
  20.3756372   37.7635297
  20.3748888   37.765633
  20.3741693   37.7677427
  20.3734788   37.7698585
  20.3728173   37.7719801
  20.372185    37.7741073
  20.3715818   37.7762404
  20.3710062   37.7783853
  20.3704569   37.7805484
  20.3699612   37.7826108
  20.3696813   37.7838325
  20.3692329   37.7859057
  20.3687243   37.7884093
  20.3684409   37.7898977
  20.3680515   37.7920813
  20.3678091   37.7935368
  20.3674706   37.7957225
  20.3672618   37.7971813
  20.3669738   37.7993716
  20.3667987   37.8008332
  20.3665613   37.8030273
  20.36642     37.8044912
  20.3662331   37.8066902
  20.3661244   37.8081744
  20.3659783   37.8105558
  20.3658881   37.8123507
  20.365829    37.8138448
  20.3657859   37.8152897
  20.3657422   37.8174952
  20.3657275   37.8198411
  20.3657503   37.8222659
  20.3658035   37.8245052
  20.3658864   37.8266981
  20.3659992   37.8288823
  20.366142    37.831065
  20.3663148   37.8332463
  20.3665176   37.8354259
  20.3667504   37.8376037
  20.3670131   37.8397794
  20.3672401   37.8414759
  20.3671906   37.8426661
  20.3671209   37.8449449
  20.3670952   37.8462659
  20.3670045   37.8472193
  20.3668371   37.8491726
  20.3667389   37.8504755
  20.3666117   37.8524307
  20.3665402   37.8537347
  20.366453    37.8556943
  20.3664074   37.8570392
  20.3663549   37.8593992
  20.366335    37.8619878
  20.3663576   37.8644471
  20.3664109   37.8666919
  20.3664938   37.8688851
  20.3666066   37.8710693
  20.3667495   37.8732519
  20.3669224   37.8754332
  20.3671253   37.8776129
  20.3673582   37.8797906
  20.3676211   37.8819663
  20.3679139   37.8841395
  20.3682367   37.8863101
  20.3685894   37.8884782
  20.3689738   37.8906529
  20.3694009   37.8928862
  20.3699225   37.8954114
  20.3704272   37.8976764
  20.370932    37.8998086
  20.3712314   37.9010164
  20.3716842   37.9027715
  20.3719965   37.903938
  20.3724815   37.9056848
  20.3728157   37.9068475
  20.3733335   37.9085884
  20.3736895   37.9097469
  20.37424     37.9114815
  20.3746178   37.9126358
  20.3752015   37.9143657
  20.3756099   37.9155405
  20.3763191   37.9175176
  20.3770095   37.919379
  20.3776983   37.9211718
  20.3784272   37.9230115
  20.3788674   37.924094
  20.3795292   37.9256828
  20.3799944   37.926773
  20.3808429   37.9287043
  20.3795334   37.9293354
  20.3782672   37.9299622
  20.3762285   37.9309883
  20.3748959   37.9316688
  20.3741341   37.9320633
  20.3726876   37.9328236
  20.3713645   37.933531
  20.3696643   37.9344395
  20.3683878   37.9351324
  20.3679252   37.935361
  20.3661128   37.935691
  20.3632682   37.9362225
  20.3613762   37.9365912
  20.3585451   37.9371659
  20.3566623   37.9375633
  20.3538456   37.9381809
  20.3519728   37.9386069
  20.3491715   37.9392672
  20.3473176   37.9397195
  20.3447341   37.9403702
  20.3436762   37.9406422
  20.3420512   37.9410679
  20.3408429   37.9413911
  20.3392511   37.9419122
  20.3376764   37.9423189
  20.3361468   37.9427214
  20.3345456   37.943168
  20.3327802   37.9437203
  20.331738    37.9440497
  20.3304268   37.9444761
  20.3292253   37.9448632
  20.3276147   37.9452901
  20.326592    37.9456195
  20.3250615   37.94612
  20.3240434   37.9464581
  20.3225198   37.9469719
  20.3215064   37.9473187
  20.3199899   37.9478455
  20.3189814   37.9482011
  20.3174722   37.948741
  20.3164685   37.9491052
  20.3149669   37.949658
  20.3139683   37.9500309
  20.3124743   37.9505966
  20.3114809   37.9509781
  20.3099947   37.9515567
  20.3090066   37.9519466
  20.3075284   37.952538
  20.3065457   37.9529365
  20.3050757   37.9535405
  20.3040985   37.9539474
  20.302637    37.9545641
  20.3016654   37.9549794
  20.3002105   37.9556095
  20.29922     37.9560441
  20.2975201   37.9568007
  20.2958027   37.9575778
  20.2940599   37.9583818
  20.2929364   37.9589085
  20.2913144   37.95968
  20.2902503   37.9601932
  20.287781    37.961402
  20.2860339   37.9622759
  20.2834193   37.9636134
  20.2816878   37.9645191
  20.2806598   37.9650268
  20.2795415   37.9654204
  20.278032    37.9659603
  20.2770282   37.9663245
  20.2755261   37.9668774
  20.274526    37.9672507
  20.2730048   37.9678268
  20.2718876   37.9682564
  20.2698031   37.9690713
  20.2678012   37.9698679
  20.2666653   37.9703273
  20.2651611   37.9709451
  20.2641821   37.9713527
  20.2627201   37.9719694
  20.2617483   37.9723847
  20.2602937   37.9730145
  20.2593134   37.9734445
  20.2577049   37.9741596
  20.2562233   37.9748282
  20.254719    37.9755199
  20.2531222   37.9762651
  20.2521603   37.9767199
  20.2507417   37.9773991
  20.2497998   37.9778557
  20.2483917   37.9785465
  20.2474562   37.9790112
  20.2460576   37.9797141
  20.2451285   37.9801868
  20.2437396   37.9809017
  20.242817    37.9813824
  20.2414381   37.9821093
  20.2405221   37.9825978
  20.2391533   37.9833365
  20.2382441   37.9838329
  20.2368854   37.9845834
  20.235983    37.9850876
  20.2346348   37.9858497
  20.2337394   37.9863617
  20.2324016   37.9871354
  20.2315134   37.987655
  20.2301863   37.9884402
  20.2293052   37.9889675
  20.227989    37.989764
  20.2271152   37.9902989
  20.22581     37.9911067
  20.2249436   37.991649
  20.2236468   37.9924698
  20.2227511   37.9930434
  20.2211246   37.9940989
  20.2192667   37.9953259
  20.2173982   37.9965842
  20.2164386   37.9972397
  20.2151571   37.9981259
  20.214321    37.9987108
  20.2130708   37.999595
  20.2121956   38.0002212
  20.2105561   38.0014106
  20.2086142   38.0028458
  20.2069803   38.0040762
  20.206021    38.0048096
  20.20427     38.0061679
  20.202694    38.0074108
  20.2019611   38.0077954
  20.200941    38.0083371
  20.1999136   38.0088801
  20.1978108   38.0100059
  20.1963937   38.0107782
  20.1942824   38.0119499
  20.1928832   38.0127405
  20.1907972   38.0139404
  20.189415    38.0147496
  20.1873549   38.0159772
  20.1859903   38.0168048
  20.1839567   38.0180599
  20.1826143   38.0189029
  20.1807058   38.0201215
  20.1797499   38.0207399
  20.1781456   38.0217916
  20.177164    38.0224453
  20.1756382   38.0234748
  20.1746743   38.0241335
  20.1729939   38.0252989
  20.1709811   38.0267217
  20.1689431   38.0281935
  20.1669229   38.0296845
  20.1649234   38.0311929
  20.1629447   38.0327183
  20.160987    38.0342608
  20.1590507   38.0358199
  20.1571359   38.0373957
  20.1552429   38.0389879
  20.1533718   38.0405962
  20.1515236   38.0422201
  20.149708    38.0438504
  20.1479735   38.0454413
  20.1463664   38.0469458
  20.144815    38.0484276
  20.1439801   38.0492369
  20.1425778   38.0506171
  20.1409066   38.0522944
  20.1392214   38.0540233
  20.1375579   38.0557687
  20.1359186   38.0575284
  20.1343036   38.0593021
  20.1327131   38.0610895
  20.1311472   38.0628906
  20.1296062   38.064705
  20.1280921   38.0665304
  20.1266424   38.0683191
  20.1257384   38.0694559
  20.1244634   38.0710221
  20.1232447   38.0725454
  20.1225013   38.0734906
  20.1214487   38.0748519
  20.1199075   38.0768845
  20.1183643   38.0789725
  20.1168614   38.0810662
  20.1155111   38.0829977
  20.1142164   38.0848986
  20.1129523   38.0868033
  20.1117143   38.0887183
  20.1105024   38.0906436
  20.1093166   38.0925791
  20.108157    38.0945245
  20.1070239   38.0964796
  20.1059174   38.0984443
  20.1048375   38.1004182
  20.1037843   38.1024015
  20.102754    38.1044016
  20.1017299   38.1064538
  20.100645    38.1087012
  20.0996809   38.1107629
  20.0987955   38.1127168
  20.0983448   38.1137356
  20.0975981   38.1154661
  20.0967428   38.1175134
  20.0959039   38.1195964
  20.0950938   38.1216863
  20.0943127   38.1237828
  20.0935605   38.125886
  20.0928374   38.1279955
  20.0921434   38.1301111
  20.0914786   38.1322326
  20.0908431   38.1343597
  20.090237    38.1364921
  20.0896605   38.1386289
  20.0891165   38.1407585
  20.0886171   38.1428255
  20.0881611   38.144826
  20.0876612   38.1471709
  20.0872646   38.1491584
  20.0871316   38.1498106
  20.0868553   38.1510151
  20.0864743   38.1527578
  20.08625     38.1538292
  20.0857993   38.1560822
  20.0855015   38.15767
  20.0850834   38.1600638
  20.084825    38.1616618
  20.0844679   38.1640618
  20.0842502   38.1656636
  20.0839542   38.1680687
  20.0837773   38.1696736
  20.0835426   38.1720829
  20.0834066   38.1736903
  20.0832331   38.1761047
  20.0831371   38.1777344
  20.0830173   38.1803507
  20.0829506   38.1823434
  20.0828607   38.1866002
  20.0828393   38.188584
  20.0828403   38.1900669
  20.0828519   38.1912561
  20.0828085   38.1920784
  20.082715    38.1941785
  20.0826472   38.1963519
  20.0826097   38.1984693
  20.0826008   38.2005372
  20.0826271   38.2030351
  20.0826879   38.2054186
  20.0827852   38.2078403
  20.0828811   38.2096654
  20.0829897   38.2113592
  20.0831468   38.2134662
  20.0832579   38.2147696
  20.0834423   38.2166997
  20.0835783   38.2179847
  20.083802    38.2199108
  20.0839632   38.2211867
  20.0841979   38.2229134
  20.0843189   38.2237749
  20.0845367   38.2253643
  20.0848595   38.2275244
  20.0852137   38.2296923
  20.0855977   38.2318559
  20.0860091   38.234004
  20.0864355   38.2360813
  20.0868739   38.2380843
  20.0874203   38.2404224
  20.0879644   38.2426135
  20.0885293   38.2447611
  20.089122    38.2468965
  20.0897441   38.2490261
  20.0903956   38.2511503
  20.0910765   38.2532688
  20.0917867   38.2553812
  20.0925262   38.2574875
  20.0932948   38.2595872
  20.0940924   38.2616802
  20.094919    38.2637662
  20.0957742   38.2658443
  20.096653    38.2679033
  20.0975308   38.2698904
  20.098403    38.2718
  20.0994579   38.2740303
  20.1000207   38.2751843
  20.1002042   38.2762972
  20.1005884   38.2784608
  20.1010001   38.2806089
  20.1014252   38.2826788
  20.1018192   38.2844865
  20.102166    38.2860088
  20.1024371   38.2873979
  20.1028577   38.2894424
  20.103268    38.2913194
  20.1037607   38.2934417
  20.1040259   38.2945354
  20.1044379   38.2961692
  20.105123    38.2985114
  20.1053418   38.2993961
  20.1059609   38.3016862
  20.1063031   38.3028646
  20.1067488   38.3042971
  20.1071      38.3053965
  20.1075321   38.3066593
  20.1079215   38.3077272
  20.1081226   38.3084414
  20.1088425   38.3107115
  20.1093378   38.3120964
  20.11012     38.314211
  20.1104101   38.3149746
  20.1108971   38.3162262
  20.1111955   38.3169756
  20.1121102   38.3192209
  20.1124257   38.3199783
  20.1129638   38.3212412
  20.1133051   38.3220245
  20.1148015   38.3253769
  20.1155207   38.3269311
  20.1165422   38.3290681
  20.1172925   38.3305925
  20.1178059   38.3316852
  20.1186864   38.333537
  20.1196742   38.3355524
  20.1207013   38.3375823
  20.1217567   38.3396036
  20.12284     38.3416156
  20.1239512   38.3436182
  20.1250901   38.345611
  20.1262566   38.347594
  20.1274506   38.3495668
  20.1286719   38.3515292
  20.1299204   38.353481
  20.1311959   38.3554219
  20.1324978   38.3573512
  20.1338188   38.3592584
  20.1351211   38.361092
  20.1363322   38.3627579
  20.1375994   38.3644615
  20.1382776   38.365358
  20.1394426   38.366872
  20.1408699   38.3686875
  20.1423542   38.3705311
  20.1437134   38.3721815
  20.1440101   38.3726013
  20.1442866   38.3746329
  20.1446114   38.3768033
  20.1449663   38.3789713
  20.1453526   38.381143
  20.1457717   38.3833242
  20.1461958   38.3853869
  20.1464544   38.3865805
  20.1468946   38.3885038
  20.147452    38.3908129
  20.1477971   38.3921744
  20.1483246   38.3941653
  20.1486976   38.3955147
  20.1493427   38.3977516
  20.1498999   38.3996042
  20.1502906   38.4008546
  20.1504399   38.4013454
  20.1508493   38.4026733
  20.1513418   38.4042218
  20.1517446   38.4054527
  20.1522755   38.4070337
  20.1526142   38.4080166
  20.153128    38.4094711
  20.153478    38.4104383
  20.1540146   38.4118865
  20.15438     38.4128501
  20.1549397   38.4142929
  20.1553205   38.4152529
  20.1559031   38.41669
  20.1562992   38.4176461
  20.1569054   38.4190786
  20.1573244   38.4200481
  20.1580537   38.4216981
  20.15887     38.423494
  20.1597186   38.4252959
  20.1607927   38.4275124
  20.1614747   38.4288811
  20.1625104   38.4309046
  20.1632244   38.4322634
  20.1643951   38.434434
  20.1652941   38.4360612
  20.1660886   38.4374673
  20.1667639   38.4386401
  20.1676478   38.4401497
  20.1682061   38.4410871
  20.1690453   38.4424726
  20.1696118   38.4433927
  20.1704727   38.4447685
  20.1710541   38.4456828
  20.1719374   38.4470498
  20.1725374   38.4479639
  20.1735083   38.4494183
  20.1743812   38.450699
  20.1757189   38.4526194
  20.1767284   38.4538578
  20.1783593   38.4562383
  20.179205    38.4574093
  20.180582    38.4591623
  20.181521    38.4603312
  20.1827121   38.4619573
  20.1841702   38.4637652
  20.1856819   38.4655959
  20.1872209   38.4674158
  20.1887851   38.4692223
  20.1903743   38.4710153
  20.1919885   38.4727945
  20.1936272   38.4745597
  20.1952905   38.4763108
  20.196978    38.4780475
  20.1986889   38.4797688
  20.2004087   38.481461
  20.2020603   38.4830518
  20.2035594   38.4844678
  20.2052779   38.486058
  20.2068358   38.4874741
  20.2085045   38.4889615
  20.2106913   38.490873
  20.2120663   38.4920506
  20.2141264   38.4937799
  20.215512    38.4949202
  20.217574    38.4965846
  20.2185273   38.4973421
  20.2192588   38.4979307
  20.2210588   38.4993591
  20.2222788   38.500311
  20.2241257   38.5017281
  20.2253859   38.5026785
  20.227443    38.5042029
  20.2289751   38.5053195
  20.2302243   38.5062143
  20.2315876   38.5071755
  20.2324334   38.5077647
  20.234421    38.5091335
  20.2354663   38.5098436
  20.2372907   38.5110648
  20.2383369   38.5117531
  20.2399114   38.5127745
  20.2408557   38.5133794
  20.2421757   38.5142149
  20.2430471   38.5147602
  20.2443582   38.5155715
  20.245236    38.5161086
  20.2465584   38.5169085
  20.2474436   38.517438
  20.2487771   38.5182266
  20.2496697   38.5187485
  20.251014    38.5195256
  20.2519138   38.5200397
  20.2532689   38.5208052
  20.2541759   38.5213116
  20.2555416   38.5220654
  20.2564555   38.522564
  20.2578317   38.523306
  20.2587525   38.5237968
  20.2601389   38.5245269
  20.2610666   38.5250097
  20.2624631   38.5257279
  20.2633974   38.5262027
  20.2648038   38.5269089
  20.2657447   38.5273756
  20.2671609   38.5280696
  20.2681083   38.5285283
  20.2695353   38.5292107
  20.2705032   38.5296678
  20.272102    38.530413
  20.2735861   38.5310946
  20.2751059   38.5317797
  20.2767318   38.5325015
  20.277718    38.5329334
  20.2791815   38.5335661
  20.2801594   38.5339834
  20.2816307   38.534603
  20.2826143   38.5350119
  20.2840941   38.5356188
  20.2850834   38.5360192
  20.2866242   38.5366316
END
3
  21.271791    37.2635292
  21.2719944   37.2617027
  21.2721184   37.2604853
  21.2722868   37.258658
  21.2723875   37.2574392
  21.2725211   37.2556101
  21.2725985   37.2543902
  21.2726972   37.2525597
  21.2727514   37.2513389
  21.2728152   37.2495061
  21.2728463   37.248271
  21.2728767   37.2462985
  21.2728861   37.2447096
  21.2728778   37.2433857
  21.2728467   37.2416004
  21.2727691   37.2389209
  21.272698    37.2372336
  21.2725593   37.23473
  21.2724426   37.2330313
  21.2722091   37.230205
  21.2719712   37.2277528
  21.2717628   37.2258729
  21.2715059   37.2237866
  21.271199    37.2215399
  21.270857    37.2192733
  21.2704904   37.2170528
  21.2701485   37.2151344
  21.2698853   37.2137513
  21.2694816   37.2117473
  21.269184    37.2103463
  21.2686572   37.2079878
  21.2683514   37.2066805
  21.2678709   37.2047163
  21.2675259   37.2033676
  21.2670383   37.2015471
  21.2664516   37.1994581
  21.265825    37.1973332
  21.2651688   37.1952114
  21.2644837   37.1930954
  21.2637698   37.1909855
  21.2630272   37.1888819
  21.262256    37.1867849
  21.2614563   37.1846948
  21.2606283   37.1826118
  21.2597724   37.1805373
  21.2588981   37.1784924
  21.2580671   37.1766112
  21.2574208   37.1751868
  21.256537    37.1732939
  21.2558424   37.1718442
  21.2549245   37.1699813
  21.2536958   37.1675572
  21.2529123   37.1660558
  21.251723    37.1638402
  21.2509122   37.1623707
  21.2496687   37.1601763
  21.2488214   37.15872
  21.2475233   37.156546
  21.2466398   37.1551036
  21.2452877   37.1529508
  21.2443683   37.1515228
  21.2429627   37.1493921
  21.2420114   37.1479843
  21.2406355   37.1459938
  21.2399707   37.145048
  21.2388687   37.1435061
  21.2381262   37.1424874
  21.2370833   37.14108
  21.2364257   37.1402057
  21.2352707   37.1386952
  21.2338564   37.1368843
  21.2323861   37.1350456
  21.2308891   37.1332177
  21.2293673   37.1314029
  21.227821    37.1296014
  21.2262504   37.1278136
  21.2246555   37.1260396
  21.2230367   37.1242795
  21.221394    37.1225337
  21.2197298   37.1208044
  21.2180794   37.1191268
  21.2166946   37.1177462
  21.2158698   37.1169365
  21.2143366   37.1154534
  21.212751    37.1139498
  21.2110381   37.1123586
  21.2092451   37.1107279
  21.2074199   37.1091037
  21.2055722   37.107495
  21.2037027   37.1059025
  21.2018117   37.1043264
  21.1998995   37.1027669
  21.1979662   37.1012241
  21.1960121   37.0996983
  21.1940374   37.0981896
  21.1920424   37.0966983
  21.1900297   37.0952261
  21.1880419   37.093803
  21.1863823   37.0926373
  21.1854291   37.0919775
  21.1838915   37.0909272
  21.1828033   37.0901945
  21.181012    37.0890091
  21.1799381   37.0883091
  21.1776925   37.0868671
  21.1761015   37.0858655
  21.1736876   37.0843771
  21.1720727   37.083402
  21.1697884   37.08205
  21.1688056   37.0814763
  21.1672905   37.0806031
  21.1662535   37.0800133
  21.1648895   37.0792484
  21.1632539   37.0783435
  21.1622678   37.0778052
  21.1608131   37.0770212
  21.1598408   37.0765037
  21.1583767   37.0757343
  21.1573969   37.0752259
  21.1559218   37.0744702
  21.1549279   37.0739676
  21.1533256   37.0731686
  21.151871    37.0724562
  21.1496677   37.0713975
  21.148195    37.0707036
  21.1454802   37.0694492
  21.1440169   37.0687862
  21.1418332   37.067816
  21.1403803   37.0671831
  21.1388104   37.0665117
  21.1378372   37.0661015
  21.1363846   37.0654973
  21.1354134   37.0650988
  21.1338795   37.0646381
  21.132924    37.0642196
  21.1316792   37.0636675
  21.1305095   37.0631962
  21.1290418   37.0626095
  21.128061    37.0622226
  21.1265693   37.0616933
  21.1255725   37.0613439
  21.1240798   37.0608245
  21.1231978   37.0605514
  21.1199099   37.0593682
  21.1187552   37.0589545
  21.1174631   37.0585067
  21.1169013   37.0583117
  21.1159299   37.0579709
  21.1149363   37.0576274
  21.1124039   37.0566454
  21.1115317   37.0563345
  21.1100332   37.0558075
  21.1090318   37.0554606
  21.1075262   37.0549468
  21.1065202   37.0546086
  21.1050078   37.0541079
  21.1039972   37.0537785
  21.1024781   37.053291
  21.1014631   37.0529705
  21.0999363   37.0524959
  21.098901    37.0521794
  21.0971591   37.0516562
  21.0953233   37.051117
  21.0935333   37.0506059
  21.0913718   37.0500033
  21.0900429   37.0496413
  21.0880686   37.0491159
  21.0867246   37.0487667
  21.084499    37.0482027
  21.0827597   37.0477728
  21.081635    37.0475012
  21.0797998   37.0470684
  21.0773923   37.0465163
  21.0759278   37.0461904
  21.0737678   37.0457238
  21.0723266   37.0454216
  21.0701607   37.0449813
  21.0687141   37.0446964
  21.0665404   37.044282
  21.065081    37.0440129
  21.0627665   37.0436017
  21.0607831   37.0432653
  21.0578139   37.0427868
  21.0561399   37.0425296
  21.0550966   37.0423762
  21.0536656   37.0421869
  21.0509113   37.041858
  21.049485    37.0416543
  21.0484787   37.041508
  21.0476761   37.0413982
  21.0460564   37.0411877
  21.0452328   37.0410864
  21.0445572   37.0410079
  21.0437528   37.040916
  21.0423349   37.0407578
  21.0411196   37.0406298
  21.0402063   37.0405395
  21.0391866   37.0404445
  21.0377466   37.0403185
  21.036628    37.0402274
  21.0348148   37.04009
  21.0340017   37.040034
  21.0323744   37.0399327
  21.0315234   37.0400658
  21.0306387   37.0399395
  21.0300798   37.0398665
  21.0283089   37.0396907
  21.0272051   37.0395911
  21.0260748   37.0395161
  21.0248309   37.0394375
  21.024315    37.0394123
  21.0230901   37.0393668
  21.0221059   37.0393321
  21.0213922   37.0393146
  21.0192704   37.0393326
  21.0185635   37.0393322
  21.0168388   37.0393164
  21.0160482   37.0391376
  21.0148945   37.039104
  21.0142557   37.0390868
  21.0136473   37.0390715
  21.0131281   37.0390607
  21.0126177   37.0390522
  21.0115788   37.0390435
  21.0109524   37.0390467
  21.0102714   37.0390535
  21.0097604   37.0390607
  21.0090924   37.039073
  21.0083853   37.0390878
  21.0078672   37.039092
  21.005683    37.0391475
  21.0044647   37.0391393
  21.0027281   37.0391635
  21.0017021   37.0391924
  21.0001386   37.0392426
  20.9995572   37.0392642
  20.9984253   37.0393113
  20.9978595   37.0393375
  20.995836    37.0394402
  20.9953076   37.0394512
  20.9940951   37.0394882
  20.9916708   37.0395859
  20.9904595   37.0396465
  20.9879814   37.0397947
  20.9873522   37.0398355
  20.9860947   37.0399235
  20.9854504   37.0399719
  20.9835318   37.0401266
  20.9817876   37.040276
  20.979909    37.0404478
  20.9780467   37.0406292
  20.9755978   37.0408825
  20.9740728   37.0410499
  20.9718127   37.0413121
  20.9702907   37.0414983
  20.9678437   37.0418133
  20.9659129   37.0420741
  20.9642834   37.0423066
  20.962246    37.0426122
  20.9595147   37.0430397
  20.9587109   37.0431695
  20.9571235   37.0434342
  20.9542352   37.0439369
  20.9522976   37.0442901
  20.949398    37.044843
  20.9474695   37.0452269
  20.9445841   37.0458258
  20.9426654   37.0462403
  20.9397954   37.0468849
  20.9378873   37.0473298
  20.9350574   37.0480139
  20.9335091   37.0484
  20.9327273   37.0485994
  20.930083    37.0492874
  20.9282175   37.0497852
  20.9271304   37.0500816
  20.9253448   37.0505783
  20.9231076   37.0512148
  20.9210843   37.0518071
  20.9192216   37.0523658
  20.9181695   37.0526874
  20.9166415   37.0531623
  20.9156265   37.0534829
  20.9141073   37.0539703
  20.9130968   37.0542997
  20.9115843   37.0548004
  20.9105783   37.0551386
  20.9090727   37.0556524
  20.9080713   37.0559994
  20.9065728   37.0565263
  20.9055762   37.0568819
  20.9040849   37.0574219
  20.9030931   37.0577863
  20.9016092   37.0583392
  20.9006224   37.0587122
  20.8991461   37.059278
  20.8981644   37.0596596
  20.8966959   37.0602383
  20.8957194   37.0606283
  20.8942588   37.0612198
  20.8932877   37.0616184
  20.8918352   37.0622226
  20.8908695   37.0626296
  20.8894252   37.0632464
  20.8884652   37.0636618
  20.8870264   37.0642925
  20.8860314   37.0647345
  20.8842241   37.0655498
  20.8821691   37.0664955
  20.8800866   37.0674753
  20.8790187   37.0679857
  20.8775927   37.0686768
  20.876661    37.069134
  20.8752699   37.0698251
  20.8743457   37.0702898
  20.872964    37.0709929
  20.8720461   37.0714657
  20.8706741   37.0721808
  20.8697626   37.0726615
  20.8684004   37.0733886
  20.8674955   37.0738773
  20.8661431   37.0746161
  20.8652449   37.0751127
  20.8639027   37.0758633
  20.8630113   37.0763676
  20.8616793   37.0771299
  20.8607948   37.077642
  20.8594732   37.0784159
  20.8585957   37.0789356
  20.8572808   37.0797233
  20.8563595   37.0802819
  20.8546294   37.0813458
  20.8525319   37.0826609
  20.8504165   37.0840164
  20.8483864   37.0853455
  20.8465077   37.0866011
  20.8446732   37.0878517
  20.8437651   37.0884793
  20.8429667   37.0890357
  20.8419713   37.0897146
  20.8400772   37.0910234
  20.8388931   37.0918548
  20.837147    37.0931002
  20.8359784   37.093947
  20.834117    37.0953176
  20.8327107   37.0963687
  20.8289871   37.0991948
  20.8277316   37.1001611
  20.8260959   37.1014372
  20.8250836   37.1022384
  20.8235934   37.1034347
  20.8226078   37.1042371
  20.8211398   37.105449
  20.8201683   37.1062625
  20.8187217   37.1074908
  20.8177591   37.1083197
  20.8162427   37.1096452
  20.814943    37.1108026
  20.8130057   37.1125619
  20.8117241   37.1137489
  20.8093574   37.1159843
  20.8082116   37.1170887
  20.8065878   37.1186819
  20.8054835   37.1197851
  20.804039    37.1212562
  20.8024069   37.1229528
  20.8007662   37.1246965
  20.7991473   37.1264566
  20.7975525   37.1282306
  20.7959818   37.1300184
  20.7944355   37.1318199
  20.7929137   37.1336347
  20.7914168   37.1354626
  20.7899447   37.1373035
  20.7884982   37.1391566
  20.7870848   37.1410116
  20.7857417   37.1428168
  20.7845364   37.144474
  20.7833152   37.1461921
  20.7826787   37.1471031
  20.7816134   37.1486549
  20.7803509   37.1505362
  20.7790858   37.1524704
  20.7778456   37.1544179
  20.776632    37.156376
  20.775445    37.1583446
  20.7742849   37.1603235
  20.7731518   37.1623123
  20.7720457   37.1643109
  20.770967    37.166319
  20.7699156   37.1683364
  20.7688921   37.1703621
  20.7679035   37.1723812
  20.7669877   37.1743104
  20.7662075   37.1760019
  20.7653732   37.1778665
  20.7648299   37.1791105
  20.7643079   37.1803376
  20.7635206   37.1822386
  20.7630121   37.183501
  20.7618867   37.1863764
  20.7613943   37.1876728
  20.7606656   37.1896508
  20.7602022   37.1909488
  20.759688    37.192438
  20.7589922   37.1945231
  20.7582498   37.1968506
  20.757533    37.1992155
  20.7568518   37.2015886
  20.7562071   37.2039662
  20.7556068   37.2063159
  20.7550881   37.2084684
  20.7546359   37.2104586
  20.7542173   37.2124346
  20.7537119   37.214973
  20.7534182   37.2165506
  20.7530119   37.218893
  20.7527825   37.2202703
  20.7526377   37.2208302
  20.7521558   37.2227468
  20.7516628   37.2248141
  20.751213    37.2268128
  20.7507191   37.2291598
  20.7502863   37.2313661
  20.7498913   37.233537
  20.7495273   37.2357038
  20.7491929   37.2378732
  20.7488882   37.2400454
  20.748613    37.2422201
  20.7483675   37.2443971
  20.7481518   37.2465761
  20.7479657   37.2487569
  20.7478094   37.2509391
  20.7476829   37.2531226
  20.7475863   37.2553064
  20.7475196   37.2574786
  20.7474828   37.2595829
  20.7474738   37.2616147
  20.747497    37.2639937
  20.7475498   37.2662264
  20.7476323   37.2684192
  20.7477444   37.2706036
  20.7478862   37.2727865
  20.7480579   37.274968
  20.7482593   37.2771478
  20.7484906   37.2793258
  20.7487515   37.2815017
  20.7490421   37.2836751
  20.7493624   37.2858459
  20.7497124   37.2880137
  20.7500918   37.2901777
  20.7504983   37.2923261
  20.7509195   37.2944035
  20.7513521   37.2964047
  20.7518923   37.2987451
  20.7524299   37.3009367
  20.7529879   37.3030847
  20.7535734   37.3052204
  20.7541878   37.3073503
  20.7548314   37.3094748
  20.755504    37.3115936
  20.7562055   37.3137063
  20.7569358   37.3158128
  20.757695    37.3179129
  20.7584828   37.3200061
  20.7592992   37.3220924
  20.7601438   37.3241708
  20.7610117   37.3262301
  20.7618787   37.3282173
  20.7627391   37.3301252
  20.7637818   37.3323575
  20.7647885   37.3344415
  20.7658057   37.3364794
  20.7668473   37.3385012
  20.7679163   37.3405135
  20.7690128   37.3425163
  20.7701367   37.3445094
  20.7712877   37.3464926
  20.7724659   37.3484657
  20.773671    37.3504283
  20.7749029   37.3523804
  20.7761599   37.3543192
  20.777415    37.3562053
  20.7784743   37.3577613
  20.7790927   37.3586538
  20.7800871   37.3600674
  20.7807922   37.3610537
  20.7818011   37.3624391
  20.7824548   37.363323
  20.783925    37.3652796
  20.7850961   37.3668083
  20.7859005   37.3678392
  20.787079    37.3693221
  20.7886572   37.3712703
  20.7896339   37.3724522
  20.7910928   37.374184
  20.7920768   37.3753304
  20.7935715   37.3770397
  20.7945803   37.3781724
  20.796112    37.3798607
  20.7971454   37.3809792
  20.7987137   37.3826461
  20.7997713   37.3837501
  20.801377    37.3853963
  20.802472    37.3864989
  20.804229    37.3882361
  20.8054062   37.389382
  20.8062792   37.3902191
  20.8073151   37.3911965
  20.8086033   37.392397
  20.8094155   37.3931443
  20.8106295   37.3942475
  20.8114438   37.3949784
  20.8126737   37.3960688
  20.8134992   37.3967917
  20.8147458   37.3978701
  20.8155835   37.3985859
  20.8168686   37.3996704
  20.8178      37.4004461
  20.8191852   37.4015851
  20.8208364   37.4029312
  20.822721    37.4044395
  20.8246726   37.4059684
  20.8266483   37.4074827
  20.8286448   37.4089797
  20.8306617   37.4104593
  20.8326981   37.4119207
  20.8347427   37.4133562
  20.8367376   37.4147272
  20.8386152   37.4159914
  20.8404818   37.4172231
  20.8414958   37.4178824
  20.8431771   37.4189593
  20.844847    37.4200113
  20.8457597   37.4205785
  20.8470665   37.4213809
  20.8479387   37.4219105
  20.8492526   37.4226991
  20.850132    37.4232211
  20.8514566   37.4239982
  20.8523432   37.4245124
  20.8536784   37.425278
  20.854572    37.4257845
  20.8559176   37.4265383
  20.8568181   37.427037
  20.858174    37.4277791
  20.8590813   37.4282699
  20.8604473   37.4290001
  20.8613613   37.4294829
  20.8627372   37.4302012
  20.8636578   37.430676
  20.8650435   37.4313822
  20.8659706   37.431849
  20.8673659   37.4325431
  20.8682993   37.4330018
  20.8697053   37.4336843
  20.8706589   37.4341414
  20.8722337   37.4348865
  20.8736937   37.4355671
  20.8751901   37.4362518
  20.876789    37.4369724
  20.8777585   37.4374034
  20.8791972   37.4380348
  20.8801586   37.4384512
  20.8816048   37.4390696
  20.8825718   37.4394777
  20.8840265   37.4400834
  20.884999    37.440483
  20.8864619   37.4410761
  20.8874399   37.4414673
  20.8889119   37.442048
  20.8899077   37.4424354
  20.8915095   37.4430498
  20.8927329   37.4435126
  20.8940779   37.4440144
  20.8953124   37.4444684
  20.8969375   37.4450579
  20.897953    37.4454207
  20.8994622   37.4459519
  20.90047     37.4463013
  20.9019852   37.4468189
  20.9029977   37.4471595
  20.9045199   37.4476638
  20.9055446   37.447998
  20.9072012   37.4485291
  20.9087267   37.4490073
  20.9110336   37.4497131
  20.9125766   37.4501736
  20.9154469   37.4510089
  20.9169783   37.451443
  20.919302    37.4520849
  20.9208495   37.4525011
  20.9225415   37.4529447
  20.9235931   37.4532148
  20.9251616   37.4536102
  20.926209    37.4538692
  20.9277829   37.4542509
  20.9288338   37.4545007
  20.9304128   37.4548686
  20.9314672   37.4551093
  20.9330512   37.4554635
  20.9341087   37.4556949
  20.9356975   37.4560352
  20.9367582   37.4562575
  20.9383515   37.4565839
  20.9394152   37.4567969
  20.9410129   37.4571094
  20.9420795   37.4573131
  20.9436814   37.4576117
  20.9447507   37.4578061
  20.9463567   37.4580907
  20.9474286   37.4582757
  20.9490383   37.4585463
  20.9501127   37.458722
  20.9517643   37.4588461
  20.9528427   37.4590551
  20.9533479   37.459156
  20.9546225   37.4593638
  20.956244    37.4596296
  20.957938    37.4598763
  20.9598085   37.4600336
  20.9607717   37.4600989
  20.9629395   37.4604354
  20.9648372   37.4606558
  20.9658444   37.4607946
  20.9677012   37.4610222
  20.9685806   37.4611166
  20.9700073   37.4612667
  20.9705482   37.4613212
  20.9713645   37.4613999
  20.9742226   37.4616095
  20.9757627   37.4616868
  20.9790051   37.4620126
  20.9799616   37.462075
  20.981602    37.4621753
  20.9826961   37.4622374
  20.9843378   37.4623234
  20.9854326   37.462376
  20.9870754   37.4624477
  20.9881709   37.4624907
  20.9898145   37.462548
  20.9909106   37.4625815
  20.9925549   37.4626245
  20.9936513   37.4626484
  20.9952962   37.4626771
  20.9963853   37.4626914
  20.9978953   37.4627048
  20.9987379   37.4627085
  21.0001295   37.4627083
  21.0009644   37.4627045
  21.003469    37.462682
  21.0043038   37.4626708
  21.0056951   37.462646
  21.0065359   37.4626273
  21.010448    37.4625218
  21.0121185   37.462466
  21.0146338   37.4623652
  21.0163203   37.4622863
  21.018832    37.4621521
  21.020492    37.4620544
  21.0226844   37.461914
  21.0240506   37.4618189
  21.0260748   37.4616668
  21.0274223   37.4615583
  21.0294421   37.4613846
  21.0307876   37.4612615
  21.0328043   37.4610661
  21.0341476   37.4609286
  21.0361608   37.4607115
  21.0375016   37.4605595
  21.0395125   37.4603205
  21.0408685   37.4601518
  21.0430699   37.4598653
  21.0449253   37.4596127
  21.0468476   37.4593365
  21.0487074   37.4590583
  21.0498115   37.4588878
  21.0514404   37.4586285
  21.0525242   37.4584511
  21.054148    37.4581777
  21.0552294   37.4579907
  21.0568493   37.4577031
  21.057928    37.4575067
  21.0595438   37.4572048
  21.0606197   37.4569989
  21.0622325   37.4566826
  21.063319    37.4564644
  21.0650596   37.4561065
  21.0663826   37.4558284
  21.0680405   37.4554722
  21.0693379   37.4551875
  21.071038    37.4548067
  21.072096    37.4545647
  21.0736618   37.454199
  21.0747032   37.4539509
  21.0762628   37.4535721
  21.0773007   37.453315
  21.078855    37.4529227
  21.0798894   37.4526567
  21.0814383   37.452251
  21.082469    37.451976
  21.0840134   37.4515566
  21.0850555   37.4512685
  21.0867791   37.4507831
  21.0884092   37.4503145
  21.0899784   37.449852
  21.0916888   37.4493378
  21.0927275   37.4490201
  21.0942613   37.4485432
  21.0952808   37.4482211
  21.0968067   37.4477313
  21.0978216   37.4474003
  21.0993407   37.4468972
  21.1003511   37.4465574
  21.1018631   37.4460411
  21.1028688   37.4456925
  21.1043736   37.445163
  21.1053744   37.4448056
  21.1068719   37.4442631
  21.1078677   37.443897
  21.1093576   37.4433414
  21.1103484   37.4429667
  21.1118306   37.4423982
  21.1128161   37.4420149
  21.1142904   37.4414334
  21.1152706   37.4410415
  21.1167368   37.4404473
  21.1177116   37.4400469
  21.1191695   37.4394399
  21.1201387   37.439031
  21.1215882   37.4384113
  21.1225518   37.437994
  21.1239938   37.4373613
  21.1249666   37.4369288
  21.1265752   37.4362038
  21.1276182   37.4357273
  21.1287251   37.4352264
  21.1301814   37.4345599
  21.1316443   37.4338779
  21.1332196   37.4331325
  21.1341732   37.4326754
  21.1355792   37.431993
  21.1365126   37.4315343
  21.1379079   37.4308402
  21.1388349   37.4303734
  21.1402206   37.4296672
  21.1411412   37.4291923
  21.1425171   37.4284741
  21.1434311   37.4279912
  21.1447971   37.427261
  21.1457044   37.4267702
  21.1470603   37.4260282
  21.1479608   37.4255295
  21.1493063   37.4247756
  21.1501999   37.4242692
  21.1515351   37.4235036
  21.1524217   37.4229894
  21.1537462   37.4222122
  21.1546257   37.4216903
  21.1559395   37.4209016
  21.1568118   37.4203721
  21.1581185   37.4195696
  21.1590312   37.4190024
  21.160701    37.4179504
  21.1623823   37.4168735
  21.1633963   37.4162143
  21.1652629   37.4149825
  21.1671405   37.4137184
  21.1691353   37.4123474
  21.1711799   37.4109119
  21.1732163   37.4094505
  21.1750472   37.4081089
  21.1762624   37.4073281
  21.1772395   37.4066931
  21.1787795   37.4056791
  21.1797723   37.4050166
  21.181407    37.4039079
  21.1823648   37.4032493
  21.1842784   37.4019157
  21.1856078   37.400973
  21.1875764   37.3995523
  21.1885458   37.3988421
  21.189957    37.3977658
  21.1914542   37.3965785
  21.1922611   37.3959805
  21.193085    37.3953644
  21.1936557   37.3949308
  21.1947621   37.3940766
  21.1953112   37.3936461
  21.1967717   37.3924819
  21.1979015   37.391563
  21.1988226   37.3907986
  21.1995142   37.3902162
  21.2010015   37.3889469
  21.2019033   37.3881704
  21.2025073   37.3876462
  21.2033017   37.3869398
  21.2040291   37.3862774
  21.2049581   37.3855122
  21.2066456   37.3840513
  21.2077092   37.3830825
  21.2095783   37.381355
  21.2109732   37.3800429
  21.2125583   37.3785179
  21.2140042   37.3771011
  21.2148529   37.3762571
  21.2160949   37.3750048
  21.2169153   37.3741662
  21.2181352   37.3729018
  21.2189415   37.3720546
  21.2201403   37.3707774
  21.2209323   37.3699217
  21.2221097   37.3686319
  21.2228874   37.3677679
  21.224044    37.3664647
  21.2248168   37.3655814
  21.226045    37.3641569
  21.2269822   37.3630547
  21.2280533   37.3617755
  21.2292081   37.3603722
  21.2307186   37.3585034
  21.2316475   37.3573316
  21.2330074   37.3555826
  21.2339202   37.3543855
  21.2354085   37.352393
  21.2361019   37.3514479
  21.2368451   37.3504433
  21.2378112   37.3491172
  21.2386873   37.3478938
  21.2396928   37.3464671
  21.2403996   37.345449
  21.2411023   37.3444192
  21.2422291   37.342736
  21.2431032   37.3414046
  21.243761    37.3403922
  21.2451256   37.3382612
  21.2457337   37.3372953
  21.2466931   37.3357438
  21.2475107   37.3343914
  21.2483728   37.3329323
  21.2488877   37.3320457
  21.250017    37.3300696
  21.2505268   37.3291626
  21.2513179   37.3277307
  21.2519081   37.3266412
  21.2526949   37.3251569
  21.2536711   37.323274
  21.2542517   37.3221283
  21.2550907   37.3204351
  21.2556444   37.3192922
  21.2565105   37.3174625
  21.257187    37.3160004
  21.2576795   37.3149062
  21.2583072   37.3134765
  21.2592163   37.3113524
  21.2597735   37.3100118
  21.2605783   37.308017
  21.2611059   37.3066687
  21.261927    37.304502
  21.2625221   37.3028839
  21.2629849   37.3015867
  21.2634218   37.3003218
  21.2640397   37.298474
  21.2644385   37.297242
  21.2654047   37.2941561
  21.265779    37.2929192
  21.2663229   37.2910565
  21.2666849   37.2897694
  21.2671222   37.288147
  21.2676325   37.2861639
  21.2683144   37.2833732
  21.2687089   37.2816763
  21.2689831   37.2804356
  21.2693345   37.2787523
  21.269754    37.2766333
  21.2700487   37.2750636
  21.2704399   37.2728497
  21.2708532   37.2703354
  21.2711567   37.2683407
  21.2713813   37.2667473
  21.2716418   37.2647608
  21.271791    37.2635292
END
END
